<svg width="27" height="263" viewBox="0 0 27 263" fill="none" xmlns="http://www.w3.org/2000/svg">
<path d="M17.704 9.85258C17.704 11.1806 17.44 12.3646 16.912 13.4046C16.4 14.4606 15.616 15.2926 14.56 15.9006C13.52 16.5086 12.24 16.8126 10.72 16.8126L10.72 12.0846L11.56 12.0846C12.296 12.0846 12.88 11.8526 13.312 11.3886C13.744 10.9406 13.96 10.3726 13.96 9.68458L13.96 9.56458C13.96 8.89258 13.728 8.32458 13.264 7.86058C12.8 7.39658 12.232 7.16458 11.56 7.16458L6.928 7.16458C6.256 7.16458 5.688 7.39658 5.224 7.86058C4.76 8.32458 4.528 8.89258 4.528 9.56458L4.528 9.90058C4.528 10.5886 4.736 11.1566 5.152 11.6046C5.584 12.0686 6.176 12.3006 6.928 12.3006L7.72 12.3006L7.72 16.8126C6.312 16.8126 5.08 16.5166 4.024 15.9246C2.968 15.3486 2.16 14.5486 1.6 13.5246C1.04 12.5006 0.76 11.3406 0.76 10.0446L0.76 9.37258C0.76 7.94858 1.048 6.65258 1.624 5.48458C2.2 4.33258 3.032 3.42058 4.12 2.74858C5.208 2.07658 6.488 1.74058 7.96 1.74058L10.504 1.74058C11.896 1.74058 13.136 2.07658 14.224 2.74858C15.328 3.43658 16.184 4.34858 16.792 5.48458C17.4 6.62058 17.704 7.85258 17.704 9.18058L17.704 9.85258ZM0.999999 34.9954L0.999999 29.7634L3.928 28.7794L3.928 23.5474L0.999999 22.5874L0.999999 17.7394L17.464 23.2354L17.464 29.4994L0.999999 34.9954ZM12.4 26.1154L7.408 24.6994L7.408 27.6274L12.4 26.2354L12.4 26.1154ZM17.704 43.299C17.704 45.251 17.28 46.851 16.432 48.099C15.584 49.363 14.328 49.995 12.664 49.995L12.376 49.995L12.376 45.387L12.472 45.387C12.936 45.387 13.312 45.219 13.6 44.883C13.904 44.563 14.056 44.067 14.056 43.395C14.056 42.739 13.96 42.243 13.768 41.907C13.592 41.571 13.352 41.403 13.048 41.403C12.68 41.403 12.384 41.595 12.16 41.979C11.952 42.379 11.768 42.955 11.608 43.707L11.128 45.843C10.456 48.819 8.912 50.307 6.496 50.307C4.528 50.307 3.08 49.659 2.152 48.363C1.224 47.067 0.759998 45.275 0.759998 42.987C0.759998 41.723 0.951998 40.555 1.336 39.483C1.72 38.427 2.304 37.571 3.088 36.915C3.888 36.275 4.872 35.955 6.04 35.955L6.328 35.955C6.456 35.955 6.552 35.963 6.616 35.979L6.616 40.635C6.568 40.619 6.472 40.611 6.328 40.611C5.832 40.611 5.424 40.779 5.104 41.115C4.784 41.467 4.624 42.043 4.624 42.843C4.624 43.723 4.712 44.323 4.888 44.643C5.08 44.963 5.336 45.123 5.656 45.123C6.04 45.123 6.328 44.899 6.52 44.451C6.728 44.003 6.936 43.299 7.144 42.339C7.4 41.123 7.68 40.107 7.984 39.291C8.304 38.491 8.816 37.795 9.52 37.203C10.24 36.611 11.224 36.315 12.472 36.315C13.592 36.315 14.544 36.619 15.328 37.227C16.112 37.851 16.704 38.691 17.104 39.747C17.504 40.803 17.704 41.987 17.704 43.299ZM13.672 64.7158L13.672 57.7798L11.272 57.7798L11.272 64.4518L7.6 64.4518L7.6 57.7798L4.936 57.7798L4.936 64.7158L0.999997 65.1958L0.999998 52.8358L17.464 52.8358L17.464 65.1958L13.672 64.7158ZM0.711997 76.0436C0.711997 75.3236 0.775997 74.6836 0.903997 74.1236C1.032 73.5636 1.16 73.1156 1.288 72.7796C1.432 72.4596 1.504 72.2996 1.504 72.2996L1.744 72.2036C1.744 72.2036 1.848 72.2276 2.056 72.2756C2.264 72.3396 2.552 72.4116 2.92 72.4916C3.304 72.5876 3.752 72.6836 4.264 72.7796C4.776 72.8756 5.328 72.9556 5.92 73.0196L6.04 74.0036C4.856 73.8596 3.952 73.8276 3.328 73.9076C2.72 73.9876 2.304 74.2276 2.08 74.6276C1.872 75.0436 1.768 75.6676 1.768 76.4996C1.768 77.5556 2.032 78.4196 2.56 79.0916C3.104 79.7636 3.816 80.0996 4.696 80.0996C5.336 80.0996 5.88 79.8436 6.328 79.3316C6.792 78.8356 7.224 78.2436 7.624 77.5556C7.976 76.9636 8.344 76.3716 8.728 75.7796C9.112 75.2036 9.544 74.7156 10.024 74.3156C10.52 73.9316 11.112 73.7396 11.8 73.7396C12.68 73.7396 13.472 73.9796 14.176 74.4596C14.896 74.9556 15.472 75.6276 15.904 76.4756C16.336 77.3236 16.552 78.2676 16.552 79.3076C16.552 79.9956 16.504 80.6116 16.408 81.1556C16.312 81.6996 16.216 82.1316 16.12 82.4516C16.024 82.7876 15.976 82.9556 15.976 82.9556L15.856 83.0036C15.856 83.0036 15.672 82.9476 15.304 82.8356C14.936 82.7396 14.44 82.6116 13.816 82.4516C13.208 82.3076 12.536 82.1636 11.8 82.0196L11.704 81.1556L11.824 81.0356C11.824 81.0356 11.92 81.0596 12.112 81.1076C12.304 81.1556 12.536 81.1956 12.808 81.2276C13.096 81.2756 13.36 81.2996 13.6 81.2996C14.256 81.2996 14.712 81.1076 14.968 80.7236C15.24 80.3556 15.376 79.7076 15.376 78.7796C15.376 77.8676 15.128 77.0916 14.632 76.4516C14.152 75.8276 13.544 75.5156 12.808 75.5156C12.296 75.5156 11.848 75.6836 11.464 76.0196C11.08 76.3556 10.712 76.7716 10.36 77.2676C10.04 77.7476 9.72 78.2596 9.4 78.8036C9.096 79.3636 8.768 79.8836 8.416 80.3636C8.064 80.8596 7.664 81.2596 7.216 81.5636C6.768 81.8836 6.256 82.0436 5.68 82.0436C4.752 82.0436 3.912 81.7876 3.16 81.2756C2.408 80.7796 1.808 80.0756 1.36 79.1636C0.927997 78.2676 0.711997 77.2276 0.711997 76.0436ZM4.072 92.5997L3.496 92.8877C3 92.4397 2.536 91.9837 2.104 91.5197C1.688 91.0557 1.352 90.6237 1.096 90.2237C0.839996 89.8397 0.711996 89.5197 0.711996 89.2637C0.711996 88.7837 0.855996 88.4157 1.144 88.1597C1.432 87.9037 1.824 87.8077 2.32 87.8717L10.552 89.1917L10.648 89.0717L10.72 87.4157L10.84 87.3437L11.536 87.4397L11.848 89.3597C12.312 89.4237 12.76 89.4797 13.192 89.5277C13.64 89.5917 14.008 89.6397 14.296 89.6717C14.584 89.7197 14.728 89.7437 14.728 89.7437L15.568 91.9037L15.28 92.0477C15.28 92.0477 15.12 91.9997 14.8 91.9037C14.48 91.8077 14.048 91.6797 13.504 91.5197C12.976 91.3757 12.4 91.2317 11.776 91.0877L11.8 94.0157L11.728 94.1117L10.768 93.9197L10.792 91.0877L10.648 90.8237L3.28 89.3597C2.72 89.2797 2.44 89.4637 2.44 89.9117C2.44 90.1357 2.56 90.4237 2.8 90.7757C3.056 91.1437 3.488 91.6477 4.096 92.2877L4.072 92.5997ZM0.711996 99.5395C0.711996 98.8995 0.895996 98.3875 1.264 98.0035C1.632 97.6195 2.12 97.4275 2.728 97.4275C3 97.4275 3.384 97.4835 3.88 97.5955C4.392 97.7235 4.944 97.8755 5.536 98.0515C6.144 98.2275 6.744 98.4035 7.336 98.5795C7.928 98.7555 8.456 98.8995 8.92 99.0115C9.384 99.1395 9.72 99.2035 9.928 99.2035C10.504 99.2035 10.792 98.8675 10.792 98.1955L10.792 97.2115L11.704 97.4035C11.704 97.7395 11.712 98.1395 11.728 98.6035C11.744 99.0675 11.76 99.5395 11.776 100.019C11.808 100.499 11.832 100.923 11.848 101.291L11.56 101.507C10.296 101.059 9.096 100.651 7.96 100.283C6.84 99.9315 5.88 99.6515 5.08 99.4435C4.28 99.2355 3.736 99.1315 3.448 99.1315C3.16 99.1315 2.944 99.1875 2.8 99.2995C2.672 99.4115 2.608 99.5955 2.608 99.8515C2.608 100.171 2.928 100.595 3.568 101.123C4.208 101.651 5.096 102.227 6.232 102.851C7.368 103.491 8.672 104.131 10.144 104.771L6.28 104.483L6.472 103.907C5.096 103.187 3.928 102.467 2.968 101.747C2.024 101.027 1.272 100.291 0.711996 99.5395ZM0.711995 103.931C0.711996 103.355 0.935996 103.067 1.384 103.067C1.48 103.067 1.664 103.091 1.936 103.139C2.208 103.187 2.576 103.259 3.04 103.355C3.52 103.451 4.096 103.571 4.768 103.715C5.456 103.859 6.24 104.027 7.12 104.219L8.056 104.243L11.872 104.939L11.944 105.155L11.728 106.595L11.536 106.763C10.704 106.507 9.752 106.243 8.68 105.971C7.624 105.715 6.56 105.475 5.488 105.251C4.416 105.027 3.432 104.851 2.536 104.723L2.44 104.795C2.44 104.875 2.464 104.963 2.512 105.059C2.576 105.171 2.712 105.347 2.92 105.587C3.128 105.843 3.44 106.211 3.856 106.691L3.832 106.979L3.256 107.291C2.632 106.635 2.136 106.083 1.768 105.635C1.4 105.203 1.136 104.851 0.975995 104.579C0.799995 104.307 0.711995 104.091 0.711995 103.931ZM2.43999 118.818C2.43999 118.898 2.46399 118.978 2.51199 119.058C2.57599 119.154 2.70399 119.322 2.89599 119.562C3.10399 119.818 3.42399 120.202 3.85599 120.714L3.83199 121.002L3.25599 121.314C2.63199 120.658 2.13599 120.106 1.76799 119.658C1.39999 119.226 1.13599 118.874 0.975995 118.602C0.799995 118.346 0.711995 118.13 0.711995 117.954C0.711995 117.378 0.943995 117.09 1.40799 117.09C1.50399 117.09 1.73599 117.122 2.104 117.186C2.472 117.266 2.896 117.354 3.376 117.45C3.856 117.562 4.328 117.666 4.792 117.762C5.256 117.858 5.64 117.938 5.944 118.002C6.248 118.082 6.4 118.122 6.4 118.122L6.448 117.954C4.992 117.17 3.8 116.418 2.872 115.698C1.96 114.978 1.24 114.242 0.711995 113.49C0.711995 112.882 0.999995 112.41 1.576 112.074C2.152 111.738 2.952 111.57 3.976 111.57C4.968 111.57 5.936 111.722 6.88 112.026C7.84 112.346 8.704 112.77 9.472 113.298C10.256 113.842 10.88 114.434 11.344 115.074C11.808 115.73 12.04 116.394 12.04 117.066L11.752 118.794L16.48 119.418C16.848 119.466 17.112 119.41 17.272 119.25C17.448 119.106 17.536 118.834 17.536 118.434L17.536 117.45L18.448 117.594C18.448 117.962 18.456 118.362 18.472 118.794C18.488 119.242 18.504 119.666 18.52 120.066C18.536 120.482 18.552 120.818 18.568 121.074C18.584 121.33 18.592 121.458 18.592 121.458L18.304 121.674C18.304 121.674 18.048 121.618 17.536 121.506C17.024 121.394 16.328 121.25 15.448 121.074C14.568 120.898 13.576 120.698 12.472 120.474C11.368 120.266 10.224 120.05 9.04 119.826C7.872 119.602 6.72 119.394 5.584 119.202C4.464 119.026 3.44799 118.874 2.53599 118.746L2.43999 118.818ZM2.656 113.946C2.656 114.25 2.984 114.658 3.64 115.17C4.296 115.698 5.176 116.266 6.28 116.874C7.384 117.498 8.616 118.098 9.976 118.674C10.136 118.418 10.272 118.146 10.384 117.858C10.496 117.586 10.584 117.314 10.648 117.042C10.712 116.77 10.744 116.53 10.744 116.322C10.744 115.81 10.472 115.314 9.928 114.834C9.4 114.37 8.712 113.986 7.864 113.682C7.016 113.394 6.112 113.25 5.152 113.25C4.464 113.25 3.872 113.314 3.376 113.442C2.896 113.586 2.656 113.754 2.656 113.946ZM2.43999 127.984C2.43999 128.112 2.52799 128.288 2.70399 128.512C2.87999 128.736 3.26399 129.192 3.85599 129.88L3.83199 130.168L3.25599 130.48C2.67999 129.92 2.19999 129.416 1.81599 128.968C1.44799 128.536 1.17599 128.168 0.999994 127.864C0.807994 127.56 0.711994 127.312 0.711994 127.12C0.711995 126.64 0.991995 126.4 1.55199 126.4C2.94399 126.64 4.23199 126.848 5.41599 127.024C6.59999 127.216 7.58399 127.36 8.36799 127.456C9.15199 127.568 9.62399 127.624 9.784 127.624C10.152 127.624 10.408 127.544 10.552 127.384C10.712 127.24 10.792 126.984 10.792 126.616L10.792 125.632L11.704 125.8C11.704 126.136 11.712 126.536 11.728 127C11.744 127.464 11.76 127.936 11.776 128.416C11.808 128.896 11.832 129.32 11.848 129.688L11.56 129.904C10.712 129.648 9.75199 129.384 8.67999 129.112C7.62399 128.856 6.55999 128.624 5.48799 128.416C4.41599 128.208 3.43199 128.04 2.53599 127.912L2.43999 127.984ZM14.872 128.872C14.872 128.52 14.984 128.264 15.208 128.104C15.432 127.944 15.68 127.864 15.952 127.864C16.368 127.864 16.728 128.016 17.032 128.32C17.352 128.624 17.512 128.992 17.512 129.424C17.512 129.776 17.4 130.032 17.176 130.192C16.952 130.368 16.704 130.456 16.432 130.456C16.016 130.456 15.648 130.296 15.328 129.976C15.024 129.672 14.872 129.304 14.872 128.872ZM10.264 142.16C9.59199 142.16 8.98399 141.968 8.43999 141.584C7.91199 141.2 7.41599 140.592 6.95199 139.76C6.48799 138.928 6.02399 137.824 5.55999 136.448C4.53599 136.384 3.71199 136.504 3.08799 136.808C2.46399 137.128 2.15199 137.568 2.15199 138.128C2.15199 138.608 2.33599 139.088 2.70399 139.568C3.08799 140.048 3.59199 140.448 4.21599 140.768L4.19199 141.104L3.61599 141.464C3.05599 141.16 2.55199 140.792 2.10399 140.36C1.67199 139.928 1.32799 139.472 1.07199 138.992C0.831994 138.528 0.711994 138.064 0.711994 137.6C0.711994 136.736 1.06399 136.056 1.76799 135.56C2.48799 135.064 3.45599 134.816 4.67199 134.816C5.59999 134.816 6.50399 134.968 7.38399 135.272C8.27999 135.592 9.07999 136.008 9.78399 136.52C10.504 137.048 11.072 137.632 11.488 138.272C11.92 138.928 12.136 139.592 12.136 140.264C12.136 140.872 11.976 141.336 11.656 141.656C11.336 141.992 10.872 142.16 10.264 142.16ZM10.744 139.496C10.744 139.08 10.552 138.664 10.168 138.248C9.79999 137.848 9.29599 137.496 8.65599 137.192C8.03199 136.888 7.33599 136.672 6.56799 136.544C6.99999 137.936 7.45599 138.936 7.93599 139.544C8.41599 140.152 8.98399 140.456 9.63999 140.456C10.376 140.456 10.744 140.136 10.744 139.496ZM4.31199 146.873C3.49599 146.873 2.87199 147.073 2.43999 147.473C2.02399 147.873 1.81599 148.441 1.81599 149.177C1.81599 149.641 1.96799 150.033 2.27199 150.353C2.57599 150.689 2.93599 150.857 3.35199 150.857C3.76799 150.857 4.14399 150.705 4.47999 150.401C4.83199 150.113 5.18399 149.761 5.53599 149.345C5.83999 148.993 6.15199 148.641 6.47199 148.289C6.80799 147.953 7.15999 147.665 7.52799 147.425C7.91199 147.201 8.32799 147.089 8.77599 147.089C9.38399 147.089 9.93599 147.257 10.432 147.593C10.944 147.945 11.352 148.409 11.656 148.985C11.976 149.561 12.136 150.177 12.136 150.833C12.136 151.377 12.048 151.865 11.872 152.297C11.712 152.745 11.48 153.081 11.176 153.305C10.888 153.209 10.56 153.073 10.192 152.897C9.82399 152.737 9.52799 152.601 9.30399 152.489L9.30399 152.153C9.83199 151.977 10.24 151.705 10.528 151.337C10.832 150.969 10.984 150.545 10.984 150.065C10.984 149.681 10.856 149.353 10.6 149.081C10.36 148.825 10.056 148.697 9.68799 148.697C9.43199 148.697 9.18399 148.761 8.94399 148.889C8.70399 149.033 8.47199 149.209 8.24799 149.417C7.95999 149.689 7.67199 149.993 7.38399 150.329C7.09599 150.681 6.79199 151.017 6.47199 151.337C6.16799 151.657 5.83199 151.921 5.46399 152.129C5.11199 152.337 4.71999 152.441 4.28799 152.441C3.67999 152.441 3.09599 152.249 2.53599 151.865C1.99199 151.497 1.55199 151.009 1.21599 150.401C0.879993 149.809 0.711994 149.169 0.711994 148.481C0.711994 147.745 0.831994 147.121 1.07199 146.609C1.31199 146.113 1.63999 145.801 2.05599 145.673C2.29599 145.737 2.55999 145.817 2.84799 145.913C3.15199 146.025 3.43199 146.137 3.68799 146.249C3.95999 146.361 4.16799 146.457 4.31199 146.537L4.31199 146.873Z" fill="#0A0A0A"/>
<path d="M22.645 262.38C22.8403 262.575 23.1568 262.575 23.3521 262.38L26.5341 259.198C26.7293 259.003 26.7293 258.686 26.5341 258.491C26.3388 258.296 26.0222 258.296 25.827 258.491L22.9985 261.319L20.1701 258.491C19.9749 258.296 19.6583 258.296 19.463 258.491C19.2678 258.686 19.2678 259.003 19.463 259.198L22.645 262.38ZM22.4985 0.996582L22.4985 262.027L23.4985 262.027L23.4985 0.996582L22.4985 0.996582Z" fill="#0A0A0A"/>
</svg>
