<svg width="28" height="263" viewBox="0 0 28 263" fill="none" xmlns="http://www.w3.org/2000/svg">
<path d="M1.296 139.171C1.296 137.843 1.56 136.659 2.088 135.619C2.6 134.563 3.384 133.731 4.44 133.123C5.48 132.515 6.76 132.211 8.28 132.211L8.28 136.939L7.44 136.939C6.704 136.939 6.12 137.171 5.688 137.635C5.256 138.083 5.04 138.651 5.04 139.339L5.04 139.459C5.04 140.131 5.272 140.699 5.736 141.163C6.2 141.627 6.768 141.859 7.44 141.859L12.072 141.859C12.744 141.859 13.312 141.627 13.776 141.163C14.24 140.699 14.472 140.131 14.472 139.459L14.472 139.123C14.472 138.435 14.264 137.867 13.848 137.419C13.416 136.955 12.824 136.723 12.072 136.723L11.28 136.723L11.28 132.211C12.688 132.211 13.92 132.507 14.976 133.099C16.032 133.675 16.84 134.475 17.4 135.499C17.96 136.523 18.24 137.683 18.24 138.979L18.24 139.651C18.24 141.075 17.952 142.371 17.376 143.539C16.8 144.691 15.968 145.603 14.88 146.275C13.792 146.947 12.512 147.283 11.04 147.283L8.496 147.283C7.104 147.283 5.864 146.947 4.776 146.275C3.672 145.587 2.816 144.675 2.208 143.539C1.6 142.403 1.296 141.171 1.296 139.843L1.296 139.171ZM18 114.028L18 119.26L15.072 120.244L15.072 125.476L18 126.436L18 131.284L1.536 125.788L1.536 119.524L18 114.028ZM6.6 122.908L11.592 124.324L11.592 121.396L6.6 122.788L6.6 122.908ZM1.296 105.724C1.296 103.772 1.72 102.172 2.568 100.924C3.416 99.6601 4.672 99.0281 6.336 99.0281L6.624 99.0281L6.624 103.636L6.528 103.636C6.064 103.636 5.688 103.804 5.4 104.14C5.096 104.46 4.944 104.956 4.944 105.628C4.944 106.284 5.04 106.78 5.232 107.116C5.408 107.452 5.648 107.62 5.952 107.62C6.32 107.62 6.616 107.428 6.84 107.044C7.048 106.644 7.232 106.068 7.392 105.316L7.872 103.18C8.544 100.204 10.088 98.7161 12.504 98.7161C14.472 98.7161 15.92 99.3641 16.848 100.66C17.776 101.956 18.24 103.748 18.24 106.036C18.24 107.3 18.048 108.468 17.664 109.54C17.28 110.596 16.696 111.452 15.912 112.108C15.112 112.748 14.128 113.068 12.96 113.068L12.672 113.068C12.544 113.068 12.448 113.06 12.384 113.044L12.384 108.388C12.432 108.404 12.528 108.412 12.672 108.412C13.168 108.412 13.576 108.244 13.896 107.908C14.216 107.556 14.376 106.98 14.376 106.18C14.376 105.3 14.288 104.7 14.112 104.38C13.92 104.06 13.664 103.9 13.344 103.9C12.96 103.9 12.672 104.124 12.48 104.572C12.272 105.02 12.064 105.724 11.856 106.684C11.6 107.9 11.32 108.916 11.016 109.732C10.696 110.532 10.184 111.228 9.48 111.82C8.76 112.412 7.776 112.708 6.528 112.708C5.408 112.708 4.456 112.404 3.672 111.796C2.888 111.172 2.296 110.332 1.896 109.276C1.496 108.22 1.296 107.036 1.296 105.724ZM5.328 84.3073L5.328 91.2433L7.728 91.2433L7.728 84.5713L11.4 84.5713L11.4 91.2433L14.064 91.2433L14.064 84.3073L18 83.8273L18 96.1873L1.536 96.1873L1.536 83.8273L5.328 84.3073ZM18.288 72.3315C18.288 73.0835 18.216 73.7475 18.072 74.3235C17.944 74.8835 17.816 75.3235 17.688 75.6435C17.544 75.9475 17.472 76.0995 17.472 76.0995L17.232 76.2195C17.232 76.2195 17.128 76.2035 16.92 76.1715C16.696 76.1395 16.4 76.1075 16.032 76.0755C15.648 76.0435 15.2 76.0115 14.688 75.9795C14.176 75.9475 13.632 75.9315 13.056 75.9315L12.936 74.8515C14.088 74.8515 14.968 74.7715 15.576 74.6115C16.168 74.4515 16.576 74.1475 16.8 73.6995C17.008 73.2515 17.112 72.5955 17.112 71.7315C17.112 70.7395 16.88 69.9395 16.416 69.3315C15.936 68.7075 15.288 68.3955 14.472 68.3955C13.944 68.3955 13.488 68.5715 13.104 68.9235C12.72 69.2755 12.368 69.7315 12.048 70.2915C11.728 70.8355 11.408 71.4195 11.088 72.0435C10.752 72.6835 10.392 73.3075 10.008 73.9155C9.624 74.5075 9.184 74.9955 8.688 75.3795C8.176 75.7635 7.576 75.9555 6.888 75.9555C6.04 75.9555 5.28 75.7155 4.608 75.2355C3.936 74.7395 3.408 74.0755 3.024 73.2435C2.624 72.4115 2.424 71.4755 2.424 70.4355C2.424 69.7155 2.472 69.0835 2.568 68.5395C2.664 67.9795 2.768 67.5475 2.88 67.2435C2.976 66.9235 3.024 66.7635 3.024 66.7635L3.168 66.6915C3.168 66.6915 3.352 66.7315 3.72 66.8115C4.088 66.8755 4.584 66.9475 5.208 67.0275C5.816 67.1075 6.488 67.1715 7.224 67.2195L7.32 68.1555L7.2 68.2995C7.2 68.2995 7.088 68.2915 6.864 68.2755C6.624 68.2435 6.32 68.2275 5.952 68.2275C5.104 68.2275 4.52 68.4355 4.2 68.8515C3.88 69.2515 3.72 69.9955 3.72 71.0835C3.72 71.9635 3.944 72.6915 4.392 73.2675C4.824 73.8275 5.368 74.1075 6.024 74.1075C6.504 74.1075 6.936 73.9555 7.32 73.6515C7.688 73.3475 8.024 72.9475 8.328 72.4515C8.632 71.9555 8.936 71.4195 9.24 70.8435C9.592 70.1395 9.968 69.4515 10.368 68.7795C10.768 68.0915 11.224 67.5235 11.736 67.0755C12.248 66.6275 12.872 66.4035 13.608 66.4035C14.52 66.4035 15.328 66.6595 16.032 67.1715C16.736 67.6675 17.288 68.3635 17.688 69.2595C18.088 70.1395 18.288 71.1635 18.288 72.3315ZM18.288 59.437C18.288 60.525 18.072 61.293 17.64 61.741C17.192 62.189 16.44 62.413 15.384 62.413L9.48 62.413C9.048 62.413 8.744 62.509 8.568 62.701C8.392 62.893 8.296 63.253 8.28 63.781L8.136 63.877L7.416 63.757C7.224 63.373 7.008 63.005 6.768 62.653C6.512 62.285 6.272 61.965 6.048 61.693C5.808 61.405 5.616 61.181 5.472 61.021C5.312 60.861 5.232 60.781 5.232 60.781L5.42399 60.301C5.42399 60.301 5.576 60.325 5.88 60.373C6.184 60.405 6.632 60.445 7.224 60.493L7.152 56.965L7.224 56.893L8.496 57.109L8.424 60.589C9.176 60.637 10.056 60.677 11.064 60.709C12.072 60.741 13.192 60.757 14.424 60.757C15.24 60.757 15.816 60.621 16.152 60.349C16.488 60.061 16.656 59.573 16.656 58.885C16.656 58.485 16.584 58.117 16.44 57.781C16.296 57.429 16.224 57.253 16.224 57.253L16.848 57.013C16.848 57.013 16.92 57.109 17.064 57.301C17.208 57.493 17.376 57.733 17.568 58.021C17.76 58.293 17.928 58.565 18.072 58.837C18.216 59.093 18.288 59.293 18.288 59.437ZM9.672 53.8191C9.256 53.8191 8.936 53.8911 8.712 54.0351C8.488 54.1791 8.376 54.4031 8.376 54.7071C8.376 54.8351 8.392 54.9711 8.424 55.1151C8.456 55.2431 8.472 55.3071 8.472 55.3071L7.584 55.2111C7.52 54.8431 7.448 54.4591 7.368 54.0591C7.288 53.6591 7.208 53.2911 7.128 52.9551C7.048 52.6031 6.984 52.3231 6.936 52.1151C6.888 51.8911 6.864 51.7791 6.864 51.7791L7.152 51.6351C7.36 51.7151 7.72 51.7951 8.232 51.8751C8.728 51.9391 9.312 52.0031 9.984 52.0671C10.656 52.1311 11.368 52.1791 12.12 52.2111C12.856 52.2431 13.576 52.2591 14.28 52.2591C15.848 52.2591 16.632 51.6191 16.632 50.3391C16.632 49.7791 16.48 49.2591 16.176 48.7791C15.856 48.2831 15.552 47.8351 15.264 47.4351L9.696 47.4351C9.216 47.4351 8.88 47.5231 8.688 47.6991C8.496 47.8751 8.4 48.1871 8.4 48.6351C8.4 48.6991 8.408 48.8111 8.424 48.9711C8.424 49.1311 8.424 49.2111 8.424 49.2111L7.55999 49.1151C7.496 48.6831 7.424 48.2511 7.34399 47.8191C7.26399 47.3871 7.19199 46.9951 7.128 46.6431C7.04799 46.2751 6.98399 45.9791 6.93599 45.7551C6.888 45.5311 6.864 45.4191 6.864 45.4191L7.15199 45.2751C7.392 45.3711 7.928 45.4591 8.75999 45.5391C9.592 45.6191 10.6 45.6831 11.784 45.7311C12.968 45.7791 14.2 45.8031 15.48 45.8031C15.832 45.8031 16.104 45.7151 16.296 45.5391C16.488 45.3631 16.584 45.1231 16.584 44.8191C16.584 44.5631 16.536 44.3311 16.44 44.1231C16.328 43.8991 16.224 43.7231 16.128 43.5951C16.032 43.4511 15.984 43.3791 15.984 43.3791L16.368 43.0431C16.368 43.0431 16.464 43.1151 16.656 43.2591C16.848 43.3871 17.072 43.5631 17.328 43.7871C17.584 43.9951 17.808 44.2191 18 44.4591C18.192 44.6991 18.288 44.9231 18.288 45.1311C18.288 46.4271 17.64 47.1391 16.344 47.2671L16.296 47.3871C16.888 48.1551 17.368 48.8511 17.736 49.4751C18.104 50.0831 18.288 50.4991 18.288 50.7231C18.288 51.7471 18.048 52.5391 17.568 53.0991C17.088 53.6431 16.4 53.9151 15.504 53.9151L9.672 53.8191ZM18.288 31.7147C18.288 32.9627 17.72 33.6747 16.584 33.8507L16.512 34.0187C17.072 34.8507 17.496 35.5147 17.784 36.0107C18.072 36.5067 18.216 36.8427 18.216 37.0187C18.216 37.9307 18.008 38.7387 17.592 39.4427C17.16 40.1307 16.568 40.6747 15.816 41.0747C15.048 41.4587 14.16 41.6507 13.152 41.6507C12 41.6507 10.952 41.3867 10.008 40.8587C9.048 40.3147 8.28799 39.5867 7.72799 38.6747C7.15199 37.7627 6.86399 36.7627 6.86399 35.6747C6.86399 35.4507 6.87199 35.2027 6.88799 34.9307C6.90399 34.6587 6.92799 34.3547 6.95999 34.0187L2.97599 34.0187C2.52799 34.0187 2.19999 34.0907 1.99199 34.2347C1.78399 34.3787 1.67999 34.6027 1.67999 34.9067C1.67999 35.0347 1.69599 35.1707 1.72799 35.3147C1.75999 35.4427 1.77599 35.5067 1.77599 35.5067L0.887994 35.4107C0.839994 34.9947 0.775995 34.5787 0.695995 34.1627C0.615995 33.7467 0.535995 33.3627 0.455995 33.0107C0.375994 32.6587 0.311994 32.3787 0.263994 32.1707C0.215994 31.9627 0.191994 31.8587 0.191994 31.8587L0.503994 31.7147C0.615994 31.7787 0.975994 31.8427 1.58399 31.9067C2.19199 31.9707 2.99199 32.0347 3.98399 32.0987C4.97599 32.1467 6.09599 32.1947 7.34399 32.2427C8.57599 32.2907 9.88799 32.3307 11.28 32.3627C12.672 32.3787 14.072 32.3867 15.48 32.3867C15.832 32.3867 16.104 32.2987 16.296 32.1227C16.488 31.9467 16.584 31.7067 16.584 31.4027C16.584 31.1467 16.536 30.9147 16.44 30.7067C16.328 30.4827 16.224 30.3067 16.128 30.1787C16.032 30.0347 15.984 29.9627 15.984 29.9627L16.368 29.6267C16.368 29.6267 16.448 29.6827 16.608 29.7947C16.768 29.9067 16.968 30.0587 17.208 30.2507C17.432 30.4427 17.648 30.6667 17.856 30.9227C18.064 31.1627 18.208 31.4267 18.288 31.7147ZM16.656 36.6347C16.656 36.3467 16.592 36.0507 16.464 35.7467C16.336 35.4427 16.192 35.1627 16.032 34.9067C15.856 34.6347 15.704 34.4187 15.576 34.2587C15.448 34.0987 15.384 34.0187 15.384 34.0187L8.80799 34.0187C8.80799 34.0187 8.71999 34.2267 8.54399 34.6427C8.35199 35.0587 8.25599 35.6267 8.25599 36.3467C8.25599 37.4187 8.62399 38.2667 9.35999 38.8907C10.08 39.4987 11.072 39.8027 12.336 39.8027C13.136 39.8027 13.864 39.6667 14.52 39.3947C15.176 39.1067 15.696 38.7227 16.08 38.2427C16.464 37.7627 16.656 37.2267 16.656 36.6347ZM18.288 28.0881L17.304 27.9921C17.176 27.5121 16.992 27.1681 16.752 26.9601C16.496 26.7521 16.16 26.6481 15.744 26.6481L9.64799 26.6481C9.19999 26.6481 8.87199 26.7201 8.66399 26.8641C8.45599 27.0081 8.35199 27.2321 8.35199 27.5361C8.35199 27.6641 8.36799 27.8001 8.39999 27.9441C8.43199 28.0721 8.44799 28.1361 8.44799 28.1361L7.55999 28.0401C7.49599 27.6401 7.42399 27.2401 7.34399 26.8401C7.26399 26.4241 7.19199 26.0481 7.12799 25.7121C7.04799 25.3761 6.98399 25.1041 6.93599 24.8961C6.88799 24.6881 6.86399 24.5841 6.86399 24.5841L7.15199 24.4641C7.31199 24.5281 7.67199 24.6001 8.23199 24.6801C8.77599 24.7441 9.44799 24.8001 10.248 24.8481C11.032 24.8961 11.896 24.9361 12.84 24.9681C13.768 25.0001 14.704 25.0161 15.648 25.0161C16.112 25.0161 16.456 24.9521 16.68 24.8241C16.888 24.6961 16.992 24.4801 16.992 24.1761C16.992 24.0321 16.984 23.8561 16.968 23.6481C16.952 23.4401 16.944 23.3361 16.944 23.3361L17.04 23.2881L18.072 23.4801C18.072 23.4801 18.064 23.5521 18.048 23.6961C18.048 23.8241 18.04 24.0001 18.024 24.2241C18.024 24.4321 18.016 24.6641 18 24.9201C18 25.1601 18 25.3921 18 25.6161C18 25.9521 18.024 26.3121 18.072 26.6961C18.12 27.0801 18.168 27.4081 18.216 27.6801C18.264 27.9521 18.288 28.0881 18.288 28.0881ZM4.03199 25.9761C4.03199 26.3761 3.90399 26.6721 3.64799 26.8641C3.39199 27.0561 3.11199 27.1521 2.80799 27.1521C2.42399 27.1521 2.09599 27.0161 1.82399 26.7441C1.53599 26.4721 1.39199 26.1361 1.39199 25.7361C1.39199 25.3521 1.51999 25.0641 1.77599 24.8721C2.01599 24.6641 2.29599 24.5601 2.61599 24.5601C2.99999 24.5601 3.33599 24.6961 3.62399 24.9681C3.89599 25.2241 4.03199 25.5601 4.03199 25.9761ZM18.288 15.9866C18.288 16.9946 18.064 17.8746 17.616 18.6266C17.168 19.3786 16.552 19.9706 15.768 20.4026C14.968 20.8186 14.04 21.0266 12.984 21.0266C12.168 21.0266 11.392 20.8906 10.656 20.6186C9.91999 20.3306 9.27199 19.9386 8.71199 19.4426C8.13599 18.9466 7.68799 18.3866 7.36799 17.7626C7.03199 17.1226 6.86399 16.4426 6.86399 15.7226C6.86399 13.3386 8.02399 12.1466 10.344 12.1466C10.552 12.1466 10.768 12.1626 10.992 12.1946C11.216 12.2266 11.392 12.2586 11.52 12.2906L11.808 12.6026L11.808 19.2266C13.232 19.2426 14.36 18.9866 15.192 18.4586C16.008 17.9146 16.488 17.1546 16.632 16.1786C16.76 15.2026 16.52 14.0506 15.912 12.7226L15.96 12.5786L16.656 12.3146C16.88 12.6346 17.12 13.0186 17.376 13.4666C17.632 13.8986 17.848 14.3386 18.024 14.7866C18.2 15.2346 18.288 15.6346 18.288 15.9866ZM10.92 19.1306L10.704 14.7866C10.672 14.5466 10.616 14.3866 10.536 14.3066C10.456 14.2266 10.296 14.1866 10.056 14.1866C9.41599 14.1866 8.92799 14.3626 8.59199 14.7146C8.25599 15.0506 8.08799 15.5386 8.08799 16.1786C8.08799 16.9146 8.34399 17.5546 8.85599 18.0986C9.35199 18.6426 10.04 18.9866 10.92 19.1306ZM18.288 6.54883C18.288 7.12483 18.24 7.62883 18.144 8.06083C18.064 8.49283 17.984 8.82883 17.904 9.06883C17.824 9.29283 17.784 9.40483 17.784 9.40483L17.616 9.47683C17.44 9.44483 17.152 9.41283 16.752 9.38083C16.336 9.33283 15.904 9.29283 15.456 9.26083C15.008 9.21283 14.656 9.18883 14.4 9.18883L14.28 8.34883C15.336 8.34883 16.08 8.17283 16.512 7.82083C16.944 7.46883 17.16 6.86883 17.16 6.02083C17.16 5.41283 17.024 4.90083 16.752 4.48483C16.48 4.06883 16.144 3.86083 15.744 3.86083C15.472 3.86083 15.224 3.94083 15 4.10083C14.776 4.26083 14.528 4.54083 14.256 4.94083C13.984 5.34083 13.656 5.90883 13.272 6.64483C12.808 7.55683 12.336 8.22083 11.856 8.63683C11.376 9.05283 10.848 9.26083 10.272 9.26083C9.61599 9.26083 9.03199 9.06883 8.51999 8.68483C8.00799 8.30083 7.60799 7.77283 7.31999 7.10083C7.01599 6.42883 6.86399 5.67683 6.86399 4.84483C6.86399 4.18883 6.92799 3.62883 7.05599 3.16483C7.18399 2.68483 7.24799 2.44483 7.24799 2.44483L7.36799 2.39683C7.36799 2.39683 7.50399 2.42883 7.77599 2.49283C8.04799 2.54083 8.40799 2.60483 8.85599 2.68483C9.28799 2.74883 9.76799 2.80483 10.296 2.85283L10.368 3.74083C10.368 3.74083 10.28 3.73283 10.104 3.71683C9.92799 3.70083 9.78399 3.69283 9.67199 3.69283C9.09599 3.69283 8.67999 3.85283 8.42399 4.17283C8.15199 4.47683 8.01599 4.97283 8.01599 5.66083C8.01599 6.20483 8.14399 6.66883 8.39999 7.05283C8.65599 7.42083 8.96799 7.60483 9.33599 7.60483C9.71999 7.60483 10.08 7.44483 10.416 7.12483C10.752 6.78883 11.112 6.25283 11.496 5.51683C11.944 4.65283 12.352 3.98083 12.72 3.50083C13.072 3.00483 13.416 2.66083 13.752 2.46883C14.088 2.26083 14.456 2.15683 14.856 2.15683C15.464 2.15683 16.032 2.36483 16.56 2.78083C17.088 3.18083 17.512 3.71683 17.832 4.38883C18.136 5.04483 18.288 5.76483 18.288 6.54883Z" fill="#0A0A0A"/>
<path d="M23.6465 262.38C23.8417 262.575 24.1583 262.575 24.3536 262.38L27.5355 259.198C27.7308 259.003 27.7308 258.686 27.5355 258.491C27.3403 258.296 27.0237 258.296 26.8284 258.491L24 261.319L21.1716 258.491C20.9763 258.296 20.6597 258.296 20.4645 258.491C20.2692 258.686 20.2692 259.003 20.4645 259.198L23.6465 262.38ZM23.5 0.996582L23.5 262.027L24.5 262.027L24.5 0.996582L23.5 0.996582Z" fill="#0A0A0A"/>
</svg>
