<svg width="236" height="241" viewBox="0 0 236 241" fill="none" xmlns="http://www.w3.org/2000/svg">
<path d="M228.438 138.565C227.072 138.382 226.144 137.907 225.655 137.139C225.166 136.371 224.994 135.443 225.139 134.354C225.243 133.576 225.472 132.929 225.827 132.413C226.181 131.906 226.742 131.541 227.511 131.318C228.279 131.104 229.303 131.083 230.581 131.254L230.959 131.305C232.238 131.476 233.22 131.766 233.905 132.174C234.589 132.592 235.035 133.092 235.243 133.674C235.45 134.266 235.502 134.951 235.398 135.728C235.251 136.827 234.847 137.678 234.185 138.281C233.521 138.895 232.492 139.108 231.097 138.921L231.2 138.149C232.353 138.303 233.192 138.144 233.719 137.67C234.255 137.198 234.583 136.519 234.701 135.635C234.828 134.682 234.63 133.909 234.108 133.314C233.595 132.721 232.569 132.322 231.029 132.115L230.302 132.018C228.762 131.812 227.662 131.927 227.002 132.363C226.352 132.8 225.964 133.495 225.837 134.447C225.576 136.401 226.477 137.516 228.541 137.793L228.438 138.565Z" fill="#2F67FF"/>
<path d="M224.068 146.714C223.754 146.644 223.567 146.738 223.51 146.996C223.461 147.216 223.483 147.472 223.578 147.765L222.963 147.627C222.842 147.318 222.82 146.992 222.897 146.647C222.974 146.303 223.151 146.091 223.429 146.013C223.716 145.937 224.079 145.948 224.518 146.047C224.098 145.641 223.824 145.187 223.695 144.686C223.565 144.194 223.567 143.647 223.702 143.044C223.853 142.365 224.13 141.844 224.531 141.482C224.942 141.122 225.52 141.026 226.264 141.193C226.941 141.345 227.401 141.659 227.645 142.136C227.897 142.625 227.993 143.224 227.935 143.935C227.883 144.657 227.732 145.583 227.479 146.712L228.395 146.917C229.005 147.055 229.463 147.002 229.767 146.758C230.08 146.527 230.313 146.067 230.467 145.378C230.608 144.746 230.597 144.211 230.435 143.773C230.282 143.336 229.953 143.062 229.447 142.948L229.218 142.897L229.375 142.193C229.532 142.208 229.658 142.227 229.754 142.248C230.374 142.387 230.801 142.76 231.036 143.365C231.279 143.983 231.308 144.703 231.125 145.526C230.926 146.416 230.602 147.036 230.153 147.388C229.701 147.749 229.109 147.847 228.374 147.682L224.068 146.714ZM226.821 146.564C227.048 145.55 227.193 144.743 227.257 144.144C227.318 143.555 227.262 143.065 227.089 142.675C226.926 142.286 226.591 142.035 226.086 141.922C225.609 141.815 225.231 141.87 224.952 142.089C224.67 142.317 224.462 142.733 224.328 143.336C224.231 143.766 224.236 144.194 224.341 144.62C224.444 145.055 224.66 145.435 224.988 145.76C225.323 146.097 225.772 146.328 226.335 146.455L226.821 146.564Z" fill="#2F67FF"/>
<path d="M224.307 151.013C224.263 150.989 224.199 150.964 224.115 150.938C223.639 150.791 223.207 150.882 222.818 151.214C222.427 151.554 222.12 152.085 221.897 152.807C221.698 153.453 221.67 153.993 221.812 154.428C221.964 154.865 222.25 155.148 222.67 155.279C222.997 155.38 223.285 155.356 223.536 155.208C223.783 155.069 224 154.864 224.185 154.593C224.378 154.335 224.597 153.972 224.843 153.504C225.132 152.967 225.385 152.543 225.604 152.231C225.832 151.922 226.11 151.685 226.437 151.519C226.764 151.354 227.152 151.341 227.6 151.479C228.179 151.659 228.578 152.039 228.798 152.621C229.018 153.202 228.986 153.952 228.703 154.87C228.519 155.47 228.267 155.936 227.95 156.269C227.633 156.601 227.297 156.81 226.944 156.896C226.596 156.993 226.269 156.994 225.961 156.899L225.769 156.824L225.985 156.121L226.167 156.178C226.466 156.27 226.798 156.224 227.161 156.039C227.532 155.867 227.844 155.368 228.098 154.544C228.344 153.747 228.37 153.181 228.177 152.844C227.981 152.516 227.725 152.303 227.407 152.205C227.136 152.121 226.888 152.147 226.662 152.282C226.437 152.417 226.234 152.611 226.054 152.863C225.883 153.118 225.67 153.478 225.414 153.943C225.116 154.477 224.851 154.907 224.617 155.235C224.383 155.563 224.096 155.813 223.757 155.985C223.417 156.157 223.028 156.175 222.589 156.039C221.823 155.801 221.35 155.362 221.169 154.721C220.986 154.089 221.032 153.324 221.309 152.424C221.52 151.74 221.799 151.216 222.147 150.852C222.492 150.497 222.847 150.273 223.213 150.181C223.576 150.099 223.898 150.101 224.178 150.188C224.29 150.222 224.374 150.248 224.43 150.266C224.483 150.293 224.514 150.307 224.523 150.31L224.307 151.013Z" fill="#2F67FF"/>
<path d="M220.06 164.557C219.497 164.332 219.06 164.015 218.749 163.606C218.434 163.206 218.249 162.758 218.194 162.261C218.148 161.767 218.226 161.265 218.428 160.755C218.656 160.181 218.995 159.725 219.444 159.387C219.899 159.062 220.439 158.882 221.063 158.846C221.687 158.81 222.367 158.939 223.103 159.232L223.307 159.314C224.043 159.607 224.627 159.977 225.059 160.424C225.489 160.88 225.753 161.381 225.852 161.928C225.956 162.486 225.894 163.053 225.667 163.627C225.461 164.146 225.163 164.566 224.773 164.885C224.389 165.217 223.937 165.417 223.416 165.484C222.904 165.554 222.353 165.471 221.763 165.236L220.891 164.888L222.853 159.94L222.744 159.897C221.836 159.534 221.06 159.462 220.416 159.68C219.769 159.907 219.315 160.349 219.055 161.005C218.824 161.588 218.809 162.142 219.012 162.666C219.21 163.199 219.65 163.601 220.331 163.873L220.06 164.557ZM225.04 163.377C225.282 162.766 225.274 162.177 225.015 161.61C224.757 161.042 224.243 160.573 223.475 160.204L221.789 164.455L222.034 164.552C222.742 164.835 223.36 164.855 223.888 164.611C224.421 164.381 224.805 163.969 225.04 163.377Z" fill="#2F67FF"/>
<path d="M218.576 178.692C219.091 178.974 219.598 178.973 220.099 178.689C220.603 178.418 221.036 177.952 221.398 177.29C221.768 176.61 221.938 175.993 221.906 175.439C221.883 174.89 221.597 174.464 221.049 174.163C220.689 173.965 220.339 173.912 219.998 174.005C219.667 174.102 219.35 174.275 219.047 174.523C218.754 174.775 218.39 175.134 217.957 175.601C217.429 176.16 216.975 176.593 216.596 176.899C216.221 177.219 215.792 177.425 215.307 177.516C214.826 177.621 214.307 177.521 213.75 177.214C212.867 176.729 212.38 176.081 212.288 175.271C212.2 174.473 212.409 173.61 212.916 172.681C213.442 171.717 214.062 171.051 214.776 170.683C215.498 170.32 216.305 170.383 217.196 170.872L217.42 171.012L217.061 171.67L216.721 171.467C216.095 171.123 215.512 171.099 214.972 171.395C214.44 171.695 213.97 172.22 213.562 172.968C212.651 174.637 212.825 175.817 214.085 176.509C214.488 176.731 214.877 176.794 215.252 176.698C215.623 176.611 215.964 176.435 216.276 176.17C216.583 175.914 216.971 175.54 217.44 175.048C217.959 174.506 218.399 174.088 218.76 173.794C219.121 173.501 219.528 173.305 219.982 173.208C220.445 173.116 220.938 173.213 221.461 173.5C222.181 173.896 222.57 174.468 222.63 175.216C222.685 175.973 222.482 176.773 222.022 177.616C221.547 178.484 220.974 179.086 220.301 179.421C219.628 179.756 218.897 179.706 218.108 179.273L217.941 179.181L218.293 178.536L218.576 178.692Z" fill="#2F67FF"/>
<path d="M208.313 180.922C208.316 180.772 208.351 180.608 208.419 180.43C208.473 180.255 208.547 180.093 208.642 179.945C208.885 179.565 209.196 179.334 209.574 179.251C209.952 179.169 210.367 179.273 210.82 179.564L215.309 182.457L215.753 181.764L216.32 182.129L215.877 182.823L217.745 184.341L217.483 184.749L215.472 183.454L214.53 184.927L213.962 184.561L214.905 183.088L210.44 180.212C210.111 180 209.85 179.919 209.655 179.968C209.464 180.031 209.299 180.17 209.162 180.385C209.104 180.475 209.045 180.613 208.986 180.796C208.927 180.979 208.887 181.14 208.868 181.279L208.313 180.922Z" fill="#2F67FF"/>
<path d="M204.598 187.944C204.436 187.505 204.394 187.045 204.47 186.564C204.547 186.084 204.734 185.643 205.032 185.242C205.523 184.581 206.108 184.187 206.788 184.059C207.462 183.939 208.175 184.16 208.928 184.723L212.795 187.613L212.348 188.215L208.657 185.456C208.022 184.982 207.44 184.773 206.911 184.829C206.375 184.894 205.906 185.197 205.503 185.74C205.246 186.086 205.095 186.462 205.049 186.868C205.003 187.274 205.067 187.665 205.24 188.039C205.407 188.42 205.667 188.743 206.02 189.007L209.711 191.766L209.264 192.367L204.068 188.484C203.81 188.29 203.602 188.3 203.444 188.512C203.31 188.693 203.226 188.937 203.194 189.243L202.689 188.865C202.703 188.533 202.816 188.226 203.026 187.943C203.225 187.676 203.466 187.556 203.749 187.585C204.04 187.619 204.323 187.739 204.598 187.944Z" fill="#2F67FF"/>
<path d="M198.271 195.56C198 194.583 198.232 193.68 198.967 192.853C199.552 192.193 200.275 191.874 201.134 191.893C201.994 191.927 202.917 192.383 203.902 193.264L204.023 193.371C204.599 193.887 205.004 194.426 205.237 194.989C205.477 195.558 205.554 196.106 205.466 196.632C205.379 197.158 205.15 197.63 204.779 198.047C204.434 198.435 204.045 198.711 203.612 198.875C203.179 199.053 202.742 199.11 202.303 199.045L205.367 201.784L204.87 202.344L196.989 195.301L197.321 194.928L198.271 195.56ZM200.421 197.383C201.173 198.055 201.881 198.392 202.546 198.395C203.211 198.412 203.771 198.165 204.227 197.652C204.675 197.147 204.853 196.563 204.76 195.902C204.666 195.241 204.248 194.577 203.503 193.912L203.383 193.805C202.529 193.041 201.769 192.645 201.103 192.614C200.444 192.59 199.883 192.838 199.422 193.357C198.954 193.885 198.766 194.472 198.858 195.12C198.952 195.781 199.429 196.496 200.29 197.266L200.421 197.383Z" fill="#2F67FF"/>
<path d="M202.051 205.28L201.439 205.893L200.88 205.331L201.492 204.718L202.051 205.28ZM194.551 197.83L199.845 203.147L199.316 203.677L194.021 198.361L194.551 197.83Z" fill="#2F67FF"/>
<path d="M189.304 206.535C188.902 206.081 188.653 205.601 188.558 205.095C188.456 204.596 188.491 204.112 188.664 203.642C188.843 203.181 189.137 202.767 189.546 202.402C190.007 201.992 190.513 201.737 191.066 201.637C191.618 201.551 192.181 201.633 192.754 201.882C193.328 202.131 193.878 202.552 194.404 203.146L194.55 203.311C195.076 203.904 195.433 204.498 195.619 205.092C195.799 205.693 195.81 206.26 195.655 206.793C195.498 207.339 195.19 207.818 194.729 208.228C194.313 208.6 193.859 208.841 193.368 208.951C192.876 209.075 192.383 209.049 191.888 208.874C191.399 208.707 190.944 208.385 190.522 207.909L189.898 207.205L193.865 203.666L193.787 203.578C193.138 202.846 192.476 202.432 191.804 202.337C191.123 202.248 190.52 202.439 189.994 202.908C189.527 203.325 189.266 203.813 189.213 204.373C189.152 204.939 189.365 205.496 189.852 206.046L189.304 206.535ZM194.281 207.723C194.771 207.286 195.027 206.756 195.05 206.132C195.072 205.508 194.823 204.858 194.302 204.182L190.894 207.222L191.07 207.42C191.576 207.991 192.12 208.287 192.7 208.307C193.279 208.341 193.807 208.146 194.281 207.723Z" fill="#2F67FF"/>
<path d="M186.533 208.219C186.512 208.174 186.474 208.116 186.421 208.046C186.119 207.648 185.714 207.471 185.206 207.514C184.69 207.562 184.133 207.815 183.534 208.273C182.997 208.682 182.661 209.106 182.525 209.542C182.395 209.986 182.463 210.384 182.73 210.735C182.937 211.008 183.185 211.157 183.475 211.183C183.756 211.214 184.051 211.174 184.359 211.062C184.665 210.963 185.054 210.796 185.526 210.559C186.071 210.29 186.524 210.093 186.882 209.967C187.247 209.849 187.61 209.818 187.972 209.874C188.334 209.93 188.658 210.146 188.942 210.52C189.308 211.004 189.413 211.546 189.254 212.148C189.096 212.749 188.636 213.341 187.874 213.923C187.376 214.303 186.901 214.536 186.45 214.621C185.999 214.707 185.605 214.681 185.268 214.544C184.929 214.421 184.662 214.231 184.467 213.973L184.354 213.801L184.938 213.355L185.053 213.507C185.242 213.757 185.539 213.913 185.942 213.975C186.343 214.05 186.886 213.827 187.57 213.304C188.232 212.799 188.581 212.354 188.62 211.967C188.651 211.586 188.565 211.263 188.364 210.998C188.193 210.772 187.976 210.648 187.714 210.626C187.452 210.604 187.174 210.643 186.882 210.744C186.595 210.852 186.213 211.02 185.736 211.249C185.184 211.51 184.718 211.705 184.338 211.835C183.958 211.966 183.58 212.002 183.204 211.944C182.828 211.885 182.501 211.673 182.223 211.306C181.738 210.666 181.608 210.033 181.832 209.406C182.049 208.784 182.531 208.189 183.278 207.618C183.845 207.185 184.376 206.921 184.87 206.828C185.356 206.74 185.775 206.765 186.126 206.904C186.469 207.049 186.729 207.238 186.907 207.472C186.978 207.566 187.031 207.636 187.066 207.683C187.094 207.735 187.111 207.766 187.117 207.774L186.533 208.219Z" fill="#2F67FF"/>
<path d="M173.145 220.592C172.958 220.27 172.863 219.923 172.86 219.55C172.862 219.185 172.956 218.84 173.141 218.516C173.325 218.191 173.578 217.935 173.898 217.747C174.219 217.559 174.561 217.466 174.925 217.468C175.288 217.47 175.629 217.559 175.948 217.736C176.271 217.921 176.526 218.175 176.714 218.496C176.901 218.818 176.994 219.161 176.992 219.526C176.994 219.899 176.907 220.246 176.731 220.565C176.555 220.884 176.307 221.138 175.986 221.326C175.666 221.515 175.319 221.61 174.947 221.613C174.575 221.616 174.227 221.524 173.904 221.339C173.586 221.163 173.333 220.914 173.145 220.592Z" fill="#2F67FF"/>
<path d="M158.177 226.246C157.641 224.973 157.578 223.929 157.989 223.116C158.4 222.303 159.11 221.683 160.119 221.255C160.839 220.95 161.511 220.819 162.134 220.864C162.749 220.912 163.347 221.212 163.929 221.763C164.503 222.318 165.04 223.192 165.542 224.384L165.69 224.737C166.192 225.929 166.442 226.925 166.439 227.724C166.427 228.528 166.224 229.167 165.83 229.643C165.427 230.123 164.865 230.515 164.145 230.821C163.128 231.252 162.192 231.335 161.337 231.069C160.474 230.807 159.768 230.026 159.22 228.726L159.936 228.422C160.389 229.497 160.952 230.142 161.626 230.356C162.304 230.58 163.052 230.518 163.871 230.17C164.754 229.796 165.318 229.232 165.563 228.479C165.812 227.735 165.634 226.645 165.03 225.208L164.744 224.531C164.14 223.095 163.483 222.202 162.774 221.854C162.068 221.514 161.275 221.532 160.392 221.906C158.583 222.673 158.083 224.019 158.893 225.943L158.177 226.246Z" fill="#2F67FF"/>
<path d="M148.845 226.611C148.747 226.303 148.572 226.189 148.32 226.27C148.106 226.338 147.897 226.488 147.694 226.718L147.502 226.115C147.706 225.854 147.975 225.67 148.311 225.562C148.646 225.455 148.917 225.501 149.125 225.702C149.336 225.913 149.509 226.233 149.646 226.662C149.783 226.093 150.035 225.627 150.401 225.262C150.758 224.9 151.229 224.625 151.816 224.437C152.477 224.225 153.064 224.201 153.578 224.365C154.096 224.539 154.47 224.99 154.702 225.719C154.914 226.382 154.876 226.94 154.589 227.392C154.296 227.857 153.829 228.243 153.188 228.552C152.541 228.873 151.669 229.21 150.57 229.562L150.856 230.459C151.046 231.057 151.323 231.426 151.686 231.567C152.043 231.72 152.556 231.689 153.226 231.474C153.841 231.277 154.296 230.997 154.591 230.634C154.889 230.281 154.959 229.857 154.801 229.362L154.73 229.138L155.414 228.919C155.48 229.062 155.528 229.18 155.558 229.274C155.751 229.881 155.647 230.439 155.245 230.949C154.837 231.472 154.232 231.861 153.432 232.118C152.566 232.396 151.868 232.43 151.339 232.219C150.801 232.01 150.417 231.547 150.188 230.828L148.845 226.611ZM150.365 228.918C151.352 228.601 152.119 228.319 152.666 228.071C153.203 227.827 153.597 227.53 153.845 227.183C154.096 226.845 154.143 226.428 153.986 225.933C153.837 225.466 153.598 225.167 153.269 225.036C152.93 224.908 152.468 224.938 151.881 225.126C151.462 225.261 151.097 225.481 150.784 225.788C150.461 226.097 150.244 226.476 150.13 226.924C150.01 227.385 150.038 227.891 150.213 228.442L150.365 228.918Z" fill="#2F67FF"/>
<path d="M145.229 228.978C145.228 228.928 145.217 228.86 145.198 228.774C145.086 228.286 144.79 227.957 144.31 227.786C143.82 227.617 143.208 227.618 142.475 227.787C141.817 227.939 141.337 228.185 141.034 228.527C140.734 228.878 140.632 229.268 140.731 229.698C140.807 230.033 140.972 230.272 141.226 230.414C141.469 230.559 141.755 230.644 142.081 230.67C142.401 230.707 142.824 230.715 143.351 230.694C143.958 230.674 144.451 230.681 144.83 230.715C145.21 230.758 145.554 230.88 145.861 231.081C146.168 231.281 146.374 231.611 146.479 232.07C146.614 232.662 146.487 233.2 146.096 233.683C145.705 234.165 145.042 234.514 144.109 234.73C143.499 234.87 142.971 234.886 142.525 234.778C142.079 234.67 141.731 234.483 141.48 234.219C141.221 233.967 141.056 233.683 140.984 233.368L140.952 233.164L141.667 232.999L141.709 233.185C141.779 233.491 141.985 233.756 142.327 233.978C142.662 234.213 143.248 234.234 144.086 234.04C144.896 233.854 145.398 233.592 145.592 233.256C145.776 232.921 145.831 232.592 145.756 232.267C145.693 231.99 145.546 231.787 145.316 231.659C145.087 231.531 144.818 231.452 144.51 231.422C144.205 231.402 143.788 231.398 143.259 231.409C142.649 231.419 142.144 231.405 141.744 231.366C141.344 231.328 140.985 231.204 140.667 230.996C140.348 230.788 140.138 230.459 140.035 230.01C139.856 229.226 139.997 228.595 140.459 228.116C140.911 227.64 141.595 227.296 142.509 227.085C143.205 226.924 143.797 226.903 144.285 227.022C144.764 227.143 145.135 227.339 145.398 227.611C145.651 227.884 145.81 228.164 145.876 228.451C145.902 228.566 145.922 228.652 145.935 228.709C145.939 228.769 145.941 228.803 145.944 228.813L145.229 228.978Z" fill="#2F67FF"/>
<path d="M131.576 232.057C131.486 231.455 131.539 230.917 131.735 230.441C131.921 229.967 132.214 229.581 132.614 229.282C133.016 228.994 133.487 228.808 134.028 228.727C134.637 228.635 135.2 228.699 135.717 228.918C136.226 229.149 136.653 229.526 136.998 230.049C137.343 230.572 137.575 231.226 137.692 232.011L137.725 232.23C137.842 233.015 137.817 233.708 137.65 234.308C137.473 234.91 137.175 235.391 136.754 235.752C136.326 236.124 135.807 236.356 135.198 236.448C134.647 236.531 134.136 236.485 133.665 236.308C133.185 236.142 132.786 235.85 132.466 235.433C132.148 235.024 131.942 234.505 131.848 233.875L131.709 232.944L136.957 232.152L136.94 232.036C136.795 231.066 136.466 230.357 135.954 229.909C135.433 229.462 134.824 229.291 134.128 229.396C133.51 229.489 133.026 229.756 132.676 230.195C132.317 230.636 132.192 231.22 132.301 231.947L131.576 232.057ZM135.098 235.779C135.746 235.681 136.249 235.377 136.607 234.867C136.966 234.357 137.111 233.676 137.043 232.823L132.534 233.504L132.573 233.765C132.686 234.522 132.98 235.067 133.455 235.402C133.922 235.748 134.47 235.874 135.098 235.779Z" fill="#2F67FF"/>
<path d="M118.688 237.823C118.703 238.411 118.958 238.851 119.454 239.143C119.941 239.444 120.56 239.585 121.313 239.566C122.084 239.547 122.701 239.384 123.163 239.078C123.625 238.782 123.848 238.32 123.832 237.693C123.822 237.281 123.692 236.951 123.441 236.702C123.191 236.463 122.883 236.275 122.518 236.137C122.153 236.009 121.661 235.874 121.041 235.733C120.294 235.556 119.693 235.38 119.239 235.205C118.775 235.04 118.382 234.771 118.06 234.396C117.728 234.032 117.555 233.531 117.539 232.894C117.514 231.884 117.827 231.136 118.48 230.648C119.123 230.171 119.972 229.919 121.028 229.892C122.122 229.864 123.007 230.067 123.683 230.501C124.358 230.945 124.709 231.677 124.734 232.696L124.726 232.962L123.979 232.98L123.984 232.583C123.966 231.867 123.694 231.35 123.168 231.029C122.642 230.719 121.954 230.575 121.104 230.596C119.208 230.644 118.279 231.389 118.314 232.83C118.326 233.291 118.467 233.66 118.738 233.938C118.999 234.215 119.322 234.423 119.707 234.56C120.082 234.698 120.599 234.847 121.258 235.007C121.986 235.184 122.567 235.356 123.001 235.521C123.435 235.687 123.808 235.942 124.12 236.287C124.432 236.643 124.595 237.119 124.61 237.717C124.631 238.54 124.333 239.166 123.718 239.594C123.094 240.021 122.302 240.248 121.345 240.272C120.358 240.297 119.551 240.102 118.925 239.686C118.299 239.27 117.974 238.611 117.952 237.71L117.947 237.518L118.68 237.5L118.688 237.823Z" fill="#2F67FF"/>
<path d="M111.175 229.976C111.306 229.905 111.465 229.854 111.652 229.825C111.831 229.785 112.008 229.77 112.183 229.779C112.632 229.803 112.986 229.959 113.245 230.248C113.504 230.536 113.619 230.95 113.591 231.489L113.308 236.835L114.128 236.879L114.092 237.554L113.273 237.511L112.883 239.891L112.4 239.866L112.526 237.472L110.784 237.38L110.82 236.704L112.562 236.796L112.842 231.479C112.863 231.087 112.804 230.819 112.665 230.674C112.515 230.538 112.314 230.464 112.06 230.45C111.953 230.445 111.805 230.461 111.617 230.501C111.429 230.54 111.27 230.585 111.14 230.637L111.175 229.976Z" fill="#2F67FF"/>
<path d="M103.219 230.208C103.519 229.85 103.896 229.586 104.351 229.415C104.805 229.244 105.279 229.189 105.774 229.25C106.589 229.351 107.22 229.666 107.667 230.195C108.104 230.724 108.265 231.455 108.15 232.389L107.558 237.192L106.816 237.101L107.381 232.517C107.478 231.728 107.371 231.117 107.06 230.684C106.739 230.249 106.244 229.99 105.575 229.907C105.148 229.854 104.748 229.908 104.373 230.07C103.999 230.231 103.692 230.479 103.454 230.815C103.206 231.15 103.055 231.537 103.001 231.975L102.436 236.559L101.694 236.467L102.489 230.014C102.529 229.693 102.418 229.516 102.156 229.484C101.933 229.456 101.681 229.504 101.4 229.628L101.477 229C101.771 228.848 102.093 228.794 102.442 228.838C102.772 228.878 102.995 229.03 103.11 229.291C103.225 229.562 103.261 229.868 103.219 230.208Z" fill="#2F67FF"/>
<path d="M93.5609 228.46C94.2751 227.742 95.172 227.499 96.2516 227.732C97.1115 227.918 97.7448 228.39 98.1514 229.15C98.5465 229.918 98.605 230.948 98.327 232.243L98.2931 232.401C98.1304 233.158 97.8625 233.777 97.4892 234.259C97.1139 234.749 96.6766 235.086 96.1774 235.269C95.6782 235.452 95.1563 235.485 94.6117 235.368C94.1053 235.258 93.6741 235.055 93.3181 234.757C92.9505 234.467 92.6864 234.114 92.5258 233.699L91.6611 237.725L90.9302 237.567L93.1538 227.214L93.641 227.319L93.5609 228.46ZM93.0396 231.237C92.8275 232.224 92.884 233.009 93.2089 233.59C93.5222 234.18 94.0133 234.546 94.6821 234.691C95.3414 234.833 95.9347 234.7 96.4622 234.293C96.9896 233.885 97.3583 233.192 97.5684 232.214L97.6023 232.056C97.8432 230.934 97.8128 230.075 97.5111 229.478C97.2073 228.891 96.7162 228.524 96.0379 228.378C95.35 228.229 94.7481 228.355 94.2322 228.755C93.7048 229.163 93.3196 229.933 93.0766 231.064L93.0396 231.237Z" fill="#2F67FF"/>
<path d="M86.8884 236.524L86.0557 236.289L86.2699 235.525L87.1026 235.759L86.8884 236.524ZM89.6874 226.311L87.6608 233.548L86.941 233.345L88.9676 226.109L89.6874 226.311Z" fill="#2F67FF"/>
<path d="M79.5916 226.008C79.7888 225.433 80.0837 224.98 80.4763 224.648C80.8597 224.314 81.2975 224.107 81.7897 224.028C82.2787 223.958 82.782 224.012 83.2995 224.191C83.8818 224.392 84.3516 224.709 84.7091 225.144C85.0541 225.584 85.2592 226.116 85.3243 226.74C85.3894 227.364 85.2931 228.052 85.0355 228.803L84.964 229.012C84.7064 229.763 84.3652 230.366 83.9405 230.821C83.5066 231.273 83.0201 231.561 82.4811 231.686C81.9296 231.818 81.3628 231.783 80.7805 231.582C80.2538 231.4 79.8222 231.122 79.4858 230.747C79.137 230.378 78.9172 229.934 78.8263 229.415C78.7323 228.905 78.7887 228.349 78.9954 227.746L79.3006 226.856L84.319 228.587L84.3571 228.476C84.6751 227.548 84.7105 226.767 84.4631 226.132C84.2065 225.494 83.7455 225.06 83.0801 224.831C82.4886 224.627 81.9368 224.639 81.4246 224.867C80.9032 225.091 80.5232 225.551 80.2848 226.247L79.5916 226.008ZM81 230.942C81.6192 231.156 82.2052 231.119 82.7582 230.833C83.3111 230.547 83.7536 230.01 84.0857 229.222L79.7744 227.735L79.6885 227.986C79.4405 228.709 79.45 229.329 79.717 229.846C79.9716 230.37 80.3992 230.735 81 230.942Z" fill="#2F67FF"/>
<path d="M76.7811 224.413C76.8096 224.372 76.8414 224.311 76.8765 224.23C77.0758 223.771 77.033 223.33 76.7482 222.906C76.4544 222.478 75.9626 222.113 75.2727 221.812C74.6545 221.541 74.1225 221.453 73.6766 221.547C73.2267 221.65 72.9139 221.904 72.7382 222.308C72.6014 222.623 72.5925 222.913 72.7115 223.179C72.8215 223.441 73.0003 223.68 73.248 223.895C73.4827 224.115 73.818 224.374 74.2538 224.672C74.7534 225.018 75.1455 225.318 75.4301 225.571C75.7108 225.833 75.9149 226.136 76.0424 226.481C76.1698 226.825 76.1398 227.213 75.9523 227.645C75.7101 228.202 75.2888 228.558 74.6885 228.713C74.0882 228.868 73.3491 228.753 72.4711 228.369C71.8977 228.119 71.4639 227.817 71.1697 227.464C70.8754 227.11 70.7057 226.753 70.6605 226.39C70.6024 226.033 70.6378 225.707 70.7667 225.41L70.8622 225.227L71.5341 225.521L71.4579 225.696C71.3329 225.984 71.3418 226.319 71.4844 226.702C71.6141 227.091 72.0732 227.457 72.8616 227.802C73.6231 228.135 74.1815 228.224 74.5366 228.069C74.8829 227.91 75.1224 227.678 75.2552 227.372C75.3685 227.111 75.3707 226.861 75.2618 226.621C75.153 226.381 74.9837 226.157 74.754 225.949C74.5204 225.751 74.1876 225.499 73.7558 225.192C73.26 224.836 72.8629 224.524 72.5643 224.254C72.2656 223.984 72.0501 223.671 71.9176 223.313C71.785 222.956 71.8106 222.566 71.9942 222.143C72.3145 221.406 72.8023 220.983 73.4575 220.874C74.1037 220.76 74.8569 220.892 75.717 221.268C76.371 221.553 76.8591 221.89 77.1814 222.277C77.4947 222.66 77.6765 223.039 77.7267 223.414C77.768 223.785 77.7301 224.105 77.6129 224.375C77.566 224.483 77.5309 224.564 77.5074 224.618C77.475 224.668 77.4569 224.697 77.453 224.706L76.7811 224.413Z" fill="#2F67FF"/>
<path d="M59.555 218.761C59.7431 218.44 59.999 218.187 60.3225 218.002C60.641 217.826 60.9863 217.739 61.3585 217.743C61.7307 217.746 62.0768 217.842 62.3971 218.03C62.7173 218.219 62.9652 218.473 63.1408 218.793C63.3164 219.112 63.405 219.454 63.4067 219.819C63.4034 220.193 63.3077 220.54 63.1196 220.861C62.9314 221.183 62.6781 221.432 62.3595 221.608C62.0361 221.793 61.6924 221.886 61.3287 221.888C60.965 221.889 60.623 221.796 60.3028 221.607C59.9826 221.419 59.7304 221.162 59.5464 220.838C59.3624 220.513 59.272 220.164 59.2753 219.791C59.2736 219.426 59.3669 219.083 59.555 218.761Z" fill="#2F67FF"/>
<path d="M47.3666 208.43C48.2121 207.338 49.0887 206.773 49.9965 206.735C50.9042 206.697 51.7903 207.015 52.6548 207.689C53.2722 208.17 53.7139 208.694 53.98 209.262C54.2383 209.823 54.2699 210.493 54.0749 211.273C53.8721 212.046 53.375 212.944 52.5835 213.966L52.3496 214.269C51.5581 215.291 50.814 215.996 50.1173 216.385C49.4129 216.767 48.7576 216.903 48.1515 216.79C47.5377 216.672 46.922 216.373 46.3046 215.891C45.4325 215.212 44.9031 214.433 44.7167 213.555C44.5225 212.671 44.8571 211.672 45.7206 210.556L46.3342 211.034C45.6206 211.956 45.3352 212.764 45.4778 213.459C45.6145 214.162 46.034 214.787 46.7363 215.334C47.4927 215.923 48.2583 216.141 49.0331 215.987C49.802 215.841 50.6631 215.152 51.6165 213.921L52.0663 213.34C53.0197 212.108 53.4748 211.097 53.4315 210.306C53.3822 209.522 52.9794 208.836 52.223 208.247C50.6717 207.038 49.2574 207.258 47.9802 208.908L47.3666 208.43Z" fill="#2F67FF"/>
<path d="M42.4826 200.428C42.7029 200.192 42.7167 199.983 42.524 199.803C42.3598 199.649 42.1279 199.538 41.8284 199.472L42.259 199.01C42.5857 199.062 42.8775 199.208 43.1345 199.449C43.3915 199.69 43.4832 199.95 43.4095 200.23C43.3292 200.518 43.1355 200.826 42.8284 201.156C43.3902 200.998 43.9189 200.99 44.4147 201.133C44.9032 201.269 45.3724 201.548 45.8221 201.97C46.3289 202.445 46.6362 202.948 46.7438 203.479C46.8447 204.016 46.6348 204.565 46.1141 205.124C45.6401 205.632 45.1363 205.871 44.6029 205.841C44.0556 205.811 43.4916 205.591 42.9109 205.18C42.3163 204.77 41.5979 204.17 40.7556 203.38L40.1147 204.068C39.6874 204.526 39.501 204.949 39.5554 205.336C39.5959 205.723 39.8732 206.157 40.3872 206.639C40.8583 207.081 41.3234 207.343 41.7825 207.425C42.235 207.513 42.6381 207.368 42.9919 206.988L43.1521 206.816L43.6768 207.308C43.5843 207.436 43.5046 207.536 43.4379 207.608C43.0039 208.074 42.4672 208.255 41.8275 208.152C41.1741 208.049 40.5404 207.71 39.9265 207.134C39.2627 206.511 38.8936 205.917 38.8194 205.35C38.738 204.777 38.9544 204.215 39.4684 203.663L42.4826 200.428ZM41.2162 202.886C41.9729 203.595 42.5923 204.129 43.0745 204.488C43.5495 204.839 43.9987 205.039 44.4221 205.087C44.8389 205.143 45.2242 204.98 45.578 204.601C45.9118 204.242 46.0555 203.887 46.0092 203.535C45.9557 203.176 45.7041 202.786 45.2544 202.364C44.9332 202.062 44.563 201.849 44.144 201.725C43.7178 201.594 43.2819 201.588 42.8365 201.707C42.3771 201.826 41.9505 202.098 41.5567 202.52L41.2162 202.886Z" fill="#2F67FF"/>
<path d="M38.6635 198.441C38.7062 198.415 38.7601 198.372 38.8251 198.313C39.1936 197.976 39.3342 197.556 39.2469 197.052C39.1531 196.541 38.8527 196.006 38.3459 195.448C37.8918 194.948 37.4421 194.65 36.997 194.553C36.5445 194.462 36.1558 194.566 35.8306 194.863C35.5777 195.094 35.4514 195.355 35.4517 195.647C35.4454 195.931 35.5115 196.222 35.6498 196.52C35.7744 196.818 35.975 197.191 36.2515 197.642C36.5663 198.163 36.8021 198.597 36.9589 198.945C37.1085 199.299 37.1713 199.659 37.1474 200.026C37.1234 200.393 36.938 200.735 36.5912 201.052C36.1432 201.461 35.6138 201.614 35.0029 201.509C34.3921 201.404 33.7641 200.997 33.1191 200.287C32.6979 199.823 32.4249 199.369 32.3002 198.926C32.1755 198.483 32.1663 198.087 32.2724 197.738C32.3648 197.388 32.5302 197.104 32.7686 196.886L32.9302 196.758L33.4238 197.302L33.2829 197.431C33.0517 197.642 32.9232 197.952 32.8973 198.36C32.8576 198.768 33.1273 199.291 33.7065 199.929C34.266 200.545 34.7393 200.855 35.1265 200.859C35.5072 200.856 35.8204 200.742 36.066 200.517C36.2756 200.326 36.3795 200.098 36.378 199.834C36.3764 199.57 36.313 199.297 36.1878 199.013C36.0554 198.736 35.8545 198.369 35.5851 197.913C35.2776 197.385 35.0424 196.936 34.8797 196.568C34.7169 196.199 34.6478 195.825 34.6724 195.444C34.6971 195.064 34.8791 194.718 35.2187 194.407C35.8112 193.866 36.4287 193.679 37.0712 193.848C37.7071 194.009 38.341 194.438 38.9728 195.134C39.4533 195.663 39.7618 196.17 39.8984 196.655C40.0284 197.133 40.04 197.554 39.9332 197.917C39.8198 198.272 39.6547 198.549 39.438 198.748C39.3513 198.827 39.2862 198.886 39.2429 198.926C39.1929 198.958 39.1644 198.978 39.1571 198.984L38.6635 198.441Z" fill="#2F67FF"/>
<path d="M29.2979 188.05C29.7756 187.675 30.2691 187.457 30.7781 187.394C31.2812 187.323 31.7605 187.39 32.216 187.593C32.6638 187.802 33.056 188.123 33.3927 188.555C33.7714 189.042 33.9925 189.566 34.0559 190.126C34.1056 190.684 33.9881 191.242 33.7035 191.801C33.4189 192.359 32.9645 192.883 32.3403 193.372L32.167 193.508C31.5428 193.997 30.9291 194.315 30.3258 194.464C29.7165 194.606 29.152 194.581 28.6323 194.391C28.0988 194.2 27.6427 193.86 27.2639 193.374C26.9213 192.933 26.711 192.463 26.6331 191.965C26.5415 191.464 26.5986 190.972 26.8045 190.487C27.0026 190.009 27.3521 189.573 27.853 189.181L28.5928 188.602L31.8573 192.799L31.9498 192.726C32.7204 192.123 33.1746 191.487 33.3125 190.82C33.4443 190.144 33.2938 189.528 32.861 188.972C32.4762 188.477 32.0073 188.185 31.4542 188.096C30.8952 187.999 30.3267 188.177 29.7488 188.629L29.2979 188.05ZM27.7957 192.957C28.1985 193.475 28.7094 193.765 29.3284 193.828C29.9474 193.89 30.6101 193.682 31.3166 193.204L28.512 189.598L28.3039 189.761C27.7029 190.231 27.3736 190.757 27.3162 191.336C27.2451 191.914 27.4049 192.455 27.7957 192.957Z" fill="#2F67FF"/>
<path d="M17.9719 179.749C17.4697 180.053 17.215 180.493 17.2078 181.07C17.1872 181.644 17.3711 182.254 17.7597 182.9C18.1583 183.564 18.6042 184.021 19.0976 184.272C19.5825 184.528 20.0928 184.494 20.6285 184.17C20.9801 183.957 21.2016 183.68 21.2931 183.338C21.3762 183.002 21.3872 182.64 21.3261 182.253C21.2566 181.872 21.1298 181.376 20.9459 180.766C20.7298 180.027 20.5852 179.416 20.5122 178.933C20.4257 178.447 20.4649 177.971 20.6299 177.505C20.7815 177.035 21.1293 176.636 21.6734 176.307C22.5355 175.785 23.3391 175.688 24.084 176.016C24.8154 176.34 25.4537 176.956 25.9986 177.863C26.5637 178.803 26.8253 179.676 26.7834 180.48C26.7331 181.289 26.2727 181.957 25.4022 182.483L25.1686 182.607L24.7826 181.965L25.1292 181.773C25.7402 181.403 26.0543 180.909 26.0715 180.292C26.0803 179.68 25.8652 179.009 25.4262 178.278C24.4473 176.649 23.3426 176.207 22.1122 176.952C21.7188 177.19 21.4688 177.495 21.3623 177.869C21.2508 178.234 21.2306 178.619 21.3018 179.022C21.368 179.417 21.4948 179.941 21.6822 180.595C21.8882 181.318 22.0268 181.91 22.0982 182.37C22.1695 182.831 22.1328 183.282 21.9878 183.725C21.8345 184.173 21.5026 184.551 20.992 184.86C20.2889 185.286 19.6001 185.336 18.9256 185.011C18.2461 184.678 17.659 184.1 17.1646 183.277C16.6549 182.429 16.4253 181.629 16.4757 180.878C16.5262 180.126 16.9364 179.517 17.7065 179.051L17.8697 178.952L18.2481 179.582L17.9719 179.749Z" fill="#2F67FF"/>
<path d="M21.164 169.583C21.2912 169.662 21.4142 169.775 21.5331 169.923C21.6562 170.059 21.7576 170.205 21.8372 170.362C22.0405 170.764 22.082 171.15 21.9618 171.519C21.8415 171.888 21.5416 172.195 21.0622 172.439L16.3028 174.862L16.6742 175.597L16.0727 175.903L15.7014 175.169L13.4508 176.018L13.2319 175.585L15.3632 174.5L14.5741 172.939L15.1755 172.633L15.9646 174.193L20.6979 171.783C21.0465 171.606 21.2487 171.42 21.3044 171.227C21.347 171.03 21.3109 170.817 21.1959 170.59C21.1473 170.494 21.0592 170.373 20.9316 170.23C20.804 170.086 20.6854 169.97 20.5756 169.883L21.164 169.583Z" fill="#2F67FF"/>
<path d="M17.0102 162.821C17.4692 162.903 17.8859 163.099 18.2602 163.409C18.6346 163.719 18.9187 164.104 19.1126 164.564C19.4319 165.323 19.4743 166.029 19.2397 166.682C19.0014 167.326 18.45 167.831 17.5856 168.197L13.142 170.081L12.8512 169.39L17.0922 167.592C17.8216 167.283 18.296 166.885 18.5155 166.398C18.7312 165.902 18.7079 165.343 18.4457 164.719C18.2784 164.322 18.0318 164.001 17.7059 163.756C17.38 163.511 17.0124 163.368 16.6032 163.329C16.1902 163.281 15.7812 163.342 15.376 163.514L11.135 165.312L10.8442 164.621L16.814 162.09C17.1111 161.964 17.2084 161.779 17.1057 161.535C17.0183 161.328 16.8512 161.132 16.6045 160.949L17.1853 160.703C17.4628 160.884 17.67 161.137 17.8068 161.462C17.9361 161.769 17.9167 162.038 17.7486 162.269C17.5715 162.503 17.3254 162.688 17.0102 162.821Z" fill="#2F67FF"/>
<path d="M13.7143 153.651C14.6922 153.909 15.3518 154.565 15.6931 155.619C15.965 156.458 15.8757 157.245 15.4251 157.98C14.9622 158.708 14.1033 159.277 12.8485 159.687L12.6951 159.737C11.9608 159.977 11.2926 160.056 10.6905 159.974C10.0791 159.895 9.56918 159.685 9.16066 159.344C8.75214 159.003 8.46179 158.567 8.2896 158.035C8.12949 157.541 8.08825 157.065 8.16586 156.606C8.23116 156.142 8.40266 155.735 8.68035 155.387L4.77641 156.661L4.54531 155.948L14.584 152.671L14.7381 153.147L13.7143 153.651ZM11.06 154.595C10.1026 154.907 9.45486 155.35 9.11675 155.925C8.76633 156.493 8.69684 157.103 8.9083 157.756C9.11674 158.399 9.5291 158.847 10.1454 159.1C10.7616 159.352 11.5438 159.324 12.4919 159.015L12.6453 158.965C13.7328 158.61 14.4579 158.151 14.8207 157.589C15.1741 157.031 15.2436 156.42 15.0291 155.758C14.8116 155.087 14.4009 154.628 13.797 154.382C13.1807 154.129 12.3241 154.182 11.2273 154.54L11.06 154.595Z" fill="#2F67FF"/>
<path d="M3.364 151.726L3.14939 150.886L3.9163 150.688L4.13091 151.529L3.364 151.726ZM13.5749 149.038L6.31768 150.905L6.13217 150.179L13.3894 148.311L13.5749 149.038Z" fill="#2F67FF"/>
<path d="M8.79066 140.226C9.38522 140.108 9.92375 140.136 10.4063 140.311C10.8869 140.475 11.2847 140.752 11.5998 141.139C11.9053 141.528 12.1109 141.992 12.2166 142.531C12.3356 143.137 12.2974 143.704 12.1023 144.233C11.8956 144.753 11.5396 145.199 11.0344 145.568C10.5292 145.938 9.88817 146.2 9.11141 146.354L8.89564 146.396C8.11888 146.55 7.42786 146.557 6.82258 146.417C6.21542 146.267 5.72268 145.99 5.34439 145.585C4.95461 145.172 4.70026 144.663 4.58133 144.057C4.47373 143.508 4.49733 142.994 4.65213 142.513C4.79544 142.025 5.06792 141.612 5.46955 141.272C5.8616 140.935 6.36928 140.705 6.99261 140.581L7.91321 140.399L8.93823 145.623L9.05331 145.6C10.0123 145.411 10.7034 145.049 11.1267 144.516C11.5481 143.973 11.6909 143.355 11.555 142.662C11.4342 142.046 11.1471 141.573 10.6938 141.243C10.2387 140.904 9.65147 140.805 8.93224 140.947L8.79066 140.226ZM5.24302 143.926C5.36949 144.57 5.69482 145.061 6.21901 145.397C6.74319 145.733 7.42809 145.847 8.27372 145.74L7.39311 141.252L7.13418 141.303C6.38619 141.451 5.85619 141.771 5.54419 142.262C5.22071 142.746 5.12032 143.3 5.24302 143.926Z" fill="#2F67FF"/>
<path d="M8.75346 137.091C8.80314 137.095 8.87165 137.092 8.959 137.081C9.45394 137.022 9.81182 136.762 10.0326 136.301C10.2523 135.83 10.3175 135.22 10.2284 134.47C10.1485 133.798 9.95553 133.293 9.64951 132.954C9.33378 132.617 8.95756 132.475 8.52084 132.527C8.18117 132.568 7.92702 132.707 7.75839 132.944C7.58861 133.172 7.47371 133.448 7.41371 133.771C7.34284 134.085 7.28956 134.507 7.25387 135.034C7.20803 135.642 7.1483 136.133 7.07468 136.508C6.99135 136.883 6.83372 137.213 6.60178 137.498C6.36985 137.782 6.02097 137.952 5.55514 138.008C4.95344 138.081 4.4344 137.896 3.99802 137.454C3.56165 137.013 3.28674 136.315 3.17328 135.361C3.09919 134.738 3.13974 134.21 3.29492 133.776C3.4501 133.343 3.67197 133.015 3.96053 132.793C4.23822 132.562 4.5372 132.427 4.85746 132.389L5.063 132.379L5.14983 133.109L4.96058 133.132C4.65003 133.169 4.36596 133.347 4.10839 133.664C3.83995 133.973 3.75667 134.555 3.85855 135.412C3.95695 136.24 4.1625 136.768 4.4752 136.997C4.78674 137.217 5.1075 137.307 5.43746 137.267C5.7189 137.233 5.93539 137.108 6.08692 136.893C6.23846 136.677 6.34538 136.417 6.4077 136.114C6.46031 135.811 6.50932 135.395 6.55472 134.866C6.61026 134.257 6.67854 133.755 6.75955 133.36C6.84057 132.966 7.00131 132.62 7.24179 132.325C7.48227 132.029 7.83058 131.854 8.2867 131.8C9.0825 131.704 9.69294 131.912 10.118 132.424C10.5419 132.926 10.8094 133.645 10.9206 134.579C11.0051 135.29 10.9624 135.883 10.7924 136.358C10.6213 136.823 10.3872 137.172 10.0901 137.405C9.7918 137.628 9.4971 137.757 9.20595 137.792C9.08949 137.806 9.00215 137.817 8.94392 137.824C8.88453 137.821 8.84999 137.82 8.84028 137.821L8.75346 137.091Z" fill="#2F67FF"/>
<path d="M4.8695 119.233C5.2409 119.233 5.58793 119.326 5.91058 119.512C6.22346 119.698 6.47286 119.952 6.65877 120.276C6.84469 120.599 6.93777 120.947 6.93801 121.32C6.93826 121.692 6.84564 122.036 6.66015 122.35C6.47465 122.664 6.22559 122.914 5.91296 123.101C5.59055 123.287 5.24365 123.381 4.87225 123.381C4.50085 123.381 4.15871 123.289 3.84583 123.103C3.52317 122.917 3.26889 122.667 3.08298 122.353C2.89708 122.04 2.804 121.696 2.80375 121.324C2.80351 120.951 2.89613 120.603 3.08161 120.279C3.2671 119.955 3.52104 119.7 3.84345 119.514C4.15609 119.327 4.4981 119.233 4.8695 119.233Z" fill="#2F67FF"/>
<path d="M7.57276 102.879C8.93935 103.057 9.8687 103.529 10.3608 104.295C10.8529 105.061 11.0284 105.988 10.8873 107.078C10.7865 107.856 10.5597 108.503 10.2068 109.021C9.85523 109.529 9.29518 109.896 8.5267 110.123C7.75948 110.339 6.73618 110.365 5.45682 110.198L5.07883 110.149C3.79946 109.983 2.81648 109.697 2.12988 109.291C1.44453 108.875 0.996596 108.377 0.786064 107.796C0.576792 107.205 0.522543 106.521 0.623315 105.743C0.765657 104.644 1.16683 103.791 1.82685 103.185C2.48812 102.569 3.51659 102.351 4.91226 102.533L4.81212 103.306C3.65875 103.156 2.81966 103.319 2.29485 103.794C1.76035 104.269 1.43578 104.948 1.32115 105.833C1.1977 106.786 1.39821 107.559 1.92267 108.151C2.43744 108.742 3.46535 109.138 5.0064 109.339L5.73331 109.433C7.27436 109.634 8.37388 109.515 9.03187 109.076C9.68016 108.636 10.066 107.94 10.1895 106.987C10.4427 105.032 9.53705 103.921 7.47262 103.652L7.57276 102.879Z" fill="#2F67FF"/>
<path d="M11.8968 94.7696C12.2118 94.8391 12.3977 94.7445 12.4544 94.4859C12.5028 94.2656 12.4789 94.0094 12.383 93.7171L12.9986 93.8529C13.1211 94.1611 13.1445 94.4876 13.0689 94.8324C12.9932 95.1771 12.8166 95.3892 12.539 95.4685C12.2518 95.5458 11.8887 95.5359 11.4496 95.439C11.8713 95.8434 12.1472 96.2958 12.2775 96.7965C12.4099 97.2876 12.4099 97.8348 12.2774 98.4382C12.1282 99.1182 11.8536 99.64 11.4535 100.004C11.044 100.365 10.4669 100.464 9.7224 100.299C9.04471 100.15 8.58297 99.8372 8.33719 99.3612C8.08396 98.8736 7.98529 98.2744 8.04119 97.5638C8.08965 96.8415 8.2379 95.9153 8.48594 94.7852L7.56962 94.583C6.95875 94.4482 6.50141 94.503 6.19763 94.7472C5.8864 94.9798 5.65511 95.4408 5.50376 96.1304C5.36502 96.7625 5.3777 97.2975 5.54179 97.7353C5.69633 98.1711 6.02654 98.4447 6.53242 98.5564L6.7615 98.6069L6.607 99.3108C6.45008 99.2963 6.32389 99.2785 6.22844 99.2574C5.60802 99.1205 5.17903 98.7498 4.94148 98.1451C4.69649 97.5287 4.66438 96.8087 4.84516 95.9851C5.04065 95.0944 5.36227 94.4725 5.81003 94.1195C6.25989 93.7568 6.8523 93.6566 7.58726 93.8187L11.8968 94.7696ZM9.14454 94.9305C8.92172 95.9457 8.77961 96.7527 8.7182 97.3517C8.65889 97.9411 8.71653 98.4308 8.89113 98.8207C9.05618 99.2086 9.39165 99.4583 9.89753 99.5699C10.3748 99.6752 10.7526 99.618 11.031 99.3983C11.3115 99.169 11.5179 98.7526 11.6504 98.1492C11.745 97.7183 11.7389 97.2902 11.632 96.865C11.5273 96.4302 11.3103 96.0509 10.9811 95.7273C10.6444 95.3919 10.1945 95.1621 9.63133 95.0379L9.14454 94.9305Z" fill="#2F67FF"/>
<path d="M11.6187 90.5279C11.6626 90.5516 11.7266 90.5763 11.8107 90.602C12.2875 90.7478 12.7195 90.6544 13.1067 90.3217C13.4968 89.9797 13.8017 89.4475 14.0214 88.7253C14.2182 88.078 14.2446 87.5376 14.1006 87.104C13.9472 86.6675 13.6602 86.3849 13.2396 86.2562C12.9124 86.1562 12.6239 86.1807 12.3742 86.3299C12.1273 86.4697 11.9115 86.6754 11.7268 86.947C11.5355 87.2063 11.3176 87.5703 11.0729 88.0388C10.7867 88.5767 10.5348 89.002 10.317 89.3148C10.09 89.6247 9.81314 89.863 9.48658 90.0296C9.16001 90.1963 8.77237 90.2111 8.32366 90.0738C7.74408 89.8966 7.34331 89.5177 7.12136 88.9372C6.89941 88.3567 6.92821 87.6068 7.20776 86.6876C7.39032 86.0872 7.63966 85.6201 7.95578 85.2862C8.2719 84.9523 8.60662 84.7419 8.95996 84.6552C9.30681 84.5562 9.63447 84.5539 9.94296 84.6483L10.135 84.7224L9.92105 85.4259L9.73876 85.3701C9.43962 85.2786 9.10847 85.326 8.7453 85.5123C8.37564 85.6863 8.06529 86.186 7.81427 87.0115C7.5718 87.8088 7.54761 88.3755 7.74169 88.7117C7.93862 89.0385 8.196 89.2505 8.51384 89.3477C8.78493 89.4306 9.03314 89.404 9.25846 89.2678C9.48377 89.1317 9.68596 88.9372 9.86502 88.6844C10.0347 88.4287 10.2466 88.068 10.5006 87.6024C10.7961 87.0673 11.0603 86.6355 11.2931 86.3068C11.5258 85.9782 11.8116 85.7273 12.1504 85.554C12.4891 85.3808 12.8782 85.3614 13.3176 85.4958C14.0841 85.7302 14.559 86.1677 14.7423 86.8081C14.9285 87.4392 14.8846 88.2049 14.6108 89.1054C14.4025 89.7902 14.1253 90.3154 13.7791 90.6811C13.4357 91.0375 13.0812 91.2623 12.7157 91.3556C12.353 91.4394 12.0315 91.4385 11.751 91.3527C11.6388 91.3184 11.5547 91.2927 11.4986 91.2755C11.4454 91.249 11.4141 91.2343 11.4047 91.2314L11.6187 90.5279Z" fill="#2F67FF"/>
<path d="M15.8388 76.8765C16.4026 77.099 16.8409 77.4141 17.1535 77.822C17.4697 78.2208 17.6563 78.6685 17.7135 79.1653C17.7616 79.6585 17.6854 80.1607 17.485 80.6717C17.2595 81.2466 16.9226 81.7039 16.4744 82.0434C16.0206 82.3702 15.4817 82.5527 14.8575 82.591C14.2334 82.6293 13.553 82.5031 12.8164 82.2124L12.6117 82.1317C11.8751 81.841 11.2895 81.473 10.8551 81.0275C10.4243 80.573 10.1583 80.0729 10.0573 79.5272C9.95079 78.9688 10.0103 78.4021 10.2358 77.8272C10.4398 77.307 10.7361 76.8864 11.1245 76.5655C11.5074 76.2318 11.9592 76.0307 12.4797 75.9621C12.9911 75.8899 13.5424 75.9704 14.1335 76.2036L15.0066 76.5481L13.0629 81.5035L13.172 81.5466C14.0815 81.9054 14.8578 81.9746 15.5009 81.7541C16.1475 81.5245 16.5997 81.0812 16.8575 80.4241C17.0866 79.84 17.0989 79.2864 16.8946 78.7632C16.6938 78.2308 16.2524 77.83 15.5703 77.5609L15.8388 76.8765ZM10.8633 78.0748C10.6235 78.6862 10.634 79.2753 10.8948 79.8419C11.1557 80.4085 11.671 80.8753 12.4407 81.2422L14.1106 76.985L13.8651 76.8881C13.1557 76.6082 12.5376 76.5909 12.0108 76.8361C11.4785 77.0687 11.096 77.4816 10.8633 78.0748Z" fill="#2F67FF"/>
<path d="M17.2874 62.6914C16.7721 62.4108 16.2647 62.4134 15.7652 62.6994C15.2618 62.9721 14.8305 63.4402 14.4714 64.1039C14.1029 64.7848 13.9355 65.4022 13.9693 65.9562C13.9945 66.5056 14.2819 66.9299 14.8316 67.2292C15.1924 67.4257 15.5427 67.477 15.8826 67.3831C16.2139 67.2845 16.5303 67.1109 16.8317 66.8621C17.1245 66.6087 17.4866 66.2479 17.9179 65.7798C18.4441 65.2183 18.8961 64.7837 19.2739 64.4761C19.6477 64.1552 20.0767 63.9481 20.5609 63.8547C21.0412 63.748 21.5605 63.8466 22.1188 64.1506C23.0035 64.6324 23.4933 65.2785 23.5884 66.0891C23.6796 66.8864 23.4733 67.7505 22.9696 68.6813C22.4472 69.6466 21.8298 70.3147 21.1176 70.6857C20.3967 71.0519 19.5897 70.9919 18.6964 70.5055L18.4715 70.3663L18.8283 69.7069L19.1692 69.9093C19.7962 70.2507 20.3793 70.2725 20.9185 69.9747C21.4492 69.6723 21.9174 69.1461 22.3232 68.3963C23.2281 66.7242 23.0492 65.5444 21.7867 64.8569C21.383 64.6371 20.9936 64.5757 20.6186 64.6728C20.2483 64.7612 19.9077 64.9384 19.597 65.2044C19.2909 65.4618 18.9043 65.8371 18.4372 66.3304C17.9203 66.8747 17.4819 67.2943 17.122 67.5893C16.7622 67.8844 16.3554 68.0813 15.9016 68.1801C15.4392 68.2743 14.9461 68.1787 14.4222 67.8934C13.7007 67.5005 13.3088 66.9301 13.2466 66.182C13.1891 65.4254 13.3889 64.6247 13.846 63.7801C14.3171 62.9095 14.8885 62.3057 15.5603 61.9685C16.232 61.6313 16.963 61.6778 17.7532 62.1081L17.9206 62.1993L17.5708 62.8457L17.2874 62.6914Z" fill="#2F67FF"/>
<path d="M27.5056 60.4794C27.5033 60.6291 27.4687 60.793 27.4019 60.9713C27.3485 61.1465 27.2746 61.3085 27.18 61.4574C26.9384 61.8379 26.6287 62.0702 26.2508 62.1543C25.873 62.2384 25.4574 62.1356 25.0041 61.8459L20.5038 58.9699L20.0626 59.6647L19.4939 59.3012L19.9351 58.6064L18.0617 57.0952L18.3217 56.6858L20.3369 57.9737L21.2745 56.4973L21.8432 56.8607L20.9056 58.3371L25.3812 61.1973C25.7108 61.408 25.9728 61.4882 26.167 61.4379C26.3582 61.374 26.522 61.2346 26.6586 61.0195C26.7164 60.9285 26.7746 60.7913 26.8332 60.6078C26.8917 60.4243 26.9305 60.263 26.9493 60.1239L27.5056 60.4794Z" fill="#2F67FF"/>
<path d="M31.1189 53.5386C31.2821 53.9768 31.3262 54.4364 31.2511 54.9174C31.1761 55.3985 30.9904 55.8401 30.694 56.2422C30.2058 56.9046 29.6219 57.3009 28.9425 57.4312C28.2689 57.5536 27.555 57.335 26.8006 56.7754L22.9229 53.8988L23.3675 53.2955L27.0685 56.041C27.705 56.5131 28.2879 56.7199 28.8172 56.6613C29.3524 56.5948 29.8205 56.2895 30.2216 55.7454C30.4773 55.3984 30.6273 55.0218 30.6715 54.6155C30.7157 54.2092 30.6506 53.8194 30.4761 53.446C30.3075 53.0647 30.0463 52.7429 29.6927 52.4806L25.9918 49.7352L26.4364 49.1319L31.646 52.9965C31.9053 53.1889 32.1134 53.1786 32.2704 52.9657C32.4041 52.7843 32.4865 52.5406 32.5177 52.2344L33.0245 52.6104C33.0111 52.9419 32.8997 53.2496 32.6905 53.5335C32.4929 53.8016 32.2523 53.922 31.9686 53.8945C31.6772 53.8612 31.3939 53.7426 31.1189 53.5386Z" fill="#2F67FF"/>
<path d="M37.4923 45.7886C37.7665 46.765 37.5377 47.6684 36.806 48.4986C36.2231 49.1598 35.5019 49.4822 34.6424 49.4658C33.7819 49.4356 32.8576 48.9821 31.8693 48.1052L31.7485 47.9981C31.1702 47.485 30.7635 46.9474 30.5284 46.3853C30.286 45.8167 30.2076 45.2693 30.2932 44.743C30.3788 44.2167 30.6061 43.7442 30.9752 43.3254C31.3184 42.936 31.7066 42.6585 32.1396 42.4928C32.5718 42.3133 33.0079 42.2551 33.448 42.3182L30.3734 39.5904L30.8688 39.0283L38.7749 46.0428L38.4446 46.4175L37.4923 45.7886ZM35.3354 43.9731C34.5814 43.3042 33.872 42.9693 33.2073 42.9687C32.5417 42.9542 31.9822 43.2042 31.5289 43.7184C31.0821 44.2254 30.9065 44.8093 31.0023 45.4703C31.098 46.1313 31.5192 46.7931 32.2659 47.4555L32.3867 47.5627C33.2432 48.3226 34.0046 48.7167 34.6711 48.745C35.3302 48.7668 35.8896 48.5169 36.3494 47.9953C36.8157 47.4663 37.0014 46.8783 36.9065 46.2311C36.8108 45.5701 36.331 44.8564 35.4672 44.09L35.3354 43.9731Z" fill="#2F67FF"/>
<path d="M33.3878 36.3674L33.9976 35.7517L34.5591 36.3115L33.9493 36.9272L33.3878 36.3674ZM40.9156 43.7892L35.6023 38.4922L36.1294 37.9599L41.4427 43.257L40.9156 43.7892Z" fill="#2F67FF"/>
<path d="M46.1549 35.0069C46.5591 35.4597 46.8097 35.9388 46.9065 36.4441C47.0106 36.9429 46.977 37.4272 46.8059 37.8969C46.6282 38.3594 46.3355 38.7738 45.9277 39.1403C45.469 39.5526 44.9635 39.8095 44.4111 39.9111C43.8595 39.9988 43.2963 39.9192 42.7216 39.6723C42.1468 39.4254 41.5954 39.0062 41.0673 38.4146L40.9206 38.2503C40.3924 37.6588 40.0339 37.0661 39.8451 36.4724C39.6635 35.8721 39.6497 35.3054 39.8036 34.7722C39.9582 34.2251 40.2649 33.7455 40.7236 33.3332C41.1386 32.9602 41.5915 32.7177 42.0821 32.6058C42.5735 32.4801 43.0671 32.5038 43.5629 32.6769C44.0521 32.8427 44.5086 33.1629 44.9324 33.6376L45.5583 34.3387L41.6047 37.8921L41.6829 37.9798C42.3349 38.7101 42.9975 39.1215 43.6708 39.2141C44.3512 39.3001 44.9536 39.1076 45.4778 38.6364C45.9438 38.2176 46.2026 37.7283 46.2541 37.1687C46.3129 36.6025 46.0978 36.0455 45.6088 35.4977L46.1549 35.0069ZM41.1735 33.8371C40.6857 34.2756 40.4315 34.8067 40.4111 35.4306C40.3906 36.0545 40.6422 36.7038 41.1657 37.3784L44.5624 34.3256L44.3863 34.1284C43.8778 33.5588 43.3333 33.2649 42.7529 33.2469C42.1732 33.215 41.6468 33.4118 41.1735 33.8371Z" fill="#2F67FF"/>
<path d="M48.802 33.3627C48.8239 33.4076 48.8617 33.4651 48.9152 33.5351C49.2184 33.9319 49.6239 34.108 50.1317 34.0633C50.6472 34.0127 51.2037 33.7576 51.801 33.2981C52.3363 32.8864 52.671 32.4621 52.8053 32.0252C52.9336 31.5806 52.864 31.1832 52.5965 30.833C52.3884 30.5606 52.1396 30.4123 51.85 30.388C51.5682 30.3576 51.2735 30.3991 50.9658 30.5122C50.6599 30.6116 50.2716 30.7805 49.801 31.019C49.2565 31.2896 48.805 31.4886 48.4466 31.6161C48.0823 31.7357 47.7191 31.768 47.3568 31.7131C46.9946 31.6582 46.6708 31.4439 46.3855 31.0704C46.0169 30.588 45.9106 30.0458 46.0666 29.444C46.2226 28.8421 46.6807 28.2488 47.441 27.664C47.9375 27.2821 48.4111 27.0475 48.8617 26.9603C49.3124 26.8731 49.7065 26.8973 50.0442 27.0329C50.3836 27.1548 50.6514 27.3441 50.8476 27.6009L50.9608 27.7733L50.379 28.2208L50.2631 28.0691C50.0729 27.8201 49.7761 27.6654 49.3727 27.605C48.9712 27.5309 48.4291 27.7564 47.7465 28.2815C47.0871 28.7887 46.7389 29.2357 46.7018 29.6225C46.6725 30.0033 46.759 30.326 46.9611 30.5906C47.1335 30.8162 47.3508 30.9394 47.6129 30.9601C47.8751 30.9809 48.1523 30.9406 48.4445 30.8394C48.7307 30.7304 49.1121 30.5606 49.5886 30.3299C50.1391 30.067 50.6043 29.8698 50.9841 29.7383C51.364 29.6067 51.7418 29.5693 52.1178 29.626C52.4937 29.6828 52.8213 29.894 53.1008 30.2598C53.5883 30.8978 53.7209 31.5309 53.4987 32.159C53.2842 32.781 52.8047 33.3785 52.0599 33.9514C51.4936 34.387 50.9637 34.6526 50.4701 34.7481C49.9843 34.8377 49.5657 34.8137 49.2143 34.6763C48.8708 34.5329 48.6098 34.3445 48.4314 34.111C48.3601 34.0177 48.3066 33.9476 48.2709 33.9009C48.243 33.8483 48.2261 33.8181 48.2201 33.8103L48.802 33.3627Z" fill="#2F67FF"/>
<path d="M62.3239 20.7595C62.5127 21.0803 62.609 21.4275 62.613 21.8008C62.612 22.1658 62.5198 22.5107 62.3364 22.8357C62.153 23.1607 61.9013 23.4179 61.5815 23.6074C61.2616 23.7968 60.9198 23.8911 60.5561 23.8903C60.1923 23.8894 59.851 23.8012 59.5322 23.6257C59.2083 23.4418 58.952 23.1894 58.7633 22.8686C58.5746 22.5477 58.4807 22.2048 58.4817 21.8399C58.4777 21.4665 58.5632 21.1198 58.7382 20.7998C58.9132 20.4798 59.1606 20.2251 59.4805 20.0356C59.8004 19.8462 60.1464 19.7494 60.5185 19.7453C60.8907 19.7411 61.2387 19.8311 61.5625 20.015C61.8814 20.1904 62.1352 20.4386 62.3239 20.7595Z" fill="#2F67FF"/>
<path d="M77.1893 15.0441C77.7302 16.3156 77.7966 17.3587 77.3885 18.1732C76.9804 18.9878 76.2729 19.6107 75.2661 20.0421C74.547 20.3502 73.8756 20.4833 73.2519 20.4413C72.6373 20.3955 72.0378 20.098 71.4534 19.5487C70.8781 18.9956 70.3372 18.1239 69.8309 16.9335L69.6813 16.5818C69.1749 15.3914 68.9217 14.3964 68.9217 13.5968C68.9306 12.7934 69.1312 12.153 69.5234 11.6758C69.9245 11.1947 70.4847 10.8001 71.2038 10.492C72.2196 10.0568 73.1553 9.97039 74.0109 10.2328C74.8755 10.4914 75.584 11.27 76.1363 12.5686L75.4217 12.8748C74.9652 11.8017 74.3996 11.1591 73.7249 10.9471C73.0464 10.7261 72.2981 10.7908 71.48 11.1413C70.5991 11.5188 70.0374 12.0846 69.7949 12.8389C69.5486 13.5841 69.7304 14.6736 70.3404 16.1075L70.6281 16.7838C71.238 18.2177 71.8981 19.1076 72.6086 19.4536C73.3152 19.7905 74.109 19.7703 74.9899 19.3928C76.7968 18.6186 77.2917 17.2711 76.4747 15.3503L77.1893 15.0441Z" fill="#2F67FF"/>
<path d="M86.2073 14.7112C86.3066 15.0191 86.4818 15.1322 86.7329 15.0505C86.9468 14.981 87.1551 14.8308 87.358 14.5999L87.5522 15.2015C87.3491 15.4634 87.0801 15.6488 86.7454 15.7577C86.4106 15.8665 86.139 15.8209 85.9306 15.6207C85.7191 15.4111 85.5441 15.0918 85.4056 14.6627C85.2709 15.2322 85.0212 15.6999 84.6564 16.0659C84.301 16.4289 83.8303 16.7056 83.2445 16.8961C82.5843 17.1108 81.9969 17.1369 81.4821 16.9745C80.9643 16.8027 80.588 16.353 80.3532 15.6254C80.1394 14.9631 80.1751 14.4052 80.4603 13.9517C80.7517 13.4859 81.2171 13.0975 81.8565 12.7865C82.5022 12.4632 83.3736 12.1231 84.4708 11.7663L84.1818 10.8708C83.9891 10.2738 83.711 9.90552 83.3475 9.76604C82.9902 9.61422 82.4769 9.64717 81.8074 9.86487C81.1937 10.0644 80.74 10.346 80.4464 10.7095C80.1497 11.0636 80.0812 11.4879 80.2407 11.9823L80.313 12.2062L79.6295 12.4284C79.5628 12.2852 79.5143 12.167 79.4842 12.0737C79.2885 11.4673 79.3907 10.9084 79.7907 10.397C80.197 9.87319 80.8 9.48127 81.5997 9.22122C82.4644 8.94002 83.1617 8.90395 83.6915 9.11303C84.2306 9.31908 84.6161 9.78125 84.8479 10.4995L86.2073 14.7112ZM84.6785 12.4099C83.6929 12.7304 82.927 13.0156 82.3809 13.2653C81.8441 13.512 81.4521 13.8096 81.2049 14.158C80.9547 14.497 80.9094 14.9137 81.069 15.4081C81.2195 15.8745 81.4596 16.1727 81.7892 16.3026C82.1281 16.4294 82.5905 16.3976 83.1763 16.2071C83.5947 16.071 83.9598 15.8493 84.2715 15.5417C84.5925 15.2312 84.809 14.8516 84.9211 14.4028C85.0394 13.9418 85.0097 13.436 84.8321 12.8857L84.6785 12.4099Z" fill="#2F67FF"/>
<path d="M90.0957 12.2077C90.0973 12.2576 90.1081 12.3256 90.1282 12.4115C90.2416 12.8985 90.5388 13.2265 91.0198 13.3955C91.5104 13.5623 92.1221 13.5597 92.8549 13.3877C93.5116 13.2335 93.9907 12.9851 94.2924 12.6424C94.5918 12.2901 94.6914 11.8992 94.5913 11.4695C94.5135 11.1353 94.3477 10.8973 94.0938 10.7555C93.8495 10.6115 93.5639 10.5274 93.2371 10.5035C92.9176 10.4677 92.4945 10.4613 91.9679 10.4842C91.3606 10.5059 90.8676 10.5008 90.4888 10.4689C90.1077 10.4274 89.7635 10.3069 89.456 10.1071C89.1485 9.90744 88.9414 9.57843 88.8346 9.12011C88.6968 8.52812 88.8224 7.99008 89.2115 7.50599C89.6007 7.0219 90.2616 6.67038 91.1943 6.45142C91.8034 6.30843 92.3312 6.29028 92.7776 6.39695C93.224 6.50362 93.5732 6.68851 93.8252 6.9516C94.0845 7.20291 94.2508 7.48611 94.3242 7.8012L94.3566 8.00506L93.6428 8.17263L93.5995 7.98644C93.5283 7.6809 93.3214 7.4173 92.9787 7.19565C92.6432 6.96221 92.0568 6.9438 91.2192 7.14041C90.4103 7.33032 89.9095 7.59389 89.7171 7.93111C89.5341 8.2661 89.4804 8.59591 89.556 8.92055C89.6205 9.19745 89.7679 9.39949 89.9983 9.52667C90.2287 9.65385 90.4978 9.73167 90.8055 9.76013C91.1111 9.77903 91.5283 9.78179 92.0571 9.76841C92.6666 9.75625 93.1714 9.76866 93.5715 9.80565C93.9716 9.84265 94.3312 9.96465 94.6504 10.1717C94.9697 10.3787 95.1816 10.7066 95.2861 11.1554C95.4684 11.9383 95.3295 12.5701 94.8693 13.0507C94.4186 13.5291 93.7364 13.8756 92.8227 14.0901C92.128 14.2532 91.5361 14.2763 91.0472 14.1595C90.5678 14.0404 90.1962 13.8457 89.9324 13.5753C89.6782 13.3026 89.5178 13.0231 89.4511 12.7366C89.4244 12.6221 89.4044 12.5361 89.391 12.4788C89.3872 12.4193 89.3842 12.3848 89.3819 12.3752L90.0957 12.2077Z" fill="#2F67FF"/>
<path d="M103.27 9.11937C103.362 9.72023 103.312 10.2589 103.118 10.7354C102.934 11.2104 102.642 11.5979 102.243 11.8978C101.842 12.188 101.372 12.375 100.831 12.4587C100.222 12.5529 99.659 12.4913 99.141 12.2739C98.6312 12.0453 98.2028 11.6701 97.8557 11.1484C97.5086 10.6266 97.2748 9.97329 97.1543 9.18829L97.1208 8.97023C97.0003 8.18523 97.0225 7.49224 97.1874 6.89125C97.3619 6.28877 97.6587 5.80626 98.0778 5.44372C98.505 5.07 99.0229 4.83602 99.6314 4.74179C100.182 4.65653 100.693 4.70139 101.165 4.87637C101.645 5.04016 102.046 5.33035 102.367 5.74696C102.686 6.15387 102.895 6.6723 102.991 7.30224L103.134 8.23261L97.8888 9.04479L97.9067 9.16109C98.0554 10.1302 98.3866 10.838 98.9001 11.2843C99.4233 11.7291 100.033 11.8977 100.728 11.79C101.346 11.6943 101.829 11.426 102.177 10.9852C102.534 10.543 102.657 9.9584 102.546 9.23155L103.27 9.11937ZM99.7341 5.41049C99.0869 5.51071 98.585 5.81662 98.2284 6.32824C97.8718 6.83985 97.7292 7.52172 97.8007 8.37384L102.307 7.67608L102.267 7.41442C102.151 6.65849 101.855 6.11401 101.378 5.78098C100.91 5.43677 100.362 5.31327 99.7341 5.41049Z" fill="#2F67FF"/>
<path d="M116.96 3.18528C116.945 2.59711 116.69 2.15727 116.194 1.86579C115.707 1.56425 115.088 1.42304 114.336 1.44215C113.564 1.46175 112.947 1.62455 112.485 1.93055C112.023 2.22675 111.8 2.68854 111.816 3.31593C111.826 3.72766 111.957 4.05786 112.207 4.30653C112.458 4.5454 112.765 4.73377 113.13 4.87163C113.495 4.99969 113.988 5.13433 114.607 5.27554C115.354 5.45274 115.955 5.62876 116.409 5.80361C116.873 5.9684 117.266 6.23798 117.588 6.61236C117.92 6.97668 118.094 7.47744 118.109 8.11463C118.135 9.12434 117.821 9.8729 117.168 10.3603C116.525 10.8377 115.676 11.0898 114.621 11.1166C113.526 11.1444 112.641 10.9412 111.966 10.5072C111.29 10.0633 110.939 9.3316 110.914 8.31209L110.922 8.04704L111.669 8.02806L111.664 8.42545C111.682 9.14107 111.954 9.65895 112.48 9.9791C113.006 10.2894 113.694 10.4338 114.544 10.4122C116.44 10.3641 117.37 9.61951 117.334 8.17847C117.322 7.71773 117.181 7.34857 116.91 7.07098C116.649 6.79315 116.326 6.58555 115.941 6.44818C115.567 6.31057 115.05 6.16184 114.391 6.00202C113.663 5.82432 113.081 5.6527 112.647 5.48717C112.213 5.32163 111.84 5.06626 111.528 4.72104C111.216 4.36603 111.053 3.88953 111.038 3.29155C111.017 2.4681 111.315 1.84257 111.93 1.41496C112.555 0.987109 113.346 0.761023 114.303 0.736705C115.29 0.711642 116.097 0.90696 116.723 1.32266C117.349 1.73836 117.674 2.39714 117.696 3.29901L117.701 3.49017L116.968 3.50878L116.96 3.18528Z" fill="#2F67FF"/>
<path d="M124.313 10.9876C124.182 11.0597 124.023 11.1109 123.836 11.141C123.658 11.1814 123.481 11.1973 123.305 11.1887C122.856 11.1667 122.501 11.0119 122.241 10.7243C121.982 10.4367 121.865 10.0236 121.891 9.48486L122.153 4.13707L121.333 4.09698L121.366 3.42116L122.186 3.46125L122.566 1.07939L123.049 1.10301L122.932 3.49777L124.675 3.58297L124.642 4.25879L122.899 4.17359L122.639 9.49199C122.62 9.88377 122.68 10.1518 122.82 10.2961C122.97 10.431 123.172 10.5047 123.426 10.5171C123.533 10.5224 123.681 10.5051 123.869 10.4652C124.057 10.4253 124.215 10.379 124.345 10.3265L124.313 10.9876Z" fill="#2F67FF"/>
<path d="M132.105 10.6927C131.806 11.052 131.43 11.318 130.976 11.4908C130.522 11.6636 130.048 11.7204 129.553 11.6611C128.738 11.5635 128.106 11.2508 127.657 10.7229C127.218 10.1963 127.054 9.46558 127.165 8.53083L127.739 3.72563L128.481 3.81455L127.934 8.40067C127.84 9.18936 127.949 9.79995 128.262 10.2324C128.584 10.6661 129.08 10.923 129.75 11.0032C130.177 11.0543 130.577 10.9986 130.951 10.836C131.324 10.6733 131.63 10.4235 131.867 10.0865C132.114 9.75062 132.263 9.36361 132.315 8.92544L132.863 4.33932L133.605 4.42824L132.835 10.8839C132.796 11.2052 132.908 11.3815 133.17 11.4129C133.394 11.4396 133.645 11.3908 133.926 11.2664L133.851 11.8944C133.557 12.0469 133.236 12.1022 132.886 12.0604C132.556 12.0208 132.333 11.8707 132.217 11.6098C132.101 11.3392 132.064 11.0335 132.105 10.6927Z" fill="#2F67FF"/>
<path d="M142.053 12.4328C141.342 13.1541 140.446 13.4003 139.365 13.1714C138.504 12.9891 137.869 12.5188 137.46 11.7605C137.062 10.9946 136.999 9.96407 137.272 8.6688L137.306 8.51049C137.465 7.75251 137.731 7.13222 138.102 6.64961C138.476 6.1574 138.912 5.81876 139.41 5.63369C139.909 5.44862 140.43 5.41382 140.975 5.52927C141.482 5.63662 141.914 5.83838 142.271 6.13453C142.64 6.42312 142.906 6.77502 143.068 7.19026L143.917 3.16051L144.649 3.31546L142.465 13.6777L141.977 13.5744L142.053 12.4328ZM142.563 9.65432C142.772 8.66607 142.712 7.88171 142.385 7.30124C142.069 6.71319 141.577 6.34828 140.908 6.20649C140.248 6.06673 139.655 6.20175 139.129 6.61155C138.603 7.02135 138.237 7.71557 138.031 8.69422L137.998 8.85253C137.761 9.97511 137.795 10.8342 138.099 11.4298C138.405 12.0158 138.897 12.3807 139.576 12.5246C140.265 12.6704 140.866 12.5422 141.38 12.14C141.906 11.7302 142.289 10.9592 142.527 9.82702L142.563 9.65432Z" fill="#2F67FF"/>
<path d="M148.571 4.30457L149.404 4.53585L149.193 5.30142L148.36 5.07014L148.571 4.30457ZM145.811 14.5278L147.81 7.28328L148.53 7.4832L146.531 14.7278L145.811 14.5278Z" fill="#2F67FF"/>
<path d="M155.579 14.6681C155.384 15.2438 155.091 15.6981 154.7 16.0308C154.318 16.3667 153.881 16.5752 153.389 16.6562C152.9 16.7279 152.396 16.6755 151.878 16.499C151.295 16.3004 150.824 15.9846 150.465 15.5516C150.118 15.1125 149.911 14.581 149.844 13.9574C149.776 13.3337 149.87 12.6458 150.125 11.8936L150.195 11.6847C150.45 10.9326 150.789 10.3282 151.212 9.87157C151.644 9.4181 152.13 9.12774 152.668 9.00046C153.219 8.86706 153.786 8.89965 154.369 9.09823C154.897 9.2779 155.329 9.55472 155.667 9.92871C156.017 10.2966 156.239 10.7397 156.331 11.2581C156.427 11.7672 156.373 12.3235 156.169 12.9271L155.867 13.8185L150.842 12.1069L150.804 12.2183C150.49 13.1469 150.457 13.9282 150.707 14.5622C150.966 15.1993 151.429 15.6314 152.095 15.8583C152.687 16.06 153.239 16.046 153.751 15.8163C154.271 15.5897 154.649 15.1281 154.885 14.4317L155.579 14.6681ZM154.152 9.73894C153.532 9.52775 152.946 9.56638 152.394 9.85483C151.842 10.1433 151.402 10.682 151.073 11.4709L155.39 12.9414L155.475 12.6907C155.72 11.9664 155.708 11.3461 155.439 10.8298C155.183 10.3075 154.754 9.94382 154.152 9.73894Z" fill="#2F67FF"/>
<path d="M158.617 16.3009C158.589 16.3421 158.557 16.4032 158.522 16.4842C158.325 16.9434 158.369 17.3845 158.656 17.8075C158.951 18.2344 159.444 18.5973 160.135 18.8962C160.754 19.1641 161.287 19.2502 161.732 19.1546C162.182 19.05 162.494 18.7951 162.668 18.3899C162.803 18.0747 162.811 17.7844 162.691 17.5189C162.58 17.2573 162.401 17.0193 162.152 16.805C161.917 16.5856 161.58 16.328 161.143 16.0322C160.642 15.6873 160.249 15.389 159.964 15.1373C159.682 14.8766 159.477 14.5742 159.348 14.2301C159.219 13.886 159.248 13.4979 159.434 13.0657C159.674 12.5074 160.094 12.1497 160.693 11.9926C161.293 11.8355 162.033 11.9473 162.912 12.3277C163.486 12.5762 163.921 12.8765 164.217 13.2287C164.513 13.5809 164.684 13.9379 164.73 14.2998C164.79 14.6566 164.755 14.9836 164.628 15.2808L164.533 15.464L163.86 15.1728L163.935 14.9973C164.059 14.7091 164.049 14.3737 163.905 13.9909C163.774 13.6031 163.313 13.2383 162.524 12.8967C161.761 12.5666 161.202 12.4798 160.848 12.6361C160.502 12.7963 160.263 13.0295 160.132 13.3357C160.02 13.5968 160.018 13.8472 160.128 14.087C160.238 14.3267 160.408 14.5498 160.638 14.7563C160.873 14.9539 161.206 15.205 161.639 15.5099C162.137 15.8637 162.535 16.1749 162.834 16.4434C163.134 16.7119 163.351 17.0246 163.485 17.3816C163.619 17.7385 163.595 18.1286 163.413 18.5518C163.095 19.2902 162.609 19.7154 161.954 19.8273C161.308 19.943 160.555 19.8145 159.693 19.4418C159.038 19.1584 158.549 18.8238 158.225 18.4381C157.91 18.0563 157.727 17.678 157.675 17.3032C157.633 16.9323 157.669 16.6117 157.785 16.3416C157.832 16.2335 157.867 16.1525 157.89 16.0985C157.922 16.0483 157.94 16.0187 157.944 16.0097L158.617 16.3009Z" fill="#2F67FF"/>
<path d="M175.739 21.7679C175.552 22.0899 175.297 22.3439 174.974 22.5298C174.656 22.7073 174.311 22.7952 173.939 22.7934C173.567 22.7916 173.22 22.697 172.899 22.5095C172.578 22.3221 172.33 22.0689 172.153 21.75C171.976 21.4311 171.886 21.0892 171.883 20.7243C171.885 20.3509 171.979 20.0032 172.166 19.6811C172.353 19.3591 172.606 19.1093 172.924 18.9319C173.246 18.7459 173.59 18.6514 173.953 18.6482C174.317 18.645 174.659 18.7372 174.98 18.9247C175.301 19.1121 175.554 19.3678 175.74 19.6916C175.925 20.0154 176.016 20.364 176.015 20.7374C176.018 21.1023 175.926 21.4458 175.739 21.7679Z" fill="#2F67FF"/>
<path d="M187.975 31.9798C187.133 33.0751 186.259 33.6432 185.351 33.6843C184.443 33.7254 183.556 33.4108 182.689 32.7405C182.07 32.2616 181.626 31.739 181.358 31.1726C181.098 30.6121 181.064 29.9419 181.256 29.1618C181.456 28.3877 181.95 27.488 182.737 26.4627L182.97 26.1597C183.758 25.1344 184.499 24.4262 185.195 24.0352C185.898 23.6501 186.553 23.5125 187.159 23.6225C187.773 23.7384 188.39 24.0357 189.009 24.5145C189.884 25.1909 190.416 25.9677 190.606 26.8449C190.803 27.7282 190.472 28.7291 189.613 29.8476L188.997 29.3718C189.708 28.4474 189.99 27.6381 189.845 26.9439C189.706 26.2418 189.284 25.6185 188.58 25.0738C187.821 24.4873 187.055 24.2723 186.28 24.4289C185.512 24.5777 184.653 25.2697 183.705 26.5047L183.257 27.0873C182.308 28.3223 181.857 29.3354 181.903 30.1264C181.955 30.9097 182.36 31.5946 183.119 32.1812C184.675 33.3842 186.088 33.1585 187.359 31.504L187.975 31.9798Z" fill="#2F67FF"/>
<path d="M193.107 40.1024C192.888 40.3396 192.875 40.5482 193.068 40.7283C193.233 40.8817 193.465 40.9909 193.765 41.056L193.336 41.5197C193.009 41.4695 192.717 41.3244 192.459 41.0843C192.201 40.8442 192.109 40.584 192.181 40.3037C192.26 40.0162 192.453 39.7071 192.759 39.3765C192.198 39.5363 191.669 39.5458 191.173 39.4048C190.684 39.2706 190.214 38.9933 189.762 38.5732C189.254 38.0996 188.945 37.5978 188.835 37.0676C188.732 36.5302 188.94 35.9812 189.459 35.4205C189.931 34.9101 190.434 34.6692 190.968 34.6977C191.515 34.7257 192.08 34.9439 192.662 35.3522C193.258 35.76 193.979 36.3574 194.824 37.1444L195.462 36.4543C195.888 35.9942 196.073 35.571 196.017 35.1845C195.975 34.7975 195.696 34.3639 195.18 33.8837C194.708 33.4435 194.241 33.1834 193.782 33.1036C193.329 33.0165 192.927 33.1635 192.574 33.5445L192.415 33.717L191.888 33.2268C191.98 33.0984 192.06 32.9983 192.126 32.9264C192.558 32.4591 193.094 32.2759 193.734 32.3768C194.388 32.4771 195.023 32.8141 195.639 33.3877C196.305 34.0079 196.676 34.6011 196.753 35.1672C196.836 35.74 196.622 36.3032 196.11 36.8567L193.107 40.1024ZM194.365 37.6404C193.606 36.9334 192.984 36.4017 192.501 36.0452C192.025 35.6953 191.575 35.4971 191.151 35.4506C190.734 35.3969 190.349 35.5605 189.997 35.9415C189.664 36.3009 189.522 36.6567 189.57 37.0088C189.624 37.3675 189.877 37.757 190.329 38.1772C190.651 38.4773 191.022 38.6889 191.441 38.8119C191.868 38.9416 192.304 38.946 192.749 38.8252C193.208 38.7039 193.633 38.4312 194.026 38.007L194.365 37.6404Z" fill="#2F67FF"/>
<path d="M196.952 42.063C196.909 42.089 196.856 42.1318 196.791 42.1915C196.424 42.5297 196.284 42.9506 196.374 43.4541C196.469 43.9649 196.772 44.4983 197.28 45.0545C197.736 45.5529 198.187 45.8498 198.633 45.9452C199.085 46.034 199.474 45.9292 199.798 45.6307C200.05 45.3986 200.175 45.1368 200.174 44.8452C200.179 44.5609 200.112 44.27 199.973 43.9725C199.847 43.6756 199.645 43.3026 199.367 42.8535C199.05 42.3333 198.813 41.8998 198.655 41.5529C198.504 41.1994 198.44 40.8393 198.462 40.4724C198.485 40.1055 198.669 39.7629 199.015 39.4446C199.461 39.0334 199.99 38.879 200.601 38.9815C201.213 39.084 201.842 39.4892 202.49 40.1971C202.913 40.6594 203.187 41.1118 203.313 41.5545C203.44 41.9971 203.45 42.3932 203.346 42.7427C203.254 43.0927 203.09 43.3772 202.852 43.596L202.691 43.7245L202.196 43.1827L202.336 43.0534C202.567 42.8412 202.694 42.5309 202.718 42.1224C202.757 41.7146 202.485 41.1928 201.904 40.5572C201.342 39.9432 200.867 39.6349 200.48 39.6322C200.099 39.6367 199.787 39.7518 199.542 39.9773C199.333 40.1696 199.23 40.3977 199.232 40.6615C199.235 40.9254 199.299 41.1988 199.426 41.4818C199.559 41.7582 199.761 42.1243 200.032 42.58C200.342 43.1069 200.578 43.5543 200.743 43.9222C200.907 44.2901 200.977 44.6644 200.954 45.0451C200.931 45.4259 200.75 45.7721 200.411 46.0838C199.821 46.6276 199.204 46.8164 198.561 46.6501C197.924 46.491 197.289 46.0647 196.655 45.3713C196.172 44.844 195.862 44.3379 195.724 43.8531C195.592 43.3756 195.579 42.9551 195.684 42.5918C195.796 42.2357 195.96 41.9581 196.176 41.7592C196.263 41.6796 196.328 41.6199 196.371 41.5801C196.421 41.5475 196.449 41.5279 196.456 41.5213L196.952 42.063Z" fill="#2F67FF"/>
<path d="M206.339 52.366C205.862 52.7419 205.37 52.9622 204.861 53.0269C204.358 53.0993 203.879 53.0348 203.422 52.8335C202.974 52.6261 202.581 52.3066 202.242 51.8749C201.862 51.3894 201.639 50.8668 201.573 50.3073C201.522 49.7494 201.637 49.1906 201.92 48.6308C202.202 48.0711 202.655 47.5457 203.277 47.0546L203.45 46.9182C204.072 46.4272 204.685 46.106 205.288 45.9548C205.896 45.8113 206.461 45.8336 206.982 46.0216C207.516 46.2114 207.973 46.549 208.354 47.0346C208.698 47.4739 208.91 47.9428 208.99 48.4412C209.083 48.9412 209.028 49.4339 208.823 49.9193C208.627 50.3985 208.279 50.8352 207.78 51.2293L207.042 51.8113L203.762 47.6261L203.67 47.6988C202.902 48.3051 202.45 48.9423 202.314 49.6104C202.185 50.2863 202.338 50.9017 202.772 51.4566C203.159 51.9499 203.629 52.2402 204.182 52.3275C204.742 52.4225 205.31 52.2426 205.886 51.7879L206.339 52.366ZM207.823 47.4529C207.419 46.9365 206.907 46.6482 206.287 46.5879C205.668 46.5277 205.006 46.7381 204.302 47.2193L207.119 50.8149L207.327 50.6512C207.926 50.1783 208.253 49.6519 208.309 49.0719C208.378 48.4936 208.216 47.9539 207.823 47.4529Z" fill="#2F67FF"/>
<path d="M217.659 60.4904C218.16 60.1846 218.413 59.7433 218.418 59.1664C218.437 58.5928 218.25 57.9835 217.859 57.3384C217.458 56.6765 217.011 56.2209 216.517 55.9717C216.031 55.7173 215.521 55.7532 214.986 56.0793C214.635 56.2933 214.415 56.5713 214.324 56.9133C214.243 57.2501 214.233 57.6118 214.295 57.9982C214.366 58.3795 214.495 58.8749 214.681 59.4842C214.9 60.2229 215.047 60.8333 215.121 61.3155C215.21 61.801 215.172 62.2772 215.009 62.744C214.859 63.2141 214.513 63.6148 213.97 63.946C213.11 64.4709 212.306 64.5708 211.56 64.2457C210.828 63.9238 210.187 63.3105 209.639 62.4057C209.07 61.4673 208.806 60.5961 208.845 59.792C208.892 58.9828 209.35 58.3132 210.219 57.7832L210.452 57.6582L210.84 58.2991L210.494 58.4929C209.884 58.8649 209.572 59.3596 209.557 59.9769C209.551 60.5891 209.768 61.2596 210.21 61.9885C211.195 63.6139 212.301 64.052 213.529 63.3029C213.921 63.0634 214.17 62.7566 214.275 62.3827C214.385 62.017 214.404 61.6327 214.331 61.2295C214.264 60.8347 214.135 60.3107 213.945 59.6577C213.737 58.9358 213.596 58.3447 213.523 57.8843C213.45 57.4239 213.485 56.9722 213.628 56.529C213.78 56.0807 214.111 55.7012 214.62 55.3903C215.322 54.9623 216.01 54.9093 216.686 55.2315C217.367 55.5621 217.956 56.1379 218.453 56.9589C218.966 57.8051 219.198 58.6042 219.151 59.3562C219.103 60.1083 218.695 60.7187 217.927 61.1875L217.764 61.2869L217.383 60.6585L217.659 60.4904Z" fill="#2F67FF"/>
<path d="M214.698 70.9758C214.57 70.8981 214.447 70.7853 214.327 70.6373C214.204 70.5026 214.102 70.3566 214.022 70.1995C213.817 69.7981 213.774 69.4125 213.893 69.043C214.012 68.6734 214.31 68.3657 214.789 68.1199L219.54 65.6791L219.165 64.946L219.766 64.6375L220.14 65.3707L222.387 64.5134L222.608 64.9454L220.48 66.0384L221.275 67.5963L220.675 67.9048L219.88 66.3468L215.156 68.7742C214.808 68.953 214.606 69.1391 214.551 69.3326C214.509 69.5304 214.546 69.7427 214.662 69.9696C214.711 70.0657 214.8 70.1854 214.928 70.3289C215.056 70.4724 215.175 70.5874 215.285 70.6741L214.698 70.9758Z" fill="#2F67FF"/>
<path d="M218.862 77.6738C218.403 77.5933 217.985 77.3989 217.61 77.0907C217.234 76.7824 216.949 76.3983 216.753 75.9383C216.431 75.1808 216.386 74.4751 216.618 73.8213C216.854 73.1766 217.404 72.6694 218.267 72.2998L222.703 70.3998L222.997 71.0897L218.762 72.9031C218.034 73.2149 217.561 73.6147 217.343 74.1024C217.13 74.5991 217.155 75.1586 217.42 75.7809C217.588 76.1777 217.836 76.4981 218.163 76.7419C218.49 76.9857 218.858 77.1266 219.267 77.1645C219.68 77.2114 220.089 77.1483 220.494 76.975L224.728 75.1616L225.021 75.8516L219.061 78.4042C218.764 78.5312 218.668 78.7165 218.771 78.96C218.859 79.1674 219.027 79.3621 219.274 79.544L218.695 79.7923C218.416 79.613 218.208 79.3609 218.07 79.0363C217.94 78.7296 217.958 78.4605 218.126 78.229C218.302 77.9936 218.547 77.8086 218.862 77.6738Z" fill="#2F67FF"/>
<path d="M222.174 86.7409C221.195 86.4863 220.533 85.8328 220.188 84.7803C219.913 83.9421 220 83.1548 220.447 82.4183C220.908 81.6881 221.764 81.1158 223.018 80.7016L223.171 80.6509C223.904 80.4085 224.572 80.3271 225.175 80.4067C225.786 80.4833 226.297 80.6913 226.707 81.0307C227.117 81.3702 227.409 81.8053 227.583 82.3362C227.745 82.8298 227.788 83.306 227.712 83.7646C227.648 84.2296 227.478 84.6368 227.202 84.9862L231.101 83.6974L231.335 84.4099L221.308 87.724L221.152 87.249L222.174 86.7409ZM224.825 85.7873C225.781 85.4712 226.427 85.0254 226.763 84.4498C227.112 83.8804 227.179 83.2697 226.965 82.6178C226.754 81.9751 226.34 81.5287 225.723 81.2785C225.106 81.0282 224.324 81.0596 223.377 81.3726L223.224 81.4233C222.137 81.7823 221.414 82.2434 221.053 82.8065C220.702 83.3665 220.635 83.9772 220.852 84.6385C221.072 85.309 221.484 85.7663 222.089 86.0103C222.706 86.2605 223.563 86.2046 224.658 85.8425L224.825 85.7873Z" fill="#2F67FF"/>
<path d="M232.597 88.8222L232.814 89.662L232.048 89.8622L231.83 89.0224L232.597 88.8222ZM222.396 91.5485L229.646 89.654L229.834 90.3799L222.584 92.2745L222.396 91.5485Z" fill="#2F67FF"/>
<path d="M227.199 100.269C226.605 100.389 226.066 100.363 225.583 100.19C225.102 100.027 224.703 99.7527 224.387 99.3665C224.08 98.9783 223.872 98.5151 223.765 97.9767C223.643 97.3711 223.679 96.8037 223.873 96.2746C224.077 95.7532 224.432 95.3067 224.935 94.935C225.439 94.5633 226.079 94.2991 226.855 94.1425L227.071 94.099C227.847 93.9424 228.538 93.9331 229.144 94.0709C229.752 94.2183 230.245 94.4938 230.625 94.8972C231.017 95.3084 231.273 95.8167 231.394 96.4224C231.504 96.9704 231.482 97.4848 231.329 97.9658C231.188 98.4544 230.917 98.8691 230.516 99.21C230.126 99.5488 229.619 99.7811 228.996 99.9068L228.076 100.092L227.031 94.8722L226.916 94.8954C225.958 95.0887 225.268 95.4529 224.847 95.988C224.428 96.5327 224.287 97.1511 224.426 97.8433C224.549 98.4586 224.838 98.9304 225.292 99.2588C225.749 99.5968 226.336 99.6933 227.055 99.5483L227.199 100.269ZM230.733 96.5558C230.604 95.9117 230.277 95.4226 229.751 95.0885C229.226 94.7545 228.541 94.6427 227.695 94.7532L228.593 99.238L228.852 99.1858C229.599 99.035 230.128 98.7132 230.438 98.2206C230.76 97.7356 230.858 97.1807 230.733 96.5558Z" fill="#2F67FF"/>
<path d="M227.252 103.382C227.202 103.378 227.134 103.382 227.046 103.393C226.552 103.454 226.195 103.716 225.976 104.177C225.758 104.649 225.695 105.26 225.787 106.009C225.869 106.68 226.064 107.185 226.371 107.522C226.688 107.858 227.065 108 227.502 107.945C227.841 107.903 228.095 107.763 228.263 107.525C228.431 107.297 228.545 107.021 228.604 106.697C228.674 106.382 228.725 105.961 228.759 105.433C228.803 104.825 228.861 104.334 228.933 103.959C229.015 103.584 229.171 103.253 229.402 102.968C229.633 102.682 229.981 102.511 230.447 102.453C231.048 102.378 231.568 102.561 232.006 103.001C232.444 103.44 232.721 104.137 232.838 105.091C232.915 105.714 232.876 106.242 232.723 106.676C232.569 107.11 232.349 107.439 232.061 107.662C231.784 107.894 231.486 108.03 231.166 108.07L230.96 108.08L230.87 107.35L231.06 107.327C231.37 107.288 231.653 107.11 231.91 106.792C232.177 106.482 232.258 105.899 232.153 105.042C232.051 104.215 231.844 103.688 231.53 103.46C231.218 103.242 230.897 103.153 230.567 103.194C230.286 103.229 230.07 103.354 229.919 103.57C229.768 103.787 229.662 104.047 229.601 104.351C229.55 104.654 229.502 105.069 229.459 105.599C229.406 106.208 229.339 106.71 229.26 107.105C229.18 107.5 229.021 107.846 228.781 108.143C228.542 108.439 228.194 108.615 227.739 108.672C226.943 108.77 226.332 108.565 225.905 108.054C225.479 107.554 225.209 106.836 225.094 105.902C225.007 105.192 225.047 104.599 225.216 104.123C225.385 103.658 225.618 103.308 225.914 103.074C226.211 102.849 226.506 102.719 226.797 102.683C226.913 102.668 227 102.657 227.059 102.65C227.118 102.653 227.152 102.653 227.162 102.652L227.252 103.382Z" fill="#2F67FF"/>
<path d="M231.215 121.297C230.844 121.299 230.497 121.208 230.173 121.023C229.86 120.838 229.609 120.584 229.422 120.262C229.235 119.939 229.141 119.591 229.139 119.219C229.137 118.846 229.229 118.502 229.413 118.188C229.597 117.873 229.845 117.622 230.157 117.434C230.479 117.246 230.825 117.151 231.197 117.149C231.568 117.148 231.911 117.239 232.224 117.424C232.548 117.609 232.803 117.857 232.99 118.17C233.177 118.483 233.271 118.826 233.273 119.199C233.275 119.571 233.184 119.92 232.999 120.244C232.815 120.569 232.562 120.825 232.24 121.013C231.928 121.201 231.587 121.296 231.215 121.297Z" fill="#2F67FF"/>
</svg>
