<svg width="293" height="291" viewBox="0 0 293 291" fill="none" xmlns="http://www.w3.org/2000/svg">
<path d="M283.989 164.64C282.249 164.559 281.03 164.064 280.331 163.154C279.631 162.244 279.314 161.098 279.378 159.717C279.423 158.73 279.641 157.894 280.032 157.207C280.421 156.533 281.088 156.014 282.032 155.65C282.975 155.298 284.261 155.16 285.889 155.235L286.37 155.257C287.998 155.333 289.266 155.589 290.172 156.027C291.078 156.477 291.694 157.055 292.02 157.763C292.345 158.482 292.485 159.335 292.439 160.322C292.375 161.716 291.958 162.828 291.191 163.657C290.422 164.499 289.15 164.879 287.374 164.797L287.42 163.816C288.887 163.884 289.927 163.592 290.538 162.941C291.161 162.29 291.499 161.403 291.551 160.281C291.607 159.072 291.274 158.124 290.552 157.435C289.842 156.747 288.507 156.358 286.546 156.267L285.621 156.224C283.66 156.133 282.288 156.397 281.505 157.016C280.735 157.635 280.322 158.549 280.266 159.758C280.151 162.237 281.407 163.537 284.034 163.659L283.989 164.64Z" fill="#5E96FF"/>
<path d="M278.234 177.276C277.832 177.213 277.605 177.347 277.554 177.676C277.51 177.957 277.56 178.277 277.704 178.637L276.917 178.515C276.739 178.137 276.683 177.728 276.752 177.289C276.82 176.85 277.026 176.57 277.369 176.448C277.725 176.328 278.184 176.312 278.745 176.399C278.182 175.924 277.798 175.378 277.594 174.759C277.389 174.152 277.345 173.464 277.465 172.696C277.599 171.829 277.904 171.152 278.38 170.664C278.868 170.177 279.588 170.008 280.539 170.155C281.406 170.29 282.012 170.646 282.36 171.225C282.718 171.818 282.889 172.563 282.875 173.461C282.871 174.372 282.757 175.548 282.534 176.987L283.705 177.169C284.486 177.29 285.058 177.186 285.422 176.855C285.796 176.538 286.051 175.94 286.187 175.062C286.312 174.257 286.254 173.585 286.013 173.048C285.784 172.513 285.346 172.195 284.699 172.094L284.406 172.049L284.545 171.152C284.744 171.158 284.905 171.17 285.027 171.189C285.82 171.313 286.39 171.745 286.737 172.486C287.095 173.241 287.192 174.143 287.029 175.193C286.853 176.327 286.497 177.134 285.96 177.613C285.421 178.104 284.682 178.277 283.743 178.131L278.234 177.276ZM281.692 176.857C281.893 175.563 282.008 174.538 282.038 173.78C282.066 173.035 281.955 172.424 281.704 171.948C281.465 171.474 281.023 171.186 280.376 171.086C279.766 170.991 279.294 171.093 278.96 171.391C278.625 171.701 278.397 172.241 278.278 173.009C278.193 173.558 278.234 174.096 278.403 174.622C278.569 175.16 278.873 175.619 279.313 176C279.764 176.395 280.35 176.648 281.07 176.76L281.692 176.857Z" fill="#5E96FF"/>
<path d="M277.703 184.698C277.647 184.67 277.565 184.642 277.457 184.614C276.848 184.454 276.307 184.592 275.835 185.03C275.359 185.479 275.001 186.164 274.759 187.083C274.542 187.907 274.536 188.589 274.739 189.127C274.954 189.669 275.33 190.01 275.867 190.152C276.285 190.261 276.648 190.216 276.956 190.016C277.261 189.828 277.523 189.559 277.743 189.208C277.972 188.873 278.229 188.404 278.515 187.803C278.85 187.112 279.147 186.564 279.406 186.16C279.677 185.759 280.015 185.446 280.419 185.22C280.823 184.994 281.312 184.957 281.885 185.107C282.625 185.302 283.15 185.759 283.459 186.479C283.768 187.198 283.768 188.143 283.46 189.313C283.26 190.077 282.968 190.677 282.585 191.113C282.203 191.549 281.79 191.83 281.349 191.956C280.916 192.098 280.502 192.117 280.108 192.013L279.862 191.929L280.098 191.034L280.33 191.095C280.712 191.195 281.128 191.119 281.577 190.867C282.036 190.63 282.403 189.986 282.679 188.935C282.946 187.92 282.948 187.206 282.687 186.793C282.422 186.391 282.087 186.137 281.681 186.03C281.334 185.939 281.022 185.985 280.745 186.167C280.467 186.35 280.221 186.604 280.008 186.931C279.806 187.261 279.556 187.725 279.259 188.324C278.912 189.011 278.6 189.568 278.322 189.992C278.045 190.417 277.696 190.747 277.277 190.982C276.858 191.216 276.368 191.26 275.806 191.112C274.827 190.855 274.206 190.328 273.943 189.531C273.677 188.746 273.695 187.78 273.996 186.634C274.225 185.762 274.549 185.088 274.969 184.611C275.384 184.146 275.821 183.845 276.278 183.71C276.731 183.587 277.137 183.572 277.496 183.666C277.639 183.704 277.746 183.732 277.818 183.751C277.887 183.782 277.927 183.799 277.939 183.802L277.703 184.698Z" fill="#5E96FF"/>
<path d="M272.055 202.783C271.336 202.52 270.773 202.136 270.366 201.631C269.955 201.139 269.706 200.58 269.619 199.957C269.544 199.337 269.625 198.703 269.863 198.054C270.131 197.324 270.543 196.738 271.099 196.298C271.662 195.873 272.338 195.627 273.125 195.561C273.912 195.495 274.775 195.634 275.714 195.978L275.975 196.073C276.914 196.418 277.664 196.864 278.226 197.412C278.783 197.971 279.134 198.593 279.278 199.277C279.429 199.977 279.371 200.692 279.103 201.422C278.86 202.083 278.499 202.621 278.018 203.036C277.544 203.468 276.979 203.734 276.324 203.836C275.68 203.942 274.982 203.856 274.228 203.58L273.115 203.172L275.423 196.877L275.284 196.826C274.125 196.401 273.143 196.337 272.337 196.633C271.527 196.941 270.969 197.513 270.663 198.347C270.391 199.089 270.392 199.786 270.665 200.439C270.935 201.103 271.504 201.595 272.373 201.914L272.055 202.783ZM278.303 201.129C278.588 200.352 278.557 199.611 278.211 198.905C277.865 198.2 277.2 197.627 276.217 197.188L274.234 202.596L274.547 202.711C275.451 203.042 276.232 203.046 276.89 202.722C277.556 202.413 278.027 201.882 278.303 201.129Z" fill="#5E96FF"/>
<path d="M267.777 223.991C268.428 224.344 269.069 224.34 269.7 223.98C270.335 223.636 270.88 223.046 271.333 222.21C271.798 221.353 272.008 220.575 271.965 219.878C271.933 219.186 271.569 218.652 270.874 218.275C270.419 218.028 269.976 217.964 269.547 218.082C269.128 218.207 268.729 218.425 268.348 218.739C267.978 219.058 267.521 219.513 266.977 220.102C266.313 220.81 265.742 221.357 265.265 221.745C264.793 222.149 264.252 222.41 263.64 222.528C263.033 222.662 262.377 222.539 261.672 222.156C260.554 221.55 259.934 220.737 259.813 219.716C259.697 218.712 259.957 217.624 260.592 216.452C261.251 215.236 262.031 214.395 262.93 213.927C263.84 213.466 264.86 213.541 265.989 214.153L266.273 214.328L265.823 215.158L265.392 214.904C264.6 214.474 263.863 214.447 263.182 214.822C262.512 215.203 261.921 215.866 261.409 216.811C260.268 218.916 260.495 220.402 262.091 221.267C262.601 221.543 263.093 221.62 263.566 221.498C264.034 221.386 264.464 221.163 264.856 220.828C265.243 220.504 265.731 220.031 266.32 219.409C266.973 218.724 267.526 218.195 267.981 217.823C268.435 217.452 268.949 217.204 269.522 217.079C270.106 216.96 270.729 217.08 271.391 217.439C272.303 217.933 272.798 218.651 272.878 219.593C272.951 220.546 272.7 221.554 272.123 222.618C271.529 223.714 270.808 224.475 269.959 224.9C269.111 225.325 268.187 225.267 267.189 224.725L266.977 224.611L267.418 223.796L267.777 223.991Z" fill="#5E96FF"/>
<path d="M253.191 227.82C253.2 227.631 253.251 227.427 253.344 227.206C253.419 226.988 253.52 226.787 253.646 226.604C253.968 226.136 254.37 225.858 254.851 225.77C255.331 225.681 255.851 225.829 256.411 226.215L261.962 230.04L262.55 229.186L263.252 229.669L262.664 230.523L264.96 232.51L264.614 233.014L262.128 231.301L260.877 233.116L260.176 232.632L261.426 230.817L255.905 227.014C255.499 226.733 255.171 226.621 254.924 226.675C254.68 226.747 254.467 226.915 254.284 227.179C254.207 227.291 254.128 227.461 254.045 227.689C253.963 227.917 253.907 228.118 253.877 228.293L253.191 227.82Z" fill="#5E96FF"/>
<path d="M246.688 237.927C246.5 237.369 246.463 236.789 246.577 236.187C246.691 235.584 246.943 235.036 247.334 234.542C247.977 233.729 248.73 233.254 249.594 233.118C250.449 232.991 251.342 233.296 252.271 234.031L257.051 237.81L256.465 238.551L251.904 234.944C251.119 234.324 250.391 234.04 249.721 234.092C249.042 234.153 248.439 234.518 247.91 235.187C247.573 235.613 247.369 236.081 247.297 236.59C247.224 237.1 247.291 237.593 247.496 238.07C247.693 238.557 248.01 238.972 248.446 239.317L253.008 242.924L252.422 243.665L246.001 238.588C245.681 238.335 245.418 238.339 245.211 238.601C245.035 238.824 244.921 239.127 244.869 239.511L244.244 239.017C244.275 238.6 244.428 238.218 244.704 237.869C244.964 237.54 245.273 237.398 245.63 237.444C245.996 237.498 246.349 237.659 246.688 237.927Z" fill="#5E96FF"/>
<path d="M237.314 247.31C237.021 246.066 237.359 244.943 238.327 243.938C239.099 243.138 240.026 242.772 241.11 242.84C242.195 242.925 243.337 243.546 244.537 244.703L244.683 244.844C245.385 245.522 245.87 246.22 246.136 246.94C246.411 247.668 246.48 248.361 246.344 249.019C246.207 249.676 245.895 250.258 245.406 250.765C244.952 251.236 244.447 251.564 243.892 251.748C243.337 251.951 242.783 252 242.231 251.897L245.964 255.496L245.308 256.176L235.709 246.92L236.146 246.467L237.314 247.31ZM239.938 249.712C240.854 250.594 241.731 251.054 242.57 251.091C243.409 251.146 244.129 250.862 244.729 250.24C245.32 249.627 245.573 248.902 245.488 248.065C245.403 247.228 244.907 246.373 244.001 245.499L243.854 245.357C242.814 244.354 241.875 243.817 241.035 243.745C240.204 243.682 239.485 243.965 238.876 244.596C238.259 245.236 237.993 245.966 238.078 246.785C238.163 247.622 238.73 248.546 239.778 249.557L239.938 249.712Z" fill="#5E96FF"/>
<path d="M239.803 260.5L238.968 261.205L238.323 260.441L239.157 259.736L239.803 260.5ZM231.138 250.364L237.247 257.591L236.526 258.201L230.416 250.974L231.138 250.364Z" fill="#5E96FF"/>
<path d="M222.32 261.566C221.856 260.957 221.588 260.331 221.517 259.687C221.436 259.05 221.526 258.446 221.789 257.874C222.059 257.311 222.469 256.82 223.019 256.401C223.638 255.93 224.3 255.659 225.006 255.587C225.709 255.532 226.411 255.689 227.11 256.057C227.809 256.424 228.461 257.006 229.067 257.802L229.236 258.023C229.841 258.819 230.234 259.599 230.412 260.363C230.581 261.135 230.541 261.847 230.294 262.501C230.045 263.172 229.611 263.743 228.992 264.214C228.432 264.641 227.837 264.9 227.208 264.991C226.577 265.099 225.958 265.019 225.351 264.752C224.751 264.495 224.208 264.047 223.722 263.408L223.004 262.465L228.338 258.404L228.248 258.286C227.5 257.303 226.707 256.72 225.869 256.536C225.02 256.36 224.243 256.541 223.535 257.079C222.907 257.558 222.532 258.146 222.411 258.843C222.28 259.548 222.495 260.269 223.056 261.005L222.32 261.566ZM228.476 263.537C229.134 263.036 229.507 262.394 229.595 261.613C229.683 260.832 229.431 259.992 228.84 259.093L224.257 262.582L224.459 262.847C225.042 263.614 225.699 264.037 226.428 264.118C227.154 264.217 227.837 264.023 228.476 263.537Z" fill="#5E96FF"/>
<path d="M216.268 264.362C216.246 264.303 216.205 264.226 216.146 264.132C215.812 263.598 215.323 263.329 214.679 263.324C214.025 263.326 213.295 263.579 212.489 264.084C211.767 264.536 211.295 265.027 211.074 265.559C210.86 266.101 210.9 266.607 211.195 267.078C211.425 267.445 211.72 267.66 212.081 267.726C212.432 267.797 212.808 267.781 213.208 267.676C213.604 267.588 214.113 267.423 214.733 267.18C215.45 266.906 216.041 266.71 216.507 266.594C216.98 266.487 217.44 266.49 217.889 266.602C218.338 266.715 218.72 267.022 219.035 267.524C219.441 268.173 219.51 268.865 219.242 269.601C218.974 270.337 218.328 271.026 217.302 271.668C216.632 272.087 216.009 272.325 215.432 272.38C214.855 272.435 214.362 272.358 213.953 272.147C213.541 271.954 213.227 271.685 213.01 271.339L212.888 271.11L213.673 270.618L213.801 270.822C214.011 271.157 214.366 271.387 214.866 271.511C215.362 271.652 216.07 271.434 216.991 270.857C217.881 270.3 218.372 269.782 218.465 269.301C218.547 268.828 218.476 268.413 218.254 268.057C218.064 267.753 217.805 267.573 217.478 267.516C217.15 267.458 216.797 267.476 216.418 267.567C216.045 267.67 215.545 267.837 214.918 268.069C214.195 268.333 213.586 268.524 213.093 268.644C212.599 268.763 212.12 268.765 211.654 268.649C211.188 268.533 210.801 268.228 210.493 267.737C209.956 266.878 209.864 266.069 210.218 265.308C210.562 264.554 211.236 263.863 212.241 263.234C213.005 262.756 213.703 262.486 214.335 262.425C214.957 262.371 215.48 262.451 215.906 262.666C216.321 262.887 216.626 263.154 216.823 263.468C216.902 263.594 216.961 263.688 217 263.751C217.029 263.82 217.046 263.86 217.053 263.87L216.268 264.362Z" fill="#5E96FF"/>
<path d="M194.57 278.773C194.381 278.344 194.311 277.895 194.362 277.428C194.417 276.972 194.584 276.554 194.862 276.175C195.14 275.796 195.494 275.512 195.923 275.323C196.353 275.134 196.796 275.067 197.252 275.122C197.708 275.177 198.123 275.338 198.497 275.605C198.876 275.884 199.16 276.237 199.349 276.667C199.538 277.096 199.605 277.539 199.55 277.995C199.5 278.463 199.341 278.883 199.074 279.257C198.807 279.631 198.459 279.913 198.03 280.102C197.6 280.291 197.152 280.361 196.684 280.31C196.217 280.26 195.794 280.096 195.415 279.817C195.041 279.55 194.759 279.202 194.57 278.773Z" fill="#5E96FF"/>
<path d="M171.805 283.361C171.35 281.68 171.448 280.368 172.1 279.424C172.753 278.479 173.746 277.826 175.081 277.465C176.034 277.206 176.898 277.158 177.67 277.319C178.431 277.484 179.13 277.96 179.765 278.747C180.389 279.538 180.914 280.72 181.34 282.293L181.466 282.757C181.892 284.331 182.036 285.616 181.897 286.613C181.746 287.613 181.383 288.377 180.81 288.903C180.224 289.433 179.454 289.827 178.501 290.085C177.154 290.45 175.969 290.394 174.944 289.917C173.907 289.443 173.156 288.348 172.691 286.632L173.639 286.375C174.023 287.793 174.619 288.694 175.426 289.076C176.237 289.471 177.184 289.521 178.268 289.227C179.436 288.911 180.238 288.303 180.672 287.405C181.11 286.519 181.072 285.128 180.559 283.234L180.317 282.34C179.803 280.445 179.132 279.22 178.303 278.664C177.478 278.12 176.481 278.006 175.313 278.323C172.918 278.972 172.064 280.566 172.752 283.104L171.805 283.361Z" fill="#5E96FF"/>
<path d="M158.04 281.66C157.977 281.257 157.781 281.081 157.452 281.132C157.171 281.176 156.881 281.321 156.582 281.567L156.46 280.78C156.766 280.495 157.138 280.319 157.577 280.251C158.017 280.183 158.346 280.294 158.566 280.584C158.788 280.887 158.943 281.319 159.03 281.881C159.312 281.2 159.716 280.668 160.244 280.286C160.76 279.907 161.402 279.657 162.171 279.538C163.037 279.403 163.775 279.488 164.385 279.794C164.996 280.111 165.376 280.746 165.524 281.697C165.658 282.563 165.503 283.25 165.056 283.756C164.6 284.277 163.942 284.667 163.082 284.925C162.213 285.198 161.058 285.446 159.618 285.669L159.8 286.84C159.921 287.621 160.195 288.135 160.62 288.381C161.035 288.642 161.682 288.704 162.561 288.567C163.366 288.442 163.988 288.183 164.427 287.79C164.868 287.409 165.038 286.896 164.937 286.249L164.892 285.956L165.789 285.817C165.843 286.008 165.88 286.165 165.899 286.287C166.022 287.08 165.783 287.754 165.182 288.31C164.571 288.88 163.741 289.246 162.691 289.409C161.557 289.585 160.68 289.49 160.061 289.124C159.429 288.76 159.041 288.108 158.895 287.168L158.04 281.66ZM159.487 284.827C160.781 284.626 161.793 284.426 162.524 284.225C163.243 284.026 163.791 283.734 164.169 283.351C164.548 282.979 164.688 282.47 164.588 281.824C164.493 281.214 164.253 280.795 163.868 280.567C163.47 280.342 162.887 280.288 162.119 280.408C161.57 280.493 161.07 280.696 160.62 281.015C160.158 281.337 159.812 281.766 159.583 282.301C159.343 282.85 159.279 283.485 159.391 284.205L159.487 284.827Z" fill="#5E96FF"/>
<path d="M151.034 283.392C151.043 283.329 151.045 283.243 151.039 283.132C151.005 282.503 150.707 282.031 150.146 281.715C149.573 281.399 148.811 281.267 147.862 281.319C147.011 281.365 146.361 281.567 145.91 281.925C145.46 282.296 145.25 282.758 145.28 283.313C145.304 283.745 145.458 284.076 145.742 284.308C146.014 284.541 146.351 284.708 146.752 284.81C147.142 284.925 147.667 285.027 148.327 285.115C149.087 285.222 149.699 285.337 150.163 285.46C150.628 285.596 151.03 285.822 151.368 286.137C151.707 286.453 151.892 286.906 151.924 287.498C151.965 288.263 151.691 288.902 151.1 289.416C150.51 289.93 149.611 290.22 148.402 290.285C147.613 290.328 146.953 290.234 146.421 290.003C145.889 289.772 145.496 289.466 145.24 289.084C144.973 288.715 144.828 288.327 144.806 287.92L144.811 287.66L145.735 287.61L145.748 287.851C145.77 288.245 145.969 288.618 146.347 288.968C146.712 289.332 147.438 289.484 148.523 289.426C149.571 289.369 150.252 289.153 150.565 288.777C150.866 288.402 151.006 288.005 150.983 287.586C150.964 287.229 150.825 286.945 150.566 286.737C150.308 286.528 149.99 286.372 149.613 286.269C149.238 286.178 148.719 286.082 148.058 285.982C147.298 285.863 146.673 285.736 146.183 285.601C145.694 285.467 145.273 285.236 144.922 284.909C144.57 284.582 144.379 284.129 144.347 283.549C144.293 282.538 144.604 281.786 145.282 281.291C145.948 280.798 146.873 280.519 148.056 280.455C148.956 280.406 149.698 280.509 150.28 280.761C150.85 281.015 151.27 281.339 151.538 281.732C151.794 282.126 151.933 282.508 151.953 282.878C151.961 283.026 151.967 283.137 151.971 283.211C151.962 283.286 151.958 283.329 151.959 283.342L151.034 283.392Z" fill="#5E96FF"/>
<path d="M131.591 283.505C131.624 282.74 131.818 282.087 132.175 281.546C132.519 281.005 132.975 280.598 133.543 280.325C134.11 280.065 134.739 279.95 135.43 279.979C136.207 280.012 136.89 280.226 137.479 280.622C138.055 281.03 138.494 281.598 138.797 282.328C139.099 283.058 139.23 283.922 139.187 284.921L139.175 285.199C139.133 286.198 138.936 287.049 138.585 287.75C138.222 288.452 137.736 288.975 137.128 289.32C136.507 289.677 135.808 289.838 135.031 289.805C134.328 289.776 133.706 289.595 133.163 289.263C132.609 288.942 132.183 288.486 131.887 287.892C131.59 287.311 131.459 286.62 131.493 285.818L131.543 284.634L138.242 284.918L138.248 284.77C138.301 283.537 138.063 282.581 137.536 281.904C136.996 281.226 136.282 280.868 135.394 280.83C134.604 280.797 133.94 281.009 133.402 281.469C132.851 281.927 132.556 282.619 132.517 283.544L131.591 283.505ZM135.067 288.954C135.894 288.989 136.591 288.735 137.157 288.19C137.724 287.646 138.068 286.839 138.187 285.769L132.433 285.524L132.418 285.857C132.377 286.819 132.612 287.565 133.12 288.093C133.617 288.633 134.266 288.92 135.067 288.954Z" fill="#5E96FF"/>
<path d="M110.189 285.929C110.053 286.657 110.253 287.266 110.79 287.756C111.312 288.255 112.041 288.592 112.975 288.767C113.934 288.946 114.739 288.908 115.389 288.652C116.038 288.409 116.434 287.899 116.579 287.123C116.675 286.613 116.6 286.172 116.356 285.8C116.109 285.439 115.778 285.126 115.363 284.861C114.945 284.607 114.373 284.311 113.644 283.974C112.767 283.559 112.071 283.184 111.556 282.849C111.026 282.524 110.611 282.089 110.311 281.543C109.997 281.007 109.913 280.345 110.061 279.556C110.294 278.306 110.878 277.466 111.812 277.038C112.732 276.619 113.847 276.532 115.158 276.777C116.517 277.031 117.558 277.514 118.279 278.227C118.997 278.951 119.239 279.945 119.003 281.207L118.924 281.531L117.995 281.358L118.105 280.87C118.271 279.984 118.07 279.274 117.504 278.742C116.936 278.221 116.124 277.862 115.068 277.665C112.713 277.225 111.369 277.897 111.036 279.681C110.929 280.252 111.007 280.744 111.269 281.157C111.519 281.568 111.863 281.908 112.303 282.179C112.73 282.447 113.33 282.766 114.102 283.137C114.955 283.547 115.628 283.911 116.121 284.23C116.614 284.548 117.008 284.961 117.303 285.468C117.595 285.987 117.672 286.617 117.534 287.357C117.344 288.377 116.813 289.069 115.941 289.434C115.056 289.796 114.02 289.866 112.83 289.644C111.604 289.415 110.659 288.962 109.994 288.285C109.329 287.609 109.101 286.712 109.31 285.595L109.354 285.358L110.264 285.528L110.189 285.929Z" fill="#5E96FF"/>
<path d="M102 273.143C102.182 273.095 102.393 273.081 102.631 273.102C102.862 273.108 103.084 273.143 103.296 273.208C103.84 273.373 104.227 273.671 104.457 274.102C104.687 274.533 104.704 275.074 104.506 275.724L102.547 282.174L103.539 282.476L103.291 283.291L102.299 282.989L101.103 285.781L100.518 285.603L101.395 282.715L99.2865 282.074L99.5341 281.259L101.643 281.9L103.592 275.485C103.735 275.012 103.744 274.666 103.617 274.447C103.474 274.236 103.25 274.084 102.942 273.99C102.812 273.951 102.626 273.927 102.384 273.918C102.141 273.908 101.933 273.916 101.758 273.94L102 273.143Z" fill="#5E96FF"/>
<path d="M90.4787 270.06C90.9528 269.71 91.494 269.498 92.1024 269.423C92.7108 269.348 93.3098 269.421 93.8994 269.642C94.8704 270.007 95.5524 270.579 95.9453 271.36C96.3267 272.136 96.3091 273.079 95.8927 274.188L93.7521 279.893L92.8678 279.561L94.9108 274.117C95.2621 273.18 95.3107 272.401 95.0565 271.778C94.7907 271.151 94.259 270.687 93.4613 270.388C92.9527 270.197 92.4448 270.145 91.9375 270.232C91.4303 270.318 90.9808 270.532 90.5891 270.873C90.1858 271.21 89.8866 271.638 89.6914 272.158L87.6484 277.603L86.7641 277.271L89.6399 269.607C89.783 269.225 89.6985 268.976 89.3864 268.859C89.1205 268.759 88.7968 268.743 88.4153 268.811L88.6951 268.065C89.1012 267.967 89.5123 267.996 89.9285 268.152C90.3215 268.3 90.5505 268.551 90.6155 268.905C90.6761 269.27 90.6305 269.655 90.4787 270.06Z" fill="#5E96FF"/>
<path d="M78.6438 263.92C79.74 263.264 80.9133 263.246 82.1637 263.865C83.1596 264.358 83.7894 265.131 84.0531 266.185C84.3002 267.244 84.054 268.52 83.3145 270.014L83.2241 270.197C82.7913 271.071 82.2722 271.744 81.6667 272.216C81.0556 272.698 80.4162 272.974 79.7483 273.043C79.0805 273.112 78.4312 272.99 77.8005 272.678C77.214 272.388 76.7486 272.006 76.4044 271.532C76.0436 271.065 75.829 270.552 75.7606 269.994L73.4598 274.642L72.6133 274.223L78.5296 262.272L79.0939 262.552L78.6438 263.92ZM77.1491 267.148C76.5848 268.288 76.412 269.263 76.6306 270.074C76.8326 270.89 77.3209 271.49 78.0954 271.874C78.859 272.252 79.6266 272.273 80.3983 271.939C81.17 271.605 81.8353 270.873 82.394 269.745L82.4844 269.562C83.1254 268.267 83.3531 267.209 83.1676 266.387C82.9767 265.576 82.4884 264.976 81.7027 264.587C80.906 264.193 80.1301 264.16 79.3749 264.489C78.6032 264.823 77.8941 265.643 77.2477 266.949L77.1491 267.148Z" fill="#5E96FF"/>
<path d="M66.8476 270.278L65.9235 269.695L66.4573 268.849L67.3814 269.433L66.8476 270.278ZM73.902 258.962L68.8509 266.965L68.0521 266.461L73.1032 258.458L73.902 258.962Z" fill="#5E96FF"/>
<path d="M60.6407 254.023C61.0797 253.396 61.595 252.95 62.1867 252.686C62.7683 252.415 63.3716 252.317 63.9968 252.393C64.6148 252.479 65.2071 252.72 65.7736 253.116C66.4109 253.562 66.8712 254.111 67.1544 254.761C67.4205 255.414 67.4849 256.13 67.3474 256.908C67.2099 257.686 66.8544 258.484 66.281 259.304L66.1217 259.531C65.5483 260.351 64.9247 260.962 64.2511 261.364C63.5674 261.76 62.8765 261.94 62.1786 261.903C61.4634 261.87 60.7872 261.63 60.1499 261.184C59.5733 260.781 59.1459 260.293 58.8677 259.722C58.5722 259.153 58.4594 258.539 58.5291 257.88C58.5918 257.23 58.8532 256.577 59.3133 255.919L59.993 254.948L65.4859 258.792L65.5708 258.671C66.2788 257.66 66.5928 256.726 66.5128 255.872C66.4226 255.01 66.0134 254.324 65.2851 253.814C64.6377 253.361 63.9635 253.183 63.2625 253.281C62.5514 253.371 61.9304 253.795 61.3994 254.554L60.6407 254.023ZM60.6384 260.486C61.3162 260.961 62.0404 261.121 62.8112 260.967C63.5819 260.813 64.3056 260.317 64.9822 259.48L60.2632 256.177L60.072 256.45C59.5198 257.239 59.3161 257.994 59.4608 258.713C59.5883 259.435 59.9809 260.026 60.6384 260.486Z" fill="#5E96FF"/>
<path d="M56.0896 249.021C56.1391 248.982 56.1998 248.92 56.2718 248.836C56.6801 248.356 56.7895 247.809 56.6001 247.193C56.4012 246.57 55.9399 245.95 55.216 245.334C54.5674 244.781 53.9564 244.48 53.3831 244.429C52.8017 244.388 52.3309 244.579 51.9707 245.002C51.6905 245.331 51.5738 245.678 51.6205 246.042C51.6578 246.398 51.7868 246.751 52.0075 247.102C52.2109 247.453 52.5216 247.888 52.9398 248.406C53.4171 249.008 53.7817 249.513 54.0334 249.922C54.2772 250.34 54.4132 250.78 54.4414 251.242C54.4697 251.704 54.2917 252.161 53.9074 252.612C53.4111 253.195 52.7718 253.469 51.9896 253.436C51.2074 253.402 50.3557 252.993 49.4344 252.208C48.8328 251.696 48.4187 251.173 48.192 250.639C47.9653 250.106 47.8907 249.612 47.9683 249.16C48.0284 248.708 48.1906 248.327 48.4548 248.017L48.637 247.832L49.342 248.432L49.1859 248.615C48.9297 248.916 48.8179 249.324 48.8503 249.838C48.8654 250.353 49.2865 250.963 50.1137 251.668C50.9127 252.348 51.5552 252.66 52.0412 252.604C52.5177 252.539 52.8921 252.347 53.1643 252.028C53.3965 251.755 53.4906 251.454 53.4467 251.125C53.4028 250.795 53.2798 250.464 53.0779 250.13C52.8679 249.805 52.5579 249.379 52.1477 248.851C51.6784 248.24 51.3124 247.718 51.0499 247.283C50.7873 246.849 50.6413 246.392 50.6116 245.913C50.5819 245.433 50.7552 244.973 51.1315 244.531C51.7879 243.76 52.5322 243.429 53.3642 243.538C54.1868 243.638 55.0493 244.073 55.9517 244.841C56.6379 245.425 57.1052 246.01 57.3535 246.594C57.5924 247.171 57.6737 247.694 57.5975 248.164C57.512 248.627 57.3491 248.999 57.1089 249.281C57.0129 249.394 56.9408 249.478 56.8928 249.535C56.8354 249.583 56.8026 249.612 56.7946 249.621L56.0896 249.021Z" fill="#5E96FF"/>
<path d="M35.8543 232.789C36.2059 232.478 36.612 232.276 37.0727 232.182C37.5241 232.096 37.9726 232.128 38.4182 232.278C38.8638 232.428 39.2419 232.679 39.5526 233.031C39.8632 233.383 40.0614 233.784 40.1472 234.235C40.233 234.687 40.2055 235.131 40.0647 235.569C39.9147 236.014 39.6639 236.392 39.3123 236.703C38.9607 237.014 38.5591 237.212 38.1077 237.298C37.647 237.392 37.198 237.368 36.7606 237.227C36.3232 237.087 35.9491 236.841 35.6385 236.489C35.3278 236.137 35.1255 235.731 35.0316 235.27C34.9376 234.81 34.9656 234.357 35.1157 233.911C35.2564 233.474 35.5026 233.1 35.8543 232.789Z" fill="#5E96FF"/>
<path d="M24.6034 212.594C26.0654 211.649 27.3454 211.343 28.4435 211.677C29.5416 212.011 30.4661 212.758 31.217 213.92C31.7533 214.749 32.0623 215.556 32.1437 216.342C32.2185 217.117 31.9777 217.927 31.4213 218.772C30.8582 219.606 29.8924 220.466 28.5238 221.351L28.1194 221.613C26.7508 222.498 25.5704 223.026 24.5782 223.197C23.5794 223.357 22.7419 223.245 22.0657 222.858C21.3829 222.462 20.7733 221.849 20.237 221.019C19.4794 219.848 19.1718 218.701 19.3142 217.58C19.4499 216.448 20.2643 215.4 21.7573 214.434L22.2903 215.259C21.0565 216.056 20.3803 216.898 20.2617 217.783C20.1328 218.675 20.3734 219.593 20.9835 220.537C21.6405 221.553 22.4629 222.131 23.4507 222.272C24.4282 222.419 25.7412 221.96 27.3897 220.894L28.1673 220.391C29.8159 219.325 30.7787 218.313 31.0559 217.354C31.3226 216.402 31.1275 215.418 30.4705 214.402C29.1229 212.318 27.3449 211.99 25.1364 213.418L24.6034 212.594Z" fill="#5E96FF"/>
<path d="M21.9537 198.867C22.3182 198.685 22.426 198.445 22.2769 198.146C22.15 197.892 21.9237 197.66 21.5979 197.451L22.3103 197.095C22.6747 197.299 22.9563 197.6 23.1549 197.998C23.3536 198.395 23.348 198.743 23.1381 199.041C22.9172 199.345 22.5527 199.624 22.0446 199.878C22.779 199.938 23.4084 200.162 23.9329 200.549C24.4518 200.924 24.8852 201.46 25.2329 202.156C25.6247 202.94 25.7681 203.669 25.663 204.343C25.5469 205.022 25.0581 205.577 24.1966 206.007C23.4124 206.399 22.7111 206.46 22.0927 206.189C21.4578 205.913 20.8864 205.405 20.3786 204.664C19.8542 203.919 19.2664 202.894 18.6152 201.591L17.5548 202.121C16.848 202.474 16.442 202.891 16.337 203.371C16.2154 203.846 16.3533 204.481 16.7506 205.277C17.1149 206.005 17.551 206.519 18.0589 206.817C18.5558 207.121 19.0969 207.127 19.6823 206.834L19.9474 206.702L20.3531 207.514C20.1874 207.624 20.0493 207.707 19.9389 207.762C19.2209 208.121 18.5059 208.099 17.7937 207.695C17.0649 207.287 16.4632 206.607 15.9885 205.657C15.4753 204.63 15.2988 203.766 15.4591 203.065C15.6139 202.352 16.1165 201.784 16.967 201.359L21.9537 198.867ZM19.3773 201.21C19.9623 202.381 20.4618 203.284 20.8757 203.919C21.2842 204.543 21.7286 204.977 22.2089 205.22C22.6782 205.468 23.2056 205.447 23.7909 205.154C24.3432 204.878 24.6691 204.522 24.7686 204.086C24.8625 203.639 24.7357 203.067 24.388 202.371C24.1396 201.874 23.7946 201.46 23.353 201.129C22.9058 200.786 22.3923 200.587 21.8125 200.532C21.2162 200.471 20.5922 200.603 19.9405 200.929L19.3773 201.21Z" fill="#5E96FF"/>
<path d="M18.1837 192.779C18.2458 192.768 18.3287 192.743 18.4326 192.704C19.0214 192.48 19.381 192.053 19.5114 191.423C19.6375 190.781 19.5319 190.015 19.1946 189.126C18.8923 188.33 18.502 187.771 18.0239 187.451C17.5342 187.135 17.0296 187.076 16.5101 187.273C16.1061 187.426 15.8368 187.674 15.7024 188.015C15.5635 188.345 15.5064 188.717 15.5312 189.13C15.54 189.536 15.6028 190.067 15.7195 190.722C15.8483 191.479 15.9244 192.097 15.948 192.577C15.96 193.061 15.8671 193.512 15.6693 193.931C15.4716 194.349 15.0956 194.664 14.5415 194.874C13.8258 195.146 13.1333 195.078 12.4641 194.672C11.7948 194.266 11.2455 193.497 10.8162 192.365C10.5358 191.627 10.4249 190.969 10.4833 190.392C10.5417 189.815 10.714 189.347 11.0001 188.987C11.2704 188.621 11.596 188.365 11.9769 188.221L12.2259 188.146L12.5545 189.012L12.3294 189.097C11.96 189.237 11.6656 189.54 11.4464 190.007C11.2112 190.466 11.2863 191.203 11.6719 192.219C12.0443 193.2 12.457 193.783 12.91 193.968C13.3587 194.141 13.7793 194.153 14.1718 194.004C14.5065 193.877 14.734 193.659 14.8542 193.349C14.9743 193.039 15.0264 192.689 15.0104 192.299C14.9829 191.913 14.9165 191.39 14.8113 190.73C14.6941 189.969 14.6252 189.335 14.6044 188.828C14.5836 188.321 14.6757 187.85 14.8806 187.416C15.0855 186.981 15.4593 186.661 16.0018 186.455C16.9484 186.096 17.7601 186.164 18.437 186.66C19.1094 187.145 19.6559 187.941 20.0765 189.049C20.3963 189.892 20.5242 190.629 20.4602 191.261C20.3919 191.881 20.211 192.379 19.9177 192.754C19.62 193.118 19.298 193.366 18.9517 193.497C18.8132 193.55 18.7093 193.589 18.64 193.616C18.5664 193.63 18.5238 193.64 18.5122 193.644L18.1837 192.779Z" fill="#5E96FF"/>
<path d="M12.2896 174.816C13.0277 174.613 13.7088 174.598 14.333 174.772C14.9538 174.935 15.4808 175.244 15.9139 175.701C16.3351 176.162 16.6373 176.725 16.8207 177.392C17.027 178.142 17.0318 178.858 16.8351 179.539C16.6233 180.212 16.2163 180.804 15.6142 181.316C15.0122 181.827 14.229 182.215 13.2647 182.481L12.9968 182.554C12.0325 182.82 11.1626 182.892 10.387 182.773C9.60805 182.641 8.96144 182.339 8.4471 181.866C7.91759 181.384 7.54969 180.768 7.34338 180.018C7.15673 179.339 7.13853 178.691 7.28879 178.074C7.42387 177.448 7.72861 176.903 8.203 176.439C8.66548 175.979 9.28363 175.643 10.0575 175.43L11.2003 175.115L12.9785 181.58L13.1213 181.541C14.3118 181.213 15.1489 180.695 15.6325 179.985C16.1128 179.264 16.2351 178.475 15.9993 177.618C15.7897 176.856 15.384 176.289 14.7822 175.917C14.1771 175.532 13.4281 175.463 12.5352 175.709L12.2896 174.816ZM8.16482 179.792C8.38422 180.59 8.83978 181.175 9.53149 181.548C10.2232 181.922 11.0967 182.001 12.1521 181.788L10.6245 176.234L10.3031 176.323C9.37447 176.578 8.73653 177.029 8.38924 177.675C8.02677 178.313 7.95197 179.018 8.16482 179.792Z" fill="#5E96FF"/>
<path d="M3.45269 155.093C2.71749 155.184 2.19793 155.559 1.89402 156.219C1.57633 156.868 1.47596 157.664 1.5929 158.608C1.71288 159.576 1.99312 160.331 2.43362 160.874C2.86187 161.418 3.4681 161.641 4.25231 161.544C4.76695 161.48 5.16457 161.276 5.44519 160.93C5.71356 160.585 5.91154 160.175 6.03915 159.699C6.1545 159.224 6.26236 158.589 6.36273 157.793C6.49238 156.831 6.63867 156.054 6.80162 155.461C6.9508 154.858 7.24003 154.331 7.66931 153.88C8.08482 153.418 8.6908 153.137 9.48727 153.038C10.7494 152.882 11.7261 153.184 12.4176 153.944C13.0952 154.694 13.5161 155.73 13.6801 157.054C13.8502 158.426 13.705 159.564 13.2447 160.467C12.772 161.371 11.8985 161.903 10.6242 162.061L10.2911 162.083L10.1749 161.146L10.6734 161.103C11.5679 160.992 12.1832 160.586 12.5194 159.885C12.8432 159.185 12.9391 158.303 12.807 157.237C12.5123 154.859 11.4644 153.782 9.66315 154.006C9.08724 154.077 8.64212 154.3 8.32778 154.675C8.01192 155.038 7.79171 155.469 7.66714 155.97C7.54105 156.458 7.41861 157.127 7.2998 157.975C7.16712 158.912 7.02392 159.664 6.87018 160.231C6.71645 160.797 6.44256 161.298 6.04852 161.732C5.64223 162.168 5.06536 162.432 4.31791 162.525C3.28863 162.653 2.46807 162.356 1.85623 161.636C1.24288 160.903 0.861779 159.936 0.712942 158.736C0.559549 157.498 0.704585 156.46 1.14805 155.621C1.59151 154.782 2.3769 154.293 3.5042 154.153L3.74314 154.124L3.85705 155.043L3.45269 155.093Z" fill="#5E96FF"/>
<path d="M13.083 143.839C13.1848 143.998 13.2627 144.194 13.3166 144.427C13.3826 144.648 13.4178 144.87 13.4221 145.092C13.433 145.66 13.269 146.12 12.93 146.472C12.5911 146.825 12.0821 147.007 11.4031 147.021L4.66287 147.151L4.68289 148.188L3.8311 148.204L3.81108 147.167L0.786352 146.892L0.774557 146.281L3.79285 146.223L3.75032 144.019L4.60211 144.003L4.64464 146.206L11.3479 146.077C11.8416 146.067 12.1732 145.968 12.3424 145.78C12.4991 145.579 12.5743 145.318 12.5681 144.997C12.5655 144.862 12.5311 144.677 12.4648 144.444C12.3986 144.21 12.3269 144.014 12.2497 143.855L13.083 143.839Z" fill="#5E96FF"/>
<path d="M12.5269 131.146C13.004 131.491 13.3708 131.942 13.6272 132.499C13.8836 133.056 13.996 133.649 13.9644 134.278C13.9124 135.314 13.5743 136.137 12.9502 136.749C12.3267 137.348 11.4231 137.618 10.2392 137.558L4.15363 137.253L4.20099 136.31L10.0091 136.601C11.008 136.651 11.7655 136.461 12.2817 136.029C12.7985 135.585 13.0782 134.938 13.1209 134.087C13.1482 133.544 13.0435 133.045 12.8068 132.588C12.5701 132.131 12.2298 131.768 11.786 131.498C11.3427 131.216 10.8436 131.061 10.2887 131.033L4.48053 130.742L4.52789 129.798L12.7037 130.209C13.1106 130.229 13.3225 130.073 13.3392 129.74C13.3534 129.457 13.2703 129.143 13.0897 128.8L13.8851 128.84C14.102 129.197 14.1994 129.598 14.1771 130.042C14.156 130.461 13.9867 130.756 13.6691 130.925C13.3392 131.094 12.9585 131.167 12.5269 131.146Z" fill="#5E96FF"/>
<path d="M14.7304 118.051C15.689 118.895 16.064 120.007 15.8552 121.386C15.6889 122.485 15.1442 123.321 14.2209 123.893C13.2873 124.451 11.9965 124.605 10.3484 124.356L10.147 124.325C9.18253 124.179 8.38342 123.89 7.74965 123.457C7.10367 123.022 6.64615 122.497 6.3771 121.882C6.10804 121.266 6.02617 120.611 6.13147 119.915C6.22938 119.268 6.45142 118.708 6.79759 118.236C7.1334 117.75 7.55635 117.39 8.06644 117.155L2.93904 116.379L3.08037 115.445L16.2651 117.44L16.1709 118.063L14.7304 118.051ZM11.2006 117.61C9.94315 117.42 8.96156 117.552 8.25582 118.007C7.53971 118.449 7.117 119.096 6.98768 119.951C6.86021 120.793 7.07324 121.531 7.62678 122.164C8.18031 122.798 9.07969 123.208 10.3249 123.397L10.5263 123.427C11.9547 123.643 13.0321 123.538 13.7586 123.111C14.4728 122.682 14.8955 122.034 15.0267 121.167C15.1597 120.288 14.9546 119.539 14.4115 118.92C13.8579 118.287 12.8609 117.861 11.4203 117.643L11.2006 117.61Z" fill="#5E96FF"/>
<path d="M5.10467 108.523L5.37846 107.465L6.34667 107.716L6.07289 108.774L5.10467 108.523ZM18.0327 111.792L8.87057 109.421L9.10723 108.507L18.2694 110.878L18.0327 111.792Z" fill="#5E96FF"/>
<path d="M18.6549 97.8297C19.3856 98.0577 19.9666 98.4136 20.3976 98.8974C20.8324 99.3694 21.1085 99.9147 21.2258 100.533C21.3314 101.148 21.2812 101.786 21.0752 102.446C20.8435 103.188 20.4607 103.793 19.9269 104.261C19.3849 104.712 18.7225 104.991 17.9396 105.095C17.1567 105.2 16.2878 105.104 15.3331 104.806L15.0679 104.723C14.1132 104.425 13.3419 104.016 12.7539 103.497C12.1696 102.965 11.7889 102.361 11.6119 101.685C11.4267 100.993 11.45 100.276 11.6818 99.5339C11.8914 98.8621 12.2263 98.3069 12.6865 97.8685C13.1386 97.4146 13.6894 97.1209 14.339 96.9873C14.9768 96.85 15.6788 96.9009 16.4449 97.14L17.5764 97.4931L15.5792 103.893L15.7206 103.937C16.8992 104.305 17.8837 104.321 18.6739 103.986C19.4678 103.639 19.9971 103.041 20.2619 102.192C20.4973 101.438 20.4624 100.741 20.1573 100.103C19.8557 99.4526 19.263 98.9895 18.379 98.7137L18.6549 97.8297ZM12.495 99.7877C12.2486 100.577 12.3155 101.316 12.6959 102.004C13.0762 102.692 13.7681 103.231 14.7714 103.622L16.4873 98.1233L16.169 98.024C15.2497 97.7371 14.4693 97.7717 13.8279 98.1277C13.1784 98.4682 12.7341 99.0216 12.495 99.7877Z" fill="#5E96FF"/>
<path d="M21.968 92.0676C22.0202 92.1028 22.0975 92.1419 22.2 92.1848C22.7809 92.4279 23.3357 92.3656 23.8643 91.998C24.3978 91.6189 24.848 90.9909 25.2151 90.1139C25.5441 89.328 25.6454 88.6543 25.519 88.0928C25.3812 87.5265 25.0561 87.1361 24.5436 86.9216C24.1449 86.7547 23.7793 86.7489 23.4466 86.9041C23.1187 87.048 22.8215 87.2783 22.5551 87.5951C22.282 87.8957 21.9622 88.324 21.5956 88.88C21.1681 89.5176 20.7979 90.0184 20.4848 90.3827C20.1603 90.7421 19.7824 91.0055 19.3509 91.1729C18.9194 91.3403 18.4304 91.3096 17.8837 91.0808C17.1775 90.7852 16.7215 90.2597 16.5157 89.5043C16.3099 88.7489 16.4405 87.8131 16.9077 86.697C17.2128 85.968 17.5851 85.4144 18.0245 85.0362C18.4639 84.6579 18.9111 84.4369 19.3662 84.373C19.8146 84.293 20.2268 84.3317 20.6026 84.489L20.8346 84.6062L20.4771 85.4604L20.255 85.3675C19.8905 85.2149 19.4683 85.2323 18.9884 85.4195C18.5018 85.5907 18.0488 86.1774 17.6293 87.1797C17.224 88.1478 17.1222 88.8547 17.3238 89.3005C17.5301 89.7349 17.8269 90.0331 18.2142 90.1952C18.5445 90.3334 18.8598 90.3316 19.1602 90.1896C19.4605 90.0476 19.7392 89.8296 19.9961 89.5356C20.2416 89.2368 20.5534 88.8118 20.9313 88.2606C21.3702 87.6278 21.7566 87.1203 22.0906 86.7381C22.4246 86.3559 22.8154 86.0778 23.263 85.9037C23.7106 85.7297 24.2021 85.7547 24.7374 85.9788C25.6714 86.3697 26.2132 86.978 26.3629 87.8035C26.5173 88.6178 26.3657 89.5716 25.908 90.665C25.56 91.4964 25.1454 92.1193 24.6641 92.5335C24.1876 92.9364 23.7138 93.1731 23.2426 93.2436C22.7762 93.3026 22.3721 93.2607 22.0304 93.1177C21.8937 93.0605 21.7912 93.0175 21.7229 92.9889C21.6593 92.9489 21.6218 92.9266 21.6104 92.9218L21.968 92.0676Z" fill="#5E96FF"/>
<path d="M31.33 67.7768C31.7322 68.0184 32.0475 68.3446 32.276 68.7555C32.4939 69.1601 32.5985 69.5974 32.5898 70.0675C32.5811 70.5376 32.4559 70.9737 32.2143 71.3759C31.9727 71.7781 31.6496 72.0882 31.245 72.3061C30.8405 72.5239 30.4085 72.6317 29.949 72.6294C29.4789 72.6206 29.0427 72.4955 28.6405 72.2539C28.2383 72.0123 27.9283 71.6892 27.7104 71.2846C27.4819 70.8737 27.3689 70.4385 27.3712 69.979C27.3736 69.5195 27.4956 69.0887 27.7372 68.6865C27.9788 68.2843 28.305 67.9689 28.716 67.7404C29.1269 67.512 29.5674 67.4021 30.0374 67.4108C30.4969 67.4132 30.9278 67.5351 31.33 67.7768Z" fill="#5E96FF"/>
<path d="M47.0961 51.0087C48.4378 52.118 49.1148 53.2465 49.1272 54.3942C49.1395 55.5419 48.7051 56.6486 47.8239 57.7144C47.1945 58.4756 46.5176 59.0134 45.7932 59.3276C45.0766 59.6323 44.2317 59.6467 43.2584 59.3706C42.2929 59.085 41.1822 58.423 39.9261 57.3844L39.555 57.0776C38.2989 56.0391 37.4399 55.0725 36.978 54.1779C36.5239 53.2738 36.3792 52.4413 36.5439 51.6802C36.7164 50.9097 37.1173 50.1438 37.7467 49.3825C38.6358 48.3072 39.6364 47.6686 40.7486 47.4667C41.8686 47.2553 43.1137 47.716 44.484 48.849L43.8585 49.6055C42.7262 48.6692 41.72 48.2779 40.84 48.4315C39.9505 48.5772 39.1478 49.083 38.4319 49.949C37.6608 50.8815 37.3571 51.8399 37.5205 52.8242C37.6745 53.8006 38.508 54.9142 40.021 56.1652L40.7347 56.7553C42.2477 58.0062 43.5029 58.6195 44.5003 58.5951C45.4883 58.5628 46.3678 58.0804 47.1388 57.1479C48.7202 55.2352 48.4975 53.441 46.4706 51.7652L47.0961 51.0087Z" fill="#5E96FF"/>
<path d="M59.4955 44.1459C59.7794 44.4381 60.0409 44.4681 60.28 44.2358C60.4837 44.038 60.6363 43.752 60.7378 43.3781L61.2927 43.9493C61.2081 44.3585 61.0064 44.7179 60.6876 45.0276C60.3688 45.3373 60.0355 45.4372 59.6878 45.3274C59.3316 45.2087 58.9556 44.9457 58.5598 44.5383C58.724 45.2567 58.7012 45.9243 58.4914 46.5412C58.2905 47.1495 57.911 47.7246 57.3531 48.2666C56.7242 48.8774 56.0729 49.2347 55.3991 49.3384C54.7166 49.4332 54.0399 49.1353 53.3689 48.4444C52.7581 47.8156 52.4881 47.1656 52.559 46.4943C52.6301 45.8055 52.9415 45.1071 53.4932 44.3991C54.0451 43.6737 54.8435 42.8034 55.8886 41.7883L55.0628 40.938C54.5122 40.3712 53.9921 40.1104 53.5024 40.1557C53.0131 40.1835 52.4495 40.5071 51.8119 41.1265C51.2273 41.6943 50.8697 42.2654 50.7392 42.8398C50.6 43.4053 50.7583 43.9228 51.2143 44.3922L51.4208 44.6048L50.7698 45.2371C50.6144 45.1126 50.4937 45.0061 50.4077 44.9175C49.8485 44.3418 49.6533 43.6535 49.8222 42.8527C49.9912 42.0344 50.4566 41.2553 51.2183 40.5154C52.0419 39.7154 52.8122 39.2856 53.529 39.2262C54.2548 39.1581 54.9488 39.4651 55.6112 40.1471L59.4955 44.1459ZM56.4822 42.3994C55.5434 43.3113 54.834 44.0606 54.354 44.6474C53.8828 45.2256 53.604 45.7804 53.5177 46.3117C53.4228 46.8342 53.6034 47.3302 54.0593 47.7996C54.4894 48.2424 54.9274 48.4453 55.3733 48.4081C55.828 48.3623 56.3343 48.0684 56.8923 47.5264C57.2909 47.1393 57.5812 46.6851 57.7635 46.1639C57.9545 45.634 57.9887 45.0844 57.866 44.5151C57.7436 43.9283 57.4286 43.3736 56.921 42.8511L56.4822 42.3994Z" fill="#5E96FF"/>
<path d="M63.8136 38.9479C63.8424 39.0039 63.8914 39.0753 63.9607 39.1622C64.353 39.6548 64.8694 39.867 65.5097 39.7989C66.1597 39.7231 66.8565 39.389 67.6001 38.7967C68.2665 38.2658 68.6793 37.7239 68.8386 37.1708C68.9902 36.6081 68.8928 36.1094 68.5467 35.6748C68.2774 35.3368 67.9596 35.1558 67.5933 35.1319C67.2366 35.1003 66.8653 35.1593 66.4793 35.309C66.0953 35.4412 65.6089 35.6629 65.0202 35.9741C64.3387 36.3275 63.7732 36.5885 63.3236 36.7573C62.8662 36.9164 62.4081 36.9656 61.9493 36.9048C61.4905 36.8441 61.0765 36.582 60.7072 36.1184C60.2303 35.5197 60.0832 34.8396 60.266 34.0783C60.4489 33.317 61.0135 32.5594 61.9599 31.8055C62.578 31.3131 63.1706 31.0068 63.7378 30.8865C64.305 30.7662 64.8034 30.7875 65.2331 30.9504C65.6647 31.0959 66.0074 31.328 66.2613 31.6467L66.4084 31.861L65.6841 32.438L65.5341 32.2497C65.2879 31.9406 64.9094 31.7528 64.3985 31.6862C63.8896 31.6022 63.2102 31.8987 62.3604 32.5757C61.5395 33.2296 61.1102 33.8005 61.0726 34.2883C61.0446 34.7684 61.1614 35.1726 61.4229 35.5009C61.646 35.781 61.9234 35.931 62.255 35.951C62.5867 35.971 62.9358 35.9138 63.3024 35.7796C63.6614 35.6357 64.1391 35.413 64.7356 35.1115C65.4247 34.7678 66.0076 34.5087 66.4842 34.3342C66.9609 34.1597 67.4373 34.1038 67.9135 34.1665C68.3896 34.2292 68.8085 34.4875 69.1701 34.9414C69.8009 35.7333 69.9834 36.5272 69.7176 37.323C69.4614 38.1112 68.8698 38.8745 67.9426 39.6131C67.2376 40.1746 66.5745 40.5213 65.9534 40.6531C65.3418 40.7772 64.8126 40.7568 64.3655 40.5919C63.9282 40.4194 63.5941 40.1883 63.3633 39.8986C63.271 39.7827 63.2018 39.6958 63.1556 39.6378C63.1191 39.5722 63.097 39.5345 63.0893 39.5249L63.8136 38.9479Z" fill="#5E96FF"/>
<path d="M79.4519 27.6003C79.8699 28.2416 80.091 28.886 80.1151 29.5335C80.1496 30.1743 80.015 30.7705 79.7113 31.3222C79.4009 31.8635 78.9561 32.3229 78.3769 32.7005C77.7252 33.1253 77.0448 33.3477 76.3357 33.3677C75.6302 33.3707 74.9423 33.1633 74.272 32.7454C73.6016 32.3275 72.9934 31.6996 72.4473 30.8618L72.2956 30.6291C71.7494 29.7912 71.4153 28.9847 71.2932 28.2095C71.1814 27.4275 71.2726 26.7195 71.5669 26.0856C71.8647 25.4346 72.3394 24.8967 72.9911 24.4719C73.5807 24.0876 74.1925 23.873 74.8265 23.8282C75.4641 23.7663 76.0758 23.8908 76.6617 24.2016C77.2407 24.5021 77.7494 24.9886 78.1877 25.6609L78.8349 26.6539L73.2183 30.315L73.2992 30.4391C73.9735 31.4735 74.722 32.1131 75.5448 32.3579C76.378 32.5959 77.1669 32.4722 77.9116 31.9868C78.5736 31.5553 78.9904 30.9962 79.1619 30.3096C79.3437 29.6163 79.1818 28.8818 78.6761 28.106L79.4519 27.6003ZM73.4563 25.1856C72.7633 25.6374 72.3443 26.2495 72.1993 27.0219C72.0543 27.7944 72.2441 28.6508 72.7686 29.5912L77.5939 26.4458L77.4119 26.1666C76.886 25.3598 76.2624 24.8893 75.5412 24.7551C74.8236 24.6039 74.1286 24.7474 73.4563 25.1856Z" fill="#5E96FF"/>
<path d="M95.4306 13.1874C95.1193 12.5152 94.6031 12.1351 93.882 12.0472C93.167 11.9429 92.3782 12.0905 91.5154 12.4901C90.6303 12.9 89.9967 13.3975 89.6146 13.9827C89.2272 14.5566 89.1996 15.2021 89.5317 15.9192C89.7496 16.3897 90.0661 16.7058 90.4811 16.8674C90.8909 17.0178 91.342 17.081 91.8343 17.0571C92.3215 17.022 92.9595 16.9306 93.7484 16.783C94.7037 16.6128 95.4883 16.5148 96.1023 16.489C96.7223 16.4468 97.3127 16.5611 97.8736 16.8321C98.4405 17.0866 98.8925 17.578 99.2298 18.3063C99.7642 19.4603 99.775 20.4826 99.2622 21.3732C98.7554 22.2474 97.897 22.9647 96.6869 23.5251C95.4321 24.1062 94.3044 24.3154 93.3038 24.1529C92.2981 23.9791 91.5254 23.3096 90.9858 22.1444L90.8625 21.8341L91.7197 21.4372L91.913 21.8987C92.2917 22.7166 92.8662 23.1785 93.6365 23.2845C94.4015 23.3792 95.2714 23.2009 96.2461 22.7495C98.4197 21.7429 99.1251 20.4161 98.3624 18.7692C98.1186 18.2426 97.7701 17.8869 97.3172 17.702C96.8754 17.512 96.3971 17.4342 95.8823 17.4685C95.3788 17.4976 94.7049 17.5851 93.8609 17.731C92.928 17.8909 92.1684 17.9842 91.582 18.0108C90.9957 18.0374 90.4354 17.9295 89.9013 17.687C89.362 17.4333 88.9341 16.9647 88.6176 16.2813C88.1818 15.3401 88.2134 14.4682 88.7126 13.6656C89.2229 12.8578 90.0271 12.1996 91.1251 11.6912C92.2567 11.1671 93.2895 10.9881 94.2237 11.1542C95.1578 11.3203 95.8636 11.9188 96.3409 12.9495L96.4421 13.168L95.6018 13.5572L95.4306 13.1874Z" fill="#5E96FF"/>
<path d="M109.461 18.812C109.341 18.9569 109.177 19.0902 108.971 19.2119C108.78 19.3414 108.579 19.4417 108.369 19.5127C107.83 19.6941 107.342 19.6762 106.904 19.459C106.466 19.2419 106.139 18.8115 105.922 18.168L103.768 11.7797L102.785 12.111L102.513 11.3037L103.496 10.9724L102.848 8.00518L103.427 7.80995L104.391 10.6707L106.48 9.96665L106.752 10.774L104.663 11.478L106.805 17.8312C106.963 18.2992 107.157 18.5855 107.388 18.6902C107.626 18.7792 107.898 18.7724 108.202 18.6698C108.33 18.6265 108.496 18.538 108.699 18.4046C108.901 18.2712 109.067 18.1437 109.195 18.0222L109.461 18.812Z" fill="#5E96FF"/>
<path d="M120.397 14.6708C120.215 15.2307 119.897 15.7179 119.446 16.1324C118.994 16.5469 118.464 16.8354 117.856 16.9978C116.854 17.2652 115.966 17.1955 115.193 16.7884C114.432 16.3782 113.898 15.6005 113.592 14.4553L112.021 8.56811L112.934 8.32451L114.433 13.9433C114.691 14.9095 115.105 15.5724 115.673 15.9317C116.254 16.2879 116.956 16.3561 117.779 16.1364C118.304 15.9963 118.748 15.7437 119.11 15.3785C119.473 15.0134 119.715 14.5783 119.835 14.0732C119.968 13.5649 119.963 13.0424 119.819 12.5056L118.32 6.88682L119.232 6.64322L121.343 14.5524C121.449 14.9461 121.662 15.0999 121.984 15.014C122.259 14.9407 122.531 14.7657 122.802 14.4888L123.008 15.2583C122.734 15.5741 122.383 15.7893 121.953 15.904C121.548 16.0122 121.216 15.9411 120.957 15.6906C120.695 15.4282 120.509 15.0883 120.397 14.6708Z" fill="#5E96FF"/>
<path d="M134.044 12.6867C133.53 13.8562 132.584 14.5507 131.207 14.77C130.109 14.9447 129.148 14.6789 128.323 13.9725C127.508 13.2521 126.97 12.0688 126.708 10.4226L126.676 10.2214C126.522 9.25814 126.556 8.40888 126.776 7.67363C126.995 6.92619 127.357 6.33102 127.861 5.88813C128.366 5.44523 128.966 5.16847 129.661 5.05783C130.307 4.95496 130.907 4.9969 131.462 5.18364C132.027 5.35624 132.499 5.64996 132.878 6.06479L132.063 0.943496L132.995 0.795014L135.092 13.9641L134.47 14.063L134.044 12.6867ZM133.394 9.18953C133.194 7.93359 132.77 7.03836 132.123 6.50383C131.485 5.95516 130.74 5.74877 129.886 5.88463C129.045 6.01856 128.406 6.44525 127.971 7.16472C127.535 7.88419 127.416 8.86579 127.614 10.1095L127.646 10.3107C127.873 11.7374 128.3 12.7321 128.928 13.2949C129.553 13.8455 130.298 14.0519 131.164 13.9141C132.042 13.7743 132.694 13.3518 133.119 12.6465C133.555 11.927 133.658 10.8479 133.429 9.40901L133.394 9.18953Z" fill="#5E96FF"/>
<path d="M139.775 0.635595L140.866 0.572388L140.924 1.57083L139.833 1.63403L139.775 0.635595ZM140.621 13.9438L140.073 4.49563L141.016 4.441L141.564 13.8892L140.621 13.9438Z" fill="#5E96FF"/>
<path d="M154.505 10.2569C154.51 11.0224 154.349 11.6842 154.02 12.2424C153.703 12.8005 153.268 13.2298 152.715 13.5304C152.161 13.8187 151.539 13.9655 150.848 13.9708C150.07 13.9768 149.377 13.797 148.769 13.4312C148.173 13.0531 147.706 12.5072 147.367 11.7937C147.028 11.0801 146.855 10.2233 146.847 9.22325L146.845 8.94545C146.837 7.94536 146.991 7.08603 147.307 6.36744C147.635 5.64876 148.093 5.10193 148.683 4.72695C149.285 4.33953 149.975 4.14282 150.753 4.13682C151.457 4.13138 152.088 4.28086 152.646 4.58523C153.216 4.87717 153.664 5.31205 153.989 5.88986C154.315 6.45533 154.481 7.13934 154.487 7.94187L154.496 9.12715L147.792 9.17892L147.793 9.32707C147.802 10.5617 148.087 11.5041 148.648 12.1542C149.221 12.8042 149.952 13.1258 150.841 13.1189C151.631 13.1128 152.284 12.867 152.799 12.3815C153.326 11.8958 153.586 11.19 153.579 10.264L154.505 10.2569ZM150.76 4.98874C149.932 4.99513 149.249 5.28439 148.711 5.85653C148.172 6.42868 147.869 7.25211 147.804 8.32685L153.563 8.28238L153.561 7.94902C153.553 6.98598 153.282 6.2534 152.747 5.75128C152.225 5.23672 151.562 4.98254 150.76 4.98874Z" fill="#5E96FF"/>
<path d="M161.671 11.7044C161.653 11.7648 161.639 11.8504 161.629 11.961C161.574 12.5883 161.801 13.0981 162.311 13.4906C162.834 13.8842 163.569 14.1231 164.516 14.2073C165.365 14.2828 166.037 14.1753 166.534 13.8848C167.032 13.582 167.306 13.1538 167.355 12.6004C167.393 12.17 167.288 11.8197 167.039 11.5497C166.803 11.2808 166.494 11.0673 166.111 10.9093C165.742 10.7401 165.237 10.565 164.596 10.3841C163.859 10.1698 163.269 9.96861 162.827 9.78056C162.386 9.58021 162.021 9.29979 161.731 8.93929C161.44 8.57879 161.322 8.10338 161.374 7.51305C161.442 6.75054 161.805 6.15681 162.462 5.73185C163.12 5.3069 164.051 5.14801 165.256 5.2552C166.044 5.3252 166.684 5.5123 167.177 5.81651C167.671 6.12072 168.017 6.47999 168.216 6.89432C168.428 7.29745 168.516 7.70194 168.48 8.10779L168.438 8.36442L167.516 8.28239L167.537 8.04257C167.572 7.64901 167.428 7.2519 167.104 6.85123C166.794 6.43935 166.097 6.18528 165.015 6.08903C163.97 5.99606 163.265 6.11314 162.901 6.44027C162.55 6.76849 162.355 7.14167 162.318 7.55982C162.287 7.91648 162.384 8.21643 162.61 8.45968C162.836 8.70293 163.129 8.90245 163.487 9.05825C163.846 9.20175 164.345 9.37013 164.985 9.56338C165.721 9.78998 166.322 10.0045 166.787 10.2071C167.252 10.4096 167.636 10.6978 167.937 11.0717C168.239 11.4456 168.364 11.9216 168.312 12.4996C168.223 13.5081 167.807 14.2087 167.066 14.6014C166.336 14.9952 165.381 15.1396 164.201 15.0346C163.303 14.9547 162.584 14.7482 162.043 14.415C161.515 14.083 161.146 13.703 160.936 13.2753C160.738 12.8487 160.656 12.4509 160.689 12.0819C160.702 11.9344 160.712 11.8237 160.718 11.7499C160.737 11.6772 160.747 11.6347 160.748 11.6224L161.671 11.7044Z" fill="#5E96FF"/>
<path d="M187.041 13.1029C186.934 13.5597 186.719 13.9596 186.398 14.3027C186.079 14.6338 185.695 14.867 185.245 15.0023C184.794 15.1376 184.341 15.1517 183.884 15.0446C183.427 14.9374 183.033 14.7245 182.702 14.4059C182.371 14.0872 182.137 13.7088 181.998 13.2705C181.863 12.8203 181.849 12.3668 181.956 11.91C182.063 11.4532 182.276 11.0592 182.595 10.7282C182.916 10.3851 183.296 10.1444 183.734 10.0063C184.173 9.86814 184.62 9.85265 185.077 9.95981C185.534 10.067 185.934 10.2813 186.277 10.6027C186.62 10.9242 186.859 11.3101 186.994 11.7603C187.133 12.1986 187.148 12.6461 187.041 13.1029Z" fill="#5E96FF"/>
<path d="M208.62 23.351C207.966 24.9644 207.094 25.9496 206.003 26.3068C204.912 26.6639 203.726 26.5827 202.444 26.0631C201.529 25.692 200.812 25.2083 200.295 24.612C199.789 24.0204 199.521 23.2189 199.491 22.2076C199.473 21.201 199.77 19.9425 200.382 18.4321L200.563 17.9859C201.176 16.4755 201.839 15.3654 202.553 14.6557C203.278 13.9506 204.029 13.5621 204.804 13.49C205.591 13.4226 206.442 13.5745 207.357 13.9457C208.65 14.4699 209.56 15.2319 210.088 16.2318C210.626 17.2363 210.562 18.5624 209.894 20.2101L208.984 19.8412C209.536 18.4796 209.606 17.4023 209.195 16.6094C208.789 15.805 208.065 15.1917 207.023 14.7695C205.902 14.3149 204.897 14.3136 204.007 14.7657C203.122 15.2063 202.311 16.3363 201.573 18.1557L201.226 19.0138C200.488 20.8332 200.281 22.2148 200.604 23.1586C200.932 24.0911 201.657 24.7846 202.778 25.2393C205.078 26.1717 206.722 25.4194 207.711 22.9822L208.62 23.351Z" fill="#5E96FF"/>
<path d="M218.431 32.8809C218.238 33.2399 218.289 33.4982 218.583 33.656C218.833 33.7904 219.151 33.8495 219.539 33.8332L219.162 34.5348C218.746 34.5778 218.342 34.4941 217.951 34.2838C217.559 34.0734 217.363 33.7859 217.363 33.4213C217.369 33.0458 217.506 32.6079 217.775 32.1076C217.139 32.4812 216.496 32.6611 215.845 32.6475C215.204 32.6397 214.541 32.4518 213.856 32.0836C213.084 31.6687 212.546 31.1558 212.244 30.5448C211.947 29.9229 212.027 29.1877 212.483 28.3394C212.897 27.5671 213.436 27.1134 214.097 26.9781C214.775 26.8378 215.535 26.9237 216.376 27.2357C217.235 27.5426 218.306 28.0408 219.589 28.7304L220.15 27.6862C220.524 26.9901 220.615 26.4155 220.424 25.9625C220.25 25.5044 219.771 25.0649 218.988 24.6442C218.27 24.2585 217.618 24.0902 217.031 24.1393C216.45 24.1774 216.004 24.4847 215.695 25.0612L215.554 25.3222L214.755 24.8927C214.827 24.707 214.892 24.5598 214.95 24.451C215.33 23.744 215.927 23.35 216.742 23.269C217.573 23.1829 218.456 23.3912 219.391 23.8937C220.403 24.4372 221.045 25.0416 221.318 25.707C221.603 26.3783 221.52 27.1326 221.07 27.9701L218.431 32.8809ZM219.186 29.4809C218.033 28.8615 217.104 28.4116 216.4 28.1313C215.706 27.8568 215.093 27.7587 214.561 27.8369C214.034 27.9043 213.616 28.2262 213.306 28.8027C213.014 29.3465 212.953 29.8253 213.123 30.2391C213.304 30.6588 213.737 31.0527 214.422 31.4208C214.912 31.6838 215.432 31.8234 215.984 31.8396C216.547 31.8616 217.081 31.7282 217.587 31.4392C218.109 31.1452 218.543 30.6773 218.888 30.0356L219.186 29.4809Z" fill="#5E96FF"/>
<path d="M224.798 35.5075C224.753 35.5518 224.7 35.62 224.638 35.7122C224.286 36.2347 224.24 36.7909 224.497 37.3811C224.765 37.9781 225.294 38.542 226.082 39.0728C226.789 39.5484 227.43 39.7789 228.006 39.7643C228.588 39.7394 229.034 39.4965 229.344 39.0355C229.586 38.677 229.663 38.3194 229.575 37.9629C229.498 37.6133 229.33 37.277 229.071 36.9539C228.829 36.6276 228.471 36.2305 227.997 35.7627C227.455 35.2193 227.036 34.7586 226.74 34.3806C226.45 33.9924 226.265 33.5704 226.185 33.1146C226.105 32.6588 226.23 32.185 226.561 31.6933C226.989 31.0582 227.593 30.7133 228.374 30.6584C229.155 30.6036 230.047 30.9139 231.051 31.5895C231.707 32.0306 232.177 32.5035 232.463 33.0082C232.748 33.5128 232.878 33.9945 232.852 34.4533C232.843 34.9087 232.725 35.3054 232.498 35.6435L232.337 35.8482L231.569 35.3312L231.704 35.1315C231.924 34.8037 231.989 34.3862 231.899 33.879C231.826 33.3684 231.339 32.8098 230.437 32.2032C229.566 31.6173 228.893 31.3798 228.416 31.4907C227.95 31.6086 227.6 31.8417 227.365 32.1899C227.166 32.487 227.106 32.7967 227.187 33.1189C227.268 33.4412 227.427 33.7569 227.666 34.0661C227.911 34.3651 228.267 34.7536 228.734 35.2317C229.269 35.7853 229.692 36.2632 230.002 36.6652C230.312 37.0672 230.508 37.5046 230.592 37.9776C230.676 38.4505 230.555 38.9277 230.231 39.4092C229.666 40.2491 228.964 40.6622 228.125 40.6483C227.296 40.6413 226.39 40.3069 225.407 39.6452C224.659 39.142 224.129 38.614 223.816 38.0613C223.514 37.5155 223.374 37.0047 223.397 36.5288C223.429 36.0597 223.549 35.6716 223.756 35.3643C223.839 35.2413 223.901 35.1491 223.942 35.0877C223.994 35.0331 224.023 35.0007 224.03 34.9905L224.798 35.5075Z" fill="#5E96FF"/>
<path d="M240.334 47.0161C239.849 47.6079 239.301 48.0128 238.69 48.2308C238.09 48.4566 237.481 48.5078 236.863 48.3844C236.254 48.2514 235.682 47.9656 235.147 47.527C234.546 47.0335 234.129 46.4517 233.896 45.7815C233.681 45.1097 233.671 44.3912 233.868 43.6262C234.065 42.8611 234.48 42.092 235.115 41.3189L235.291 41.1042C235.925 40.3311 236.594 39.7696 237.296 39.4197C238.008 39.0776 238.711 38.9514 239.404 39.041C240.115 39.129 240.77 39.4197 241.372 39.9132C241.916 40.3596 242.305 40.8784 242.538 41.4695C242.789 42.0589 242.855 42.6797 242.735 43.332C242.623 43.9747 242.312 44.6062 241.803 45.2266L241.051 46.1428L235.868 41.8895L235.774 42.0041C234.991 42.9585 234.607 43.8649 234.621 44.7232C234.645 45.5894 235 46.3044 235.688 46.8684C236.298 47.3697 236.957 47.5988 237.663 47.5555C238.379 47.5201 239.031 47.1445 239.618 46.4287L240.334 47.0161ZM240.831 40.5717C240.192 40.0469 239.482 39.8317 238.702 39.9261C237.921 40.0205 237.162 40.4594 236.423 41.2427L240.876 44.8968L241.087 44.6391C241.698 43.8946 241.959 43.1583 241.87 42.4302C241.798 41.7004 241.452 41.0809 240.831 40.5717Z" fill="#5E96FF"/>
<path d="M258.74 57.7196C259.286 57.2191 259.492 56.6119 259.357 55.8982C259.24 55.1852 258.86 54.4783 258.217 53.7773C257.558 53.0582 256.892 52.6053 256.219 52.4186C255.554 52.2236 254.931 52.393 254.348 52.9269C253.966 53.2772 253.761 53.6746 253.733 54.1191C253.714 54.5552 253.79 55.0042 253.962 55.4662C254.143 55.9198 254.424 56.5001 254.804 57.207C255.256 58.0657 255.587 58.7836 255.798 59.3609C256.026 59.9388 256.096 60.5362 256.008 61.1528C255.937 61.7702 255.606 62.35 255.015 62.8922C254.077 63.7514 253.106 64.0717 252.102 63.8531C251.115 63.6353 250.171 63.0348 249.27 62.0517C248.336 61.0321 247.795 60.021 247.646 59.0183C247.507 58.0072 247.91 57.0679 248.857 56.2004L249.115 55.9888L249.754 56.6852L249.372 57.0093C248.708 57.6183 248.442 58.3058 248.575 59.0719C248.716 59.8296 249.15 60.6045 249.876 61.3964C251.494 63.1624 252.972 63.4323 254.31 62.206C254.738 61.814 254.972 61.3741 255.01 60.8864C255.057 60.4078 254.987 59.9284 254.798 59.4483C254.617 58.9773 254.33 58.3617 253.935 57.6017C253.499 56.7612 253.18 56.0656 252.977 55.5149C252.774 54.9643 252.707 54.3977 252.776 53.8152C252.854 53.2243 253.171 52.6745 253.726 52.1656C254.491 51.4649 255.331 51.2307 256.247 51.4629C257.172 51.7043 258.043 52.271 258.86 53.1631C259.703 54.0825 260.187 55.0124 260.312 55.953C260.437 56.8935 260.08 57.7475 259.243 58.5149L259.065 58.6776L258.44 57.9949L258.74 57.7196Z" fill="#5E96FF"/>
<path d="M257.456 72.5083C257.281 72.4379 257.104 72.323 256.925 72.1637C256.743 72.0216 256.586 71.8611 256.454 71.6824C256.117 71.2255 255.984 70.7554 256.057 70.2719C256.13 69.7884 256.439 69.3449 256.985 68.9414L262.408 64.936L261.792 64.1018L262.477 63.5956L263.093 64.4299L265.719 62.9044L266.083 63.396L263.654 65.1896L264.964 66.9624L264.279 67.4686L262.969 65.6958L257.576 69.6792C257.179 69.9726 256.966 70.2452 256.937 70.4968C256.925 70.7511 257.015 71.0074 257.205 71.2656C257.286 71.3748 257.421 71.5055 257.61 71.6575C257.799 71.8095 257.971 71.9281 258.126 72.0132L257.456 72.5083Z" fill="#5E96FF"/>
<path d="M265.03 82.1049C264.441 82.1013 263.88 81.9476 263.348 81.6436C262.816 81.3397 262.379 80.9227 262.039 80.3926C261.479 79.5196 261.276 78.6529 261.428 77.7925C261.587 76.9425 262.165 76.1975 263.163 75.5576L268.291 72.2677L268.801 73.0628L263.906 76.2026C263.065 76.7426 262.559 77.3382 262.39 77.9894C262.228 78.6509 262.377 79.3403 262.837 80.0574C263.13 80.5147 263.506 80.8604 263.964 81.0945C264.422 81.3287 264.91 81.4264 265.428 81.3876C265.952 81.3592 266.449 81.195 266.916 80.895L271.811 77.7551L272.321 78.5502L265.431 82.97C265.088 83.1899 265.006 83.4402 265.186 83.7208C265.34 83.9599 265.59 84.1664 265.936 84.3403L265.265 84.7703C264.881 84.606 264.569 84.3367 264.329 83.9626C264.103 83.6092 264.069 83.2713 264.229 82.9487C264.399 82.6195 264.666 82.3382 265.03 82.1049Z" fill="#5E96FF"/>
<path d="M270.791 93.8908C269.52 93.7618 268.568 93.0757 267.936 91.8323C267.431 90.8419 267.388 89.8455 267.806 88.8431C268.241 87.846 269.201 86.9694 270.687 86.2133L270.868 86.1209C271.737 85.6784 272.556 85.4489 273.323 85.4324C274.102 85.4103 274.779 85.5711 275.356 85.9148C275.933 86.2585 276.381 86.744 276.7 87.3712C276.997 87.9544 277.142 88.5387 277.135 89.1241C277.145 89.7149 277.011 90.2542 276.732 90.7421L281.354 88.3898L281.782 89.2316L269.898 95.2804L269.613 94.7192L270.791 93.8908ZM273.918 92.1952C275.052 91.6184 275.773 90.9395 276.082 90.1587C276.408 89.3833 276.375 88.6105 275.983 87.8402C275.596 87.081 274.994 86.6049 274.175 86.412C273.356 86.219 272.386 86.4082 271.264 86.9795L271.082 87.0719C269.795 87.7272 268.98 88.4398 268.637 89.2098C268.306 89.9742 268.339 90.7471 268.737 91.5283C269.14 92.3206 269.743 92.8105 270.545 92.998C271.363 93.1909 272.422 92.9569 273.72 92.2961L273.918 92.1952Z" fill="#5E96FF"/>
<path d="M284.298 96.348L284.689 97.3681L283.756 97.7265L283.364 96.7063L284.298 96.348ZM271.875 101.195L280.71 97.8041L281.049 98.686L272.213 102.077L271.875 101.195Z" fill="#5E96FF"/>
<path d="M279.464 112.866C278.736 113.105 278.057 113.153 277.425 113.009C276.797 112.878 276.255 112.595 275.8 112.159C275.357 111.72 275.027 111.172 274.811 110.515C274.568 109.776 274.529 109.062 274.691 108.371C274.87 107.689 275.247 107.077 275.824 106.537C276.4 105.997 277.163 105.57 278.113 105.258L278.377 105.171C279.327 104.859 280.192 104.743 280.973 104.825C281.757 104.918 282.418 105.188 282.955 105.635C283.508 106.091 283.905 106.688 284.148 107.427C284.368 108.095 284.418 108.742 284.298 109.366C284.194 109.998 283.917 110.557 283.465 111.043C283.026 111.526 282.425 111.892 281.663 112.143L280.537 112.513L278.443 106.144L278.302 106.19C277.13 106.575 276.319 107.134 275.871 107.867C275.426 108.61 275.343 109.405 275.621 110.249C275.867 111 276.301 111.546 276.92 111.889C277.543 112.243 278.295 112.275 279.174 111.986L279.464 112.866ZM283.339 107.693C283.081 106.907 282.597 106.344 281.888 106.006C281.178 105.667 280.302 105.63 279.258 105.895L281.057 111.367L281.374 111.263C282.289 110.962 282.904 110.481 283.219 109.818C283.549 109.164 283.59 108.455 283.339 107.693Z" fill="#5E96FF"/>
<path d="M280.158 119.668C280.095 119.67 280.01 119.683 279.901 119.707C279.287 119.846 278.872 120.219 278.655 120.825C278.44 121.444 278.438 122.216 278.648 123.144C278.836 123.974 279.145 124.582 279.574 124.966C280.015 125.347 280.506 125.476 281.048 125.353C281.469 125.258 281.77 125.05 281.951 124.731C282.135 124.423 282.243 124.063 282.276 123.651C282.324 123.247 282.336 122.713 282.312 122.048C282.29 121.28 282.301 120.657 282.344 120.179C282.4 119.698 282.555 119.264 282.809 118.878C283.063 118.491 283.479 118.232 284.057 118.101C284.804 117.932 285.48 118.095 286.086 118.591C286.692 119.086 287.129 119.924 287.396 121.104C287.571 121.875 287.589 122.542 287.451 123.105C287.312 123.668 287.077 124.108 286.743 124.424C286.424 124.749 286.066 124.957 285.669 125.047L285.412 125.086L285.207 124.183L285.442 124.13C285.827 124.042 286.161 123.783 286.443 123.352C286.74 122.93 286.769 122.19 286.528 121.13C286.297 120.107 285.969 119.472 285.546 119.226C285.126 118.992 284.711 118.921 284.302 119.014C283.953 119.093 283.697 119.278 283.535 119.568C283.373 119.857 283.272 120.197 283.234 120.585C283.207 120.971 283.2 121.498 283.212 122.166C283.222 122.936 283.202 123.574 283.152 124.079C283.102 124.584 282.945 125.037 282.681 125.439C282.418 125.84 282.003 126.105 281.437 126.234C280.45 126.457 279.655 126.276 279.054 125.691C278.456 125.118 278.026 124.253 277.764 123.097C277.565 122.218 277.541 121.47 277.692 120.853C277.847 120.249 278.095 119.781 278.438 119.45C278.783 119.131 279.137 118.931 279.498 118.849C279.643 118.816 279.751 118.792 279.823 118.775C279.898 118.771 279.942 118.768 279.954 118.765L280.158 119.668Z" fill="#5E96FF"/>
<path d="M286.638 145.165C286.171 145.201 285.725 145.118 285.3 144.916C284.888 144.712 284.55 144.416 284.284 144.028C284.019 143.64 283.868 143.212 283.832 142.744C283.796 142.276 283.88 141.837 284.083 141.425C284.286 141.013 284.576 140.674 284.952 140.41C285.34 140.145 285.768 139.994 286.236 139.958C286.704 139.922 287.144 140.005 287.556 140.209C287.98 140.411 288.324 140.7 288.589 141.076C288.853 141.452 289.003 141.874 289.039 142.342C289.075 142.81 288.992 143.256 288.79 143.68C288.587 144.104 288.292 144.449 287.904 144.714C287.528 144.979 287.106 145.129 286.638 145.165Z" fill="#5E96FF"/>
</svg>
