<svg width="292" height="290" viewBox="0 0 292 290" fill="none" xmlns="http://www.w3.org/2000/svg">
<path d="M283.335 164.067C281.596 163.987 280.376 163.492 279.677 162.582C278.977 161.672 278.66 160.526 278.724 159.144C278.769 158.158 278.988 157.321 279.378 156.635C279.767 155.961 280.434 155.441 281.378 155.077C282.321 154.725 283.607 154.587 285.235 154.663L285.716 154.685C287.344 154.76 288.612 155.017 289.518 155.455C290.425 155.904 291.041 156.483 291.366 157.19C291.691 157.91 291.831 158.763 291.785 159.75C291.721 161.143 291.305 162.255 290.537 163.085C289.769 163.927 288.496 164.307 286.72 164.224L286.766 163.244C288.233 163.312 289.273 163.02 289.884 162.369C290.508 161.718 290.845 160.831 290.897 159.709C290.953 158.5 290.62 157.551 289.898 156.863C289.188 156.175 287.853 155.785 285.892 155.694L284.967 155.651C283.006 155.561 281.634 155.825 280.851 156.443C280.081 157.063 279.668 157.977 279.612 159.186C279.497 161.665 280.753 162.965 283.38 163.087L283.335 164.067Z" fill="#C4CDDF"/>
<path d="M277.58 176.703C277.178 176.641 276.951 176.774 276.9 177.104C276.856 177.384 276.907 177.705 277.051 178.064L276.264 177.942C276.085 177.565 276.03 177.156 276.098 176.717C276.166 176.278 276.372 175.997 276.716 175.876C277.072 175.756 277.53 175.74 278.091 175.827C277.528 175.352 277.144 174.805 276.94 174.186C276.735 173.58 276.692 172.892 276.811 172.123C276.945 171.257 277.25 170.58 277.726 170.091C278.214 169.605 278.934 169.435 279.885 169.583C280.752 169.717 281.359 170.074 281.706 170.653C282.064 171.246 282.236 171.991 282.221 172.888C282.217 173.8 282.103 174.975 281.88 176.415L283.051 176.597C283.832 176.718 284.404 176.613 284.768 176.282C285.142 175.966 285.397 175.368 285.534 174.489C285.659 173.684 285.6 173.013 285.359 172.476C285.13 171.94 284.692 171.622 284.045 171.522L283.752 171.477L283.892 170.58C284.091 170.586 284.251 170.598 284.373 170.617C285.166 170.74 285.736 171.172 286.084 171.913C286.441 172.669 286.538 173.571 286.375 174.62C286.199 175.755 285.843 176.562 285.306 177.041C284.768 177.532 284.029 177.704 283.089 177.559L277.58 176.703ZM281.038 176.284C281.239 174.991 281.354 173.966 281.384 173.208C281.413 172.463 281.301 171.852 281.05 171.376C280.812 170.901 280.369 170.614 279.722 170.514C279.112 170.419 278.64 170.52 278.307 170.819C277.971 171.129 277.744 171.668 277.624 172.437C277.539 172.986 277.581 173.523 277.749 174.049C277.915 174.587 278.219 175.047 278.659 175.428C279.11 175.823 279.696 176.076 280.416 176.188L281.038 176.284Z" fill="#C4CDDF"/>
<path d="M277.049 184.125C276.993 184.098 276.911 184.07 276.803 184.041C276.194 183.881 275.654 184.02 275.181 184.458C274.706 184.907 274.347 185.592 274.105 186.511C273.889 187.335 273.882 188.016 274.085 188.555C274.3 189.096 274.676 189.438 275.214 189.579C275.632 189.689 275.995 189.644 276.302 189.444C276.607 189.256 276.869 188.987 277.089 188.636C277.318 188.3 277.575 187.832 277.861 187.23C278.196 186.539 278.493 185.992 278.752 185.588C279.024 185.187 279.361 184.873 279.765 184.648C280.169 184.422 280.658 184.384 281.231 184.535C281.972 184.73 282.496 185.187 282.805 185.906C283.114 186.626 283.114 187.571 282.807 188.741C282.606 189.505 282.314 190.105 281.931 190.541C281.549 190.976 281.137 191.257 280.695 191.384C280.262 191.525 279.848 191.544 279.454 191.441L279.208 191.357L279.444 190.461L279.677 190.522C280.059 190.623 280.474 190.547 280.924 190.295C281.382 190.058 281.749 189.414 282.025 188.363C282.292 187.348 282.295 186.634 282.033 186.22C281.768 185.819 281.433 185.565 281.027 185.458C280.681 185.367 280.369 185.413 280.091 185.595C279.813 185.777 279.568 186.032 279.354 186.359C279.152 186.689 278.903 187.153 278.605 187.751C278.258 188.439 277.946 188.995 277.668 189.42C277.391 189.845 277.042 190.175 276.623 190.409C276.204 190.644 275.714 190.687 275.153 190.54C274.173 190.282 273.552 189.755 273.289 188.958C273.023 188.174 273.041 187.208 273.342 186.062C273.572 185.19 273.896 184.515 274.315 184.038C274.731 183.573 275.167 183.273 275.624 183.138C276.078 183.014 276.484 183 276.842 183.094C276.985 183.132 277.093 183.16 277.164 183.179C277.233 183.21 277.273 183.226 277.285 183.23L277.049 184.125Z" fill="#C4CDDF"/>
<path d="M271.401 202.211C270.682 201.947 270.119 201.563 269.712 201.059C269.301 200.566 269.052 200.008 268.965 199.384C268.89 198.765 268.971 198.131 269.209 197.482C269.477 196.751 269.889 196.166 270.445 195.725C271.008 195.301 271.684 195.055 272.471 194.989C273.258 194.922 274.121 195.061 275.06 195.405L275.321 195.501C276.26 195.845 277.01 196.291 277.572 196.839C278.13 197.399 278.48 198.021 278.624 198.705C278.775 199.404 278.717 200.12 278.449 200.85C278.207 201.511 277.845 202.049 277.364 202.464C276.89 202.895 276.326 203.162 275.67 203.263C275.026 203.369 274.328 203.284 273.574 203.008L272.461 202.6L274.77 196.305L274.63 196.254C273.471 195.829 272.489 195.765 271.683 196.061C270.873 196.369 270.315 196.94 270.009 197.775C269.737 198.517 269.738 199.214 270.011 199.867C270.281 200.531 270.85 201.022 271.72 201.341L271.401 202.211ZM277.649 200.557C277.934 199.78 277.903 199.039 277.557 198.333C277.211 197.628 276.546 197.055 275.563 196.616L273.58 202.023L273.893 202.138C274.797 202.47 275.578 202.473 276.237 202.149C276.902 201.841 277.373 201.31 277.649 200.557Z" fill="#C4CDDF"/>
<path d="M267.123 223.418C267.774 223.771 268.415 223.768 269.046 223.407C269.681 223.064 270.226 222.474 270.679 221.638C271.144 220.781 271.355 220.003 271.311 219.305C271.279 218.614 270.915 218.08 270.221 217.703C269.765 217.456 269.322 217.392 268.893 217.51C268.474 217.634 268.075 217.853 267.694 218.166C267.325 218.486 266.868 218.94 266.323 219.53C265.659 220.237 265.088 220.785 264.612 221.172C264.14 221.576 263.598 221.838 262.986 221.955C262.38 222.09 261.723 221.966 261.018 221.584C259.9 220.978 259.28 220.164 259.159 219.144C259.043 218.14 259.303 217.052 259.939 215.88C260.598 214.664 261.377 213.822 262.276 213.355C263.186 212.893 264.206 212.968 265.335 213.58L265.619 213.755L265.169 214.586L264.738 214.331C263.946 213.902 263.209 213.875 262.528 214.25C261.858 214.631 261.267 215.294 260.755 216.238C259.614 218.344 259.841 219.829 261.437 220.694C261.947 220.971 262.439 221.048 262.913 220.925C263.38 220.814 263.81 220.59 264.203 220.255C264.589 219.931 265.077 219.458 265.667 218.837C266.319 218.151 266.873 217.623 267.327 217.251C267.781 216.879 268.295 216.631 268.868 216.506C269.452 216.388 270.075 216.508 270.737 216.867C271.649 217.361 272.145 218.079 272.224 219.021C272.297 219.973 272.046 220.982 271.469 222.045C270.875 223.142 270.154 223.902 269.305 224.327C268.457 224.752 267.534 224.694 266.535 224.153L266.323 224.038L266.765 223.224L267.123 223.418Z" fill="#C4CDDF"/>
<path d="M252.537 227.247C252.547 227.059 252.598 226.854 252.69 226.633C252.765 226.415 252.866 226.215 252.992 226.032C253.314 225.564 253.716 225.286 254.197 225.197C254.678 225.109 255.198 225.257 255.757 225.642L261.308 229.467L261.897 228.613L262.598 229.097L262.01 229.951L264.307 231.938L263.96 232.441L261.474 230.728L260.223 232.543L259.522 232.06L260.772 230.245L255.251 226.441C254.845 226.161 254.518 226.048 254.27 226.103C254.026 226.174 253.813 226.342 253.631 226.606C253.554 226.718 253.474 226.888 253.392 227.117C253.309 227.345 253.253 227.546 253.223 227.72L252.537 227.247Z" fill="#C4CDDF"/>
<path d="M246.034 237.355C245.846 236.797 245.809 236.216 245.923 235.614C246.037 235.012 246.29 234.464 246.68 233.97C247.323 233.156 248.077 232.681 248.94 232.545C249.795 232.419 250.688 232.723 251.618 233.458L256.397 237.238L255.812 237.979L251.25 234.372C250.465 233.751 249.738 233.467 249.067 233.519C248.388 233.581 247.785 233.946 247.257 234.614C246.92 235.041 246.715 235.508 246.643 236.018C246.57 236.527 246.637 237.021 246.842 237.498C247.04 237.984 247.356 238.4 247.792 238.745L252.354 242.352L251.768 243.092L245.347 238.015C245.027 237.763 244.764 237.767 244.557 238.028C244.381 238.251 244.267 238.555 244.215 238.939L243.591 238.445C243.621 238.028 243.774 237.645 244.05 237.297C244.31 236.967 244.619 236.826 244.976 236.872C245.342 236.926 245.695 237.087 246.034 237.355Z" fill="#C4CDDF"/>
<path d="M236.661 246.737C236.367 245.494 236.705 244.37 237.673 243.366C238.445 242.566 239.372 242.2 240.456 242.267C241.541 242.353 242.683 242.974 243.883 244.131L244.029 244.272C244.732 244.949 245.216 245.648 245.482 246.368C245.757 247.096 245.827 247.789 245.69 248.446C245.554 249.104 245.241 249.686 244.753 250.192C244.298 250.663 243.793 250.991 243.238 251.176C242.683 251.378 242.129 251.428 241.577 251.324L245.31 254.924L244.654 255.604L235.056 246.347L235.493 245.894L236.661 246.737ZM239.285 249.139C240.2 250.022 241.077 250.482 241.916 250.519C242.755 250.574 243.475 250.29 244.075 249.668C244.666 249.054 244.92 248.329 244.834 247.493C244.749 246.656 244.254 245.8 243.347 244.926L243.2 244.785C242.161 243.782 241.221 243.245 240.381 243.173C239.55 243.109 238.831 243.393 238.222 244.024C237.605 244.664 237.339 245.393 237.424 246.213C237.509 247.049 238.076 247.974 239.125 248.985L239.285 249.139Z" fill="#C4CDDF"/>
<path d="M239.149 259.927L238.315 260.633L237.669 259.869L238.504 259.163L239.149 259.927ZM230.484 249.791L236.594 257.019L235.872 257.629L229.762 250.401L230.484 249.791Z" fill="#C4CDDF"/>
<path d="M221.666 260.994C221.202 260.385 220.935 259.758 220.863 259.114C220.782 258.478 220.873 257.873 221.135 257.301C221.405 256.739 221.815 256.248 222.365 255.829C222.984 255.358 223.647 255.086 224.352 255.014C225.056 254.96 225.757 255.117 226.456 255.484C227.155 255.852 227.808 256.434 228.413 257.23L228.582 257.451C229.188 258.246 229.58 259.026 229.758 259.79C229.927 260.562 229.888 261.275 229.64 261.929C229.391 262.6 228.957 263.171 228.338 263.642C227.778 264.068 227.184 264.327 226.554 264.418C225.923 264.527 225.304 264.447 224.697 264.18C224.097 263.922 223.555 263.474 223.068 262.836L222.35 261.893L227.684 257.831L227.595 257.713C226.847 256.731 226.053 256.148 225.215 255.964C224.367 255.787 223.589 255.968 222.881 256.507C222.253 256.986 221.878 257.574 221.757 258.271C221.626 258.976 221.842 259.696 222.403 260.433L221.666 260.994ZM227.822 262.964C228.48 262.463 228.853 261.822 228.941 261.041C229.029 260.26 228.778 259.42 228.186 258.52L223.603 262.01L223.805 262.275C224.389 263.041 225.045 263.465 225.774 263.546C226.501 263.644 227.183 263.45 227.822 262.964Z" fill="#C4CDDF"/>
<path d="M215.614 263.789C215.592 263.73 215.551 263.654 215.492 263.56C215.158 263.026 214.669 262.757 214.025 262.752C213.371 262.754 212.641 263.007 211.835 263.511C211.113 263.963 210.641 264.455 210.421 264.987C210.206 265.529 210.247 266.035 210.541 266.506C210.771 266.872 211.066 267.088 211.427 267.153C211.778 267.225 212.154 267.208 212.554 267.103C212.951 267.015 213.459 266.85 214.079 266.608C214.796 266.334 215.388 266.138 215.853 266.021C216.326 265.915 216.787 265.918 217.236 266.03C217.685 266.142 218.066 266.45 218.381 266.952C218.787 267.601 218.856 268.293 218.588 269.029C218.321 269.765 217.674 270.453 216.648 271.095C215.978 271.515 215.355 271.752 214.778 271.808C214.201 271.863 213.708 271.785 213.299 271.575C212.887 271.382 212.573 271.112 212.357 270.767L212.235 270.537L213.02 270.046L213.147 270.25C213.357 270.585 213.712 270.814 214.212 270.938C214.708 271.079 215.417 270.861 216.338 270.285C217.227 269.728 217.718 269.209 217.811 268.729C217.893 268.255 217.823 267.84 217.6 267.485C217.41 267.181 217.151 267.001 216.824 266.943C216.497 266.886 216.143 266.903 215.764 266.995C215.391 267.097 214.891 267.265 214.264 267.497C213.541 267.76 212.932 267.952 212.439 268.071C211.946 268.191 211.466 268.192 211 268.076C210.534 267.96 210.147 267.656 209.839 267.164C209.302 266.306 209.21 265.497 209.564 264.736C209.908 263.982 210.582 263.29 211.587 262.661C212.351 262.183 213.049 261.914 213.681 261.853C214.303 261.799 214.826 261.879 215.252 262.093C215.667 262.314 215.973 262.582 216.169 262.896C216.248 263.021 216.307 263.115 216.346 263.178C216.375 263.248 216.393 263.287 216.399 263.298L215.614 263.789Z" fill="#C4CDDF"/>
<path d="M193.916 278.201C193.727 277.771 193.657 277.323 193.708 276.855C193.763 276.399 193.93 275.982 194.208 275.603C194.487 275.224 194.84 274.94 195.27 274.75C195.699 274.561 196.142 274.494 196.598 274.55C197.054 274.605 197.469 274.766 197.843 275.033C198.222 275.311 198.506 275.665 198.695 276.094C198.885 276.524 198.952 276.967 198.896 277.423C198.846 277.89 198.687 278.311 198.42 278.685C198.153 279.059 197.805 279.34 197.376 279.53C196.946 279.719 196.498 279.788 196.031 279.738C195.563 279.688 195.14 279.523 194.761 279.245C194.387 278.978 194.105 278.63 193.916 278.201Z" fill="#C4CDDF"/>
<path d="M171.151 282.788C170.696 281.108 170.794 279.796 171.447 278.851C172.099 277.907 173.092 277.254 174.427 276.892C175.381 276.634 176.244 276.586 177.017 276.747C177.778 276.912 178.476 277.388 179.111 278.175C179.735 278.965 180.26 280.147 180.686 281.72L180.812 282.185C181.238 283.758 181.382 285.043 181.243 286.04C181.092 287.041 180.729 287.804 180.156 288.331C179.57 288.86 178.801 289.254 177.847 289.513C176.501 289.878 175.315 289.822 174.29 289.344C173.253 288.871 172.503 287.776 172.038 286.06L172.985 285.803C173.369 287.221 173.965 288.121 174.772 288.504C175.583 288.898 176.53 288.948 177.615 288.655C178.783 288.338 179.584 287.731 180.018 286.833C180.456 285.947 180.418 284.556 179.905 282.661L179.663 281.767C179.149 279.873 178.478 278.647 177.65 278.091C176.824 277.548 175.828 277.434 174.66 277.75C172.264 278.399 171.411 279.993 172.098 282.532L171.151 282.788Z" fill="#C4CDDF"/>
<path d="M157.386 281.087C157.323 280.685 157.127 280.509 156.798 280.56C156.517 280.604 156.228 280.748 155.928 280.995L155.806 280.208C156.112 279.923 156.484 279.747 156.924 279.678C157.363 279.61 157.692 279.721 157.913 280.012C158.134 280.315 158.289 280.747 158.376 281.308C158.658 280.627 159.063 280.096 159.591 279.714C160.106 279.334 160.749 279.085 161.517 278.965C162.383 278.831 163.121 278.916 163.731 279.221C164.343 279.539 164.722 280.173 164.87 281.125C165.005 281.991 164.849 282.678 164.403 283.184C163.946 283.705 163.288 284.094 162.429 284.353C161.559 284.625 160.404 284.873 158.964 285.097L159.146 286.268C159.267 287.049 159.541 287.562 159.966 287.809C160.382 288.069 161.029 288.131 161.907 287.995C162.712 287.87 163.334 287.611 163.773 287.218C164.214 286.837 164.384 286.323 164.283 285.677L164.238 285.384L165.135 285.245C165.189 285.436 165.226 285.593 165.245 285.715C165.368 286.508 165.129 287.182 164.528 287.738C163.917 288.307 163.087 288.674 162.038 288.837C160.903 289.013 160.026 288.918 159.407 288.552C158.776 288.187 158.387 287.535 158.241 286.596L157.386 281.087ZM158.834 284.255C160.127 284.054 161.139 283.853 161.87 283.652C162.589 283.453 163.137 283.162 163.515 282.778C163.895 282.407 164.034 281.898 163.934 281.251C163.839 280.641 163.599 280.223 163.214 279.995C162.817 279.769 162.234 279.716 161.465 279.835C160.916 279.921 160.416 280.123 159.966 280.443C159.504 280.765 159.158 281.193 158.929 281.729C158.689 282.278 158.625 282.913 158.737 283.633L158.834 284.255Z" fill="#C4CDDF"/>
<path d="M150.381 282.819C150.39 282.757 150.391 282.67 150.385 282.559C150.351 281.93 150.054 281.458 149.492 281.142C148.919 280.827 148.157 280.695 147.208 280.746C146.357 280.792 145.707 280.995 145.256 281.353C144.806 281.723 144.597 282.186 144.627 282.741C144.65 283.172 144.804 283.504 145.088 283.736C145.361 283.969 145.697 284.136 146.099 284.238C146.488 284.353 147.013 284.454 147.673 284.542C148.433 284.649 149.045 284.765 149.509 284.888C149.974 285.024 150.376 285.249 150.715 285.565C151.053 285.88 151.238 286.334 151.27 286.926C151.312 287.69 151.037 288.329 150.447 288.844C149.856 289.358 148.957 289.648 147.749 289.713C146.96 289.756 146.299 289.661 145.767 289.43C145.235 289.2 144.842 288.893 144.586 288.511C144.319 288.142 144.174 287.755 144.152 287.348L144.157 287.088L145.081 287.038L145.094 287.278C145.116 287.673 145.315 288.045 145.693 288.396C146.059 288.759 146.784 288.912 147.869 288.853C148.917 288.796 149.598 288.58 149.911 288.205C150.213 287.83 150.352 287.433 150.329 287.014C150.31 286.656 150.171 286.373 149.912 286.165C149.654 285.956 149.336 285.8 148.96 285.697C148.584 285.606 148.065 285.51 147.405 285.41C146.644 285.29 146.019 285.163 145.529 285.029C145.04 284.895 144.619 284.664 144.268 284.337C143.916 284.01 143.725 283.556 143.693 282.977C143.639 281.966 143.95 281.213 144.629 280.719C145.294 280.225 146.219 279.947 147.403 279.883C148.303 279.834 149.044 279.936 149.626 280.189C150.196 280.443 150.616 280.766 150.884 281.16C151.141 281.554 151.279 281.936 151.299 282.306C151.307 282.454 151.313 282.565 151.317 282.639C151.308 282.713 151.305 282.757 151.305 282.769L150.381 282.819Z" fill="#C4CDDF"/>
<path d="M130.938 282.933C130.97 282.168 131.165 281.515 131.521 280.974C131.866 280.432 132.322 280.025 132.889 279.753C133.456 279.493 134.085 279.377 134.776 279.407C135.553 279.44 136.236 279.654 136.825 280.05C137.401 280.457 137.84 281.026 138.143 281.756C138.446 282.485 138.576 283.35 138.533 284.349L138.522 284.626C138.479 285.626 138.282 286.476 137.931 287.178C137.568 287.879 137.082 288.402 136.474 288.747C135.854 289.104 135.155 289.266 134.377 289.233C133.674 289.203 133.052 289.022 132.51 288.69C131.955 288.37 131.529 287.913 131.233 287.32C130.937 286.739 130.805 286.047 130.839 285.245L130.89 284.061L137.588 284.346L137.594 284.198C137.647 282.964 137.409 282.009 136.882 281.331C136.342 280.653 135.628 280.296 134.74 280.258C133.951 280.224 133.287 280.437 132.748 280.896C132.197 281.355 131.902 282.047 131.863 282.972L130.938 282.933ZM134.414 288.382C135.24 288.417 135.937 288.162 136.504 287.618C137.071 287.073 137.414 286.266 137.533 285.196L131.779 284.952L131.765 285.285C131.724 286.247 131.958 286.992 132.467 287.521C132.963 288.061 133.612 288.348 134.414 288.382Z" fill="#C4CDDF"/>
<path d="M109.535 285.357C109.399 286.085 109.6 286.694 110.136 287.183C110.658 287.683 111.387 288.02 112.321 288.194C113.28 288.374 114.085 288.335 114.736 288.08C115.384 287.837 115.781 287.327 115.926 286.55C116.021 286.04 115.946 285.599 115.702 285.227C115.455 284.867 115.124 284.554 114.709 284.288C114.292 284.034 113.719 283.739 112.99 283.402C112.113 282.987 111.417 282.612 110.902 282.277C110.372 281.952 109.957 281.517 109.658 280.971C109.343 280.435 109.26 279.772 109.407 278.983C109.64 277.733 110.224 276.894 111.158 276.465C112.078 276.047 113.193 275.96 114.504 276.205C115.864 276.459 116.904 276.942 117.625 277.654C118.344 278.379 118.585 279.372 118.349 280.635L118.27 280.959L117.341 280.786L117.451 280.297C117.617 279.411 117.417 278.702 116.85 278.169C116.282 277.648 115.47 277.29 114.414 277.092C112.059 276.653 110.715 277.325 110.382 279.109C110.276 279.679 110.353 280.171 110.615 280.584C110.865 280.995 111.21 281.336 111.649 281.606C112.076 281.875 112.676 282.194 113.448 282.564C114.301 282.975 114.974 283.339 115.467 283.657C115.961 283.976 116.355 284.388 116.649 284.895C116.942 285.415 117.019 286.045 116.88 286.785C116.69 287.805 116.159 288.497 115.287 288.861C114.403 289.224 113.366 289.294 112.176 289.072C110.951 288.843 110.005 288.39 109.34 287.713C108.675 287.036 108.447 286.139 108.656 285.023L108.7 284.786L109.61 284.956L109.535 285.357Z" fill="#C4CDDF"/>
<path d="M101.346 272.57C101.528 272.523 101.739 272.509 101.978 272.53C102.208 272.536 102.43 272.571 102.643 272.635C103.186 272.8 103.573 273.098 103.803 273.53C104.033 273.961 104.05 274.502 103.852 275.151L101.893 281.602L102.885 281.903L102.638 282.718L101.645 282.417L100.449 285.209L99.864 285.031L100.741 282.142L98.6327 281.502L98.8803 280.687L100.989 281.327L102.938 274.912C103.082 274.44 103.09 274.094 102.963 273.875C102.82 273.664 102.596 273.511 102.289 273.418C102.159 273.379 101.972 273.354 101.73 273.345C101.488 273.336 101.279 273.344 101.104 273.368L101.346 272.57Z" fill="#C4CDDF"/>
<path d="M89.8249 269.488C90.299 269.138 90.8402 268.926 91.4486 268.851C92.057 268.776 92.656 268.849 93.2456 269.07C94.2166 269.434 94.8986 270.007 95.2915 270.787C95.6729 271.563 95.6553 272.506 95.2389 273.616L93.0983 279.321L92.214 278.989L94.257 273.544C94.6083 272.608 94.6569 271.828 94.4027 271.205C94.1369 270.578 93.6052 270.115 92.8075 269.816C92.2989 269.625 91.791 269.573 91.2837 269.659C90.7764 269.746 90.327 269.96 89.9353 270.301C89.532 270.637 89.2328 271.066 89.0376 271.586L86.9946 277.031L86.1103 276.699L88.9861 269.034C89.1292 268.653 89.0447 268.404 88.7326 268.287C88.4667 268.187 88.143 268.171 87.7615 268.239L88.0413 267.493C88.4474 267.395 88.8585 267.424 89.2747 267.58C89.6677 267.727 89.8967 267.978 89.9617 268.332C90.0223 268.698 89.9767 269.083 89.8249 269.488Z" fill="#C4CDDF"/>
<path d="M77.99 263.348C79.0862 262.692 80.2595 262.673 81.5099 263.292C82.5058 263.785 83.1356 264.559 83.3993 265.612C83.6464 266.671 83.4002 267.948 82.6607 269.442L82.5703 269.624C82.1375 270.499 81.6184 271.172 81.0128 271.643C80.4018 272.126 79.7624 272.402 79.0945 272.471C78.4267 272.54 77.7774 272.418 77.1466 272.106C76.5602 271.815 76.0948 271.434 75.7506 270.96C75.3898 270.492 75.1752 269.979 75.1068 269.422L72.806 274.069L71.9595 273.65L77.8758 261.7L78.4401 261.979L77.99 263.348ZM76.4953 266.576C75.931 267.715 75.7582 268.691 75.9768 269.501C76.1788 270.318 76.6671 270.918 77.4416 271.301C78.2051 271.679 78.9728 271.701 79.7445 271.367C80.5162 271.032 81.1815 270.301 81.7402 269.172L81.8306 268.99C82.4716 267.695 82.6993 266.637 82.5138 265.815C82.3229 265.004 81.8346 264.404 81.0489 264.015C80.2522 263.62 79.4763 263.587 78.7211 263.916C77.9494 264.251 77.2403 265.071 76.5939 266.376L76.4953 266.576Z" fill="#C4CDDF"/>
<path d="M66.1938 269.706L65.2697 269.123L65.8035 268.277L66.7276 268.86L66.1938 269.706ZM73.2482 258.39L68.1971 266.393L67.3983 265.889L72.4494 257.886L73.2482 258.39Z" fill="#C4CDDF"/>
<path d="M59.9869 253.45C60.4259 252.823 60.9412 252.378 61.5329 252.113C62.1145 251.842 62.7178 251.745 63.343 251.82C63.961 251.906 64.5533 252.148 65.1198 252.544C65.7571 252.99 66.2173 253.538 66.5006 254.189C66.7667 254.842 66.831 255.558 66.6936 256.335C66.5561 257.113 66.2006 257.912 65.6272 258.731L65.4679 258.959C64.8944 259.778 64.2709 260.389 63.5973 260.792C62.9136 261.188 62.2227 261.367 61.5248 261.331C60.8096 261.298 60.1334 261.058 59.4961 260.612C58.9195 260.208 58.4921 259.721 58.2139 259.149C57.9184 258.581 57.8056 257.967 57.8753 257.307C57.938 256.658 58.1994 256.005 58.6595 255.347L59.3392 254.376L64.8321 258.22L64.917 258.099C65.625 257.087 65.939 256.154 65.859 255.299C65.7688 254.437 65.3596 253.752 64.6313 253.242C63.9839 252.789 63.3097 252.611 62.6087 252.708C61.8976 252.798 61.2766 253.223 60.7456 253.981L59.9869 253.45ZM59.9846 259.914C60.6624 260.388 61.3866 260.548 62.1574 260.395C62.9281 260.241 63.6518 259.745 64.3284 258.907L59.6094 255.605L59.4182 255.878C58.866 256.667 58.6623 257.421 58.807 258.14C58.9345 258.863 59.3271 259.454 59.9846 259.914Z" fill="#C4CDDF"/>
<path d="M55.4358 248.449C55.4852 248.41 55.546 248.348 55.618 248.263C56.0263 247.784 56.1357 247.236 55.9463 246.621C55.7474 245.998 55.286 245.378 54.5622 244.761C53.9136 244.209 53.3026 243.907 52.7293 243.857C52.1479 243.816 51.6771 244.007 51.3169 244.43C51.0367 244.759 50.9199 245.106 50.9666 245.47C51.0039 245.826 51.133 246.179 51.3537 246.529C51.5571 246.881 51.8678 247.316 52.286 247.834C52.7633 248.435 53.1279 248.94 53.3796 249.349C53.6234 249.768 53.7594 250.208 53.7876 250.67C53.8159 251.132 53.6379 251.588 53.2536 252.039C52.7573 252.622 52.118 252.897 51.3358 252.863C50.5536 252.83 49.7019 252.42 48.7806 251.636C48.179 251.124 47.7649 250.601 47.5382 250.067C47.3115 249.533 47.2369 249.04 47.3145 248.587C47.3746 248.136 47.5368 247.755 47.801 247.445L47.9832 247.259L48.6882 247.86L48.5321 248.043C48.2759 248.344 48.1641 248.751 48.1965 249.265C48.2116 249.781 48.6327 250.391 49.4599 251.095C50.2589 251.776 50.9014 252.088 51.3874 252.031C51.8639 251.967 52.2383 251.775 52.5105 251.455C52.7427 251.183 52.8368 250.882 52.7929 250.552C52.749 250.223 52.626 249.891 52.4241 249.557C52.2141 249.232 51.9041 248.806 51.4939 248.278C51.0246 247.668 50.6586 247.145 50.3961 246.711C50.1335 246.277 49.9874 245.82 49.9578 245.34C49.9281 244.861 50.1014 244.4 50.4777 243.959C51.1341 243.188 51.8783 242.857 52.7104 242.965C53.533 243.066 54.3955 243.5 55.2979 244.269C55.9841 244.853 56.4514 245.437 56.6997 246.022C56.9386 246.598 57.0199 247.122 56.9437 247.592C56.8582 248.054 56.6953 248.427 56.4551 248.709C56.3591 248.821 56.287 248.906 56.239 248.962C56.1816 249.011 56.1488 249.04 56.1408 249.049L55.4358 248.449Z" fill="#C4CDDF"/>
<path d="M35.2004 232.217C35.5521 231.906 35.9582 231.704 36.4189 231.61C36.8703 231.524 37.3188 231.556 37.7644 231.706C38.21 231.856 38.5881 232.107 38.8987 232.458C39.2094 232.81 39.4076 233.212 39.4934 233.663C39.5792 234.114 39.5517 234.559 39.4109 234.996C39.2609 235.442 39.0101 235.82 38.6585 236.131C38.3068 236.441 37.9053 236.64 37.4539 236.725C36.9932 236.819 36.5442 236.796 36.1068 236.655C35.6694 236.514 35.2953 236.268 34.9847 235.917C34.674 235.565 34.4717 235.159 34.3778 234.698C34.2838 234.237 34.3118 233.784 34.4619 233.339C34.6026 232.901 34.8488 232.527 35.2004 232.217Z" fill="#C4CDDF"/>
<path d="M23.9496 212.022C25.4116 211.076 26.6916 210.771 27.7897 211.104C28.8878 211.438 29.8123 212.186 30.5632 213.347C31.0995 214.177 31.4084 214.984 31.4899 215.769C31.5647 216.544 31.3239 217.355 30.7675 218.199C30.2044 219.034 29.2386 219.894 27.87 220.779L27.4656 221.04C26.097 221.925 24.9166 222.453 23.9244 222.624C22.9256 222.785 22.0881 222.672 21.4119 222.286C20.7291 221.89 20.1195 221.277 19.5832 220.447C18.8256 219.275 18.518 218.129 18.6604 217.008C18.7961 215.876 19.6105 214.827 21.1035 213.862L21.6365 214.686C20.4027 215.484 19.7265 216.326 19.6079 217.211C19.479 218.103 19.7196 219.021 20.3297 219.964C20.9867 220.98 21.8091 221.559 22.7969 221.699C23.7744 221.847 25.0873 221.387 26.7359 220.321L27.5135 219.818C29.1621 218.752 30.1249 217.74 30.4021 216.782C30.6688 215.83 30.4737 214.846 29.8167 213.83C28.4691 211.746 26.6911 211.418 24.4826 212.846L23.9496 212.022Z" fill="#C4CDDF"/>
<path d="M21.2999 198.295C21.6644 198.112 21.7722 197.872 21.6231 197.574C21.4962 197.32 21.2699 197.088 20.9441 196.878L21.6565 196.522C22.0209 196.727 22.3025 197.028 22.5011 197.425C22.6998 197.823 22.6942 198.171 22.4843 198.469C22.2634 198.772 21.8989 199.051 21.3908 199.305C22.1252 199.366 22.7546 199.59 23.2791 199.976C23.798 200.352 24.2314 200.888 24.5791 201.584C24.9709 202.368 25.1143 203.097 25.0092 203.77C24.8931 204.45 24.4043 205.004 23.5428 205.435C22.7586 205.827 22.0573 205.887 21.4389 205.617C20.804 205.34 20.2326 204.832 19.7248 204.092C19.2004 203.347 18.6126 202.322 17.9613 201.019L16.901 201.549C16.1942 201.902 15.7882 202.319 15.6832 202.799C15.5616 203.274 15.6995 203.909 16.0968 204.704C16.4611 205.433 16.8972 205.947 17.4051 206.245C17.902 206.549 18.4431 206.554 19.0285 206.262L19.2936 206.13L19.6992 206.941C19.5336 207.052 19.3955 207.135 19.285 207.19C18.5671 207.548 17.8521 207.526 17.1399 207.123C16.4111 206.714 15.8094 206.035 15.3347 205.085C14.8215 204.058 14.645 203.194 14.8053 202.492C14.9601 201.78 15.4627 201.211 16.3132 200.786L21.2999 198.295ZM18.7234 200.638C19.3085 201.809 19.808 202.712 20.2219 203.347C20.6304 203.971 21.0748 204.404 21.5551 204.647C22.0244 204.896 22.5518 204.874 23.1371 204.582C23.6894 204.306 24.0153 203.95 24.1148 203.513C24.2087 203.066 24.0819 202.495 23.7342 201.799C23.4858 201.302 23.1408 200.888 22.6991 200.556C22.252 200.214 21.7385 200.015 21.1587 199.959C20.5624 199.899 19.9384 200.031 19.2867 200.357L18.7234 200.638Z" fill="#C4CDDF"/>
<path d="M17.5298 192.206C17.5919 192.196 17.6749 192.171 17.7788 192.132C18.3676 191.908 18.7272 191.481 18.8576 190.85C18.9837 190.208 18.8781 189.443 18.5407 188.554C18.2385 187.757 17.8482 187.199 17.3701 186.879C16.8804 186.563 16.3758 186.503 15.8563 186.7C15.4523 186.854 15.183 187.101 15.0485 187.443C14.9097 187.773 14.8526 188.144 14.8774 188.558C14.8862 188.964 14.949 189.494 15.0657 190.15C15.1944 190.907 15.2706 191.525 15.2942 192.005C15.3062 192.489 15.2133 192.94 15.0155 193.358C14.8178 193.777 14.4418 194.091 13.8877 194.302C13.172 194.573 12.4795 194.506 11.8103 194.099C11.141 193.693 10.5917 192.924 10.1624 191.793C9.88202 191.054 9.77104 190.396 9.82946 189.82C9.88788 189.243 10.0602 188.775 10.3463 188.415C10.6166 188.048 10.9422 187.793 11.3231 187.648L11.5721 187.574L11.9007 188.439L11.6756 188.525C11.3062 188.665 11.0118 188.968 10.7926 189.434C10.5574 189.893 10.6325 190.631 11.0181 191.647C11.3904 192.628 11.8032 193.211 12.2562 193.395C12.7049 193.568 13.1255 193.581 13.518 193.432C13.8527 193.305 14.0802 193.086 14.2004 192.776C14.3205 192.467 14.3726 192.117 14.3566 191.727C14.3291 191.341 14.2627 190.818 14.1575 190.158C14.0403 189.397 13.9714 188.763 13.9506 188.256C13.9298 187.748 14.0219 187.278 14.2268 186.843C14.4317 186.409 14.8055 186.089 15.348 185.883C16.2946 185.524 17.1063 185.592 17.7832 186.088C18.4556 186.572 19.0021 187.369 19.4227 188.477C19.7425 189.319 19.8704 190.057 19.8064 190.688C19.7381 191.309 19.5572 191.807 19.2639 192.182C18.9662 192.546 18.6442 192.794 18.2979 192.925C18.1594 192.978 18.0555 193.017 17.9862 193.043C17.9126 193.058 17.87 193.068 17.8584 193.072L17.5298 192.206Z" fill="#C4CDDF"/>
<path d="M11.6358 174.243C12.3739 174.04 13.055 174.026 13.6792 174.2C14.3 174.362 14.827 174.672 15.2601 175.129C15.6813 175.589 15.9835 176.153 16.1669 176.82C16.3732 177.57 16.378 178.285 16.1813 178.967C15.9695 179.64 15.5625 180.232 14.9604 180.743C14.3584 181.255 13.5752 181.643 12.6109 181.908L12.343 181.982C11.3787 182.247 10.5088 182.32 9.73314 182.2C8.95424 182.069 8.30763 181.767 7.7933 181.293C7.26378 180.812 6.89588 180.196 6.68957 179.446C6.50292 178.767 6.48472 178.119 6.63498 177.501C6.77007 176.875 7.0748 176.33 7.54919 175.867C8.01167 175.407 8.62983 175.07 9.40364 174.857L10.5465 174.543L12.3247 181.007L12.4675 180.968C13.658 180.641 14.4951 180.122 14.9787 179.413C15.459 178.692 15.5813 177.903 15.3455 177.046C15.1359 176.284 14.7302 175.716 14.1284 175.344C13.5233 174.96 12.7743 174.891 11.8814 175.136L11.6358 174.243ZM7.51101 179.22C7.73041 180.017 8.18597 180.603 8.87768 180.976C9.56939 181.349 10.4429 181.429 11.4983 181.216L9.97068 175.662L9.64924 175.75C8.72066 176.006 8.08273 176.457 7.73544 177.103C7.37297 177.74 7.29816 178.446 7.51101 179.22Z" fill="#C4CDDF"/>
<path d="M2.79888 154.52C2.06368 154.611 1.54413 154.987 1.24021 155.647C0.922523 156.296 0.822151 157.092 0.939094 158.035C1.05907 159.003 1.33931 159.759 1.77981 160.301C2.20806 160.845 2.81429 161.069 3.5985 160.972C4.11314 160.908 4.51077 160.703 4.79138 160.357C5.05975 160.013 5.25773 159.603 5.38534 159.127C5.50069 158.652 5.60855 158.017 5.70893 157.22C5.83857 156.259 5.98486 155.482 6.14782 154.889C6.29699 154.286 6.58622 153.759 7.0155 153.307C7.43101 152.845 8.03699 152.565 8.83346 152.466C10.0956 152.31 11.0723 152.612 11.7637 153.372C12.4414 154.121 12.8623 155.158 13.0263 156.481C13.1964 157.854 13.0512 158.991 12.5909 159.895C12.1182 160.799 11.2447 161.33 9.97039 161.488L9.63728 161.511L9.52109 160.574L10.0196 160.53C10.9141 160.42 11.5294 160.014 11.8655 159.313C12.1894 158.613 12.2853 157.73 12.1531 156.664C11.8585 154.287 10.8106 153.21 9.00934 153.433C8.43344 153.505 7.98831 153.728 7.67397 154.103C7.35811 154.465 7.1379 154.897 7.01333 155.398C6.88724 155.886 6.7648 156.554 6.64599 157.403C6.51332 158.34 6.37011 159.092 6.21637 159.658C6.06264 160.225 5.78875 160.725 5.39471 161.16C4.98842 161.596 4.41155 161.86 3.6641 161.953C2.63482 162.08 1.81426 161.784 1.20242 161.063C0.589067 160.331 0.20797 159.364 0.0591332 158.163C-0.0942598 156.926 0.0507763 155.887 0.494241 155.049C0.937706 154.21 1.72309 153.721 2.85039 153.581L3.08933 153.551L3.20324 154.47L2.79888 154.52Z" fill="#C4CDDF"/>
<path d="M12.4292 143.267C12.531 143.425 12.6089 143.621 12.6628 143.855C12.7288 144.076 12.764 144.298 12.7683 144.52C12.7792 145.088 12.6152 145.548 12.2762 145.9C11.9372 146.252 11.4283 146.435 10.7493 146.448L4.00906 146.578L4.02908 147.615L3.17729 147.632L3.15727 146.595L0.132543 146.32L0.120748 145.709L3.13904 145.65L3.09651 143.447L3.9483 143.43L3.99083 145.634L10.694 145.505C11.1878 145.495 11.5194 145.396 11.6886 145.207C11.8453 145.007 11.9205 144.746 11.9143 144.425C11.9117 144.289 11.8773 144.105 11.811 143.871C11.7448 143.638 11.6731 143.442 11.5959 143.283L12.4292 143.267Z" fill="#C4CDDF"/>
<path d="M11.8731 130.573C12.3502 130.919 12.717 131.37 12.9734 131.927C13.2298 132.484 13.3422 133.076 13.3106 133.705C13.2586 134.741 12.9205 135.565 12.2964 136.176C11.6729 136.776 10.7693 137.045 9.58544 136.986L3.49982 136.681L3.54719 135.737L9.35534 136.029C10.3542 136.079 11.1117 135.888 11.6279 135.457C12.1447 135.013 12.4244 134.366 12.4671 133.515C12.4944 132.972 12.3897 132.472 12.153 132.015C11.9163 131.558 11.576 131.195 11.1322 130.926C10.6889 130.644 10.1898 130.489 9.63488 130.461L3.82672 130.169L3.87409 129.226L12.0499 129.637C12.4568 129.657 12.6687 129.501 12.6854 129.168C12.6996 128.884 12.6164 128.571 12.4359 128.228L13.2312 128.268C13.4482 128.625 13.5455 129.026 13.5233 129.469C13.5022 129.889 13.3329 130.183 13.0153 130.353C12.6854 130.521 12.3047 130.595 11.8731 130.573Z" fill="#C4CDDF"/>
<path d="M14.0766 117.478C15.0352 118.323 15.4102 119.435 15.2014 120.814C15.0351 121.913 14.4904 122.748 13.5671 123.32C12.6335 123.878 11.3427 124.033 9.69459 123.783L9.49316 123.753C8.52872 123.607 7.72961 123.317 7.09584 122.884C6.44986 122.449 5.99234 121.924 5.72329 121.309C5.45423 120.694 5.37236 120.039 5.47766 119.343C5.57557 118.696 5.79761 118.136 6.14378 117.664C6.47959 117.178 6.90254 116.817 7.41263 116.582L2.28523 115.806L2.42656 114.872L15.6113 116.868L15.5171 117.49L14.0766 117.478ZM10.5468 117.038C9.28934 116.847 8.30775 116.98 7.60201 117.435C6.8859 117.876 6.46319 118.524 6.33387 119.379C6.2064 120.221 6.41943 120.959 6.97297 121.592C7.5265 122.225 8.42588 122.636 9.67111 122.824L9.87254 122.855C11.3009 123.071 12.3783 122.966 13.1048 122.539C13.819 122.11 14.2417 121.462 14.3729 120.595C14.5059 119.716 14.3008 118.967 13.7577 118.348C13.2041 117.715 12.2071 117.289 10.7665 117.071L10.5468 117.038Z" fill="#C4CDDF"/>
<path d="M4.45087 107.951L4.72465 106.893L5.69286 107.143L5.41908 108.201L4.45087 107.951ZM17.3789 111.22L8.21677 108.849L8.45343 107.934L17.6156 110.306L17.3789 111.22Z" fill="#C4CDDF"/>
<path d="M18.0011 97.2573C18.7318 97.4853 19.3127 97.8412 19.7438 98.325C20.1786 98.797 20.4546 99.3423 20.572 99.961C20.6776 100.576 20.6274 101.213 20.4214 101.873C20.1897 102.616 19.8069 103.221 19.2731 103.688C18.7311 104.14 18.0687 104.418 17.2858 104.523C16.5028 104.628 15.634 104.531 14.6793 104.234L14.4141 104.151C13.4594 103.853 12.6881 103.444 12.1001 102.924C11.5158 102.393 11.1351 101.789 10.9581 101.113C10.7729 100.421 10.7962 99.7041 11.0279 98.9615C11.2376 98.2897 11.5725 97.7345 12.0327 97.2961C12.4848 96.8422 13.0356 96.5485 13.6852 96.4149C14.323 96.2776 15.025 96.3286 15.7911 96.5676L16.9226 96.9207L14.9253 103.321L15.0668 103.365C16.2454 103.733 17.2299 103.749 18.0201 103.413C18.8139 103.066 19.3433 102.468 19.6081 101.62C19.8435 100.865 19.8086 100.169 19.5034 99.5305C19.2019 98.8802 18.6092 98.4172 17.7252 98.1413L18.0011 97.2573ZM11.8412 99.2153C11.5948 100.005 11.6617 100.744 12.0421 101.432C12.4224 102.119 13.1142 102.659 14.1176 103.049L15.8335 97.5509L15.5152 97.4516C14.5959 97.1647 13.8155 97.1993 13.1741 97.5553C12.5246 97.8958 12.0803 98.4492 11.8412 99.2153Z" fill="#C4CDDF"/>
<path d="M21.3142 91.4952C21.3664 91.5304 21.4437 91.5695 21.5462 91.6124C22.1271 91.8555 22.6819 91.7933 23.2105 91.4256C23.744 91.0466 24.1942 90.4185 24.5613 89.5415C24.8903 88.7557 24.9915 88.082 24.8652 87.5204C24.7274 86.9541 24.4023 86.5637 23.8898 86.3492C23.4911 86.1823 23.1255 86.1765 22.7928 86.3318C22.4649 86.4756 22.1677 86.7059 21.9013 87.0227C21.6282 87.3233 21.3084 87.7516 20.9418 88.3076C20.5143 88.9452 20.1441 89.4461 19.831 89.8103C19.5065 90.1697 19.1286 90.4331 18.6971 90.6005C18.2656 90.768 17.7765 90.7372 17.2298 90.5084C16.5237 90.2128 16.0677 89.6874 15.8619 88.9319C15.656 88.1765 15.7867 87.2408 16.2539 86.1246C16.559 85.3956 16.9313 84.842 17.3707 84.4638C17.8101 84.0855 18.2573 83.8645 18.7124 83.8006C19.1608 83.7206 19.5729 83.7593 19.9488 83.9166L20.1808 84.0338L19.8233 84.888L19.6012 84.7951C19.2367 84.6425 18.8145 84.6599 18.3346 84.8472C17.848 85.0183 17.395 85.605 16.9754 86.6073C16.5702 87.5754 16.4684 88.2823 16.67 88.7281C16.8763 89.1625 17.1731 89.4607 17.5604 89.6228C17.8907 89.7611 18.206 89.7592 18.5064 89.6172C18.8067 89.4752 19.0854 89.2572 19.3423 88.9632C19.5878 88.6644 19.8995 88.2394 20.2775 87.6882C20.7164 87.0554 21.1028 86.5479 21.4368 86.1657C21.7708 85.7835 22.1616 85.5054 22.6092 85.3313C23.0568 85.1573 23.5483 85.1823 24.0836 85.4064C25.0176 85.7973 25.5594 86.4056 25.7091 87.2312C25.8635 88.0454 25.7119 88.9992 25.2542 90.0926C24.9062 90.924 24.4916 91.5469 24.0103 91.9611C23.5338 92.364 23.06 92.6007 22.5888 92.6712C22.1223 92.7303 21.7183 92.6883 21.3766 92.5453C21.2399 92.4881 21.1374 92.4452 21.0691 92.4166C21.0055 92.3766 20.968 92.3542 20.9566 92.3494L21.3142 91.4952Z" fill="#C4CDDF"/>
<path d="M30.6762 67.2044C31.0784 67.446 31.3937 67.7722 31.6222 68.1832C31.8401 68.5877 31.9447 69.025 31.936 69.4951C31.9272 69.9652 31.8021 70.4013 31.5605 70.8035C31.3189 71.2057 30.9958 71.5158 30.5912 71.7337C30.1867 71.9516 29.7546 72.0593 29.2951 72.057C28.8251 72.0483 28.3889 71.9231 27.9867 71.6815C27.5845 71.4399 27.2745 71.1168 27.0566 70.7122C26.8281 70.3013 26.7151 69.8661 26.7174 69.4066C26.7198 68.9471 26.8418 68.5163 27.0834 68.1141C27.325 67.7119 27.6512 67.3965 28.0621 67.1681C28.4731 66.9396 28.9136 66.8297 29.3836 66.8384C29.8431 66.8408 30.274 66.9628 30.6762 67.2044Z" fill="#C4CDDF"/>
<path d="M46.4423 50.4363C47.784 51.5456 48.461 52.6741 48.4734 53.8218C48.4857 54.9695 48.0513 56.0762 47.1701 57.142C46.5407 57.9032 45.8638 58.441 45.1394 58.7552C44.4228 59.0599 43.5779 59.0743 42.6046 58.7982C41.6391 58.5126 40.5284 57.8506 39.2723 56.8121L38.9012 56.5052C37.6451 55.4667 36.7861 54.5001 36.3242 53.6055C35.8701 52.7015 35.7254 51.8689 35.8901 51.1078C36.0626 50.3373 36.4635 49.5714 37.0929 48.8101C37.982 47.7348 38.9826 47.0962 40.0947 46.8943C41.2148 46.6829 42.4599 47.1436 43.8302 48.2766L43.2047 49.0331C42.0723 48.0968 41.0662 47.7055 40.1862 47.8591C39.2967 48.0048 38.494 48.5106 37.7781 49.3766C37.007 50.3091 36.7032 51.2675 36.8667 52.2518C37.0207 53.2282 37.8542 54.3419 39.3672 55.5928L40.0809 56.1829C41.5939 57.4339 42.8491 58.0471 43.8465 58.0227C44.8345 57.9905 45.714 57.508 46.485 56.5755C48.0664 54.6628 47.8437 52.8686 45.8168 51.1928L46.4423 50.4363Z" fill="#C4CDDF"/>
<path d="M58.8416 43.5735C59.1255 43.8657 59.3871 43.8957 59.6262 43.6635C59.8299 43.4656 59.9825 43.1797 60.084 42.8057L60.6388 43.3769C60.5543 43.7861 60.3526 44.1455 60.0338 44.4552C59.715 44.7649 59.3817 44.8649 59.034 44.755C58.6778 44.6363 58.3018 44.3733 57.906 43.9659C58.0702 44.6843 58.0474 45.3519 57.8376 45.9688C57.6367 46.5771 57.2572 47.1522 56.6993 47.6942C56.0704 48.305 55.4191 48.6623 54.7453 48.766C54.0628 48.8609 53.3861 48.5629 52.7151 47.8721C52.1043 47.2432 51.8343 46.5932 51.9052 45.9219C51.9763 45.2331 52.2877 44.5347 52.8393 43.8268C53.3912 43.1013 54.1897 42.231 55.2348 41.2159L54.4089 40.3657C53.8584 39.7988 53.3383 39.5381 52.8486 39.5833C52.3593 39.6111 51.7957 39.9348 51.158 40.5542C50.5735 41.122 50.2159 41.693 50.0854 42.2674C49.9462 42.833 50.1045 43.3504 50.5605 43.8198L50.767 44.0324L50.116 44.6647C49.9606 44.5402 49.8399 44.4337 49.7539 44.3451C49.1947 43.7694 48.9995 43.0812 49.1683 42.2803C49.3374 41.462 49.8028 40.6829 50.5644 39.9431C51.3881 39.143 52.1584 38.7132 52.8752 38.6538C53.6009 38.5858 54.295 38.8927 54.9574 39.5747L58.8416 43.5735ZM55.8284 41.827C54.8896 42.7389 54.1802 43.4882 53.7002 44.075C53.229 44.6532 52.9502 45.208 52.8639 45.7393C52.769 46.2619 52.9495 46.7578 53.4055 47.2272C53.8356 47.6701 54.2736 47.8729 54.7195 47.8357C55.1742 47.7899 55.6805 47.496 56.2385 46.9541C56.6371 46.5669 56.9274 46.1127 57.1096 45.5915C57.3007 45.0616 57.3349 44.512 57.2122 43.9427C57.0898 43.3559 56.7747 42.8012 56.2672 42.2787L55.8284 41.827Z" fill="#C4CDDF"/>
<path d="M63.1598 38.3755C63.1886 38.4315 63.2376 38.5029 63.3069 38.5899C63.6992 39.0824 64.2156 39.2946 64.8559 39.2265C65.5059 39.1507 66.2027 38.8167 66.9463 38.2243C67.6127 37.6935 68.0255 37.1515 68.1848 36.5984C68.3363 36.0357 68.239 35.537 67.8928 35.1024C67.6236 34.7644 67.3058 34.5835 66.9395 34.5596C66.5828 34.528 66.2115 34.587 65.8255 34.7366C65.4415 34.8688 64.9551 35.0905 64.3663 35.4017C63.6849 35.7551 63.1194 36.0162 62.6697 36.1849C62.2124 36.344 61.7543 36.3932 61.2955 36.3325C60.8367 36.2717 60.4227 36.0096 60.0534 35.546C59.5764 34.9473 59.4294 34.2672 59.6122 33.5059C59.7951 32.7447 60.3597 31.987 61.3061 31.2331C61.9242 30.7408 62.5168 30.4344 63.084 30.3141C63.6512 30.1938 64.1496 30.2151 64.5792 30.378C65.0109 30.5235 65.3536 30.7556 65.6075 31.0743L65.7546 31.2886L65.0303 31.8656L64.8803 31.6773C64.6341 31.3683 64.2556 31.1804 63.7447 31.1138C63.2358 31.0298 62.5564 31.3263 61.7066 32.0033C60.8857 32.6572 60.4564 33.2281 60.4188 33.7159C60.3908 34.196 60.5076 34.6002 60.7691 34.9285C60.9922 35.2086 61.2696 35.3586 61.6012 35.3786C61.9328 35.3986 62.282 35.3414 62.6486 35.2072C63.0076 35.0633 63.4853 34.8407 64.0818 34.5392C64.7709 34.1954 65.3538 33.9363 65.8304 33.7618C66.3071 33.5873 66.7835 33.5314 67.2596 33.5941C67.7358 33.6568 68.1547 33.9151 68.5162 34.369C69.1471 35.1609 69.3296 35.9548 69.0638 36.7506C68.8076 37.5388 68.2159 38.3021 67.2888 39.0407C66.5838 39.6023 65.9207 39.9489 65.2996 40.0807C64.688 40.2048 64.1588 40.1844 63.7117 40.0196C63.2744 39.847 62.9403 39.6159 62.7095 39.3262C62.6172 39.2103 62.5479 39.1234 62.5018 39.0654C62.4653 38.9998 62.4432 38.9621 62.4355 38.9525L63.1598 38.3755Z" fill="#C4CDDF"/>
<path d="M78.798 27.0279C79.2161 27.6692 79.4371 28.3136 79.4613 28.9612C79.4957 29.6019 79.3612 30.1981 79.0575 30.7498C78.7471 31.2911 78.3023 31.7505 77.7231 32.1281C77.0714 32.5529 76.391 32.7753 75.6819 32.7954C74.9764 32.7983 74.2885 32.5909 73.6182 32.173C72.9478 31.7551 72.3396 31.1273 71.7935 30.2894L71.6418 30.0567C71.0956 29.2189 70.7615 28.4123 70.6394 27.6371C70.5276 26.8551 70.6188 26.1472 70.9131 25.5132C71.2109 24.8622 71.6856 24.3243 72.3373 23.8995C72.9268 23.5152 73.5387 23.3006 74.1727 23.2558C74.8103 23.1939 75.422 23.3184 76.0078 23.6292C76.5869 23.9297 77.0956 24.4162 77.5338 25.0885L78.1811 26.0815L72.5645 29.7426L72.6454 29.8667C73.3197 30.9011 74.0682 31.5407 74.891 31.7855C75.7242 32.0235 76.5131 31.8998 77.2578 31.4144C77.9198 30.9829 78.3366 30.4238 78.508 29.7373C78.6899 29.0439 78.5279 28.3094 78.0223 27.5336L78.798 27.0279ZM72.8025 24.6132C72.1095 25.065 71.6905 25.6771 71.5455 26.4495C71.4005 27.222 71.5903 28.0784 72.1148 29.0188L76.9401 25.8735L76.7581 25.5942C76.2322 24.7874 75.6086 24.3169 74.8874 24.1827C74.1698 24.0315 73.4748 24.175 72.8025 24.6132Z" fill="#C4CDDF"/>
<path d="M94.7768 12.615C94.4655 11.9428 93.9493 11.5627 93.2282 11.4748C92.5132 11.3705 91.7243 11.5182 90.8616 11.9177C89.9765 12.3276 89.3429 12.8251 88.9608 13.4103C88.5734 13.9842 88.5458 14.6297 88.8779 15.3468C89.0958 15.8174 89.4122 16.1334 89.8272 16.295C90.2371 16.4454 90.6882 16.5087 91.1805 16.4847C91.6677 16.4496 92.3057 16.3583 93.0946 16.2106C94.0499 16.0404 94.8345 15.9424 95.4485 15.9166C96.0685 15.8744 96.6589 15.9888 97.2198 16.2597C97.7867 16.5142 98.2387 17.0056 98.576 17.7339C99.1104 18.8879 99.1212 19.9102 98.6084 20.8008C98.1016 21.675 97.2431 22.3923 96.0331 22.9527C94.7783 23.5338 93.6506 23.7431 92.65 23.5805C91.6443 23.4067 90.8716 22.7372 90.332 21.572L90.2087 21.2617L91.0658 20.8648L91.2592 21.3263C91.6379 22.1442 92.2124 22.6062 92.9826 22.7121C93.7477 22.8068 94.6176 22.6285 95.5923 22.1771C97.7659 21.1705 98.4713 19.8438 97.7086 18.1968C97.4648 17.6702 97.1163 17.3145 96.6634 17.1297C96.2216 16.9396 95.7433 16.8618 95.2285 16.8961C94.7249 16.9252 94.0511 17.0127 93.2071 17.1587C92.2742 17.3185 91.5146 17.4118 90.9282 17.4384C90.3418 17.465 89.7816 17.3571 89.2475 17.1146C88.7082 16.8609 88.2803 16.3923 87.9638 15.7089C87.528 14.7677 87.5596 13.8958 88.0588 13.0932C88.5691 12.2854 89.3733 11.6272 90.4713 11.1188C91.6029 10.5947 92.6357 10.4158 93.5699 10.5819C94.504 10.748 95.2098 11.3464 95.6871 12.3772L95.7883 12.5956L94.948 12.9848L94.7768 12.615Z" fill="#C4CDDF"/>
<path d="M108.808 18.2396C108.687 18.3845 108.523 18.5178 108.317 18.6395C108.126 18.769 107.925 18.8693 107.715 18.9403C107.177 19.1217 106.688 19.1038 106.25 18.8866C105.812 18.6695 105.485 18.2391 105.268 17.5956L103.114 11.2073L102.132 11.5386L101.86 10.7313L102.842 10.4L102.194 7.43279L102.773 7.23756L103.737 10.0983L105.826 9.39426L106.098 10.2016L104.01 10.9056L106.151 17.2588C106.309 17.7268 106.503 18.0131 106.734 18.1178C106.972 18.2068 107.244 18.2 107.548 18.0975C107.677 18.0541 107.842 17.9657 108.045 17.8322C108.247 17.6988 108.413 17.5713 108.541 17.4499L108.808 18.2396Z" fill="#C4CDDF"/>
<path d="M119.744 14.0984C119.561 14.6583 119.244 15.1456 118.792 15.56C118.34 15.9745 117.81 16.263 117.202 16.4254C116.2 16.6928 115.312 16.6231 114.539 16.216C113.778 15.8058 113.244 15.0281 112.939 13.8829L111.367 7.99572L112.28 7.75213L113.78 13.3709C114.037 14.3372 114.451 15 115.02 15.3593C115.6 15.7155 116.302 15.7837 117.125 15.564C117.65 15.4239 118.094 15.1713 118.456 14.8061C118.819 14.441 119.061 14.0059 119.182 13.5008C119.314 12.9925 119.309 12.47 119.166 11.9332L117.666 6.31443L118.578 6.07084L120.69 13.98C120.795 14.3737 121.008 14.5275 121.33 14.4416C121.605 14.3683 121.878 14.1933 122.149 13.9164L122.354 14.6859C122.081 15.0017 121.729 15.2169 121.3 15.3316C120.894 15.4398 120.562 15.3687 120.303 15.1183C120.042 14.8559 119.855 14.5159 119.744 14.0984Z" fill="#C4CDDF"/>
<path d="M133.391 12.1143C132.877 13.2839 131.931 13.9783 130.553 14.1976C129.455 14.3723 128.494 14.1065 127.669 13.4001C126.854 12.6797 126.316 11.4964 126.054 9.85024L126.022 9.64905C125.868 8.68576 125.902 7.83649 126.123 7.10124C126.341 6.3538 126.703 5.75864 127.207 5.31574C127.712 4.87284 128.312 4.59608 129.007 4.48545C129.653 4.38258 130.254 4.42451 130.808 4.61125C131.374 4.78385 131.845 5.07757 132.224 5.4924L131.409 0.371108L132.342 0.222626L134.438 13.3917L133.816 13.4907L133.391 12.1143ZM132.74 8.61714C132.54 7.3612 132.116 6.46597 131.469 5.93144C130.831 5.38278 130.086 5.17638 129.232 5.31224C128.391 5.44617 127.752 5.87287 127.317 6.59233C126.881 7.3118 126.762 8.2934 126.96 9.53715L126.992 9.73834C127.219 11.165 127.647 12.1597 128.274 12.7225C128.899 13.2731 129.645 13.4795 130.51 13.3417C131.388 13.202 132.04 12.7794 132.465 12.0741C132.901 11.3546 133.004 10.2755 132.775 8.83662L132.74 8.61714Z" fill="#C4CDDF"/>
<path d="M139.122 0.0632074L140.213 0L140.27 0.998438L139.18 1.06165L139.122 0.0632074ZM139.967 13.3714L139.42 3.92325L140.363 3.86861L140.91 13.3168L139.967 13.3714Z" fill="#C4CDDF"/>
<path d="M153.851 9.68449C153.857 10.45 153.695 11.1118 153.366 11.67C153.049 12.2281 152.614 12.6574 152.061 12.958C151.508 13.2463 150.885 13.3931 150.194 13.3984C149.416 13.4044 148.723 13.2246 148.115 12.8588C147.52 12.4807 147.052 11.9348 146.713 11.2213C146.375 10.5078 146.201 9.65094 146.194 8.65086L146.191 8.37306C146.184 7.37298 146.338 6.51364 146.653 5.79505C146.981 5.07637 147.44 4.52954 148.029 4.15457C148.632 3.76715 149.321 3.57043 150.099 3.56443C150.803 3.559 151.434 3.70847 151.992 4.01285C152.562 4.30478 153.01 4.73966 153.336 5.31748C153.661 5.88295 153.827 6.56695 153.833 7.36948L153.842 8.55477L147.138 8.60653L147.139 8.75469C147.148 9.98936 147.434 10.9317 147.994 11.5818C148.567 12.2318 149.298 12.5534 150.187 12.5465C150.977 12.5404 151.63 12.2946 152.145 11.8091C152.672 11.3235 152.932 10.6176 152.925 9.69164L153.851 9.68449ZM150.106 4.41635C149.279 4.42274 148.596 4.712 148.057 5.28415C147.518 5.85629 147.216 6.67973 147.15 7.75446L152.909 7.70999L152.907 7.37663C152.899 6.41359 152.628 5.68101 152.094 5.17889C151.571 4.66434 150.908 4.41016 150.106 4.41635Z" fill="#C4CDDF"/>
<path d="M161.017 11.132C160.999 11.1924 160.985 11.278 160.976 11.3887C160.92 12.0159 161.147 12.5257 161.658 12.9182C162.18 13.3118 162.915 13.5507 163.862 13.6349C164.711 13.7104 165.384 13.6029 165.881 13.3124C166.378 13.0096 166.652 12.5815 166.701 12.028C166.74 11.5976 166.634 11.2473 166.386 10.9773C166.149 10.7084 165.84 10.4949 165.457 10.3369C165.088 10.1677 164.583 9.99265 163.942 9.8117C163.205 9.5974 162.615 9.39622 162.173 9.20817C161.733 9.00782 161.367 8.7274 161.077 8.3669C160.787 8.0064 160.668 7.53099 160.72 6.94066C160.788 6.17815 161.151 5.58442 161.808 5.15946C162.466 4.73451 163.397 4.57562 164.603 4.68281C165.39 4.75281 166.03 4.93991 166.524 5.24412C167.017 5.54833 167.363 5.9076 167.562 6.32193C167.774 6.72506 167.862 7.12955 167.826 7.5354L167.785 7.79203L166.862 7.71L166.884 7.47018C166.919 7.07663 166.774 6.67951 166.45 6.27884C166.14 5.86696 165.443 5.61289 164.361 5.51664C163.316 5.42368 162.611 5.54075 162.247 5.86788C161.896 6.1961 161.702 6.56929 161.664 6.98744C161.633 7.34409 161.73 7.64405 161.956 7.88729C162.183 8.13054 162.475 8.33007 162.833 8.48586C163.192 8.62936 163.691 8.79774 164.331 8.99099C165.067 9.21759 165.668 9.43216 166.133 9.6347C166.599 9.83723 166.982 10.1254 167.283 10.4993C167.585 10.8732 167.71 11.3492 167.659 11.9272C167.569 12.9357 167.153 13.6363 166.412 14.029C165.683 14.4228 164.728 14.5672 163.547 14.4622C162.649 14.3823 161.93 14.1758 161.389 13.8427C160.861 13.5106 160.492 13.1307 160.282 12.7029C160.085 12.2763 160.002 11.8785 160.035 11.5096C160.048 11.362 160.058 11.2513 160.065 11.1775C160.083 11.1048 160.093 11.0623 160.095 11.05L161.017 11.132Z" fill="#C4CDDF"/>
<path d="M186.387 12.5305C186.28 12.9873 186.066 13.3872 185.744 13.7303C185.425 14.0614 185.041 14.2946 184.591 14.4299C184.14 14.5653 183.687 14.5793 183.23 14.4722C182.773 14.365 182.379 14.1521 182.048 13.8335C181.717 13.5148 181.483 13.1364 181.345 12.6982C181.209 12.2479 181.195 11.7944 181.302 11.3376C181.409 10.8808 181.622 10.4869 181.941 10.1558C182.262 9.81268 182.642 9.57205 183.081 9.4339C183.519 9.29575 183.966 9.28026 184.423 9.38742C184.88 9.49459 185.28 9.7089 185.623 10.0304C185.966 10.3518 186.205 10.7377 186.341 11.1879C186.479 11.6262 186.494 12.0737 186.387 12.5305Z" fill="#C4CDDF"/>
<path d="M207.966 22.7786C207.312 24.392 206.44 25.3772 205.349 25.7344C204.258 26.0915 203.072 26.0103 201.791 25.4907C200.875 25.1196 200.159 24.6359 199.641 24.0396C199.135 23.448 198.867 22.6465 198.837 21.6352C198.819 20.6286 199.116 19.3701 199.728 17.8597L199.909 17.4135C200.522 15.9031 201.185 14.793 201.899 14.0833C202.625 13.3782 203.375 12.9897 204.15 12.9176C204.937 12.8503 205.788 13.0021 206.704 13.3733C207.997 13.8975 208.907 14.6595 209.434 15.6594C209.973 16.6639 209.908 17.99 209.24 19.6377L208.33 19.2689C208.882 17.9072 208.953 16.8299 208.541 16.037C208.135 15.2326 207.411 14.6193 206.37 14.1971C205.248 13.7425 204.243 13.7412 203.353 14.1933C202.469 14.634 201.657 15.764 200.92 17.5833L200.572 18.4415C199.834 20.2608 199.627 21.6424 199.95 22.5863C200.279 23.5187 201.003 24.2122 202.125 24.6669C204.425 25.5994 206.069 24.847 207.057 22.4098L207.966 22.7786Z" fill="#C4CDDF"/>
<path d="M217.777 32.3086C217.585 32.6675 217.635 32.9258 217.929 33.0836C218.179 33.218 218.498 33.2771 218.885 33.2609L218.508 33.9624C218.092 34.0054 217.689 33.9218 217.297 33.7114C216.906 33.501 216.71 33.2135 216.709 32.8489C216.715 32.4734 216.852 32.0355 217.121 31.5352C216.486 31.9088 215.842 32.0887 215.191 32.0751C214.55 32.0674 213.887 31.8794 213.202 31.5113C212.43 31.0964 211.892 30.5834 211.59 29.9724C211.293 29.3505 211.373 28.6153 211.829 27.767C212.244 26.9947 212.782 26.541 213.443 26.4057C214.121 26.2654 214.881 26.3513 215.723 26.6633C216.581 26.9702 217.652 27.4685 218.935 28.158L219.496 27.1138C219.87 26.4177 219.962 25.8432 219.771 25.3901C219.596 24.932 219.117 24.4926 218.334 24.0718C217.616 23.6861 216.964 23.5178 216.377 23.5669C215.796 23.605 215.35 23.9124 215.041 24.4888L214.9 24.7499L214.101 24.3203C214.173 24.1346 214.238 23.9874 214.296 23.8786C214.676 23.1716 215.273 22.7776 216.088 22.6966C216.919 22.6105 217.802 22.8188 218.738 23.3213C219.749 23.8648 220.391 24.4692 220.665 25.1346C220.949 25.8059 220.866 26.5602 220.416 27.3977L217.777 32.3086ZM218.532 28.9085C217.379 28.2891 216.45 27.8392 215.746 27.5589C215.053 27.2844 214.439 27.1863 213.907 27.2645C213.38 27.3319 212.962 27.6539 212.652 28.2303C212.36 28.7742 212.299 29.253 212.469 29.6667C212.65 30.0864 213.083 30.4803 213.768 30.8484C214.258 31.1114 214.779 31.251 215.33 31.2672C215.893 31.2892 216.428 31.1558 216.933 30.8668C217.456 30.5728 217.889 30.1049 218.234 29.4632L218.532 28.9085Z" fill="#C4CDDF"/>
<path d="M224.144 34.9351C224.1 34.9794 224.046 35.0477 223.984 35.1398C223.633 35.6623 223.586 36.2186 223.843 36.8087C224.111 37.4057 224.64 37.9696 225.429 38.5004C226.135 38.976 226.776 39.2065 227.352 39.1919C227.934 39.167 228.38 38.9241 228.691 38.4631C228.932 38.1046 229.009 37.747 228.921 37.3905C228.844 37.0409 228.676 36.7046 228.417 36.3815C228.175 36.0552 227.817 35.6581 227.343 35.1903C226.801 34.6469 226.382 34.1862 226.086 33.8082C225.796 33.42 225.612 32.998 225.531 32.5422C225.451 32.0864 225.576 31.6127 225.907 31.121C226.335 30.4858 226.939 30.1409 227.72 30.086C228.501 30.0312 229.393 30.3415 230.397 31.0171C231.053 31.4582 231.523 31.9311 231.809 32.4358C232.094 32.9404 232.224 33.4221 232.198 33.8809C232.189 34.3363 232.071 34.733 231.844 35.0711L231.684 35.2758L230.915 34.7588L231.05 34.5591C231.27 34.2313 231.336 33.8138 231.245 33.3066C231.172 32.796 230.685 32.2374 229.783 31.6308C228.913 31.0449 228.239 30.8074 227.763 30.9184C227.296 31.0362 226.946 31.2693 226.712 31.6176C226.512 31.9146 226.452 32.2243 226.533 32.5465C226.614 32.8688 226.773 33.1845 227.012 33.4938C227.257 33.7928 227.613 34.1813 228.08 34.6593C228.616 35.2129 229.038 35.6908 229.348 36.0928C229.658 36.4948 229.855 36.9322 229.938 37.4052C230.022 37.8781 229.902 38.3553 229.578 38.8368C229.012 39.6768 228.31 40.0898 227.471 40.0759C226.643 40.0689 225.737 39.7345 224.753 39.0728C224.005 38.5696 223.475 38.0416 223.162 37.4889C222.86 36.9431 222.72 36.4323 222.743 35.9564C222.776 35.4874 222.895 35.0992 223.102 34.7919C223.185 34.669 223.247 34.5768 223.288 34.5153C223.34 34.4607 223.369 34.4283 223.376 34.4181L224.144 34.9351Z" fill="#C4CDDF"/>
<path d="M239.68 46.4438C239.195 47.0355 238.647 47.4404 238.037 47.6584C237.436 47.8842 236.827 47.9354 236.21 47.812C235.6 47.679 235.028 47.3932 234.493 46.9546C233.892 46.4611 233.475 45.8793 233.242 45.2092C233.027 44.5373 233.018 43.8188 233.214 43.0538C233.411 42.2887 233.826 41.5196 234.461 40.7465L234.637 40.5318C235.272 39.7587 235.94 39.1972 236.643 38.8473C237.355 38.5052 238.057 38.379 238.75 38.4686C239.461 38.5566 240.117 38.8473 240.718 39.3408C241.262 39.7873 241.651 40.306 241.885 40.8971C242.136 41.4865 242.201 42.1073 242.081 42.7596C241.969 43.4023 241.658 44.0338 241.149 44.6542L240.397 45.5704L235.215 41.3171L235.121 41.4317C234.337 42.3861 233.953 43.2925 233.967 44.1508C233.991 45.017 234.347 45.7321 235.034 46.296C235.645 46.7973 236.303 47.0264 237.01 46.9831C237.725 46.9477 238.377 46.5721 238.965 45.8563L239.68 46.4438ZM240.177 39.9993C239.538 39.4745 238.828 39.2593 238.048 39.3537C237.268 39.4481 236.508 39.887 235.769 40.6703L240.222 44.3244L240.433 44.0667C241.044 43.3223 241.305 42.586 241.216 41.8578C241.144 41.128 240.798 40.5085 240.177 39.9993Z" fill="#C4CDDF"/>
<path d="M258.086 57.1472C258.633 56.6467 258.838 56.0396 258.703 55.3258C258.586 54.6128 258.206 53.9059 257.564 53.2049C256.905 52.4858 256.238 52.0329 255.565 51.8462C254.901 51.6512 254.277 51.8206 253.694 52.3545C253.312 52.7048 253.107 53.1022 253.079 53.5467C253.06 53.9828 253.136 54.4319 253.308 54.8938C253.49 55.3474 253.77 55.9277 254.15 56.6346C254.602 57.4933 254.933 58.2112 255.144 58.7885C255.372 59.3665 255.442 59.9638 255.354 60.5804C255.284 61.1978 254.952 61.7776 254.361 62.3198C253.423 63.179 252.452 63.4993 251.448 63.2807C250.461 63.0629 249.517 62.4624 248.617 61.4793C247.682 60.4597 247.141 59.4486 246.992 58.4459C246.853 57.4348 247.257 56.4955 248.203 55.628L248.462 55.4164L249.1 56.1128L248.719 56.437C248.054 57.0459 247.788 57.7334 247.921 58.4995C248.062 59.2572 248.496 60.0321 249.222 60.8241C250.84 62.59 252.318 62.8599 253.657 61.6336C254.084 61.2416 254.318 60.8017 254.356 60.314C254.404 59.8354 254.333 59.3561 254.144 58.8759C253.964 58.4049 253.676 57.7893 253.281 57.0293C252.845 56.1888 252.526 55.4932 252.323 54.9426C252.12 54.3919 252.053 53.8253 252.122 53.2428C252.2 52.652 252.517 52.1021 253.072 51.5933C253.837 50.8925 254.677 50.6583 255.593 50.8905C256.518 51.1319 257.389 51.6986 258.207 52.5907C259.049 53.5101 259.533 54.44 259.658 55.3806C259.783 56.3211 259.427 57.1751 258.589 57.9425L258.412 58.1052L257.786 57.4225L258.086 57.1472Z" fill="#C4CDDF"/>
<path d="M256.802 71.9359C256.627 71.8655 256.45 71.7506 256.271 71.5913C256.089 71.4492 255.932 71.2888 255.8 71.11C255.463 70.6531 255.33 70.183 255.403 69.6995C255.476 69.216 255.785 68.7725 256.331 68.369L261.754 64.3637L261.138 63.5294L261.823 63.0232L262.439 63.8575L265.066 62.332L265.429 62.8236L263.001 64.6172L264.31 66.39L263.625 66.8962L262.315 65.1234L256.922 69.1068C256.525 69.4002 256.312 69.6728 256.283 69.9245C256.271 70.1787 256.361 70.435 256.552 70.6932C256.632 70.8024 256.767 70.9331 256.956 71.0851C257.145 71.2371 257.317 71.3557 257.472 71.4408L256.802 71.9359Z" fill="#C4CDDF"/>
<path d="M264.376 81.5325C263.787 81.529 263.226 81.3752 262.694 81.0712C262.162 80.7673 261.726 80.3503 261.386 79.8203C260.826 78.9473 260.622 78.0806 260.774 77.2201C260.933 76.3701 261.511 75.6251 262.509 74.9852L267.638 71.6954L268.148 72.4904L263.253 75.6302C262.411 76.1702 261.905 76.7658 261.736 77.417C261.574 78.0786 261.723 78.7679 262.183 79.485C262.476 79.9423 262.852 80.288 263.31 80.5221C263.768 80.7563 264.256 80.854 264.774 80.8152C265.299 80.7868 265.795 80.6226 266.262 80.3226L271.157 77.1828L271.667 77.9778L264.777 82.3976C264.434 82.6176 264.353 82.8679 264.533 83.1485C264.686 83.3875 264.936 83.594 265.282 83.7679L264.612 84.1979C264.228 84.0336 263.915 83.7643 263.675 83.3902C263.449 83.0368 263.415 82.6989 263.575 82.3763C263.745 82.0471 264.012 81.7658 264.376 81.5325Z" fill="#C4CDDF"/>
<path d="M270.137 93.3184C268.867 93.1895 267.915 92.5033 267.282 91.2599C266.778 90.2695 266.735 89.2731 267.153 88.2707C267.587 87.2736 268.547 86.397 270.033 85.6409L270.214 85.5485C271.084 85.1061 271.902 84.8766 272.669 84.86C273.448 84.8379 274.125 84.9987 274.702 85.3424C275.279 85.6862 275.727 86.1716 276.046 86.7989C276.343 87.3821 276.488 87.9663 276.481 88.5517C276.491 89.1425 276.357 89.6818 276.079 90.1698L280.7 87.8174L281.129 88.6592L269.245 94.708L268.959 94.1469L270.137 93.3184ZM273.265 91.6229C274.398 91.046 275.119 90.3671 275.428 89.5863C275.754 88.8109 275.721 88.0381 275.329 87.2678C274.942 86.5086 274.34 86.0325 273.521 85.8396C272.703 85.6466 271.732 85.8358 270.61 86.4071L270.428 86.4995C269.141 87.1548 268.326 87.8674 267.984 88.6374C267.652 89.4018 267.685 90.1747 268.083 90.9559C268.486 91.7482 269.089 92.2381 269.891 92.4256C270.709 92.6185 271.768 92.3846 273.066 91.7237L273.265 91.6229Z" fill="#C4CDDF"/>
<path d="M283.644 95.7756L284.035 96.7957L283.102 97.1541L282.71 96.1339L283.644 95.7756ZM271.221 100.623L280.057 97.2317L280.395 98.1136L271.56 101.505L271.221 100.623Z" fill="#C4CDDF"/>
<path d="M278.81 112.293C278.083 112.532 277.403 112.58 276.771 112.437C276.143 112.306 275.601 112.022 275.146 111.587C274.703 111.148 274.373 110.6 274.158 109.943C273.915 109.204 273.875 108.489 274.038 107.799C274.216 107.116 274.594 106.505 275.17 105.964C275.746 105.424 276.509 104.998 277.459 104.685L277.723 104.599C278.673 104.286 279.539 104.171 280.319 104.252C281.104 104.345 281.764 104.616 282.301 105.063C282.854 105.518 283.252 106.115 283.494 106.854C283.714 107.523 283.764 108.169 283.644 108.793C283.54 109.426 283.263 109.985 282.812 110.471C282.372 110.953 281.772 111.32 281.009 111.57L279.883 111.94L277.789 105.571L277.649 105.618C276.476 106.003 275.665 106.562 275.217 107.294C274.773 108.038 274.689 108.832 274.967 109.677C275.214 110.428 275.647 110.974 276.266 111.316C276.889 111.67 277.641 111.703 278.521 111.413L278.81 112.293ZM282.685 107.12C282.427 106.334 281.943 105.772 281.234 105.433C280.525 105.095 279.648 105.058 278.605 105.323L280.403 110.795L280.72 110.691C281.635 110.39 282.25 109.908 282.565 109.246C282.896 108.591 282.936 107.883 282.685 107.12Z" fill="#C4CDDF"/>
<path d="M279.505 119.096C279.442 119.097 279.356 119.11 279.248 119.135C278.633 119.274 278.218 119.647 278.001 120.253C277.786 120.871 277.784 121.644 277.994 122.571C278.182 123.402 278.491 124.009 278.92 124.393C279.361 124.775 279.852 124.904 280.394 124.781C280.815 124.685 281.117 124.478 281.297 124.158C281.481 123.851 281.589 123.491 281.622 123.078C281.67 122.675 281.682 122.141 281.658 121.475C281.636 120.708 281.647 120.085 281.69 119.607C281.746 119.126 281.901 118.692 282.155 118.305C282.409 117.918 282.825 117.659 283.403 117.529C284.15 117.359 284.826 117.523 285.432 118.018C286.038 118.514 286.475 119.352 286.742 120.532C286.917 121.303 286.935 121.97 286.797 122.533C286.659 123.096 286.423 123.535 286.089 123.851C285.77 124.177 285.412 124.384 285.015 124.474L284.758 124.514L284.553 123.611L284.788 123.557C285.174 123.47 285.507 123.211 285.789 122.78C286.086 122.358 286.115 121.617 285.875 120.558C285.643 119.534 285.315 118.899 284.892 118.653C284.472 118.419 284.058 118.349 283.648 118.442C283.299 118.521 283.043 118.705 282.881 118.995C282.719 119.285 282.618 119.624 282.58 120.013C282.553 120.399 282.546 120.926 282.558 121.594C282.568 122.364 282.548 123.002 282.498 123.507C282.448 124.012 282.291 124.465 282.028 124.867C281.764 125.268 281.349 125.533 280.783 125.661C279.796 125.885 279.002 125.704 278.401 125.119C277.802 124.545 277.372 123.681 277.11 122.525C276.911 121.646 276.887 120.898 277.039 120.281C277.193 119.676 277.441 119.209 277.784 118.878C278.13 118.559 278.483 118.359 278.844 118.277C278.989 118.244 279.097 118.219 279.169 118.203C279.244 118.199 279.288 118.195 279.3 118.192L279.505 119.096Z" fill="#C4CDDF"/>
<path d="M285.985 144.593C285.517 144.629 285.071 144.546 284.646 144.343C284.234 144.14 283.896 143.844 283.63 143.456C283.365 143.068 283.214 142.64 283.178 142.172C283.142 141.704 283.226 141.264 283.429 140.852C283.633 140.44 283.922 140.102 284.298 139.838C284.686 139.572 285.114 139.422 285.582 139.385C286.05 139.349 286.49 139.433 286.902 139.636C287.326 139.839 287.67 140.128 287.935 140.504C288.199 140.88 288.349 141.302 288.386 141.769C288.422 142.237 288.339 142.683 288.136 143.108C287.934 143.532 287.638 143.877 287.25 144.142C286.874 144.406 286.452 144.557 285.985 144.593Z" fill="#C4CDDF"/>
</svg>
