<svg width="1361" height="1561" viewBox="0 0 1361 1561" fill="none" xmlns="http://www.w3.org/2000/svg">
<path d="M0 0V1537.35L1360.36 0H0Z" fill="url(#paint0_radial_77_11)"/>
<mask id="path-2-inside-1_77_11" fill="white">
<path d="M540.866 1415H595.924C600.644 1415 603.79 1411.86 603.79 1407.16V1211.86L676.153 1174.22L819.306 1411.08C820.093 1413.43 823.239 1415 825.599 1415H903.468C907.401 1415 910.547 1411.86 908.187 1407.94L743.797 1132.65C798.069 1095 835.824 1056.57 860.207 1011.86C907.401 924.02 814.587 851.078 761.888 911.471C739.864 937.353 750.089 971.078 776.832 982.059C818.52 999.314 847.622 952.255 822.453 927.157C887.737 986.765 766.607 1094.22 603.79 1170.29V855L533 935V1407.16C533 1411.86 536.146 1415 540.866 1415Z"/>
</mask>
<path d="M603.79 1211.86L603.329 1210.98L602.79 1211.26V1211.86H603.79ZM676.153 1174.22L677.009 1173.7L676.524 1172.9L675.692 1173.33L676.153 1174.22ZM819.306 1411.08L820.255 1410.76L820.22 1410.66L820.162 1410.56L819.306 1411.08ZM908.187 1407.94L907.329 1408.45L907.33 1408.46L908.187 1407.94ZM743.797 1132.65L743.227 1131.83L742.46 1132.36L742.938 1133.16L743.797 1132.65ZM860.207 1011.86L861.085 1012.34L861.088 1012.34L860.207 1011.86ZM761.888 911.471L761.134 910.813L761.126 910.823L761.888 911.471ZM776.832 982.059L777.215 981.135L777.212 981.134L776.832 982.059ZM822.453 927.157L823.127 926.418C822.725 926.052 822.104 926.073 821.729 926.467C821.354 926.86 821.361 927.481 821.747 927.865L822.453 927.157ZM603.79 1170.29H602.79V1171.87L604.213 1171.2L603.79 1170.29ZM603.79 855H604.79V852.361L603.041 854.337L603.79 855ZM533 935L532.251 934.337L532 934.621V935H533ZM540.866 1416H595.924V1414H540.866V1416ZM595.924 1416C598.511 1416 600.744 1415.14 602.333 1413.55C603.923 1411.97 604.79 1409.74 604.79 1407.16H602.79C602.79 1409.28 602.084 1410.98 600.921 1412.14C599.757 1413.3 598.058 1414 595.924 1414V1416ZM604.79 1407.16V1211.86H602.79V1407.16H604.79ZM604.252 1212.75L676.615 1175.1L675.692 1173.33L603.329 1210.98L604.252 1212.75ZM675.297 1174.73L818.451 1411.6L820.162 1410.56L677.009 1173.7L675.297 1174.73ZM818.358 1411.4C818.855 1412.88 820.055 1414.03 821.36 1414.79C822.672 1415.55 824.22 1416 825.599 1416V1414C824.618 1414 823.413 1413.67 822.365 1413.06C821.311 1412.44 820.545 1411.63 820.255 1410.76L818.358 1411.4ZM825.599 1416H903.468V1414H825.599V1416ZM903.468 1416C905.676 1416 907.768 1415.12 908.979 1413.55C910.241 1411.92 910.412 1409.7 909.044 1407.43L907.33 1408.46C908.322 1410.1 908.099 1411.42 907.395 1412.33C906.64 1413.31 905.192 1414 903.468 1414V1416ZM909.046 1407.43L744.656 1132.13L742.938 1133.16L907.329 1408.45L909.046 1407.43ZM744.367 1133.47C798.722 1095.76 836.605 1057.23 861.085 1012.34L859.329 1011.38C835.043 1055.91 797.417 1094.24 743.227 1131.83L744.367 1133.47ZM861.088 1012.34C884.891 968.03 873.428 927.328 849.179 905.338C837.067 894.354 821.76 888.039 806.101 888.326C790.424 888.614 774.481 895.518 761.134 910.813L762.641 912.128C775.644 897.228 791.065 890.602 806.138 890.326C821.228 890.049 836.055 896.136 847.835 906.819C871.37 928.162 882.717 967.852 859.326 1011.39L861.088 1012.34ZM761.126 910.823C738.664 937.22 749.078 971.744 776.453 982.984L777.212 981.134C751.101 970.413 741.064 937.485 762.649 912.119L761.126 910.823ZM776.45 982.983C797.734 991.792 815.917 984.185 825.521 971.081C835.092 958.02 836.161 939.414 823.159 926.449L821.747 927.865C833.914 939.998 833.016 957.47 823.907 969.899C814.83 982.285 797.618 989.58 777.215 981.135L776.45 982.983ZM821.778 927.895C837.821 942.543 842.389 960.059 837.752 979.362C833.094 998.752 819.127 1019.99 797.941 1041.85C755.586 1085.55 684.72 1131.37 603.367 1169.39L604.213 1171.2C685.677 1133.14 756.785 1087.19 799.377 1043.24C820.665 1021.28 834.916 999.728 839.697 979.829C844.498 959.843 839.726 941.574 823.127 926.418L821.778 927.895ZM604.79 1170.29V855H602.79V1170.29H604.79ZM603.041 854.337L532.251 934.337L533.749 935.663L604.539 855.663L603.041 854.337ZM532 935V1407.16H534V935H532ZM532 1407.16C532 1409.74 532.867 1411.97 534.457 1413.55C536.046 1415.14 538.279 1416 540.866 1416V1414C538.732 1414 537.033 1413.3 535.869 1412.14C534.706 1410.98 534 1409.28 534 1407.16H532Z" fill="#6D00C2" mask="url(#path-2-inside-1_77_11)"/>
<g style="mix-blend-mode:difference">
<rect x="490" y="843" width="460" height="12" fill="#488A40" fill-opacity="0.3"/>
</g>
<g style="mix-blend-mode:difference">
<rect x="490" y="775" width="460" height="12" fill="#488A40" fill-opacity="0.3"/>
</g>
<rect x="490" y="1415" width="460" height="12" fill="#488A40" fill-opacity="0.3"/>
<rect x="490" y="1549" width="460" height="12" fill="#488A40" fill-opacity="0.3"/>
<g style="mix-blend-mode:difference">
<path d="M490 855H950" stroke="#488A40"/>
<path d="M490 787L950 787" stroke="#488A40"/>
<path d="M490 1415H950" stroke="#488A40"/>
<path d="M490 1549H950" stroke="#488A40"/>
<path d="M490 1561L490 775" stroke="#488A40"/>
<path d="M950 1561L950 775" stroke="#488A40"/>
</g>
<circle cx="764.126" cy="910.157" r="7.72718" stroke="#95369B"/>
<circle cx="777.317" cy="981.223" r="7.72718" stroke="#95369B"/>
<circle cx="860.431" cy="1009.85" r="7.72718" stroke="#95369B"/>
<path d="M740.35 937.782L814.126 849.296" stroke="#878286" stroke-linecap="round"/>
<path d="M820.051 999.351L747.681 969.314" stroke="#878286" stroke-linecap="round"/>
<path d="M811.38 1099.75L908.668 922.098" stroke="#878286" stroke-linecap="round"/>
<path d="M822.851 927.618L905.635 985.057" stroke="#878286" stroke-linecap="round"/>
<path d="M822.851 927.618L851.501 945.663" stroke="#878286" stroke-linecap="round"/>
<path d="M603.459 1170.26L769.159 1089.9" stroke="#878286" stroke-linecap="round"/>
<circle cx="908.668" cy="922.098" r="4.53516" fill="#E5E7E0" stroke="#181915"/>
<circle cx="905.635" cy="985.057" r="4.53516" fill="#E5E7E0" stroke="#181915"/>
<circle cx="851.501" cy="945.663" r="4.53516" fill="#E5E7E0" stroke="#181915"/>
<circle cx="814.126" cy="849.296" r="4.53516" fill="#E5E7E0" stroke="#181915"/>
<circle cx="740.35" cy="937.782" r="4.53516" fill="#E5E7E0" stroke="#181915"/>
<circle cx="747.681" cy="969.314" r="4.53516" fill="#E5E7E0" stroke="#181915"/>
<circle cx="820.051" cy="999.352" r="4.53516" fill="#E5E7E0" stroke="#181915"/>
<circle cx="811.38" cy="1099.75" r="4.53516" fill="#E5E7E0" stroke="#181915"/>
<circle cx="769.158" cy="1089.68" r="4.53516" fill="#E5E7E0" stroke="#181915"/>
<rect x="594.006" y="855" width="13.684" height="13.684" transform="rotate(-45 594.006 855)" stroke="#819CA2"/>
<rect x="585.623" y="855" width="25.5389" height="25.5389" transform="rotate(-45 585.623 855)" stroke="#819CA2"/>
<rect x="587.056" y="1414.42" width="13.684" height="13.684" transform="rotate(-45 587.056 1414.42)" stroke="#819CA2"/>
<rect x="578.673" y="1414.42" width="25.5389" height="25.5389" transform="rotate(-45 578.673 1414.42)" stroke="#819CA2"/>
<rect x="531.746" y="1414.42" width="13.684" height="13.684" transform="rotate(-45 531.746 1414.42)" stroke="#819CA2"/>
<rect x="523.363" y="1414.42" width="25.5389" height="25.5389" transform="rotate(-45 523.363 1414.42)" stroke="#819CA2"/>
<rect x="894.614" y="1414.42" width="13.684" height="13.684" transform="rotate(-45 894.614 1414.42)" stroke="#819CA2"/>
<rect x="886.231" y="1414.42" width="25.5389" height="25.5389" transform="rotate(-45 886.231 1414.42)" stroke="#819CA2"/>
<rect x="816.332" y="1414.42" width="13.684" height="13.684" transform="rotate(-45 816.332 1414.42)" stroke="#819CA2"/>
<rect x="807.949" y="1414.42" width="25.5389" height="25.5389" transform="rotate(-45 807.949 1414.42)" stroke="#819CA2"/>
<rect x="523.804" y="934.464" width="13.684" height="13.684" transform="rotate(-45 523.804 934.464)" stroke="#819CA2"/>
<rect x="527.355" y="928.34" width="12.2494" height="12.2494" stroke="#995C0D"/>
<rect x="816.726" y="921.493" width="12.2494" height="12.2494" stroke="#995C0D"/>
<path d="M959.483 850.736C959.483 848.825 960.64 846.979 962.187 846.368C963.149 845.991 964.657 846.082 965.359 847.148C965.671 847.616 965.489 848.006 965.138 848.11C965.619 847.967 965.489 847.187 964.813 847.226C964.501 847.252 964.176 847.668 964.306 848.123C964.657 849.163 966.347 848.461 966.022 847.33C965.58 845.822 963.916 845.315 962.187 845.783C959.795 846.433 958.313 848.721 958.313 851.204C958.313 853.024 959.522 855.104 962.187 855.104C964.813 855.104 966.061 853.284 966.113 851.451C966.113 851.399 966.074 851.373 966.022 851.373H965.047C965.008 851.373 964.982 851.399 964.956 851.438C964.748 852.972 963.734 854.532 962.187 854.48C960.471 854.532 959.483 852.517 959.483 850.736ZM971.498 848.162C969.795 847.993 968.508 848.617 968.3 849.384C967.975 850.58 969.795 851.048 970.029 849.995C970.12 849.566 969.782 849.176 969.47 849.176C968.794 849.176 968.768 849.956 969.223 850.047C968.885 849.995 968.612 849.566 968.911 849.15C969.275 848.643 970.25 848.461 970.861 848.487C971.888 848.526 972.213 849.137 972.226 851.295C971.849 851.1 971.42 851.009 971.004 851.022C969.769 851.048 967.793 851.919 967.793 853.401C967.793 854.389 969.184 855.104 970.731 855.104C971.251 855.104 971.784 854.948 972.226 854.675V854.87C972.226 854.948 972.278 855 972.356 855H973.266C973.344 855 973.396 854.948 973.396 854.87V851.295C973.396 849.163 973.396 848.344 971.498 848.162ZM968.963 853.063C968.963 852.075 970.055 851.438 970.952 851.412C971.446 851.399 971.888 851.542 972.226 851.776V854.129C971.901 854.337 971.459 854.467 970.965 854.48C969.769 854.506 968.963 853.83 968.963 853.063ZM978.458 855.104C980.46 855.104 981.526 853.713 981.526 852.335C981.526 850.281 979.771 848.279 978.055 848.24C977.496 848.227 976.976 848.448 976.56 848.838V848.37C976.56 848.292 976.508 848.24 976.43 848.24H975.52C975.442 848.24 975.39 848.292 975.39 848.37V857.522L976.56 856.196V854.415C977.067 854.831 977.704 855.104 978.458 855.104ZM976.56 853.934V849.358C976.924 848.903 977.418 848.617 977.99 848.63C979.238 848.669 980.356 850.229 980.356 851.867C980.356 853.206 979.498 854.519 977.99 854.48C977.392 854.467 976.911 854.259 976.56 853.934ZM989.508 854.87V850.905H992.537V854.87C992.537 854.948 992.589 855 992.667 855H993.577C993.655 855 993.707 854.948 993.707 854.87V845.718L992.537 847.044V850.06H989.508V845.718L988.338 847.044V854.87C988.338 854.948 988.39 855 988.468 855H989.378C989.456 855 989.508 854.948 989.508 854.87ZM996.595 851.867C996.595 851.607 996.608 851.347 996.647 851.1H1001.46C1001.08 849.501 999.975 848.136 998.571 848.136C996.816 848.136 995.529 850.281 995.529 852.335C995.529 853.713 996.595 855.104 998.571 855.104C1000.52 855.104 1001.57 853.752 1001.61 852.4C1001.61 852.361 1001.59 852.335 1001.55 852.335H1000.57C1000.55 852.335 1000.52 852.361 1000.51 852.387C1000.35 853.531 999.624 854.519 998.571 854.48C997.362 854.519 996.595 853.206 996.595 851.867ZM996.725 850.671C996.998 849.488 997.648 848.526 998.571 848.526C999.585 848.526 1000.11 849.488 1000.33 850.671H996.725ZM1004.05 847.096C1004.44 847.096 1004.65 846.81 1004.65 846.55C1004.65 846.147 1004.4 845.718 1004.05 845.718C1003.7 845.718 1003.46 846.147 1003.46 846.55C1003.46 846.81 1003.66 847.096 1004.05 847.096ZM1003.49 854.87C1003.49 854.948 1003.55 855 1003.62 855H1004.53C1004.61 855 1004.66 854.948 1004.66 854.87V848.136L1003.49 849.462V854.87ZM1011.62 848.266V848.838C1011.2 848.448 1010.68 848.227 1010.12 848.24C1008.41 848.279 1006.65 850.281 1006.65 852.335C1006.65 853.713 1007.72 855.104 1009.72 855.104C1010.48 855.104 1011.11 854.831 1011.62 854.415V855.26C1011.62 857.938 1010.36 858.315 1009.21 858.315C1008.32 858.315 1007.3 857.795 1007.02 857.093C1006.95 856.911 1006.93 856.781 1006.94 856.69C1006.94 856.95 1007.13 857.223 1007.63 857.184C1007.94 857.158 1008.27 856.768 1008.16 856.339C1007.89 855.299 1006.16 855.689 1006.45 856.937C1006.64 857.795 1007.71 858.887 1009.5 858.887C1011.31 858.887 1012.79 858.068 1012.79 855.364V848.266C1012.79 848.188 1012.74 848.136 1012.66 848.136H1011.75C1011.67 848.136 1011.62 848.188 1011.62 848.266ZM1007.82 851.867C1007.82 850.229 1008.94 848.669 1010.19 848.63C1010.76 848.617 1011.26 848.903 1011.62 849.358V853.934C1011.27 854.259 1010.79 854.467 1010.19 854.48C1008.68 854.519 1007.82 853.206 1007.82 851.867ZM1020.82 854.87V851.269C1020.82 849.397 1018.43 848.136 1017.96 848.136C1017.74 848.136 1017.56 848.253 1015.95 850.073V845.718L1014.78 847.044V854.87C1014.78 854.948 1014.83 855 1014.91 855H1015.82C1015.9 855 1015.95 854.948 1015.95 854.87V850.593C1017.59 849.098 1017.78 849.007 1017.96 849.007C1018.24 849.007 1019.65 849.865 1019.65 851.269V854.87C1019.65 854.948 1019.7 855 1019.78 855H1020.69C1020.77 855 1020.82 854.948 1020.82 854.87ZM1023.15 848.136L1022.51 848.851H1023.75V851.971C1023.75 854.103 1023.75 855.104 1025.65 855.104C1027.14 855.104 1026.95 853.479 1026.11 853.479C1025.67 853.479 1025.43 853.882 1025.43 854.207C1025.43 854.766 1026.34 854.727 1026.34 854.259C1026.34 854.61 1026.17 854.909 1025.65 854.831C1024.92 854.727 1024.92 853.778 1024.92 851.971V848.851H1026.24L1026.52 848.552L1024.92 848.357V845.718L1023.75 847.044V848.214L1023.15 848.136Z" fill="#F4CCCC"/>
<path d="M965.047 787H966.334C966.386 787 966.438 786.961 966.412 786.896L962.525 777.757C962.525 777.744 962.486 777.718 962.473 777.718H961.355C961.329 777.718 961.316 777.731 961.303 777.757L958.3 786.909C958.287 786.961 958.326 787 958.378 787H959.041C959.093 787 959.145 786.961 959.158 786.909L960.211 783.581H963.539L964.943 786.922C964.969 786.974 965.008 787 965.047 787ZM960.38 783.022L961.42 779.733C961.511 779.46 961.81 779.473 961.914 779.72L963.305 783.022H960.38ZM970.747 780.136C968.94 780.149 967.107 782.281 969.564 783.776C972.515 785.57 972.671 785.726 972.086 786.168C971.072 786.935 969.46 786.636 968.992 786.077C968.654 785.687 968.875 785.232 969.213 785.141C968.758 785.284 968.875 786.051 969.538 785.999C969.915 785.973 970.253 785.479 970.11 785.05C969.759 783.958 967.861 784.673 968.316 785.895C968.524 786.441 969.356 787.104 970.448 787.104C973.048 787.091 974.413 785.323 971.293 783.464C968.407 781.735 968.732 781.514 969.317 781.072C970.331 780.305 971.735 780.487 972.203 781.046C972.541 781.436 972.32 781.891 971.982 781.982C972.437 781.839 972.32 781.072 971.657 781.124C971.28 781.15 971.046 781.566 971.176 781.995C971.501 783.022 973.269 782.385 972.84 781.228C972.645 780.682 971.839 780.123 970.747 780.136ZM975.765 783.867C975.765 783.607 975.778 783.347 975.817 783.1H980.627C980.25 781.501 979.145 780.136 977.741 780.136C975.986 780.136 974.699 782.281 974.699 784.335C974.699 785.713 975.765 787.104 977.741 787.104C979.691 787.104 980.744 785.752 980.783 784.4C980.783 784.361 980.757 784.335 980.718 784.335H979.743C979.717 784.335 979.691 784.361 979.678 784.387C979.522 785.531 978.794 786.519 977.741 786.48C976.532 786.519 975.765 785.206 975.765 783.867ZM975.895 782.671C976.168 781.488 976.818 780.526 977.741 780.526C978.755 780.526 979.275 781.488 979.496 782.671H975.895ZM988.671 786.87V783.269C988.671 781.397 986.279 780.136 985.811 780.136C985.59 780.136 985.408 780.253 983.796 782.073V780.24L982.626 781.566V786.87C982.626 786.948 982.678 787 982.756 787H983.666C983.744 787 983.796 786.948 983.796 786.87V782.593C985.434 781.098 985.629 781.007 985.811 781.007C986.084 781.007 987.501 781.865 987.501 783.269V786.87C987.501 786.948 987.553 787 987.631 787H988.541C988.619 787 988.671 786.948 988.671 786.87ZM993.495 787.104C994.249 787.104 994.886 786.831 995.393 786.415V786.87C995.393 786.948 995.445 787 995.523 787H996.433C996.511 787 996.563 786.948 996.563 786.87V777.718L995.393 779.044V780.838C994.977 780.448 994.457 780.227 993.898 780.24C992.182 780.279 990.427 782.281 990.427 784.335C990.427 785.713 991.493 787.104 993.495 787.104ZM991.597 783.867C991.597 782.229 992.715 780.669 993.963 780.63C994.535 780.617 995.029 780.903 995.393 781.358V785.934C995.042 786.259 994.561 786.467 993.963 786.48C992.455 786.519 991.597 785.206 991.597 783.867ZM999.388 783.867C999.388 783.607 999.401 783.347 999.44 783.1H1004.25C1003.87 781.501 1002.77 780.136 1001.36 780.136C999.609 780.136 998.322 782.281 998.322 784.335C998.322 785.713 999.388 787.104 1001.36 787.104C1003.31 787.104 1004.37 785.752 1004.41 784.4C1004.41 784.361 1004.38 784.335 1004.34 784.335H1003.37C1003.34 784.335 1003.31 784.361 1003.3 784.387C1003.15 785.531 1002.42 786.519 1001.36 786.48C1000.16 786.519 999.388 785.206 999.388 783.867ZM999.518 782.671C999.791 781.488 1000.44 780.526 1001.36 780.526C1002.38 780.526 1002.9 781.488 1003.12 782.671H999.518ZM1008.15 780.162C1006.25 780.344 1006.25 781.163 1006.25 783.295V786.87C1006.25 786.948 1006.3 787 1006.38 787H1007.29C1007.37 787 1007.42 786.948 1007.42 786.87V783.399C1007.42 781.163 1007.74 780.526 1008.78 780.487C1009.39 780.461 1010.11 780.643 1010.47 781.15C1010.77 781.566 1010.5 781.995 1010.16 782.047C1010.62 781.956 1010.59 781.176 1009.91 781.176C1009.6 781.176 1009.26 781.566 1009.36 781.995C1009.59 783.048 1011.41 782.58 1011.08 781.384C1010.88 780.617 1009.85 779.993 1008.15 780.162Z" fill="#F4CCCC"/>
<path d="M958.651 1549H959.561C959.639 1549 959.691 1548.95 959.691 1548.87V1548.6C960.276 1548.92 960.939 1549.1 961.68 1549.1C964.475 1549.1 965.957 1547.17 965.957 1544.97C965.957 1542.37 963.669 1539.52 961.108 1539.52C960.393 1539.52 959.691 1539.72 959.691 1539.72L958.521 1541.04V1548.87C958.521 1548.95 958.573 1549 958.651 1549ZM959.691 1547.92V1540.39C959.691 1540.39 960.172 1540.07 961.017 1540.07C962.915 1540.07 964.787 1542.3 964.787 1544.59C964.787 1546.54 963.123 1548.28 961.017 1548.23C960.51 1548.22 960.081 1548.12 959.691 1547.92ZM968.847 1545.87C968.847 1545.61 968.86 1545.35 968.899 1545.1H973.709C973.332 1543.5 972.227 1542.14 970.823 1542.14C969.068 1542.14 967.781 1544.28 967.781 1546.33C967.781 1547.71 968.847 1549.1 970.823 1549.1C972.773 1549.1 973.826 1547.75 973.865 1546.4C973.865 1546.36 973.839 1546.33 973.8 1546.33H972.825C972.799 1546.33 972.773 1546.36 972.76 1546.39C972.604 1547.53 971.876 1548.52 970.823 1548.48C969.614 1548.52 968.847 1547.21 968.847 1545.87ZM968.977 1544.67C969.25 1543.49 969.9 1542.53 970.823 1542.53C971.837 1542.53 972.357 1543.49 972.578 1544.67H968.977ZM977.97 1542.14C976.163 1542.15 974.33 1544.28 976.787 1545.78C979.738 1547.57 979.894 1547.73 979.309 1548.17C978.295 1548.93 976.683 1548.64 976.215 1548.08C975.877 1547.69 976.098 1547.23 976.436 1547.14C975.981 1547.28 976.098 1548.05 976.761 1548C977.138 1547.97 977.476 1547.48 977.333 1547.05C976.982 1545.96 975.084 1546.67 975.539 1547.89C975.747 1548.44 976.579 1549.1 977.671 1549.1C980.271 1549.09 981.636 1547.32 978.516 1545.46C975.63 1543.73 975.955 1543.51 976.54 1543.07C977.554 1542.3 978.958 1542.49 979.426 1543.05C979.764 1543.44 979.543 1543.89 979.205 1543.98C979.66 1543.84 979.543 1543.07 978.88 1543.12C978.503 1543.15 978.269 1543.57 978.399 1543.99C978.724 1545.02 980.492 1544.38 980.063 1543.23C979.868 1542.68 979.062 1542.12 977.97 1542.14ZM982.988 1545.87C982.988 1545.61 983.001 1545.35 983.04 1545.1H987.85C987.473 1543.5 986.368 1542.14 984.964 1542.14C983.209 1542.14 981.922 1544.28 981.922 1546.33C981.922 1547.71 982.988 1549.1 984.964 1549.1C986.914 1549.1 987.967 1547.75 988.006 1546.4C988.006 1546.36 987.98 1546.33 987.941 1546.33H986.966C986.94 1546.33 986.914 1546.36 986.901 1546.39C986.745 1547.53 986.017 1548.52 984.964 1548.48C983.755 1548.52 982.988 1547.21 982.988 1545.87ZM983.118 1544.67C983.391 1543.49 984.041 1542.53 984.964 1542.53C985.978 1542.53 986.498 1543.49 986.719 1544.67H983.118ZM995.893 1548.87V1545.27C995.893 1543.4 993.501 1542.14 993.033 1542.14C992.812 1542.14 992.63 1542.25 991.018 1544.07V1542.24L989.848 1543.57V1548.87C989.848 1548.95 989.9 1549 989.978 1549H990.888C990.966 1549 991.018 1548.95 991.018 1548.87V1544.59C992.656 1543.1 992.851 1543.01 993.033 1543.01C993.306 1543.01 994.723 1543.86 994.723 1545.27V1548.87C994.723 1548.95 994.775 1549 994.853 1549H995.763C995.841 1549 995.893 1548.95 995.893 1548.87ZM1000.72 1549.1C1001.47 1549.1 1002.11 1548.83 1002.62 1548.41V1548.87C1002.62 1548.95 1002.67 1549 1002.75 1549H1003.66C1003.73 1549 1003.79 1548.95 1003.79 1548.87V1539.72L1002.62 1541.04V1542.84C1002.2 1542.45 1001.68 1542.23 1001.12 1542.24C999.404 1542.28 997.649 1544.28 997.649 1546.33C997.649 1547.71 998.715 1549.1 1000.72 1549.1ZM998.819 1545.87C998.819 1544.23 999.937 1542.67 1001.19 1542.63C1001.76 1542.62 1002.25 1542.9 1002.62 1543.36V1547.93C1002.26 1548.26 1001.78 1548.47 1001.19 1548.48C999.677 1548.52 998.819 1547.21 998.819 1545.87ZM1006.61 1545.87C1006.61 1545.61 1006.62 1545.35 1006.66 1545.1H1011.47C1011.1 1543.5 1009.99 1542.14 1008.59 1542.14C1006.83 1542.14 1005.54 1544.28 1005.54 1546.33C1005.54 1547.71 1006.61 1549.1 1008.59 1549.1C1010.54 1549.1 1011.59 1547.75 1011.63 1546.4C1011.63 1546.36 1011.6 1546.33 1011.56 1546.33H1010.59C1010.56 1546.33 1010.54 1546.36 1010.52 1546.39C1010.37 1547.53 1009.64 1548.52 1008.59 1548.48C1007.38 1548.52 1006.61 1547.21 1006.61 1545.87ZM1006.74 1544.67C1007.01 1543.49 1007.66 1542.53 1008.59 1542.53C1009.6 1542.53 1010.12 1543.49 1010.34 1544.67H1006.74ZM1015.37 1542.16C1013.47 1542.34 1013.47 1543.16 1013.47 1545.29V1548.87C1013.47 1548.95 1013.52 1549 1013.6 1549H1014.51C1014.59 1549 1014.64 1548.95 1014.64 1548.87V1545.4C1014.64 1543.16 1014.97 1542.53 1016.01 1542.49C1016.62 1542.46 1017.33 1542.64 1017.7 1543.15C1018 1543.57 1017.72 1543.99 1017.38 1544.05C1017.84 1543.96 1017.81 1543.18 1017.14 1543.18C1016.83 1543.18 1016.49 1543.57 1016.58 1543.99C1016.81 1545.05 1018.63 1544.58 1018.31 1543.38C1018.1 1542.62 1017.07 1541.99 1015.37 1542.16Z" fill="#F4CCCC"/>
<path d="M958.651 1415H959.691C962.395 1415.22 964.722 1414.74 964.722 1412.06C964.722 1411.03 963.981 1408.89 960.874 1409.38V1409.37C962.46 1408.89 962.902 1408.27 962.902 1407.49C962.902 1406.51 961.953 1405.72 959.691 1405.72L958.521 1407.04V1414.87C958.521 1414.95 958.573 1415 958.651 1415ZM959.691 1414.22V1409.83C961.017 1409.27 963.552 1409.83 963.552 1412.06C963.552 1414.3 961.017 1414.66 959.691 1414.22ZM959.691 1409.44V1406.5C960.991 1406.29 962.122 1406.93 962.122 1407.72C962.122 1408.62 960.991 1409.14 959.691 1409.44ZM970.177 1408.16C968.474 1407.99 967.187 1408.62 966.979 1409.38C966.654 1410.58 968.474 1411.05 968.708 1409.99C968.799 1409.57 968.461 1409.18 968.149 1409.18C967.473 1409.18 967.447 1409.96 967.902 1410.05C967.564 1409.99 967.291 1409.57 967.59 1409.15C967.954 1408.64 968.929 1408.46 969.54 1408.49C970.567 1408.53 970.892 1409.14 970.905 1411.29C970.528 1411.1 970.099 1411.01 969.683 1411.02C968.448 1411.05 966.472 1411.92 966.472 1413.4C966.472 1414.39 967.863 1415.1 969.41 1415.1C969.93 1415.1 970.463 1414.95 970.905 1414.67V1414.87C970.905 1414.95 970.957 1415 971.035 1415H971.945C972.023 1415 972.075 1414.95 972.075 1414.87V1411.29C972.075 1409.16 972.075 1408.34 970.177 1408.16ZM967.642 1413.06C967.642 1412.07 968.734 1411.44 969.631 1411.41C970.125 1411.4 970.567 1411.54 970.905 1411.78V1414.13C970.58 1414.34 970.138 1414.47 969.644 1414.48C968.448 1414.51 967.642 1413.83 967.642 1413.06ZM976.332 1408.14C974.525 1408.15 972.692 1410.28 975.149 1411.78C978.1 1413.57 978.256 1413.73 977.671 1414.17C976.657 1414.93 975.045 1414.64 974.577 1414.08C974.239 1413.69 974.46 1413.23 974.798 1413.14C974.343 1413.28 974.46 1414.05 975.123 1414C975.5 1413.97 975.838 1413.48 975.695 1413.05C975.344 1411.96 973.446 1412.67 973.901 1413.89C974.109 1414.44 974.941 1415.1 976.033 1415.1C978.633 1415.09 979.998 1413.32 976.878 1411.46C973.992 1409.73 974.317 1409.51 974.902 1409.07C975.916 1408.3 977.32 1408.49 977.788 1409.05C978.126 1409.44 977.905 1409.89 977.567 1409.98C978.022 1409.84 977.905 1409.07 977.242 1409.12C976.865 1409.15 976.631 1409.57 976.761 1409.99C977.086 1411.02 978.854 1410.38 978.425 1409.23C978.23 1408.68 977.424 1408.12 976.332 1408.14ZM981.35 1411.87C981.35 1411.61 981.363 1411.35 981.402 1411.1H986.212C985.835 1409.5 984.73 1408.14 983.326 1408.14C981.571 1408.14 980.284 1410.28 980.284 1412.33C980.284 1413.71 981.35 1415.1 983.326 1415.1C985.276 1415.1 986.329 1413.75 986.368 1412.4C986.368 1412.36 986.342 1412.33 986.303 1412.33H985.328C985.302 1412.33 985.276 1412.36 985.263 1412.39C985.107 1413.53 984.379 1414.52 983.326 1414.48C982.117 1414.52 981.35 1413.21 981.35 1411.87ZM981.48 1410.67C981.753 1409.49 982.403 1408.53 983.326 1408.53C984.34 1408.53 984.86 1409.49 985.081 1410.67H981.48ZM989.381 1411.97V1405.72L988.211 1407.04V1411.97C988.211 1414.1 988.211 1415.1 990.109 1415.1C991.604 1415.1 991.409 1413.48 990.577 1413.48C990.135 1413.48 989.888 1413.88 989.888 1414.21C989.888 1414.77 990.798 1414.73 990.798 1414.26C990.798 1414.61 990.629 1414.91 990.109 1414.83C989.381 1414.73 989.381 1413.78 989.381 1411.97ZM993.416 1407.1C993.806 1407.1 994.014 1406.81 994.014 1406.55C994.014 1406.15 993.767 1405.72 993.416 1405.72C993.065 1405.72 992.818 1406.15 992.818 1406.55C992.818 1406.81 993.026 1407.1 993.416 1407.1ZM992.857 1414.87C992.857 1414.95 992.909 1415 992.987 1415H993.897C993.975 1415 994.027 1414.95 994.027 1414.87V1408.14L992.857 1409.46V1414.87ZM1002.06 1414.87V1411.27C1002.06 1409.4 999.669 1408.14 999.201 1408.14C998.98 1408.14 998.798 1408.25 997.186 1410.07V1408.24L996.016 1409.57V1414.87C996.016 1414.95 996.068 1415 996.146 1415H997.056C997.134 1415 997.186 1414.95 997.186 1414.87V1410.59C998.824 1409.1 999.019 1409.01 999.201 1409.01C999.474 1409.01 1000.89 1409.86 1000.89 1411.27V1414.87C1000.89 1414.95 1000.94 1415 1001.02 1415H1001.93C1002.01 1415 1002.06 1414.95 1002.06 1414.87ZM1004.88 1411.87C1004.88 1411.61 1004.9 1411.35 1004.94 1411.1H1009.75C1009.37 1409.5 1008.26 1408.14 1006.86 1408.14C1005.1 1408.14 1003.82 1410.28 1003.82 1412.33C1003.82 1413.71 1004.88 1415.1 1006.86 1415.1C1008.81 1415.1 1009.86 1413.75 1009.9 1412.4C1009.9 1412.36 1009.88 1412.33 1009.84 1412.33H1008.86C1008.84 1412.33 1008.81 1412.36 1008.8 1412.39C1008.64 1413.53 1007.91 1414.52 1006.86 1414.48C1005.65 1414.52 1004.88 1413.21 1004.88 1411.87ZM1005.01 1410.67C1005.29 1409.49 1005.94 1408.53 1006.86 1408.53C1007.87 1408.53 1008.39 1409.49 1008.61 1410.67H1005.01Z" fill="#F4CCCC"/>
<defs>
<radialGradient id="paint0_radial_77_11" cx="0" cy="0" r="1" gradientUnits="userSpaceOnUse" gradientTransform="rotate(40.0967) scale(1108.56 1205.12)">
<stop stop-color="#DADADA"/>
<stop offset="1" stop-color="#FFF4F4"/>
</radialGradient>
</defs>
</svg>
