<svg width="539" height="787" viewBox="0 0 539 787" fill="none" xmlns="http://www.w3.org/2000/svg">
<rect x="1" y="69" width="460" height="12" fill="#488A40" fill-opacity="0.3"/>
<rect x="1" y="1" width="460" height="12" fill="#488A40" fill-opacity="0.3"/>
<path d="M1 81H461" stroke="#9DB3AB"/>
<path d="M1 13L461 13" stroke="#9DB3AB"/>
<path d="M470.482 75.736C470.482 73.825 471.639 71.979 473.186 71.368C474.148 70.991 475.656 71.082 476.358 72.148C476.67 72.616 476.488 73.006 476.137 73.11C476.618 72.967 476.488 72.187 475.812 72.226C475.5 72.252 475.175 72.668 475.305 73.123C475.656 74.163 477.346 73.461 477.021 72.33C476.579 70.822 474.915 70.315 473.186 70.783C470.794 71.433 469.312 73.721 469.312 76.204C469.312 78.024 470.521 80.104 473.186 80.104C475.812 80.104 477.06 78.284 477.112 76.451C477.112 76.399 477.073 76.373 477.021 76.373H476.046C476.007 76.373 475.981 76.399 475.955 76.438C475.747 77.972 474.733 79.532 473.186 79.48C471.47 79.532 470.482 77.517 470.482 75.736ZM482.497 73.162C480.794 72.993 479.507 73.617 479.299 74.384C478.974 75.58 480.794 76.048 481.028 74.995C481.119 74.566 480.781 74.176 480.469 74.176C479.793 74.176 479.767 74.956 480.222 75.047C479.884 74.995 479.611 74.566 479.91 74.15C480.274 73.643 481.249 73.461 481.86 73.487C482.887 73.526 483.212 74.137 483.225 76.295C482.848 76.1 482.419 76.009 482.003 76.022C480.768 76.048 478.792 76.919 478.792 78.401C478.792 79.389 480.183 80.104 481.73 80.104C482.25 80.104 482.783 79.948 483.225 79.675V79.87C483.225 79.948 483.277 80 483.355 80H484.265C484.343 80 484.395 79.948 484.395 79.87V76.295C484.395 74.163 484.395 73.344 482.497 73.162ZM479.962 78.063C479.962 77.075 481.054 76.438 481.951 76.412C482.445 76.399 482.887 76.542 483.225 76.776V79.129C482.9 79.337 482.458 79.467 481.964 79.48C480.768 79.506 479.962 78.83 479.962 78.063ZM489.457 80.104C491.459 80.104 492.525 78.713 492.525 77.335C492.525 75.281 490.77 73.279 489.054 73.24C488.495 73.227 487.975 73.448 487.559 73.838V73.37C487.559 73.292 487.507 73.24 487.429 73.24H486.519C486.441 73.24 486.389 73.292 486.389 73.37V82.522L487.559 81.196V79.415C488.066 79.831 488.703 80.104 489.457 80.104ZM487.559 78.934V74.358C487.923 73.903 488.417 73.617 488.989 73.63C490.237 73.669 491.355 75.229 491.355 76.867C491.355 78.206 490.497 79.519 488.989 79.48C488.391 79.467 487.91 79.259 487.559 78.934ZM500.507 79.87V75.905H503.536V79.87C503.536 79.948 503.588 80 503.666 80H504.576C504.654 80 504.706 79.948 504.706 79.87V70.718L503.536 72.044V75.06H500.507V70.718L499.337 72.044V79.87C499.337 79.948 499.389 80 499.467 80H500.377C500.455 80 500.507 79.948 500.507 79.87ZM507.594 76.867C507.594 76.607 507.607 76.347 507.646 76.1H512.456C512.079 74.501 510.974 73.136 509.57 73.136C507.815 73.136 506.528 75.281 506.528 77.335C506.528 78.713 507.594 80.104 509.57 80.104C511.52 80.104 512.573 78.752 512.612 77.4C512.612 77.361 512.586 77.335 512.547 77.335H511.572C511.546 77.335 511.52 77.361 511.507 77.387C511.351 78.531 510.623 79.519 509.57 79.48C508.361 79.519 507.594 78.206 507.594 76.867ZM507.724 75.671C507.997 74.488 508.647 73.526 509.57 73.526C510.584 73.526 511.104 74.488 511.325 75.671H507.724ZM515.053 72.096C515.443 72.096 515.651 71.81 515.651 71.55C515.651 71.147 515.404 70.718 515.053 70.718C514.702 70.718 514.455 71.147 514.455 71.55C514.455 71.81 514.663 72.096 515.053 72.096ZM514.494 79.87C514.494 79.948 514.546 80 514.624 80H515.534C515.612 80 515.664 79.948 515.664 79.87V73.136L514.494 74.462V79.87ZM522.619 73.266V73.838C522.203 73.448 521.683 73.227 521.124 73.24C519.408 73.279 517.653 75.281 517.653 77.335C517.653 78.713 518.719 80.104 520.721 80.104C521.475 80.104 522.112 79.831 522.619 79.415V80.26C522.619 82.938 521.358 83.315 520.214 83.315C519.317 83.315 518.303 82.795 518.017 82.093C517.952 81.911 517.926 81.781 517.939 81.69C517.939 81.95 518.134 82.223 518.628 82.184C518.94 82.158 519.265 81.768 519.161 81.339C518.888 80.299 517.159 80.689 517.445 81.937C517.64 82.795 518.706 83.887 520.5 83.887C522.307 83.887 523.789 83.068 523.789 80.364V73.266C523.789 73.188 523.737 73.136 523.659 73.136H522.749C522.671 73.136 522.619 73.188 522.619 73.266ZM518.823 76.867C518.823 75.229 519.941 73.669 521.189 73.63C521.761 73.617 522.255 73.903 522.619 74.358V78.934C522.268 79.259 521.787 79.467 521.189 79.48C519.681 79.519 518.823 78.206 518.823 76.867ZM531.822 79.87V76.269C531.822 74.397 529.43 73.136 528.962 73.136C528.741 73.136 528.559 73.253 526.947 75.073V70.718L525.777 72.044V79.87C525.777 79.948 525.829 80 525.907 80H526.817C526.895 80 526.947 79.948 526.947 79.87V75.593C528.585 74.098 528.78 74.007 528.962 74.007C529.235 74.007 530.652 74.865 530.652 76.269V79.87C530.652 79.948 530.704 80 530.782 80H531.692C531.77 80 531.822 79.948 531.822 79.87ZM534.15 73.136L533.513 73.851H534.748V76.971C534.748 79.103 534.748 80.104 536.646 80.104C538.141 80.104 537.946 78.479 537.114 78.479C536.672 78.479 536.425 78.882 536.425 79.207C536.425 79.766 537.335 79.727 537.335 79.259C537.335 79.61 537.166 79.909 536.646 79.831C535.918 79.727 535.918 78.778 535.918 76.971V73.851H537.244L537.517 73.552L535.918 73.357V70.718L534.748 72.044V73.214L534.15 73.136Z" fill="#DAE5C1"/>
<path d="M476.046 12H477.333C477.385 12 477.437 11.961 477.411 11.896L473.524 2.757C473.524 2.744 473.485 2.718 473.472 2.718H472.354C472.328 2.718 472.315 2.731 472.302 2.757L469.299 11.909C469.286 11.961 469.325 12 469.377 12H470.04C470.092 12 470.144 11.961 470.157 11.909L471.21 8.581H474.538L475.942 11.922C475.968 11.974 476.007 12 476.046 12ZM471.379 8.022L472.419 4.733C472.51 4.46 472.809 4.473 472.913 4.72L474.304 8.022H471.379ZM481.746 5.136C479.939 5.149 478.106 7.281 480.563 8.776C483.514 10.57 483.67 10.726 483.085 11.168C482.071 11.935 480.459 11.636 479.991 11.077C479.653 10.687 479.874 10.232 480.212 10.141C479.757 10.284 479.874 11.051 480.537 10.999C480.914 10.973 481.252 10.479 481.109 10.05C480.758 8.958 478.86 9.673 479.315 10.895C479.523 11.441 480.355 12.104 481.447 12.104C484.047 12.091 485.412 10.323 482.292 8.464C479.406 6.735 479.731 6.514 480.316 6.072C481.33 5.305 482.734 5.487 483.202 6.046C483.54 6.436 483.319 6.891 482.981 6.982C483.436 6.839 483.319 6.072 482.656 6.124C482.279 6.15 482.045 6.566 482.175 6.995C482.5 8.022 484.268 7.385 483.839 6.228C483.644 5.682 482.838 5.123 481.746 5.136ZM486.764 8.867C486.764 8.607 486.777 8.347 486.816 8.1H491.626C491.249 6.501 490.144 5.136 488.74 5.136C486.985 5.136 485.698 7.281 485.698 9.335C485.698 10.713 486.764 12.104 488.74 12.104C490.69 12.104 491.743 10.752 491.782 9.4C491.782 9.361 491.756 9.335 491.717 9.335H490.742C490.716 9.335 490.69 9.361 490.677 9.387C490.521 10.531 489.793 11.519 488.74 11.48C487.531 11.519 486.764 10.206 486.764 8.867ZM486.894 7.671C487.167 6.488 487.817 5.526 488.74 5.526C489.754 5.526 490.274 6.488 490.495 7.671H486.894ZM499.67 11.87V8.269C499.67 6.397 497.278 5.136 496.81 5.136C496.589 5.136 496.407 5.253 494.795 7.073V5.24L493.625 6.566V11.87C493.625 11.948 493.677 12 493.755 12H494.665C494.743 12 494.795 11.948 494.795 11.87V7.593C496.433 6.098 496.628 6.007 496.81 6.007C497.083 6.007 498.5 6.865 498.5 8.269V11.87C498.5 11.948 498.552 12 498.63 12H499.54C499.618 12 499.67 11.948 499.67 11.87ZM504.494 12.104C505.248 12.104 505.885 11.831 506.392 11.415V11.87C506.392 11.948 506.444 12 506.522 12H507.432C507.51 12 507.562 11.948 507.562 11.87V2.718L506.392 4.044V5.838C505.976 5.448 505.456 5.227 504.897 5.24C503.181 5.279 501.426 7.281 501.426 9.335C501.426 10.713 502.492 12.104 504.494 12.104ZM502.596 8.867C502.596 7.229 503.714 5.669 504.962 5.63C505.534 5.617 506.028 5.903 506.392 6.358V10.934C506.041 11.259 505.56 11.467 504.962 11.48C503.454 11.519 502.596 10.206 502.596 8.867ZM510.387 8.867C510.387 8.607 510.4 8.347 510.439 8.1H515.249C514.872 6.501 513.767 5.136 512.363 5.136C510.608 5.136 509.321 7.281 509.321 9.335C509.321 10.713 510.387 12.104 512.363 12.104C514.313 12.104 515.366 10.752 515.405 9.4C515.405 9.361 515.379 9.335 515.34 9.335H514.365C514.339 9.335 514.313 9.361 514.3 9.387C514.144 10.531 513.416 11.519 512.363 11.48C511.154 11.519 510.387 10.206 510.387 8.867ZM510.517 7.671C510.79 6.488 511.44 5.526 512.363 5.526C513.377 5.526 513.897 6.488 514.118 7.671H510.517ZM519.146 5.162C517.248 5.344 517.248 6.163 517.248 8.295V11.87C517.248 11.948 517.3 12 517.378 12H518.288C518.366 12 518.418 11.948 518.418 11.87V8.399C518.418 6.163 518.743 5.526 519.783 5.487C520.394 5.461 521.109 5.643 521.473 6.15C521.772 6.566 521.499 6.995 521.161 7.047C521.616 6.956 521.59 6.176 520.914 6.176C520.602 6.176 520.264 6.566 520.355 6.995C520.589 8.048 522.409 7.58 522.084 6.384C521.876 5.617 520.849 4.993 519.146 5.162Z" fill="#DAE5C1"/>
<circle cx="275.126" cy="136.157" r="7.72718" stroke="#95369B"/>
<circle cx="419.668" cy="148.098" r="4.53516" fill="#E5E7E0" stroke="#181915"/>
<circle cx="416.635" cy="211.057" r="4.53516" stroke="#95369B"/>
<circle cx="362.501" cy="171.663" r="4.53516" fill="#E5E7E0" stroke="#181915"/>
<circle cx="325.126" cy="75.2964" r="4.53516" fill="#E5E7E0" stroke="#181915"/>
<circle cx="251.35" cy="163.782" r="4.53516" fill="#E5E7E0" stroke="#181915"/>
<circle cx="288.317" cy="207.223" r="7.72718" stroke="#95369B"/>
<circle cx="371.431" cy="235.845" r="7.72718" stroke="#95369B"/>
<path d="M251.35 163.782L325.126 75.2964" stroke="#878286" stroke-linecap="round"/>
<path d="M331.051 225.351L258.681 195.314" stroke="#878286" stroke-linecap="round"/>
<path d="M322.38 325.751L419.668 148.098" stroke="#878286" stroke-linecap="round"/>
<path d="M333.851 153.618L416.635 211.057" stroke="#878286" stroke-linecap="round"/>
<path d="M333.851 153.618L362.501 171.663" stroke="#878286" stroke-linecap="round"/>
<circle cx="258.681" cy="195.314" r="4.53516" fill="#E5E7E0" stroke="#181915"/>
<circle cx="331.051" cy="225.352" r="4.53516" fill="#E5E7E0" stroke="#181915"/>
<circle cx="322.38" cy="325.751" r="4.53516" fill="#E5E7E0" stroke="#181915"/>
<circle cx="280.158" cy="315.681" r="4.53516" fill="#E5E7E0" stroke="#181915"/>
<path d="M114.459 396.259L280.159 315.9" stroke="#878286" stroke-linecap="round"/>
<rect x="105.006" y="81" width="13.684" height="13.684" transform="rotate(-45 105.006 81)" stroke="#819CA2"/>
<rect x="96.6231" y="81" width="25.5389" height="25.5389" transform="rotate(-45 96.6231 81)" stroke="#819CA2"/>
<rect x="1" y="641" width="460" height="12" fill="#488A40" fill-opacity="0.3"/>
<rect x="1" y="775" width="460" height="12" fill="#488A40" fill-opacity="0.3"/>
<path d="M1 641H461" stroke="#9DB3AB"/>
<path d="M1 775H461" stroke="#9DB3AB"/>
<path d="M1.00004 786L1 0" stroke="#9DB3AB"/>
<path d="M461 786L461 0" stroke="#9DB3AB"/>
<mask id="path-33-inside-1_89_2" fill="white">
<path d="M51.8656 641H106.924C111.644 641 114.79 637.863 114.79 633.157V437.863L187.153 400.216L330.306 637.078C331.093 639.431 334.239 641 336.599 641H414.468C418.401 641 421.547 637.863 419.187 633.941L254.797 358.647C309.069 321 346.824 282.569 371.207 237.863C418.401 150.02 325.587 77.0784 272.888 137.471C250.864 163.353 261.089 197.078 287.832 208.059C329.52 225.314 358.622 178.255 333.453 153.157C398.737 212.765 277.607 320.216 114.79 396.294V81L44 161V633.157C44 637.863 47.1462 641 51.8656 641Z"/>
</mask>
<path d="M51.8656 641H106.924C111.644 641 114.79 637.863 114.79 633.157V437.863L187.153 400.216L330.306 637.078C331.093 639.431 334.239 641 336.599 641H414.468C418.401 641 421.547 637.863 419.187 633.941L254.797 358.647C309.069 321 346.824 282.569 371.207 237.863C418.401 150.02 325.587 77.0784 272.888 137.471C250.864 163.353 261.089 197.078 287.832 208.059C329.52 225.314 358.622 178.255 333.453 153.157C398.737 212.765 277.607 320.216 114.79 396.294V81L44 161V633.157C44 637.863 47.1462 641 51.8656 641Z" fill="#8A6282" fill-opacity="0.3"/>
<path d="M114.79 437.863L114.329 436.976L113.79 437.256V437.863H114.79ZM187.153 400.216L188.009 399.698L187.524 398.896L186.692 399.329L187.153 400.216ZM330.306 637.078L331.255 636.761L331.22 636.656L331.162 636.561L330.306 637.078ZM419.187 633.941L418.329 634.454L418.33 634.457L419.187 633.941ZM254.797 358.647L254.227 357.825L253.46 358.358L253.938 359.16L254.797 358.647ZM371.207 237.863L372.085 238.342L372.088 238.336L371.207 237.863ZM272.888 137.471L272.134 136.813L272.126 136.823L272.888 137.471ZM287.832 208.059L288.215 207.135L288.212 207.134L287.832 208.059ZM333.453 153.157L334.127 152.418C333.725 152.052 333.104 152.073 332.729 152.467C332.354 152.86 332.362 153.481 332.747 153.865L333.453 153.157ZM114.79 396.294H113.79V397.865L115.213 397.2L114.79 396.294ZM114.79 81H115.79V78.3609L114.041 80.3373L114.79 81ZM44 161L43.2511 160.337L43 160.621V161H44ZM51.8656 642H106.924V640H51.8656V642ZM106.924 642C109.511 642 111.744 641.136 113.333 639.551C114.923 637.966 115.79 635.738 115.79 633.157H113.79C113.79 635.282 113.084 636.975 111.921 638.135C110.757 639.295 109.058 640 106.924 640V642ZM115.79 633.157V437.863H113.79V633.157H115.79ZM115.252 438.75L187.615 401.103L186.692 399.329L114.329 436.976L115.252 438.75ZM186.297 400.733L329.451 637.596L331.162 636.561L188.009 399.698L186.297 400.733ZM329.358 637.395C329.855 638.881 331.055 640.027 332.36 640.786C333.672 641.549 335.22 642 336.599 642V640C335.618 640 334.413 639.667 333.365 639.057C332.311 638.444 331.545 637.629 331.255 636.761L329.358 637.395ZM336.599 642H414.468V640H336.599V642ZM414.468 642C416.676 642 418.768 641.121 419.979 639.552C421.241 637.915 421.412 635.699 420.044 633.426L418.33 634.457C419.322 636.105 419.099 637.418 418.395 638.33C417.64 639.31 416.192 640 414.468 640V642ZM420.046 633.428L255.656 358.134L253.938 359.16L418.329 634.454L420.046 633.428ZM255.367 359.469C309.722 321.764 347.605 283.226 372.085 238.342L370.329 237.384C346.043 281.912 308.417 320.236 254.227 357.825L255.367 359.469ZM372.088 238.336C395.891 194.03 384.428 153.328 360.179 131.338C348.067 120.354 332.76 114.039 317.101 114.326C301.424 114.614 285.481 121.518 272.134 136.813L273.641 138.128C286.644 123.228 302.065 116.602 317.138 116.326C332.228 116.049 347.055 122.136 358.835 132.819C382.37 154.162 393.717 193.852 370.326 237.389L372.088 238.336ZM272.126 136.823C249.664 163.22 260.078 197.744 287.453 208.984L288.212 207.134C262.101 196.413 252.064 163.485 273.649 138.119L272.126 136.823ZM287.45 208.983C308.734 217.792 326.917 210.185 336.521 197.081C346.092 184.02 347.161 165.414 334.159 152.449L332.747 153.865C344.914 165.998 344.016 183.47 334.907 195.899C325.83 208.285 308.618 215.58 288.215 207.135L287.45 208.983ZM332.778 153.895C348.821 168.543 353.389 186.059 348.752 205.362C344.094 224.752 330.127 245.994 308.941 267.853C266.586 311.554 195.72 357.375 114.367 395.388L115.213 397.2C196.677 359.135 267.785 313.191 310.377 269.245C331.665 247.281 345.916 225.728 350.697 205.829C355.498 185.843 350.726 167.574 334.127 152.418L332.778 153.895ZM115.79 396.294V81H113.79V396.294H115.79ZM114.041 80.3373L43.2511 160.337L44.7489 161.663L115.539 81.6627L114.041 80.3373ZM43 161V633.157H45V161H43ZM43 633.157C43 635.738 43.8673 637.966 45.4569 639.551C47.0464 641.136 49.2795 642 51.8656 642V640C49.7323 640 48.0326 639.295 46.8691 638.135C45.7059 636.975 45 635.282 45 633.157H43Z" fill="#95369B" mask="url(#path-33-inside-1_89_2)"/>
<path d="M469.65 774H470.56C470.638 774 470.69 773.948 470.69 773.87V773.597C471.275 773.922 471.938 774.104 472.679 774.104C475.474 774.104 476.956 772.167 476.956 769.97C476.956 767.37 474.668 764.523 472.107 764.523C471.392 764.523 470.69 764.718 470.69 764.718L469.52 766.044V773.87C469.52 773.948 469.572 774 469.65 774ZM470.69 772.921V765.394C470.69 765.394 471.171 765.069 472.016 765.069C473.914 765.069 475.786 767.305 475.786 769.593C475.786 771.543 474.122 773.285 472.016 773.233C471.509 773.22 471.08 773.116 470.69 772.921ZM479.846 770.867C479.846 770.607 479.859 770.347 479.898 770.1H484.708C484.331 768.501 483.226 767.136 481.822 767.136C480.067 767.136 478.78 769.281 478.78 771.335C478.78 772.713 479.846 774.104 481.822 774.104C483.772 774.104 484.825 772.752 484.864 771.4C484.864 771.361 484.838 771.335 484.799 771.335H483.824C483.798 771.335 483.772 771.361 483.759 771.387C483.603 772.531 482.875 773.519 481.822 773.48C480.613 773.519 479.846 772.206 479.846 770.867ZM479.976 769.671C480.249 768.488 480.899 767.526 481.822 767.526C482.836 767.526 483.356 768.488 483.577 769.671H479.976ZM488.969 767.136C487.162 767.149 485.329 769.281 487.786 770.776C490.737 772.57 490.893 772.726 490.308 773.168C489.294 773.935 487.682 773.636 487.214 773.077C486.876 772.687 487.097 772.232 487.435 772.141C486.98 772.284 487.097 773.051 487.76 772.999C488.137 772.973 488.475 772.479 488.332 772.05C487.981 770.958 486.083 771.673 486.538 772.895C486.746 773.441 487.578 774.104 488.67 774.104C491.27 774.091 492.635 772.323 489.515 770.464C486.629 768.735 486.954 768.514 487.539 768.072C488.553 767.305 489.957 767.487 490.425 768.046C490.763 768.436 490.542 768.891 490.204 768.982C490.659 768.839 490.542 768.072 489.879 768.124C489.502 768.15 489.268 768.566 489.398 768.995C489.723 770.022 491.491 769.385 491.062 768.228C490.867 767.682 490.061 767.123 488.969 767.136ZM493.987 770.867C493.987 770.607 494 770.347 494.039 770.1H498.849C498.472 768.501 497.367 767.136 495.963 767.136C494.208 767.136 492.921 769.281 492.921 771.335C492.921 772.713 493.987 774.104 495.963 774.104C497.913 774.104 498.966 772.752 499.005 771.4C499.005 771.361 498.979 771.335 498.94 771.335H497.965C497.939 771.335 497.913 771.361 497.9 771.387C497.744 772.531 497.016 773.519 495.963 773.48C494.754 773.519 493.987 772.206 493.987 770.867ZM494.117 769.671C494.39 768.488 495.04 767.526 495.963 767.526C496.977 767.526 497.497 768.488 497.718 769.671H494.117ZM506.892 773.87V770.269C506.892 768.397 504.5 767.136 504.032 767.136C503.811 767.136 503.629 767.253 502.017 769.073V767.24L500.847 768.566V773.87C500.847 773.948 500.899 774 500.977 774H501.887C501.965 774 502.017 773.948 502.017 773.87V769.593C503.655 768.098 503.85 768.007 504.032 768.007C504.305 768.007 505.722 768.865 505.722 770.269V773.87C505.722 773.948 505.774 774 505.852 774H506.762C506.84 774 506.892 773.948 506.892 773.87ZM511.716 774.104C512.47 774.104 513.107 773.831 513.614 773.415V773.87C513.614 773.948 513.666 774 513.744 774H514.654C514.732 774 514.784 773.948 514.784 773.87V764.718L513.614 766.044V767.838C513.198 767.448 512.678 767.227 512.119 767.24C510.403 767.279 508.648 769.281 508.648 771.335C508.648 772.713 509.714 774.104 511.716 774.104ZM509.818 770.867C509.818 769.229 510.936 767.669 512.184 767.63C512.756 767.617 513.25 767.903 513.614 768.358V772.934C513.263 773.259 512.782 773.467 512.184 773.48C510.676 773.519 509.818 772.206 509.818 770.867ZM517.61 770.867C517.61 770.607 517.623 770.347 517.662 770.1H522.472C522.095 768.501 520.99 767.136 519.586 767.136C517.831 767.136 516.544 769.281 516.544 771.335C516.544 772.713 517.61 774.104 519.586 774.104C521.536 774.104 522.589 772.752 522.628 771.4C522.628 771.361 522.602 771.335 522.563 771.335H521.588C521.562 771.335 521.536 771.361 521.523 771.387C521.367 772.531 520.639 773.519 519.586 773.48C518.377 773.519 517.61 772.206 517.61 770.867ZM517.74 769.671C518.013 768.488 518.663 767.526 519.586 767.526C520.6 767.526 521.12 768.488 521.341 769.671H517.74ZM526.368 767.162C524.47 767.344 524.47 768.163 524.47 770.295V773.87C524.47 773.948 524.522 774 524.6 774H525.51C525.588 774 525.64 773.948 525.64 773.87V770.399C525.64 768.163 525.965 767.526 527.005 767.487C527.616 767.461 528.331 767.643 528.695 768.15C528.994 768.566 528.721 768.995 528.383 769.047C528.838 768.956 528.812 768.176 528.136 768.176C527.824 768.176 527.486 768.566 527.577 768.995C527.811 770.048 529.631 769.58 529.306 768.384C529.098 767.617 528.071 766.993 526.368 767.162Z" fill="#DAE5C1"/>
<path d="M469.65 640H470.69C473.394 640.221 475.721 639.74 475.721 637.062C475.721 636.035 474.98 633.89 471.873 634.384V634.371C473.459 633.89 473.901 633.266 473.901 632.486C473.901 631.511 472.952 630.718 470.69 630.718L469.52 632.044V639.87C469.52 639.948 469.572 640 469.65 640ZM470.69 639.22V634.826C472.016 634.267 474.551 634.826 474.551 637.062C474.551 639.298 472.016 639.662 470.69 639.22ZM470.69 634.436V631.498C471.99 631.29 473.121 631.927 473.121 632.72C473.121 633.617 471.99 634.137 470.69 634.436ZM481.176 633.162C479.473 632.993 478.186 633.617 477.978 634.384C477.653 635.58 479.473 636.048 479.707 634.995C479.798 634.566 479.46 634.176 479.148 634.176C478.472 634.176 478.446 634.956 478.901 635.047C478.563 634.995 478.29 634.566 478.589 634.15C478.953 633.643 479.928 633.461 480.539 633.487C481.566 633.526 481.891 634.137 481.904 636.295C481.527 636.1 481.098 636.009 480.682 636.022C479.447 636.048 477.471 636.919 477.471 638.401C477.471 639.389 478.862 640.104 480.409 640.104C480.929 640.104 481.462 639.948 481.904 639.675V639.87C481.904 639.948 481.956 640 482.034 640H482.944C483.022 640 483.074 639.948 483.074 639.87V636.295C483.074 634.163 483.074 633.344 481.176 633.162ZM478.641 638.063C478.641 637.075 479.733 636.438 480.63 636.412C481.124 636.399 481.566 636.542 481.904 636.776V639.129C481.579 639.337 481.137 639.467 480.643 639.48C479.447 639.506 478.641 638.83 478.641 638.063ZM487.331 633.136C485.524 633.149 483.691 635.281 486.148 636.776C489.099 638.57 489.255 638.726 488.67 639.168C487.656 639.935 486.044 639.636 485.576 639.077C485.238 638.687 485.459 638.232 485.797 638.141C485.342 638.284 485.459 639.051 486.122 638.999C486.499 638.973 486.837 638.479 486.694 638.05C486.343 636.958 484.445 637.673 484.9 638.895C485.108 639.441 485.94 640.104 487.032 640.104C489.632 640.091 490.997 638.323 487.877 636.464C484.991 634.735 485.316 634.514 485.901 634.072C486.915 633.305 488.319 633.487 488.787 634.046C489.125 634.436 488.904 634.891 488.566 634.982C489.021 634.839 488.904 634.072 488.241 634.124C487.864 634.15 487.63 634.566 487.76 634.995C488.085 636.022 489.853 635.385 489.424 634.228C489.229 633.682 488.423 633.123 487.331 633.136ZM492.349 636.867C492.349 636.607 492.362 636.347 492.401 636.1H497.211C496.834 634.501 495.729 633.136 494.325 633.136C492.57 633.136 491.283 635.281 491.283 637.335C491.283 638.713 492.349 640.104 494.325 640.104C496.275 640.104 497.328 638.752 497.367 637.4C497.367 637.361 497.341 637.335 497.302 637.335H496.327C496.301 637.335 496.275 637.361 496.262 637.387C496.106 638.531 495.378 639.519 494.325 639.48C493.116 639.519 492.349 638.206 492.349 636.867ZM492.479 635.671C492.752 634.488 493.402 633.526 494.325 633.526C495.339 633.526 495.859 634.488 496.08 635.671H492.479ZM500.38 636.971V630.718L499.21 632.044V636.971C499.21 639.103 499.21 640.104 501.108 640.104C502.603 640.104 502.408 638.479 501.576 638.479C501.134 638.479 500.887 638.882 500.887 639.207C500.887 639.766 501.797 639.727 501.797 639.259C501.797 639.61 501.628 639.909 501.108 639.831C500.38 639.727 500.38 638.778 500.38 636.971ZM504.415 632.096C504.805 632.096 505.013 631.81 505.013 631.55C505.013 631.147 504.766 630.718 504.415 630.718C504.064 630.718 503.817 631.147 503.817 631.55C503.817 631.81 504.025 632.096 504.415 632.096ZM503.856 639.87C503.856 639.948 503.908 640 503.986 640H504.896C504.974 640 505.026 639.948 505.026 639.87V633.136L503.856 634.462V639.87ZM513.06 639.87V636.269C513.06 634.397 510.668 633.136 510.2 633.136C509.979 633.136 509.797 633.253 508.185 635.073V633.24L507.015 634.566V639.87C507.015 639.948 507.067 640 507.145 640H508.055C508.133 640 508.185 639.948 508.185 639.87V635.593C509.823 634.098 510.018 634.007 510.2 634.007C510.473 634.007 511.89 634.865 511.89 636.269V639.87C511.89 639.948 511.942 640 512.02 640H512.93C513.008 640 513.06 639.948 513.06 639.87ZM515.882 636.867C515.882 636.607 515.895 636.347 515.934 636.1H520.744C520.367 634.501 519.262 633.136 517.858 633.136C516.103 633.136 514.816 635.281 514.816 637.335C514.816 638.713 515.882 640.104 517.858 640.104C519.808 640.104 520.861 638.752 520.9 637.4C520.9 637.361 520.874 637.335 520.835 637.335H519.86C519.834 637.335 519.808 637.361 519.795 637.387C519.639 638.531 518.911 639.519 517.858 639.48C516.649 639.519 515.882 638.206 515.882 636.867ZM516.012 635.671C516.285 634.488 516.935 633.526 517.858 633.526C518.872 633.526 519.392 634.488 519.613 635.671H516.012Z" fill="#DAE5C1"/>
<rect x="98.0557" y="640.423" width="13.684" height="13.684" transform="rotate(-45 98.0557 640.423)" stroke="#819CA2"/>
<rect x="89.6729" y="640.423" width="25.5389" height="25.5389" transform="rotate(-45 89.6729 640.423)" stroke="#819CA2"/>
<rect x="42.7462" y="640.423" width="13.684" height="13.684" transform="rotate(-45 42.7462 640.423)" stroke="#819CA2"/>
<rect x="34.3634" y="640.423" width="25.5389" height="25.5389" transform="rotate(-45 34.3634 640.423)" stroke="#819CA2"/>
<rect x="405.614" y="640.423" width="13.684" height="13.684" transform="rotate(-45 405.614 640.423)" stroke="#819CA2"/>
<rect x="397.231" y="640.423" width="25.5389" height="25.5389" transform="rotate(-45 397.231 640.423)" stroke="#819CA2"/>
<rect x="327.332" y="640.423" width="13.684" height="13.684" transform="rotate(-45 327.332 640.423)" stroke="#819CA2"/>
<rect x="318.949" y="640.423" width="25.5389" height="25.5389" transform="rotate(-45 318.949 640.423)" stroke="#819CA2"/>
<rect x="34.8043" y="160.464" width="13.684" height="13.684" transform="rotate(-45 34.8043 160.464)" stroke="#819CA2"/>
<rect x="38.355" y="154.34" width="12.2494" height="12.2494" stroke="#995C0D"/>
<rect x="327.726" y="147.493" width="12.2494" height="12.2494" stroke="#995C0D"/>
</svg>
