<svg width="520" height="224" viewBox="0 0 520 224" fill="none" xmlns="http://www.w3.org/2000/svg">
<path d="M481.783 166.786C481.783 164.435 482.37 162.285 483.546 160.336C484.692 158.358 486.255 156.795 488.233 155.649C490.182 154.473 492.332 153.886 494.683 153.886H498.381C500.731 153.886 502.896 154.473 504.874 155.649C506.823 156.795 508.385 158.358 509.561 160.336C510.707 162.285 511.281 164.435 511.281 166.786V180.073H481.783L481.783 166.786ZM504.444 170.957V167.646C504.444 166.442 504.028 165.424 503.197 164.593C502.365 163.761 501.348 163.346 500.144 163.346H492.791C491.587 163.346 490.569 163.761 489.738 164.593C488.906 165.424 488.491 166.442 488.491 167.646V170.957H504.444Z" fill="#0A0A0A"/>
<path d="M488.878 139.898C488.878 137.691 489.308 135.799 490.168 134.222C490.999 132.617 492.16 131.398 493.651 130.567C495.141 129.707 496.847 129.277 498.768 129.277H501.434V143.596H503.498C504.472 143.596 505.218 143.295 505.734 142.693C506.25 142.062 506.508 141.26 506.508 140.285C506.508 139.282 506.207 138.522 505.605 138.006C504.974 137.461 504.114 137.189 503.025 137.189V129.32C504.659 129.32 506.135 129.75 507.454 130.61C508.772 131.441 509.819 132.674 510.593 134.308C511.338 135.913 511.711 137.82 511.711 140.027V140.672C511.711 142.965 511.295 145.029 510.464 146.864C509.604 148.67 508.371 150.103 506.766 151.164C505.132 152.196 503.197 152.712 500.961 152.712H499.628C497.392 152.712 495.471 152.225 493.866 151.25C492.232 150.247 490.999 148.856 490.168 147.079C489.308 145.302 488.878 143.266 488.878 140.973V139.898ZM494.081 140.629C494.081 141.46 494.382 142.163 494.984 142.736C495.557 143.309 496.259 143.596 497.091 143.596H497.693V137.662H497.091C496.259 137.662 495.557 137.949 494.984 138.522C494.382 139.095 494.081 139.798 494.081 140.629Z" fill="#0A0A0A"/>
<path d="M488.878 116.266C488.878 114.89 489.107 113.485 489.566 112.052C489.996 110.59 490.655 109.372 491.544 108.397C492.432 107.422 493.507 106.935 494.769 106.935C495.027 106.935 495.27 106.949 495.5 106.978C495.7 107.007 495.829 107.021 495.887 107.021V114.073C495.199 114.073 494.711 114.388 494.425 115.019C494.109 115.621 493.952 116.309 493.952 117.083C493.952 119.204 494.367 120.265 495.199 120.265C495.715 120.265 496.073 119.95 496.274 119.319C496.446 118.66 496.618 117.585 496.79 116.094C497.019 114.145 497.306 112.539 497.65 111.278C497.994 109.988 498.667 108.87 499.671 107.924C500.645 106.949 502.079 106.462 503.971 106.462C506.665 106.462 508.629 107.451 509.862 109.429C511.094 111.378 511.711 113.786 511.711 116.653V118.889C511.711 120.494 511.467 122.028 510.98 123.49C510.464 124.923 509.69 126.099 508.658 127.016C507.626 127.933 506.364 128.392 504.874 128.392H504.487C504.315 128.392 504.186 128.378 504.1 128.349V121.383H504.272C505.103 121.383 505.691 121.01 506.035 120.265C506.35 119.52 506.508 118.66 506.508 117.685C506.508 116.825 506.422 116.008 506.25 115.234C506.078 114.431 505.719 114.03 505.175 114.03C504.63 114.03 504.257 114.36 504.057 115.019C503.827 115.678 503.598 116.768 503.369 118.287C503.139 120.122 502.838 121.684 502.466 122.974C502.093 124.264 501.419 125.382 500.445 126.328C499.441 127.245 498.051 127.704 496.274 127.704C494.611 127.704 493.235 127.202 492.146 126.199C491.028 125.167 490.211 123.877 489.695 122.329C489.15 120.781 488.878 119.204 488.878 117.599V116.266Z" fill="#0A0A0A"/>
<path d="M486.47 95.9874V104.458H480.321L480.321 95.9874H486.47ZM511.281 95.9874V104.458H489.351V95.9874H511.281Z" fill="#0A0A0A"/>
<path d="M485.352 69.8057C487.014 69.8057 488.29 70.2071 489.179 71.0097C490.067 71.7837 490.727 72.9591 491.157 74.5357C491.759 73.7617 492.461 73.1741 493.264 72.7727C494.066 72.3427 494.898 72.1277 495.758 72.1277C497.019 72.1277 498.18 72.5147 499.241 73.2887C500.301 74.0627 501.147 75.1091 501.778 76.4277C502.38 77.7464 502.681 79.1797 502.681 80.7277V83.6947C502.681 84.5261 502.81 85.1424 503.068 85.5437C503.297 85.9451 503.598 86.1457 503.971 86.1457C504.401 86.1457 504.73 85.9737 504.96 85.6297C505.189 85.2857 505.304 84.6407 505.304 83.6947V76.6857C505.304 74.3924 505.92 72.6724 507.153 71.5257C508.357 70.3791 509.976 69.8057 512.012 69.8057C513.302 69.8057 514.506 70.2071 515.624 71.0097C516.77 71.7837 517.673 72.8301 518.333 74.1488C519.021 75.4674 519.365 76.8864 519.365 78.4057V89.8008C519.365 91.2054 518.863 92.4237 517.86 93.4557C516.856 94.4591 515.638 94.9607 514.205 94.9607H513.99C512.986 94.9607 512.069 94.6454 511.238 94.0147C510.378 93.3841 509.733 92.6101 509.303 91.6927C508.873 92.3234 508.328 92.8251 507.669 93.1977C507.009 93.5704 506.307 93.7567 505.562 93.7567C504.501 93.7567 503.541 93.3841 502.681 92.6387C501.821 91.8647 501.247 90.9188 500.961 89.8008C500.301 90.8041 499.527 91.6067 498.639 92.2087C497.75 92.8107 496.804 93.1117 495.801 93.1117C493.765 93.1117 492.103 92.2661 490.813 90.5747C489.523 88.8834 488.878 86.4324 488.878 83.2217V82.0177C488.878 80.9857 488.964 80.0397 489.136 79.1797C488.419 78.0904 487.731 77.3164 487.072 76.8577C486.384 76.3991 485.81 76.1697 485.352 76.1697V69.8057ZM493.092 82.4477C493.092 83.1931 493.364 83.8237 493.909 84.3397C494.425 84.8271 495.055 85.0707 495.801 85.0707C496.546 85.0707 497.191 84.8271 497.736 84.3397C498.252 83.8237 498.51 83.1931 498.51 82.4477C498.51 81.7024 498.252 81.0861 497.736 80.5987C497.191 80.0827 496.546 79.8247 495.801 79.8247C495.055 79.8247 494.425 80.0827 493.909 80.5987C493.364 81.0861 493.092 81.7024 493.092 82.4477ZM511.281 85.7588C511.281 86.3608 511.453 86.8767 511.797 87.3067C512.141 87.7081 512.556 87.9087 513.044 87.9087C513.531 87.9087 513.947 87.7081 514.291 87.3067C514.663 86.8767 514.85 86.3608 514.85 85.7588V79.6097C514.85 79.0077 514.678 78.5061 514.334 78.1047C513.99 77.6747 513.574 77.4597 513.087 77.4597C512.599 77.4597 512.169 77.6747 511.797 78.1047C511.453 78.5061 511.281 79.0077 511.281 79.6097V85.7588Z" fill="#0A0A0A"/>
<path d="M488.878 53.7735C488.878 52.5981 489.164 51.5231 489.738 50.5485C490.311 49.5451 491.099 48.7568 492.103 48.1835C493.077 47.6101 494.152 47.3235 495.328 47.3235H511.281V55.8375H497.521C496.804 55.8375 496.202 56.0668 495.715 56.5255C495.199 56.9555 494.941 57.4858 494.941 58.1165C494.941 58.7471 495.199 59.2918 495.715 59.7505C496.202 60.1805 496.804 60.3955 497.521 60.3955H511.281V68.9095H489.308V62.5025L492.49 61.6425C490.082 60.0658 488.878 57.8441 488.878 54.9775L488.878 53.7735Z" fill="#0A0A0A"/>
<path d="M488.878 32.6333C488.878 30.4259 489.308 28.5339 490.168 26.9573C490.999 25.3519 492.16 24.1336 493.651 23.3023C495.141 22.4423 496.847 22.0123 498.768 22.0123H501.434V36.3313H503.498C504.472 36.3313 505.218 36.0303 505.734 35.4283C506.25 34.7976 506.508 33.9949 506.508 33.0203C506.508 32.0169 506.207 31.2573 505.605 30.7413C504.974 30.1966 504.114 29.9243 503.025 29.9243V22.0553C504.659 22.0553 506.135 22.4853 507.454 23.3453C508.772 24.1766 509.819 25.4093 510.593 27.0433C511.338 28.6486 511.711 30.5549 511.711 32.7623V33.4073C511.711 35.7006 511.295 37.7646 510.464 39.5993C509.604 41.4053 508.371 42.8386 506.766 43.8993C505.132 44.9313 503.197 45.4473 500.961 45.4473H499.628C497.392 45.4473 495.471 44.9599 493.866 43.9853C492.232 42.9819 490.999 41.5916 490.168 39.8143C489.308 38.0369 488.878 36.0016 488.878 33.7083V32.6333ZM494.081 33.3643C494.081 34.1956 494.382 34.8979 494.984 35.4713C495.557 36.0446 496.259 36.3313 497.091 36.3313H497.693V30.3973H497.091C496.259 30.3973 495.557 30.6839 494.984 31.2573C494.382 31.8306 494.081 32.5329 494.081 33.3643Z" fill="#0A0A0A"/>
<path d="M488.878 6.80805C488.878 4.91605 489.408 3.45405 490.469 2.42205C491.501 1.36139 492.934 0.831055 494.769 0.831055L495.5 0.831055L497.134 0.917055L498.209 1.00306V7.96906H497.177C496.575 7.96906 496.073 8.15539 495.672 8.52805C495.242 8.87205 495.027 9.28772 495.027 9.77505C495.027 10.2911 495.242 10.7354 495.672 11.1081C496.073 11.4521 496.575 11.6241 497.177 11.6241H511.281V19.9231H489.308V13.5591L492.49 12.6131C492.146 12.4411 491.687 12.1114 491.114 11.6241C490.54 11.1367 490.024 10.4774 489.566 9.64606C489.107 8.81472 488.878 7.86872 488.878 6.80805Z" fill="#0A0A0A"/>
<path d="M280.853 123.114V2.23756H293.479V122.592C293.479 137.524 297.7 149.464 306.21 158.329L306.215 158.335L306.22 158.34C314.916 167.035 326.952 171.342 342.229 171.342C357.511 171.342 369.549 166.946 378.244 158.074L378.249 158.068C386.927 149.036 391.24 137.186 391.24 122.592V2.23756H403.867V123.114C403.867 135.009 401.282 145.404 396.136 154.324L396.131 154.333C391.158 163.25 383.958 170.197 374.51 175.179C365.236 179.987 354.483 182.403 342.229 182.403C329.977 182.403 319.224 179.987 309.951 175.18C300.677 170.199 293.474 163.251 288.325 154.329C283.352 145.408 280.853 135.011 280.853 123.114ZM438.182 13.5594H418.299V2.23756H472.158V13.5594H452.274H451.542V14.2921V167.738V168.471H452.274H472.158V179.793H418.299V168.471H438.182H438.915V167.738V14.2921V13.5594H438.182Z" stroke="#5E38CD" stroke-width="1.46535"/>
<path d="M136.503 124.061C136.503 135.984 133.785 146.504 128.35 155.621C123.09 164.739 115.463 171.84 105.469 176.924C95.6501 181.834 84.2535 184.288 71.2788 184.288H67.8598C54.8852 184.288 43.4885 181.834 33.6699 176.924C24.0266 172.015 16.4872 165.002 11.0519 155.884C5.61659 146.767 2.89893 136.159 2.89893 124.061V1.24048H28.6729V123.535C28.6729 134.757 32.5302 143.786 40.2449 150.624C48.1349 157.462 58.1288 160.881 70.2268 160.881C82.6755 160.881 92.4941 157.462 99.6828 150.624C107.047 143.786 110.729 134.757 110.729 123.535V1.24048H136.503V124.061Z" fill="#0A0A0A"/>
<path d="M234.519 86.7154L300.006 181.658H268.972L219.002 109.07L167.718 181.658H139.051L204.8 88.2934L145.1 1.50347H176.133L220.317 65.9384C229.961 52.4377 240.218 37.7974 251.088 22.0174L261.871 6.76348L265.553 1.50347H294.22L234.519 86.7154Z" fill="#0A0A0A"/>
<path d="M8.06701 215.404C6.74461 215.404 5.56141 215.276 4.51741 215.021C3.47341 214.766 2.64981 214.522 2.04661 214.29C1.46661 214.035 1.17661 213.907 1.17661 213.907L0.828613 213.281C0.828613 213.281 0.886613 213.095 1.00261 212.724C1.11861 212.353 1.25781 211.877 1.42021 211.297C1.58261 210.694 1.74501 210.068 1.90741 209.418C2.06981 208.745 2.19741 208.119 2.29021 207.539L6.70981 207.226C6.64021 207.945 6.67501 208.571 6.81421 209.105C6.97661 209.639 7.25501 210.056 7.64941 210.358C8.04381 210.636 8.55421 210.775 9.18061 210.775C9.85341 210.775 10.3986 210.636 10.8162 210.358C11.2338 210.056 11.4426 209.673 11.4426 209.209C11.4426 208.606 11.0946 208.107 10.3986 207.713C9.70261 207.295 8.87901 206.866 7.92781 206.425C7.11581 206.031 6.29221 205.579 5.45701 205.068C4.64501 204.558 3.97221 203.92 3.43861 203.154C2.90501 202.365 2.63821 201.379 2.63821 200.196C2.63821 198.549 3.10221 197.122 4.03021 195.916C4.95821 194.686 6.25741 193.735 7.92781 193.062C9.59821 192.389 11.5586 192.053 13.809 192.053C15.0618 192.053 16.187 192.134 17.1846 192.297C18.2054 192.459 19.0174 192.621 19.6206 192.784C20.2238 192.946 20.5254 193.027 20.5254 193.027L20.8734 193.793C20.8734 193.793 20.7806 194.083 20.595 194.663C20.4094 195.22 20.189 195.962 19.9338 196.89C19.6786 197.818 19.4466 198.804 19.2378 199.848L15.1314 200.127L14.7486 199.848C14.7486 199.848 14.7602 199.779 14.7834 199.639C14.8066 199.5 14.8182 199.349 14.8182 199.187C14.8414 199.025 14.853 198.92 14.853 198.874C14.853 198.201 14.6558 197.702 14.2614 197.377C13.8902 197.029 13.3682 196.855 12.6954 196.855C12.0458 196.855 11.5122 197.018 11.0946 197.343C10.7002 197.667 10.503 198.073 10.503 198.561C10.503 199.048 10.7234 199.465 11.1642 199.813C11.6282 200.161 12.1966 200.498 12.8694 200.823C13.519 201.124 14.215 201.461 14.9574 201.832C15.723 202.18 16.4306 202.597 17.0802 203.085C17.753 203.572 18.2982 204.175 18.7158 204.894C19.1334 205.59 19.3422 206.449 19.3422 207.469C19.3422 209.117 18.8898 210.532 17.985 211.715C17.0802 212.898 15.781 213.815 14.0874 214.464C12.417 215.091 10.4102 215.404 8.06701 215.404Z" fill="#0A0A0A"/>
<path d="M27.185 215.404C25.213 215.404 23.6818 214.812 22.5914 213.629C21.501 212.446 20.9558 210.764 20.9558 208.583C20.9558 207.005 21.1762 205.579 21.617 204.303C22.0578 203.027 22.6842 201.936 23.4962 201.031C24.3314 200.103 25.329 199.396 26.489 198.909C27.649 198.398 28.9366 198.143 30.3518 198.143C32.3702 198.143 33.913 198.711 34.9802 199.848C36.0474 200.962 36.581 202.586 36.581 204.72C36.581 206.321 36.3606 207.783 35.9198 209.105C35.479 210.404 34.841 211.529 34.0058 212.481C33.1938 213.409 32.2078 214.128 31.0478 214.638C29.8878 215.149 28.6002 215.404 27.185 215.404ZM28.5422 211.68C28.983 211.68 29.331 211.518 29.5862 211.193C29.8414 210.868 30.027 210.288 30.143 209.453C30.259 208.618 30.317 207.458 30.317 205.973C30.317 204.674 30.2242 203.746 30.0386 203.189C29.853 202.609 29.505 202.319 28.9946 202.319C28.5538 202.319 28.1942 202.481 27.9158 202.806C27.6606 203.131 27.475 203.676 27.359 204.442C27.243 205.184 27.185 206.205 27.185 207.504C27.185 209.059 27.2778 210.149 27.4634 210.775C27.6722 211.379 28.0318 211.68 28.5422 211.68Z" fill="#0A0A0A"/>
<path d="M44.9792 209.627C45.0952 209.627 45.2344 209.557 45.3968 209.418C45.5824 209.256 46.0464 208.85 46.7888 208.2L47.5892 208.339L48.2852 210.01C47.0556 211.402 46.0116 212.492 45.1532 213.281C44.318 214.07 43.5756 214.627 42.926 214.951C42.2764 215.253 41.6268 215.404 40.9772 215.404C39.446 215.404 38.6804 214.627 38.6804 213.072C38.6804 212.91 38.7384 212.446 38.8544 211.68C38.9704 210.915 39.1096 209.975 39.272 208.861C39.4576 207.725 39.6548 206.507 39.8636 205.207C40.0956 203.885 40.316 202.574 40.5248 201.275C40.7568 199.953 40.954 198.735 41.1164 197.621C41.302 196.507 41.4528 195.591 41.5688 194.872C41.6848 194.153 41.7428 193.723 41.7428 193.584C41.7428 192.819 41.36 192.436 40.5944 192.436H39.62L40.0376 189.582C40.8264 189.582 41.6732 189.559 42.578 189.513C43.506 189.466 44.376 189.42 45.188 189.373C46 189.327 46.6612 189.281 47.1716 189.234C47.682 189.188 47.9372 189.165 47.9372 189.165L48.494 189.861C48.494 189.861 48.4244 190.22 48.2852 190.939C48.146 191.635 47.9488 192.587 47.6936 193.793C47.4616 194.976 47.2064 196.287 46.928 197.725C46.6496 199.164 46.3712 200.625 46.0928 202.11C45.8376 203.572 45.594 204.952 45.362 206.251C45.13 207.551 44.956 208.641 44.84 209.523L44.9792 209.627Z" fill="#0A0A0A"/>
<path d="M54.7934 215.299C53.2622 215.299 52.0674 214.975 51.209 214.325C50.3738 213.652 49.9562 212.736 49.9562 211.576C49.9562 211.228 50.0258 210.764 50.165 210.184C50.3042 209.581 50.4666 208.943 50.6522 208.27C50.861 207.574 51.0582 206.889 51.2438 206.217C51.4294 205.521 51.5918 204.883 51.731 204.303C51.8702 203.723 51.9398 203.27 51.9398 202.945C51.9398 202.18 51.557 201.797 50.7914 201.797H49.817L50.2346 198.943C50.7914 198.943 51.4642 198.932 52.253 198.909C53.065 198.862 53.9582 198.804 54.9326 198.735C55.9302 198.665 56.9509 198.595 57.9949 198.526L58.5518 199.222C58.0414 200.985 57.589 202.551 57.1946 203.92C56.8234 205.265 56.5334 206.356 56.3246 207.191C56.1158 208.026 56.0114 208.548 56.0114 208.757C56.0114 209.012 56.0346 209.209 56.081 209.349C56.1506 209.465 56.2782 209.523 56.4638 209.523C56.7422 209.523 57.1134 209.151 57.5774 208.409C58.0414 207.667 58.575 206.576 59.1782 205.138C59.8046 203.699 60.489 201.936 61.2314 199.848L59.8046 209.105L58.9346 208.896C58.2154 210.543 57.5194 211.901 56.8465 212.968C56.1738 214.035 55.4894 214.812 54.7934 215.299ZM59.9785 215.404C58.7953 215.404 58.2038 214.847 58.2038 213.733C58.2038 213.594 58.2154 213.432 58.2386 213.246C58.285 213.037 58.3546 212.724 58.4474 212.307C58.5402 211.889 58.6794 211.286 58.865 210.497C59.0506 209.685 59.3058 208.618 59.6306 207.295L60.0134 204.651L60.7442 198.909L61.4402 198.491L66.5557 198.526L67.0778 199.222C66.7762 200.173 66.463 201.217 66.1382 202.354C65.8366 203.491 65.5581 204.616 65.3029 205.729C65.0477 206.843 64.8274 207.864 64.6418 208.792L64.781 208.931C64.897 208.861 65.013 208.792 65.129 208.722C65.245 208.653 65.361 208.571 65.477 208.479C65.6162 208.386 65.7437 208.293 65.8597 208.2L66.6602 208.339L67.3562 210.01C66.0802 211.425 65.013 212.527 64.1546 213.316C63.3194 214.081 62.577 214.627 61.9274 214.951C61.301 215.253 60.6514 215.404 59.9785 215.404Z" fill="#0A0A0A"/>
<path d="M78.8141 208.339L79.5449 210.079C78.8025 211.147 78.0717 212.086 77.3525 212.898C76.6333 213.687 75.9837 214.302 75.4037 214.743C74.8469 215.183 74.3945 215.404 74.0465 215.404C72.4225 215.404 71.2045 214.998 70.3925 214.186C69.6037 213.351 69.2905 212.191 69.4529 210.706L70.9841 202.075L70.6709 201.797H68.7917L68.6873 201.623L68.9657 199.326L71.4713 198.943C71.5641 198.34 71.6453 197.749 71.7149 197.169C71.7845 196.565 71.8425 196.067 71.8889 195.672C71.9353 195.278 71.9585 195.081 71.9585 195.081L77.8049 193.863L78.2921 194.28C78.2921 194.28 78.2341 194.512 78.1181 194.976C78.0021 195.417 77.8629 195.997 77.7005 196.716C77.5381 197.412 77.3757 198.155 77.2133 198.943H80.5193L80.7629 199.187L80.3453 201.797L77.0741 201.762L76.6217 202.041L75.4037 208.722C75.3341 209.418 75.5429 209.766 76.0301 209.766C76.2621 209.766 76.5289 209.65 76.8305 209.418C77.1321 209.186 77.5381 208.78 78.0485 208.2L78.8141 208.339Z" fill="#0A0A0A"/>
<path d="M87.6552 209.627C87.7712 209.627 87.9104 209.557 88.0728 209.418C88.2584 209.256 88.7224 208.85 89.4648 208.2L90.2652 208.339L90.9612 210.01C89.778 211.355 88.7572 212.423 87.8988 213.211C87.0636 214 86.3096 214.569 85.6368 214.917C84.964 215.241 84.3028 215.404 83.6532 215.404C82.122 215.404 81.3564 214.627 81.3564 213.072C81.7044 211.007 81.9944 209.256 82.2264 207.817C82.4584 206.379 82.6324 205.254 82.7484 204.442C82.8644 203.607 82.9224 203.108 82.9224 202.945C82.9224 202.551 82.8296 202.261 82.644 202.075C82.4584 201.89 82.1684 201.797 81.774 201.797H80.7996L81.2172 198.943C81.7972 198.943 82.5048 198.932 83.34 198.909C84.1984 198.862 85.1148 198.804 86.0892 198.735C87.0636 198.665 88.0264 198.595 88.9776 198.526L89.5344 199.222C89.2792 200.196 89.024 201.298 88.7688 202.528C88.5136 203.734 88.27 204.952 88.038 206.182C87.8292 207.388 87.6552 208.502 87.516 209.523L87.6552 209.627ZM86.1588 196.786C85.2308 196.786 84.5116 196.542 84.0012 196.055C83.514 195.568 83.2704 194.883 83.2704 194.002C83.2704 192.749 83.63 191.751 84.3492 191.009C85.0916 190.243 86.066 189.861 87.2724 189.861C88.2004 189.861 88.908 190.116 89.3952 190.626C89.8824 191.113 90.126 191.798 90.126 192.679C90.126 193.909 89.7548 194.907 89.0124 195.672C88.2932 196.415 87.342 196.786 86.1588 196.786Z" fill="#0A0A0A"/>
<path d="M98.2939 215.404C96.3219 215.404 94.7907 214.812 93.7003 213.629C92.6099 212.446 92.0647 210.764 92.0647 208.583C92.0647 207.005 92.2851 205.579 92.7259 204.303C93.1667 203.027 93.7931 201.936 94.6051 201.031C95.4403 200.103 96.4379 199.396 97.5979 198.909C98.7579 198.398 100.045 198.143 101.461 198.143C103.479 198.143 105.022 198.711 106.089 199.848C107.156 200.962 107.69 202.586 107.69 204.72C107.69 206.321 107.469 207.783 107.029 209.105C106.588 210.404 105.95 211.529 105.115 212.481C104.303 213.409 103.317 214.128 102.157 214.638C100.997 215.149 99.7091 215.404 98.2939 215.404ZM99.6511 211.68C100.092 211.68 100.44 211.518 100.695 211.193C100.95 210.868 101.136 210.288 101.252 209.453C101.368 208.618 101.426 207.458 101.426 205.973C101.426 204.674 101.333 203.746 101.147 203.189C100.962 202.609 100.614 202.319 100.103 202.319C99.6627 202.319 99.3031 202.481 99.0247 202.806C98.7695 203.131 98.5839 203.676 98.4679 204.442C98.3519 205.184 98.2939 206.205 98.2939 207.504C98.2939 209.059 98.3867 210.149 98.5723 210.775C98.7811 211.379 99.1407 211.68 99.6511 211.68Z" fill="#0A0A0A"/>
<path d="M120.925 215.299C119.417 215.299 118.663 214.615 118.663 213.246C118.663 212.945 118.733 212.515 118.872 211.959C119.011 211.379 119.185 210.741 119.394 210.045C119.603 209.349 119.8 208.653 119.986 207.957C120.195 207.261 120.369 206.634 120.508 206.077C120.647 205.521 120.717 205.115 120.717 204.859C120.717 204.535 120.67 204.291 120.577 204.129C120.485 203.966 120.345 203.885 120.16 203.885C119.905 203.885 119.557 204.245 119.116 204.964C118.675 205.683 118.188 206.681 117.654 207.957C117.144 209.209 116.633 210.636 116.123 212.237L117.028 204.546L117.828 204.442C118.524 202.771 119.197 201.403 119.847 200.335C120.519 199.268 121.146 198.526 121.726 198.108C123.327 198.108 124.579 198.445 125.484 199.117C126.389 199.767 126.841 200.672 126.841 201.832C126.841 202.18 126.749 202.702 126.563 203.398C126.401 204.094 126.192 204.836 125.937 205.625C125.705 206.414 125.484 207.156 125.275 207.852C125.067 208.525 124.927 209.047 124.858 209.418L124.962 209.523C125.032 209.523 125.125 209.488 125.241 209.418C125.357 209.325 125.531 209.175 125.763 208.966C125.995 208.757 126.308 208.467 126.702 208.096L127.537 208.235L128.164 209.905C126.934 211.297 125.902 212.388 125.067 213.177C124.231 213.942 123.489 214.487 122.839 214.812C122.213 215.137 121.575 215.299 120.925 215.299ZM111.042 215.23L110.346 214.429C110.509 213.455 110.671 212.399 110.833 211.263C111.019 210.126 111.193 209.024 111.355 207.957C111.541 206.866 111.692 205.915 111.808 205.103C111.947 204.268 112.051 203.665 112.121 203.293C112.214 202.76 112.179 202.377 112.017 202.145C111.854 201.913 111.541 201.797 111.077 201.797H110.137L110.555 198.943C111.413 198.943 112.55 198.909 113.965 198.839C115.381 198.746 116.796 198.642 118.211 198.526L118.663 199.257C118.524 199.744 118.373 200.335 118.211 201.031C118.072 201.727 117.933 202.423 117.793 203.119C117.677 203.815 117.585 204.43 117.515 204.964L116.471 210.81L116.158 213.42C116.111 213.745 115.845 214.047 115.357 214.325C114.893 214.603 114.279 214.824 113.513 214.986C112.747 215.149 111.924 215.23 111.042 215.23Z" fill="#0A0A0A"/>
<path d="M131.467 208.792C131.537 209.488 131.85 210.079 132.407 210.567C132.963 211.054 133.601 211.297 134.321 211.297C134.785 211.297 135.133 211.228 135.365 211.089C135.597 210.926 135.713 210.706 135.713 210.427C135.713 210.033 135.481 209.72 135.017 209.488C134.576 209.233 134.054 208.966 133.451 208.687C132.94 208.432 132.43 208.142 131.919 207.817C131.409 207.493 130.98 207.063 130.632 206.53C130.307 205.996 130.145 205.323 130.145 204.511C130.145 203.282 130.481 202.191 131.154 201.24C131.827 200.266 132.755 199.512 133.938 198.978C135.121 198.421 136.455 198.143 137.94 198.143C138.961 198.143 139.935 198.271 140.863 198.526C141.814 198.781 142.58 199.141 143.16 199.605C142.789 200.533 142.417 201.368 142.046 202.11C141.675 202.853 141.315 203.502 140.967 204.059H140.097C139.865 203.549 139.552 203.154 139.158 202.876C138.787 202.574 138.404 202.423 138.009 202.423C137.685 202.423 137.406 202.516 137.174 202.702C136.942 202.887 136.826 203.119 136.826 203.398C136.826 203.63 136.919 203.839 137.105 204.024C137.313 204.187 137.569 204.349 137.87 204.511C138.265 204.72 138.717 204.941 139.227 205.173C139.738 205.405 140.225 205.695 140.689 206.043C141.153 206.367 141.536 206.785 141.837 207.295C142.139 207.783 142.29 208.397 142.29 209.14C142.29 210.346 141.93 211.425 141.211 212.376C140.492 213.304 139.506 214.047 138.253 214.603C137.023 215.137 135.608 215.404 134.007 215.404C132.615 215.404 131.397 215.195 130.353 214.777C129.309 214.337 128.671 213.791 128.439 213.142C128.509 212.701 128.648 212.214 128.857 211.68C129.089 211.123 129.344 210.578 129.623 210.045C129.924 209.511 130.226 209.07 130.527 208.722L131.467 208.792Z" fill="#0A0A0A"/>
<path d="M158.144 215.404C156.567 215.404 155.453 215.091 154.803 214.464C154.154 213.815 153.829 212.724 153.829 211.193V202.632C153.829 202.006 153.69 201.565 153.411 201.31C153.133 201.055 152.611 200.915 151.845 200.892L151.706 200.683L151.88 199.639C152.437 199.361 152.971 199.048 153.481 198.7C154.015 198.329 154.479 197.981 154.873 197.656C155.291 197.308 155.615 197.029 155.847 196.821C156.079 196.589 156.195 196.473 156.195 196.473L156.891 196.751C156.891 196.751 156.857 196.971 156.787 197.412C156.741 197.853 156.683 198.503 156.613 199.361L161.729 199.257L161.833 199.361L161.52 201.205L156.474 201.101C156.404 202.191 156.346 203.467 156.3 204.929C156.253 206.391 156.23 208.015 156.23 209.801C156.23 210.984 156.427 211.819 156.822 212.307C157.239 212.794 157.947 213.037 158.945 213.037C159.525 213.037 160.058 212.933 160.545 212.724C161.056 212.515 161.311 212.411 161.311 212.411L161.659 213.316C161.659 213.316 161.52 213.42 161.241 213.629C160.963 213.838 160.615 214.081 160.197 214.36C159.803 214.638 159.409 214.882 159.014 215.091C158.643 215.299 158.353 215.404 158.144 215.404Z" fill="#0A0A0A"/>
<path d="M164.376 213.629C165.049 213.559 165.513 213.385 165.768 213.107C166.046 212.829 166.186 212.365 166.186 211.715V193.201C166.186 192.575 166.081 192.123 165.872 191.844C165.687 191.543 165.362 191.392 164.898 191.392H164.167L164.028 191.287L164.167 190.174C164.701 190.104 165.281 190.011 165.907 189.895C166.557 189.779 167.183 189.663 167.786 189.547C168.39 189.408 168.9 189.281 169.318 189.165L169.527 189.617C169.434 189.779 169.329 190.394 169.213 191.461C169.097 192.529 168.993 193.932 168.9 195.672C168.831 197.412 168.761 199.373 168.691 201.553C168.854 201.437 169.144 201.24 169.561 200.962C170.002 200.66 170.489 200.347 171.023 200.022C171.58 199.697 172.113 199.419 172.624 199.187C173.157 198.955 173.587 198.839 173.911 198.839C175.419 198.839 176.591 199.233 177.426 200.022C178.261 200.788 178.679 201.89 178.679 203.328C178.679 203.63 178.644 204.129 178.575 204.825C178.528 205.521 178.47 206.298 178.4 207.156C178.331 208.015 178.261 208.838 178.192 209.627C178.145 210.416 178.122 211.065 178.122 211.576C178.122 212.249 178.215 212.747 178.4 213.072C178.586 213.374 178.899 213.525 179.34 213.525C179.479 213.525 179.665 213.525 179.897 213.525C180.152 213.501 180.373 213.478 180.558 213.455L180.628 213.594L180.349 215.091C179.978 215.067 179.479 215.044 178.853 215.021C178.25 214.998 177.716 214.986 177.252 214.986C176.974 214.986 176.637 214.998 176.243 215.021C175.849 215.067 175.431 215.114 174.99 215.16C174.549 215.23 174.109 215.311 173.668 215.404L173.807 213.977C174.503 213.791 175.002 213.525 175.303 213.177C175.605 212.805 175.756 212.318 175.756 211.715L175.965 204.825C175.965 203.665 175.709 202.771 175.199 202.145C174.712 201.519 174.004 201.205 173.076 201.205C172.496 201.205 171.777 201.391 170.919 201.762C170.083 202.133 169.329 202.586 168.657 203.119C168.633 203.978 168.61 204.871 168.587 205.799C168.587 206.727 168.575 207.678 168.552 208.653C168.552 209.604 168.552 210.578 168.552 211.576C168.552 212.295 168.645 212.805 168.831 213.107C169.039 213.385 169.364 213.525 169.805 213.525C169.944 213.525 170.13 213.525 170.362 213.525C170.617 213.501 170.837 213.478 171.023 213.455L171.092 213.594L170.779 215.091C170.385 215.067 169.875 215.044 169.248 215.021C168.622 214.998 168.077 214.986 167.613 214.986C167.125 214.986 166.545 214.986 165.872 214.986C165.223 215.009 164.654 215.033 164.167 215.056L164.376 213.629Z" fill="#0A0A0A"/>
<path d="M195.389 215.404C194.461 215.404 193.73 215.172 193.197 214.708C192.686 214.221 192.385 213.513 192.292 212.585L192.153 212.55C191.596 213.107 191.062 213.594 190.552 214.012C190.065 214.406 189.624 214.719 189.23 214.951C188.858 215.16 188.557 215.265 188.325 215.265C187.466 215.265 186.701 215.079 186.028 214.708C185.355 214.337 184.822 213.826 184.427 213.177C184.056 212.527 183.87 211.785 183.87 210.949C183.87 210.277 184.033 209.685 184.358 209.175C184.706 208.664 185.158 208.328 185.715 208.165L192.327 206.356L192.362 204.825C192.362 203.665 192.095 202.76 191.561 202.11C191.028 201.461 190.274 201.136 189.299 201.136C188.65 201.136 187.965 201.287 187.246 201.588C186.527 201.89 185.819 202.319 185.123 202.876L184.949 202.771L184.532 201.275C185.135 200.927 185.808 200.567 186.55 200.196C187.292 199.802 188 199.477 188.673 199.222C189.346 198.967 189.856 198.839 190.204 198.839C191.225 198.839 192.095 199.025 192.814 199.396C193.533 199.744 194.078 200.254 194.45 200.927C194.844 201.577 195.041 202.377 195.041 203.328C195.041 203.63 195.006 204.117 194.937 204.79C194.89 205.463 194.821 206.217 194.728 207.052C194.635 207.864 194.554 208.653 194.484 209.418C194.438 210.184 194.415 210.822 194.415 211.332C194.415 211.843 194.542 212.237 194.798 212.515C195.053 212.794 195.401 212.933 195.842 212.933C196.236 212.933 196.63 212.84 197.025 212.655C197.419 212.446 197.721 212.249 197.93 212.063L198.417 212.62C198.231 212.921 197.976 213.269 197.651 213.664C197.35 214.035 197.002 214.383 196.607 214.708C196.236 215.033 195.83 215.265 195.389 215.404ZM188.916 212.898C189.357 212.898 189.868 212.747 190.448 212.446C191.051 212.121 191.596 211.715 192.083 211.228L192.257 207.678L187.524 209.105C186.852 209.314 186.515 209.801 186.515 210.567C186.515 211.216 186.736 211.773 187.176 212.237C187.64 212.678 188.22 212.898 188.916 212.898Z" fill="#0A0A0A"/>
<path d="M206.519 215.404C204.941 215.404 203.828 215.091 203.178 214.464C202.529 213.815 202.204 212.724 202.204 211.193V202.632C202.204 202.006 202.065 201.565 201.786 201.31C201.508 201.055 200.986 200.915 200.22 200.892L200.081 200.683L200.255 199.639C200.812 199.361 201.345 199.048 201.856 198.7C202.389 198.329 202.853 197.981 203.248 197.656C203.665 197.308 203.99 197.029 204.222 196.821C204.454 196.589 204.57 196.473 204.57 196.473L205.266 196.751C205.266 196.751 205.231 196.971 205.162 197.412C205.115 197.853 205.057 198.503 204.988 199.361L210.103 199.257L210.208 199.361L209.895 201.205L204.849 201.101C204.779 202.191 204.721 203.467 204.674 204.929C204.628 206.391 204.605 208.015 204.605 209.801C204.605 210.984 204.802 211.819 205.197 212.307C205.614 212.794 206.322 213.037 207.319 213.037C207.899 213.037 208.433 212.933 208.92 212.724C209.431 212.515 209.686 212.411 209.686 212.411L210.034 213.316C210.034 213.316 209.895 213.42 209.616 213.629C209.338 213.838 208.99 214.081 208.572 214.36C208.178 214.638 207.783 214.882 207.389 215.091C207.018 215.299 206.728 215.404 206.519 215.404Z" fill="#0A0A0A"/>
<path d="M227.932 202.354C227.491 202.354 227.097 202.597 226.749 203.085C226.424 203.549 226.157 204.187 225.948 204.999C225.763 205.811 225.67 206.75 225.67 207.817C225.67 208.699 225.809 209.372 226.088 209.836C226.389 210.3 226.807 210.532 227.34 210.532C227.804 210.532 228.257 210.311 228.698 209.871C229.162 209.43 229.579 208.792 229.95 207.957L230.681 208.061L232.491 210.079C232.12 211.054 231.54 211.947 230.751 212.759C229.962 213.548 229.08 214.186 228.106 214.673C227.132 215.16 226.169 215.404 225.218 215.404C223.501 215.404 222.132 214.847 221.111 213.733C220.09 212.597 219.58 211.077 219.58 209.175C219.58 207.667 219.835 206.251 220.346 204.929C220.856 203.583 221.564 202.412 222.468 201.414C223.373 200.393 224.406 199.605 225.566 199.048C226.749 198.468 228.013 198.178 229.359 198.178C230.055 198.178 230.739 198.259 231.412 198.421C232.108 198.561 232.688 198.758 233.152 199.013L233.291 199.639L231.516 204.129L230.02 204.163C229.44 202.957 228.744 202.354 227.932 202.354Z" fill="#0A0A0A"/>
<path d="M248.496 209.627C248.589 209.627 248.705 209.581 248.844 209.488C249.007 209.372 249.204 209.209 249.436 209.001C249.691 208.792 249.981 208.525 250.306 208.2L251.106 208.339L251.802 210.01C250.526 211.425 249.459 212.527 248.601 213.316C247.766 214.081 247.023 214.627 246.374 214.951C245.747 215.253 245.098 215.404 244.425 215.404C243.845 215.404 243.404 215.265 243.102 214.986C242.801 214.708 242.65 214.29 242.65 213.733C242.65 213.478 242.72 213.037 242.859 212.411C242.998 211.761 243.218 210.787 243.52 209.488H243.172C242.221 211.112 241.386 212.376 240.666 213.281C239.97 214.186 239.263 214.893 238.544 215.404C236.896 215.404 235.609 214.928 234.681 213.977C233.753 213.003 233.289 211.657 233.289 209.94C233.289 208.571 233.544 207.214 234.054 205.869C234.565 204.523 235.249 203.305 236.108 202.215C236.966 201.101 237.917 200.219 238.961 199.57C240.005 198.897 241.061 198.561 242.128 198.561L244.634 199.257L244.808 198.561L245.469 198.143L250.132 198.561L250.41 199.361C250.109 200.707 249.819 202.017 249.54 203.293C249.285 204.546 249.053 205.706 248.844 206.773C248.659 207.817 248.496 208.734 248.357 209.523L248.496 209.627ZM240.144 210.01C240.33 210.01 240.574 209.813 240.875 209.418C241.177 209.024 241.49 208.49 241.815 207.817C242.163 207.145 242.499 206.402 242.824 205.59C243.149 204.778 243.427 203.955 243.659 203.119C243.195 202.818 242.743 202.597 242.302 202.458C241.861 202.296 241.455 202.215 241.084 202.215C240.875 202.215 240.655 202.505 240.423 203.085C240.214 203.641 240.028 204.337 239.866 205.173C239.727 206.008 239.657 206.855 239.657 207.713C239.657 208.363 239.704 208.908 239.796 209.349C239.889 209.789 240.005 210.01 240.144 210.01Z" fill="#0A0A0A"/>
<path d="M251.048 220.38C251.698 220.287 252.162 220.09 252.44 219.789C252.718 219.487 252.95 218.919 253.136 218.083C253.275 217.48 253.426 216.726 253.588 215.821C253.751 214.94 253.913 213.977 254.076 212.933C254.261 211.889 254.435 210.833 254.598 209.766C254.783 208.699 254.934 207.701 255.05 206.773C255.189 205.822 255.294 205.01 255.363 204.337C255.456 203.665 255.502 203.201 255.502 202.945C255.502 202.551 255.41 202.261 255.224 202.075C255.038 201.89 254.748 201.797 254.354 201.797H253.38L253.797 198.943C254.377 198.943 255.085 198.932 255.92 198.909C256.778 198.862 257.695 198.804 258.669 198.735C259.644 198.665 260.606 198.595 261.558 198.526L262.114 199.187C261.674 200.649 261.279 202.273 260.931 204.059H261.244C261.732 203.131 262.219 202.296 262.706 201.553C263.193 200.811 263.68 200.161 264.168 199.605C264.678 199.025 265.188 198.537 265.699 198.143C267.462 198.143 268.831 198.63 269.805 199.605C270.803 200.556 271.302 201.901 271.302 203.641C271.302 205.01 271.046 206.367 270.536 207.713C270.026 209.059 269.341 210.277 268.483 211.367C267.624 212.457 266.673 213.339 265.629 214.012C264.585 214.661 263.53 214.986 262.462 214.986L259.087 214.29L258.53 218.327C258.437 219 258.495 219.452 258.704 219.684C258.913 219.916 259.342 220.032 259.992 220.032H261.592L261.627 220.241L261.07 222.99C260.189 222.99 259.145 223.002 257.938 223.025C256.732 223.048 255.479 223.071 254.18 223.095C252.881 223.141 251.651 223.187 250.491 223.234L251.048 220.38ZM264.55 202.911C264.295 202.911 263.947 203.259 263.506 203.955C263.066 204.627 262.613 205.497 262.149 206.565C261.708 207.609 261.326 208.687 261.001 209.801C261.395 210.056 261.824 210.277 262.288 210.462C262.776 210.625 263.205 210.706 263.576 210.706C263.808 210.706 264.028 210.427 264.237 209.871C264.446 209.291 264.62 208.571 264.759 207.713C264.922 206.855 265.003 205.996 265.003 205.138C265.003 204.72 264.98 204.349 264.933 204.024C264.887 203.676 264.829 203.409 264.759 203.224C264.713 203.015 264.643 202.911 264.55 202.911Z" fill="#0A0A0A"/>
<path d="M283.628 208.339L284.359 210.079C283.617 211.147 282.886 212.086 282.167 212.898C281.448 213.687 280.798 214.302 280.218 214.743C279.661 215.183 279.209 215.404 278.861 215.404C277.237 215.404 276.019 214.998 275.207 214.186C274.418 213.351 274.105 212.191 274.267 210.706L275.798 202.075L275.485 201.797H273.606L273.502 201.623L273.78 199.326L276.286 198.943C276.378 198.34 276.46 197.749 276.529 197.169C276.599 196.565 276.657 196.067 276.703 195.672C276.75 195.278 276.773 195.081 276.773 195.081L282.619 193.863L283.106 194.28C283.106 194.28 283.048 194.512 282.932 194.976C282.816 195.417 282.677 195.997 282.515 196.716C282.352 197.412 282.19 198.155 282.028 198.943H285.334L285.577 199.187L285.16 201.797L281.888 201.762L281.436 202.041L280.218 208.722C280.148 209.418 280.357 209.766 280.844 209.766C281.076 209.766 281.343 209.65 281.645 209.418C281.946 209.186 282.352 208.78 282.863 208.2L283.628 208.339Z" fill="#0A0A0A"/>
<path d="M292.469 209.627C292.585 209.627 292.725 209.557 292.887 209.418C293.073 209.256 293.537 208.85 294.279 208.2L295.079 208.339L295.775 210.01C294.592 211.355 293.571 212.423 292.713 213.211C291.878 214 291.124 214.569 290.451 214.917C289.778 215.241 289.117 215.404 288.467 215.404C286.936 215.404 286.171 214.627 286.171 213.072C286.519 211.007 286.809 209.256 287.041 207.817C287.273 206.379 287.447 205.254 287.563 204.442C287.679 203.607 287.737 203.108 287.737 202.945C287.737 202.551 287.644 202.261 287.458 202.075C287.273 201.89 286.983 201.797 286.588 201.797H285.614L286.031 198.943C286.611 198.943 287.319 198.932 288.154 198.909C289.013 198.862 289.929 198.804 290.903 198.735C291.878 198.665 292.841 198.595 293.792 198.526L294.349 199.222C294.093 200.196 293.838 201.298 293.583 202.528C293.328 203.734 293.084 204.952 292.852 206.182C292.643 207.388 292.469 208.502 292.33 209.523L292.469 209.627ZM290.973 196.786C290.045 196.786 289.326 196.542 288.815 196.055C288.328 195.568 288.085 194.883 288.085 194.002C288.085 192.749 288.444 191.751 289.163 191.009C289.906 190.243 290.88 189.861 292.087 189.861C293.015 189.861 293.722 190.116 294.209 190.626C294.697 191.113 294.94 191.798 294.94 192.679C294.94 193.909 294.569 194.907 293.827 195.672C293.107 196.415 292.156 196.786 290.973 196.786Z" fill="#0A0A0A"/>
<path d="M300.255 215.404L299.628 214.708C299.535 213.362 299.408 211.947 299.245 210.462C299.083 208.954 298.909 207.527 298.723 206.182C298.561 204.813 298.387 203.665 298.201 202.737C298.132 202.342 298.027 202.075 297.888 201.936C297.749 201.774 297.552 201.693 297.297 201.693C297.157 201.693 296.995 201.693 296.809 201.693C296.647 201.693 296.496 201.704 296.357 201.727C296.241 201.727 296.183 201.727 296.183 201.727L296.392 198.978C297.134 198.909 297.923 198.839 298.758 198.769C299.593 198.7 300.371 198.642 301.09 198.595C301.832 198.526 302.435 198.479 302.899 198.456C303.387 198.433 303.63 198.421 303.63 198.421L304.013 198.735C304.152 200.196 304.257 201.936 304.326 203.955C304.419 205.95 304.465 207.945 304.465 209.94H305.057C305.776 208.131 306.298 206.692 306.623 205.625C306.948 204.558 307.11 203.734 307.11 203.154C307.11 202.783 307.041 202.447 306.901 202.145C306.762 201.843 306.553 201.577 306.275 201.345C306.02 201.089 305.695 200.892 305.301 200.753L305.683 199.083L312.226 198.143C312.527 198.491 312.759 198.967 312.922 199.57C313.084 200.173 313.165 200.846 313.165 201.588C313.165 202.911 312.609 204.651 311.495 206.808C310.405 208.943 308.665 211.669 306.275 214.986L300.255 215.404Z" fill="#0A0A0A"/>
<path d="M328.883 209.627C328.976 209.627 329.092 209.581 329.231 209.488C329.393 209.372 329.591 209.209 329.823 209.001C330.078 208.792 330.368 208.525 330.693 208.2L331.493 208.339L332.189 210.01C330.913 211.425 329.846 212.527 328.987 213.316C328.152 214.081 327.41 214.627 326.76 214.951C326.134 215.253 325.484 215.404 324.811 215.404C324.231 215.404 323.791 215.265 323.489 214.986C323.187 214.708 323.037 214.29 323.037 213.733C323.037 213.478 323.106 213.037 323.245 212.411C323.385 211.761 323.605 210.787 323.907 209.488H323.559C322.607 211.112 321.772 212.376 321.053 213.281C320.357 214.186 319.649 214.893 318.93 215.404C317.283 215.404 315.995 214.928 315.067 213.977C314.139 213.003 313.675 211.657 313.675 209.94C313.675 208.571 313.931 207.214 314.441 205.869C314.951 204.523 315.636 203.305 316.494 202.215C317.353 201.101 318.304 200.219 319.348 199.57C320.392 198.897 321.447 198.561 322.515 198.561L325.02 199.257L325.194 198.561L325.855 198.143L330.519 198.561L330.797 199.361C330.495 200.707 330.205 202.017 329.927 203.293C329.672 204.546 329.44 205.706 329.231 206.773C329.045 207.817 328.883 208.734 328.744 209.523L328.883 209.627ZM320.531 210.01C320.717 210.01 320.96 209.813 321.262 209.418C321.563 209.024 321.877 208.49 322.201 207.817C322.549 207.145 322.886 206.402 323.211 205.59C323.535 204.778 323.814 203.955 324.046 203.119C323.582 202.818 323.129 202.597 322.689 202.458C322.248 202.296 321.842 202.215 321.471 202.215C321.262 202.215 321.041 202.505 320.809 203.085C320.601 203.641 320.415 204.337 320.253 205.173C320.113 206.008 320.044 206.855 320.044 207.713C320.044 208.363 320.09 208.908 320.183 209.349C320.276 209.789 320.392 210.01 320.531 210.01Z" fill="#0A0A0A"/>
<path d="M343.336 208.339L344.067 210.079C343.325 211.147 342.594 212.086 341.875 212.898C341.155 213.687 340.506 214.302 339.926 214.743C339.369 215.183 338.917 215.404 338.569 215.404C336.945 215.404 335.727 214.998 334.915 214.186C334.126 213.351 333.813 212.191 333.975 210.706L335.506 202.075L335.193 201.797H333.314L333.209 201.623L333.488 199.326L335.993 198.943C336.086 198.34 336.167 197.749 336.237 197.169C336.307 196.565 336.365 196.067 336.411 195.672C336.457 195.278 336.481 195.081 336.481 195.081L342.327 193.863L342.814 194.28C342.814 194.28 342.756 194.512 342.64 194.976C342.524 195.417 342.385 195.997 342.223 196.716C342.06 197.412 341.898 198.155 341.735 198.943H345.041L345.285 199.187L344.867 201.797L341.596 201.762L341.144 202.041L339.926 208.722C339.856 209.418 340.065 209.766 340.552 209.766C340.784 209.766 341.051 209.65 341.353 209.418C341.654 209.186 342.06 208.78 342.571 208.2L343.336 208.339Z" fill="#0A0A0A"/>
<path d="M359.424 202.075C359.424 203.143 359.134 204.071 358.554 204.859C357.974 205.648 357.046 206.367 355.77 207.017C354.517 207.643 352.847 208.27 350.759 208.896C350.851 209.453 351.049 209.882 351.35 210.184C351.675 210.462 352.116 210.601 352.673 210.601C353.276 210.601 353.833 210.404 354.343 210.01C354.853 209.615 355.352 208.989 355.839 208.131L356.605 208.235L358.415 210.253C358.02 211.205 357.405 212.075 356.57 212.863C355.735 213.652 354.784 214.279 353.717 214.743C352.673 215.183 351.605 215.404 350.515 215.404C348.798 215.404 347.418 214.824 346.374 213.664C345.33 212.481 344.808 210.915 344.808 208.966C344.808 207.481 345.063 206.089 345.573 204.79C346.084 203.491 346.791 202.342 347.696 201.345C348.601 200.347 349.645 199.57 350.828 199.013C352.011 198.456 353.276 198.178 354.621 198.178C356.106 198.178 357.278 198.526 358.136 199.222C358.995 199.918 359.424 200.869 359.424 202.075ZM353.334 202.354C352.916 202.354 352.545 202.493 352.22 202.771C351.895 203.05 351.617 203.467 351.385 204.024C351.153 204.558 350.979 205.231 350.863 206.043C351.953 205.625 352.777 205.173 353.334 204.685C353.914 204.175 354.204 203.665 354.204 203.154C354.204 202.621 353.914 202.354 353.334 202.354Z" fill="#0A0A0A"/>
<path d="M375.218 215.439C373.571 215.439 372.144 215.091 370.938 214.395C369.732 213.699 368.804 212.713 368.154 211.437C367.504 210.161 367.18 208.664 367.18 206.947C367.18 205.625 367.388 204.395 367.806 203.259C368.247 202.099 368.827 201.078 369.546 200.196C370.288 199.315 371.112 198.63 372.017 198.143C372.945 197.633 373.896 197.377 374.87 197.377C375.845 197.377 376.599 197.621 377.132 198.108C377.666 198.572 377.933 199.222 377.933 200.057C377.933 200.567 377.84 200.997 377.654 201.345C377.469 201.669 377.376 201.832 377.376 201.832L377.515 201.901C380.067 200.185 382.028 198.456 383.396 196.716C384.788 194.976 385.612 193.178 385.867 191.322L386.111 191.113H386.807C386.807 191.113 386.842 191.241 386.911 191.496C387.004 191.728 387.108 192.03 387.224 192.401C387.34 192.749 387.433 193.109 387.503 193.48C387.596 193.828 387.642 194.129 387.642 194.385C387.642 194.57 387.526 194.837 387.294 195.185C387.085 195.533 386.842 195.881 386.563 196.229C386.285 196.554 386.053 196.809 385.867 196.995C385.171 197.807 384.382 198.607 383.501 199.396C382.642 200.161 381.598 200.985 380.369 201.867C379.139 202.725 377.643 203.688 375.88 204.755C374.14 205.799 372.04 207.005 369.581 208.374C369.975 209.859 370.752 211.042 371.912 211.924C373.072 212.782 374.534 213.211 376.297 213.211C378.501 213.211 380.334 212.527 381.796 211.158C383.28 209.766 384.208 207.852 384.58 205.416L386.702 205.869C386.262 207.678 385.461 209.314 384.301 210.775C383.141 212.214 381.772 213.351 380.195 214.186C378.617 215.021 376.958 215.439 375.218 215.439ZM369.442 206.913C370.996 205.985 372.179 205.207 372.991 204.581C373.826 203.955 374.395 203.386 374.696 202.876C375.021 202.365 375.184 201.809 375.184 201.205C375.184 200.718 375.044 200.347 374.766 200.092C374.511 199.813 374.151 199.674 373.687 199.674C372.945 199.674 372.249 199.941 371.599 200.475C370.95 201.008 370.428 201.739 370.033 202.667C369.639 203.595 369.442 204.662 369.442 205.869C369.442 206.031 369.442 206.217 369.442 206.425C369.442 206.611 369.442 206.773 369.442 206.913ZM379.464 207.922L378.559 207.156V206.982L381.83 203.502L382.387 203.293C382.758 203.293 383.269 203.34 383.918 203.433C384.568 203.525 385.264 203.641 386.006 203.781C386.749 203.92 387.445 204.036 388.094 204.129C388.767 204.221 389.301 204.268 389.695 204.268C389.834 204.268 390.043 204.163 390.322 203.955C390.6 203.723 390.89 203.456 391.192 203.154C391.516 202.853 391.783 202.597 391.992 202.389C392.201 202.157 392.305 202.041 392.305 202.041H392.584L393.384 202.806V203.015L390.217 206.495L389.591 206.739L382.387 205.729C382.202 205.729 381.958 205.845 381.656 206.077C381.355 206.286 381.053 206.541 380.752 206.843C380.45 207.121 380.195 207.377 379.986 207.609C379.777 207.817 379.673 207.922 379.673 207.922H379.464Z" fill="#0A0A0A"/>
<path d="M421.231 209.627C421.3 209.627 421.358 209.615 421.405 209.592C421.451 209.569 421.59 209.465 421.822 209.279C422.054 209.07 422.46 208.711 423.04 208.2L423.841 208.339L424.537 210.01C423.261 211.425 422.194 212.527 421.335 213.316C420.5 214.081 419.758 214.627 419.108 214.951C418.482 215.253 417.832 215.404 417.159 215.404C415.976 215.404 415.384 214.847 415.384 213.733C415.384 213.641 415.384 213.536 415.384 213.42C415.408 213.281 415.431 213.107 415.454 212.898C415.5 212.689 415.558 212.446 415.628 212.167C415.698 211.866 415.779 211.495 415.872 211.054C415.988 210.613 416.115 210.091 416.254 209.488H415.906C415.002 211.065 414.19 212.318 413.47 213.246C412.751 214.151 412.02 214.87 411.278 215.404C409.631 215.404 408.343 214.928 407.415 213.977C406.487 213.003 406.023 211.657 406.023 209.94C406.023 208.571 406.278 207.214 406.789 205.869C407.299 204.523 407.984 203.305 408.842 202.215C409.7 201.101 410.652 200.219 411.696 199.57C412.74 198.897 413.795 198.561 414.862 198.561L417.194 199.222L417.96 193.932C418.029 193.375 417.971 192.993 417.786 192.784C417.623 192.552 417.31 192.436 416.846 192.436H415.872L416.289 189.582C417.078 189.582 417.925 189.559 418.83 189.513C419.758 189.466 420.628 189.42 421.44 189.373C422.252 189.327 422.913 189.281 423.423 189.234C423.934 189.188 424.189 189.165 424.189 189.165L424.746 189.861C424.746 189.861 424.676 190.197 424.537 190.87C424.421 191.519 424.258 192.413 424.05 193.549C423.841 194.663 423.609 195.916 423.354 197.308C423.098 198.7 422.832 200.138 422.553 201.623C422.275 203.085 422.008 204.5 421.753 205.869C421.498 207.237 421.277 208.455 421.092 209.523L421.231 209.627ZM412.879 210.01C413.134 210.01 413.47 209.673 413.888 209.001C414.329 208.305 414.77 207.435 415.21 206.391C415.674 205.323 416.069 204.233 416.394 203.119C416.394 203.119 416.266 203.05 416.011 202.911C415.756 202.748 415.431 202.597 415.036 202.458C414.642 202.296 414.236 202.215 413.818 202.215C413.61 202.215 413.389 202.505 413.157 203.085C412.948 203.641 412.763 204.349 412.6 205.207C412.461 206.043 412.392 206.889 412.392 207.748C412.392 208.421 412.438 208.966 412.531 209.383C412.624 209.801 412.74 210.01 412.879 210.01Z" fill="#0A0A0A"/>
<path d="M439.929 202.075C439.929 203.143 439.639 204.071 439.059 204.859C438.479 205.648 437.551 206.367 436.275 207.017C435.022 207.643 433.352 208.27 431.264 208.896C431.356 209.453 431.554 209.882 431.855 210.184C432.18 210.462 432.621 210.601 433.178 210.601C433.781 210.601 434.338 210.404 434.848 210.01C435.358 209.615 435.857 208.989 436.344 208.131L437.11 208.235L438.92 210.253C438.525 211.205 437.91 212.075 437.075 212.863C436.24 213.652 435.289 214.279 434.222 214.743C433.178 215.183 432.11 215.404 431.02 215.404C429.303 215.404 427.923 214.824 426.879 213.664C425.835 212.481 425.313 210.915 425.313 208.966C425.313 207.481 425.568 206.089 426.078 204.79C426.589 203.491 427.296 202.342 428.201 201.345C429.106 200.347 430.15 199.57 431.333 199.013C432.516 198.456 433.781 198.178 435.126 198.178C436.611 198.178 437.783 198.526 438.641 199.222C439.5 199.918 439.929 200.869 439.929 202.075ZM433.839 202.354C433.421 202.354 433.05 202.493 432.725 202.771C432.4 203.05 432.122 203.467 431.89 204.024C431.658 204.558 431.484 205.231 431.368 206.043C432.458 205.625 433.282 205.173 433.839 204.685C434.419 204.175 434.709 203.665 434.709 203.154C434.709 202.621 434.419 202.354 433.839 202.354Z" fill="#0A0A0A"/>
<path d="M447.165 209.627C447.281 209.627 447.42 209.557 447.583 209.418C447.768 209.256 448.232 208.85 448.975 208.2L449.775 208.339L450.471 210.01C449.242 211.402 448.198 212.492 447.339 213.281C446.504 214.07 445.762 214.627 445.112 214.951C444.462 215.253 443.813 215.404 443.163 215.404C441.632 215.404 440.866 214.627 440.866 213.072C440.866 212.91 440.924 212.446 441.04 211.68C441.156 210.915 441.296 209.975 441.458 208.861C441.644 207.725 441.841 206.507 442.05 205.207C442.282 203.885 442.502 202.574 442.711 201.275C442.943 199.953 443.14 198.735 443.302 197.621C443.488 196.507 443.639 195.591 443.755 194.872C443.871 194.153 443.929 193.723 443.929 193.584C443.929 192.819 443.546 192.436 442.78 192.436H441.806L442.224 189.582C443.012 189.582 443.859 189.559 444.764 189.513C445.692 189.466 446.562 189.42 447.374 189.373C448.186 189.327 448.847 189.281 449.358 189.234C449.868 189.188 450.123 189.165 450.123 189.165L450.68 189.861C450.68 189.861 450.61 190.22 450.471 190.939C450.332 191.635 450.135 192.587 449.88 193.793C449.648 194.976 449.392 196.287 449.114 197.725C448.836 199.164 448.557 200.625 448.279 202.11C448.024 203.572 447.78 204.952 447.548 206.251C447.316 207.551 447.142 208.641 447.026 209.523L447.165 209.627Z" fill="#0A0A0A"/>
<path d="M458.441 209.627C458.557 209.627 458.696 209.557 458.859 209.418C459.044 209.256 459.508 208.85 460.251 208.2L461.051 208.339L461.747 210.01C460.564 211.355 459.543 212.423 458.685 213.211C457.849 214 457.095 214.569 456.423 214.917C455.75 215.241 455.089 215.404 454.439 215.404C452.908 215.404 452.142 214.627 452.142 213.072C452.49 211.007 452.78 209.256 453.012 207.817C453.244 206.379 453.418 205.254 453.534 204.442C453.65 203.607 453.708 203.108 453.708 202.945C453.708 202.551 453.615 202.261 453.43 202.075C453.244 201.89 452.954 201.797 452.56 201.797H451.585L452.003 198.943C452.583 198.943 453.291 198.932 454.126 198.909C454.984 198.862 455.901 198.804 456.875 198.735C457.849 198.665 458.812 198.595 459.763 198.526L460.32 199.222C460.065 200.196 459.81 201.298 459.555 202.528C459.299 203.734 459.056 204.952 458.824 206.182C458.615 207.388 458.441 208.502 458.302 209.523L458.441 209.627ZM456.945 196.786C456.017 196.786 455.297 196.542 454.787 196.055C454.3 195.568 454.056 194.883 454.056 194.002C454.056 192.749 454.416 191.751 455.135 191.009C455.877 190.243 456.852 189.861 458.058 189.861C458.986 189.861 459.694 190.116 460.181 190.626C460.668 191.113 460.912 191.798 460.912 192.679C460.912 193.909 460.541 194.907 459.798 195.672C459.079 196.415 458.128 196.786 456.945 196.786Z" fill="#0A0A0A"/>
<path d="M466.4 223.408C464.985 223.408 463.744 223.187 462.677 222.747C461.609 222.329 460.809 221.726 460.275 220.937C459.719 220.171 459.498 219.29 459.614 218.292L459.753 217.84C460.125 217.631 460.635 217.364 461.285 217.039C461.911 216.738 462.572 216.413 463.268 216.065C463.987 215.717 464.637 215.415 465.217 215.16L465.252 214.917C464.417 214.545 463.767 213.931 463.303 213.072C462.862 212.214 462.642 211.181 462.642 209.975C462.642 208.606 462.897 207.249 463.407 205.903C463.918 204.535 464.602 203.293 465.461 202.18C466.319 201.066 467.27 200.185 468.314 199.535C469.358 198.862 470.414 198.526 471.481 198.526L473.987 199.257L474.161 198.526L474.857 198.143L479.485 198.526L480.007 199.5C479.821 199.964 479.624 200.544 479.415 201.24C479.207 201.936 479.033 202.644 478.893 203.363C478.754 204.059 478.65 204.674 478.58 205.207C478.557 205.486 478.511 205.973 478.441 206.669C478.395 207.365 478.337 208.165 478.267 209.07C478.221 209.952 478.163 210.822 478.093 211.68C478.023 212.515 477.954 213.211 477.884 213.768C477.791 214.534 477.467 215.357 476.91 216.239C476.376 217.121 475.692 217.979 474.857 218.814C474.021 219.649 473.105 220.415 472.107 221.111C471.133 221.807 470.147 222.364 469.149 222.781C468.152 223.199 467.235 223.408 466.4 223.408ZM468.384 219.058C469.567 219.058 470.518 218.71 471.237 218.014C471.98 217.318 472.432 216.309 472.595 214.986L473.325 208.931L472.977 208.827C472.003 210.335 471.214 211.518 470.611 212.376C470.031 213.211 469.544 213.838 469.149 214.255C468.778 214.673 468.407 215.009 468.036 215.265C467.641 215.52 467.224 215.81 466.783 216.135C466.342 216.459 465.971 216.749 465.669 217.005C465.368 217.26 465.217 217.422 465.217 217.492C465.217 217.77 465.356 218.025 465.635 218.257C465.913 218.513 466.296 218.71 466.783 218.849C467.27 218.988 467.804 219.058 468.384 219.058ZM469.532 210.01C469.787 210.01 470.124 209.673 470.541 209.001C470.982 208.305 471.423 207.423 471.864 206.356C472.328 205.289 472.711 204.198 473.012 203.085C473.012 203.085 472.885 203.015 472.629 202.876C472.374 202.713 472.049 202.563 471.655 202.423C471.284 202.284 470.889 202.215 470.472 202.215C470.24 202.215 470.008 202.493 469.776 203.05C469.544 203.607 469.347 204.303 469.184 205.138C469.045 205.973 468.975 206.831 468.975 207.713C468.975 208.409 469.022 208.966 469.115 209.383C469.231 209.801 469.37 210.01 469.532 210.01Z" fill="#0A0A0A"/>
<path d="M495.666 209.523C495.736 209.523 495.817 209.499 495.91 209.453C496.002 209.383 496.165 209.244 496.397 209.035C496.652 208.827 497.012 208.513 497.476 208.096L498.311 208.235L498.972 209.905C497.766 211.274 496.733 212.353 495.875 213.142C495.04 213.931 494.286 214.487 493.613 214.812C492.963 215.137 492.314 215.299 491.664 215.299C490.133 215.299 489.367 214.615 489.367 213.246C489.367 212.945 489.437 212.515 489.576 211.959C489.715 211.379 489.889 210.741 490.098 210.045C490.33 209.349 490.551 208.653 490.759 207.957C490.968 207.261 491.142 206.634 491.281 206.077C491.421 205.521 491.49 205.115 491.49 204.859C491.49 204.535 491.432 204.291 491.316 204.129C491.223 203.966 491.073 203.885 490.864 203.885C490.609 203.885 490.272 204.21 489.855 204.859C489.437 205.486 488.973 206.367 488.463 207.504C487.952 208.618 487.442 209.905 486.931 211.367L486.688 213.42C486.641 213.745 486.374 214.047 485.887 214.325C485.4 214.603 484.774 214.824 484.008 214.986C483.243 215.149 482.419 215.23 481.537 215.23L480.841 214.429C480.841 214.429 480.888 214.105 480.98 213.455C481.096 212.805 481.236 211.947 481.398 210.88C481.584 209.789 481.781 208.583 481.99 207.261C482.199 205.915 482.407 204.558 482.616 203.189C482.848 201.797 483.057 200.475 483.243 199.222C483.451 197.969 483.625 196.879 483.765 195.951C483.927 194.999 484.043 194.327 484.113 193.932C484.182 193.375 484.124 192.993 483.939 192.784C483.776 192.552 483.463 192.436 482.999 192.436H482.025L482.442 189.582C483.231 189.582 484.078 189.559 484.983 189.513C485.887 189.466 486.746 189.42 487.558 189.373C488.393 189.327 489.066 189.281 489.576 189.234C490.11 189.188 490.377 189.165 490.377 189.165L490.898 189.895C490.898 189.895 490.829 190.197 490.69 190.8C490.574 191.38 490.411 192.181 490.203 193.201C489.994 194.222 489.762 195.371 489.507 196.647C489.275 197.899 489.031 199.199 488.776 200.544C488.521 201.89 488.289 203.201 488.08 204.477L488.323 204.442C489.066 202.748 489.773 201.379 490.446 200.335C491.142 199.268 491.803 198.526 492.43 198.108C494.054 198.108 495.318 198.445 496.223 199.117C497.151 199.767 497.615 200.672 497.615 201.832C497.615 202.18 497.522 202.702 497.337 203.398C497.151 204.094 496.931 204.836 496.675 205.625C496.443 206.414 496.211 207.156 495.979 207.852C495.771 208.525 495.631 209.047 495.562 209.418L495.666 209.523Z" fill="#0A0A0A"/>
<path d="M510.157 208.339L510.888 210.079C510.146 211.147 509.415 212.086 508.696 212.898C507.977 213.687 507.327 214.302 506.747 214.743C506.19 215.183 505.738 215.404 505.39 215.404C503.766 215.404 502.548 214.998 501.736 214.186C500.947 213.351 500.634 212.191 500.796 210.706L502.327 202.075L502.014 201.797H500.135L500.031 201.623L500.309 199.326L502.815 198.943C502.907 198.34 502.989 197.749 503.058 197.169C503.128 196.565 503.186 196.067 503.232 195.672C503.279 195.278 503.302 195.081 503.302 195.081L509.148 193.863L509.635 194.28C509.635 194.28 509.577 194.512 509.461 194.976C509.345 195.417 509.206 195.997 509.044 196.716C508.881 197.412 508.719 198.155 508.557 198.943H511.863L512.106 199.187L511.689 201.797L508.417 201.762L507.965 202.041L506.747 208.722C506.677 209.418 506.886 209.766 507.373 209.766C507.605 209.766 507.872 209.65 508.174 209.418C508.475 209.186 508.881 208.78 509.392 208.2L510.157 208.339Z" fill="#0A0A0A"/>
<path d="M514.3 215.299C513.372 215.299 512.665 215.056 512.178 214.569C511.69 214.081 511.447 213.397 511.447 212.515C511.447 211.263 511.806 210.265 512.526 209.523C513.268 208.757 514.242 208.374 515.449 208.374C516.354 208.374 517.05 208.629 517.537 209.14C518.024 209.627 518.268 210.311 518.268 211.193C518.268 212.423 517.896 213.42 517.154 214.186C516.435 214.928 515.484 215.299 514.3 215.299Z" fill="#0A0A0A"/>
</svg>
