<svg width="3697" height="60" viewBox="0 0 3697 60" fill="none" xmlns="http://www.w3.org/2000/svg">
<mask id="path-1-inside-1_1200_94" fill="white">
<path d="M15.3542 15.7038C17.9935 15.7038 20.4082 16.3496 22.5983 17.6412C24.8445 18.9328 26.6134 20.6736 27.905 22.8637C29.1966 25.0538 29.8424 27.4685 29.8424 30.1078C29.8424 32.7471 29.1966 35.1899 27.905 37.4362C26.6134 39.6262 24.8445 41.3671 22.5983 42.6586C20.4082 43.9502 17.9935 44.596 15.3542 44.596C12.7148 44.596 10.3001 43.9502 8.11007 42.6586C5.91999 41.3671 4.17916 39.6262 2.88757 37.4362C1.59599 35.1899 0.950195 32.7471 0.950195 30.1078C0.950195 27.4685 1.59599 25.0538 2.88757 22.8637C4.17916 20.6736 5.91999 18.9328 8.11007 17.6412C10.3001 16.3496 12.7148 15.7038 15.3542 15.7038ZM75.2957 0.373291C82.1467 0.373291 87.7623 1.86142 92.1425 4.83768C96.5788 7.81394 98.7969 12.2222 98.7969 18.0624V19.0732H82.624V18.7363C82.624 17.1077 82.0344 15.7881 80.8551 14.7773C79.732 13.7103 77.9912 13.1768 75.6326 13.1768C73.3303 13.1768 71.5894 13.5138 70.4101 14.1876C69.2309 14.8053 68.6412 15.6477 68.6412 16.7146C68.6412 18.0062 69.3151 19.0451 70.6629 19.8313C72.0668 20.5613 74.0884 21.2071 76.7277 21.7687L84.2245 23.4533C94.6695 25.8119 99.892 31.2309 99.892 39.7105C99.892 46.6176 97.6177 51.6997 93.069 54.9568C88.5204 58.2138 82.231 59.8423 74.2007 59.8423C69.7644 59.8423 65.665 59.1685 61.9025 57.8207C58.1963 56.473 55.1919 54.4233 52.8895 51.6717C50.6433 48.8639 49.5202 45.4103 49.5202 41.3109V40.3001C49.5202 39.8509 49.5483 39.5139 49.6044 39.2893H65.9458C65.8896 39.4578 65.8615 39.7947 65.8615 40.3001C65.8615 42.0409 66.4512 43.4729 67.6304 44.596C68.8659 45.7191 70.8875 46.2807 73.6953 46.2807C76.7838 46.2807 78.8897 45.9718 80.0128 45.3541C81.1359 44.6803 81.6975 43.7818 81.6975 42.6586C81.6975 41.3109 80.9113 40.3001 79.3389 39.6262C77.7666 38.8962 75.2957 38.1662 71.9264 37.4362C67.6585 36.5377 64.0926 35.5549 61.2287 34.488C58.4209 33.3649 55.9781 31.5679 53.9003 29.097C51.8226 26.57 50.7837 23.1164 50.7837 18.7363C50.7837 14.8053 51.8506 11.4641 53.9846 8.71244C56.1746 5.9608 59.1228 3.88303 62.8291 2.47914C66.5354 1.07524 70.6909 0.373291 75.2957 0.373291ZM140.102 0.373291C144.763 0.373291 148.919 1.29986 152.569 3.153C156.275 4.94999 159.195 7.70163 161.329 11.4079C163.463 15.058 164.53 19.5505 164.53 24.8853H147.936V21.9371C147.936 19.354 147.122 17.3043 145.493 15.7881C143.921 14.2719 141.927 13.5138 139.513 13.5138H139.092C136.733 13.5138 134.74 14.328 133.111 15.9565C131.482 17.5851 130.668 19.5786 130.668 21.9371V38.1943C130.668 40.5528 131.482 42.5463 133.111 44.1749C134.74 45.8034 136.733 46.6176 139.092 46.6176H140.271C142.686 46.6176 144.679 45.8876 146.251 44.4276C147.88 42.9113 148.694 40.8336 148.694 38.1943V35.4145H164.53C164.53 40.3563 163.491 44.6803 161.414 48.3865C159.392 52.0928 156.584 54.9287 152.99 56.8942C149.396 58.8596 145.325 59.8423 140.776 59.8423H138.418C133.42 59.8423 128.871 58.8315 124.772 56.8099C120.729 54.7883 117.528 51.8682 115.169 48.0496C112.811 44.231 111.631 39.7385 111.631 34.5722V25.6434C111.631 20.7579 112.811 16.4058 115.169 12.5872C117.584 8.71244 120.785 5.7081 124.772 3.57417C128.759 1.44025 133.083 0.373291 137.744 0.373291H140.102ZM210.49 1.21563C213.241 1.21563 215.824 1.83334 218.239 3.06877C220.71 4.24805 222.703 5.93272 224.22 8.1228C225.736 10.2567 226.494 12.7276 226.494 15.5354C226.494 17.557 226.017 19.5505 225.062 21.516C224.164 23.4814 222.928 25.1661 221.356 26.57C219.783 27.9739 218.043 28.8443 216.133 29.1812V29.6024C219.222 30.5571 221.524 32.354 223.04 34.9934C224.613 37.5765 225.399 40.7213 225.399 44.4276C225.399 47.0669 225.652 49.3412 226.157 51.2505C226.662 53.1036 227.842 54.2829 229.695 54.7883V58.2419C227.112 59.3089 223.742 59.8423 219.587 59.8423C215.6 59.8423 212.624 59.0281 210.658 57.3996C208.693 55.7149 207.71 52.9071 207.71 48.9762C207.71 45.2699 207.233 42.2936 206.278 40.0474C205.379 37.745 203.358 36.5938 200.213 36.5938H195.328V59H178.06V1.21563H210.49ZM195.328 23.706H204.256C205.436 23.706 206.418 23.313 207.204 22.5268C208.047 21.6844 208.468 20.6736 208.468 19.4944V18.652C208.468 17.4727 208.047 16.49 207.204 15.7038C206.418 14.8615 205.436 14.4403 204.256 14.4403H195.328V23.706ZM270.013 0.541761C274.617 0.541761 278.829 1.69295 282.648 3.99534C286.522 6.24158 289.583 9.30207 291.829 13.1768C294.132 16.9954 295.283 21.2071 295.283 25.8119V34.5722C295.283 39.177 294.132 43.4168 291.829 47.2915C289.583 51.1101 286.522 54.1706 282.648 56.473C278.829 58.7192 274.617 59.8423 270.013 59.8423H265.296C260.691 59.8423 256.451 58.7192 252.576 56.473C248.758 54.1706 245.697 51.1101 243.395 47.2915C241.148 43.4168 240.025 39.177 240.025 34.5722V25.8119C240.025 21.2071 241.148 16.9954 243.395 13.1768C245.697 9.30207 248.758 6.24158 252.576 3.99534C256.451 1.69295 260.691 0.541761 265.296 0.541761H270.013ZM267.486 13.5138C265.127 13.5138 263.134 14.328 261.505 15.9565C259.876 17.5851 259.062 19.5786 259.062 21.9371V38.1943C259.062 40.5528 259.876 42.5463 261.505 44.1749C263.134 45.8034 265.127 46.6176 267.486 46.6176H267.907C270.265 46.6176 272.259 45.8034 273.887 44.1749C275.516 42.5463 276.33 40.5528 276.33 38.1943V21.9371C276.33 19.5786 275.516 17.5851 273.887 15.9565C272.259 14.328 270.265 13.5138 267.907 13.5138H267.486ZM327.272 44.8487H348.247L349.931 59H309.415V1.21563H327.272V44.8487ZM379.83 44.8487H400.804L402.489 59H361.972V1.21563H379.83V44.8487ZM463.502 1.21563C468.106 1.21563 472.318 2.36682 476.137 4.66921C480.011 6.91545 483.072 9.97594 485.318 13.8507C487.62 17.6693 488.772 21.881 488.772 26.4858V33.7299C488.772 38.3346 487.62 42.5744 485.318 46.4492C483.072 50.2678 480.011 53.3283 476.137 55.6306C472.318 57.8769 468.106 59 463.502 59H437.473V1.21563H463.502ZM455.331 45.6068H461.817C464.175 45.6068 466.169 44.7926 467.797 43.1641C469.426 41.5355 470.24 39.542 470.24 37.1835V22.7795C470.24 20.4209 469.426 18.4274 467.797 16.7989C466.169 15.1704 464.175 14.3561 461.817 14.3561H455.331V45.6068ZM530.66 0.541761C535.265 0.541761 539.477 1.69295 543.295 3.99534C547.17 6.24158 550.231 9.30207 552.477 13.1768C554.779 16.9954 555.93 21.2071 555.93 25.8119V34.5722C555.93 39.177 554.779 43.4168 552.477 47.2915C550.231 51.1101 547.17 54.1706 543.295 56.473C539.477 58.7192 535.265 59.8423 530.66 59.8423H525.943C521.338 59.8423 517.099 58.7192 513.224 56.473C509.405 54.1706 506.345 51.1101 504.042 47.2915C501.796 43.4168 500.673 39.177 500.673 34.5722V25.8119C500.673 21.2071 501.796 16.9954 504.042 13.1768C506.345 9.30207 509.405 6.24158 513.224 3.99534C517.099 1.69295 521.338 0.541761 525.943 0.541761H530.66ZM528.133 13.5138C525.775 13.5138 523.781 14.328 522.153 15.9565C520.524 17.5851 519.71 19.5786 519.71 21.9371V38.1943C519.71 40.5528 520.524 42.5463 522.153 44.1749C523.781 45.8034 525.775 46.6176 528.133 46.6176H528.554C530.913 46.6176 532.906 45.8034 534.535 44.1749C536.163 42.5463 536.978 40.5528 536.978 38.1943V21.9371C536.978 19.5786 536.163 17.5851 534.535 15.9565C532.906 14.328 530.913 13.5138 528.554 13.5138H528.133ZM635.765 59H615.717L608.726 31.2871H608.22L601.229 59H580.844L565.093 1.21563H583.371L591.542 33.3087H591.879L600.134 1.21563H618.244L626.331 33.3087H626.668L634.838 1.21563H651.432L635.765 59ZM711.869 59H696.707L679.355 33.9826L679.102 33.3929V59H662.845V1.21563H677.67L695.359 26.8227L695.527 27.4123V1.21563H711.869V59ZM748.619 15.7038C751.258 15.7038 753.673 16.3496 755.863 17.6412C758.109 18.9328 759.878 20.6736 761.17 22.8637C762.461 25.0538 763.107 27.4685 763.107 30.1078C763.107 32.7471 762.461 35.1899 761.17 37.4362C759.878 39.6262 758.109 41.3671 755.863 42.6586C753.673 43.9502 751.258 44.596 748.619 44.596C745.98 44.596 743.565 43.9502 741.375 42.6586C739.185 41.3671 737.444 39.6262 736.152 37.4362C734.861 35.1899 734.215 32.7471 734.215 30.1078C734.215 27.4685 734.861 25.0538 736.152 22.8637C737.444 20.6736 739.185 18.9328 741.375 17.6412C743.565 16.3496 745.98 15.7038 748.619 15.7038ZM808.561 0.373291C815.412 0.373291 821.027 1.86142 825.407 4.83768C829.844 7.81394 832.062 12.2222 832.062 18.0624V19.0732H815.889V18.7363C815.889 17.1077 815.299 15.7881 814.12 14.7773C812.997 13.7103 811.256 13.1768 808.898 13.1768C806.595 13.1768 804.854 13.5138 803.675 14.1876C802.496 14.8053 801.906 15.6477 801.906 16.7146C801.906 18.0062 802.58 19.0451 803.928 19.8313C805.332 20.5613 807.353 21.2071 809.993 21.7687L817.489 23.4533C827.934 25.8119 833.157 31.2309 833.157 39.7105C833.157 46.6176 830.883 51.6997 826.334 54.9568C821.785 58.2138 815.496 59.8423 807.466 59.8423C803.029 59.8423 798.93 59.1685 795.167 57.8207C791.461 56.473 788.457 54.4233 786.154 51.6717C783.908 48.8639 782.785 45.4103 782.785 41.3109V40.3001C782.785 39.8509 782.813 39.5139 782.869 39.2893H799.211C799.154 39.4578 799.126 39.7947 799.126 40.3001C799.126 42.0409 799.716 43.4729 800.895 44.596C802.131 45.7191 804.152 46.2807 806.96 46.2807C810.049 46.2807 812.155 45.9718 813.278 45.3541C814.401 44.6803 814.962 43.7818 814.962 42.6586C814.962 41.3109 814.176 40.3001 812.604 39.6262C811.031 38.8962 808.561 38.1662 805.191 37.4362C800.923 36.5377 797.357 35.5549 794.494 34.488C791.686 33.3649 789.243 31.5679 787.165 29.097C785.087 26.57 784.049 23.1164 784.049 18.7363C784.049 14.8053 785.116 11.4641 787.249 8.71244C789.44 5.9608 792.388 3.88303 796.094 2.47914C799.8 1.07524 803.956 0.373291 808.561 0.373291ZM873.367 0.373291C878.028 0.373291 882.184 1.29986 885.834 3.153C889.54 4.94999 892.46 7.70163 894.594 11.4079C896.728 15.058 897.795 19.5505 897.795 24.8853H881.201V21.9371C881.201 19.354 880.387 17.3043 878.758 15.7881C877.186 14.2719 875.192 13.5138 872.778 13.5138H872.357C869.998 13.5138 868.004 14.328 866.376 15.9565C864.747 17.5851 863.933 19.5786 863.933 21.9371V38.1943C863.933 40.5528 864.747 42.5463 866.376 44.1749C868.004 45.8034 869.998 46.6176 872.357 46.6176H873.536C875.95 46.6176 877.944 45.8876 879.516 44.4276C881.145 42.9113 881.959 40.8336 881.959 38.1943V35.4145H897.795C897.795 40.3563 896.756 44.6803 894.678 48.3865C892.657 52.0928 889.849 54.9287 886.255 56.8942C882.661 58.8596 878.59 59.8423 874.041 59.8423H871.683C866.685 59.8423 862.136 58.8315 858.037 56.8099C853.994 54.7883 850.793 51.8682 848.434 48.0496C846.076 44.231 844.896 39.7385 844.896 34.5722V25.6434C844.896 20.7579 846.076 16.4058 848.434 12.5872C850.849 8.71244 854.05 5.7081 858.037 3.57417C862.024 1.44025 866.348 0.373291 871.009 0.373291H873.367ZM943.754 1.21563C946.506 1.21563 949.089 1.83334 951.504 3.06877C953.975 4.24805 955.968 5.93272 957.485 8.1228C959.001 10.2567 959.759 12.7276 959.759 15.5354C959.759 17.557 959.282 19.5505 958.327 21.516C957.428 23.4814 956.193 25.1661 954.621 26.57C953.048 27.9739 951.307 28.8443 949.398 29.1812V29.6024C952.487 30.5571 954.789 32.354 956.305 34.9934C957.878 37.5765 958.664 40.7213 958.664 44.4276C958.664 47.0669 958.917 49.3412 959.422 51.2505C959.927 53.1036 961.107 54.2829 962.96 54.7883V58.2419C960.377 59.3089 957.007 59.8423 952.852 59.8423C948.865 59.8423 945.888 59.0281 943.923 57.3996C941.957 55.7149 940.975 52.9071 940.975 48.9762C940.975 45.2699 940.497 42.2936 939.543 40.0474C938.644 37.745 936.623 36.5938 933.478 36.5938H928.592V59H911.324V1.21563H943.754ZM928.592 23.706H937.521C938.7 23.706 939.683 23.313 940.469 22.5268C941.312 21.6844 941.733 20.6736 941.733 19.4944V18.652C941.733 17.4727 941.312 16.49 940.469 15.7038C939.683 14.8615 938.7 14.4403 937.521 14.4403H928.592V23.706ZM1003.28 0.541761C1007.88 0.541761 1012.09 1.69295 1015.91 3.99534C1019.79 6.24158 1022.85 9.30207 1025.09 13.1768C1027.4 16.9954 1028.55 21.2071 1028.55 25.8119V34.5722C1028.55 39.177 1027.4 43.4168 1025.09 47.2915C1022.85 51.1101 1019.79 54.1706 1015.91 56.473C1012.09 58.7192 1007.88 59.8423 1003.28 59.8423H998.56C993.956 59.8423 989.716 58.7192 985.841 56.473C982.022 54.1706 978.962 51.1101 976.66 47.2915C974.413 43.4168 973.29 39.177 973.29 34.5722V25.8119C973.29 21.2071 974.413 16.9954 976.66 13.1768C978.962 9.30207 982.022 6.24158 985.841 3.99534C989.716 1.69295 993.956 0.541761 998.56 0.541761H1003.28ZM1000.75 13.5138C998.392 13.5138 996.398 14.328 994.77 15.9565C993.141 17.5851 992.327 19.5786 992.327 21.9371V38.1943C992.327 40.5528 993.141 42.5463 994.77 44.1749C996.398 45.8034 998.392 46.6176 1000.75 46.6176H1001.17C1003.53 46.6176 1005.52 45.8034 1007.15 44.1749C1008.78 42.5463 1009.6 40.5528 1009.6 38.1943V21.9371C1009.6 19.5786 1008.78 17.5851 1007.15 15.9565C1005.52 14.328 1003.53 13.5138 1001.17 13.5138H1000.75ZM1060.54 44.8487H1081.51L1083.2 59H1042.68V1.21563H1060.54V44.8487ZM1113.09 44.8487H1134.07L1135.75 59H1095.24V1.21563H1113.09V44.8487ZM1196.77 1.21563C1201.37 1.21563 1205.58 2.36682 1209.4 4.66921C1213.28 6.91545 1216.34 9.97594 1218.58 13.8507C1220.89 17.6693 1222.04 21.881 1222.04 26.4858V33.7299C1222.04 38.3346 1220.89 42.5744 1218.58 46.4492C1216.34 50.2678 1213.28 53.3283 1209.4 55.6306C1205.58 57.8769 1201.37 59 1196.77 59H1170.74V1.21563H1196.77ZM1188.6 45.6068H1195.08C1197.44 45.6068 1199.43 44.7926 1201.06 43.1641C1202.69 41.5355 1203.51 39.542 1203.51 37.1835V22.7795C1203.51 20.4209 1202.69 18.4274 1201.06 16.7989C1199.43 15.1704 1197.44 14.3561 1195.08 14.3561H1188.6V45.6068ZM1263.93 0.541761C1268.53 0.541761 1272.74 1.69295 1276.56 3.99534C1280.43 6.24158 1283.5 9.30207 1285.74 13.1768C1288.04 16.9954 1289.2 21.2071 1289.2 25.8119V34.5722C1289.2 39.177 1288.04 43.4168 1285.74 47.2915C1283.5 51.1101 1280.43 54.1706 1276.56 56.473C1272.74 58.7192 1268.53 59.8423 1263.93 59.8423H1259.21C1254.6 59.8423 1250.36 58.7192 1246.49 56.473C1242.67 54.1706 1239.61 51.1101 1237.31 47.2915C1235.06 43.4168 1233.94 39.177 1233.94 34.5722V25.8119C1233.94 21.2071 1235.06 16.9954 1237.31 13.1768C1239.61 9.30207 1242.67 6.24158 1246.49 3.99534C1250.36 1.69295 1254.6 0.541761 1259.21 0.541761H1263.93ZM1261.4 13.5138C1259.04 13.5138 1257.05 14.328 1255.42 15.9565C1253.79 17.5851 1252.97 19.5786 1252.97 21.9371V38.1943C1252.97 40.5528 1253.79 42.5463 1255.42 44.1749C1257.05 45.8034 1259.04 46.6176 1261.4 46.6176H1261.82C1264.18 46.6176 1266.17 45.8034 1267.8 44.1749C1269.43 42.5463 1270.24 40.5528 1270.24 38.1943V21.9371C1270.24 19.5786 1269.43 17.5851 1267.8 15.9565C1266.17 14.328 1264.18 13.5138 1261.82 13.5138H1261.4ZM1369.03 59H1348.98L1341.99 31.2871H1341.49L1334.49 59H1314.11L1298.36 1.21563H1316.64L1324.81 33.3087H1325.14L1333.4 1.21563H1351.51L1359.6 33.3087H1359.93L1368.1 1.21563H1384.7L1369.03 59ZM1445.13 59H1429.97L1412.62 33.9826L1412.37 33.3929V59H1396.11V1.21563H1410.93L1428.62 26.8227L1428.79 27.4123V1.21563H1445.13V59ZM1481.88 15.7038C1484.52 15.7038 1486.94 16.3496 1489.13 17.6412C1491.37 18.9328 1493.14 20.6736 1494.43 22.8637C1495.73 25.0538 1496.37 27.4685 1496.37 30.1078C1496.37 32.7471 1495.73 35.1899 1494.43 37.4362C1493.14 39.6262 1491.37 41.3671 1489.13 42.6586C1486.94 43.9502 1484.52 44.596 1481.88 44.596C1479.24 44.596 1476.83 43.9502 1474.64 42.6586C1472.45 41.3671 1470.71 39.6262 1469.42 37.4362C1468.13 35.1899 1467.48 32.7471 1467.48 30.1078C1467.48 27.4685 1468.13 25.0538 1469.42 22.8637C1470.71 20.6736 1472.45 18.9328 1474.64 17.6412C1476.83 16.3496 1479.24 15.7038 1481.88 15.7038ZM1541.83 0.373291C1548.68 0.373291 1554.29 1.86142 1558.67 4.83768C1563.11 7.81394 1565.33 12.2222 1565.33 18.0624V19.0732H1549.15V18.7363C1549.15 17.1077 1548.56 15.7881 1547.38 14.7773C1546.26 13.7103 1544.52 13.1768 1542.16 13.1768C1539.86 13.1768 1538.12 13.5138 1536.94 14.1876C1535.76 14.8053 1535.17 15.6477 1535.17 16.7146C1535.17 18.0062 1535.84 19.0451 1537.19 19.8313C1538.6 20.5613 1540.62 21.2071 1543.26 21.7687L1550.75 23.4533C1561.2 25.8119 1566.42 31.2309 1566.42 39.7105C1566.42 46.6176 1564.15 51.6997 1559.6 54.9568C1555.05 58.2138 1548.76 59.8423 1540.73 59.8423C1536.29 59.8423 1532.19 59.1685 1528.43 57.8207C1524.73 56.473 1521.72 54.4233 1519.42 51.6717C1517.17 48.8639 1516.05 45.4103 1516.05 41.3109V40.3001C1516.05 39.8509 1516.08 39.5139 1516.13 39.2893H1532.48C1532.42 39.4578 1532.39 39.7947 1532.39 40.3001C1532.39 42.0409 1532.98 43.4729 1534.16 44.596C1535.4 45.7191 1537.42 46.2807 1540.22 46.2807C1543.31 46.2807 1545.42 45.9718 1546.54 45.3541C1547.67 44.6803 1548.23 43.7818 1548.23 42.6586C1548.23 41.3109 1547.44 40.3001 1545.87 39.6262C1544.3 38.8962 1541.83 38.1662 1538.46 37.4362C1534.19 36.5377 1530.62 35.5549 1527.76 34.488C1524.95 33.3649 1522.51 31.5679 1520.43 29.097C1518.35 26.57 1517.31 23.1164 1517.31 18.7363C1517.31 14.8053 1518.38 11.4641 1520.51 8.71244C1522.7 5.9608 1525.65 3.88303 1529.36 2.47914C1533.07 1.07524 1537.22 0.373291 1541.83 0.373291ZM1606.63 0.373291C1611.29 0.373291 1615.45 1.29986 1619.1 3.153C1622.81 4.94999 1625.73 7.70163 1627.86 11.4079C1629.99 15.058 1631.06 19.5505 1631.06 24.8853H1614.47V21.9371C1614.47 19.354 1613.65 17.3043 1612.02 15.7881C1610.45 14.2719 1608.46 13.5138 1606.04 13.5138H1605.62C1603.26 13.5138 1601.27 14.328 1599.64 15.9565C1598.01 17.5851 1597.2 19.5786 1597.2 21.9371V38.1943C1597.2 40.5528 1598.01 42.5463 1599.64 44.1749C1601.27 45.8034 1603.26 46.6176 1605.62 46.6176H1606.8C1609.22 46.6176 1611.21 45.8876 1612.78 44.4276C1614.41 42.9113 1615.22 40.8336 1615.22 38.1943V35.4145H1631.06C1631.06 40.3563 1630.02 44.6803 1627.94 48.3865C1625.92 52.0928 1623.11 54.9287 1619.52 56.8942C1615.93 58.8596 1611.85 59.8423 1607.31 59.8423H1604.95C1599.95 59.8423 1595.4 58.8315 1591.3 56.8099C1587.26 54.7883 1584.06 51.8682 1581.7 48.0496C1579.34 44.231 1578.16 39.7385 1578.16 34.5722V25.6434C1578.16 20.7579 1579.34 16.4058 1581.7 12.5872C1584.11 8.71244 1587.31 5.7081 1591.3 3.57417C1595.29 1.44025 1599.61 0.373291 1604.27 0.373291H1606.63ZM1677.02 1.21563C1679.77 1.21563 1682.35 1.83334 1684.77 3.06877C1687.24 4.24805 1689.23 5.93272 1690.75 8.1228C1692.27 10.2567 1693.02 12.7276 1693.02 15.5354C1693.02 17.557 1692.55 19.5505 1691.59 21.516C1690.69 23.4814 1689.46 25.1661 1687.89 26.57C1686.31 27.9739 1684.57 28.8443 1682.66 29.1812V29.6024C1685.75 30.5571 1688.05 32.354 1689.57 34.9934C1691.14 37.5765 1691.93 40.7213 1691.93 44.4276C1691.93 47.0669 1692.18 49.3412 1692.69 51.2505C1693.19 53.1036 1694.37 54.2829 1696.22 54.7883V58.2419C1693.64 59.3089 1690.27 59.8423 1686.12 59.8423C1682.13 59.8423 1679.15 59.0281 1677.19 57.3996C1675.22 55.7149 1674.24 52.9071 1674.24 48.9762C1674.24 45.2699 1673.76 42.2936 1672.81 40.0474C1671.91 37.745 1669.89 36.5938 1666.74 36.5938H1661.86V59H1644.59V1.21563H1677.02ZM1661.86 23.706H1670.79C1671.97 23.706 1672.95 23.313 1673.73 22.5268C1674.58 21.6844 1675 20.6736 1675 19.4944V18.652C1675 17.4727 1674.58 16.49 1673.73 15.7038C1672.95 14.8615 1671.97 14.4403 1670.79 14.4403H1661.86V23.706ZM1736.54 0.541761C1741.15 0.541761 1745.36 1.69295 1749.18 3.99534C1753.05 6.24158 1756.11 9.30207 1758.36 13.1768C1760.66 16.9954 1761.81 21.2071 1761.81 25.8119V34.5722C1761.81 39.177 1760.66 43.4168 1758.36 47.2915C1756.11 51.1101 1753.05 54.1706 1749.18 56.473C1745.36 58.7192 1741.15 59.8423 1736.54 59.8423H1731.83C1727.22 59.8423 1722.98 58.7192 1719.11 56.473C1715.29 54.1706 1712.23 51.1101 1709.92 47.2915C1707.68 43.4168 1706.56 39.177 1706.56 34.5722V25.8119C1706.56 21.2071 1707.68 16.9954 1709.92 13.1768C1712.23 9.30207 1715.29 6.24158 1719.11 3.99534C1722.98 1.69295 1727.22 0.541761 1731.83 0.541761H1736.54ZM1734.02 13.5138C1731.66 13.5138 1729.66 14.328 1728.03 15.9565C1726.41 17.5851 1725.59 19.5786 1725.59 21.9371V38.1943C1725.59 40.5528 1726.41 42.5463 1728.03 44.1749C1729.66 45.8034 1731.66 46.6176 1734.02 46.6176H1734.44C1736.8 46.6176 1738.79 45.8034 1740.42 44.1749C1742.05 42.5463 1742.86 40.5528 1742.86 38.1943V21.9371C1742.86 19.5786 1742.05 17.5851 1740.42 15.9565C1738.79 14.328 1736.8 13.5138 1734.44 13.5138H1734.02ZM1793.8 44.8487H1814.78L1816.46 59H1775.94V1.21563H1793.8V44.8487ZM1846.36 44.8487H1867.33L1869.02 59H1828.5V1.21563H1846.36V44.8487ZM1930.03 1.21563C1934.64 1.21563 1938.85 2.36682 1942.67 4.66921C1946.54 6.91545 1949.6 9.97594 1951.85 13.8507C1954.15 17.6693 1955.3 21.881 1955.3 26.4858V33.7299C1955.3 38.3346 1954.15 42.5744 1951.85 46.4492C1949.6 50.2678 1946.54 53.3283 1942.67 55.6306C1938.85 57.8769 1934.64 59 1930.03 59H1904V1.21563H1930.03ZM1921.86 45.6068H1928.35C1930.71 45.6068 1932.7 44.7926 1934.33 43.1641C1935.96 41.5355 1936.77 39.542 1936.77 37.1835V22.7795C1936.77 20.4209 1935.96 18.4274 1934.33 16.7989C1932.7 15.1704 1930.71 14.3561 1928.35 14.3561H1921.86V45.6068ZM1997.19 0.541761C2001.79 0.541761 2006.01 1.69295 2009.83 3.99534C2013.7 6.24158 2016.76 9.30207 2019.01 13.1768C2021.31 16.9954 2022.46 21.2071 2022.46 25.8119V34.5722C2022.46 39.177 2021.31 43.4168 2019.01 47.2915C2016.76 51.1101 2013.7 54.1706 2009.83 56.473C2006.01 58.7192 2001.79 59.8423 1997.19 59.8423H1992.47C1987.87 59.8423 1983.63 58.7192 1979.75 56.473C1975.93 54.1706 1972.87 51.1101 1970.57 47.2915C1968.33 43.4168 1967.2 39.177 1967.2 34.5722V25.8119C1967.2 21.2071 1968.33 16.9954 1970.57 13.1768C1972.87 9.30207 1975.93 6.24158 1979.75 3.99534C1983.63 1.69295 1987.87 0.541761 1992.47 0.541761H1997.19ZM1994.66 13.5138C1992.3 13.5138 1990.31 14.328 1988.68 15.9565C1987.05 17.5851 1986.24 19.5786 1986.24 21.9371V38.1943C1986.24 40.5528 1987.05 42.5463 1988.68 44.1749C1990.31 45.8034 1992.3 46.6176 1994.66 46.6176H1995.08C1997.44 46.6176 1999.44 45.8034 2001.06 44.1749C2002.69 42.5463 2003.51 40.5528 2003.51 38.1943V21.9371C2003.51 19.5786 2002.69 17.5851 2001.06 15.9565C1999.44 14.328 1997.44 13.5138 1995.08 13.5138H1994.66ZM2102.29 59H2082.25L2075.26 31.2871H2074.75L2067.76 59H2047.37L2031.62 1.21563H2049.9L2058.07 33.3087H2058.41L2066.66 1.21563H2084.77L2092.86 33.3087H2093.2L2101.37 1.21563H2117.96L2102.29 59ZM2178.4 59H2163.24L2145.88 33.9826L2145.63 33.3929V59H2129.37V1.21563H2144.2L2161.89 26.8227L2162.06 27.4123V1.21563H2178.4V59ZM2215.15 15.7038C2217.79 15.7038 2220.2 16.3496 2222.39 17.6412C2224.64 18.9328 2226.41 20.6736 2227.7 22.8637C2228.99 25.0538 2229.64 27.4685 2229.64 30.1078C2229.64 32.7471 2228.99 35.1899 2227.7 37.4362C2226.41 39.6262 2224.64 41.3671 2222.39 42.6586C2220.2 43.9502 2217.79 44.596 2215.15 44.596C2212.51 44.596 2210.09 43.9502 2207.9 42.6586C2205.71 41.3671 2203.97 39.6262 2202.68 37.4362C2201.39 35.1899 2200.74 32.7471 2200.74 30.1078C2200.74 27.4685 2201.39 25.0538 2202.68 22.8637C2203.97 20.6736 2205.71 18.9328 2207.9 17.6412C2210.09 16.3496 2212.51 15.7038 2215.15 15.7038ZM2275.09 0.373291C2281.94 0.373291 2287.56 1.86142 2291.94 4.83768C2296.37 7.81394 2298.59 12.2222 2298.59 18.0624V19.0732H2282.42V18.7363C2282.42 17.1077 2281.83 15.7881 2280.65 14.7773C2279.53 13.7103 2277.79 13.1768 2275.43 13.1768C2273.12 13.1768 2271.38 13.5138 2270.2 14.1876C2269.03 14.8053 2268.44 15.6477 2268.44 16.7146C2268.44 18.0062 2269.11 19.0451 2270.46 19.8313C2271.86 20.5613 2273.88 21.2071 2276.52 21.7687L2284.02 23.4533C2294.46 25.8119 2299.69 31.2309 2299.69 39.7105C2299.69 46.6176 2297.41 51.6997 2292.86 54.9568C2288.31 58.2138 2282.03 59.8423 2274 59.8423C2269.56 59.8423 2265.46 59.1685 2261.7 57.8207C2257.99 56.473 2254.99 54.4233 2252.68 51.6717C2250.44 48.8639 2249.31 45.4103 2249.31 41.3109V40.3001C2249.31 39.8509 2249.34 39.5139 2249.4 39.2893H2265.74C2265.68 39.4578 2265.66 39.7947 2265.66 40.3001C2265.66 42.0409 2266.25 43.4729 2267.42 44.596C2268.66 45.7191 2270.68 46.2807 2273.49 46.2807C2276.58 46.2807 2278.68 45.9718 2279.81 45.3541C2280.93 44.6803 2281.49 43.7818 2281.49 42.6586C2281.49 41.3109 2280.71 40.3001 2279.13 39.6262C2277.56 38.8962 2275.09 38.1662 2271.72 37.4362C2267.45 36.5377 2263.89 35.5549 2261.02 34.488C2258.22 33.3649 2255.77 31.5679 2253.69 29.097C2251.62 26.57 2250.58 23.1164 2250.58 18.7363C2250.58 14.8053 2251.65 11.4641 2253.78 8.71244C2255.97 5.9608 2258.92 3.88303 2262.62 2.47914C2266.33 1.07524 2270.49 0.373291 2275.09 0.373291ZM2339.9 0.373291C2344.56 0.373291 2348.71 1.29986 2352.36 3.153C2356.07 4.94999 2358.99 7.70163 2361.12 11.4079C2363.26 15.058 2364.32 19.5505 2364.32 24.8853H2347.73V21.9371C2347.73 19.354 2346.92 17.3043 2345.29 15.7881C2343.72 14.2719 2341.72 13.5138 2339.31 13.5138H2338.89C2336.53 13.5138 2334.53 14.328 2332.91 15.9565C2331.28 17.5851 2330.46 19.5786 2330.46 21.9371V38.1943C2330.46 40.5528 2331.28 42.5463 2332.91 44.1749C2334.53 45.8034 2336.53 46.6176 2338.89 46.6176H2340.07C2342.48 46.6176 2344.47 45.8876 2346.05 44.4276C2347.67 42.9113 2348.49 40.8336 2348.49 38.1943V35.4145H2364.32C2364.32 40.3563 2363.29 44.6803 2361.21 48.3865C2359.19 52.0928 2356.38 54.9287 2352.78 56.8942C2349.19 58.8596 2345.12 59.8423 2340.57 59.8423H2338.21C2333.21 59.8423 2328.67 58.8315 2324.57 56.8099C2320.52 54.7883 2317.32 51.8682 2314.96 48.0496C2312.61 44.231 2311.43 39.7385 2311.43 34.5722V25.6434C2311.43 20.7579 2312.61 16.4058 2314.96 12.5872C2317.38 8.71244 2320.58 5.7081 2324.57 3.57417C2328.55 1.44025 2332.88 0.373291 2337.54 0.373291H2339.9ZM2410.28 1.21563C2413.04 1.21563 2415.62 1.83334 2418.03 3.06877C2420.5 4.24805 2422.5 5.93272 2424.01 8.1228C2425.53 10.2567 2426.29 12.7276 2426.29 15.5354C2426.29 17.557 2425.81 19.5505 2424.86 21.516C2423.96 23.4814 2422.72 25.1661 2421.15 26.57C2419.58 27.9739 2417.84 28.8443 2415.93 29.1812V29.6024C2419.02 30.5571 2421.32 32.354 2422.83 34.9934C2424.41 37.5765 2425.19 40.7213 2425.19 44.4276C2425.19 47.0669 2425.45 49.3412 2425.95 51.2505C2426.46 53.1036 2427.64 54.2829 2429.49 54.7883V58.2419C2426.91 59.3089 2423.54 59.8423 2419.38 59.8423C2415.39 59.8423 2412.42 59.0281 2410.45 57.3996C2408.49 55.7149 2407.5 52.9071 2407.5 48.9762C2407.5 45.2699 2407.03 42.2936 2406.07 40.0474C2405.17 37.745 2403.15 36.5938 2400.01 36.5938H2395.12V59H2377.85V1.21563H2410.28ZM2395.12 23.706H2404.05C2405.23 23.706 2406.21 23.313 2407 22.5268C2407.84 21.6844 2408.26 20.6736 2408.26 19.4944V18.652C2408.26 17.4727 2407.84 16.49 2407 15.7038C2406.21 14.8615 2405.23 14.4403 2404.05 14.4403H2395.12V23.706ZM2469.81 0.541761C2474.41 0.541761 2478.62 1.69295 2482.44 3.99534C2486.32 6.24158 2489.38 9.30207 2491.62 13.1768C2493.93 16.9954 2495.08 21.2071 2495.08 25.8119V34.5722C2495.08 39.177 2493.93 43.4168 2491.62 47.2915C2489.38 51.1101 2486.32 54.1706 2482.44 56.473C2478.62 58.7192 2474.41 59.8423 2469.81 59.8423H2465.09C2460.49 59.8423 2456.25 58.7192 2452.37 56.473C2448.55 54.1706 2445.49 51.1101 2443.19 47.2915C2440.94 43.4168 2439.82 39.177 2439.82 34.5722V25.8119C2439.82 21.2071 2440.94 16.9954 2443.19 13.1768C2445.49 9.30207 2448.55 6.24158 2452.37 3.99534C2456.25 1.69295 2460.49 0.541761 2465.09 0.541761H2469.81ZM2467.28 13.5138C2464.92 13.5138 2462.93 14.328 2461.3 15.9565C2459.67 17.5851 2458.86 19.5786 2458.86 21.9371V38.1943C2458.86 40.5528 2459.67 42.5463 2461.3 44.1749C2462.93 45.8034 2464.92 46.6176 2467.28 46.6176H2467.7C2470.06 46.6176 2472.05 45.8034 2473.68 44.1749C2475.31 42.5463 2476.12 40.5528 2476.12 38.1943V21.9371C2476.12 19.5786 2475.31 17.5851 2473.68 15.9565C2472.05 14.328 2470.06 13.5138 2467.7 13.5138H2467.28ZM2527.07 44.8487H2548.04L2549.73 59H2509.21V1.21563H2527.07V44.8487ZM2579.62 44.8487H2600.6L2602.28 59H2561.77V1.21563H2579.62V44.8487ZM2663.3 1.21563C2667.9 1.21563 2672.11 2.36682 2675.93 4.66921C2679.81 6.91545 2682.87 9.97594 2685.11 13.8507C2687.42 17.6693 2688.57 21.881 2688.57 26.4858V33.7299C2688.57 38.3346 2687.42 42.5744 2685.11 46.4492C2682.87 50.2678 2679.81 53.3283 2675.93 55.6306C2672.11 57.8769 2667.9 59 2663.3 59H2637.27V1.21563H2663.3ZM2655.13 45.6068H2661.61C2663.97 45.6068 2665.96 44.7926 2667.59 43.1641C2669.22 41.5355 2670.03 39.542 2670.03 37.1835V22.7795C2670.03 20.4209 2669.22 18.4274 2667.59 16.7989C2665.96 15.1704 2663.97 14.3561 2661.61 14.3561H2655.13V45.6068ZM2730.45 0.541761C2735.06 0.541761 2739.27 1.69295 2743.09 3.99534C2746.96 6.24158 2750.03 9.30207 2752.27 13.1768C2754.57 16.9954 2755.72 21.2071 2755.72 25.8119V34.5722C2755.72 39.177 2754.57 43.4168 2752.27 47.2915C2750.03 51.1101 2746.96 54.1706 2743.09 56.473C2739.27 58.7192 2735.06 59.8423 2730.45 59.8423H2725.74C2721.13 59.8423 2716.89 58.7192 2713.02 56.473C2709.2 54.1706 2706.14 51.1101 2703.84 47.2915C2701.59 43.4168 2700.47 39.177 2700.47 34.5722V25.8119C2700.47 21.2071 2701.59 16.9954 2703.84 13.1768C2706.14 9.30207 2709.2 6.24158 2713.02 3.99534C2716.89 1.69295 2721.13 0.541761 2725.74 0.541761H2730.45ZM2727.93 13.5138C2725.57 13.5138 2723.58 14.328 2721.95 15.9565C2720.32 17.5851 2719.5 19.5786 2719.5 21.9371V38.1943C2719.5 40.5528 2720.32 42.5463 2721.95 44.1749C2723.58 45.8034 2725.57 46.6176 2727.93 46.6176H2728.35C2730.71 46.6176 2732.7 45.8034 2734.33 44.1749C2735.96 42.5463 2736.77 40.5528 2736.77 38.1943V21.9371C2736.77 19.5786 2735.96 17.5851 2734.33 15.9565C2732.7 14.328 2730.71 13.5138 2728.35 13.5138H2727.93ZM2835.56 59H2815.51L2808.52 31.2871H2808.01L2801.02 59H2780.64L2764.89 1.21563H2783.17L2791.34 33.3087H2791.67L2799.93 1.21563H2818.04L2826.13 33.3087H2826.46L2834.63 1.21563H2851.23L2835.56 59ZM2911.66 59H2896.5L2879.15 33.9826L2878.9 33.3929V59H2862.64V1.21563H2877.46L2895.15 26.8227L2895.32 27.4123V1.21563H2911.66V59ZM2948.41 15.7038C2951.05 15.7038 2953.47 16.3496 2955.66 17.6412C2957.9 18.9328 2959.67 20.6736 2960.96 22.8637C2962.26 25.0538 2962.9 27.4685 2962.9 30.1078C2962.9 32.7471 2962.26 35.1899 2960.96 37.4362C2959.67 39.6262 2957.9 41.3671 2955.66 42.6586C2953.47 43.9502 2951.05 44.596 2948.41 44.596C2945.77 44.596 2943.36 43.9502 2941.17 42.6586C2938.98 41.3671 2937.24 39.6262 2935.95 37.4362C2934.66 35.1899 2934.01 32.7471 2934.01 30.1078C2934.01 27.4685 2934.66 25.0538 2935.95 22.8637C2937.24 20.6736 2938.98 18.9328 2941.17 17.6412C2943.36 16.3496 2945.77 15.7038 2948.41 15.7038ZM3008.35 0.373291C3015.21 0.373291 3020.82 1.86142 3025.2 4.83768C3029.64 7.81394 3031.86 12.2222 3031.86 18.0624V19.0732H3015.68V18.7363C3015.68 17.1077 3015.09 15.7881 3013.91 14.7773C3012.79 13.7103 3011.05 13.1768 3008.69 13.1768C3006.39 13.1768 3004.65 13.5138 3003.47 14.1876C3002.29 14.8053 3001.7 15.6477 3001.7 16.7146C3001.7 18.0062 3002.37 19.0451 3003.72 19.8313C3005.13 20.5613 3007.15 21.2071 3009.79 21.7687L3017.28 23.4533C3027.73 25.8119 3032.95 31.2309 3032.95 39.7105C3032.95 46.6176 3030.68 51.6997 3026.13 54.9568C3021.58 58.2138 3015.29 59.8423 3007.26 59.8423C3002.82 59.8423 2998.72 59.1685 2994.96 57.8207C2991.26 56.473 2988.25 54.4233 2985.95 51.6717C2983.7 48.8639 2982.58 45.4103 2982.58 41.3109V40.3001C2982.58 39.8509 2982.61 39.5139 2982.66 39.2893H2999.01C2998.95 39.4578 2998.92 39.7947 2998.92 40.3001C2998.92 42.0409 2999.51 43.4729 3000.69 44.596C3001.93 45.7191 3003.95 46.2807 3006.75 46.2807C3009.84 46.2807 3011.95 45.9718 3013.07 45.3541C3014.2 44.6803 3014.76 43.7818 3014.76 42.6586C3014.76 41.3109 3013.97 40.3001 3012.4 39.6262C3010.83 38.8962 3008.36 38.1662 3004.99 37.4362C3000.72 36.5377 2997.15 35.5549 2994.29 34.488C2991.48 33.3649 2989.04 31.5679 2986.96 29.097C2984.88 26.57 2983.84 23.1164 2983.84 18.7363C2983.84 14.8053 2984.91 11.4641 2987.04 8.71244C2989.23 5.9608 2992.18 3.88303 2995.89 2.47914C2999.59 1.07524 3003.75 0.373291 3008.35 0.373291ZM3073.16 0.373291C3077.82 0.373291 3081.98 1.29986 3085.63 3.153C3089.33 4.94999 3092.25 7.70163 3094.39 11.4079C3096.52 15.058 3097.59 19.5505 3097.59 24.8853H3081V21.9371C3081 19.354 3080.18 17.3043 3078.55 15.7881C3076.98 14.2719 3074.99 13.5138 3072.57 13.5138H3072.15C3069.79 13.5138 3067.8 14.328 3066.17 15.9565C3064.54 17.5851 3063.73 19.5786 3063.73 21.9371V38.1943C3063.73 40.5528 3064.54 42.5463 3066.17 44.1749C3067.8 45.8034 3069.79 46.6176 3072.15 46.6176H3073.33C3075.75 46.6176 3077.74 45.8876 3079.31 44.4276C3080.94 42.9113 3081.75 40.8336 3081.75 38.1943V35.4145H3097.59C3097.59 40.3563 3096.55 44.6803 3094.47 48.3865C3092.45 52.0928 3089.64 54.9287 3086.05 56.8942C3082.46 58.8596 3078.38 59.8423 3073.84 59.8423H3071.48C3066.48 59.8423 3061.93 58.8315 3057.83 56.8099C3053.79 54.7883 3050.59 51.8682 3048.23 48.0496C3045.87 44.231 3044.69 39.7385 3044.69 34.5722V25.6434C3044.69 20.7579 3045.87 16.4058 3048.23 12.5872C3050.64 8.71244 3053.84 5.7081 3057.83 3.57417C3061.82 1.44025 3066.14 0.373291 3070.8 0.373291H3073.16ZM3143.55 1.21563C3146.3 1.21563 3148.88 1.83334 3151.3 3.06877C3153.77 4.24805 3155.76 5.93272 3157.28 8.1228C3158.8 10.2567 3159.55 12.7276 3159.55 15.5354C3159.55 17.557 3159.08 19.5505 3158.12 21.516C3157.22 23.4814 3155.99 25.1661 3154.42 26.57C3152.84 27.9739 3151.1 28.8443 3149.19 29.1812V29.6024C3152.28 30.5571 3154.58 32.354 3156.1 34.9934C3157.67 37.5765 3158.46 40.7213 3158.46 44.4276C3158.46 47.0669 3158.71 49.3412 3159.22 51.2505C3159.72 53.1036 3160.9 54.2829 3162.75 54.7883V58.2419C3160.17 59.3089 3156.8 59.8423 3152.65 59.8423C3148.66 59.8423 3145.68 59.0281 3143.72 57.3996C3141.75 55.7149 3140.77 52.9071 3140.77 48.9762C3140.77 45.2699 3140.29 42.2936 3139.34 40.0474C3138.44 37.745 3136.42 36.5938 3133.27 36.5938H3128.39V59H3111.12V1.21563H3143.55ZM3128.39 23.706H3137.32C3138.49 23.706 3139.48 23.313 3140.26 22.5268C3141.11 21.6844 3141.53 20.6736 3141.53 19.4944V18.652C3141.53 17.4727 3141.11 16.49 3140.26 15.7038C3139.48 14.8615 3138.49 14.4403 3137.32 14.4403H3128.39V23.706ZM3203.07 0.541761C3207.68 0.541761 3211.89 1.69295 3215.71 3.99534C3219.58 6.24158 3222.64 9.30207 3224.89 13.1768C3227.19 16.9954 3228.34 21.2071 3228.34 25.8119V34.5722C3228.34 39.177 3227.19 43.4168 3224.89 47.2915C3222.64 51.1101 3219.58 54.1706 3215.71 56.473C3211.89 58.7192 3207.68 59.8423 3203.07 59.8423H3198.35C3193.75 59.8423 3189.51 58.7192 3185.64 56.473C3181.82 54.1706 3178.76 51.1101 3176.45 47.2915C3174.21 43.4168 3173.08 39.177 3173.08 34.5722V25.8119C3173.08 21.2071 3174.21 16.9954 3176.45 13.1768C3178.76 9.30207 3181.82 6.24158 3185.64 3.99534C3189.51 1.69295 3193.75 0.541761 3198.35 0.541761H3203.07ZM3200.54 13.5138C3198.19 13.5138 3196.19 14.328 3194.56 15.9565C3192.94 17.5851 3192.12 19.5786 3192.12 21.9371V38.1943C3192.12 40.5528 3192.94 42.5463 3194.56 44.1749C3196.19 45.8034 3198.19 46.6176 3200.54 46.6176H3200.97C3203.32 46.6176 3205.32 45.8034 3206.95 44.1749C3208.58 42.5463 3209.39 40.5528 3209.39 38.1943V21.9371C3209.39 19.5786 3208.58 17.5851 3206.95 15.9565C3205.32 14.328 3203.32 13.5138 3200.97 13.5138H3200.54ZM3260.33 44.8487H3281.31L3282.99 59H3242.47V1.21563H3260.33V44.8487ZM3312.89 44.8487H3333.86L3335.55 59H3295.03V1.21563H3312.89V44.8487ZM3396.56 1.21563C3401.17 1.21563 3405.38 2.36682 3409.2 4.66921C3413.07 6.91545 3416.13 9.97594 3418.38 13.8507C3420.68 17.6693 3421.83 21.881 3421.83 26.4858V33.7299C3421.83 38.3346 3420.68 42.5744 3418.38 46.4492C3416.13 50.2678 3413.07 53.3283 3409.2 55.6306C3405.38 57.8769 3401.17 59 3396.56 59H3370.53V1.21563H3396.56ZM3388.39 45.6068H3394.88C3397.24 45.6068 3399.23 44.7926 3400.86 43.1641C3402.49 41.5355 3403.3 39.542 3403.3 37.1835V22.7795C3403.3 20.4209 3402.49 18.4274 3400.86 16.7989C3399.23 15.1704 3397.24 14.3561 3394.88 14.3561H3388.39V45.6068ZM3463.72 0.541761C3468.32 0.541761 3472.54 1.69295 3476.35 3.99534C3480.23 6.24158 3483.29 9.30207 3485.54 13.1768C3487.84 16.9954 3488.99 21.2071 3488.99 25.8119V34.5722C3488.99 39.177 3487.84 43.4168 3485.54 47.2915C3483.29 51.1101 3480.23 54.1706 3476.35 56.473C3472.54 58.7192 3468.32 59.8423 3463.72 59.8423H3459C3454.4 59.8423 3450.16 58.7192 3446.28 56.473C3442.46 54.1706 3439.4 51.1101 3437.1 47.2915C3434.86 43.4168 3433.73 39.177 3433.73 34.5722V25.8119C3433.73 21.2071 3434.86 16.9954 3437.1 13.1768C3439.4 9.30207 3442.46 6.24158 3446.28 3.99534C3450.16 1.69295 3454.4 0.541761 3459 0.541761H3463.72ZM3461.19 13.5138C3458.83 13.5138 3456.84 14.328 3455.21 15.9565C3453.58 17.5851 3452.77 19.5786 3452.77 21.9371V38.1943C3452.77 40.5528 3453.58 42.5463 3455.21 44.1749C3456.84 45.8034 3458.83 46.6176 3461.19 46.6176H3461.61C3463.97 46.6176 3465.97 45.8034 3467.59 44.1749C3469.22 42.5463 3470.04 40.5528 3470.04 38.1943V21.9371C3470.04 19.5786 3469.22 17.5851 3467.59 15.9565C3465.97 14.328 3463.97 13.5138 3461.61 13.5138H3461.19ZM3568.82 59H3548.78L3541.79 31.2871H3541.28L3534.29 59H3513.9L3498.15 1.21563H3516.43L3524.6 33.3087H3524.94L3533.19 1.21563H3551.3L3559.39 33.3087H3559.73L3567.9 1.21563H3584.49L3568.82 59ZM3644.93 59H3629.77L3612.41 33.9826L3612.16 33.3929V59H3595.9V1.21563H3610.73L3628.42 26.8227L3628.59 27.4123V1.21563H3644.93V59ZM3681.68 15.7038C3684.32 15.7038 3686.73 16.3496 3688.92 17.6412C3691.17 18.9328 3692.94 20.6736 3694.23 22.8637C3695.52 25.0538 3696.17 27.4685 3696.17 30.1078C3696.17 32.7471 3695.52 35.1899 3694.23 37.4362C3692.94 39.6262 3691.17 41.3671 3688.92 42.6586C3686.73 43.9502 3684.32 44.596 3681.68 44.596C3679.04 44.596 3676.62 43.9502 3674.43 42.6586C3672.24 41.3671 3670.5 39.6262 3669.21 37.4362C3667.92 35.1899 3667.27 32.7471 3667.27 30.1078C3667.27 27.4685 3667.92 25.0538 3669.21 22.8637C3670.5 20.6736 3672.24 18.9328 3674.43 17.6412C3676.62 16.3496 3679.04 15.7038 3681.68 15.7038Z"/>
</mask>
<path d="M15.3542 15.7038C17.9935 15.7038 20.4082 16.3496 22.5983 17.6412C24.8445 18.9328 26.6134 20.6736 27.905 22.8637C29.1966 25.0538 29.8424 27.4685 29.8424 30.1078C29.8424 32.7471 29.1966 35.1899 27.905 37.4362C26.6134 39.6262 24.8445 41.3671 22.5983 42.6586C20.4082 43.9502 17.9935 44.596 15.3542 44.596C12.7148 44.596 10.3001 43.9502 8.11007 42.6586C5.91999 41.3671 4.17916 39.6262 2.88757 37.4362C1.59599 35.1899 0.950195 32.7471 0.950195 30.1078C0.950195 27.4685 1.59599 25.0538 2.88757 22.8637C4.17916 20.6736 5.91999 18.9328 8.11007 17.6412C10.3001 16.3496 12.7148 15.7038 15.3542 15.7038ZM75.2957 0.373291C82.1467 0.373291 87.7623 1.86142 92.1425 4.83768C96.5788 7.81394 98.7969 12.2222 98.7969 18.0624V19.0732H82.624V18.7363C82.624 17.1077 82.0344 15.7881 80.8551 14.7773C79.732 13.7103 77.9912 13.1768 75.6326 13.1768C73.3303 13.1768 71.5894 13.5138 70.4101 14.1876C69.2309 14.8053 68.6412 15.6477 68.6412 16.7146C68.6412 18.0062 69.3151 19.0451 70.6629 19.8313C72.0668 20.5613 74.0884 21.2071 76.7277 21.7687L84.2245 23.4533C94.6695 25.8119 99.892 31.2309 99.892 39.7105C99.892 46.6176 97.6177 51.6997 93.069 54.9568C88.5204 58.2138 82.231 59.8423 74.2007 59.8423C69.7644 59.8423 65.665 59.1685 61.9025 57.8207C58.1963 56.473 55.1919 54.4233 52.8895 51.6717C50.6433 48.8639 49.5202 45.4103 49.5202 41.3109V40.3001C49.5202 39.8509 49.5483 39.5139 49.6044 39.2893H65.9458C65.8896 39.4578 65.8615 39.7947 65.8615 40.3001C65.8615 42.0409 66.4512 43.4729 67.6304 44.596C68.8659 45.7191 70.8875 46.2807 73.6953 46.2807C76.7838 46.2807 78.8897 45.9718 80.0128 45.3541C81.1359 44.6803 81.6975 43.7818 81.6975 42.6586C81.6975 41.3109 80.9113 40.3001 79.3389 39.6262C77.7666 38.8962 75.2957 38.1662 71.9264 37.4362C67.6585 36.5377 64.0926 35.5549 61.2287 34.488C58.4209 33.3649 55.9781 31.5679 53.9003 29.097C51.8226 26.57 50.7837 23.1164 50.7837 18.7363C50.7837 14.8053 51.8506 11.4641 53.9846 8.71244C56.1746 5.9608 59.1228 3.88303 62.8291 2.47914C66.5354 1.07524 70.6909 0.373291 75.2957 0.373291ZM140.102 0.373291C144.763 0.373291 148.919 1.29986 152.569 3.153C156.275 4.94999 159.195 7.70163 161.329 11.4079C163.463 15.058 164.53 19.5505 164.53 24.8853H147.936V21.9371C147.936 19.354 147.122 17.3043 145.493 15.7881C143.921 14.2719 141.927 13.5138 139.513 13.5138H139.092C136.733 13.5138 134.74 14.328 133.111 15.9565C131.482 17.5851 130.668 19.5786 130.668 21.9371V38.1943C130.668 40.5528 131.482 42.5463 133.111 44.1749C134.74 45.8034 136.733 46.6176 139.092 46.6176H140.271C142.686 46.6176 144.679 45.8876 146.251 44.4276C147.88 42.9113 148.694 40.8336 148.694 38.1943V35.4145H164.53C164.53 40.3563 163.491 44.6803 161.414 48.3865C159.392 52.0928 156.584 54.9287 152.99 56.8942C149.396 58.8596 145.325 59.8423 140.776 59.8423H138.418C133.42 59.8423 128.871 58.8315 124.772 56.8099C120.729 54.7883 117.528 51.8682 115.169 48.0496C112.811 44.231 111.631 39.7385 111.631 34.5722V25.6434C111.631 20.7579 112.811 16.4058 115.169 12.5872C117.584 8.71244 120.785 5.7081 124.772 3.57417C128.759 1.44025 133.083 0.373291 137.744 0.373291H140.102ZM210.49 1.21563C213.241 1.21563 215.824 1.83334 218.239 3.06877C220.71 4.24805 222.703 5.93272 224.22 8.1228C225.736 10.2567 226.494 12.7276 226.494 15.5354C226.494 17.557 226.017 19.5505 225.062 21.516C224.164 23.4814 222.928 25.1661 221.356 26.57C219.783 27.9739 218.043 28.8443 216.133 29.1812V29.6024C219.222 30.5571 221.524 32.354 223.04 34.9934C224.613 37.5765 225.399 40.7213 225.399 44.4276C225.399 47.0669 225.652 49.3412 226.157 51.2505C226.662 53.1036 227.842 54.2829 229.695 54.7883V58.2419C227.112 59.3089 223.742 59.8423 219.587 59.8423C215.6 59.8423 212.624 59.0281 210.658 57.3996C208.693 55.7149 207.71 52.9071 207.71 48.9762C207.71 45.2699 207.233 42.2936 206.278 40.0474C205.379 37.745 203.358 36.5938 200.213 36.5938H195.328V59H178.06V1.21563H210.49ZM195.328 23.706H204.256C205.436 23.706 206.418 23.313 207.204 22.5268C208.047 21.6844 208.468 20.6736 208.468 19.4944V18.652C208.468 17.4727 208.047 16.49 207.204 15.7038C206.418 14.8615 205.436 14.4403 204.256 14.4403H195.328V23.706ZM270.013 0.541761C274.617 0.541761 278.829 1.69295 282.648 3.99534C286.522 6.24158 289.583 9.30207 291.829 13.1768C294.132 16.9954 295.283 21.2071 295.283 25.8119V34.5722C295.283 39.177 294.132 43.4168 291.829 47.2915C289.583 51.1101 286.522 54.1706 282.648 56.473C278.829 58.7192 274.617 59.8423 270.013 59.8423H265.296C260.691 59.8423 256.451 58.7192 252.576 56.473C248.758 54.1706 245.697 51.1101 243.395 47.2915C241.148 43.4168 240.025 39.177 240.025 34.5722V25.8119C240.025 21.2071 241.148 16.9954 243.395 13.1768C245.697 9.30207 248.758 6.24158 252.576 3.99534C256.451 1.69295 260.691 0.541761 265.296 0.541761H270.013ZM267.486 13.5138C265.127 13.5138 263.134 14.328 261.505 15.9565C259.876 17.5851 259.062 19.5786 259.062 21.9371V38.1943C259.062 40.5528 259.876 42.5463 261.505 44.1749C263.134 45.8034 265.127 46.6176 267.486 46.6176H267.907C270.265 46.6176 272.259 45.8034 273.887 44.1749C275.516 42.5463 276.33 40.5528 276.33 38.1943V21.9371C276.33 19.5786 275.516 17.5851 273.887 15.9565C272.259 14.328 270.265 13.5138 267.907 13.5138H267.486ZM327.272 44.8487H348.247L349.931 59H309.415V1.21563H327.272V44.8487ZM379.83 44.8487H400.804L402.489 59H361.972V1.21563H379.83V44.8487ZM463.502 1.21563C468.106 1.21563 472.318 2.36682 476.137 4.66921C480.011 6.91545 483.072 9.97594 485.318 13.8507C487.62 17.6693 488.772 21.881 488.772 26.4858V33.7299C488.772 38.3346 487.62 42.5744 485.318 46.4492C483.072 50.2678 480.011 53.3283 476.137 55.6306C472.318 57.8769 468.106 59 463.502 59H437.473V1.21563H463.502ZM455.331 45.6068H461.817C464.175 45.6068 466.169 44.7926 467.797 43.1641C469.426 41.5355 470.24 39.542 470.24 37.1835V22.7795C470.24 20.4209 469.426 18.4274 467.797 16.7989C466.169 15.1704 464.175 14.3561 461.817 14.3561H455.331V45.6068ZM530.66 0.541761C535.265 0.541761 539.477 1.69295 543.295 3.99534C547.17 6.24158 550.231 9.30207 552.477 13.1768C554.779 16.9954 555.93 21.2071 555.93 25.8119V34.5722C555.93 39.177 554.779 43.4168 552.477 47.2915C550.231 51.1101 547.17 54.1706 543.295 56.473C539.477 58.7192 535.265 59.8423 530.66 59.8423H525.943C521.338 59.8423 517.099 58.7192 513.224 56.473C509.405 54.1706 506.345 51.1101 504.042 47.2915C501.796 43.4168 500.673 39.177 500.673 34.5722V25.8119C500.673 21.2071 501.796 16.9954 504.042 13.1768C506.345 9.30207 509.405 6.24158 513.224 3.99534C517.099 1.69295 521.338 0.541761 525.943 0.541761H530.66ZM528.133 13.5138C525.775 13.5138 523.781 14.328 522.153 15.9565C520.524 17.5851 519.71 19.5786 519.71 21.9371V38.1943C519.71 40.5528 520.524 42.5463 522.153 44.1749C523.781 45.8034 525.775 46.6176 528.133 46.6176H528.554C530.913 46.6176 532.906 45.8034 534.535 44.1749C536.163 42.5463 536.978 40.5528 536.978 38.1943V21.9371C536.978 19.5786 536.163 17.5851 534.535 15.9565C532.906 14.328 530.913 13.5138 528.554 13.5138H528.133ZM635.765 59H615.717L608.726 31.2871H608.22L601.229 59H580.844L565.093 1.21563H583.371L591.542 33.3087H591.879L600.134 1.21563H618.244L626.331 33.3087H626.668L634.838 1.21563H651.432L635.765 59ZM711.869 59H696.707L679.355 33.9826L679.102 33.3929V59H662.845V1.21563H677.67L695.359 26.8227L695.527 27.4123V1.21563H711.869V59ZM748.619 15.7038C751.258 15.7038 753.673 16.3496 755.863 17.6412C758.109 18.9328 759.878 20.6736 761.17 22.8637C762.461 25.0538 763.107 27.4685 763.107 30.1078C763.107 32.7471 762.461 35.1899 761.17 37.4362C759.878 39.6262 758.109 41.3671 755.863 42.6586C753.673 43.9502 751.258 44.596 748.619 44.596C745.98 44.596 743.565 43.9502 741.375 42.6586C739.185 41.3671 737.444 39.6262 736.152 37.4362C734.861 35.1899 734.215 32.7471 734.215 30.1078C734.215 27.4685 734.861 25.0538 736.152 22.8637C737.444 20.6736 739.185 18.9328 741.375 17.6412C743.565 16.3496 745.98 15.7038 748.619 15.7038ZM808.561 0.373291C815.412 0.373291 821.027 1.86142 825.407 4.83768C829.844 7.81394 832.062 12.2222 832.062 18.0624V19.0732H815.889V18.7363C815.889 17.1077 815.299 15.7881 814.12 14.7773C812.997 13.7103 811.256 13.1768 808.898 13.1768C806.595 13.1768 804.854 13.5138 803.675 14.1876C802.496 14.8053 801.906 15.6477 801.906 16.7146C801.906 18.0062 802.58 19.0451 803.928 19.8313C805.332 20.5613 807.353 21.2071 809.993 21.7687L817.489 23.4533C827.934 25.8119 833.157 31.2309 833.157 39.7105C833.157 46.6176 830.883 51.6997 826.334 54.9568C821.785 58.2138 815.496 59.8423 807.466 59.8423C803.029 59.8423 798.93 59.1685 795.167 57.8207C791.461 56.473 788.457 54.4233 786.154 51.6717C783.908 48.8639 782.785 45.4103 782.785 41.3109V40.3001C782.785 39.8509 782.813 39.5139 782.869 39.2893H799.211C799.154 39.4578 799.126 39.7947 799.126 40.3001C799.126 42.0409 799.716 43.4729 800.895 44.596C802.131 45.7191 804.152 46.2807 806.96 46.2807C810.049 46.2807 812.155 45.9718 813.278 45.3541C814.401 44.6803 814.962 43.7818 814.962 42.6586C814.962 41.3109 814.176 40.3001 812.604 39.6262C811.031 38.8962 808.561 38.1662 805.191 37.4362C800.923 36.5377 797.357 35.5549 794.494 34.488C791.686 33.3649 789.243 31.5679 787.165 29.097C785.087 26.57 784.049 23.1164 784.049 18.7363C784.049 14.8053 785.116 11.4641 787.249 8.71244C789.44 5.9608 792.388 3.88303 796.094 2.47914C799.8 1.07524 803.956 0.373291 808.561 0.373291ZM873.367 0.373291C878.028 0.373291 882.184 1.29986 885.834 3.153C889.54 4.94999 892.46 7.70163 894.594 11.4079C896.728 15.058 897.795 19.5505 897.795 24.8853H881.201V21.9371C881.201 19.354 880.387 17.3043 878.758 15.7881C877.186 14.2719 875.192 13.5138 872.778 13.5138H872.357C869.998 13.5138 868.004 14.328 866.376 15.9565C864.747 17.5851 863.933 19.5786 863.933 21.9371V38.1943C863.933 40.5528 864.747 42.5463 866.376 44.1749C868.004 45.8034 869.998 46.6176 872.357 46.6176H873.536C875.95 46.6176 877.944 45.8876 879.516 44.4276C881.145 42.9113 881.959 40.8336 881.959 38.1943V35.4145H897.795C897.795 40.3563 896.756 44.6803 894.678 48.3865C892.657 52.0928 889.849 54.9287 886.255 56.8942C882.661 58.8596 878.59 59.8423 874.041 59.8423H871.683C866.685 59.8423 862.136 58.8315 858.037 56.8099C853.994 54.7883 850.793 51.8682 848.434 48.0496C846.076 44.231 844.896 39.7385 844.896 34.5722V25.6434C844.896 20.7579 846.076 16.4058 848.434 12.5872C850.849 8.71244 854.05 5.7081 858.037 3.57417C862.024 1.44025 866.348 0.373291 871.009 0.373291H873.367ZM943.754 1.21563C946.506 1.21563 949.089 1.83334 951.504 3.06877C953.975 4.24805 955.968 5.93272 957.485 8.1228C959.001 10.2567 959.759 12.7276 959.759 15.5354C959.759 17.557 959.282 19.5505 958.327 21.516C957.428 23.4814 956.193 25.1661 954.621 26.57C953.048 27.9739 951.307 28.8443 949.398 29.1812V29.6024C952.487 30.5571 954.789 32.354 956.305 34.9934C957.878 37.5765 958.664 40.7213 958.664 44.4276C958.664 47.0669 958.917 49.3412 959.422 51.2505C959.927 53.1036 961.107 54.2829 962.96 54.7883V58.2419C960.377 59.3089 957.007 59.8423 952.852 59.8423C948.865 59.8423 945.888 59.0281 943.923 57.3996C941.957 55.7149 940.975 52.9071 940.975 48.9762C940.975 45.2699 940.497 42.2936 939.543 40.0474C938.644 37.745 936.623 36.5938 933.478 36.5938H928.592V59H911.324V1.21563H943.754ZM928.592 23.706H937.521C938.7 23.706 939.683 23.313 940.469 22.5268C941.312 21.6844 941.733 20.6736 941.733 19.4944V18.652C941.733 17.4727 941.312 16.49 940.469 15.7038C939.683 14.8615 938.7 14.4403 937.521 14.4403H928.592V23.706ZM1003.28 0.541761C1007.88 0.541761 1012.09 1.69295 1015.91 3.99534C1019.79 6.24158 1022.85 9.30207 1025.09 13.1768C1027.4 16.9954 1028.55 21.2071 1028.55 25.8119V34.5722C1028.55 39.177 1027.4 43.4168 1025.09 47.2915C1022.85 51.1101 1019.79 54.1706 1015.91 56.473C1012.09 58.7192 1007.88 59.8423 1003.28 59.8423H998.56C993.956 59.8423 989.716 58.7192 985.841 56.473C982.022 54.1706 978.962 51.1101 976.66 47.2915C974.413 43.4168 973.29 39.177 973.29 34.5722V25.8119C973.29 21.2071 974.413 16.9954 976.66 13.1768C978.962 9.30207 982.022 6.24158 985.841 3.99534C989.716 1.69295 993.956 0.541761 998.56 0.541761H1003.28ZM1000.75 13.5138C998.392 13.5138 996.398 14.328 994.77 15.9565C993.141 17.5851 992.327 19.5786 992.327 21.9371V38.1943C992.327 40.5528 993.141 42.5463 994.77 44.1749C996.398 45.8034 998.392 46.6176 1000.75 46.6176H1001.17C1003.53 46.6176 1005.52 45.8034 1007.15 44.1749C1008.78 42.5463 1009.6 40.5528 1009.6 38.1943V21.9371C1009.6 19.5786 1008.78 17.5851 1007.15 15.9565C1005.52 14.328 1003.53 13.5138 1001.17 13.5138H1000.75ZM1060.54 44.8487H1081.51L1083.2 59H1042.68V1.21563H1060.54V44.8487ZM1113.09 44.8487H1134.07L1135.75 59H1095.24V1.21563H1113.09V44.8487ZM1196.77 1.21563C1201.37 1.21563 1205.58 2.36682 1209.4 4.66921C1213.28 6.91545 1216.34 9.97594 1218.58 13.8507C1220.89 17.6693 1222.04 21.881 1222.04 26.4858V33.7299C1222.04 38.3346 1220.89 42.5744 1218.58 46.4492C1216.34 50.2678 1213.28 53.3283 1209.4 55.6306C1205.58 57.8769 1201.37 59 1196.77 59H1170.74V1.21563H1196.77ZM1188.6 45.6068H1195.08C1197.44 45.6068 1199.43 44.7926 1201.06 43.1641C1202.69 41.5355 1203.51 39.542 1203.51 37.1835V22.7795C1203.51 20.4209 1202.69 18.4274 1201.06 16.7989C1199.43 15.1704 1197.44 14.3561 1195.08 14.3561H1188.6V45.6068ZM1263.93 0.541761C1268.53 0.541761 1272.74 1.69295 1276.56 3.99534C1280.43 6.24158 1283.5 9.30207 1285.74 13.1768C1288.04 16.9954 1289.2 21.2071 1289.2 25.8119V34.5722C1289.2 39.177 1288.04 43.4168 1285.74 47.2915C1283.5 51.1101 1280.43 54.1706 1276.56 56.473C1272.74 58.7192 1268.53 59.8423 1263.93 59.8423H1259.21C1254.6 59.8423 1250.36 58.7192 1246.49 56.473C1242.67 54.1706 1239.61 51.1101 1237.31 47.2915C1235.06 43.4168 1233.94 39.177 1233.94 34.5722V25.8119C1233.94 21.2071 1235.06 16.9954 1237.31 13.1768C1239.61 9.30207 1242.67 6.24158 1246.49 3.99534C1250.36 1.69295 1254.6 0.541761 1259.21 0.541761H1263.93ZM1261.4 13.5138C1259.04 13.5138 1257.05 14.328 1255.42 15.9565C1253.79 17.5851 1252.97 19.5786 1252.97 21.9371V38.1943C1252.97 40.5528 1253.79 42.5463 1255.42 44.1749C1257.05 45.8034 1259.04 46.6176 1261.4 46.6176H1261.82C1264.18 46.6176 1266.17 45.8034 1267.8 44.1749C1269.43 42.5463 1270.24 40.5528 1270.24 38.1943V21.9371C1270.24 19.5786 1269.43 17.5851 1267.8 15.9565C1266.17 14.328 1264.18 13.5138 1261.82 13.5138H1261.4ZM1369.03 59H1348.98L1341.99 31.2871H1341.49L1334.49 59H1314.11L1298.36 1.21563H1316.64L1324.81 33.3087H1325.14L1333.4 1.21563H1351.51L1359.6 33.3087H1359.93L1368.1 1.21563H1384.7L1369.03 59ZM1445.13 59H1429.97L1412.62 33.9826L1412.37 33.3929V59H1396.11V1.21563H1410.93L1428.62 26.8227L1428.79 27.4123V1.21563H1445.13V59ZM1481.88 15.7038C1484.52 15.7038 1486.94 16.3496 1489.13 17.6412C1491.37 18.9328 1493.14 20.6736 1494.43 22.8637C1495.73 25.0538 1496.37 27.4685 1496.37 30.1078C1496.37 32.7471 1495.73 35.1899 1494.43 37.4362C1493.14 39.6262 1491.37 41.3671 1489.13 42.6586C1486.94 43.9502 1484.52 44.596 1481.88 44.596C1479.24 44.596 1476.83 43.9502 1474.64 42.6586C1472.45 41.3671 1470.71 39.6262 1469.42 37.4362C1468.13 35.1899 1467.48 32.7471 1467.48 30.1078C1467.48 27.4685 1468.13 25.0538 1469.42 22.8637C1470.71 20.6736 1472.45 18.9328 1474.64 17.6412C1476.83 16.3496 1479.24 15.7038 1481.88 15.7038ZM1541.83 0.373291C1548.68 0.373291 1554.29 1.86142 1558.67 4.83768C1563.11 7.81394 1565.33 12.2222 1565.33 18.0624V19.0732H1549.15V18.7363C1549.15 17.1077 1548.56 15.7881 1547.38 14.7773C1546.26 13.7103 1544.52 13.1768 1542.16 13.1768C1539.86 13.1768 1538.12 13.5138 1536.94 14.1876C1535.76 14.8053 1535.17 15.6477 1535.17 16.7146C1535.17 18.0062 1535.84 19.0451 1537.19 19.8313C1538.6 20.5613 1540.62 21.2071 1543.26 21.7687L1550.75 23.4533C1561.2 25.8119 1566.42 31.2309 1566.42 39.7105C1566.42 46.6176 1564.15 51.6997 1559.6 54.9568C1555.05 58.2138 1548.76 59.8423 1540.73 59.8423C1536.29 59.8423 1532.19 59.1685 1528.43 57.8207C1524.73 56.473 1521.72 54.4233 1519.42 51.6717C1517.17 48.8639 1516.05 45.4103 1516.05 41.3109V40.3001C1516.05 39.8509 1516.08 39.5139 1516.13 39.2893H1532.48C1532.42 39.4578 1532.39 39.7947 1532.39 40.3001C1532.39 42.0409 1532.98 43.4729 1534.16 44.596C1535.4 45.7191 1537.42 46.2807 1540.22 46.2807C1543.31 46.2807 1545.42 45.9718 1546.54 45.3541C1547.67 44.6803 1548.23 43.7818 1548.23 42.6586C1548.23 41.3109 1547.44 40.3001 1545.87 39.6262C1544.3 38.8962 1541.83 38.1662 1538.46 37.4362C1534.19 36.5377 1530.62 35.5549 1527.76 34.488C1524.95 33.3649 1522.51 31.5679 1520.43 29.097C1518.35 26.57 1517.31 23.1164 1517.31 18.7363C1517.31 14.8053 1518.38 11.4641 1520.51 8.71244C1522.7 5.9608 1525.65 3.88303 1529.36 2.47914C1533.07 1.07524 1537.22 0.373291 1541.83 0.373291ZM1606.63 0.373291C1611.29 0.373291 1615.45 1.29986 1619.1 3.153C1622.81 4.94999 1625.73 7.70163 1627.86 11.4079C1629.99 15.058 1631.06 19.5505 1631.06 24.8853H1614.47V21.9371C1614.47 19.354 1613.65 17.3043 1612.02 15.7881C1610.45 14.2719 1608.46 13.5138 1606.04 13.5138H1605.62C1603.26 13.5138 1601.27 14.328 1599.64 15.9565C1598.01 17.5851 1597.2 19.5786 1597.2 21.9371V38.1943C1597.2 40.5528 1598.01 42.5463 1599.64 44.1749C1601.27 45.8034 1603.26 46.6176 1605.62 46.6176H1606.8C1609.22 46.6176 1611.21 45.8876 1612.78 44.4276C1614.41 42.9113 1615.22 40.8336 1615.22 38.1943V35.4145H1631.06C1631.06 40.3563 1630.02 44.6803 1627.94 48.3865C1625.92 52.0928 1623.11 54.9287 1619.52 56.8942C1615.93 58.8596 1611.85 59.8423 1607.31 59.8423H1604.95C1599.95 59.8423 1595.4 58.8315 1591.3 56.8099C1587.26 54.7883 1584.06 51.8682 1581.7 48.0496C1579.34 44.231 1578.16 39.7385 1578.16 34.5722V25.6434C1578.16 20.7579 1579.34 16.4058 1581.7 12.5872C1584.11 8.71244 1587.31 5.7081 1591.3 3.57417C1595.29 1.44025 1599.61 0.373291 1604.27 0.373291H1606.63ZM1677.02 1.21563C1679.77 1.21563 1682.35 1.83334 1684.77 3.06877C1687.24 4.24805 1689.23 5.93272 1690.75 8.1228C1692.27 10.2567 1693.02 12.7276 1693.02 15.5354C1693.02 17.557 1692.55 19.5505 1691.59 21.516C1690.69 23.4814 1689.46 25.1661 1687.89 26.57C1686.31 27.9739 1684.57 28.8443 1682.66 29.1812V29.6024C1685.75 30.5571 1688.05 32.354 1689.57 34.9934C1691.14 37.5765 1691.93 40.7213 1691.93 44.4276C1691.93 47.0669 1692.18 49.3412 1692.69 51.2505C1693.19 53.1036 1694.37 54.2829 1696.22 54.7883V58.2419C1693.64 59.3089 1690.27 59.8423 1686.12 59.8423C1682.13 59.8423 1679.15 59.0281 1677.19 57.3996C1675.22 55.7149 1674.24 52.9071 1674.24 48.9762C1674.24 45.2699 1673.76 42.2936 1672.81 40.0474C1671.91 37.745 1669.89 36.5938 1666.74 36.5938H1661.86V59H1644.59V1.21563H1677.02ZM1661.86 23.706H1670.79C1671.97 23.706 1672.95 23.313 1673.73 22.5268C1674.58 21.6844 1675 20.6736 1675 19.4944V18.652C1675 17.4727 1674.58 16.49 1673.73 15.7038C1672.95 14.8615 1671.97 14.4403 1670.79 14.4403H1661.86V23.706ZM1736.54 0.541761C1741.15 0.541761 1745.36 1.69295 1749.18 3.99534C1753.05 6.24158 1756.11 9.30207 1758.36 13.1768C1760.66 16.9954 1761.81 21.2071 1761.81 25.8119V34.5722C1761.81 39.177 1760.66 43.4168 1758.36 47.2915C1756.11 51.1101 1753.05 54.1706 1749.18 56.473C1745.36 58.7192 1741.15 59.8423 1736.54 59.8423H1731.83C1727.22 59.8423 1722.98 58.7192 1719.11 56.473C1715.29 54.1706 1712.23 51.1101 1709.92 47.2915C1707.68 43.4168 1706.56 39.177 1706.56 34.5722V25.8119C1706.56 21.2071 1707.68 16.9954 1709.92 13.1768C1712.23 9.30207 1715.29 6.24158 1719.11 3.99534C1722.98 1.69295 1727.22 0.541761 1731.83 0.541761H1736.54ZM1734.02 13.5138C1731.66 13.5138 1729.66 14.328 1728.03 15.9565C1726.41 17.5851 1725.59 19.5786 1725.59 21.9371V38.1943C1725.59 40.5528 1726.41 42.5463 1728.03 44.1749C1729.66 45.8034 1731.66 46.6176 1734.02 46.6176H1734.44C1736.8 46.6176 1738.79 45.8034 1740.42 44.1749C1742.05 42.5463 1742.86 40.5528 1742.86 38.1943V21.9371C1742.86 19.5786 1742.05 17.5851 1740.42 15.9565C1738.79 14.328 1736.8 13.5138 1734.44 13.5138H1734.02ZM1793.8 44.8487H1814.78L1816.46 59H1775.94V1.21563H1793.8V44.8487ZM1846.36 44.8487H1867.33L1869.02 59H1828.5V1.21563H1846.36V44.8487ZM1930.03 1.21563C1934.64 1.21563 1938.85 2.36682 1942.67 4.66921C1946.54 6.91545 1949.6 9.97594 1951.85 13.8507C1954.15 17.6693 1955.3 21.881 1955.3 26.4858V33.7299C1955.3 38.3346 1954.15 42.5744 1951.85 46.4492C1949.6 50.2678 1946.54 53.3283 1942.67 55.6306C1938.85 57.8769 1934.64 59 1930.03 59H1904V1.21563H1930.03ZM1921.86 45.6068H1928.35C1930.71 45.6068 1932.7 44.7926 1934.33 43.1641C1935.96 41.5355 1936.77 39.542 1936.77 37.1835V22.7795C1936.77 20.4209 1935.96 18.4274 1934.33 16.7989C1932.7 15.1704 1930.71 14.3561 1928.35 14.3561H1921.86V45.6068ZM1997.19 0.541761C2001.79 0.541761 2006.01 1.69295 2009.83 3.99534C2013.7 6.24158 2016.76 9.30207 2019.01 13.1768C2021.31 16.9954 2022.46 21.2071 2022.46 25.8119V34.5722C2022.46 39.177 2021.31 43.4168 2019.01 47.2915C2016.76 51.1101 2013.7 54.1706 2009.83 56.473C2006.01 58.7192 2001.79 59.8423 1997.19 59.8423H1992.47C1987.87 59.8423 1983.63 58.7192 1979.75 56.473C1975.93 54.1706 1972.87 51.1101 1970.57 47.2915C1968.33 43.4168 1967.2 39.177 1967.2 34.5722V25.8119C1967.2 21.2071 1968.33 16.9954 1970.57 13.1768C1972.87 9.30207 1975.93 6.24158 1979.75 3.99534C1983.63 1.69295 1987.87 0.541761 1992.47 0.541761H1997.19ZM1994.66 13.5138C1992.3 13.5138 1990.31 14.328 1988.68 15.9565C1987.05 17.5851 1986.24 19.5786 1986.24 21.9371V38.1943C1986.24 40.5528 1987.05 42.5463 1988.68 44.1749C1990.31 45.8034 1992.3 46.6176 1994.66 46.6176H1995.08C1997.44 46.6176 1999.44 45.8034 2001.06 44.1749C2002.69 42.5463 2003.51 40.5528 2003.51 38.1943V21.9371C2003.51 19.5786 2002.69 17.5851 2001.06 15.9565C1999.44 14.328 1997.44 13.5138 1995.08 13.5138H1994.66ZM2102.29 59H2082.25L2075.26 31.2871H2074.75L2067.76 59H2047.37L2031.62 1.21563H2049.9L2058.07 33.3087H2058.41L2066.66 1.21563H2084.77L2092.86 33.3087H2093.2L2101.37 1.21563H2117.96L2102.29 59ZM2178.4 59H2163.24L2145.88 33.9826L2145.63 33.3929V59H2129.37V1.21563H2144.2L2161.89 26.8227L2162.06 27.4123V1.21563H2178.4V59ZM2215.15 15.7038C2217.79 15.7038 2220.2 16.3496 2222.39 17.6412C2224.64 18.9328 2226.41 20.6736 2227.7 22.8637C2228.99 25.0538 2229.64 27.4685 2229.64 30.1078C2229.64 32.7471 2228.99 35.1899 2227.7 37.4362C2226.41 39.6262 2224.64 41.3671 2222.39 42.6586C2220.2 43.9502 2217.79 44.596 2215.15 44.596C2212.51 44.596 2210.09 43.9502 2207.9 42.6586C2205.71 41.3671 2203.97 39.6262 2202.68 37.4362C2201.39 35.1899 2200.74 32.7471 2200.74 30.1078C2200.74 27.4685 2201.39 25.0538 2202.68 22.8637C2203.97 20.6736 2205.71 18.9328 2207.9 17.6412C2210.09 16.3496 2212.51 15.7038 2215.15 15.7038ZM2275.09 0.373291C2281.94 0.373291 2287.56 1.86142 2291.94 4.83768C2296.37 7.81394 2298.59 12.2222 2298.59 18.0624V19.0732H2282.42V18.7363C2282.42 17.1077 2281.83 15.7881 2280.65 14.7773C2279.53 13.7103 2277.79 13.1768 2275.43 13.1768C2273.12 13.1768 2271.38 13.5138 2270.2 14.1876C2269.03 14.8053 2268.44 15.6477 2268.44 16.7146C2268.44 18.0062 2269.11 19.0451 2270.46 19.8313C2271.86 20.5613 2273.88 21.2071 2276.52 21.7687L2284.02 23.4533C2294.46 25.8119 2299.69 31.2309 2299.69 39.7105C2299.69 46.6176 2297.41 51.6997 2292.86 54.9568C2288.31 58.2138 2282.03 59.8423 2274 59.8423C2269.56 59.8423 2265.46 59.1685 2261.7 57.8207C2257.99 56.473 2254.99 54.4233 2252.68 51.6717C2250.44 48.8639 2249.31 45.4103 2249.31 41.3109V40.3001C2249.31 39.8509 2249.34 39.5139 2249.4 39.2893H2265.74C2265.68 39.4578 2265.66 39.7947 2265.66 40.3001C2265.66 42.0409 2266.25 43.4729 2267.42 44.596C2268.66 45.7191 2270.68 46.2807 2273.49 46.2807C2276.58 46.2807 2278.68 45.9718 2279.81 45.3541C2280.93 44.6803 2281.49 43.7818 2281.49 42.6586C2281.49 41.3109 2280.71 40.3001 2279.13 39.6262C2277.56 38.8962 2275.09 38.1662 2271.72 37.4362C2267.45 36.5377 2263.89 35.5549 2261.02 34.488C2258.22 33.3649 2255.77 31.5679 2253.69 29.097C2251.62 26.57 2250.58 23.1164 2250.58 18.7363C2250.58 14.8053 2251.65 11.4641 2253.78 8.71244C2255.97 5.9608 2258.92 3.88303 2262.62 2.47914C2266.33 1.07524 2270.49 0.373291 2275.09 0.373291ZM2339.9 0.373291C2344.56 0.373291 2348.71 1.29986 2352.36 3.153C2356.07 4.94999 2358.99 7.70163 2361.12 11.4079C2363.26 15.058 2364.32 19.5505 2364.32 24.8853H2347.73V21.9371C2347.73 19.354 2346.92 17.3043 2345.29 15.7881C2343.72 14.2719 2341.72 13.5138 2339.31 13.5138H2338.89C2336.53 13.5138 2334.53 14.328 2332.91 15.9565C2331.28 17.5851 2330.46 19.5786 2330.46 21.9371V38.1943C2330.46 40.5528 2331.28 42.5463 2332.91 44.1749C2334.53 45.8034 2336.53 46.6176 2338.89 46.6176H2340.07C2342.48 46.6176 2344.47 45.8876 2346.05 44.4276C2347.67 42.9113 2348.49 40.8336 2348.49 38.1943V35.4145H2364.32C2364.32 40.3563 2363.29 44.6803 2361.21 48.3865C2359.19 52.0928 2356.38 54.9287 2352.78 56.8942C2349.19 58.8596 2345.12 59.8423 2340.57 59.8423H2338.21C2333.21 59.8423 2328.67 58.8315 2324.57 56.8099C2320.52 54.7883 2317.32 51.8682 2314.96 48.0496C2312.61 44.231 2311.43 39.7385 2311.43 34.5722V25.6434C2311.43 20.7579 2312.61 16.4058 2314.96 12.5872C2317.38 8.71244 2320.58 5.7081 2324.57 3.57417C2328.55 1.44025 2332.88 0.373291 2337.54 0.373291H2339.9ZM2410.28 1.21563C2413.04 1.21563 2415.62 1.83334 2418.03 3.06877C2420.5 4.24805 2422.5 5.93272 2424.01 8.1228C2425.53 10.2567 2426.29 12.7276 2426.29 15.5354C2426.29 17.557 2425.81 19.5505 2424.86 21.516C2423.96 23.4814 2422.72 25.1661 2421.15 26.57C2419.58 27.9739 2417.84 28.8443 2415.93 29.1812V29.6024C2419.02 30.5571 2421.32 32.354 2422.83 34.9934C2424.41 37.5765 2425.19 40.7213 2425.19 44.4276C2425.19 47.0669 2425.45 49.3412 2425.95 51.2505C2426.46 53.1036 2427.64 54.2829 2429.49 54.7883V58.2419C2426.91 59.3089 2423.54 59.8423 2419.38 59.8423C2415.39 59.8423 2412.42 59.0281 2410.45 57.3996C2408.49 55.7149 2407.5 52.9071 2407.5 48.9762C2407.5 45.2699 2407.03 42.2936 2406.07 40.0474C2405.17 37.745 2403.15 36.5938 2400.01 36.5938H2395.12V59H2377.85V1.21563H2410.28ZM2395.12 23.706H2404.05C2405.23 23.706 2406.21 23.313 2407 22.5268C2407.84 21.6844 2408.26 20.6736 2408.26 19.4944V18.652C2408.26 17.4727 2407.84 16.49 2407 15.7038C2406.21 14.8615 2405.23 14.4403 2404.05 14.4403H2395.12V23.706ZM2469.81 0.541761C2474.41 0.541761 2478.62 1.69295 2482.44 3.99534C2486.32 6.24158 2489.38 9.30207 2491.62 13.1768C2493.93 16.9954 2495.08 21.2071 2495.08 25.8119V34.5722C2495.08 39.177 2493.93 43.4168 2491.62 47.2915C2489.38 51.1101 2486.32 54.1706 2482.44 56.473C2478.62 58.7192 2474.41 59.8423 2469.81 59.8423H2465.09C2460.49 59.8423 2456.25 58.7192 2452.37 56.473C2448.55 54.1706 2445.49 51.1101 2443.19 47.2915C2440.94 43.4168 2439.82 39.177 2439.82 34.5722V25.8119C2439.82 21.2071 2440.94 16.9954 2443.19 13.1768C2445.49 9.30207 2448.55 6.24158 2452.37 3.99534C2456.25 1.69295 2460.49 0.541761 2465.09 0.541761H2469.81ZM2467.28 13.5138C2464.92 13.5138 2462.93 14.328 2461.3 15.9565C2459.67 17.5851 2458.86 19.5786 2458.86 21.9371V38.1943C2458.86 40.5528 2459.67 42.5463 2461.3 44.1749C2462.93 45.8034 2464.92 46.6176 2467.28 46.6176H2467.7C2470.06 46.6176 2472.05 45.8034 2473.68 44.1749C2475.31 42.5463 2476.12 40.5528 2476.12 38.1943V21.9371C2476.12 19.5786 2475.31 17.5851 2473.68 15.9565C2472.05 14.328 2470.06 13.5138 2467.7 13.5138H2467.28ZM2527.07 44.8487H2548.04L2549.73 59H2509.21V1.21563H2527.07V44.8487ZM2579.62 44.8487H2600.6L2602.28 59H2561.77V1.21563H2579.62V44.8487ZM2663.3 1.21563C2667.9 1.21563 2672.11 2.36682 2675.93 4.66921C2679.81 6.91545 2682.87 9.97594 2685.11 13.8507C2687.42 17.6693 2688.57 21.881 2688.57 26.4858V33.7299C2688.57 38.3346 2687.42 42.5744 2685.11 46.4492C2682.87 50.2678 2679.81 53.3283 2675.93 55.6306C2672.11 57.8769 2667.9 59 2663.3 59H2637.27V1.21563H2663.3ZM2655.13 45.6068H2661.61C2663.97 45.6068 2665.96 44.7926 2667.59 43.1641C2669.22 41.5355 2670.03 39.542 2670.03 37.1835V22.7795C2670.03 20.4209 2669.22 18.4274 2667.59 16.7989C2665.96 15.1704 2663.97 14.3561 2661.61 14.3561H2655.13V45.6068ZM2730.45 0.541761C2735.06 0.541761 2739.27 1.69295 2743.09 3.99534C2746.96 6.24158 2750.03 9.30207 2752.27 13.1768C2754.57 16.9954 2755.72 21.2071 2755.72 25.8119V34.5722C2755.72 39.177 2754.57 43.4168 2752.27 47.2915C2750.03 51.1101 2746.96 54.1706 2743.09 56.473C2739.27 58.7192 2735.06 59.8423 2730.45 59.8423H2725.74C2721.13 59.8423 2716.89 58.7192 2713.02 56.473C2709.2 54.1706 2706.14 51.1101 2703.84 47.2915C2701.59 43.4168 2700.47 39.177 2700.47 34.5722V25.8119C2700.47 21.2071 2701.59 16.9954 2703.84 13.1768C2706.14 9.30207 2709.2 6.24158 2713.02 3.99534C2716.89 1.69295 2721.13 0.541761 2725.74 0.541761H2730.45ZM2727.93 13.5138C2725.57 13.5138 2723.58 14.328 2721.95 15.9565C2720.32 17.5851 2719.5 19.5786 2719.5 21.9371V38.1943C2719.5 40.5528 2720.32 42.5463 2721.95 44.1749C2723.58 45.8034 2725.57 46.6176 2727.93 46.6176H2728.35C2730.71 46.6176 2732.7 45.8034 2734.33 44.1749C2735.96 42.5463 2736.77 40.5528 2736.77 38.1943V21.9371C2736.77 19.5786 2735.96 17.5851 2734.33 15.9565C2732.7 14.328 2730.71 13.5138 2728.35 13.5138H2727.93ZM2835.56 59H2815.51L2808.52 31.2871H2808.01L2801.02 59H2780.64L2764.89 1.21563H2783.17L2791.34 33.3087H2791.67L2799.93 1.21563H2818.04L2826.13 33.3087H2826.46L2834.63 1.21563H2851.23L2835.56 59ZM2911.66 59H2896.5L2879.15 33.9826L2878.9 33.3929V59H2862.64V1.21563H2877.46L2895.15 26.8227L2895.32 27.4123V1.21563H2911.66V59ZM2948.41 15.7038C2951.05 15.7038 2953.47 16.3496 2955.66 17.6412C2957.9 18.9328 2959.67 20.6736 2960.96 22.8637C2962.26 25.0538 2962.9 27.4685 2962.9 30.1078C2962.9 32.7471 2962.26 35.1899 2960.96 37.4362C2959.67 39.6262 2957.9 41.3671 2955.66 42.6586C2953.47 43.9502 2951.05 44.596 2948.41 44.596C2945.77 44.596 2943.36 43.9502 2941.17 42.6586C2938.98 41.3671 2937.24 39.6262 2935.95 37.4362C2934.66 35.1899 2934.01 32.7471 2934.01 30.1078C2934.01 27.4685 2934.66 25.0538 2935.95 22.8637C2937.24 20.6736 2938.98 18.9328 2941.17 17.6412C2943.36 16.3496 2945.77 15.7038 2948.41 15.7038ZM3008.35 0.373291C3015.21 0.373291 3020.82 1.86142 3025.2 4.83768C3029.64 7.81394 3031.86 12.2222 3031.86 18.0624V19.0732H3015.68V18.7363C3015.68 17.1077 3015.09 15.7881 3013.91 14.7773C3012.79 13.7103 3011.05 13.1768 3008.69 13.1768C3006.39 13.1768 3004.65 13.5138 3003.47 14.1876C3002.29 14.8053 3001.7 15.6477 3001.7 16.7146C3001.7 18.0062 3002.37 19.0451 3003.72 19.8313C3005.13 20.5613 3007.15 21.2071 3009.79 21.7687L3017.28 23.4533C3027.73 25.8119 3032.95 31.2309 3032.95 39.7105C3032.95 46.6176 3030.68 51.6997 3026.13 54.9568C3021.58 58.2138 3015.29 59.8423 3007.26 59.8423C3002.82 59.8423 2998.72 59.1685 2994.96 57.8207C2991.26 56.473 2988.25 54.4233 2985.95 51.6717C2983.7 48.8639 2982.58 45.4103 2982.58 41.3109V40.3001C2982.58 39.8509 2982.61 39.5139 2982.66 39.2893H2999.01C2998.95 39.4578 2998.92 39.7947 2998.92 40.3001C2998.92 42.0409 2999.51 43.4729 3000.69 44.596C3001.93 45.7191 3003.95 46.2807 3006.75 46.2807C3009.84 46.2807 3011.95 45.9718 3013.07 45.3541C3014.2 44.6803 3014.76 43.7818 3014.76 42.6586C3014.76 41.3109 3013.97 40.3001 3012.4 39.6262C3010.83 38.8962 3008.36 38.1662 3004.99 37.4362C3000.72 36.5377 2997.15 35.5549 2994.29 34.488C2991.48 33.3649 2989.04 31.5679 2986.96 29.097C2984.88 26.57 2983.84 23.1164 2983.84 18.7363C2983.84 14.8053 2984.91 11.4641 2987.04 8.71244C2989.23 5.9608 2992.18 3.88303 2995.89 2.47914C2999.59 1.07524 3003.75 0.373291 3008.35 0.373291ZM3073.16 0.373291C3077.82 0.373291 3081.98 1.29986 3085.63 3.153C3089.33 4.94999 3092.25 7.70163 3094.39 11.4079C3096.52 15.058 3097.59 19.5505 3097.59 24.8853H3081V21.9371C3081 19.354 3080.18 17.3043 3078.55 15.7881C3076.98 14.2719 3074.99 13.5138 3072.57 13.5138H3072.15C3069.79 13.5138 3067.8 14.328 3066.17 15.9565C3064.54 17.5851 3063.73 19.5786 3063.73 21.9371V38.1943C3063.73 40.5528 3064.54 42.5463 3066.17 44.1749C3067.8 45.8034 3069.79 46.6176 3072.15 46.6176H3073.33C3075.75 46.6176 3077.74 45.8876 3079.31 44.4276C3080.94 42.9113 3081.75 40.8336 3081.75 38.1943V35.4145H3097.59C3097.59 40.3563 3096.55 44.6803 3094.47 48.3865C3092.45 52.0928 3089.64 54.9287 3086.05 56.8942C3082.46 58.8596 3078.38 59.8423 3073.84 59.8423H3071.48C3066.48 59.8423 3061.93 58.8315 3057.83 56.8099C3053.79 54.7883 3050.59 51.8682 3048.23 48.0496C3045.87 44.231 3044.69 39.7385 3044.69 34.5722V25.6434C3044.69 20.7579 3045.87 16.4058 3048.23 12.5872C3050.64 8.71244 3053.84 5.7081 3057.83 3.57417C3061.82 1.44025 3066.14 0.373291 3070.8 0.373291H3073.16ZM3143.55 1.21563C3146.3 1.21563 3148.88 1.83334 3151.3 3.06877C3153.77 4.24805 3155.76 5.93272 3157.28 8.1228C3158.8 10.2567 3159.55 12.7276 3159.55 15.5354C3159.55 17.557 3159.08 19.5505 3158.12 21.516C3157.22 23.4814 3155.99 25.1661 3154.42 26.57C3152.84 27.9739 3151.1 28.8443 3149.19 29.1812V29.6024C3152.28 30.5571 3154.58 32.354 3156.1 34.9934C3157.67 37.5765 3158.46 40.7213 3158.46 44.4276C3158.46 47.0669 3158.71 49.3412 3159.22 51.2505C3159.72 53.1036 3160.9 54.2829 3162.75 54.7883V58.2419C3160.17 59.3089 3156.8 59.8423 3152.65 59.8423C3148.66 59.8423 3145.68 59.0281 3143.72 57.3996C3141.75 55.7149 3140.77 52.9071 3140.77 48.9762C3140.77 45.2699 3140.29 42.2936 3139.34 40.0474C3138.44 37.745 3136.42 36.5938 3133.27 36.5938H3128.39V59H3111.12V1.21563H3143.55ZM3128.39 23.706H3137.32C3138.49 23.706 3139.48 23.313 3140.26 22.5268C3141.11 21.6844 3141.53 20.6736 3141.53 19.4944V18.652C3141.53 17.4727 3141.11 16.49 3140.26 15.7038C3139.48 14.8615 3138.49 14.4403 3137.32 14.4403H3128.39V23.706ZM3203.07 0.541761C3207.68 0.541761 3211.89 1.69295 3215.71 3.99534C3219.58 6.24158 3222.64 9.30207 3224.89 13.1768C3227.19 16.9954 3228.34 21.2071 3228.34 25.8119V34.5722C3228.34 39.177 3227.19 43.4168 3224.89 47.2915C3222.64 51.1101 3219.58 54.1706 3215.71 56.473C3211.89 58.7192 3207.68 59.8423 3203.07 59.8423H3198.35C3193.75 59.8423 3189.51 58.7192 3185.64 56.473C3181.82 54.1706 3178.76 51.1101 3176.45 47.2915C3174.21 43.4168 3173.08 39.177 3173.08 34.5722V25.8119C3173.08 21.2071 3174.21 16.9954 3176.45 13.1768C3178.76 9.30207 3181.82 6.24158 3185.64 3.99534C3189.51 1.69295 3193.75 0.541761 3198.35 0.541761H3203.07ZM3200.54 13.5138C3198.19 13.5138 3196.19 14.328 3194.56 15.9565C3192.94 17.5851 3192.12 19.5786 3192.12 21.9371V38.1943C3192.12 40.5528 3192.94 42.5463 3194.56 44.1749C3196.19 45.8034 3198.19 46.6176 3200.54 46.6176H3200.97C3203.32 46.6176 3205.32 45.8034 3206.95 44.1749C3208.58 42.5463 3209.39 40.5528 3209.39 38.1943V21.9371C3209.39 19.5786 3208.58 17.5851 3206.95 15.9565C3205.32 14.328 3203.32 13.5138 3200.97 13.5138H3200.54ZM3260.33 44.8487H3281.31L3282.99 59H3242.47V1.21563H3260.33V44.8487ZM3312.89 44.8487H3333.86L3335.55 59H3295.03V1.21563H3312.89V44.8487ZM3396.56 1.21563C3401.17 1.21563 3405.38 2.36682 3409.2 4.66921C3413.07 6.91545 3416.13 9.97594 3418.38 13.8507C3420.68 17.6693 3421.83 21.881 3421.83 26.4858V33.7299C3421.83 38.3346 3420.68 42.5744 3418.38 46.4492C3416.13 50.2678 3413.07 53.3283 3409.2 55.6306C3405.38 57.8769 3401.17 59 3396.56 59H3370.53V1.21563H3396.56ZM3388.39 45.6068H3394.88C3397.24 45.6068 3399.23 44.7926 3400.86 43.1641C3402.49 41.5355 3403.3 39.542 3403.3 37.1835V22.7795C3403.3 20.4209 3402.49 18.4274 3400.86 16.7989C3399.23 15.1704 3397.24 14.3561 3394.88 14.3561H3388.39V45.6068ZM3463.72 0.541761C3468.32 0.541761 3472.54 1.69295 3476.35 3.99534C3480.23 6.24158 3483.29 9.30207 3485.54 13.1768C3487.84 16.9954 3488.99 21.2071 3488.99 25.8119V34.5722C3488.99 39.177 3487.84 43.4168 3485.54 47.2915C3483.29 51.1101 3480.23 54.1706 3476.35 56.473C3472.54 58.7192 3468.32 59.8423 3463.72 59.8423H3459C3454.4 59.8423 3450.16 58.7192 3446.28 56.473C3442.46 54.1706 3439.4 51.1101 3437.1 47.2915C3434.86 43.4168 3433.73 39.177 3433.73 34.5722V25.8119C3433.73 21.2071 3434.86 16.9954 3437.1 13.1768C3439.4 9.30207 3442.46 6.24158 3446.28 3.99534C3450.16 1.69295 3454.4 0.541761 3459 0.541761H3463.72ZM3461.19 13.5138C3458.83 13.5138 3456.84 14.328 3455.21 15.9565C3453.58 17.5851 3452.77 19.5786 3452.77 21.9371V38.1943C3452.77 40.5528 3453.58 42.5463 3455.21 44.1749C3456.84 45.8034 3458.83 46.6176 3461.19 46.6176H3461.61C3463.97 46.6176 3465.97 45.8034 3467.59 44.1749C3469.22 42.5463 3470.04 40.5528 3470.04 38.1943V21.9371C3470.04 19.5786 3469.22 17.5851 3467.59 15.9565C3465.97 14.328 3463.97 13.5138 3461.61 13.5138H3461.19ZM3568.82 59H3548.78L3541.79 31.2871H3541.28L3534.29 59H3513.9L3498.15 1.21563H3516.43L3524.6 33.3087H3524.94L3533.19 1.21563H3551.3L3559.39 33.3087H3559.73L3567.9 1.21563H3584.49L3568.82 59ZM3644.93 59H3629.77L3612.41 33.9826L3612.16 33.3929V59H3595.9V1.21563H3610.73L3628.42 26.8227L3628.59 27.4123V1.21563H3644.93V59ZM3681.68 15.7038C3684.32 15.7038 3686.73 16.3496 3688.92 17.6412C3691.17 18.9328 3692.94 20.6736 3694.23 22.8637C3695.52 25.0538 3696.17 27.4685 3696.17 30.1078C3696.17 32.7471 3695.52 35.1899 3694.23 37.4362C3692.94 39.6262 3691.17 41.3671 3688.92 42.6586C3686.73 43.9502 3684.32 44.596 3681.68 44.596C3679.04 44.596 3676.62 43.9502 3674.43 42.6586C3672.24 41.3671 3670.5 39.6262 3669.21 37.4362C3667.92 35.1899 3667.27 32.7471 3667.27 30.1078C3667.27 27.4685 3667.92 25.0538 3669.21 22.8637C3670.5 20.6736 3672.24 18.9328 3674.43 17.6412C3676.62 16.3496 3679.04 15.7038 3681.68 15.7038Z" stroke="#5E38CD" stroke-width="2" mask="url(#path-1-inside-1_1200_94)"/>
</svg>
