<svg width="541" height="212" viewBox="0 0 541 212" fill="none" xmlns="http://www.w3.org/2000/svg">
<path d="M448.156 134C448.156 132.113 448.628 130.388 449.571 128.823C450.492 127.236 451.745 125.982 453.333 125.061C454.897 124.118 456.623 123.647 458.51 123.647H461.477C463.364 123.647 465.101 124.118 466.689 125.061C468.253 125.982 469.507 127.236 470.45 128.823C471.371 130.388 471.831 132.113 471.831 134V144.664H448.156L448.156 134ZM466.343 137.347V134.69C466.343 133.724 466.01 132.907 465.343 132.24C464.675 131.572 463.859 131.239 462.892 131.239H456.991C456.025 131.239 455.208 131.572 454.541 132.24C453.874 132.907 453.54 133.724 453.54 134.69V137.347H466.343Z" fill="#0A0A0A"/>
<path d="M453.851 112.421C453.851 110.649 454.196 109.13 454.886 107.865C455.553 106.577 456.485 105.599 457.681 104.932C458.878 104.241 460.247 103.896 461.788 103.896H463.928V115.388H465.584C466.366 115.388 466.965 115.147 467.379 114.664C467.793 114.158 468 113.513 468 112.731C468 111.926 467.758 111.316 467.275 110.902C466.769 110.465 466.079 110.246 465.205 110.246V103.931C466.516 103.931 467.701 104.276 468.759 104.966C469.818 105.633 470.657 106.623 471.279 107.934C471.877 109.223 472.176 110.753 472.176 112.524V113.042C472.176 114.882 471.842 116.539 471.175 118.011C470.485 119.461 469.495 120.611 468.207 121.462C466.896 122.291 465.343 122.705 463.548 122.705H462.478C460.684 122.705 459.142 122.314 457.854 121.531C456.542 120.726 455.553 119.61 454.886 118.184C454.196 116.757 453.851 115.124 453.851 113.283V112.421ZM458.026 113.007C458.026 113.674 458.268 114.238 458.751 114.698C459.211 115.158 459.775 115.388 460.442 115.388H460.925V110.626H460.442C459.775 110.626 459.211 110.856 458.751 111.316C458.268 111.776 458.026 112.34 458.026 113.007Z" fill="#0A0A0A"/>
<path d="M453.851 93.4539C453.851 92.3495 454.035 91.2222 454.403 90.0718C454.748 88.8985 455.277 87.9207 455.99 87.1384C456.703 86.3562 457.566 85.965 458.579 85.965C458.786 85.965 458.981 85.9765 459.165 85.9995C459.326 86.0226 459.43 86.0341 459.476 86.0341V91.6938C458.924 91.6938 458.533 91.9469 458.302 92.4531C458.049 92.9362 457.923 93.4884 457.923 94.1096C457.923 95.8121 458.256 96.6634 458.924 96.6634C459.338 96.6634 459.625 96.4103 459.786 95.9041C459.924 95.375 460.062 94.5122 460.201 93.3158C460.385 91.7513 460.615 90.4629 460.891 89.4506C461.167 88.4153 461.708 87.518 462.513 86.7588C463.295 85.9765 464.445 85.5854 465.964 85.5854C468.127 85.5854 469.703 86.3792 470.692 87.9667C471.681 89.5312 472.176 91.4638 472.176 93.7645V95.559C472.176 96.8474 471.98 98.0783 471.589 99.2517C471.175 100.402 470.554 101.345 469.726 102.082C468.897 102.818 467.885 103.186 466.689 103.186H466.378C466.24 103.186 466.136 103.174 466.067 103.151V97.5607H466.205C466.873 97.5607 467.344 97.2616 467.62 96.6634C467.873 96.0652 468 95.375 468 94.5927C468 93.9025 467.931 93.2468 467.793 92.6256C467.655 91.9814 467.367 91.6593 466.93 91.6593C466.493 91.6593 466.194 91.9239 466.033 92.4531C465.849 92.9822 465.665 93.8565 465.481 95.0759C465.297 96.5483 465.055 97.8022 464.756 98.8376C464.457 99.8729 463.916 100.77 463.134 101.529C462.329 102.266 461.213 102.634 459.786 102.634C458.452 102.634 457.348 102.231 456.473 101.426C455.576 100.598 454.92 99.5623 454.506 98.3199C454.069 97.0775 453.851 95.8121 453.851 94.5237V93.4539Z" fill="#0A0A0A"/>
<path d="M451.918 77.1788V83.9774H446.983L446.983 77.1788H451.918ZM471.831 77.1788V83.9774H454.23V77.1788H471.831Z" fill="#0A0A0A"/>
<path d="M451.021 56.1661C452.355 56.1661 453.379 56.4882 454.092 57.1324C454.805 57.7535 455.335 58.6968 455.68 59.9622C456.163 59.341 456.726 58.8694 457.371 58.5473C458.015 58.2022 458.682 58.0296 459.372 58.0296C460.385 58.0296 461.316 58.3402 462.168 58.9614C463.019 59.5826 463.698 60.4224 464.204 61.4807C464.687 62.539 464.929 63.6894 464.929 64.9318V67.313C464.929 67.9802 465.032 68.4749 465.239 68.797C465.423 69.1191 465.665 69.2802 465.964 69.2802C466.309 69.2802 466.574 69.1421 466.758 68.866C466.942 68.5899 467.034 68.0723 467.034 67.313V61.6878C467.034 59.8472 467.528 58.4668 468.518 57.5465C469.484 56.6262 470.784 56.1661 472.417 56.1661C473.453 56.1661 474.419 56.4882 475.316 57.1324C476.237 57.7535 476.961 58.5933 477.49 59.6516C478.043 60.71 478.319 61.8488 478.319 63.0682V72.2136C478.319 73.3409 477.916 74.3187 477.111 75.147C476.306 75.9522 475.328 76.3549 474.177 76.3549H474.005C473.2 76.3549 472.463 76.1018 471.796 75.5956C471.106 75.0895 470.588 74.4683 470.243 73.732C469.898 74.2382 469.461 74.6408 468.932 74.9399C468.403 75.239 467.839 75.3886 467.241 75.3886C466.389 75.3886 465.619 75.0895 464.929 74.4913C464.238 73.8701 463.778 73.1109 463.548 72.2136C463.019 73.0188 462.398 73.663 461.685 74.1462C460.971 74.6293 460.212 74.8709 459.407 74.8709C457.773 74.8709 456.439 74.1922 455.404 72.8348C454.368 71.4773 453.851 69.5102 453.851 66.9334V65.9671C453.851 65.1389 453.92 64.3796 454.058 63.6894C453.482 62.8151 452.93 62.1939 452.401 61.8258C451.849 61.4577 451.389 61.2737 451.021 61.2737V56.1661ZM457.233 66.3122C457.233 66.9104 457.451 67.4166 457.888 67.8307C458.302 68.2218 458.809 68.4174 459.407 68.4174C460.005 68.4174 460.523 68.2218 460.96 67.8307C461.374 67.4166 461.581 66.9104 461.581 66.3122C461.581 65.714 461.374 65.2194 460.96 64.8283C460.523 64.4141 460.005 64.2071 459.407 64.2071C458.809 64.2071 458.302 64.4141 457.888 64.8283C457.451 65.2194 457.233 65.714 457.233 66.3122ZM471.831 68.9696C471.831 69.4527 471.969 69.8668 472.245 70.2119C472.521 70.534 472.854 70.6951 473.246 70.6951C473.637 70.6951 473.97 70.534 474.246 70.2119C474.546 69.8668 474.695 69.4527 474.695 68.9696V64.0345C474.695 63.5514 474.557 63.1487 474.281 62.8266C474.005 62.4815 473.671 62.309 473.28 62.309C472.889 62.309 472.544 62.4815 472.245 62.8266C471.969 63.1487 471.831 63.5514 471.831 64.0345V68.9696Z" fill="#0A0A0A"/>
<path d="M453.851 43.2989C453.851 42.3556 454.081 41.4929 454.541 40.7106C455.001 39.9054 455.634 39.2727 456.439 38.8125C457.221 38.3524 458.084 38.1223 459.027 38.1223H471.831V44.9554H460.787C460.212 44.9554 459.729 45.1395 459.338 45.5076C458.924 45.8527 458.717 46.2784 458.717 46.7845C458.717 47.2907 458.924 47.7278 459.338 48.0959C459.729 48.441 460.212 48.6136 460.787 48.6136H471.831V55.4467H454.196V50.3046L456.749 49.6144C454.817 48.349 453.851 46.5659 453.851 44.2652L453.851 43.2989Z" fill="#0A0A0A"/>
<path d="M453.851 26.3323C453.851 24.5607 454.196 23.0423 454.886 21.7769C455.553 20.4885 456.485 19.5107 457.681 18.8434C458.878 18.1532 460.247 17.8081 461.788 17.8081H463.928V29.3002H465.584C466.366 29.3002 466.965 29.0586 467.379 28.5755C467.793 28.0693 468 27.4251 468 26.6429C468 25.8376 467.758 25.2279 467.275 24.8138C466.769 24.3767 466.079 24.1581 465.205 24.1581V17.8426C466.516 17.8426 467.701 18.1877 468.759 18.878C469.818 19.5452 470.657 20.5345 471.279 21.8459C471.877 23.1343 472.176 24.6643 472.176 26.4358V26.9535C472.176 28.7941 471.842 30.4506 471.175 31.923C470.485 33.3725 469.495 34.5229 468.207 35.3741C466.896 36.2024 465.343 36.6165 463.548 36.6165H462.478C460.684 36.6165 459.142 36.2254 457.854 35.4431C456.542 34.6379 455.553 33.522 454.886 32.0956C454.196 30.6691 453.851 29.0356 453.851 27.1951V26.3323ZM458.026 26.919C458.026 27.5862 458.268 28.1499 458.751 28.61C459.211 29.0701 459.775 29.3002 460.442 29.3002H460.925V24.5377H460.442C459.775 24.5377 459.211 24.7678 458.751 25.2279C458.268 25.6881 458.026 26.2518 458.026 26.919Z" fill="#0A0A0A"/>
<path d="M453.851 5.60559C453.851 4.08712 454.276 2.91375 455.127 2.08549C455.956 1.23423 457.106 0.808594 458.579 0.808594L459.165 0.808594L460.477 0.877615L461.339 0.946637V6.53738H460.511C460.028 6.53738 459.625 6.68693 459.303 6.98602C458.958 7.26211 458.786 7.59572 458.786 7.98684C458.786 8.40097 458.958 8.75758 459.303 9.05667C459.625 9.33276 460.028 9.4708 460.511 9.4708H471.831V16.1314H454.196V11.0238L456.749 10.2645C456.473 10.1265 456.105 9.86192 455.645 9.4708C455.185 9.07968 454.771 8.55051 454.403 7.88331C454.035 7.2161 453.851 6.45686 453.851 5.60559Z" fill="#0A0A0A"/>
<path d="M379.419 123.998L379.419 123.998L379.415 124.006C375.424 131.162 369.645 136.737 362.063 140.736C354.62 144.595 345.989 146.534 336.155 146.534C326.321 146.534 317.691 144.595 310.249 140.737C302.806 136.74 297.025 131.163 292.892 124.002C288.901 116.843 286.895 108.498 286.895 98.9497V1.93739H297.029V98.5308C297.029 110.515 300.416 120.098 307.246 127.213L307.246 127.213L307.254 127.221C314.233 134.2 323.893 137.656 336.155 137.656C348.419 137.656 358.081 134.128 365.059 127.008L365.063 127.004C372.028 119.754 375.489 110.244 375.489 98.5308V1.93739H385.623V98.9497C385.623 108.497 383.549 116.84 379.419 123.998ZM413.164 11.024H397.206V1.93739H440.432V11.024H424.474H423.886V11.6121V134.764V135.352H424.474H440.432V144.439H397.206V135.352H413.164H413.752V134.764V11.6121V11.024H413.164Z" stroke="#5E38CD" stroke-width="1.17606"/>
<path d="M171.043 99.7103C171.043 109.279 168.862 117.722 164.499 125.04C160.278 132.357 154.157 138.056 146.136 142.137C138.255 146.077 129.109 148.047 118.696 148.047H115.952C105.538 148.047 96.3917 146.077 88.5115 142.137C80.772 138.197 74.7211 132.568 70.3588 125.251C65.9966 117.933 63.8154 109.42 63.8154 99.7103V1.13721H84.501V99.2882C84.501 108.294 87.5968 115.541 93.7884 121.029C100.121 126.517 108.142 129.261 117.851 129.261C127.842 129.261 135.722 126.517 141.492 121.029C147.402 115.541 150.357 108.294 150.357 99.2882V1.13721H171.043V99.7103Z" fill="#0A0A0A"/>
<path d="M249.709 69.7373L302.267 145.936H277.36L237.255 87.6789L196.095 145.936H173.088L225.857 71.0038L177.942 1.34828H202.849L238.31 53.0622C246.05 42.2269 254.282 30.477 263.006 17.8123L271.661 5.56984L274.616 1.34828H297.623L249.709 69.7373Z" fill="#0A0A0A"/>
<path d="M8.3743 202.323C6.96466 202.323 5.7034 202.187 4.59053 201.915C3.47766 201.643 2.59972 201.383 1.95673 201.136C1.33847 200.863 1.02934 200.727 1.02934 200.727L0.65838 200.06C0.65838 200.06 0.720206 199.862 0.843859 199.466C0.967511 199.071 1.11589 198.564 1.28901 197.945C1.46212 197.302 1.63524 196.635 1.80835 195.942C1.98146 195.225 2.11748 194.557 2.2164 193.939L6.92756 193.605C6.85337 194.372 6.89047 195.039 7.03885 195.608C7.21196 196.177 7.50873 196.622 7.92915 196.944C8.34957 197.24 8.89364 197.389 9.56136 197.389C10.2785 197.389 10.8597 197.24 11.3049 196.944C11.75 196.622 11.9726 196.214 11.9726 195.72C11.9726 195.077 11.6016 194.545 10.8597 194.124C10.1178 193.679 9.23987 193.222 8.22592 192.752C7.36035 192.331 6.48241 191.849 5.59212 191.305C4.72655 190.761 4.00936 190.081 3.44056 189.265C2.87176 188.424 2.58736 187.373 2.58736 186.112C2.58736 184.356 3.08197 182.835 4.07119 181.549C5.06041 180.238 6.44532 179.224 8.22592 178.507C10.0065 177.79 12.0962 177.431 14.4951 177.431C15.8305 177.431 17.03 177.518 18.0934 177.691C19.1815 177.864 20.0471 178.037 20.6901 178.21C21.3331 178.383 21.6546 178.47 21.6546 178.47L22.0255 179.286C22.0255 179.286 21.9266 179.595 21.7288 180.214C21.5309 180.807 21.296 181.598 21.024 182.588C20.7519 183.577 20.5046 184.628 20.282 185.741L15.9047 186.038L15.4967 185.741C15.4967 185.741 15.509 185.667 15.5338 185.518C15.5585 185.37 15.5709 185.209 15.5709 185.036C15.5956 184.863 15.608 184.752 15.608 184.702C15.608 183.985 15.3978 183.453 14.9773 183.107C14.5817 182.736 14.0252 182.551 13.308 182.551C12.6156 182.551 12.0468 182.724 11.6016 183.07C11.1812 183.416 10.971 183.849 10.971 184.368C10.971 184.888 11.2059 185.333 11.6758 185.704C12.1704 186.075 12.7763 186.433 13.4935 186.779C14.186 187.101 14.9279 187.46 15.7193 187.855C16.5354 188.226 17.2896 188.671 17.9821 189.191C18.6993 189.71 19.2805 190.353 19.7256 191.12C20.1707 191.862 20.3933 192.777 20.3933 193.865C20.3933 195.621 19.9111 197.129 18.9466 198.39C17.9821 199.652 16.5972 200.629 14.7919 201.321C13.0113 201.989 10.8721 202.323 8.3743 202.323ZM28.7535 202.323C26.6514 202.323 25.0192 201.692 23.8568 200.431C22.6945 199.169 22.1133 197.376 22.1133 195.052C22.1133 193.37 22.3483 191.849 22.8182 190.489C23.288 189.129 23.9558 187.967 24.8213 187.002C25.7116 186.013 26.775 185.259 28.0116 184.739C29.2481 184.195 30.6206 183.923 32.1292 183.923C34.2808 183.923 35.9253 184.529 37.0629 185.741C38.2005 186.928 38.7693 188.659 38.7693 190.934C38.7693 192.641 38.5344 194.199 38.0645 195.608C37.5946 196.993 36.9146 198.193 36.0243 199.207C35.1587 200.196 34.1076 200.962 32.8711 201.506C31.6346 202.051 30.2621 202.323 28.7535 202.323ZM30.2002 198.353C30.6701 198.353 31.0411 198.18 31.3131 197.834C31.5851 197.488 31.783 196.87 31.9066 195.979C32.0303 195.089 32.0921 193.852 32.0921 192.27C32.0921 190.885 31.9932 189.896 31.7953 189.302C31.5975 188.684 31.2265 188.375 30.6825 188.375C30.2126 188.375 29.8293 188.548 29.5325 188.894C29.2605 189.24 29.0626 189.821 28.939 190.637C28.8153 191.429 28.7535 192.517 28.7535 193.902C28.7535 195.559 28.8524 196.721 29.0503 197.389C29.2728 198.032 29.6562 198.353 30.2002 198.353ZM47.7216 196.165C47.8452 196.165 47.9936 196.091 48.1667 195.942C48.3646 195.769 48.8592 195.336 49.6506 194.644L50.5038 194.792L51.2457 196.573C49.935 198.057 48.8221 199.219 47.9071 200.06C47.0168 200.901 46.2254 201.494 45.5329 201.84C44.8405 202.162 44.148 202.323 43.4556 202.323C41.8234 202.323 41.0073 201.494 41.0073 199.837C41.0073 199.664 41.0691 199.169 41.1927 198.353C41.3164 197.537 41.4648 196.536 41.6379 195.349C41.8357 194.137 42.0459 192.838 42.2685 191.454C42.5158 190.044 42.7508 188.647 42.9733 187.262C43.2206 185.852 43.4309 184.554 43.604 183.367C43.8018 182.18 43.9626 181.203 44.0862 180.436C44.2099 179.669 44.2717 179.212 44.2717 179.064C44.2717 178.247 43.8636 177.839 43.0475 177.839H42.0088L42.454 174.798C43.2948 174.798 44.1975 174.773 45.162 174.723C46.1512 174.674 47.0786 174.624 47.9442 174.575C48.8097 174.526 49.5146 174.476 50.0586 174.427C50.6027 174.377 50.8747 174.352 50.8747 174.352L51.4683 175.094C51.4683 175.094 51.3941 175.478 51.2457 176.244C51.0973 176.986 50.8871 178 50.6151 179.286C50.3678 180.547 50.0957 181.945 49.799 183.478C49.5022 185.011 49.2054 186.569 48.9087 188.152C48.6366 189.71 48.377 191.181 48.1296 192.566C47.8823 193.951 47.6969 195.114 47.5732 196.053L47.7216 196.165ZM58.1832 202.211C56.551 202.211 55.2773 201.865 54.3623 201.173C53.472 200.455 53.0269 199.479 53.0269 198.242C53.0269 197.871 53.1011 197.376 53.2494 196.758C53.3978 196.115 53.5709 195.435 53.7688 194.718C53.9914 193.976 54.2016 193.246 54.3994 192.529C54.5973 191.787 54.7704 191.107 54.9188 190.489C55.0671 189.871 55.1413 189.389 55.1413 189.042C55.1413 188.226 54.7333 187.818 53.9172 187.818H52.8785L53.3236 184.776C53.9172 184.776 54.6343 184.764 55.4752 184.739C56.3408 184.69 57.2929 184.628 58.3316 184.554C59.395 184.48 60.4831 184.405 61.596 184.331L62.1895 185.073C61.6454 186.953 61.1632 188.622 60.7428 190.081C60.3471 191.515 60.038 192.678 59.8154 193.568C59.5928 194.458 59.4815 195.015 59.4815 195.237C59.4815 195.509 59.5063 195.72 59.5557 195.868C59.6299 195.992 59.7659 196.053 59.9638 196.053C60.2605 196.053 60.6562 195.658 61.1508 194.866C61.6454 194.075 62.2143 192.913 62.8572 191.379C63.525 189.846 64.2545 187.967 65.0459 185.741L63.525 195.608L62.5976 195.386C61.8309 197.142 61.089 198.588 60.3718 199.726C59.6546 200.863 58.9251 201.692 58.1832 202.211ZM63.7104 202.323C62.4492 202.323 61.8186 201.729 61.8186 200.542C61.8186 200.394 61.8309 200.22 61.8557 200.023C61.9051 199.8 61.9793 199.466 62.0782 199.021C62.1772 198.576 62.3255 197.933 62.5234 197.092C62.7212 196.227 62.9933 195.089 63.3395 193.679L63.7475 190.86L64.5266 184.739L65.2685 184.294L70.7215 184.331L71.278 185.073C70.9565 186.087 70.6226 187.2 70.2764 188.412C69.9549 189.623 69.6581 190.823 69.3861 192.01C69.1141 193.197 68.8791 194.285 68.6813 195.274L68.8297 195.423C68.9533 195.349 69.077 195.274 69.2006 195.2C69.3243 195.126 69.4479 195.039 69.5716 194.941C69.72 194.842 69.856 194.743 69.9796 194.644L70.8328 194.792L71.5747 196.573C70.2146 198.081 69.077 199.256 68.1619 200.097C67.2716 200.913 66.4803 201.494 65.7878 201.84C65.1201 202.162 64.4276 202.323 63.7104 202.323ZM83.7885 194.792L84.5675 196.647C83.7762 197.785 82.9971 198.786 82.2305 199.652C81.4639 200.493 80.7714 201.148 80.1531 201.618C79.5596 202.088 79.0774 202.323 78.7064 202.323C76.9753 202.323 75.6769 201.89 74.8114 201.024C73.9705 200.134 73.6367 198.897 73.8098 197.315L75.442 188.115L75.1081 187.818H73.1049L72.9937 187.633L73.2904 185.184L75.9613 184.776C76.0602 184.133 76.1468 183.503 76.221 182.884C76.2952 182.241 76.357 181.71 76.4065 181.289C76.4559 180.869 76.4807 180.659 76.4807 180.659L82.7127 179.36L83.2321 179.805C83.2321 179.805 83.1703 180.053 83.0466 180.547C82.923 181.017 82.7746 181.636 82.6015 182.402C82.4283 183.144 82.2552 183.935 82.0821 184.776H85.6062L85.8659 185.036L85.4207 187.818L81.9337 187.781L81.4515 188.078L80.1531 195.2C80.0789 195.942 80.3015 196.313 80.8209 196.313C81.0682 196.313 81.3526 196.189 81.6741 195.942C81.9956 195.695 82.4283 195.262 82.9724 194.644L83.7885 194.792ZM93.2129 196.165C93.3365 196.165 93.4849 196.091 93.658 195.942C93.8559 195.769 94.3505 195.336 95.1419 194.644L95.9951 194.792L96.737 196.573C95.4757 198.007 94.3876 199.145 93.4725 199.986C92.5822 200.826 91.7785 201.432 91.0613 201.803C90.3441 202.149 89.6393 202.323 88.9469 202.323C87.3146 202.323 86.4985 201.494 86.4985 199.837C86.8695 197.636 87.1786 195.769 87.4259 194.236C87.6732 192.702 87.8587 191.503 87.9824 190.637C88.106 189.747 88.1678 189.215 88.1678 189.042C88.1678 188.622 88.0689 188.313 87.8711 188.115C87.6732 187.917 87.3641 187.818 86.9437 187.818H85.905L86.3502 184.776C86.9684 184.776 87.7227 184.764 88.613 184.739C89.528 184.69 90.5049 184.628 91.5436 184.554C92.5822 184.48 93.6086 184.405 94.6225 184.331L95.216 185.073C94.944 186.112 94.672 187.286 94.3999 188.597C94.1279 189.883 93.8682 191.181 93.6209 192.492C93.3984 193.778 93.2129 194.965 93.0645 196.053L93.2129 196.165ZM91.6178 182.476C90.6285 182.476 89.8619 182.217 89.3178 181.697C88.7985 181.178 88.5388 180.448 88.5388 179.509C88.5388 178.173 88.9221 177.11 89.6888 176.318C90.4802 175.502 91.5188 175.094 92.8048 175.094C93.794 175.094 94.5483 175.366 95.0677 175.91C95.587 176.43 95.8467 177.159 95.8467 178.099C95.8467 179.41 95.451 180.473 94.6596 181.289C93.893 182.081 92.879 182.476 91.6178 182.476ZM104.553 202.323C102.451 202.323 100.819 201.692 99.6568 200.431C98.4945 199.169 97.9133 197.376 97.9133 195.052C97.9133 193.37 98.1483 191.849 98.6181 190.489C99.088 189.129 99.7557 187.967 100.621 187.002C101.512 186.013 102.575 185.259 103.812 184.739C105.048 184.195 106.421 183.923 107.929 183.923C110.081 183.923 111.725 184.529 112.863 185.741C114.001 186.928 114.569 188.659 114.569 190.934C114.569 192.641 114.334 194.199 113.864 195.608C113.395 196.993 112.715 198.193 111.824 199.207C110.959 200.196 109.908 200.962 108.671 201.506C107.435 202.051 106.062 202.323 104.553 202.323ZM106 198.353C106.47 198.353 106.841 198.18 107.113 197.834C107.385 197.488 107.583 196.87 107.707 195.979C107.83 195.089 107.892 193.852 107.892 192.27C107.892 190.885 107.793 189.896 107.595 189.302C107.397 188.684 107.027 188.375 106.482 188.375C106.013 188.375 105.629 188.548 105.332 188.894C105.06 189.24 104.863 189.821 104.739 190.637C104.615 191.429 104.553 192.517 104.553 193.902C104.553 195.559 104.652 196.721 104.85 197.389C105.073 198.032 105.456 198.353 106 198.353ZM128.678 202.211C127.07 202.211 126.267 201.482 126.267 200.023C126.267 199.701 126.341 199.244 126.489 198.65C126.638 198.032 126.823 197.352 127.046 196.61C127.268 195.868 127.478 195.126 127.676 194.384C127.899 193.642 128.084 192.974 128.233 192.381C128.381 191.787 128.455 191.355 128.455 191.083C128.455 190.736 128.406 190.477 128.307 190.304C128.208 190.13 128.06 190.044 127.862 190.044C127.59 190.044 127.219 190.427 126.749 191.194C126.279 191.961 125.76 193.024 125.191 194.384C124.647 195.72 124.103 197.24 123.559 198.947L124.523 190.749L125.376 190.637C126.118 188.857 126.835 187.398 127.528 186.26C128.245 185.123 128.913 184.331 129.531 183.886C131.237 183.886 132.573 184.245 133.537 184.962C134.502 185.654 134.984 186.619 134.984 187.855C134.984 188.226 134.885 188.783 134.687 189.525C134.514 190.266 134.292 191.058 134.02 191.899C133.772 192.74 133.537 193.531 133.315 194.273C133.092 194.99 132.944 195.546 132.87 195.942L132.981 196.053C133.055 196.053 133.154 196.016 133.278 195.942C133.401 195.843 133.587 195.682 133.834 195.46C134.081 195.237 134.415 194.928 134.836 194.532L135.726 194.681L136.394 196.461C135.083 197.945 133.983 199.108 133.092 199.948C132.202 200.765 131.411 201.346 130.718 201.692C130.05 202.038 129.37 202.211 128.678 202.211ZM118.143 202.137L117.401 201.284C117.574 200.245 117.747 199.12 117.92 197.908C118.118 196.696 118.303 195.522 118.477 194.384C118.674 193.222 118.835 192.208 118.959 191.342C119.107 190.452 119.218 189.809 119.293 189.413C119.392 188.844 119.354 188.436 119.181 188.189C119.008 187.942 118.674 187.818 118.18 187.818H117.178L117.623 184.776C118.538 184.776 119.75 184.739 121.259 184.665C122.767 184.566 124.276 184.455 125.784 184.331L126.267 185.11C126.118 185.629 125.958 186.26 125.784 187.002C125.636 187.744 125.488 188.486 125.339 189.228C125.216 189.97 125.117 190.625 125.042 191.194L123.93 197.426L123.596 200.208C123.546 200.554 123.262 200.876 122.743 201.173C122.248 201.469 121.593 201.704 120.776 201.877C119.96 202.051 119.082 202.137 118.143 202.137ZM139.915 195.274C139.989 196.016 140.323 196.647 140.917 197.166C141.51 197.686 142.19 197.945 142.957 197.945C143.451 197.945 143.822 197.871 144.07 197.723C144.317 197.55 144.441 197.315 144.441 197.018C144.441 196.597 144.193 196.264 143.699 196.016C143.229 195.744 142.672 195.46 142.029 195.163C141.485 194.891 140.941 194.582 140.397 194.236C139.853 193.889 139.396 193.432 139.025 192.863C138.678 192.294 138.505 191.577 138.505 190.712C138.505 189.401 138.864 188.239 139.581 187.225C140.298 186.186 141.288 185.382 142.549 184.813C143.81 184.22 145.232 183.923 146.815 183.923C147.903 183.923 148.942 184.059 149.931 184.331C150.945 184.603 151.761 184.987 152.379 185.481C151.983 186.47 151.588 187.361 151.192 188.152C150.796 188.943 150.413 189.636 150.042 190.229H149.115C148.867 189.685 148.534 189.265 148.113 188.968C147.717 188.647 147.309 188.486 146.889 188.486C146.543 188.486 146.246 188.585 145.999 188.783C145.751 188.98 145.628 189.228 145.628 189.525C145.628 189.772 145.727 189.994 145.925 190.192C146.147 190.365 146.419 190.539 146.741 190.712C147.161 190.934 147.643 191.169 148.187 191.416C148.731 191.664 149.251 191.973 149.745 192.344C150.24 192.69 150.648 193.135 150.97 193.679C151.291 194.199 151.452 194.854 151.452 195.645C151.452 196.931 151.068 198.081 150.302 199.095C149.535 200.084 148.484 200.876 147.149 201.469C145.838 202.038 144.329 202.323 142.623 202.323C141.139 202.323 139.841 202.1 138.728 201.655C137.615 201.185 136.935 200.604 136.688 199.911C136.762 199.441 136.91 198.922 137.133 198.353C137.38 197.76 137.652 197.179 137.949 196.61C138.27 196.041 138.592 195.571 138.913 195.2L139.915 195.274ZM170.17 197.129L170.615 198.019C169.922 198.786 169.218 199.503 168.5 200.171C167.783 200.814 167.116 201.333 166.497 201.729C165.904 202.125 165.409 202.323 165.013 202.323C164.272 202.323 163.703 202.1 163.307 201.655C162.911 201.21 162.763 200.604 162.862 199.837L164.902 187.113L164.717 186.965L162.157 186.854L162.046 186.668L162.194 185.592L165.162 185.11C165.261 184.393 165.347 183.701 165.422 183.033C165.52 182.34 165.595 181.772 165.644 181.326C165.718 180.881 165.755 180.659 165.755 180.659L169.094 179.36L169.317 179.805C169.317 179.805 169.242 180.053 169.094 180.547C168.946 181.042 168.748 181.71 168.5 182.551C168.278 183.367 168.055 184.257 167.833 185.221L172.358 185.184L172.507 185.296L172.21 186.779L167.833 186.742L167.425 186.965L165.162 198.353C165.038 199.219 165.323 199.652 166.015 199.652C166.361 199.652 166.806 199.466 167.35 199.095C167.919 198.7 168.698 198.032 169.688 197.092L170.17 197.129ZM184.754 199.652C184.878 199.652 185.026 199.602 185.199 199.503C185.372 199.404 185.644 199.207 186.015 198.91C186.386 198.588 186.943 198.106 187.685 197.463L188.13 197.5L188.612 198.39C187.697 199.281 186.893 200.023 186.201 200.616C185.533 201.185 184.964 201.605 184.495 201.877C184.049 202.174 183.691 202.323 183.419 202.323C182.652 202.323 182.269 201.964 182.269 201.247C182.269 200.802 182.355 200.196 182.528 199.429C182.726 198.662 182.961 197.834 183.233 196.944C183.53 196.029 183.814 195.114 184.086 194.199C184.383 193.259 184.618 192.393 184.791 191.602C184.989 190.811 185.088 190.155 185.088 189.636C185.088 189.191 184.964 188.832 184.717 188.56C184.495 188.263 184.198 188.115 183.827 188.115C183.307 188.115 182.664 188.548 181.898 189.413C181.156 190.254 180.352 191.441 179.487 192.974C178.646 194.483 177.793 196.239 176.927 198.242L176.519 201.358C176.519 201.432 176.358 201.544 176.037 201.692C175.74 201.816 175.406 201.927 175.035 202.026C174.689 202.149 174.417 202.211 174.219 202.211L173.959 201.877C173.959 201.877 174.021 201.469 174.145 200.653C174.268 199.837 174.442 198.749 174.664 197.389C174.887 196.029 175.122 194.52 175.369 192.863C175.616 191.206 175.864 189.549 176.111 187.892C176.358 186.211 176.593 184.64 176.816 183.181C177.038 181.722 177.211 180.51 177.335 179.546C177.459 178.581 177.521 177.988 177.521 177.765C177.521 177.271 177.397 176.912 177.15 176.689C176.927 176.442 176.531 176.318 175.963 176.318H174.442L174.664 174.909C175.233 174.909 175.851 174.896 176.519 174.872C177.211 174.847 177.867 174.822 178.485 174.798C179.128 174.773 179.647 174.748 180.043 174.723C180.439 174.699 180.637 174.686 180.637 174.686L180.97 175.131C180.97 175.131 180.884 175.502 180.711 176.244C180.538 176.961 180.315 177.963 180.043 179.249C179.771 180.51 179.462 181.969 179.116 183.626C178.794 185.259 178.46 187.002 178.114 188.857C177.793 190.687 177.496 192.529 177.224 194.384L177.409 194.495C178.695 191.998 179.981 189.908 181.267 188.226C182.578 186.52 183.802 185.333 184.94 184.665C185.731 184.665 186.411 185.024 186.98 185.741C187.573 186.433 187.87 187.274 187.87 188.263C187.87 188.906 187.734 189.71 187.462 190.675C187.215 191.614 186.893 192.616 186.498 193.679C186.127 194.743 185.768 195.781 185.422 196.795C185.076 197.809 184.816 198.712 184.643 199.503L184.754 199.652ZM203.348 199.652C203.472 199.652 203.608 199.615 203.756 199.54C203.929 199.441 204.201 199.231 204.572 198.91C204.968 198.588 205.537 198.106 206.278 197.463L206.724 197.5L207.206 198.39C206.118 199.429 205.227 200.233 204.535 200.802C203.867 201.37 203.335 201.766 202.94 201.989C202.544 202.211 202.186 202.323 201.864 202.323C201.518 202.323 201.233 202.224 201.011 202.026C200.788 201.853 200.677 201.618 200.677 201.321C200.677 201.049 200.813 200.233 201.085 198.873C201.382 197.488 201.777 195.707 202.272 193.531L202.05 193.457C200.838 195.682 199.675 197.513 198.563 198.947C197.45 200.357 196.3 201.482 195.113 202.323C194.198 202.323 193.468 201.89 192.924 201.024C192.405 200.134 192.145 198.91 192.145 197.352C192.145 195.818 192.38 194.31 192.85 192.826C193.344 191.318 194 189.97 194.816 188.783C195.632 187.571 196.547 186.606 197.561 185.889C198.575 185.172 199.601 184.813 200.64 184.813L204.349 185.407L204.683 184.48L204.869 184.442L206.019 184.999L206.316 185.444C205.92 186.755 205.524 188.251 205.128 189.933C204.733 191.59 204.362 193.259 204.016 194.941C203.694 196.597 203.434 198.118 203.237 199.503L203.348 199.652ZM195.892 199.318C196.213 199.318 196.646 199.021 197.19 198.428C197.759 197.809 198.377 196.981 199.045 195.942C199.737 194.879 200.442 193.679 201.159 192.344C201.876 190.984 202.569 189.549 203.237 188.041C202.668 187.694 202.037 187.41 201.345 187.188C200.652 186.94 200.071 186.817 199.601 186.817C198.76 186.817 197.969 187.225 197.227 188.041C196.485 188.857 195.879 189.933 195.409 191.268C194.964 192.579 194.742 194.001 194.742 195.534C194.742 196.622 194.853 197.525 195.075 198.242C195.298 198.959 195.57 199.318 195.892 199.318ZM218.258 197.129L218.703 198.019C218.011 198.786 217.306 199.503 216.589 200.171C215.872 200.814 215.204 201.333 214.586 201.729C213.992 202.125 213.497 202.323 213.102 202.323C212.36 202.323 211.791 202.1 211.395 201.655C211 201.21 210.851 200.604 210.95 199.837L212.99 187.113L212.805 186.965L210.245 186.854L210.134 186.668L210.282 185.592L213.25 185.11C213.349 184.393 213.436 183.701 213.51 183.033C213.609 182.34 213.683 181.772 213.732 181.326C213.807 180.881 213.844 180.659 213.844 180.659L217.182 179.36L217.405 179.805C217.405 179.805 217.331 180.053 217.182 180.547C217.034 181.042 216.836 181.71 216.589 182.551C216.366 183.367 216.144 184.257 215.921 185.221L220.447 185.184L220.595 185.296L220.298 186.779L215.921 186.742L215.513 186.965L213.25 198.353C213.126 199.219 213.411 199.652 214.103 199.652C214.45 199.652 214.895 199.466 215.439 199.095C216.008 198.7 216.787 198.032 217.776 197.092L218.258 197.129ZM237.6 188.412C237.13 188.412 236.709 188.671 236.338 189.191C235.992 189.685 235.708 190.365 235.485 191.231C235.287 192.097 235.188 193.098 235.188 194.236C235.188 195.175 235.337 195.893 235.634 196.387C235.955 196.882 236.4 197.129 236.969 197.129C237.464 197.129 237.946 196.894 238.416 196.424C238.91 195.954 239.356 195.274 239.751 194.384L240.53 194.495L242.459 196.647C242.064 197.686 241.445 198.638 240.604 199.503C239.764 200.344 238.824 201.024 237.785 201.544C236.747 202.063 235.72 202.323 234.706 202.323C232.876 202.323 231.417 201.729 230.329 200.542C229.241 199.33 228.697 197.71 228.697 195.682C228.697 194.075 228.969 192.566 229.513 191.157C230.057 189.722 230.811 188.474 231.776 187.41C232.74 186.322 233.841 185.481 235.077 184.888C236.338 184.269 237.686 183.96 239.121 183.96C239.863 183.96 240.592 184.047 241.309 184.22C242.051 184.368 242.669 184.578 243.164 184.85L243.312 185.518L241.421 190.304L239.825 190.341C239.207 189.055 238.465 188.412 237.6 188.412ZM259.521 196.165C259.62 196.165 259.743 196.115 259.892 196.016C260.065 195.893 260.275 195.72 260.522 195.497C260.794 195.274 261.103 194.99 261.45 194.644L262.303 194.792L263.045 196.573C261.685 198.081 260.547 199.256 259.632 200.097C258.742 200.913 257.95 201.494 257.258 201.84C256.59 202.162 255.898 202.323 255.18 202.323C254.562 202.323 254.092 202.174 253.771 201.877C253.449 201.581 253.289 201.136 253.289 200.542C253.289 200.27 253.363 199.8 253.511 199.132C253.66 198.44 253.895 197.401 254.216 196.016H253.845C252.831 197.747 251.941 199.095 251.174 200.06C250.432 201.024 249.678 201.779 248.911 202.323C247.155 202.323 245.783 201.816 244.794 200.802C243.804 199.763 243.31 198.329 243.31 196.499C243.31 195.039 243.582 193.593 244.126 192.158C244.67 190.724 245.4 189.426 246.315 188.263C247.23 187.076 248.244 186.136 249.356 185.444C250.469 184.727 251.595 184.368 252.732 184.368L255.403 185.11L255.589 184.368L256.293 183.923L261.264 184.368L261.561 185.221C261.239 186.656 260.93 188.053 260.634 189.413C260.362 190.749 260.114 191.985 259.892 193.123C259.694 194.236 259.521 195.213 259.372 196.053L259.521 196.165ZM250.618 196.573C250.816 196.573 251.075 196.363 251.397 195.942C251.718 195.522 252.052 194.953 252.398 194.236C252.769 193.519 253.128 192.727 253.474 191.862C253.82 190.996 254.117 190.118 254.364 189.228C253.87 188.906 253.388 188.671 252.918 188.523C252.448 188.35 252.015 188.263 251.619 188.263C251.397 188.263 251.162 188.572 250.914 189.191C250.692 189.784 250.494 190.526 250.321 191.416C250.173 192.307 250.098 193.209 250.098 194.124C250.098 194.817 250.148 195.398 250.247 195.868C250.346 196.338 250.469 196.573 250.618 196.573ZM262.241 207.627C262.933 207.528 263.428 207.318 263.724 206.997C264.021 206.675 264.268 206.069 264.466 205.179C264.615 204.536 264.775 203.732 264.949 202.768C265.122 201.828 265.295 200.802 265.468 199.689C265.666 198.576 265.851 197.451 266.024 196.313C266.222 195.175 266.383 194.112 266.507 193.123C266.655 192.109 266.766 191.243 266.84 190.526C266.939 189.809 266.989 189.314 266.989 189.042C266.989 188.622 266.89 188.313 266.692 188.115C266.494 187.917 266.185 187.818 265.765 187.818H264.726L265.171 184.776C265.789 184.776 266.544 184.764 267.434 184.739C268.349 184.69 269.326 184.628 270.365 184.554C271.403 184.48 272.43 184.405 273.443 184.331L274.037 185.036C273.567 186.594 273.147 188.325 272.776 190.229H273.11C273.629 189.24 274.148 188.35 274.668 187.558C275.187 186.767 275.706 186.075 276.226 185.481C276.77 184.863 277.314 184.344 277.858 183.923C279.737 183.923 281.197 184.442 282.235 185.481C283.299 186.495 283.83 187.929 283.83 189.784C283.83 191.243 283.558 192.69 283.014 194.124C282.47 195.559 281.741 196.857 280.826 198.019C279.911 199.182 278.897 200.122 277.784 200.839C276.671 201.531 275.546 201.877 274.408 201.877L270.81 201.136L270.216 205.439C270.117 206.156 270.179 206.638 270.402 206.885C270.624 207.133 271.082 207.256 271.774 207.256H273.481L273.518 207.479L272.924 210.409C271.984 210.409 270.872 210.422 269.586 210.447C268.3 210.471 266.964 210.496 265.579 210.521C264.194 210.57 262.884 210.62 261.647 210.669L262.241 207.627ZM276.634 189.005C276.362 189.005 275.991 189.376 275.521 190.118C275.051 190.835 274.569 191.763 274.074 192.9C273.604 194.013 273.196 195.163 272.85 196.35C273.27 196.622 273.728 196.857 274.222 197.055C274.742 197.228 275.199 197.315 275.595 197.315C275.842 197.315 276.077 197.018 276.3 196.424C276.522 195.806 276.708 195.039 276.856 194.124C277.029 193.209 277.116 192.294 277.116 191.379C277.116 190.934 277.091 190.539 277.042 190.192C276.992 189.821 276.93 189.537 276.856 189.339C276.807 189.117 276.733 189.005 276.634 189.005ZM296.97 194.792L297.749 196.647C296.958 197.785 296.179 198.786 295.412 199.652C294.646 200.493 293.953 201.148 293.335 201.618C292.741 202.088 292.259 202.323 291.888 202.323C290.157 202.323 288.859 201.89 287.993 201.024C287.152 200.134 286.818 198.897 286.992 197.315L288.624 188.115L288.29 187.818H286.287L286.175 187.633L286.472 185.184L289.143 184.776C289.242 184.133 289.329 183.503 289.403 182.884C289.477 182.241 289.539 181.71 289.588 181.289C289.638 180.869 289.662 180.659 289.662 180.659L295.895 179.36L296.414 179.805C296.414 179.805 296.352 180.053 296.228 180.547C296.105 181.017 295.956 181.636 295.783 182.402C295.61 183.144 295.437 183.935 295.264 184.776H298.788L299.048 185.036L298.603 187.818L295.116 187.781L294.633 188.078L293.335 195.2C293.261 195.942 293.483 196.313 294.003 196.313C294.25 196.313 294.534 196.189 294.856 195.942C295.177 195.695 295.61 195.262 296.154 194.644L296.97 194.792ZM306.395 196.165C306.518 196.165 306.667 196.091 306.84 195.942C307.038 195.769 307.532 195.336 308.324 194.644L309.177 194.792L309.919 196.573C308.657 198.007 307.569 199.145 306.654 199.986C305.764 200.826 304.96 201.432 304.243 201.803C303.526 202.149 302.821 202.323 302.129 202.323C300.496 202.323 299.68 201.494 299.68 199.837C300.051 197.636 300.36 195.769 300.608 194.236C300.855 192.702 301.04 191.503 301.164 190.637C301.288 189.747 301.35 189.215 301.35 189.042C301.35 188.622 301.251 188.313 301.053 188.115C300.855 187.917 300.546 187.818 300.125 187.818H299.087L299.532 184.776C300.15 184.776 300.904 184.764 301.795 184.739C302.71 184.69 303.687 184.628 304.725 184.554C305.764 184.48 306.79 184.405 307.804 184.331L308.398 185.073C308.126 186.112 307.854 187.286 307.582 188.597C307.31 189.883 307.05 191.181 306.803 192.492C306.58 193.778 306.395 194.965 306.246 196.053L306.395 196.165ZM304.8 182.476C303.81 182.476 303.044 182.217 302.5 181.697C301.98 181.178 301.721 180.448 301.721 179.509C301.721 178.173 302.104 177.11 302.871 176.318C303.662 175.502 304.701 175.094 305.987 175.094C306.976 175.094 307.73 175.366 308.249 175.91C308.769 176.43 309.028 177.159 309.028 178.099C309.028 179.41 308.633 180.473 307.841 181.289C307.075 182.081 306.061 182.476 304.8 182.476ZM314.693 202.323L314.026 201.581C313.927 200.146 313.791 198.638 313.618 197.055C313.444 195.448 313.259 193.927 313.061 192.492C312.888 191.033 312.703 189.809 312.505 188.82C312.431 188.399 312.319 188.115 312.171 187.967C312.022 187.793 311.812 187.707 311.54 187.707C311.392 187.707 311.219 187.707 311.021 187.707C310.848 187.707 310.687 187.719 310.539 187.744C310.415 187.744 310.353 187.744 310.353 187.744L310.576 184.813C311.367 184.739 312.208 184.665 313.098 184.591C313.989 184.517 314.817 184.455 315.584 184.405C316.375 184.331 317.018 184.282 317.513 184.257C318.032 184.232 318.292 184.22 318.292 184.22L318.7 184.554C318.848 186.112 318.959 187.967 319.034 190.118C319.132 192.245 319.182 194.372 319.182 196.499H319.813C320.579 194.57 321.136 193.036 321.482 191.899C321.828 190.761 322.001 189.883 322.001 189.265C322.001 188.869 321.927 188.511 321.779 188.189C321.63 187.868 321.408 187.583 321.111 187.336C320.839 187.064 320.493 186.854 320.072 186.705L320.48 184.925L327.454 183.923C327.776 184.294 328.023 184.801 328.196 185.444C328.369 186.087 328.456 186.804 328.456 187.596C328.456 189.005 327.862 190.86 326.675 193.16C325.513 195.435 323.658 198.341 321.111 201.877L314.693 202.323ZM345.21 196.165C345.309 196.165 345.433 196.115 345.581 196.016C345.755 195.893 345.965 195.72 346.212 195.497C346.484 195.274 346.793 194.99 347.139 194.644L347.993 194.792L348.735 196.573C347.374 198.081 346.237 199.256 345.322 200.097C344.431 200.913 343.64 201.494 342.948 201.84C342.28 202.162 341.587 202.323 340.87 202.323C340.252 202.323 339.782 202.174 339.461 201.877C339.139 201.581 338.978 201.136 338.978 200.542C338.978 200.27 339.053 199.8 339.201 199.132C339.349 198.44 339.584 197.401 339.906 196.016H339.535C338.521 197.747 337.631 199.095 336.864 200.06C336.122 201.024 335.368 201.779 334.601 202.323C332.845 202.323 331.473 201.816 330.483 200.802C329.494 199.763 329 198.329 329 196.499C329 195.039 329.272 193.593 329.816 192.158C330.36 190.724 331.089 189.426 332.004 188.263C332.919 187.076 333.933 186.136 335.046 185.444C336.159 184.727 337.284 184.368 338.422 184.368L341.093 185.11L341.278 184.368L341.983 183.923L346.954 184.368L347.251 185.221C346.929 186.656 346.62 188.053 346.323 189.413C346.051 190.749 345.804 191.985 345.581 193.123C345.384 194.236 345.21 195.213 345.062 196.053L345.21 196.165ZM336.307 196.573C336.505 196.573 336.765 196.363 337.086 195.942C337.408 195.522 337.742 194.953 338.088 194.236C338.459 193.519 338.818 192.727 339.164 191.862C339.51 190.996 339.807 190.118 340.054 189.228C339.56 188.906 339.077 188.671 338.607 188.523C338.138 188.35 337.705 188.263 337.309 188.263C337.086 188.263 336.852 188.572 336.604 189.191C336.382 189.784 336.184 190.526 336.011 191.416C335.862 192.307 335.788 193.209 335.788 194.124C335.788 194.817 335.838 195.398 335.937 195.868C336.035 196.338 336.159 196.573 336.307 196.573ZM360.617 194.792L361.396 196.647C360.605 197.785 359.826 198.786 359.059 199.652C358.292 200.493 357.6 201.148 356.982 201.618C356.388 202.088 355.906 202.323 355.535 202.323C353.804 202.323 352.505 201.89 351.64 201.024C350.799 200.134 350.465 198.897 350.638 197.315L352.27 188.115L351.937 187.818H349.933L349.822 187.633L350.119 185.184L352.79 184.776C352.889 184.133 352.975 183.503 353.05 182.884C353.124 182.241 353.186 181.71 353.235 181.289C353.284 180.869 353.309 180.659 353.309 180.659L359.541 179.36L360.061 179.805C360.061 179.805 359.999 180.053 359.875 180.547C359.751 181.017 359.603 181.636 359.43 182.402C359.257 183.144 359.084 183.935 358.911 184.776H362.435L362.694 185.036L362.249 187.818L358.762 187.781L358.28 188.078L356.982 195.2C356.907 195.942 357.13 196.313 357.649 196.313C357.897 196.313 358.181 196.189 358.503 195.942C358.824 195.695 359.257 195.262 359.801 194.644L360.617 194.792ZM377.766 188.115C377.766 189.253 377.457 190.242 376.839 191.083C376.22 191.923 375.231 192.69 373.871 193.383C372.536 194.05 370.755 194.718 368.529 195.386C368.628 195.979 368.838 196.437 369.16 196.758C369.506 197.055 369.976 197.203 370.569 197.203C371.212 197.203 371.806 196.993 372.35 196.573C372.894 196.152 373.426 195.485 373.945 194.57L374.761 194.681L376.69 196.832C376.27 197.846 375.614 198.774 374.724 199.615C373.834 200.455 372.82 201.123 371.682 201.618C370.569 202.088 369.432 202.323 368.27 202.323C366.439 202.323 364.968 201.704 363.855 200.468C362.742 199.207 362.186 197.537 362.186 195.46C362.186 193.877 362.458 192.393 363.002 191.008C363.546 189.623 364.3 188.399 365.265 187.336C366.229 186.272 367.342 185.444 368.603 184.85C369.865 184.257 371.212 183.96 372.647 183.96C374.23 183.96 375.478 184.331 376.393 185.073C377.309 185.815 377.766 186.829 377.766 188.115ZM371.274 188.412C370.829 188.412 370.433 188.56 370.087 188.857C369.741 189.154 369.444 189.599 369.197 190.192C368.95 190.761 368.764 191.478 368.64 192.344C369.803 191.899 370.681 191.416 371.274 190.897C371.893 190.353 372.202 189.809 372.202 189.265C372.202 188.696 371.893 188.412 371.274 188.412ZM397.496 185.963C397.496 186.507 397.397 186.965 397.199 187.336C397.001 187.682 396.902 187.855 396.902 187.855L397.051 187.929C399.771 186.099 401.861 184.257 403.32 182.402C404.804 180.547 405.682 178.631 405.954 176.652L406.214 176.43H406.955C406.955 176.43 406.993 176.566 407.067 176.838C407.166 177.085 407.277 177.407 407.401 177.802C407.524 178.173 407.623 178.557 407.697 178.952C407.796 179.323 407.846 179.645 407.846 179.917C407.846 180.115 407.722 180.399 407.475 180.77C407.252 181.141 406.993 181.512 406.696 181.883C406.399 182.229 406.152 182.501 405.954 182.699C405.212 183.565 404.371 184.418 403.431 185.259C402.516 186.075 401.403 186.953 400.093 187.892C398.782 188.807 397.187 189.834 395.307 190.971C393.453 192.084 391.214 193.37 388.593 194.829C389.013 196.412 389.842 197.673 391.078 198.613C392.315 199.528 393.873 199.986 395.753 199.986C398.102 199.986 400.056 199.256 401.614 197.797C403.196 196.313 404.186 194.273 404.581 191.676L406.844 192.158C406.374 194.087 405.521 195.831 404.285 197.389C403.048 198.922 401.589 200.134 399.907 201.024C398.226 201.915 396.457 202.36 394.603 202.36C392.847 202.36 391.326 201.989 390.04 201.247C388.754 200.505 387.765 199.454 387.072 198.094C386.38 196.733 386.033 195.138 386.033 193.308C386.033 191.899 386.256 190.588 386.701 189.376C387.171 188.14 387.789 187.052 388.556 186.112C389.347 185.172 390.225 184.442 391.19 183.923C392.179 183.379 393.193 183.107 394.232 183.107C395.27 183.107 396.074 183.367 396.643 183.886C397.212 184.381 397.496 185.073 397.496 185.963ZM388.445 192.158C388.445 192.331 388.445 192.529 388.445 192.752C388.445 192.95 388.445 193.123 388.445 193.271C390.102 192.282 391.363 191.454 392.228 190.786C393.119 190.118 393.725 189.512 394.046 188.968C394.392 188.424 394.565 187.831 394.565 187.188C394.565 186.668 394.417 186.272 394.12 186C393.848 185.704 393.465 185.555 392.97 185.555C392.179 185.555 391.437 185.84 390.745 186.409C390.052 186.977 389.496 187.756 389.075 188.746C388.655 189.735 388.445 190.872 388.445 192.158ZM402.244 192.01C402.046 192.01 401.787 192.134 401.465 192.381C401.144 192.604 400.822 192.876 400.501 193.197C400.179 193.494 399.907 193.766 399.685 194.013C399.462 194.236 399.351 194.347 399.351 194.347H399.128L398.164 193.531V193.345L401.651 189.636L402.244 189.413C402.64 189.413 403.184 189.463 403.876 189.562C404.569 189.661 405.311 189.784 406.102 189.933C406.894 190.081 407.636 190.205 408.328 190.304C409.045 190.402 409.614 190.452 410.034 190.452C410.183 190.452 410.405 190.341 410.702 190.118C410.999 189.871 411.308 189.586 411.63 189.265C411.976 188.943 412.26 188.671 412.483 188.449C412.705 188.201 412.817 188.078 412.817 188.078H413.113L413.967 188.894V189.117L410.591 192.826L409.923 193.086L402.244 192.01ZM434.468 196.165C434.542 196.165 434.604 196.152 434.653 196.128C434.703 196.103 434.851 195.992 435.098 195.794C435.346 195.571 435.778 195.188 436.397 194.644L437.25 194.792L437.992 196.573C436.632 198.081 435.494 199.256 434.579 200.097C433.689 200.913 432.897 201.494 432.205 201.84C431.537 202.162 430.845 202.323 430.128 202.323C428.866 202.323 428.236 201.729 428.236 200.542C428.236 200.443 428.236 200.332 428.236 200.208C428.26 200.06 428.285 199.874 428.31 199.652C428.359 199.429 428.421 199.169 428.495 198.873C428.57 198.551 428.656 198.156 428.755 197.686C428.879 197.216 429.015 196.659 429.163 196.016H428.792C427.828 197.698 426.962 199.033 426.195 200.023C425.429 200.987 424.65 201.754 423.858 202.323C422.102 202.323 420.73 201.816 419.741 200.802C418.752 199.763 418.257 198.329 418.257 196.499C418.257 195.039 418.529 193.593 419.073 192.158C419.617 190.724 420.347 189.426 421.262 188.263C422.177 187.076 423.191 186.136 424.304 185.444C425.416 184.727 426.542 184.368 427.679 184.368L430.165 185.073L430.981 179.435C431.055 178.841 430.993 178.433 430.795 178.21C430.622 177.963 430.288 177.839 429.794 177.839H428.755L429.2 174.798C430.041 174.798 430.944 174.773 431.908 174.723C432.897 174.674 433.825 174.624 434.69 174.575C435.556 174.526 436.261 174.476 436.805 174.427C437.349 174.377 437.621 174.352 437.621 174.352L438.214 175.094C438.214 175.094 438.14 175.453 437.992 176.17C437.868 176.863 437.695 177.815 437.472 179.026C437.25 180.214 437.003 181.549 436.731 183.033C436.459 184.517 436.174 186.05 435.877 187.633C435.581 189.191 435.296 190.699 435.024 192.158C434.752 193.617 434.517 194.916 434.319 196.053L434.468 196.165ZM425.565 196.573C425.837 196.573 426.195 196.214 426.641 195.497C427.11 194.755 427.58 193.828 428.05 192.715C428.545 191.577 428.965 190.415 429.311 189.228C429.311 189.228 429.175 189.154 428.903 189.005C428.631 188.832 428.285 188.671 427.865 188.523C427.444 188.35 427.011 188.263 426.566 188.263C426.344 188.263 426.109 188.572 425.862 189.191C425.639 189.784 425.441 190.539 425.268 191.454C425.12 192.344 425.045 193.246 425.045 194.162C425.045 194.879 425.095 195.46 425.194 195.905C425.293 196.35 425.416 196.573 425.565 196.573ZM454.399 188.115C454.399 189.253 454.09 190.242 453.472 191.083C452.854 191.923 451.864 192.69 450.504 193.383C449.169 194.05 447.388 194.718 445.162 195.386C445.261 195.979 445.471 196.437 445.793 196.758C446.139 197.055 446.609 197.203 447.203 197.203C447.846 197.203 448.439 196.993 448.983 196.573C449.527 196.152 450.059 195.485 450.578 194.57L451.394 194.681L453.323 196.832C452.903 197.846 452.248 198.774 451.357 199.615C450.467 200.455 449.453 201.123 448.315 201.618C447.203 202.088 446.065 202.323 444.903 202.323C443.073 202.323 441.601 201.704 440.488 200.468C439.375 199.207 438.819 197.537 438.819 195.46C438.819 193.877 439.091 192.393 439.635 191.008C440.179 189.623 440.933 188.399 441.898 187.336C442.862 186.272 443.975 185.444 445.237 184.85C446.498 184.257 447.846 183.96 449.28 183.96C450.863 183.96 452.112 184.331 453.027 185.073C453.942 185.815 454.399 186.829 454.399 188.115ZM447.907 188.412C447.462 188.412 447.067 188.56 446.72 188.857C446.374 189.154 446.077 189.599 445.83 190.192C445.583 190.761 445.397 191.478 445.274 192.344C446.436 191.899 447.314 191.416 447.907 190.897C448.526 190.353 448.835 189.809 448.835 189.265C448.835 188.696 448.526 188.412 447.907 188.412ZM462.113 196.165C462.237 196.165 462.385 196.091 462.558 195.942C462.756 195.769 463.251 195.336 464.042 194.644L464.895 194.792L465.637 196.573C464.326 198.057 463.214 199.219 462.299 200.06C461.408 200.901 460.617 201.494 459.924 201.84C459.232 202.162 458.54 202.323 457.847 202.323C456.215 202.323 455.399 201.494 455.399 199.837C455.399 199.664 455.461 199.169 455.584 198.353C455.708 197.537 455.856 196.536 456.029 195.349C456.227 194.137 456.437 192.838 456.66 191.454C456.907 190.044 457.142 188.647 457.365 187.262C457.612 185.852 457.822 184.554 457.995 183.367C458.193 182.18 458.354 181.203 458.478 180.436C458.601 179.669 458.663 179.212 458.663 179.064C458.663 178.247 458.255 177.839 457.439 177.839H456.4L456.845 174.798C457.686 174.798 458.589 174.773 459.553 174.723C460.543 174.674 461.47 174.624 462.336 174.575C463.201 174.526 463.906 174.476 464.45 174.427C464.994 174.377 465.266 174.352 465.266 174.352L465.86 175.094C465.86 175.094 465.786 175.478 465.637 176.244C465.489 176.986 465.279 178 465.007 179.286C464.759 180.547 464.487 181.945 464.19 183.478C463.894 185.011 463.597 186.569 463.3 188.152C463.028 189.71 462.768 191.181 462.521 192.566C462.274 193.951 462.088 195.114 461.965 196.053L462.113 196.165ZM474.133 196.165C474.256 196.165 474.405 196.091 474.578 195.942C474.776 195.769 475.27 195.336 476.062 194.644L476.915 194.792L477.657 196.573C476.396 198.007 475.307 199.145 474.392 199.986C473.502 200.826 472.698 201.432 471.981 201.803C471.264 202.149 470.559 202.323 469.867 202.323C468.234 202.323 467.418 201.494 467.418 199.837C467.789 197.636 468.098 195.769 468.346 194.236C468.593 192.702 468.779 191.503 468.902 190.637C469.026 189.747 469.088 189.215 469.088 189.042C469.088 188.622 468.989 188.313 468.791 188.115C468.593 187.917 468.284 187.818 467.863 187.818H466.825L467.27 184.776C467.888 184.776 468.643 184.764 469.533 184.739C470.448 184.69 471.425 184.628 472.463 184.554C473.502 184.48 474.528 184.405 475.542 184.331L476.136 185.073C475.864 186.112 475.592 187.286 475.32 188.597C475.048 189.883 474.788 191.181 474.541 192.492C474.318 193.778 474.133 194.965 473.984 196.053L474.133 196.165ZM472.538 182.476C471.548 182.476 470.782 182.217 470.238 181.697C469.718 181.178 469.459 180.448 469.459 179.509C469.459 178.173 469.842 177.11 470.609 176.318C471.4 175.502 472.439 175.094 473.725 175.094C474.714 175.094 475.468 175.366 475.987 175.91C476.507 176.43 476.766 177.159 476.766 178.099C476.766 179.41 476.371 180.473 475.579 181.289C474.813 182.081 473.799 182.476 472.538 182.476ZM482.617 210.855C481.108 210.855 479.785 210.62 478.648 210.15C477.51 209.705 476.657 209.062 476.088 208.221C475.494 207.405 475.26 206.465 475.383 205.402L475.532 204.919C475.927 204.697 476.471 204.412 477.164 204.066C477.832 203.745 478.536 203.398 479.278 203.027C480.045 202.656 480.737 202.335 481.356 202.063L481.393 201.803C480.502 201.408 479.81 200.752 479.315 199.837C478.845 198.922 478.611 197.822 478.611 196.536C478.611 195.077 478.883 193.63 479.427 192.195C479.971 190.736 480.7 189.413 481.615 188.226C482.53 187.039 483.544 186.099 484.657 185.407C485.77 184.69 486.895 184.331 488.033 184.331L490.704 185.11L490.889 184.331L491.631 183.923L496.565 184.331L497.121 185.37C496.923 185.864 496.713 186.483 496.491 187.225C496.268 187.967 496.083 188.721 495.934 189.487C495.786 190.229 495.675 190.885 495.6 191.454C495.576 191.75 495.526 192.27 495.452 193.012C495.403 193.753 495.341 194.607 495.267 195.571C495.217 196.511 495.155 197.438 495.081 198.353C495.007 199.244 494.933 199.986 494.858 200.579C494.76 201.395 494.413 202.273 493.82 203.213C493.251 204.153 492.521 205.068 491.631 205.958C490.741 206.848 489.764 207.664 488.701 208.406C487.662 209.148 486.611 209.742 485.547 210.187C484.484 210.632 483.507 210.855 482.617 210.855ZM484.731 206.218C485.993 206.218 487.007 205.847 487.773 205.105C488.565 204.363 489.047 203.287 489.22 201.877L489.999 195.423L489.628 195.311C488.589 196.919 487.748 198.18 487.105 199.095C486.487 199.986 485.968 200.653 485.547 201.098C485.152 201.544 484.756 201.902 484.36 202.174C483.94 202.446 483.495 202.755 483.025 203.102C482.555 203.448 482.159 203.757 481.838 204.029C481.516 204.301 481.356 204.474 481.356 204.548C481.356 204.845 481.504 205.117 481.801 205.364C482.098 205.636 482.506 205.847 483.025 205.995C483.544 206.143 484.113 206.218 484.731 206.218ZM485.956 196.573C486.228 196.573 486.586 196.214 487.031 195.497C487.501 194.755 487.971 193.815 488.441 192.678C488.936 191.54 489.344 190.378 489.665 189.191C489.665 189.191 489.529 189.117 489.257 188.968C488.985 188.795 488.639 188.634 488.218 188.486C487.823 188.337 487.402 188.263 486.957 188.263C486.71 188.263 486.462 188.56 486.215 189.154C485.968 189.747 485.758 190.489 485.585 191.379C485.436 192.27 485.362 193.185 485.362 194.124C485.362 194.866 485.411 195.46 485.51 195.905C485.634 196.35 485.782 196.573 485.956 196.573ZM513.814 196.053C513.888 196.053 513.974 196.029 514.073 195.979C514.172 195.905 514.345 195.757 514.593 195.534C514.865 195.311 515.248 194.978 515.743 194.532L516.633 194.681L517.338 196.461C516.052 197.921 514.951 199.071 514.036 199.911C513.146 200.752 512.342 201.346 511.625 201.692C510.932 202.038 510.24 202.211 509.548 202.211C507.915 202.211 507.099 201.482 507.099 200.023C507.099 199.701 507.173 199.244 507.322 198.65C507.47 198.032 507.656 197.352 507.878 196.61C508.126 195.868 508.36 195.126 508.583 194.384C508.806 193.642 508.991 192.974 509.139 192.381C509.288 191.787 509.362 191.355 509.362 191.083C509.362 190.736 509.3 190.477 509.177 190.304C509.078 190.13 508.917 190.044 508.694 190.044C508.422 190.044 508.064 190.39 507.619 191.083C507.173 191.75 506.679 192.69 506.135 193.902C505.591 195.089 505.047 196.461 504.503 198.019L504.243 200.208C504.193 200.554 503.909 200.876 503.39 201.173C502.87 201.469 502.203 201.704 501.386 201.877C500.57 202.051 499.692 202.137 498.753 202.137L498.011 201.284C498.011 201.284 498.06 200.938 498.159 200.245C498.283 199.553 498.431 198.638 498.604 197.5C498.802 196.338 499.012 195.052 499.235 193.642C499.457 192.208 499.68 190.761 499.903 189.302C500.15 187.818 500.373 186.409 500.57 185.073C500.793 183.738 500.978 182.575 501.127 181.586C501.3 180.572 501.424 179.855 501.498 179.435C501.572 178.841 501.51 178.433 501.312 178.21C501.139 177.963 500.805 177.839 500.311 177.839H499.272L499.717 174.798C500.558 174.798 501.461 174.773 502.425 174.723C503.39 174.674 504.305 174.624 505.17 174.575C506.061 174.526 506.778 174.476 507.322 174.427C507.891 174.377 508.175 174.352 508.175 174.352L508.731 175.131C508.731 175.131 508.657 175.453 508.509 176.096C508.385 176.714 508.212 177.567 507.99 178.655C507.767 179.744 507.52 180.968 507.248 182.328C507 183.663 506.741 185.048 506.469 186.483C506.197 187.917 505.949 189.314 505.727 190.675L505.986 190.637C506.778 188.832 507.532 187.373 508.249 186.26C508.991 185.123 509.696 184.331 510.364 183.886C512.095 183.886 513.443 184.245 514.407 184.962C515.396 185.654 515.891 186.619 515.891 187.855C515.891 188.226 515.792 188.783 515.594 189.525C515.396 190.266 515.161 191.058 514.889 191.899C514.642 192.74 514.395 193.531 514.147 194.273C513.925 194.99 513.776 195.546 513.702 195.942L513.814 196.053ZM529.261 194.792L530.04 196.647C529.248 197.785 528.469 198.786 527.703 199.652C526.936 200.493 526.244 201.148 525.625 201.618C525.032 202.088 524.55 202.323 524.179 202.323C522.447 202.323 521.149 201.89 520.284 201.024C519.443 200.134 519.109 198.897 519.282 197.315L520.914 188.115L520.58 187.818H518.577L518.466 187.633L518.763 185.184L521.434 184.776C521.532 184.133 521.619 183.503 521.693 182.884C521.767 182.241 521.829 181.71 521.879 181.289C521.928 180.869 521.953 180.659 521.953 180.659L528.185 179.36L528.704 179.805C528.704 179.805 528.642 180.053 528.519 180.547C528.395 181.017 528.247 181.636 528.074 182.402C527.901 183.144 527.727 183.935 527.554 184.776H531.078L531.338 185.036L530.893 187.818L527.406 187.781L526.924 188.078L525.625 195.2C525.551 195.942 525.774 196.313 526.293 196.313C526.54 196.313 526.825 196.189 527.146 195.942C527.468 195.695 527.901 195.262 528.445 194.644L529.261 194.792ZM533.677 202.211C532.688 202.211 531.934 201.952 531.414 201.432C530.895 200.913 530.635 200.183 530.635 199.244C530.635 197.908 531.019 196.845 531.785 196.053C532.577 195.237 533.615 194.829 534.901 194.829C535.866 194.829 536.608 195.101 537.127 195.645C537.646 196.165 537.906 196.894 537.906 197.834C537.906 199.145 537.51 200.208 536.719 201.024C535.952 201.816 534.938 202.211 533.677 202.211Z" fill="#0A0A0A"/>
</svg>
