<svg width="521" height="225" viewBox="0 0 521 225" fill="none" xmlns="http://www.w3.org/2000/svg">
<path d="M481.783 166.786C481.783 164.435 482.371 162.285 483.546 160.336C484.693 158.358 486.255 156.795 488.233 155.649C490.183 154.473 492.333 153.886 494.683 153.886H498.381C500.732 153.886 502.896 154.473 504.874 155.649C506.824 156.795 508.386 158.358 509.561 160.336C510.708 162.285 511.281 164.435 511.281 166.786V180.073H481.783L481.783 166.786ZM504.444 170.957V167.646C504.444 166.442 504.029 165.424 503.197 164.593C502.366 163.761 501.348 163.346 500.144 163.346H492.791C491.587 163.346 490.57 163.761 489.738 164.593C488.907 165.424 488.491 166.442 488.491 167.646V170.957H504.444Z" fill="#0A0A0A"/>
<path d="M488.878 139.898C488.878 137.691 489.308 135.799 490.168 134.222C491 132.617 492.161 131.398 493.651 130.567C495.142 129.707 496.848 129.277 498.768 129.277H501.434V143.596H503.498C504.473 143.596 505.218 143.295 505.734 142.693C506.25 142.062 506.508 141.26 506.508 140.285C506.508 139.282 506.207 138.522 505.605 138.006C504.975 137.461 504.115 137.189 503.025 137.189V129.32C504.659 129.32 506.136 129.75 507.454 130.61C508.773 131.441 509.819 132.674 510.593 134.308C511.339 135.913 511.711 137.82 511.711 140.027V140.672C511.711 142.965 511.296 145.029 510.464 146.864C509.604 148.67 508.372 150.103 506.766 151.164C505.132 152.196 503.197 152.712 500.961 152.712H499.628C497.392 152.712 495.472 152.225 493.866 151.25C492.232 150.247 491 148.856 490.168 147.079C489.308 145.302 488.878 143.266 488.878 140.973V139.898ZM494.081 140.629C494.081 141.46 494.382 142.163 494.984 142.736C495.558 143.309 496.26 143.596 497.091 143.596H497.693V137.662H497.091C496.26 137.662 495.558 137.949 494.984 138.522C494.382 139.095 494.081 139.798 494.081 140.629Z" fill="#0A0A0A"/>
<path d="M488.878 116.266C488.878 114.89 489.108 113.485 489.566 112.052C489.996 110.59 490.656 109.372 491.544 108.397C492.433 107.422 493.508 106.935 494.769 106.935C495.027 106.935 495.271 106.949 495.5 106.978C495.701 107.007 495.83 107.021 495.887 107.021V114.073C495.199 114.073 494.712 114.388 494.425 115.019C494.11 115.621 493.952 116.309 493.952 117.083C493.952 119.204 494.368 120.265 495.199 120.265C495.715 120.265 496.074 119.95 496.274 119.319C496.446 118.66 496.618 117.585 496.79 116.094C497.02 114.145 497.306 112.539 497.65 111.278C497.994 109.988 498.668 108.87 499.671 107.924C500.646 106.949 502.079 106.462 503.971 106.462C506.666 106.462 508.63 107.451 509.862 109.429C511.095 111.378 511.711 113.786 511.711 116.653V118.889C511.711 120.494 511.468 122.028 510.98 123.49C510.464 124.923 509.69 126.099 508.658 127.016C507.626 127.933 506.365 128.392 504.874 128.392H504.487C504.315 128.392 504.186 128.378 504.1 128.349V121.383H504.272C505.104 121.383 505.691 121.01 506.035 120.265C506.351 119.52 506.508 118.66 506.508 117.685C506.508 116.825 506.422 116.008 506.25 115.234C506.078 114.431 505.72 114.03 505.175 114.03C504.631 114.03 504.258 114.36 504.057 115.019C503.828 115.678 503.599 116.768 503.369 118.287C503.14 120.122 502.839 121.684 502.466 122.974C502.094 124.264 501.42 125.382 500.445 126.328C499.442 127.245 498.052 127.704 496.274 127.704C494.612 127.704 493.236 127.202 492.146 126.199C491.028 125.167 490.211 123.877 489.695 122.329C489.151 120.781 488.878 119.204 488.878 117.599V116.266Z" fill="#0A0A0A"/>
<path d="M486.47 95.9874V104.458H480.321L480.321 95.9874H486.47ZM511.281 95.9874V104.458H489.351V95.9874H511.281Z" fill="#0A0A0A"/>
<path d="M485.352 69.8057C487.015 69.8057 488.291 70.2071 489.179 71.0097C490.068 71.7837 490.727 72.9591 491.157 74.5357C491.759 73.7617 492.462 73.1741 493.264 72.7727C494.067 72.3427 494.898 72.1277 495.758 72.1277C497.02 72.1277 498.181 72.5147 499.241 73.2887C500.302 74.0627 501.148 75.1091 501.778 76.4277C502.38 77.7464 502.681 79.1797 502.681 80.7277V83.6947C502.681 84.5261 502.81 85.1424 503.068 85.5437C503.298 85.9451 503.599 86.1457 503.971 86.1457C504.401 86.1457 504.731 85.9737 504.96 85.6297C505.19 85.2857 505.304 84.6407 505.304 83.6947V76.6857C505.304 74.3924 505.921 72.6724 507.153 71.5257C508.357 70.3791 509.977 69.8057 512.012 69.8057C513.302 69.8057 514.506 70.2071 515.624 71.0097C516.771 71.7837 517.674 72.8301 518.333 74.1488C519.021 75.4674 519.365 76.8864 519.365 78.4057V89.8008C519.365 91.2054 518.864 92.4237 517.86 93.4557C516.857 94.4591 515.639 94.9607 514.205 94.9607H513.99C512.987 94.9607 512.07 94.6454 511.238 94.0147C510.378 93.3841 509.733 92.6101 509.303 91.6927C508.873 92.3234 508.329 92.8251 507.669 93.1977C507.01 93.5704 506.308 93.7567 505.562 93.7567C504.502 93.7567 503.541 93.3841 502.681 92.6387C501.821 91.8647 501.248 90.9188 500.961 89.8008C500.302 90.8041 499.528 91.6067 498.639 92.2087C497.751 92.8107 496.805 93.1117 495.801 93.1117C493.766 93.1117 492.103 92.2661 490.813 90.5747C489.523 88.8834 488.878 86.4324 488.878 83.2217V82.0177C488.878 80.9857 488.964 80.0397 489.136 79.1797C488.42 78.0904 487.732 77.3164 487.072 76.8577C486.384 76.3991 485.811 76.1697 485.352 76.1697V69.8057ZM493.092 82.4477C493.092 83.1931 493.365 83.8237 493.909 84.3397C494.425 84.8271 495.056 85.0707 495.801 85.0707C496.547 85.0707 497.192 84.8271 497.736 84.3397C498.252 83.8237 498.51 83.1931 498.51 82.4477C498.51 81.7024 498.252 81.0861 497.736 80.5987C497.192 80.0827 496.547 79.8247 495.801 79.8247C495.056 79.8247 494.425 80.0827 493.909 80.5987C493.365 81.0861 493.092 81.7024 493.092 82.4477ZM511.281 85.7588C511.281 86.3608 511.453 86.8767 511.797 87.3067C512.141 87.7081 512.557 87.9087 513.044 87.9087C513.532 87.9087 513.947 87.7081 514.291 87.3067C514.664 86.8767 514.85 86.3608 514.85 85.7588V79.6097C514.85 79.0077 514.678 78.5061 514.334 78.1047C513.99 77.6747 513.575 77.4597 513.087 77.4597C512.6 77.4597 512.17 77.6747 511.797 78.1047C511.453 78.5061 511.281 79.0077 511.281 79.6097V85.7588Z" fill="#0A0A0A"/>
<path d="M488.878 53.7735C488.878 52.5981 489.165 51.5231 489.738 50.5485C490.312 49.5451 491.1 48.7568 492.103 48.1835C493.078 47.6101 494.153 47.3235 495.328 47.3235H511.281V55.8375H497.521C496.805 55.8375 496.203 56.0668 495.715 56.5255C495.199 56.9555 494.941 57.4858 494.941 58.1165C494.941 58.7471 495.199 59.2918 495.715 59.7505C496.203 60.1805 496.805 60.3955 497.521 60.3955H511.281V68.9095H489.308V62.5025L492.49 61.6425C490.082 60.0658 488.878 57.8441 488.878 54.9775L488.878 53.7735Z" fill="#0A0A0A"/>
<path d="M488.878 32.6333C488.878 30.4259 489.308 28.5339 490.168 26.9573C491 25.3519 492.161 24.1336 493.651 23.3023C495.142 22.4423 496.848 22.0123 498.768 22.0123H501.434V36.3313H503.498C504.473 36.3313 505.218 36.0303 505.734 35.4283C506.25 34.7976 506.508 33.9949 506.508 33.0203C506.508 32.0169 506.207 31.2573 505.605 30.7413C504.975 30.1966 504.115 29.9243 503.025 29.9243V22.0553C504.659 22.0553 506.136 22.4853 507.454 23.3453C508.773 24.1766 509.819 25.4093 510.593 27.0433C511.339 28.6486 511.711 30.5549 511.711 32.7623V33.4073C511.711 35.7006 511.296 37.7646 510.464 39.5993C509.604 41.4053 508.372 42.8386 506.766 43.8993C505.132 44.9313 503.197 45.4473 500.961 45.4473H499.628C497.392 45.4473 495.472 44.9599 493.866 43.9853C492.232 42.9819 491 41.5916 490.168 39.8143C489.308 38.0369 488.878 36.0016 488.878 33.7083V32.6333ZM494.081 33.3643C494.081 34.1956 494.382 34.8979 494.984 35.4713C495.558 36.0446 496.26 36.3313 497.091 36.3313H497.693V30.3973H497.091C496.26 30.3973 495.558 30.6839 494.984 31.2573C494.382 31.8306 494.081 32.5329 494.081 33.3643Z" fill="#0A0A0A"/>
<path d="M488.878 6.80805C488.878 4.91605 489.409 3.45405 490.469 2.42205C491.501 1.36139 492.935 0.831055 494.769 0.831055L495.5 0.831055L497.134 0.917055L498.209 1.00306V7.96906H497.177C496.575 7.96906 496.074 8.15539 495.672 8.52805C495.242 8.87205 495.027 9.28772 495.027 9.77505C495.027 10.2911 495.242 10.7354 495.672 11.1081C496.074 11.4521 496.575 11.6241 497.177 11.6241H511.281V19.9231H489.308V13.5591L492.49 12.6131C492.146 12.4411 491.688 12.1114 491.114 11.6241C490.541 11.1367 490.025 10.4774 489.566 9.64606C489.108 8.81472 488.878 7.86872 488.878 6.80805Z" fill="#0A0A0A"/>
<path d="M280.853 123.114V2.23756H293.479V122.592C293.479 137.524 297.7 149.464 306.21 158.329L306.215 158.335L306.22 158.34C314.916 167.035 326.952 171.342 342.229 171.342C357.511 171.342 369.549 166.946 378.244 158.074L378.249 158.068C386.927 149.036 391.24 137.186 391.24 122.592V2.23756H403.867V123.114C403.867 135.009 401.282 145.404 396.136 154.324L396.131 154.333C391.158 163.25 383.958 170.197 374.51 175.179C365.236 179.987 354.483 182.403 342.229 182.403C329.977 182.403 319.224 179.987 309.951 175.18C300.677 170.199 293.474 163.251 288.325 154.329C283.352 145.408 280.853 135.011 280.853 123.114ZM438.182 13.5594H418.299V2.23756H472.158V13.5594H452.274H451.542V14.2921V167.738V168.471H452.274H472.158V179.793H418.299V168.471H438.182H438.915V167.738V14.2921V13.5594H438.182Z" stroke="#5E38CD" stroke-width="1.46535"/>
<path d="M136.503 124.061C136.503 135.984 133.785 146.504 128.35 155.621C123.09 164.739 115.463 171.84 105.469 176.924C95.6501 181.834 84.2535 184.288 71.2788 184.288H67.8598C54.8852 184.288 43.4885 181.834 33.6699 176.924C24.0266 172.015 16.4872 165.002 11.0519 155.884C5.61659 146.767 2.89893 136.159 2.89893 124.061V1.24048H28.6729V123.535C28.6729 134.757 32.5302 143.786 40.2449 150.624C48.1349 157.462 58.1288 160.881 70.2268 160.881C82.6755 160.881 92.4941 157.462 99.6828 150.624C107.047 143.786 110.729 134.757 110.729 123.535V1.24048H136.503V124.061Z" fill="#0A0A0A"/>
<path d="M234.519 86.7154L300.006 181.658H268.972L219.002 109.07L167.718 181.658H139.051L204.8 88.2934L145.1 1.50347H176.133L220.317 65.9384C229.961 52.4377 240.218 37.7974 251.088 22.0174L261.871 6.76348L265.553 1.50347H294.22L234.519 86.7154Z" fill="#0A0A0A"/>
<path d="M8.24275 216.414C6.88615 216.414 5.67235 216.284 4.60135 216.022C3.53035 215.76 2.68545 215.51 2.06665 215.272C1.47165 215.01 1.17415 214.879 1.17415 214.879L0.81715 214.237C0.81715 214.237 0.87665 214.046 0.99565 213.666C1.11465 213.285 1.25745 212.797 1.42405 212.202C1.59065 211.583 1.75725 210.94 1.92385 210.274C2.09045 209.584 2.22135 208.941 2.31655 208.346L6.85045 208.025C6.77905 208.763 6.81475 209.405 6.95755 209.953C7.12415 210.5 7.40975 210.929 7.81435 211.238C8.21895 211.524 8.74255 211.666 9.38515 211.666C10.0754 211.666 10.6347 211.524 11.0631 211.238C11.4915 210.929 11.7057 210.536 11.7057 210.06C11.7057 209.441 11.3487 208.929 10.6347 208.525C9.92065 208.096 9.07575 207.656 8.09995 207.204C7.26695 206.799 6.42205 206.335 5.56525 205.812C4.73225 205.288 4.04205 204.633 3.49465 203.848C2.94725 203.039 2.67355 202.027 2.67355 200.814C2.67355 199.124 3.14955 197.66 4.10155 196.422C5.05355 195.161 6.38635 194.185 8.09995 193.495C9.81355 192.805 11.8247 192.46 14.1333 192.46C15.4185 192.46 16.5728 192.543 17.5962 192.71C18.6434 192.876 19.4764 193.043 20.0952 193.209C20.714 193.376 21.0234 193.459 21.0234 193.459L21.3804 194.245C21.3804 194.245 21.2852 194.542 21.0948 195.137C20.9044 195.708 20.6783 196.47 20.4165 197.422C20.1547 198.374 19.9167 199.386 19.7025 200.457L15.4899 200.742L15.0972 200.457C15.0972 200.457 15.1091 200.385 15.1329 200.242C15.1567 200.1 15.1686 199.945 15.1686 199.778C15.1924 199.612 15.2043 199.505 15.2043 199.457C15.2043 198.767 15.002 198.255 14.5974 197.922C14.2166 197.565 13.6811 197.386 12.9909 197.386C12.3245 197.386 11.7771 197.553 11.3487 197.886C10.9441 198.219 10.7418 198.636 10.7418 199.136C10.7418 199.635 10.9679 200.064 11.4201 200.421C11.8961 200.778 12.4792 201.123 13.1694 201.456C13.8358 201.766 14.5498 202.111 15.3114 202.491C16.0968 202.848 16.8227 203.277 17.4891 203.777C18.1793 204.276 18.7386 204.895 19.167 205.633C19.5954 206.347 19.8096 207.228 19.8096 208.275C19.8096 209.965 19.3455 211.416 18.4173 212.63C17.4891 213.844 16.1563 214.784 14.4189 215.451C12.7053 216.093 10.6466 216.414 8.24275 216.414ZM27.8552 216.414C25.8322 216.414 24.2614 215.808 23.1428 214.594C22.0242 213.38 21.4649 211.654 21.4649 209.417C21.4649 207.799 21.691 206.335 22.1432 205.026C22.5954 203.717 23.238 202.599 24.071 201.67C24.9278 200.718 25.9512 199.992 27.1412 199.493C28.3312 198.969 29.6521 198.707 31.1039 198.707C33.1745 198.707 34.7572 199.29 35.852 200.457C36.9468 201.599 37.4942 203.265 37.4942 205.455C37.4942 207.097 37.2681 208.596 36.8159 209.953C36.3637 211.286 35.7092 212.44 34.8524 213.416C34.0194 214.368 33.0079 215.105 31.8179 215.629C30.6279 216.153 29.307 216.414 27.8552 216.414ZM29.2475 212.595C29.6997 212.595 30.0567 212.428 30.3185 212.095C30.5803 211.762 30.7707 211.167 30.8897 210.31C31.0087 209.453 31.0682 208.263 31.0682 206.74C31.0682 205.407 30.973 204.455 30.7826 203.884C30.5922 203.289 30.2352 202.991 29.7116 202.991C29.2594 202.991 28.8905 203.158 28.6049 203.491C28.3431 203.824 28.1527 204.384 28.0337 205.169C27.9147 205.931 27.8552 206.978 27.8552 208.311C27.8552 209.905 27.9504 211.024 28.1408 211.666C28.355 212.285 28.7239 212.595 29.2475 212.595ZM46.1096 210.488C46.2286 210.488 46.3714 210.417 46.538 210.274C46.7284 210.107 47.2044 209.691 47.966 209.025L48.7871 209.167L49.5011 210.881C48.2397 212.309 47.1687 213.428 46.2881 214.237C45.4313 215.046 44.6697 215.617 44.0033 215.95C43.3369 216.26 42.6705 216.414 42.0041 216.414C40.4333 216.414 39.6479 215.617 39.6479 214.023C39.6479 213.856 39.7074 213.38 39.8264 212.595C39.9454 211.809 40.0882 210.845 40.2548 209.703C40.4452 208.537 40.6475 207.287 40.8617 205.954C41.0997 204.598 41.3258 203.253 41.54 201.92C41.778 200.564 41.9803 199.314 42.1469 198.172C42.3373 197.029 42.492 196.089 42.611 195.351C42.73 194.614 42.7895 194.173 42.7895 194.031C42.7895 193.245 42.3968 192.852 41.6114 192.852H40.6118L41.0402 189.925C41.8494 189.925 42.7181 189.901 43.6463 189.854C44.5983 189.806 45.4908 189.758 46.3238 189.711C47.1568 189.663 47.8351 189.616 48.3587 189.568C48.8823 189.52 49.1441 189.497 49.1441 189.497L49.7153 190.211C49.7153 190.211 49.6439 190.58 49.5011 191.317C49.3583 192.031 49.156 193.007 48.8942 194.245C48.6562 195.459 48.3944 196.803 48.1088 198.279C47.8232 199.754 47.5376 201.254 47.252 202.777C46.9902 204.276 46.7403 205.693 46.5023 207.025C46.2643 208.358 46.0858 209.477 45.9668 210.381L46.1096 210.488ZM56.1775 216.307C54.6067 216.307 53.381 215.974 52.5004 215.308C51.6436 214.618 51.2152 213.677 51.2152 212.487C51.2152 212.13 51.2866 211.654 51.4294 211.059C51.5722 210.441 51.7388 209.786 51.9292 209.096C52.1434 208.382 52.3457 207.68 52.5361 206.99C52.7265 206.276 52.8931 205.621 53.0359 205.026C53.1787 204.431 53.2501 203.967 53.2501 203.634C53.2501 202.848 52.8574 202.456 52.072 202.456H51.0724L51.5008 199.528C52.072 199.528 52.7622 199.516 53.5714 199.493C54.4044 199.445 55.3207 199.386 56.3203 199.314C57.3437 199.243 58.3909 199.171 59.4619 199.1L60.0331 199.814C59.5095 201.623 59.0454 203.229 58.6408 204.633C58.26 206.014 57.9625 207.132 57.7483 207.989C57.5341 208.846 57.427 209.382 57.427 209.596C57.427 209.858 57.4508 210.06 57.4984 210.203C57.5698 210.322 57.7007 210.381 57.8911 210.381C58.1767 210.381 58.5575 210 59.0335 209.239C59.5095 208.477 60.0569 207.359 60.6757 205.883C61.3183 204.407 62.0204 202.599 62.782 200.457L61.3183 209.953L60.4258 209.739C59.688 211.428 58.974 212.821 58.2838 213.915C57.5936 215.01 56.8915 215.808 56.1775 216.307ZM61.4968 216.414C60.283 216.414 59.6761 215.843 59.6761 214.701C59.6761 214.558 59.688 214.391 59.7118 214.201C59.7594 213.987 59.8308 213.666 59.926 213.237C60.0212 212.809 60.164 212.19 60.3544 211.381C60.5448 210.548 60.8066 209.453 61.1398 208.096L61.5325 205.383L62.2822 199.493L62.9962 199.064L68.2441 199.1L68.7796 199.814C68.4702 200.79 68.1489 201.861 67.8157 203.027C67.5063 204.193 67.2207 205.347 66.9589 206.49C66.6971 207.632 66.471 208.679 66.2806 209.631L66.4234 209.774C66.5424 209.703 66.6614 209.631 66.7804 209.56C66.8994 209.489 67.0184 209.405 67.1374 209.31C67.2802 209.215 67.4111 209.12 67.5301 209.025L68.3512 209.167L69.0652 210.881C67.7562 212.333 66.6614 213.463 65.7808 214.272C64.924 215.058 64.1624 215.617 63.496 215.95C62.8534 216.26 62.187 216.414 61.4968 216.414ZM80.8195 209.167L81.5692 210.952C80.8076 212.047 80.0579 213.011 79.3201 213.844C78.5823 214.653 77.9159 215.284 77.3209 215.736C76.7497 216.188 76.2856 216.414 75.9286 216.414C74.2626 216.414 73.0131 215.998 72.1801 215.165C71.3709 214.308 71.0496 213.118 71.2162 211.595L72.787 202.741L72.4657 202.456H70.5379L70.4308 202.277L70.7164 199.921L73.2868 199.528C73.382 198.91 73.4653 198.303 73.5367 197.708C73.6081 197.089 73.6676 196.577 73.7152 196.173C73.7628 195.768 73.7866 195.566 73.7866 195.566L79.7842 194.316L80.284 194.745C80.284 194.745 80.2245 194.983 80.1055 195.459C79.9865 195.911 79.8437 196.506 79.6771 197.244C79.5105 197.958 79.3439 198.719 79.1773 199.528H82.5688L82.8187 199.778L82.3903 202.456L79.0345 202.42L78.5704 202.706L77.3209 209.56C77.2495 210.274 77.4637 210.631 77.9635 210.631C78.2015 210.631 78.4752 210.512 78.7846 210.274C79.094 210.036 79.5105 209.62 80.0341 209.025L80.8195 209.167ZM89.8892 210.488C90.0082 210.488 90.151 210.417 90.3176 210.274C90.508 210.107 90.984 209.691 91.7456 209.025L92.5667 209.167L93.2807 210.881C92.0669 212.261 91.0197 213.356 90.1391 214.165C89.2823 214.975 88.5088 215.558 87.8186 215.915C87.1284 216.248 86.4501 216.414 85.7837 216.414C84.2129 216.414 83.4275 215.617 83.4275 214.023C83.7845 211.904 84.082 210.107 84.32 208.632C84.558 207.156 84.7365 206.002 84.8555 205.169C84.9745 204.312 85.034 203.8 85.034 203.634C85.034 203.229 84.9388 202.932 84.7484 202.741C84.558 202.551 84.2605 202.456 83.8559 202.456H82.8563L83.2847 199.528C83.8797 199.528 84.6056 199.516 85.4624 199.493C86.343 199.445 87.2831 199.386 88.2827 199.314C89.2823 199.243 90.27 199.171 91.2458 199.1L91.817 199.814C91.5552 200.814 91.2934 201.944 91.0316 203.205C90.7698 204.443 90.5199 205.693 90.2819 206.954C90.0677 208.192 89.8892 209.334 89.7464 210.381L89.8892 210.488ZM88.3541 197.315C87.4021 197.315 86.6643 197.065 86.1407 196.565C85.6409 196.065 85.391 195.363 85.391 194.459C85.391 193.174 85.7599 192.15 86.4977 191.389C87.2593 190.603 88.2589 190.211 89.4965 190.211C90.4485 190.211 91.1744 190.472 91.6742 190.996C92.174 191.496 92.4239 192.198 92.4239 193.102C92.4239 194.364 92.0431 195.387 91.2815 196.173C90.5437 196.934 89.5679 197.315 88.3541 197.315ZM100.803 216.414C98.7801 216.414 97.2093 215.808 96.0907 214.594C94.9721 213.38 94.4128 211.654 94.4128 209.417C94.4128 207.799 94.6389 206.335 95.0911 205.026C95.5433 203.717 96.1859 202.599 97.0189 201.67C97.8757 200.718 98.8991 199.992 100.089 199.493C101.279 198.969 102.6 198.707 104.052 198.707C106.122 198.707 107.705 199.29 108.8 200.457C109.895 201.599 110.442 203.265 110.442 205.455C110.442 207.097 110.216 208.596 109.764 209.953C109.312 211.286 108.657 212.44 107.8 213.416C106.967 214.368 105.956 215.105 104.766 215.629C103.576 216.153 102.255 216.414 100.803 216.414ZM102.195 212.595C102.648 212.595 103.005 212.428 103.266 212.095C103.528 211.762 103.719 211.167 103.838 210.31C103.957 209.453 104.016 208.263 104.016 206.74C104.016 205.407 103.921 204.455 103.73 203.884C103.54 203.289 103.183 202.991 102.659 202.991C102.207 202.991 101.838 203.158 101.553 203.491C101.291 203.824 101.101 204.384 100.982 205.169C100.863 205.931 100.803 206.978 100.803 208.311C100.803 209.905 100.898 211.024 101.089 211.666C101.303 212.285 101.672 212.595 102.195 212.595ZM124.02 216.307C122.473 216.307 121.699 215.605 121.699 214.201C121.699 213.892 121.771 213.451 121.914 212.88C122.056 212.285 122.235 211.631 122.449 210.917C122.663 210.203 122.866 209.489 123.056 208.775C123.27 208.061 123.449 207.418 123.591 206.847C123.734 206.276 123.806 205.859 123.806 205.597C123.806 205.264 123.758 205.014 123.663 204.848C123.568 204.681 123.425 204.598 123.234 204.598C122.973 204.598 122.616 204.967 122.163 205.704C121.711 206.442 121.211 207.466 120.664 208.775C120.14 210.06 119.617 211.524 119.093 213.166L120.021 205.276L120.843 205.169C121.557 203.455 122.247 202.051 122.913 200.956C123.603 199.862 124.246 199.1 124.841 198.672C126.483 198.672 127.768 199.017 128.697 199.707C129.625 200.373 130.089 201.301 130.089 202.491C130.089 202.848 129.994 203.384 129.803 204.098C129.637 204.812 129.422 205.574 129.161 206.383C128.923 207.192 128.697 207.954 128.482 208.668C128.268 209.358 128.125 209.893 128.054 210.274L128.161 210.381C128.232 210.381 128.328 210.345 128.447 210.274C128.566 210.179 128.744 210.024 128.982 209.81C129.22 209.596 129.541 209.298 129.946 208.917L130.803 209.06L131.445 210.774C130.184 212.202 129.125 213.32 128.268 214.13C127.411 214.915 126.65 215.474 125.983 215.808C125.341 216.141 124.686 216.307 124.02 216.307ZM113.881 216.236L113.167 215.415C113.334 214.415 113.5 213.332 113.667 212.166C113.857 211 114.036 209.869 114.202 208.775C114.393 207.656 114.547 206.68 114.666 205.847C114.809 204.99 114.916 204.372 114.988 203.991C115.083 203.443 115.047 203.051 114.881 202.813C114.714 202.575 114.393 202.456 113.917 202.456H112.953L113.381 199.528C114.262 199.528 115.428 199.493 116.88 199.421C118.332 199.326 119.783 199.219 121.235 199.1L121.699 199.85C121.557 200.349 121.402 200.956 121.235 201.67C121.092 202.384 120.95 203.098 120.807 203.812C120.688 204.526 120.593 205.157 120.521 205.704L119.45 211.702L119.129 214.38C119.081 214.713 118.808 215.022 118.308 215.308C117.832 215.593 117.201 215.819 116.416 215.986C115.63 216.153 114.785 216.236 113.881 216.236ZM134.834 209.631C134.906 210.345 135.227 210.952 135.798 211.452C136.369 211.952 137.024 212.202 137.762 212.202C138.238 212.202 138.595 212.13 138.833 211.988C139.071 211.821 139.19 211.595 139.19 211.309C139.19 210.905 138.952 210.583 138.476 210.345C138.023 210.084 137.488 209.81 136.869 209.524C136.345 209.263 135.822 208.965 135.298 208.632C134.775 208.299 134.334 207.858 133.977 207.311C133.644 206.764 133.478 206.073 133.478 205.24C133.478 203.979 133.823 202.86 134.513 201.885C135.203 200.885 136.155 200.111 137.369 199.564C138.583 198.993 139.951 198.707 141.474 198.707C142.522 198.707 143.521 198.838 144.473 199.1C145.449 199.362 146.234 199.731 146.829 200.207C146.449 201.159 146.068 202.015 145.687 202.777C145.306 203.539 144.937 204.205 144.58 204.776H143.688C143.45 204.253 143.128 203.848 142.724 203.562C142.343 203.253 141.95 203.098 141.546 203.098C141.213 203.098 140.927 203.194 140.689 203.384C140.451 203.574 140.332 203.812 140.332 204.098C140.332 204.336 140.427 204.55 140.618 204.741C140.832 204.907 141.094 205.074 141.403 205.24C141.808 205.455 142.272 205.681 142.795 205.919C143.319 206.157 143.819 206.454 144.295 206.811C144.771 207.144 145.163 207.573 145.473 208.096C145.782 208.596 145.937 209.227 145.937 209.988C145.937 211.226 145.568 212.333 144.83 213.309C144.092 214.261 143.081 215.022 141.796 215.593C140.534 216.141 139.082 216.414 137.44 216.414C136.012 216.414 134.763 216.2 133.692 215.772C132.621 215.32 131.966 214.76 131.728 214.094C131.8 213.642 131.942 213.142 132.157 212.595C132.395 212.023 132.656 211.464 132.942 210.917C133.251 210.369 133.561 209.917 133.87 209.56L134.834 209.631ZM163.951 211.416L164.379 212.273C163.713 213.011 163.034 213.701 162.344 214.344C161.654 214.963 161.011 215.462 160.416 215.843C159.845 216.224 159.369 216.414 158.988 216.414C158.274 216.414 157.727 216.2 157.346 215.772C156.965 215.343 156.822 214.76 156.918 214.023L158.881 201.777L158.703 201.635L156.239 201.528L156.132 201.349L156.275 200.314L159.131 199.85C159.226 199.159 159.31 198.493 159.381 197.85C159.476 197.184 159.548 196.637 159.595 196.208C159.667 195.78 159.702 195.566 159.702 195.566L162.915 194.316L163.129 194.745C163.129 194.745 163.058 194.983 162.915 195.459C162.772 195.935 162.582 196.577 162.344 197.386C162.13 198.172 161.916 199.029 161.701 199.957L166.057 199.921L166.2 200.028L165.914 201.456L161.701 201.42L161.309 201.635L159.131 212.595C159.012 213.428 159.286 213.844 159.952 213.844C160.285 213.844 160.714 213.666 161.237 213.309C161.785 212.928 162.534 212.285 163.486 211.381L163.951 211.416ZM177.986 213.844C178.105 213.844 178.248 213.796 178.415 213.701C178.581 213.606 178.843 213.416 179.2 213.13C179.557 212.821 180.093 212.357 180.807 211.738L181.235 211.773L181.699 212.63C180.818 213.487 180.045 214.201 179.379 214.772C178.736 215.32 178.189 215.724 177.736 215.986C177.308 216.272 176.963 216.414 176.701 216.414C175.963 216.414 175.594 216.069 175.594 215.379C175.594 214.951 175.678 214.368 175.844 213.63C176.035 212.892 176.261 212.095 176.523 211.238C176.808 210.357 177.082 209.477 177.344 208.596C177.629 207.692 177.855 206.859 178.022 206.097C178.212 205.336 178.308 204.705 178.308 204.205C178.308 203.777 178.189 203.432 177.951 203.17C177.736 202.884 177.451 202.741 177.094 202.741C176.594 202.741 175.975 203.158 175.237 203.991C174.523 204.8 173.75 205.942 172.917 207.418C172.108 208.87 171.287 210.56 170.454 212.487L170.061 215.486C170.061 215.558 169.906 215.665 169.597 215.808C169.311 215.927 168.99 216.034 168.633 216.129C168.3 216.248 168.038 216.307 167.847 216.307L167.598 215.986C167.598 215.986 167.657 215.593 167.776 214.808C167.895 214.023 168.062 212.975 168.276 211.666C168.49 210.357 168.716 208.906 168.954 207.311C169.192 205.716 169.43 204.122 169.668 202.527C169.906 200.909 170.132 199.397 170.346 197.993C170.561 196.589 170.727 195.423 170.846 194.495C170.965 193.566 171.025 192.995 171.025 192.781C171.025 192.305 170.906 191.96 170.668 191.746C170.454 191.508 170.073 191.389 169.525 191.389H168.062L168.276 190.032C168.823 190.032 169.418 190.02 170.061 189.996C170.727 189.973 171.358 189.949 171.953 189.925C172.572 189.901 173.072 189.877 173.452 189.854C173.833 189.83 174.024 189.818 174.024 189.818L174.345 190.246C174.345 190.246 174.262 190.603 174.095 191.317C173.928 192.008 173.714 192.971 173.452 194.209C173.191 195.423 172.893 196.827 172.56 198.422C172.25 199.992 171.929 201.67 171.596 203.455C171.287 205.217 171.001 206.99 170.739 208.775L170.918 208.882C172.155 206.478 173.393 204.467 174.63 202.848C175.892 201.206 177.07 200.064 178.165 199.421C178.926 199.421 179.581 199.766 180.128 200.457C180.699 201.123 180.985 201.932 180.985 202.884C180.985 203.503 180.854 204.276 180.592 205.205C180.354 206.109 180.045 207.073 179.664 208.096C179.307 209.12 178.962 210.119 178.629 211.095C178.296 212.071 178.046 212.94 177.879 213.701L177.986 213.844ZM195.88 213.844C195.999 213.844 196.13 213.808 196.273 213.737C196.44 213.642 196.701 213.439 197.058 213.13C197.439 212.821 197.987 212.357 198.701 211.738L199.129 211.773L199.593 212.63C198.546 213.63 197.689 214.403 197.023 214.951C196.38 215.498 195.868 215.879 195.488 216.093C195.107 216.307 194.762 216.414 194.452 216.414C194.119 216.414 193.845 216.319 193.631 216.129C193.417 215.962 193.31 215.736 193.31 215.451C193.31 215.189 193.441 214.403 193.703 213.094C193.988 211.762 194.369 210.048 194.845 207.954L194.631 207.882C193.465 210.024 192.346 211.785 191.275 213.166C190.204 214.522 189.097 215.605 187.955 216.414C187.074 216.414 186.372 215.998 185.849 215.165C185.349 214.308 185.099 213.13 185.099 211.631C185.099 210.155 185.325 208.703 185.777 207.275C186.253 205.823 186.884 204.526 187.669 203.384C188.455 202.218 189.335 201.29 190.311 200.599C191.287 199.909 192.275 199.564 193.274 199.564L196.844 200.135L197.165 199.243L197.344 199.207L198.451 199.743L198.736 200.171C198.355 201.432 197.975 202.872 197.594 204.491C197.213 206.085 196.856 207.692 196.523 209.31C196.213 210.905 195.964 212.368 195.773 213.701L195.88 213.844ZM188.705 213.523C189.014 213.523 189.43 213.237 189.954 212.666C190.501 212.071 191.096 211.274 191.739 210.274C192.405 209.251 193.084 208.096 193.774 206.811C194.464 205.502 195.131 204.122 195.773 202.67C195.226 202.337 194.619 202.063 193.952 201.849C193.286 201.611 192.727 201.492 192.275 201.492C191.465 201.492 190.704 201.885 189.99 202.67C189.276 203.455 188.693 204.491 188.24 205.776C187.812 207.037 187.598 208.406 187.598 209.881C187.598 210.929 187.705 211.797 187.919 212.487C188.133 213.178 188.395 213.523 188.705 213.523ZM210.229 211.416L210.658 212.273C209.991 213.011 209.313 213.701 208.623 214.344C207.933 214.963 207.29 215.462 206.695 215.843C206.124 216.224 205.648 216.414 205.267 216.414C204.553 216.414 204.006 216.2 203.625 215.772C203.244 215.343 203.101 214.76 203.197 214.023L205.16 201.777L204.982 201.635L202.518 201.528L202.411 201.349L202.554 200.314L205.41 199.85C205.505 199.159 205.588 198.493 205.66 197.85C205.755 197.184 205.826 196.637 205.874 196.208C205.945 195.78 205.981 195.566 205.981 195.566L209.194 194.316L209.408 194.745C209.408 194.745 209.337 194.983 209.194 195.459C209.051 195.935 208.861 196.577 208.623 197.386C208.409 198.172 208.195 199.029 207.98 199.957L212.336 199.921L212.479 200.028L212.193 201.456L207.98 201.42L207.588 201.635L205.41 212.595C205.291 213.428 205.565 213.844 206.231 213.844C206.564 213.844 206.993 213.666 207.516 213.309C208.064 212.928 208.813 212.285 209.765 211.381L210.229 211.416ZM228.843 203.027C228.391 203.027 227.987 203.277 227.63 203.777C227.296 204.253 227.023 204.907 226.808 205.74C226.618 206.573 226.523 207.537 226.523 208.632C226.523 209.536 226.666 210.226 226.951 210.702C227.261 211.178 227.689 211.416 228.236 211.416C228.712 211.416 229.177 211.19 229.629 210.738C230.105 210.286 230.533 209.631 230.914 208.775L231.664 208.882L233.52 210.952C233.139 211.952 232.544 212.868 231.735 213.701C230.926 214.51 230.021 215.165 229.022 215.665C228.022 216.165 227.035 216.414 226.059 216.414C224.298 216.414 222.893 215.843 221.846 214.701C220.799 213.535 220.275 211.976 220.275 210.024C220.275 208.477 220.537 207.025 221.061 205.669C221.584 204.288 222.31 203.086 223.238 202.063C224.167 201.016 225.226 200.207 226.416 199.635C227.63 199.04 228.927 198.743 230.307 198.743C231.021 198.743 231.723 198.826 232.413 198.993C233.127 199.136 233.722 199.338 234.198 199.6L234.341 200.242L232.52 204.848L230.985 204.883C230.39 203.646 229.676 203.027 228.843 203.027ZM249.94 210.488C250.035 210.488 250.154 210.441 250.297 210.345C250.463 210.226 250.665 210.06 250.903 209.846C251.165 209.631 251.463 209.358 251.796 209.025L252.617 209.167L253.331 210.881C252.022 212.333 250.927 213.463 250.047 214.272C249.19 215.058 248.428 215.617 247.762 215.95C247.119 216.26 246.453 216.414 245.763 216.414C245.168 216.414 244.715 216.272 244.406 215.986C244.097 215.7 243.942 215.272 243.942 214.701C243.942 214.439 244.013 213.987 244.156 213.344C244.299 212.678 244.525 211.678 244.834 210.345H244.477C243.502 212.011 242.645 213.309 241.907 214.237C241.193 215.165 240.467 215.891 239.729 216.414C238.04 216.414 236.719 215.927 235.767 214.951C234.815 213.951 234.339 212.571 234.339 210.81C234.339 209.405 234.6 208.013 235.124 206.633C235.648 205.252 236.35 204.003 237.23 202.884C238.111 201.742 239.087 200.837 240.158 200.171C241.229 199.481 242.312 199.136 243.406 199.136L245.977 199.85L246.155 199.136L246.834 198.707L251.617 199.136L251.903 199.957C251.594 201.337 251.296 202.682 251.011 203.991C250.749 205.276 250.511 206.466 250.297 207.561C250.106 208.632 249.94 209.572 249.797 210.381L249.94 210.488ZM241.372 210.881C241.562 210.881 241.812 210.679 242.121 210.274C242.431 209.869 242.752 209.322 243.085 208.632C243.442 207.942 243.787 207.18 244.12 206.347C244.454 205.514 244.739 204.669 244.977 203.812C244.501 203.503 244.037 203.277 243.585 203.134C243.133 202.967 242.716 202.884 242.335 202.884C242.121 202.884 241.895 203.182 241.657 203.777C241.443 204.348 241.253 205.062 241.086 205.919C240.943 206.775 240.872 207.644 240.872 208.525C240.872 209.191 240.919 209.75 241.015 210.203C241.11 210.655 241.229 210.881 241.372 210.881ZM252.557 221.52C253.223 221.424 253.699 221.222 253.985 220.913C254.271 220.603 254.509 220.02 254.699 219.163C254.842 218.545 254.997 217.771 255.163 216.843C255.33 215.938 255.496 214.951 255.663 213.88C255.853 212.809 256.032 211.726 256.198 210.631C256.389 209.536 256.544 208.513 256.663 207.561C256.805 206.585 256.912 205.752 256.984 205.062C257.079 204.372 257.127 203.896 257.127 203.634C257.127 203.229 257.031 202.932 256.841 202.741C256.651 202.551 256.353 202.456 255.949 202.456H254.949L255.377 199.528C255.972 199.528 256.698 199.516 257.555 199.493C258.436 199.445 259.376 199.386 260.375 199.314C261.375 199.243 262.363 199.171 263.338 199.1L263.91 199.778C263.457 201.278 263.053 202.944 262.696 204.776H263.017C263.517 203.824 264.017 202.967 264.517 202.206C265.016 201.444 265.516 200.778 266.016 200.207C266.54 199.612 267.063 199.112 267.587 198.707C269.396 198.707 270.8 199.207 271.799 200.207C272.823 201.182 273.334 202.563 273.334 204.348C273.334 205.752 273.073 207.144 272.549 208.525C272.025 209.905 271.323 211.155 270.443 212.273C269.562 213.392 268.586 214.296 267.515 214.986C266.444 215.653 265.361 215.986 264.267 215.986L260.804 215.272L260.233 219.413C260.137 220.103 260.197 220.568 260.411 220.806C260.625 221.044 261.066 221.163 261.732 221.163H263.374L263.41 221.377L262.839 224.197C261.934 224.197 260.863 224.209 259.626 224.233C258.388 224.257 257.103 224.28 255.77 224.304C254.437 224.352 253.176 224.399 251.986 224.447L252.557 221.52ZM266.409 203.598C266.147 203.598 265.79 203.955 265.338 204.669C264.885 205.359 264.421 206.252 263.945 207.347C263.493 208.418 263.1 209.524 262.767 210.667C263.172 210.929 263.612 211.155 264.088 211.345C264.588 211.512 265.028 211.595 265.409 211.595C265.647 211.595 265.873 211.309 266.087 210.738C266.302 210.143 266.48 209.405 266.623 208.525C266.789 207.644 266.873 206.764 266.873 205.883C266.873 205.455 266.849 205.074 266.801 204.741C266.754 204.384 266.694 204.11 266.623 203.919C266.575 203.705 266.504 203.598 266.409 203.598ZM285.98 209.167L286.73 210.952C285.968 212.047 285.219 213.011 284.481 213.844C283.743 214.653 283.077 215.284 282.482 215.736C281.91 216.188 281.446 216.414 281.089 216.414C279.423 216.414 278.174 215.998 277.341 215.165C276.531 214.308 276.21 213.118 276.377 211.595L277.948 202.741L277.626 202.456H275.698L275.591 202.277L275.877 199.921L278.447 199.528C278.543 198.91 278.626 198.303 278.697 197.708C278.769 197.089 278.828 196.577 278.876 196.173C278.923 195.768 278.947 195.566 278.947 195.566L284.945 194.316L285.445 194.745C285.445 194.745 285.385 194.983 285.266 195.459C285.147 195.911 285.004 196.506 284.838 197.244C284.671 197.958 284.505 198.719 284.338 199.528H287.729L287.979 199.778L287.551 202.456L284.195 202.42L283.731 202.706L282.482 209.56C282.41 210.274 282.624 210.631 283.124 210.631C283.362 210.631 283.636 210.512 283.945 210.274C284.255 210.036 284.671 209.62 285.195 209.025L285.98 209.167ZM295.05 210.488C295.169 210.488 295.312 210.417 295.478 210.274C295.669 210.107 296.145 209.691 296.906 209.025L297.727 209.167L298.441 210.881C297.228 212.261 296.18 213.356 295.3 214.165C294.443 214.975 293.669 215.558 292.979 215.915C292.289 216.248 291.611 216.414 290.944 216.414C289.374 216.414 288.588 215.617 288.588 214.023C288.945 211.904 289.243 210.107 289.481 208.632C289.719 207.156 289.897 206.002 290.016 205.169C290.135 204.312 290.195 203.8 290.195 203.634C290.195 203.229 290.099 202.932 289.909 202.741C289.719 202.551 289.421 202.456 289.017 202.456H288.017L288.445 199.528C289.04 199.528 289.766 199.516 290.623 199.493C291.504 199.445 292.444 199.386 293.443 199.314C294.443 199.243 295.431 199.171 296.406 199.1L296.978 199.814C296.716 200.814 296.454 201.944 296.192 203.205C295.93 204.443 295.681 205.693 295.443 206.954C295.228 208.192 295.05 209.334 294.907 210.381L295.05 210.488ZM293.515 197.315C292.563 197.315 291.825 197.065 291.301 196.565C290.802 196.065 290.552 195.363 290.552 194.459C290.552 193.174 290.921 192.15 291.658 191.389C292.42 190.603 293.42 190.211 294.657 190.211C295.609 190.211 296.335 190.472 296.835 190.996C297.335 191.496 297.585 192.198 297.585 193.102C297.585 194.364 297.204 195.387 296.442 196.173C295.704 196.934 294.729 197.315 293.515 197.315ZM303.036 216.414L302.394 215.7C302.299 214.32 302.168 212.868 302.001 211.345C301.834 209.798 301.656 208.334 301.466 206.954C301.299 205.55 301.12 204.372 300.93 203.42C300.859 203.015 300.752 202.741 300.609 202.599C300.466 202.432 300.264 202.349 300.002 202.349C299.859 202.349 299.692 202.349 299.502 202.349C299.335 202.349 299.181 202.361 299.038 202.384C298.919 202.384 298.859 202.384 298.859 202.384L299.074 199.564C299.835 199.493 300.644 199.421 301.501 199.35C302.358 199.278 303.155 199.219 303.893 199.171C304.655 199.1 305.274 199.052 305.75 199.029C306.249 199.005 306.499 198.993 306.499 198.993L306.892 199.314C307.035 200.814 307.142 202.599 307.213 204.669C307.308 206.716 307.356 208.763 307.356 210.81H307.963C308.701 208.953 309.236 207.478 309.569 206.383C309.903 205.288 310.069 204.443 310.069 203.848C310.069 203.467 309.998 203.122 309.855 202.813C309.712 202.503 309.498 202.23 309.212 201.992C308.951 201.73 308.617 201.528 308.213 201.385L308.606 199.671L315.317 198.707C315.627 199.064 315.865 199.552 316.031 200.171C316.198 200.79 316.281 201.48 316.281 202.242C316.281 203.598 315.71 205.383 314.567 207.597C313.449 209.786 311.664 212.583 309.212 215.986L303.036 216.414ZM332.405 210.488C332.5 210.488 332.619 210.441 332.762 210.345C332.929 210.226 333.131 210.06 333.369 209.846C333.631 209.631 333.928 209.358 334.262 209.025L335.083 209.167L335.797 210.881C334.488 212.333 333.393 213.463 332.512 214.272C331.655 215.058 330.894 215.617 330.227 215.95C329.585 216.26 328.918 216.414 328.228 216.414C327.633 216.414 327.181 216.272 326.872 215.986C326.562 215.7 326.408 215.272 326.408 214.701C326.408 214.439 326.479 213.987 326.622 213.344C326.765 212.678 326.991 211.678 327.3 210.345H326.943C325.967 212.011 325.11 213.309 324.373 214.237C323.659 215.165 322.933 215.891 322.195 216.414C320.505 216.414 319.184 215.927 318.232 214.951C317.28 213.951 316.804 212.571 316.804 210.81C316.804 209.405 317.066 208.013 317.59 206.633C318.113 205.252 318.815 204.003 319.696 202.884C320.577 201.742 321.552 200.837 322.623 200.171C323.694 199.481 324.777 199.136 325.872 199.136L328.442 199.85L328.621 199.136L329.299 198.707L334.083 199.136L334.369 199.957C334.059 201.337 333.762 202.682 333.476 203.991C333.214 205.276 332.976 206.466 332.762 207.561C332.572 208.632 332.405 209.572 332.262 210.381L332.405 210.488ZM323.837 210.881C324.028 210.881 324.277 210.679 324.587 210.274C324.896 209.869 325.218 209.322 325.551 208.632C325.908 207.942 326.253 207.18 326.586 206.347C326.919 205.514 327.205 204.669 327.443 203.812C326.967 203.503 326.503 203.277 326.051 203.134C325.598 202.967 325.182 202.884 324.801 202.884C324.587 202.884 324.361 203.182 324.123 203.777C323.909 204.348 323.718 205.062 323.552 205.919C323.409 206.775 323.337 207.644 323.337 208.525C323.337 209.191 323.385 209.75 323.48 210.203C323.575 210.655 323.694 210.881 323.837 210.881ZM347.232 209.167L347.982 210.952C347.22 212.047 346.471 213.011 345.733 213.844C344.995 214.653 344.329 215.284 343.734 215.736C343.162 216.188 342.698 216.414 342.341 216.414C340.675 216.414 339.426 215.998 338.593 215.165C337.784 214.308 337.462 213.118 337.629 211.595L339.2 202.741L338.878 202.456H336.951L336.843 202.277L337.129 199.921L339.699 199.528C339.795 198.91 339.878 198.303 339.949 197.708C340.021 197.089 340.08 196.577 340.128 196.173C340.175 195.768 340.199 195.566 340.199 195.566L346.197 194.316L346.697 194.745C346.697 194.745 346.637 194.983 346.518 195.459C346.399 195.911 346.256 196.506 346.09 197.244C345.923 197.958 345.757 198.719 345.59 199.528H348.981L349.231 199.778L348.803 202.456L345.447 202.42L344.983 202.706L343.734 209.56C343.662 210.274 343.876 210.631 344.376 210.631C344.614 210.631 344.888 210.512 345.197 210.274C345.507 210.036 345.923 209.62 346.447 209.025L347.232 209.167ZM363.736 202.741C363.736 203.836 363.438 204.788 362.843 205.597C362.248 206.407 361.296 207.144 359.987 207.811C358.702 208.453 356.989 209.096 354.847 209.739C354.942 210.31 355.144 210.75 355.453 211.059C355.787 211.345 356.239 211.488 356.81 211.488C357.429 211.488 358 211.286 358.524 210.881C359.047 210.476 359.559 209.834 360.059 208.953L360.844 209.06L362.701 211.131C362.296 212.107 361.665 212.999 360.808 213.808C359.952 214.618 358.976 215.26 357.881 215.736C356.81 216.188 355.715 216.414 354.597 216.414C352.835 216.414 351.419 215.819 350.348 214.629C349.277 213.416 348.742 211.809 348.742 209.81C348.742 208.287 349.004 206.859 349.527 205.526C350.051 204.193 350.777 203.015 351.705 201.992C352.633 200.968 353.704 200.171 354.918 199.6C356.132 199.029 357.429 198.743 358.809 198.743C360.332 198.743 361.534 199.1 362.415 199.814C363.296 200.528 363.736 201.504 363.736 202.741ZM357.488 203.027C357.06 203.027 356.679 203.17 356.346 203.455C356.013 203.741 355.727 204.169 355.489 204.741C355.251 205.288 355.073 205.978 354.954 206.811C356.072 206.383 356.917 205.919 357.488 205.419C358.083 204.895 358.381 204.372 358.381 203.848C358.381 203.301 358.083 203.027 357.488 203.027ZM382.723 200.671C382.723 201.194 382.628 201.635 382.438 201.992C382.247 202.325 382.152 202.491 382.152 202.491L382.295 202.563C384.913 200.802 386.924 199.029 388.328 197.244C389.756 195.459 390.601 193.614 390.863 191.71L391.113 191.496H391.827C391.827 191.496 391.863 191.627 391.934 191.889C392.029 192.127 392.136 192.436 392.255 192.817C392.374 193.174 392.47 193.543 392.541 193.923C392.636 194.28 392.684 194.59 392.684 194.852C392.684 195.042 392.565 195.316 392.327 195.673C392.113 196.03 391.863 196.387 391.577 196.744C391.291 197.077 391.053 197.339 390.863 197.529C390.149 198.362 389.34 199.183 388.435 199.992C387.555 200.778 386.484 201.623 385.222 202.527C383.961 203.408 382.426 204.395 380.617 205.49C378.832 206.561 376.678 207.799 374.155 209.203C374.56 210.726 375.357 211.94 376.547 212.844C377.737 213.725 379.237 214.165 381.046 214.165C383.307 214.165 385.187 213.463 386.686 212.059C388.209 210.631 389.161 208.668 389.542 206.169L391.72 206.633C391.268 208.489 390.447 210.167 389.257 211.666C388.067 213.142 386.662 214.308 385.044 215.165C383.426 216.022 381.724 216.45 379.939 216.45C378.249 216.45 376.785 216.093 375.548 215.379C374.31 214.665 373.358 213.654 372.692 212.345C372.025 211.036 371.692 209.501 371.692 207.739C371.692 206.383 371.906 205.121 372.335 203.955C372.787 202.765 373.382 201.718 374.12 200.814C374.881 199.909 375.726 199.207 376.654 198.707C377.606 198.184 378.582 197.922 379.582 197.922C380.581 197.922 381.355 198.172 381.902 198.672C382.45 199.148 382.723 199.814 382.723 200.671ZM374.013 206.633C374.013 206.799 374.013 206.99 374.013 207.204C374.013 207.394 374.013 207.561 374.013 207.704C375.607 206.752 376.821 205.954 377.654 205.312C378.511 204.669 379.094 204.086 379.403 203.562C379.737 203.039 379.903 202.468 379.903 201.849C379.903 201.349 379.76 200.968 379.475 200.706C379.213 200.421 378.844 200.278 378.368 200.278C377.606 200.278 376.892 200.552 376.226 201.099C375.56 201.647 375.024 202.396 374.62 203.348C374.215 204.3 374.013 205.395 374.013 206.633ZM387.293 206.49C387.103 206.49 386.853 206.609 386.543 206.847C386.234 207.061 385.925 207.323 385.615 207.632C385.306 207.918 385.044 208.18 384.83 208.418C384.616 208.632 384.508 208.739 384.508 208.739H384.294L383.366 207.954V207.775L386.722 204.205L387.293 203.991C387.674 203.991 388.197 204.038 388.864 204.134C389.53 204.229 390.244 204.348 391.006 204.491C391.767 204.633 392.481 204.752 393.148 204.848C393.838 204.943 394.385 204.99 394.79 204.99C394.933 204.99 395.147 204.883 395.433 204.669C395.718 204.431 396.016 204.157 396.325 203.848C396.658 203.539 396.932 203.277 397.146 203.063C397.36 202.825 397.468 202.706 397.468 202.706H397.753L398.574 203.491V203.705L395.326 207.275L394.683 207.525L387.293 206.49ZM418.304 210.488C418.376 210.488 418.435 210.476 418.483 210.453C418.53 210.429 418.673 210.322 418.911 210.131C419.149 209.917 419.566 209.548 420.161 209.025L420.982 209.167L421.696 210.881C420.387 212.333 419.292 213.463 418.411 214.272C417.554 215.058 416.793 215.617 416.126 215.95C415.484 216.26 414.817 216.414 414.127 216.414C412.913 216.414 412.307 215.843 412.307 214.701C412.307 214.606 412.307 214.499 412.307 214.38C412.33 214.237 412.354 214.058 412.378 213.844C412.426 213.63 412.485 213.38 412.556 213.094C412.628 212.785 412.711 212.404 412.806 211.952C412.925 211.5 413.056 210.964 413.199 210.345H412.842C411.914 211.964 411.081 213.249 410.343 214.201C409.605 215.129 408.856 215.867 408.094 216.414C406.404 216.414 405.083 215.927 404.131 214.951C403.179 213.951 402.703 212.571 402.703 210.81C402.703 209.405 402.965 208.013 403.489 206.633C404.012 205.252 404.714 204.003 405.595 202.884C406.476 201.742 407.451 200.837 408.522 200.171C409.593 199.481 410.676 199.136 411.771 199.136L414.163 199.814L414.948 194.388C415.02 193.816 414.96 193.424 414.77 193.209C414.603 192.971 414.282 192.852 413.806 192.852H412.806L413.235 189.925C414.044 189.925 414.913 189.901 415.841 189.854C416.793 189.806 417.685 189.758 418.518 189.711C419.351 189.663 420.03 189.616 420.553 189.568C421.077 189.52 421.339 189.497 421.339 189.497L421.91 190.211C421.91 190.211 421.838 190.556 421.696 191.246C421.577 191.912 421.41 192.829 421.196 193.995C420.982 195.137 420.744 196.422 420.482 197.85C420.22 199.278 419.946 200.754 419.661 202.277C419.375 203.777 419.101 205.228 418.84 206.633C418.578 208.037 418.352 209.286 418.161 210.381L418.304 210.488ZM409.736 210.881C409.998 210.881 410.343 210.536 410.771 209.846C411.224 209.132 411.676 208.239 412.128 207.168C412.604 206.073 413.009 204.955 413.342 203.812C413.342 203.812 413.211 203.741 412.949 203.598C412.687 203.432 412.354 203.277 411.95 203.134C411.545 202.967 411.128 202.884 410.7 202.884C410.486 202.884 410.26 203.182 410.022 203.777C409.808 204.348 409.617 205.074 409.451 205.954C409.308 206.811 409.236 207.68 409.236 208.56C409.236 209.251 409.284 209.81 409.379 210.238C409.474 210.667 409.593 210.881 409.736 210.881ZM437.486 202.741C437.486 203.836 437.188 204.788 436.593 205.597C435.998 206.407 435.046 207.144 433.737 207.811C432.452 208.453 430.738 209.096 428.596 209.739C428.692 210.31 428.894 210.75 429.203 211.059C429.536 211.345 429.989 211.488 430.56 211.488C431.179 211.488 431.75 211.286 432.273 210.881C432.797 210.476 433.309 209.834 433.809 208.953L434.594 209.06L436.45 211.131C436.046 212.107 435.415 212.999 434.558 213.808C433.701 214.618 432.726 215.26 431.631 215.736C430.56 216.188 429.465 216.414 428.346 216.414C426.585 216.414 425.169 215.819 424.098 214.629C423.027 213.416 422.492 211.809 422.492 209.81C422.492 208.287 422.753 206.859 423.277 205.526C423.801 204.193 424.527 203.015 425.455 201.992C426.383 200.968 427.454 200.171 428.668 199.6C429.882 199.029 431.179 198.743 432.559 198.743C434.082 198.743 435.284 199.1 436.165 199.814C437.045 200.528 437.486 201.504 437.486 202.741ZM431.238 203.027C430.81 203.027 430.429 203.17 430.096 203.455C429.763 203.741 429.477 204.169 429.239 204.741C429.001 205.288 428.822 205.978 428.703 206.811C429.822 206.383 430.667 205.919 431.238 205.419C431.833 204.895 432.131 204.372 432.131 203.848C432.131 203.301 431.833 203.027 431.238 203.027ZM444.909 210.488C445.028 210.488 445.171 210.417 445.338 210.274C445.528 210.107 446.004 209.691 446.766 209.025L447.587 209.167L448.301 210.881C447.039 212.309 445.968 213.428 445.088 214.237C444.231 215.046 443.469 215.617 442.803 215.95C442.137 216.26 441.47 216.414 440.804 216.414C439.233 216.414 438.448 215.617 438.448 214.023C438.448 213.856 438.507 213.38 438.626 212.595C438.745 211.809 438.888 210.845 439.054 209.703C439.245 208.537 439.447 207.287 439.661 205.954C439.899 204.598 440.125 203.253 440.34 201.92C440.578 200.564 440.78 199.314 440.947 198.172C441.137 197.029 441.292 196.089 441.411 195.351C441.53 194.614 441.589 194.173 441.589 194.031C441.589 193.245 441.196 192.852 440.411 192.852H439.411L439.84 189.925C440.649 189.925 441.518 189.901 442.446 189.854C443.398 189.806 444.29 189.758 445.123 189.711C445.956 189.663 446.635 189.616 447.158 189.568C447.682 189.52 447.944 189.497 447.944 189.497L448.515 190.211C448.515 190.211 448.444 190.58 448.301 191.317C448.158 192.031 447.956 193.007 447.694 194.245C447.456 195.459 447.194 196.803 446.908 198.279C446.623 199.754 446.337 201.254 446.052 202.777C445.79 204.276 445.54 205.693 445.302 207.025C445.064 208.358 444.885 209.477 444.766 210.381L444.909 210.488ZM456.477 210.488C456.596 210.488 456.738 210.417 456.905 210.274C457.095 210.107 457.571 209.691 458.333 209.025L459.154 209.167L459.868 210.881C458.654 212.261 457.607 213.356 456.727 214.165C455.87 214.975 455.096 215.558 454.406 215.915C453.716 216.248 453.038 216.414 452.371 216.414C450.8 216.414 450.015 215.617 450.015 214.023C450.372 211.904 450.669 210.107 450.907 208.632C451.145 207.156 451.324 206.002 451.443 205.169C451.562 204.312 451.621 203.8 451.621 203.634C451.621 203.229 451.526 202.932 451.336 202.741C451.145 202.551 450.848 202.456 450.443 202.456H449.444L449.872 199.528C450.467 199.528 451.193 199.516 452.05 199.493C452.93 199.445 453.871 199.386 454.87 199.314C455.87 199.243 456.857 199.171 457.833 199.1L458.404 199.814C458.143 200.814 457.881 201.944 457.619 203.205C457.357 204.443 457.107 205.693 456.869 206.954C456.655 208.192 456.477 209.334 456.334 210.381L456.477 210.488ZM454.942 197.315C453.99 197.315 453.252 197.065 452.728 196.565C452.228 196.065 451.978 195.363 451.978 194.459C451.978 193.174 452.347 192.15 453.085 191.389C453.847 190.603 454.846 190.211 456.084 190.211C457.036 190.211 457.762 190.472 458.262 190.996C458.761 191.496 459.011 192.198 459.011 193.102C459.011 194.364 458.631 195.387 457.869 196.173C457.131 196.934 456.155 197.315 454.942 197.315ZM464.642 224.625C463.19 224.625 461.916 224.399 460.822 223.947C459.727 223.519 458.906 222.9 458.358 222.091C457.787 221.305 457.561 220.401 457.68 219.378L457.823 218.913C458.204 218.699 458.727 218.426 459.394 218.092C460.036 217.783 460.715 217.45 461.429 217.093C462.166 216.736 462.833 216.426 463.428 216.165L463.463 215.915C462.607 215.534 461.94 214.903 461.464 214.023C461.012 213.142 460.786 212.083 460.786 210.845C460.786 209.441 461.048 208.049 461.571 206.668C462.095 205.264 462.797 203.991 463.678 202.848C464.558 201.706 465.534 200.802 466.605 200.135C467.676 199.445 468.759 199.1 469.854 199.1L472.424 199.85L472.603 199.1L473.317 198.707L478.065 199.1L478.6 200.1C478.41 200.576 478.208 201.171 477.993 201.885C477.779 202.599 477.601 203.324 477.458 204.062C477.315 204.776 477.208 205.407 477.137 205.954C477.113 206.24 477.065 206.74 476.994 207.454C476.946 208.168 476.887 208.989 476.815 209.917C476.768 210.821 476.708 211.714 476.637 212.595C476.565 213.451 476.494 214.165 476.423 214.737C476.327 215.522 475.994 216.367 475.423 217.271C474.876 218.176 474.174 219.056 473.317 219.913C472.46 220.77 471.52 221.555 470.496 222.269C469.497 222.983 468.485 223.554 467.462 223.983C466.438 224.411 465.498 224.625 464.642 224.625ZM466.676 220.163C467.89 220.163 468.866 219.806 469.604 219.092C470.366 218.378 470.83 217.343 470.996 215.986L471.746 209.774L471.389 209.667C470.389 211.214 469.58 212.428 468.961 213.309C468.366 214.165 467.866 214.808 467.462 215.236C467.081 215.665 466.7 216.01 466.319 216.272C465.915 216.533 465.486 216.831 465.034 217.164C464.582 217.497 464.201 217.795 463.892 218.057C463.582 218.318 463.428 218.485 463.428 218.556C463.428 218.842 463.571 219.104 463.856 219.342C464.142 219.604 464.534 219.806 465.034 219.949C465.534 220.092 466.081 220.163 466.676 220.163ZM467.855 210.881C468.116 210.881 468.462 210.536 468.89 209.846C469.342 209.132 469.794 208.227 470.247 207.132C470.723 206.038 471.115 204.919 471.425 203.777C471.425 203.777 471.294 203.705 471.032 203.562C470.77 203.396 470.437 203.241 470.032 203.098C469.652 202.956 469.247 202.884 468.818 202.884C468.581 202.884 468.343 203.17 468.104 203.741C467.866 204.312 467.664 205.026 467.498 205.883C467.355 206.74 467.283 207.62 467.283 208.525C467.283 209.239 467.331 209.81 467.426 210.238C467.545 210.667 467.688 210.881 467.855 210.881ZM494.664 210.381C494.736 210.381 494.819 210.357 494.914 210.31C495.01 210.238 495.176 210.096 495.414 209.881C495.676 209.667 496.045 209.346 496.521 208.917L497.378 209.06L498.056 210.774C496.818 212.178 495.759 213.285 494.879 214.094C494.022 214.903 493.248 215.474 492.558 215.808C491.892 216.141 491.225 216.307 490.559 216.307C488.988 216.307 488.203 215.605 488.203 214.201C488.203 213.892 488.274 213.451 488.417 212.88C488.56 212.285 488.738 211.631 488.952 210.917C489.19 210.203 489.417 209.489 489.631 208.775C489.845 208.061 490.023 207.418 490.166 206.847C490.309 206.276 490.38 205.859 490.38 205.597C490.38 205.264 490.321 205.014 490.202 204.848C490.107 204.681 489.952 204.598 489.738 204.598C489.476 204.598 489.131 204.931 488.703 205.597C488.274 206.24 487.798 207.144 487.275 208.311C486.751 209.453 486.227 210.774 485.704 212.273L485.454 214.38C485.406 214.713 485.133 215.022 484.633 215.308C484.133 215.593 483.49 215.819 482.705 215.986C481.92 216.153 481.075 216.236 480.17 216.236L479.456 215.415C479.456 215.415 479.504 215.082 479.599 214.415C479.718 213.749 479.861 212.868 480.027 211.773C480.218 210.655 480.42 209.417 480.634 208.061C480.849 206.68 481.063 205.288 481.277 203.884C481.515 202.456 481.729 201.099 481.92 199.814C482.134 198.529 482.312 197.41 482.455 196.458C482.622 195.482 482.741 194.792 482.812 194.388C482.883 193.816 482.824 193.424 482.634 193.209C482.467 192.971 482.146 192.852 481.67 192.852H480.67L481.098 189.925C481.908 189.925 482.776 189.901 483.705 189.854C484.633 189.806 485.513 189.758 486.346 189.711C487.203 189.663 487.893 189.616 488.417 189.568C488.964 189.52 489.238 189.497 489.238 189.497L489.774 190.246C489.774 190.246 489.702 190.556 489.559 191.175C489.44 191.77 489.274 192.591 489.06 193.638C488.845 194.685 488.607 195.863 488.346 197.172C488.108 198.457 487.858 199.79 487.596 201.171C487.334 202.551 487.096 203.896 486.882 205.205L487.132 205.169C487.893 203.432 488.619 202.027 489.309 200.956C490.023 199.862 490.702 199.1 491.344 198.672C493.01 198.672 494.307 199.017 495.236 199.707C496.188 200.373 496.664 201.301 496.664 202.491C496.664 202.848 496.568 203.384 496.378 204.098C496.188 204.812 495.962 205.574 495.7 206.383C495.462 207.192 495.224 207.954 494.986 208.668C494.772 209.358 494.629 209.893 494.557 210.274L494.664 210.381ZM509.53 209.167L510.28 210.952C509.519 212.047 508.769 213.011 508.031 213.844C507.293 214.653 506.627 215.284 506.032 215.736C505.461 216.188 504.997 216.414 504.64 216.414C502.974 216.414 501.724 215.998 500.891 215.165C500.082 214.308 499.761 213.118 499.927 211.595L501.498 202.741L501.177 202.456H499.249L499.142 202.277L499.427 199.921L501.998 199.528C502.093 198.91 502.176 198.303 502.248 197.708C502.319 197.089 502.379 196.577 502.426 196.173C502.474 195.768 502.498 195.566 502.498 195.566L508.495 194.316L508.995 194.745C508.995 194.745 508.935 194.983 508.816 195.459C508.697 195.911 508.555 196.506 508.388 197.244C508.221 197.958 508.055 198.719 507.888 199.528H511.28L511.53 199.778L511.101 202.456L507.745 202.42L507.281 202.706L506.032 209.56C505.96 210.274 506.175 210.631 506.674 210.631C506.912 210.631 507.186 210.512 507.496 210.274C507.805 210.036 508.221 209.62 508.745 209.025L509.53 209.167ZM513.781 216.307C512.829 216.307 512.103 216.057 511.603 215.558C511.103 215.058 510.853 214.356 510.853 213.451C510.853 212.166 511.222 211.143 511.96 210.381C512.722 209.596 513.721 209.203 514.959 209.203C515.887 209.203 516.601 209.465 517.101 209.988C517.601 210.488 517.851 211.19 517.851 212.095C517.851 213.356 517.47 214.38 516.708 215.165C515.97 215.927 514.995 216.307 513.781 216.307Z" fill="#0A0A0A"/>
</svg>
