<svg width="520" height="223" viewBox="0 0 520 223" fill="none" xmlns="http://www.w3.org/2000/svg">
<path d="M481.738 166.796C481.738 164.445 482.326 162.295 483.501 160.346C484.648 158.368 486.21 156.806 488.188 155.659C490.137 154.484 492.287 153.896 494.638 153.896L498.336 153.896C500.687 153.896 502.851 154.484 504.829 155.659C506.778 156.806 508.341 158.368 509.516 160.346C510.663 162.295 511.236 164.445 511.236 166.796L511.236 180.083L481.738 180.083L481.738 166.796ZM504.399 170.967L504.399 167.656C504.399 166.452 503.983 165.434 503.152 164.603C502.321 163.772 501.303 163.356 500.099 163.356L492.746 163.356C491.542 163.356 490.524 163.772 489.693 164.603C488.862 165.434 488.446 166.452 488.446 167.656L488.446 170.967L504.399 170.967Z" fill="#0A0A0A"/>
<path d="M488.833 139.909C488.833 137.701 489.263 135.809 490.123 134.233C490.954 132.627 492.115 131.409 493.606 130.578C495.097 129.718 496.802 129.288 498.723 129.288L501.389 129.288L501.389 143.607L503.453 143.607C504.428 143.607 505.173 143.306 505.689 142.704C506.205 142.073 506.463 141.27 506.463 140.296C506.463 139.292 506.162 138.533 505.56 138.017C504.929 137.472 504.069 137.2 502.98 137.2L502.98 129.331C504.614 129.331 506.09 129.761 507.409 130.621C508.728 131.452 509.774 132.685 510.548 134.319C511.293 135.924 511.666 137.83 511.666 140.038L511.666 140.683C511.666 142.976 511.25 145.04 510.419 146.875C509.559 148.681 508.326 150.114 506.721 151.175C505.087 152.207 503.152 152.723 500.916 152.723L499.583 152.723C497.347 152.723 495.426 152.235 493.821 151.261C492.187 150.257 490.954 148.867 490.123 147.09C489.263 145.312 488.833 143.277 488.833 140.984L488.833 139.909ZM494.036 140.64C494.036 141.471 494.337 142.173 494.939 142.747C495.512 143.32 496.215 143.607 497.046 143.607L497.648 143.607L497.648 137.673L497.046 137.673C496.215 137.673 495.512 137.959 494.939 138.533C494.337 139.106 494.036 139.808 494.036 140.64Z" fill="#0A0A0A"/>
<path d="M488.833 116.276C488.833 114.9 489.062 113.496 489.521 112.062C489.951 110.6 490.61 109.382 491.499 108.407C492.388 107.433 493.463 106.945 494.724 106.945C494.982 106.945 495.226 106.96 495.455 106.988C495.656 107.017 495.785 107.031 495.842 107.031L495.842 114.083C495.154 114.083 494.667 114.399 494.38 115.029C494.065 115.631 493.907 116.319 493.907 117.093C493.907 119.215 494.323 120.275 495.154 120.275C495.67 120.275 496.028 119.96 496.229 119.329C496.401 118.67 496.573 117.595 496.745 116.104C496.974 114.155 497.261 112.55 497.605 111.288C497.949 109.998 498.623 108.88 499.626 107.934C500.601 106.96 502.034 106.472 503.926 106.472C506.621 106.472 508.584 107.461 509.817 109.439C511.05 111.389 511.666 113.797 511.666 116.663L511.666 118.899C511.666 120.505 511.422 122.038 510.935 123.5C510.419 124.934 509.645 126.109 508.613 127.026C507.581 127.944 506.32 128.402 504.829 128.402L504.442 128.402C504.27 128.402 504.141 128.388 504.055 128.359L504.055 121.393L504.227 121.393C505.058 121.393 505.646 121.021 505.99 120.275C506.305 119.53 506.463 118.67 506.463 117.695C506.463 116.835 506.377 116.018 506.205 115.244C506.033 114.442 505.675 114.04 505.13 114.04C504.585 114.04 504.213 114.37 504.012 115.029C503.783 115.689 503.553 116.778 503.324 118.297C503.095 120.132 502.794 121.694 502.421 122.984C502.048 124.274 501.375 125.392 500.4 126.338C499.397 127.256 498.006 127.714 496.229 127.714C494.566 127.714 493.19 127.213 492.101 126.209C490.983 125.177 490.166 123.887 489.65 122.339C489.105 120.791 488.833 119.215 488.833 117.609L488.833 116.276Z" fill="#0A0A0A"/>
<path d="M486.425 95.9978L486.425 104.469L480.276 104.469L480.276 95.9978L486.425 95.9978ZM511.236 95.9978L511.236 104.469L489.306 104.469L489.306 95.9978L511.236 95.9978Z" fill="#0A0A0A"/>
<path d="M485.307 69.8162C486.97 69.8162 488.245 70.2176 489.134 71.0202C490.023 71.7942 490.682 72.9696 491.112 74.5462C491.714 73.7722 492.416 73.1846 493.219 72.7832C494.022 72.3532 494.853 72.1382 495.713 72.1382C496.974 72.1382 498.135 72.5252 499.196 73.2992C500.257 74.0732 501.102 75.1196 501.733 76.4382C502.335 77.7569 502.636 79.1902 502.636 80.7382L502.636 83.7052C502.636 84.5366 502.765 85.1529 503.023 85.5542C503.252 85.9556 503.553 86.1562 503.926 86.1562C504.356 86.1562 504.686 85.9842 504.915 85.6402C505.144 85.2962 505.259 84.6512 505.259 83.7052L505.259 76.6962C505.259 74.4029 505.875 72.6829 507.108 71.5362C508.312 70.3896 509.932 69.8162 511.967 69.8162C513.257 69.8162 514.461 70.2176 515.579 71.0202C516.726 71.7942 517.629 72.8406 518.288 74.1592C518.976 75.4779 519.32 76.8969 519.32 78.4162L519.32 89.8112C519.32 91.2159 518.818 92.4342 517.815 93.4662C516.812 94.4696 515.593 94.9712 514.16 94.9712L513.945 94.9712C512.942 94.9712 512.024 94.6559 511.193 94.0252C510.333 93.3946 509.688 92.6206 509.258 91.7032C508.828 92.3339 508.283 92.8356 507.624 93.2082C506.965 93.5809 506.262 93.7672 505.517 93.7672C504.456 93.7672 503.496 93.3946 502.636 92.6492C501.776 91.8752 501.203 90.9292 500.916 89.8112C500.257 90.8146 499.483 91.6172 498.594 92.2192C497.705 92.8212 496.759 93.1222 495.756 93.1222C493.721 93.1222 492.058 92.2766 490.768 90.5852C489.478 88.8939 488.833 86.4429 488.833 83.2322L488.833 82.0282C488.833 80.9962 488.919 80.0502 489.091 79.1902C488.374 78.1009 487.686 77.3269 487.027 76.8682C486.339 76.4096 485.766 76.1802 485.307 76.1802L485.307 69.8162ZM493.047 82.4582C493.047 83.2036 493.319 83.8342 493.864 84.3502C494.38 84.8376 495.011 85.0812 495.756 85.0812C496.501 85.0812 497.146 84.8376 497.691 84.3502C498.207 83.8342 498.465 83.2036 498.465 82.4582C498.465 81.7129 498.207 81.0966 497.691 80.6092C497.146 80.0932 496.501 79.8352 495.756 79.8352C495.011 79.8352 494.38 80.0932 493.864 80.6092C493.319 81.0966 493.047 81.7129 493.047 82.4582ZM511.236 85.7692C511.236 86.3712 511.408 86.8872 511.752 87.3172C512.096 87.7186 512.512 87.9192 512.999 87.9192C513.486 87.9192 513.902 87.7186 514.246 87.3172C514.619 86.8872 514.805 86.3712 514.805 85.7692L514.805 79.6202C514.805 79.0182 514.633 78.5166 514.289 78.1152C513.945 77.6852 513.529 77.4702 513.042 77.4702C512.555 77.4702 512.125 77.6852 511.752 78.1152C511.408 78.5166 511.236 79.0182 511.236 79.6202L511.236 85.7692Z" fill="#0A0A0A"/>
<path d="M488.833 53.784C488.833 52.6086 489.12 51.5336 489.693 50.5589C490.266 49.5556 491.055 48.7673 492.058 48.1939C493.033 47.6206 494.108 47.3339 495.283 47.3339L511.236 47.3339L511.236 55.8479L497.476 55.8479C496.759 55.8479 496.157 56.0773 495.67 56.5359C495.154 56.9659 494.896 57.4963 494.896 58.1269C494.896 58.7576 495.154 59.3023 495.67 59.7609C496.157 60.1909 496.759 60.4059 497.476 60.4059L511.236 60.4059L511.236 68.9199L489.263 68.9199L489.263 62.5129L492.445 61.6529C490.037 60.0763 488.833 57.8546 488.833 54.9879L488.833 53.784Z" fill="#0A0A0A"/>
<path d="M488.833 32.6437C488.833 30.4364 489.263 28.5444 490.123 26.9677C490.954 25.3624 492.115 24.1441 493.606 23.3127C495.097 22.4527 496.802 22.0227 498.723 22.0227L501.389 22.0227L501.389 36.3418L503.453 36.3418C504.428 36.3418 505.173 36.0407 505.689 35.4387C506.205 34.8081 506.463 34.0054 506.463 33.0307C506.463 32.0274 506.162 31.2677 505.56 30.7517C504.929 30.2071 504.069 29.9347 502.98 29.9347L502.98 22.0657C504.614 22.0657 506.09 22.4957 507.409 23.3557C508.728 24.1871 509.774 25.4197 510.548 27.0537C511.293 28.6591 511.666 30.5654 511.666 32.7727L511.666 33.4177C511.666 35.7111 511.25 37.7751 510.419 39.6097C509.559 41.4157 508.326 42.8491 506.721 43.9097C505.087 44.9417 503.152 45.4577 500.916 45.4577L499.583 45.4577C497.347 45.4577 495.426 44.9704 493.821 43.9957C492.187 42.9924 490.954 41.6021 490.123 39.8247C489.263 38.0474 488.833 36.0121 488.833 33.7188L488.833 32.6437ZM494.036 33.3747C494.036 34.2061 494.337 34.9084 494.939 35.4818C495.512 36.0551 496.215 36.3418 497.046 36.3418L497.648 36.3418L497.648 30.4077L497.046 30.4077C496.215 30.4077 495.512 30.6944 494.939 31.2677C494.337 31.8411 494.036 32.5434 494.036 33.3747Z" fill="#0A0A0A"/>
<path d="M488.833 6.81854C488.833 4.92654 489.363 3.46454 490.424 2.43254C491.456 1.37187 492.889 0.841538 494.724 0.841538L495.455 0.841538L497.089 0.927536L498.164 1.01353L498.164 7.97954L497.132 7.97954C496.53 7.97954 496.028 8.16588 495.627 8.53854C495.197 8.88254 494.982 9.2982 494.982 9.78554C494.982 10.3015 495.197 10.7459 495.627 11.1185C496.028 11.4625 496.53 11.6345 497.132 11.6345L511.236 11.6345L511.236 19.9335L489.263 19.9335L489.263 13.5695L492.445 12.6235C492.101 12.4515 491.642 12.1219 491.069 11.6345C490.496 11.1472 489.98 10.4879 489.521 9.65654C489.062 8.82521 488.833 7.87921 488.833 6.81854Z" fill="#0A0A0A"/>
<path fill-rule="evenodd" clip-rule="evenodd" d="M306.693 157.832C298.343 149.133 294.167 137.39 294.167 122.602V1.51514H280.075V123.124C280.075 135.128 282.598 145.654 287.643 154.7C292.862 163.747 300.169 170.793 309.564 175.838C318.959 180.71 329.832 183.145 342.184 183.145C354.537 183.145 365.41 180.71 374.805 175.838C384.373 170.793 391.68 163.747 396.726 154.7C401.945 145.654 404.555 135.128 404.555 123.124V1.51514H390.463V122.602C390.463 137.042 386.2 148.698 377.675 157.571C369.151 166.27 357.32 170.619 342.184 170.619C327.049 170.619 315.218 166.357 306.693 157.832ZM391.928 2.98049V122.602C391.928 137.35 387.564 149.394 378.732 158.586L378.727 158.592L378.722 158.597C369.858 167.642 357.613 172.085 342.184 172.085C326.765 172.085 314.523 167.734 305.657 158.868L305.647 158.858L305.636 158.847C296.967 149.816 292.702 137.678 292.702 122.602V2.98049H281.541V123.124C281.541 134.914 284.016 145.184 288.918 153.978C293.996 162.775 301.096 169.625 310.247 174.542C319.399 179.286 330.032 181.68 342.184 181.68C354.339 181.68 364.973 179.285 374.126 174.54C383.453 169.621 390.546 162.773 395.446 153.987L395.451 153.977L395.456 153.968C400.529 145.176 403.089 134.91 403.089 123.124V2.98049H391.928ZM438.137 14.3023V167.749H417.521V180.536H472.845V167.749H452.229V14.3023H472.845V1.51514H417.521V14.3023H438.137ZM418.987 12.837H439.603V169.214H418.987V179.07H471.38V169.214H450.764V12.837H471.38V2.98049H418.987V12.837Z" fill="#5E38CD"/>
<path d="M136.458 124.072C136.458 135.994 133.74 146.514 128.305 155.632C123.045 164.749 115.418 171.85 105.424 176.935C95.6052 181.844 84.2086 184.299 71.2339 184.299H67.8149C54.8403 184.299 43.4436 181.844 33.625 176.935C23.9816 172.025 16.4423 165.012 11.007 155.895C5.57167 146.777 2.854 136.17 2.854 124.072V1.25098H28.628V123.546C28.628 134.767 32.4853 143.797 40.2 150.635C48.0899 157.473 58.0839 160.892 70.1819 160.892C82.6306 160.892 92.4492 157.473 99.6379 150.635C107.002 143.797 110.684 134.767 110.684 123.546V1.25098H136.458V124.072Z" fill="#0A0A0A"/>
<path d="M234.475 86.7259L299.961 181.669H268.927L218.958 109.081L167.673 181.669H139.006L204.756 88.3039L145.055 1.51397H176.089L220.273 65.9489C229.916 52.4482 240.173 37.8079 251.044 22.0279L261.826 6.77398L265.508 1.51397H294.175L234.475 86.7259Z" fill="#0A0A0A"/>
<path d="M7.82846 214.407C6.50606 214.407 5.33186 214.282 4.30586 214.031C3.30266 213.78 2.51606 213.541 1.94606 213.313C1.37606 213.062 1.09106 212.936 1.09106 212.936L0.680664 212.321C0.680664 212.321 0.714864 212.138 0.783264 211.774C0.851664 211.409 0.920064 210.941 0.988464 210.371C1.07966 209.779 1.15946 209.163 1.22786 208.525C1.31906 207.863 1.37606 207.248 1.39886 206.678L5.70806 206.37C5.70806 207.191 5.82206 207.863 6.05006 208.388C6.27806 208.889 6.62006 209.266 7.07606 209.516C7.53206 209.744 8.07926 209.858 8.71766 209.858C9.42447 209.858 9.97166 209.733 10.3593 209.482C10.7697 209.231 10.9749 208.889 10.9749 208.456C10.9749 207.955 10.7355 207.533 10.2567 207.191C9.80066 206.826 9.19646 206.484 8.44406 206.165C7.69166 205.846 6.90506 205.504 6.08426 205.139C5.21786 204.751 4.38566 204.295 3.58766 203.771C2.78966 203.224 2.12846 202.551 1.60406 201.753C1.10246 200.955 0.851664 199.963 0.851664 198.778C0.851664 197.296 1.28486 196.007 2.15126 194.913C3.04046 193.819 4.27166 192.975 5.84486 192.382C7.41806 191.767 9.26486 191.459 11.3853 191.459C12.6393 191.459 13.7565 191.539 14.7369 191.698C15.7173 191.858 16.4925 192.017 17.0625 192.177C17.6325 192.337 17.9175 192.416 17.9175 192.416L18.3279 193.169C18.3279 193.169 18.2709 193.454 18.1569 194.024C18.0429 194.571 17.9061 195.301 17.7465 196.213C17.6097 197.125 17.4957 198.094 17.4045 199.12L13.4373 199.393L13.0269 199.12C13.0269 199.12 13.0269 199.051 13.0269 198.914C13.0269 198.778 13.0269 198.664 13.0269 198.572C13.0269 197.774 12.8103 197.182 12.3771 196.794C11.9439 196.384 11.3283 196.178 10.5303 196.178C9.89186 196.178 9.36746 196.327 8.95706 196.623C8.56946 196.897 8.37566 197.261 8.37566 197.717C8.37566 198.173 8.58086 198.572 8.99126 198.914C9.40166 199.256 9.92606 199.576 10.5645 199.872C11.2257 200.146 11.9325 200.442 12.6849 200.761C13.6197 201.149 14.5317 201.605 15.4209 202.129C16.3101 202.654 17.0511 203.326 17.6439 204.147C18.2367 204.945 18.5331 205.982 18.5331 207.259C18.5331 208.741 18.0999 210.018 17.2335 211.09C16.3671 212.161 15.1359 212.982 13.5399 213.552C11.9439 214.122 10.0401 214.407 7.82846 214.407Z" fill="#0A0A0A"/>
<path d="M28.2464 214.407C26.6276 214.407 25.2254 214.088 24.0398 213.449C22.877 212.788 21.9764 211.853 21.338 210.645C20.6996 209.414 20.3804 207.966 20.3804 206.302C20.3804 204.432 20.7224 202.847 21.4064 201.548C22.0904 200.225 23.0708 199.211 24.3476 198.504C25.6472 197.797 27.1976 197.444 28.9988 197.444C30.686 197.444 32.111 197.763 33.2738 198.401C34.4366 199.017 35.3144 199.929 35.9072 201.137C36.5228 202.323 36.8306 203.782 36.8306 205.515C36.8306 207.362 36.4886 208.958 35.8046 210.303C35.1206 211.625 34.1402 212.64 32.8634 213.347C31.5866 214.054 30.0476 214.407 28.2464 214.407ZM28.6568 210.748C29.2496 210.748 29.66 210.52 29.888 210.064C30.116 209.585 30.23 208.718 30.23 207.464C30.23 205.937 30.173 204.751 30.059 203.908C29.9678 203.041 29.7854 202.437 29.5118 202.095C29.261 201.73 28.9076 201.548 28.4516 201.548C27.8588 201.548 27.4484 201.776 27.2204 202.232C26.9924 202.688 26.8784 203.52 26.8784 204.728C26.8784 206.279 26.924 207.499 27.0152 208.388C27.1292 209.254 27.3116 209.87 27.5624 210.235C27.836 210.577 28.2008 210.748 28.6568 210.748Z" fill="#0A0A0A"/>
<path d="M38.6119 214.168L38.9881 211.226C39.3757 211.181 39.6721 211.101 39.8773 210.987C40.0825 210.85 40.2193 210.668 40.2877 210.44C40.3789 210.189 40.4245 209.858 40.4245 209.448V194.674C40.4245 194.058 40.3675 193.613 40.2535 193.34C40.1623 193.043 39.9343 192.861 39.5695 192.793C39.2275 192.701 38.6803 192.656 37.9279 192.656L37.7569 192.416L38.0305 189.851C39.5581 189.669 41.0857 189.475 42.6133 189.27C44.1409 189.065 45.6685 188.848 47.1961 188.62L47.5039 189.509C47.3443 190.011 47.1961 190.661 47.0593 191.459C46.9225 192.257 46.8085 193.226 46.7173 194.366C46.6261 195.506 46.5463 196.84 46.4779 198.367C46.4095 199.872 46.3639 201.605 46.3411 203.566C46.3183 205.504 46.3069 207.681 46.3069 210.098C46.3069 210.508 46.3639 210.793 46.4779 210.953C46.5919 211.112 46.7971 211.192 47.0935 211.192L48.1879 211.158L48.2905 211.397L47.8459 214.133C46.9567 214.088 46.0675 214.054 45.1783 214.031C44.2891 214.008 43.5367 213.997 42.9211 213.997C42.3739 213.997 41.7013 214.008 40.9033 214.031C40.1053 214.076 39.3415 214.122 38.6119 214.168Z" fill="#0A0A0A"/>
<path d="M50.9277 202.882C50.9277 202.334 50.8593 201.958 50.7225 201.753C50.5857 201.548 50.3235 201.445 49.9359 201.445C49.7079 201.445 49.5027 201.457 49.3203 201.479C49.1379 201.479 49.0467 201.479 49.0467 201.479L49.3203 198.641C50.2551 198.527 51.1785 198.401 52.0905 198.265C53.0025 198.128 53.8347 198.002 54.5871 197.888C55.3395 197.752 55.9437 197.649 56.3997 197.581C56.8557 197.489 57.0837 197.444 57.0837 197.444L57.5283 198.196C57.3915 198.47 57.2661 198.903 57.1521 199.496C57.0381 200.066 56.9355 200.773 56.8443 201.616C56.7531 202.437 56.6847 203.338 56.6391 204.318C56.5935 205.276 56.5707 206.267 56.5707 207.293C56.5707 208.707 57.0609 209.414 58.0413 209.414C58.2237 209.414 58.4517 209.368 58.7253 209.277C59.0217 209.163 59.3181 209.026 59.6145 208.867V202.95C59.6145 202.312 59.5461 201.913 59.4093 201.753C59.2725 201.593 58.9305 201.502 58.3833 201.479C58.3377 201.479 58.2807 201.479 58.2123 201.479C58.1667 201.479 58.1211 201.479 58.0755 201.479L58.5201 198.675C59.4093 198.561 60.2985 198.447 61.1877 198.333C62.0769 198.196 62.8977 198.071 63.6501 197.957C64.4025 197.843 65.0067 197.752 65.4627 197.683C65.9187 197.615 66.1467 197.581 66.1467 197.581L66.6255 198.333C66.4203 198.675 66.2265 199.348 66.0441 200.351C65.8845 201.331 65.7477 202.528 65.6337 203.942C65.5425 205.333 65.4969 206.826 65.4969 208.422C65.4969 208.787 65.5881 209.083 65.7705 209.311C65.9529 209.516 66.1923 209.619 66.4887 209.619C66.6711 209.619 66.8421 209.596 67.0017 209.551C67.1841 209.505 67.3323 209.459 67.4463 209.414C67.5603 209.368 67.6173 209.345 67.6173 209.345L68.1987 210.235C68.1987 210.235 68.0847 210.406 67.8567 210.748C67.6287 211.09 67.3095 211.511 66.8991 212.013C66.5115 212.515 66.0669 212.993 65.5653 213.449C65.0637 213.883 64.5393 214.202 63.9921 214.407C61.6209 214.407 60.2871 213.575 59.9907 211.91L59.6145 211.705C58.9761 212.503 58.4061 213.142 57.9045 213.62C57.4257 214.099 57.0723 214.339 56.8443 214.339C54.8151 214.339 53.2647 213.951 52.1931 213.176C51.1443 212.378 50.6199 211.215 50.6199 209.687L50.9277 202.882Z" fill="#0A0A0A"/>
<path d="M75.611 214.407C73.9238 214.407 72.6356 214.042 71.7464 213.313C70.8572 212.56 70.4126 211.489 70.4126 210.098V203.429C70.4126 202.608 70.2986 202.072 70.0706 201.821C69.8654 201.571 69.398 201.445 68.6684 201.445L68.1212 201.137L68.3948 198.709C69.3524 198.276 70.2758 197.809 71.165 197.307C72.077 196.805 72.8864 196.338 73.5932 195.905C74.3 195.472 74.8586 195.118 75.269 194.845C75.7022 194.548 75.9188 194.4 75.9188 194.4L77.2184 195.152C77.2184 195.152 77.1614 195.46 77.0474 196.076C76.9334 196.669 76.8194 197.501 76.7054 198.572L79.5782 198.47L79.7492 198.709L79.373 201.616L76.4318 201.514C76.3862 202.38 76.3406 203.315 76.295 204.318C76.2722 205.298 76.2608 206.393 76.2608 207.601C76.2608 208.354 76.3976 208.924 76.6712 209.311C76.9448 209.676 77.3552 209.858 77.9024 209.858C78.29 209.858 78.6662 209.813 79.031 209.722C79.3958 209.608 79.5782 209.551 79.5782 209.551L80.1254 210.919C80.1254 210.919 79.9544 211.101 79.6124 211.466C79.2704 211.808 78.8486 212.207 78.347 212.663C77.8682 213.119 77.378 213.529 76.8764 213.894C76.3748 214.236 75.953 214.407 75.611 214.407Z" fill="#0A0A0A"/>
<path d="M80.9457 214.339L81.3561 211.295C82.0173 211.249 82.5075 211.067 82.8267 210.748C83.1459 210.406 83.3055 209.915 83.3055 209.277V203.429C83.3055 202.631 83.1915 202.106 82.9635 201.856C82.7583 201.582 82.3251 201.445 81.6639 201.445C81.5727 201.445 81.4245 201.468 81.2193 201.514C81.0141 201.536 80.9115 201.548 80.9115 201.548L81.1851 198.709C82.2111 198.595 83.2143 198.47 84.1947 198.333C85.1979 198.173 86.0985 198.025 86.8965 197.888C87.7173 197.752 88.3671 197.649 88.8459 197.581C89.3247 197.489 89.5641 197.444 89.5641 197.444L90.0087 198.196C89.8719 198.447 89.7465 198.892 89.6325 199.53C89.5413 200.146 89.4615 200.955 89.3931 201.958C89.3247 202.939 89.2677 204.113 89.2221 205.481C89.1993 206.849 89.1879 208.388 89.1879 210.098C89.1879 210.485 89.2449 210.759 89.3589 210.919C89.4957 211.055 89.7237 211.124 90.0429 211.124C90.2025 211.124 90.3735 211.112 90.5559 211.09C90.7383 211.067 90.8295 211.055 90.8295 211.055L90.9321 211.226L90.5217 214.133C90.5217 214.133 90.3507 214.122 90.0087 214.099C89.6895 214.099 89.2791 214.088 88.7775 214.065C88.2987 214.042 87.7971 214.019 87.2727 213.997C86.7483 213.997 86.2923 213.997 85.9047 213.997C85.2435 213.997 84.5253 214.019 83.7501 214.065C82.9749 214.133 82.3137 214.19 81.7665 214.236C81.2193 214.304 80.9457 214.339 80.9457 214.339ZM85.8705 195.871C84.8217 195.871 84.0237 195.597 83.4765 195.05C82.9293 194.48 82.6557 193.67 82.6557 192.622C82.6557 191.527 82.9635 190.661 83.5791 190.022C84.2175 189.384 85.0725 189.065 86.1441 189.065C87.1473 189.065 87.9225 189.35 88.4697 189.92C89.0397 190.49 89.3247 191.288 89.3247 192.314C89.3247 193.408 89.0169 194.275 88.4013 194.913C87.7857 195.551 86.9421 195.871 85.8705 195.871Z" fill="#0A0A0A"/>
<path d="M100.634 214.407C99.0154 214.407 97.6132 214.088 96.4276 213.449C95.2648 212.788 94.3642 211.853 93.7258 210.645C93.0874 209.414 92.7682 207.966 92.7682 206.302C92.7682 204.432 93.1102 202.847 93.7942 201.548C94.4782 200.225 95.4586 199.211 96.7354 198.504C98.035 197.797 99.5854 197.444 101.387 197.444C103.074 197.444 104.499 197.763 105.662 198.401C106.824 199.017 107.702 199.929 108.295 201.137C108.911 202.323 109.218 203.782 109.218 205.515C109.218 207.362 108.876 208.958 108.192 210.303C107.508 211.625 106.528 212.64 105.251 213.347C103.974 214.054 102.435 214.407 100.634 214.407ZM101.045 210.748C101.637 210.748 102.048 210.52 102.276 210.064C102.504 209.585 102.618 208.718 102.618 207.464C102.618 205.937 102.561 204.751 102.447 203.908C102.356 203.041 102.173 202.437 101.9 202.095C101.649 201.73 101.295 201.548 100.839 201.548C100.247 201.548 99.8362 201.776 99.6082 202.232C99.3802 202.688 99.2662 203.52 99.2662 204.728C99.2662 206.279 99.3118 207.499 99.403 208.388C99.517 209.254 99.6994 209.87 99.9502 210.235C100.224 210.577 100.589 210.748 101.045 210.748Z" fill="#0A0A0A"/>
<path d="M121.499 211.124C121.91 211.078 122.206 210.941 122.388 210.713C122.571 210.463 122.673 210.075 122.696 209.551L122.765 204.728C122.787 203.862 122.685 203.258 122.457 202.916C122.252 202.574 121.864 202.403 121.294 202.403C121.134 202.403 120.963 202.437 120.781 202.505C120.599 202.574 120.416 202.665 120.234 202.779C120.074 202.893 119.915 203.007 119.755 203.121C119.709 203.759 119.664 204.455 119.618 205.207C119.573 205.937 119.527 206.644 119.481 207.328C119.436 207.989 119.402 208.559 119.379 209.038C119.356 209.516 119.345 209.824 119.345 209.961C119.345 210.394 119.402 210.691 119.516 210.85C119.63 210.987 119.846 211.055 120.165 211.055C120.234 211.055 120.336 211.055 120.473 211.055C120.633 211.033 120.713 211.021 120.713 211.021L120.815 211.192L120.405 214.133C120.405 214.133 120.154 214.122 119.652 214.099C119.151 214.076 118.569 214.054 117.908 214.031C117.27 214.008 116.711 213.997 116.232 213.997C115.526 213.997 114.796 214.008 114.044 214.031C113.291 214.054 112.653 214.076 112.128 214.099C111.627 214.145 111.376 214.168 111.376 214.168L111.786 211.192C112.448 211.147 112.904 210.998 113.154 210.748C113.405 210.497 113.531 210.052 113.531 209.414V203.497C113.531 202.699 113.417 202.175 113.189 201.924C112.983 201.65 112.55 201.514 111.889 201.514H111.342L111.171 201.274L111.444 198.709C112.767 198.527 114.044 198.344 115.275 198.162C116.506 197.957 117.521 197.786 118.319 197.649C119.117 197.512 119.516 197.444 119.516 197.444L119.926 197.854C119.926 197.854 119.869 198.128 119.755 198.675C119.641 199.199 119.561 199.758 119.516 200.351L119.755 200.488C120.097 200.146 120.439 199.792 120.781 199.427C121.146 199.063 121.499 198.732 121.841 198.436C122.183 198.139 122.491 197.9 122.765 197.717C123.061 197.535 123.289 197.444 123.449 197.444C125.295 197.444 126.698 197.82 127.655 198.572C128.636 199.325 129.126 200.431 129.126 201.89C129.126 202.255 129.08 202.813 128.989 203.566C128.921 204.295 128.841 205.093 128.75 205.96C128.658 206.803 128.567 207.59 128.476 208.319C128.408 209.026 128.373 209.551 128.373 209.893C128.373 210.371 128.442 210.702 128.579 210.884C128.715 211.067 128.955 211.158 129.297 211.158C129.479 211.158 129.662 211.158 129.844 211.158C130.049 211.135 130.152 211.124 130.152 211.124L130.22 211.261L129.844 214.133C129.844 214.133 129.673 214.122 129.331 214.099C129.012 214.099 128.613 214.088 128.134 214.065C127.655 214.042 127.165 214.019 126.663 213.997C126.162 213.997 125.74 213.997 125.398 213.997C125.102 213.997 124.714 213.997 124.235 213.997C123.779 214.019 123.312 214.031 122.833 214.031C122.377 214.054 121.989 214.065 121.67 214.065C121.374 214.088 121.226 214.099 121.226 214.099L121.499 211.124Z" fill="#0A0A0A"/>
<path d="M137.132 214.407C136.129 214.407 135.24 214.304 134.464 214.099C133.689 213.917 133.085 213.734 132.652 213.552C132.219 213.347 132.002 213.244 132.002 213.244L131.66 212.765C131.728 212.355 131.785 211.91 131.831 211.432C131.899 210.93 131.956 210.417 132.002 209.893C132.07 209.368 132.127 208.855 132.173 208.354L134.909 208.148C134.932 208.901 135.194 209.539 135.696 210.064C136.22 210.588 136.847 210.85 137.577 210.85C137.987 210.85 138.318 210.77 138.568 210.611C138.819 210.451 138.945 210.235 138.945 209.961C138.945 209.733 138.865 209.528 138.705 209.345C138.568 209.163 138.306 208.969 137.919 208.764C137.531 208.559 136.95 208.308 136.174 208.012C134.738 207.419 133.689 206.735 133.028 205.96C132.39 205.184 132.07 204.238 132.07 203.121C132.07 201.958 132.401 200.955 133.062 200.111C133.723 199.268 134.647 198.618 135.832 198.162C137.041 197.683 138.454 197.444 140.073 197.444C141.396 197.444 142.433 197.558 143.185 197.786C143.961 198.014 144.348 198.128 144.348 198.128L144.656 198.709C144.656 198.709 144.622 198.949 144.553 199.427C144.485 199.883 144.394 200.476 144.28 201.206C144.189 201.913 144.109 202.654 144.04 203.429L141.304 203.566C141.304 203.566 141.304 203.554 141.304 203.531C141.304 203.486 141.304 203.452 141.304 203.429C141.282 202.631 141.111 202.049 140.791 201.685C140.495 201.32 140.039 201.137 139.423 201.137C139.013 201.137 138.682 201.229 138.432 201.411C138.204 201.593 138.09 201.844 138.09 202.163C138.09 202.46 138.215 202.722 138.466 202.95C138.717 203.178 139.127 203.417 139.697 203.668C141.133 204.261 142.228 204.82 142.98 205.344C143.755 205.846 144.291 206.381 144.588 206.951C144.884 207.521 145.032 208.217 145.032 209.038C145.032 210.086 144.69 211.021 144.006 211.842C143.345 212.64 142.422 213.267 141.236 213.723C140.05 214.179 138.682 214.407 137.132 214.407Z" fill="#0A0A0A"/>
<path d="M160.807 214.407C159.257 214.407 158.162 214.099 157.524 213.484C156.886 212.845 156.566 211.774 156.566 210.269V201.856C156.566 201.24 156.43 200.807 156.156 200.556C155.882 200.305 155.369 200.168 154.617 200.146L154.48 199.94L154.651 198.914C155.198 198.641 155.723 198.333 156.224 197.991C156.749 197.626 157.205 197.284 157.592 196.965C158.003 196.623 158.322 196.349 158.55 196.144C158.778 195.916 158.892 195.802 158.892 195.802L159.576 196.076C159.576 196.076 159.542 196.292 159.473 196.726C159.428 197.159 159.371 197.797 159.302 198.641L164.33 198.538L164.432 198.641L164.125 200.453L159.166 200.351C159.097 201.422 159.04 202.676 158.995 204.113C158.949 205.549 158.926 207.145 158.926 208.901C158.926 210.064 159.12 210.884 159.508 211.363C159.918 211.842 160.613 212.081 161.594 212.081C162.164 212.081 162.688 211.979 163.167 211.774C163.669 211.568 163.919 211.466 163.919 211.466L164.261 212.355C164.261 212.355 164.125 212.458 163.851 212.663C163.577 212.868 163.235 213.107 162.825 213.381C162.437 213.655 162.05 213.894 161.662 214.099C161.297 214.304 161.012 214.407 160.807 214.407Z" fill="#0A0A0A"/>
<path d="M166.932 212.663C167.593 212.594 168.049 212.423 168.3 212.15C168.573 211.876 168.71 211.42 168.71 210.782V192.587C168.71 191.972 168.607 191.527 168.402 191.254C168.22 190.957 167.901 190.809 167.445 190.809H166.726L166.59 190.706L166.726 189.612C167.251 189.544 167.821 189.452 168.436 189.338C169.075 189.224 169.69 189.11 170.283 188.996C170.876 188.86 171.378 188.734 171.788 188.62L171.993 189.065C171.902 189.224 171.799 189.829 171.685 190.877C171.571 191.926 171.469 193.306 171.378 195.016C171.309 196.726 171.241 198.652 171.172 200.795C171.332 200.681 171.617 200.488 172.027 200.214C172.461 199.918 172.939 199.61 173.464 199.291C174.011 198.971 174.535 198.698 175.037 198.47C175.561 198.242 175.983 198.128 176.302 198.128C177.784 198.128 178.936 198.515 179.757 199.291C180.577 200.043 180.988 201.126 180.988 202.54C180.988 202.836 180.954 203.326 180.885 204.01C180.84 204.694 180.783 205.458 180.714 206.302C180.646 207.145 180.577 207.955 180.509 208.73C180.463 209.505 180.441 210.143 180.441 210.645C180.441 211.306 180.532 211.796 180.714 212.116C180.897 212.412 181.204 212.56 181.638 212.56C181.774 212.56 181.957 212.56 182.185 212.56C182.436 212.537 182.652 212.515 182.835 212.492L182.903 212.629L182.629 214.099C182.265 214.076 181.774 214.054 181.159 214.031C180.566 214.008 180.042 213.997 179.586 213.997C179.312 213.997 178.981 214.008 178.594 214.031C178.206 214.076 177.796 214.122 177.363 214.168C176.929 214.236 176.496 214.316 176.063 214.407L176.2 213.005C176.884 212.822 177.374 212.56 177.67 212.218C177.967 211.853 178.115 211.375 178.115 210.782L178.32 204.01C178.32 202.87 178.069 201.992 177.568 201.377C177.089 200.761 176.394 200.453 175.482 200.453C174.912 200.453 174.205 200.636 173.361 201.001C172.54 201.365 171.799 201.81 171.138 202.334C171.115 203.178 171.093 204.056 171.07 204.968C171.07 205.88 171.058 206.815 171.036 207.772C171.036 208.707 171.036 209.665 171.036 210.645C171.036 211.352 171.127 211.853 171.309 212.15C171.514 212.423 171.834 212.56 172.267 212.56C172.404 212.56 172.586 212.56 172.814 212.56C173.065 212.537 173.281 212.515 173.464 212.492L173.532 212.629L173.224 214.099C172.837 214.076 172.335 214.054 171.72 214.031C171.104 214.008 170.568 213.997 170.112 213.997C169.633 213.997 169.063 213.997 168.402 213.997C167.764 214.019 167.205 214.042 166.726 214.065L166.932 212.663Z" fill="#0A0A0A"/>
<path d="M197.41 214.407C196.498 214.407 195.78 214.179 195.255 213.723C194.754 213.244 194.457 212.549 194.366 211.637L194.229 211.603C193.682 212.15 193.158 212.629 192.656 213.039C192.177 213.427 191.744 213.734 191.357 213.962C190.992 214.168 190.695 214.27 190.467 214.27C189.624 214.27 188.871 214.088 188.21 213.723C187.549 213.358 187.025 212.857 186.637 212.218C186.272 211.58 186.09 210.85 186.09 210.029C186.09 209.368 186.249 208.787 186.569 208.285C186.911 207.784 187.355 207.453 187.902 207.293L194.4 205.515L194.435 204.01C194.435 202.87 194.172 201.981 193.648 201.343C193.124 200.704 192.383 200.385 191.425 200.385C190.787 200.385 190.114 200.533 189.407 200.83C188.7 201.126 188.005 201.548 187.321 202.095L187.15 201.992L186.74 200.522C187.332 200.18 187.994 199.826 188.723 199.462C189.453 199.074 190.148 198.755 190.809 198.504C191.471 198.253 191.972 198.128 192.314 198.128C193.317 198.128 194.172 198.31 194.879 198.675C195.586 199.017 196.122 199.519 196.487 200.18C196.874 200.818 197.068 201.605 197.068 202.54C197.068 202.836 197.034 203.315 196.965 203.976C196.92 204.637 196.851 205.378 196.76 206.199C196.669 206.997 196.589 207.772 196.521 208.525C196.475 209.277 196.452 209.904 196.452 210.406C196.452 210.907 196.578 211.295 196.829 211.568C197.079 211.842 197.421 211.979 197.855 211.979C198.242 211.979 198.63 211.888 199.017 211.705C199.405 211.5 199.701 211.306 199.907 211.124L200.385 211.671C200.203 211.967 199.952 212.309 199.633 212.697C199.337 213.062 198.995 213.404 198.607 213.723C198.242 214.042 197.843 214.27 197.41 214.407ZM191.049 211.945C191.482 211.945 191.984 211.796 192.554 211.5C193.146 211.181 193.682 210.782 194.161 210.303L194.332 206.815L189.681 208.217C189.02 208.422 188.689 208.901 188.689 209.653C188.689 210.292 188.906 210.839 189.339 211.295C189.795 211.728 190.365 211.945 191.049 211.945Z" fill="#0A0A0A"/>
<path d="M208.348 214.407C206.797 214.407 205.703 214.099 205.065 213.484C204.426 212.845 204.107 211.774 204.107 210.269V201.856C204.107 201.24 203.97 200.807 203.697 200.556C203.423 200.305 202.91 200.168 202.158 200.146L202.021 199.94L202.192 198.914C202.739 198.641 203.263 198.333 203.765 197.991C204.289 197.626 204.745 197.284 205.133 196.965C205.543 196.623 205.863 196.349 206.091 196.144C206.319 195.916 206.433 195.802 206.433 195.802L207.117 196.076C207.117 196.076 207.082 196.292 207.014 196.726C206.968 197.159 206.911 197.797 206.843 198.641L211.87 198.538L211.973 198.641L211.665 200.453L206.706 200.351C206.638 201.422 206.581 202.676 206.535 204.113C206.49 205.549 206.467 207.145 206.467 208.901C206.467 210.064 206.661 210.884 207.048 211.363C207.459 211.842 208.154 212.081 209.134 212.081C209.704 212.081 210.229 211.979 210.708 211.774C211.209 211.568 211.46 211.466 211.46 211.466L211.802 212.355C211.802 212.355 211.665 212.458 211.392 212.663C211.118 212.868 210.776 213.107 210.366 213.381C209.978 213.655 209.59 213.894 209.203 214.099C208.838 214.304 208.553 214.407 208.348 214.407Z" fill="#0A0A0A"/>
<path d="M229.187 214.407C227.522 214.407 226.086 214.076 224.877 213.415C223.692 212.754 222.78 211.808 222.141 210.577C221.526 209.345 221.218 207.863 221.218 206.131C221.218 204.375 221.583 202.847 222.312 201.548C223.042 200.248 224.068 199.245 225.39 198.538C226.713 197.809 228.263 197.444 230.042 197.444C231.045 197.444 231.888 197.512 232.572 197.649C233.279 197.763 233.815 197.888 234.18 198.025C234.567 198.139 234.761 198.196 234.761 198.196L234.932 198.572C234.932 198.572 234.875 198.857 234.761 199.427C234.67 199.997 234.567 200.738 234.453 201.65C234.339 202.54 234.237 203.497 234.146 204.523L230.999 204.694V203.463C230.999 202.733 230.897 202.22 230.691 201.924C230.486 201.628 230.133 201.479 229.631 201.479C228.993 201.479 228.503 201.742 228.161 202.266C227.841 202.79 227.682 203.588 227.682 204.66C227.682 206.393 227.898 207.67 228.332 208.49C228.788 209.311 229.494 209.722 230.452 209.722C231.068 209.722 231.626 209.653 232.128 209.516C232.652 209.357 233.063 209.209 233.359 209.072C233.655 208.912 233.804 208.832 233.804 208.832L234.146 209.003L234.898 211.568C234.898 211.568 234.716 211.717 234.351 212.013C234.009 212.287 233.553 212.617 232.983 213.005C232.413 213.37 231.786 213.7 231.102 213.997C230.441 214.27 229.802 214.407 229.187 214.407Z" fill="#0A0A0A"/>
<path d="M249.627 214.407C248.51 214.407 247.609 214.19 246.925 213.757C246.264 213.324 245.876 212.708 245.762 211.91L245.352 211.739C245.01 212.104 244.611 212.48 244.155 212.868C243.699 213.256 243.243 213.586 242.787 213.86C242.331 214.133 241.92 214.27 241.556 214.27C240.621 214.27 239.766 214.019 238.991 213.518C238.238 212.993 237.634 212.287 237.178 211.397C236.745 210.508 236.528 209.528 236.528 208.456C236.528 207.704 236.733 207.054 237.144 206.507C237.554 205.96 238.079 205.618 238.717 205.481L245.42 204.25V204.215C245.42 203.44 245.169 202.836 244.668 202.403C244.166 201.97 243.482 201.753 242.616 201.753C241.977 201.753 241.271 201.924 240.495 202.266C239.743 202.585 239.139 202.904 238.683 203.224L238.272 203.018L237.417 200.282C238.193 199.872 239.048 199.45 239.982 199.017C240.917 198.561 241.795 198.185 242.616 197.888C243.459 197.592 244.098 197.444 244.531 197.444C246.264 197.444 247.62 197.683 248.601 198.162C249.604 198.641 250.311 199.256 250.721 200.009C251.132 200.761 251.337 201.559 251.337 202.403C251.337 202.676 251.291 203.098 251.2 203.668C251.132 204.238 251.052 204.842 250.961 205.481C250.869 206.119 250.778 206.712 250.687 207.259C250.619 207.806 250.584 208.205 250.584 208.456C250.584 208.798 250.676 209.083 250.858 209.311C251.04 209.516 251.28 209.619 251.576 209.619C251.781 209.619 251.987 209.585 252.192 209.516C252.42 209.448 252.602 209.391 252.739 209.345L253.32 210.269C253.024 210.816 252.659 211.397 252.226 212.013C251.793 212.629 251.348 213.164 250.892 213.62C250.436 214.054 250.014 214.316 249.627 214.407ZM243.642 209.893C243.893 209.893 244.178 209.87 244.497 209.824C244.816 209.779 245.09 209.733 245.318 209.687L245.352 206.746L242.889 207.293C242.479 207.385 242.274 207.635 242.274 208.046C242.274 208.57 242.388 209.015 242.616 209.38C242.867 209.722 243.209 209.893 243.642 209.893Z" fill="#0A0A0A"/>
<path d="M254.412 222.034L254.823 219.058C255.37 219.013 255.723 218.864 255.883 218.614C256.065 218.386 256.179 217.941 256.225 217.28C256.271 216.755 256.305 216.22 256.328 215.672C256.373 215.148 256.407 214.624 256.43 214.099C256.453 213.575 256.464 213.05 256.464 212.526V203.497C256.464 202.699 256.35 202.175 256.122 201.924C255.917 201.65 255.484 201.514 254.823 201.514H254.276L254.105 201.274L254.378 198.709C255.701 198.527 256.966 198.344 258.174 198.162C259.406 197.957 260.409 197.786 261.184 197.649C261.959 197.512 262.347 197.444 262.347 197.444L262.757 197.854C262.757 197.854 262.7 198.128 262.586 198.675C262.495 199.222 262.415 199.781 262.347 200.351L262.484 200.419C263.259 199.484 263.874 198.789 264.33 198.333C264.809 197.854 265.128 197.615 265.288 197.615C266.702 197.615 267.933 197.934 268.982 198.572C270.03 199.211 270.84 200.123 271.41 201.308C272.003 202.471 272.299 203.839 272.299 205.412C272.299 206.894 272.071 208.194 271.615 209.311C271.182 210.406 270.543 211.318 269.7 212.047C268.856 212.777 267.83 213.324 266.622 213.689C265.436 214.054 264.091 214.236 262.586 214.236C262.541 214.236 262.495 214.225 262.449 214.202C262.404 214.202 262.37 214.202 262.347 214.202C262.324 214.202 262.313 214.202 262.313 214.202C262.313 214.635 262.301 215.08 262.278 215.536C262.278 216.014 262.278 216.482 262.278 216.938C262.278 217.645 262.301 218.146 262.347 218.443C262.415 218.762 262.666 218.921 263.099 218.921C263.418 218.921 263.772 218.899 264.159 218.853C264.547 218.83 264.741 218.819 264.741 218.819L264.843 218.99L264.365 221.999C264.365 221.999 264.171 221.988 263.783 221.965C263.396 221.965 262.917 221.954 262.347 221.931C261.777 221.908 261.195 221.885 260.603 221.863C260.033 221.863 259.554 221.863 259.166 221.863C258.551 221.863 257.867 221.874 257.114 221.897C256.385 221.92 255.746 221.942 255.199 221.965C254.675 222.011 254.412 222.034 254.412 222.034ZM264.091 210.371C264.684 210.371 265.128 210.086 265.425 209.516C265.721 208.924 265.869 208.023 265.869 206.815C265.869 205.72 265.801 204.831 265.664 204.147C265.527 203.463 265.299 202.961 264.98 202.642C264.684 202.323 264.296 202.163 263.817 202.163C263.635 202.163 263.441 202.186 263.236 202.232C263.031 202.277 262.837 202.346 262.655 202.437C262.632 203.281 262.609 204.17 262.586 205.105C262.563 206.017 262.541 206.906 262.518 207.772C262.518 208.616 262.518 209.38 262.518 210.064C262.518 210.064 262.666 210.121 262.962 210.235C263.282 210.326 263.658 210.371 264.091 210.371Z" fill="#0A0A0A"/>
<path d="M280.468 214.407C278.78 214.407 277.492 214.042 276.603 213.313C275.714 212.56 275.269 211.489 275.269 210.098V203.429C275.269 202.608 275.155 202.072 274.927 201.821C274.722 201.571 274.255 201.445 273.525 201.445L272.978 201.137L273.251 198.709C274.209 198.276 275.132 197.809 276.022 197.307C276.934 196.805 277.743 196.338 278.45 195.905C279.157 195.472 279.715 195.118 280.126 194.845C280.559 194.548 280.775 194.4 280.775 194.4L282.075 195.152C282.075 195.152 282.018 195.46 281.904 196.076C281.79 196.669 281.676 197.501 281.562 198.572L284.435 198.47L284.606 198.709L284.23 201.616L281.288 201.514C281.243 202.38 281.197 203.315 281.152 204.318C281.129 205.298 281.117 206.393 281.117 207.601C281.117 208.354 281.254 208.924 281.528 209.311C281.801 209.676 282.212 209.858 282.759 209.858C283.147 209.858 283.523 209.813 283.888 209.722C284.252 209.608 284.435 209.551 284.435 209.551L284.982 210.919C284.982 210.919 284.811 211.101 284.469 211.466C284.127 211.808 283.705 212.207 283.204 212.663C282.725 213.119 282.235 213.529 281.733 213.894C281.231 214.236 280.81 214.407 280.468 214.407Z" fill="#0A0A0A"/>
<path d="M285.802 214.339L286.213 211.295C286.874 211.249 287.364 211.067 287.683 210.748C288.003 210.406 288.162 209.915 288.162 209.277V203.429C288.162 202.631 288.048 202.106 287.82 201.856C287.615 201.582 287.182 201.445 286.521 201.445C286.429 201.445 286.281 201.468 286.076 201.514C285.871 201.536 285.768 201.548 285.768 201.548L286.042 198.709C287.068 198.595 288.071 198.47 289.051 198.333C290.055 198.173 290.955 198.025 291.753 197.888C292.574 197.752 293.224 197.649 293.703 197.581C294.181 197.489 294.421 197.444 294.421 197.444L294.865 198.196C294.729 198.447 294.603 198.892 294.489 199.53C294.398 200.146 294.318 200.955 294.25 201.958C294.181 202.939 294.124 204.113 294.079 205.481C294.056 206.849 294.045 208.388 294.045 210.098C294.045 210.485 294.102 210.759 294.216 210.919C294.352 211.055 294.58 211.124 294.9 211.124C295.059 211.124 295.23 211.112 295.413 211.09C295.595 211.067 295.686 211.055 295.686 211.055L295.789 211.226L295.378 214.133C295.378 214.133 295.207 214.122 294.865 214.099C294.546 214.099 294.136 214.088 293.634 214.065C293.155 214.042 292.654 214.019 292.129 213.997C291.605 213.997 291.149 213.997 290.761 213.997C290.1 213.997 289.382 214.019 288.607 214.065C287.832 214.133 287.17 214.19 286.623 214.236C286.076 214.304 285.802 214.339 285.802 214.339ZM290.727 195.871C289.678 195.871 288.88 195.597 288.333 195.05C287.786 194.48 287.512 193.67 287.512 192.622C287.512 191.527 287.82 190.661 288.436 190.022C289.074 189.384 289.929 189.065 291.001 189.065C292.004 189.065 292.779 189.35 293.326 189.92C293.896 190.49 294.181 191.288 294.181 192.314C294.181 193.408 293.874 194.275 293.258 194.913C292.642 195.551 291.799 195.871 290.727 195.871Z" fill="#0A0A0A"/>
<path d="M301.079 214.441C301.079 214.441 301.022 214.202 300.908 213.723C300.794 213.244 300.646 212.617 300.463 211.842C300.281 211.067 300.076 210.223 299.848 209.311C299.643 208.399 299.426 207.499 299.198 206.609C298.993 205.697 298.799 204.888 298.617 204.181C298.457 203.474 298.32 202.939 298.206 202.574C297.864 201.434 297.226 200.852 296.291 200.83L296.223 200.659L296.496 197.786C296.496 197.786 296.701 197.797 297.112 197.82C297.522 197.82 298.012 197.831 298.582 197.854C299.175 197.854 299.711 197.854 300.19 197.854C301.011 197.854 301.831 197.831 302.652 197.786C303.473 197.74 304.146 197.706 304.67 197.683C305.217 197.638 305.491 197.615 305.491 197.615L305.559 197.786L305.183 200.795C304.567 200.909 304.203 201.012 304.089 201.103C303.975 201.172 303.918 201.365 303.918 201.685C303.918 201.821 303.94 202.095 303.986 202.505C304.054 202.916 304.134 203.406 304.225 203.976C304.317 204.523 304.408 205.093 304.499 205.686C304.613 206.279 304.716 206.826 304.807 207.328C304.898 207.829 304.966 208.24 305.012 208.559C305.08 208.878 305.115 209.038 305.115 209.038H305.696C306.038 207.875 306.346 206.746 306.619 205.652C306.893 204.557 307.11 203.623 307.269 202.847C307.452 202.072 307.543 201.593 307.543 201.411C307.543 201.183 307.497 201.046 307.406 201.001C307.338 200.932 307.144 200.898 306.825 200.898H306.277L306.141 200.659L306.517 197.786C306.517 197.786 306.745 197.797 307.201 197.82C307.657 197.82 308.181 197.831 308.774 197.854C309.39 197.854 309.937 197.854 310.416 197.854C310.94 197.854 311.464 197.854 311.989 197.854C312.513 197.831 312.958 197.82 313.323 197.82C313.687 197.82 313.87 197.82 313.87 197.82L313.562 200.83C313.015 200.921 312.661 201.046 312.502 201.206C312.342 201.343 312.183 201.673 312.023 202.198L308.466 213.997L301.079 214.441Z" fill="#0A0A0A"/>
<path d="M327.325 214.407C326.208 214.407 325.307 214.19 324.623 213.757C323.962 213.324 323.574 212.708 323.46 211.91L323.05 211.739C322.708 212.104 322.309 212.48 321.853 212.868C321.397 213.256 320.941 213.586 320.485 213.86C320.029 214.133 319.618 214.27 319.254 214.27C318.319 214.27 317.464 214.019 316.689 213.518C315.936 212.993 315.332 212.287 314.876 211.397C314.443 210.508 314.226 209.528 314.226 208.456C314.226 207.704 314.431 207.054 314.842 206.507C315.252 205.96 315.777 205.618 316.415 205.481L323.118 204.25V204.215C323.118 203.44 322.867 202.836 322.366 202.403C321.864 201.97 321.18 201.753 320.314 201.753C319.675 201.753 318.969 201.924 318.193 202.266C317.441 202.585 316.837 202.904 316.381 203.224L315.97 203.018L315.115 200.282C315.891 199.872 316.746 199.45 317.68 199.017C318.615 198.561 319.493 198.185 320.314 197.888C321.157 197.592 321.796 197.444 322.229 197.444C323.962 197.444 325.318 197.683 326.299 198.162C327.302 198.641 328.009 199.256 328.419 200.009C328.83 200.761 329.035 201.559 329.035 202.403C329.035 202.676 328.989 203.098 328.898 203.668C328.83 204.238 328.75 204.842 328.659 205.481C328.567 206.119 328.476 206.712 328.385 207.259C328.317 207.806 328.282 208.205 328.282 208.456C328.282 208.798 328.374 209.083 328.556 209.311C328.738 209.516 328.978 209.619 329.274 209.619C329.479 209.619 329.685 209.585 329.89 209.516C330.118 209.448 330.3 209.391 330.437 209.345L331.018 210.269C330.722 210.816 330.357 211.397 329.924 212.013C329.491 212.629 329.046 213.164 328.59 213.62C328.134 214.054 327.712 214.316 327.325 214.407ZM321.34 209.893C321.591 209.893 321.876 209.87 322.195 209.824C322.514 209.779 322.788 209.733 323.016 209.687L323.05 206.746L320.587 207.293C320.177 207.385 319.972 207.635 319.972 208.046C319.972 208.57 320.086 209.015 320.314 209.38C320.565 209.722 320.907 209.893 321.34 209.893Z" fill="#0A0A0A"/>
<path d="M338.745 214.407C337.058 214.407 335.77 214.042 334.881 213.313C333.991 212.56 333.547 211.489 333.547 210.098V203.429C333.547 202.608 333.433 202.072 333.205 201.821C333 201.571 332.532 201.445 331.803 201.445L331.255 201.137L331.529 198.709C332.487 198.276 333.41 197.809 334.299 197.307C335.211 196.805 336.021 196.338 336.727 195.905C337.434 195.472 337.993 195.118 338.403 194.845C338.836 194.548 339.053 194.4 339.053 194.4L340.353 195.152C340.353 195.152 340.296 195.46 340.182 196.076C340.068 196.669 339.954 197.501 339.84 198.572L342.712 198.47L342.883 198.709L342.507 201.616L339.566 201.514C339.52 202.38 339.475 203.315 339.429 204.318C339.406 205.298 339.395 206.393 339.395 207.601C339.395 208.354 339.532 208.924 339.805 209.311C340.079 209.676 340.489 209.858 341.037 209.858C341.424 209.858 341.8 209.813 342.165 209.722C342.53 209.608 342.712 209.551 342.712 209.551L343.26 210.919C343.26 210.919 343.089 211.101 342.747 211.466C342.405 211.808 341.983 212.207 341.481 212.663C341.002 213.119 340.512 213.529 340.011 213.894C339.509 214.236 339.087 214.407 338.745 214.407Z" fill="#0A0A0A"/>
<path d="M352.698 214.407C350.92 214.407 349.404 214.088 348.15 213.449C346.896 212.811 345.938 211.876 345.277 210.645C344.639 209.391 344.319 207.886 344.319 206.131C344.319 204.808 344.525 203.623 344.935 202.574C345.345 201.502 345.927 200.59 346.679 199.838C347.454 199.063 348.378 198.47 349.449 198.059C350.521 197.649 351.718 197.444 353.04 197.444C357.372 197.444 359.538 199.724 359.538 204.284C359.538 204.694 359.504 205.116 359.436 205.549C359.367 205.96 359.31 206.29 359.265 206.541L358.889 206.883H350.783C350.874 207.932 351.228 208.718 351.843 209.243C352.482 209.767 353.337 210.007 354.408 209.961C355.503 209.915 356.768 209.573 358.205 208.935L358.512 209.106L359.265 211.637C358.763 212.024 358.136 212.435 357.384 212.868C356.631 213.301 355.845 213.666 355.024 213.962C354.203 214.259 353.428 214.407 352.698 214.407ZM350.612 204.284L353.451 204.079C353.633 204.056 353.747 204.01 353.793 203.942C353.838 203.851 353.861 203.691 353.861 203.463C353.861 202.711 353.747 202.152 353.519 201.787C353.291 201.422 352.949 201.24 352.493 201.24C351.809 201.24 351.319 201.479 351.023 201.958C350.749 202.414 350.612 203.189 350.612 204.284Z" fill="#0A0A0A"/>
<path d="M375.909 214.441C374.29 214.441 372.888 214.099 371.702 213.415C370.517 212.731 369.605 211.762 368.966 210.508C368.328 209.254 368.009 207.784 368.009 206.096C368.009 204.797 368.214 203.588 368.624 202.471C369.058 201.331 369.628 200.328 370.334 199.462C371.064 198.595 371.873 197.923 372.763 197.444C373.674 196.942 374.609 196.691 375.567 196.691C376.525 196.691 377.266 196.931 377.79 197.41C378.314 197.866 378.577 198.504 378.577 199.325C378.577 199.826 378.485 200.248 378.303 200.59C378.121 200.909 378.029 201.069 378.029 201.069L378.166 201.137C380.674 199.45 382.601 197.752 383.946 196.042C385.314 194.332 386.123 192.565 386.374 190.741L386.614 190.535H387.298C387.298 190.535 387.332 190.661 387.4 190.912C387.491 191.14 387.594 191.436 387.708 191.801C387.822 192.143 387.913 192.496 387.982 192.861C388.073 193.203 388.118 193.499 388.118 193.75C388.118 193.933 388.004 194.195 387.776 194.537C387.571 194.879 387.332 195.221 387.058 195.563C386.785 195.882 386.557 196.133 386.374 196.315C385.69 197.113 384.915 197.9 384.049 198.675C383.205 199.427 382.179 200.237 380.971 201.103C379.762 201.947 378.292 202.893 376.559 203.942C374.849 204.968 372.785 206.153 370.369 207.499C370.756 208.958 371.52 210.121 372.66 210.987C373.8 211.831 375.236 212.252 376.969 212.252C379.135 212.252 380.936 211.58 382.373 210.235C383.832 208.867 384.744 206.986 385.109 204.592L387.195 205.036C386.762 206.815 385.975 208.422 384.835 209.858C383.695 211.272 382.35 212.389 380.8 213.21C379.249 214.031 377.619 214.441 375.909 214.441ZM370.232 206.062C371.759 205.15 372.922 204.386 373.72 203.771C374.541 203.155 375.1 202.597 375.396 202.095C375.715 201.593 375.875 201.046 375.875 200.453C375.875 199.975 375.738 199.61 375.464 199.359C375.214 199.085 374.86 198.949 374.404 198.949C373.674 198.949 372.991 199.211 372.352 199.735C371.714 200.26 371.201 200.978 370.813 201.89C370.426 202.802 370.232 203.851 370.232 205.036C370.232 205.196 370.232 205.378 370.232 205.583C370.232 205.766 370.232 205.925 370.232 206.062ZM380.081 207.054L379.192 206.302V206.131L382.407 202.711L382.954 202.505C383.319 202.505 383.821 202.551 384.459 202.642C385.097 202.733 385.781 202.847 386.511 202.984C387.241 203.121 387.925 203.235 388.563 203.326C389.224 203.417 389.749 203.463 390.136 203.463C390.273 203.463 390.478 203.36 390.752 203.155C391.025 202.927 391.31 202.665 391.607 202.369C391.926 202.072 392.188 201.821 392.393 201.616C392.599 201.388 392.701 201.274 392.701 201.274H392.975L393.761 202.027V202.232L390.649 205.652L390.034 205.891L382.954 204.899C382.772 204.899 382.532 205.013 382.236 205.241C381.94 205.447 381.643 205.697 381.347 205.994C381.05 206.267 380.8 206.518 380.594 206.746C380.389 206.951 380.287 207.054 380.287 207.054H380.081Z" fill="#0A0A0A"/>
<path d="M421.128 208.73C421.196 208.73 421.253 208.718 421.299 208.696C421.345 208.673 421.481 208.57 421.709 208.388C421.937 208.183 422.336 207.829 422.906 207.328L423.693 207.464L424.377 209.106C423.123 210.497 422.074 211.58 421.231 212.355C420.41 213.107 419.68 213.643 419.042 213.962C418.426 214.259 417.788 214.407 417.127 214.407C415.964 214.407 415.382 213.86 415.382 212.765C415.382 212.674 415.382 212.572 415.382 212.458C415.405 212.321 415.428 212.15 415.451 211.945C415.496 211.739 415.553 211.5 415.622 211.226C415.69 210.93 415.77 210.565 415.861 210.132C415.975 209.699 416.101 209.186 416.237 208.593H415.895C415.006 210.143 414.208 211.375 413.501 212.287C412.795 213.176 412.076 213.883 411.347 214.407C409.728 214.407 408.463 213.94 407.551 213.005C406.639 212.047 406.183 210.725 406.183 209.038C406.183 207.692 406.433 206.359 406.935 205.036C407.437 203.714 408.109 202.517 408.953 201.445C409.796 200.351 410.731 199.484 411.757 198.846C412.783 198.185 413.821 197.854 414.869 197.854L417.161 198.504L417.913 193.306C417.982 192.758 417.925 192.382 417.742 192.177C417.583 191.949 417.275 191.835 416.819 191.835H415.861L416.272 189.031C417.047 189.031 417.879 189.008 418.768 188.962C419.68 188.917 420.535 188.871 421.333 188.825C422.131 188.78 422.781 188.734 423.283 188.689C423.784 188.643 424.035 188.62 424.035 188.62L424.582 189.304C424.582 189.304 424.514 189.635 424.377 190.296C424.263 190.934 424.103 191.812 423.898 192.929C423.693 194.024 423.465 195.255 423.214 196.623C422.963 197.991 422.701 199.405 422.428 200.864C422.154 202.3 421.892 203.691 421.641 205.036C421.39 206.381 421.174 207.578 420.991 208.627L421.128 208.73ZM412.92 209.106C413.171 209.106 413.501 208.775 413.912 208.114C414.345 207.43 414.778 206.575 415.211 205.549C415.667 204.5 416.055 203.429 416.374 202.334C416.374 202.334 416.249 202.266 415.998 202.129C415.747 201.97 415.428 201.821 415.04 201.685C414.653 201.525 414.254 201.445 413.843 201.445C413.638 201.445 413.422 201.73 413.194 202.3C412.988 202.847 412.806 203.543 412.646 204.386C412.51 205.207 412.441 206.039 412.441 206.883C412.441 207.544 412.487 208.08 412.578 208.49C412.669 208.901 412.783 209.106 412.92 209.106Z" fill="#0A0A0A"/>
<path d="M439.504 201.308C439.504 202.357 439.219 203.269 438.649 204.044C438.079 204.82 437.167 205.526 435.913 206.165C434.681 206.78 433.04 207.396 430.988 208.012C431.079 208.559 431.273 208.981 431.569 209.277C431.888 209.551 432.322 209.687 432.869 209.687C433.462 209.687 434.009 209.494 434.51 209.106C435.012 208.718 435.502 208.103 435.981 207.259L436.733 207.362L438.512 209.345C438.124 210.28 437.52 211.135 436.699 211.91C435.878 212.686 434.944 213.301 433.895 213.757C432.869 214.19 431.82 214.407 430.748 214.407C429.061 214.407 427.705 213.837 426.679 212.697C425.653 211.534 425.14 209.995 425.14 208.08C425.14 206.621 425.39 205.253 425.892 203.976C426.394 202.699 427.089 201.571 427.978 200.59C428.867 199.61 429.893 198.846 431.056 198.299C432.219 197.752 433.462 197.478 434.784 197.478C436.243 197.478 437.395 197.82 438.238 198.504C439.082 199.188 439.504 200.123 439.504 201.308ZM433.519 201.582C433.108 201.582 432.743 201.719 432.424 201.992C432.105 202.266 431.831 202.676 431.603 203.224C431.375 203.748 431.204 204.409 431.09 205.207C432.162 204.797 432.971 204.352 433.519 203.873C434.089 203.372 434.374 202.87 434.374 202.369C434.374 201.844 434.089 201.582 433.519 201.582Z" fill="#0A0A0A"/>
<path d="M446.615 208.73C446.729 208.73 446.866 208.661 447.026 208.525C447.208 208.365 447.664 207.966 448.394 207.328L449.18 207.464L449.864 209.106C448.656 210.474 447.63 211.546 446.786 212.321C445.965 213.096 445.236 213.643 444.597 213.962C443.959 214.259 443.321 214.407 442.682 214.407C441.177 214.407 440.425 213.643 440.425 212.116C440.425 211.956 440.482 211.5 440.596 210.748C440.71 209.995 440.847 209.072 441.006 207.977C441.189 206.86 441.383 205.663 441.588 204.386C441.816 203.087 442.032 201.799 442.238 200.522C442.466 199.222 442.659 198.025 442.819 196.931C443.001 195.836 443.15 194.936 443.264 194.229C443.378 193.522 443.435 193.1 443.435 192.964C443.435 192.211 443.058 191.835 442.306 191.835H441.348L441.759 189.031C442.534 189.031 443.366 189.008 444.255 188.962C445.167 188.917 446.022 188.871 446.82 188.825C447.618 188.78 448.268 188.734 448.77 188.689C449.271 188.643 449.522 188.62 449.522 188.62L450.069 189.304C450.069 189.304 450.001 189.658 449.864 190.364C449.727 191.048 449.534 191.983 449.283 193.169C449.055 194.332 448.804 195.62 448.53 197.033C448.257 198.447 447.983 199.883 447.71 201.343C447.459 202.779 447.219 204.136 446.991 205.412C446.763 206.689 446.592 207.761 446.478 208.627L446.615 208.73Z" fill="#0A0A0A"/>
<path d="M457.697 208.73C457.811 208.73 457.947 208.661 458.107 208.525C458.289 208.365 458.745 207.966 459.475 207.328L460.262 207.464L460.946 209.106C459.783 210.428 458.78 211.477 457.936 212.252C457.115 213.028 456.374 213.586 455.713 213.928C455.052 214.247 454.402 214.407 453.764 214.407C452.259 214.407 451.506 213.643 451.506 212.116C451.848 210.086 452.133 208.365 452.361 206.951C452.589 205.538 452.76 204.432 452.874 203.634C452.988 202.813 453.045 202.323 453.045 202.163C453.045 201.776 452.954 201.491 452.772 201.308C452.589 201.126 452.304 201.035 451.917 201.035H450.959L451.37 198.23C451.94 198.23 452.635 198.219 453.456 198.196C454.299 198.151 455.2 198.094 456.158 198.025C457.115 197.957 458.061 197.888 458.996 197.82L459.543 198.504C459.293 199.462 459.042 200.545 458.791 201.753C458.54 202.939 458.301 204.136 458.073 205.344C457.868 206.53 457.697 207.624 457.56 208.627L457.697 208.73ZM456.226 196.11C455.314 196.11 454.607 195.871 454.106 195.392C453.627 194.913 453.387 194.24 453.387 193.374C453.387 192.143 453.741 191.162 454.448 190.433C455.177 189.68 456.135 189.304 457.32 189.304C458.232 189.304 458.928 189.555 459.407 190.057C459.885 190.535 460.125 191.208 460.125 192.074C460.125 193.283 459.76 194.263 459.03 195.016C458.324 195.745 457.389 196.11 456.226 196.11Z" fill="#0A0A0A"/>
<path d="M465.519 222.273C464.128 222.273 462.908 222.056 461.859 221.623C460.81 221.213 460.024 220.62 459.499 219.845C458.952 219.092 458.736 218.226 458.85 217.246L458.986 216.801C459.351 216.596 459.853 216.334 460.491 216.014C461.107 215.718 461.757 215.399 462.441 215.057C463.147 214.715 463.786 214.418 464.356 214.168L464.39 213.928C463.569 213.563 462.931 212.959 462.475 212.116C462.042 211.272 461.825 210.257 461.825 209.072C461.825 207.727 462.076 206.393 462.577 205.07C463.079 203.725 463.752 202.505 464.595 201.411C465.439 200.317 466.374 199.45 467.4 198.812C468.426 198.151 469.463 197.82 470.512 197.82L472.974 198.538L473.145 197.82L473.829 197.444L478.378 197.82L478.891 198.778C478.708 199.234 478.515 199.804 478.309 200.488C478.104 201.172 477.933 201.867 477.796 202.574C477.66 203.258 477.557 203.862 477.489 204.386C477.466 204.66 477.42 205.139 477.352 205.823C477.306 206.507 477.249 207.293 477.181 208.183C477.135 209.049 477.078 209.904 477.01 210.748C476.941 211.568 476.873 212.252 476.805 212.8C476.713 213.552 476.394 214.361 475.847 215.228C475.323 216.094 474.65 216.938 473.829 217.759C473.008 218.579 472.108 219.332 471.127 220.016C470.17 220.7 469.201 221.247 468.22 221.657C467.24 222.068 466.339 222.273 465.519 222.273ZM467.468 217.998C468.631 217.998 469.566 217.656 470.272 216.972C471.002 216.288 471.447 215.296 471.606 213.997L472.324 208.046L471.982 207.943C471.025 209.425 470.25 210.588 469.657 211.432C469.087 212.252 468.608 212.868 468.22 213.278C467.855 213.689 467.491 214.019 467.126 214.27C466.738 214.521 466.328 214.806 465.895 215.125C465.462 215.444 465.097 215.729 464.8 215.98C464.504 216.231 464.356 216.391 464.356 216.459C464.356 216.733 464.493 216.983 464.766 217.211C465.04 217.462 465.416 217.656 465.895 217.793C466.374 217.93 466.898 217.998 467.468 217.998ZM468.596 209.106C468.847 209.106 469.178 208.775 469.588 208.114C470.022 207.43 470.455 206.564 470.888 205.515C471.344 204.466 471.72 203.395 472.017 202.3C472.017 202.3 471.891 202.232 471.64 202.095C471.39 201.935 471.07 201.787 470.683 201.65C470.318 201.514 469.93 201.445 469.52 201.445C469.292 201.445 469.064 201.719 468.836 202.266C468.608 202.813 468.414 203.497 468.255 204.318C468.118 205.139 468.049 205.982 468.049 206.849C468.049 207.533 468.095 208.08 468.186 208.49C468.3 208.901 468.437 209.106 468.596 209.106Z" fill="#0A0A0A"/>
<path d="M494.28 208.627C494.348 208.627 494.428 208.604 494.519 208.559C494.611 208.49 494.77 208.354 494.998 208.148C495.249 207.943 495.602 207.635 496.058 207.225L496.879 207.362L497.529 209.003C496.343 210.349 495.329 211.409 494.485 212.184C493.664 212.959 492.923 213.506 492.262 213.826C491.624 214.145 490.985 214.304 490.347 214.304C488.842 214.304 488.09 213.632 488.09 212.287C488.09 211.99 488.158 211.568 488.295 211.021C488.432 210.451 488.603 209.824 488.808 209.14C489.036 208.456 489.253 207.772 489.458 207.088C489.663 206.404 489.834 205.789 489.971 205.241C490.108 204.694 490.176 204.295 490.176 204.044C490.176 203.725 490.119 203.486 490.005 203.326C489.914 203.167 489.766 203.087 489.56 203.087C489.31 203.087 488.979 203.406 488.569 204.044C488.158 204.66 487.702 205.526 487.201 206.644C486.699 207.738 486.197 209.003 485.696 210.44L485.456 212.458C485.411 212.777 485.149 213.073 484.67 213.347C484.191 213.62 483.575 213.837 482.823 213.997C482.071 214.156 481.261 214.236 480.395 214.236L479.711 213.449C479.711 213.449 479.756 213.13 479.848 212.492C479.962 211.853 480.098 211.01 480.258 209.961C480.44 208.889 480.634 207.704 480.839 206.404C481.045 205.082 481.25 203.748 481.455 202.403C481.683 201.035 481.888 199.735 482.071 198.504C482.276 197.273 482.447 196.201 482.584 195.289C482.743 194.354 482.857 193.693 482.926 193.306C482.994 192.758 482.937 192.382 482.755 192.177C482.595 191.949 482.287 191.835 481.831 191.835H480.874L481.284 189.031C482.059 189.031 482.891 189.008 483.781 188.962C484.67 188.917 485.513 188.871 486.311 188.825C487.132 188.78 487.793 188.734 488.295 188.689C488.819 188.643 489.082 188.62 489.082 188.62L489.595 189.338C489.595 189.338 489.526 189.635 489.389 190.228C489.275 190.798 489.116 191.584 488.911 192.587C488.705 193.591 488.477 194.719 488.227 195.973C487.999 197.204 487.759 198.481 487.508 199.804C487.258 201.126 487.03 202.414 486.824 203.668L487.064 203.634C487.793 201.97 488.489 200.624 489.15 199.598C489.834 198.55 490.484 197.82 491.099 197.41C492.695 197.41 493.938 197.74 494.827 198.401C495.739 199.04 496.195 199.929 496.195 201.069C496.195 201.411 496.104 201.924 495.922 202.608C495.739 203.292 495.523 204.022 495.272 204.797C495.044 205.572 494.816 206.302 494.588 206.986C494.383 207.647 494.246 208.16 494.177 208.525L494.28 208.627Z" fill="#0A0A0A"/>
<path d="M508.521 207.464L509.239 209.174C508.51 210.223 507.792 211.147 507.085 211.945C506.378 212.72 505.74 213.324 505.17 213.757C504.622 214.19 504.178 214.407 503.836 214.407C502.24 214.407 501.043 214.008 500.245 213.21C499.47 212.389 499.162 211.249 499.321 209.79L500.826 201.308L500.518 201.035H498.672L498.569 200.864L498.843 198.607L501.305 198.23C501.396 197.638 501.476 197.056 501.544 196.486C501.613 195.893 501.67 195.403 501.715 195.016C501.761 194.628 501.784 194.434 501.784 194.434L507.529 193.237L508.008 193.648C508.008 193.648 507.951 193.876 507.837 194.332C507.723 194.765 507.586 195.335 507.427 196.042C507.267 196.726 507.108 197.455 506.948 198.23H510.197L510.436 198.47L510.026 201.035L506.811 201.001L506.367 201.274L505.17 207.841C505.101 208.525 505.306 208.867 505.785 208.867C506.013 208.867 506.275 208.753 506.572 208.525C506.868 208.297 507.267 207.898 507.769 207.328L508.521 207.464Z" fill="#0A0A0A"/>
<path d="M512.593 214.304C511.681 214.304 510.986 214.065 510.507 213.586C510.028 213.107 509.789 212.435 509.789 211.568C509.789 210.337 510.142 209.357 510.849 208.627C511.578 207.875 512.536 207.499 513.722 207.499C514.611 207.499 515.295 207.749 515.774 208.251C516.252 208.73 516.492 209.402 516.492 210.269C516.492 211.477 516.127 212.458 515.397 213.21C514.691 213.94 513.756 214.304 512.593 214.304Z" fill="#0A0A0A"/>
</svg>
