<svg width="536" height="193" viewBox="0 0 536 193" fill="none" xmlns="http://www.w3.org/2000/svg">
<path d="M2.66 190H21.28C22.876 190 23.94 188.936 23.94 187.34V121.106L48.412 108.338L96.824 188.67C97.09 189.468 98.154 190 98.952 190H125.286C126.616 190 127.68 188.936 126.882 187.606L71.288 94.2399C89.642 81.4719 102.41 68.4379 110.656 53.2759C126.616 23.4839 95.228 -1.25407 77.406 19.2279C69.958 28.0059 73.416 39.4439 82.46 43.1679C96.558 49.0199 106.4 33.0599 97.888 24.5479C119.966 44.7639 79.002 81.2059 23.94 107.008V0.0759277L0 27.2079V187.34C0 188.936 1.064 190 2.66 190Z" fill="#6700B8"/>
<path d="M197.817 50.0839C162.971 46.6259 136.637 59.3939 132.381 75.0879C125.731 99.5599 162.971 109.136 167.759 87.5899C169.621 78.8119 162.705 70.8319 156.321 70.8319C142.489 70.8319 141.957 86.7919 151.267 88.6539C144.351 87.5899 138.765 78.8119 144.883 70.2999C152.331 59.9259 172.281 56.2019 184.783 56.7339C205.797 57.5319 212.447 70.0339 212.713 114.19C204.999 110.2 196.221 108.338 187.709 108.604C162.439 109.136 122.007 126.958 122.007 157.282C122.007 177.498 150.469 192.128 182.123 192.128C192.763 192.128 203.669 188.936 212.713 183.35V187.34C212.713 188.936 213.777 190 215.373 190H233.993C235.589 190 236.653 188.936 236.653 187.34V114.19C236.653 70.5659 236.653 53.8079 197.817 50.0839ZM145.947 150.366C145.947 130.15 168.291 117.116 186.645 116.584C196.753 116.318 205.797 119.244 212.713 124.032V172.178C206.063 176.434 197.019 179.094 186.911 179.36C162.439 179.892 145.947 166.06 145.947 150.366Z" fill="#6700B8"/>
<path d="M274.747 128.022V0.0759277L250.807 27.2079V128.022C250.807 171.646 250.807 192.128 289.643 192.128C320.233 192.128 316.243 158.878 299.219 158.878C290.175 158.878 285.121 167.124 285.121 173.774C285.121 185.212 303.741 184.414 303.741 174.838C303.741 182.02 300.283 188.138 289.643 186.542C274.747 184.414 274.747 164.996 274.747 128.022Z" fill="#6700B8"/>
<path d="M370.679 192.128C411.111 192.128 432.923 163.666 432.923 135.47C432.923 93.4419 406.589 49.5519 370.679 49.5519C334.769 49.5519 308.435 93.4419 308.435 135.47C308.435 163.666 330.247 192.128 370.679 192.128ZM332.375 125.894C332.375 92.3779 345.675 57.5319 370.679 57.5319C395.683 57.5319 408.983 92.3779 408.983 125.894C408.983 153.292 395.417 180.158 370.679 179.36C345.941 180.158 332.375 153.292 332.375 125.894Z" fill="#6700B8"/>
<path d="M487.645 49.5519C450.67 49.8179 413.164 93.4419 463.438 124.032C523.82 160.74 527.012 163.932 515.042 172.976C494.294 188.67 461.31 182.552 451.734 171.114C444.818 163.134 449.34 153.824 456.257 151.962C446.946 154.888 449.34 170.582 462.906 169.518C470.62 168.986 477.536 158.878 474.61 150.1C467.428 127.756 428.592 142.386 437.902 167.39C442.158 178.562 459.182 192.128 481.526 192.128C534.726 191.862 562.657 155.686 498.816 117.648C439.764 82.2699 446.414 77.7479 458.384 68.7039C479.132 53.0099 507.86 56.7339 517.436 68.1719C524.352 76.1519 519.83 85.4619 512.914 87.3239C522.224 84.3979 519.83 68.7039 506.264 69.7679C498.55 70.2999 493.762 78.8119 496.422 87.5899C503.072 108.604 539.249 95.5699 530.471 71.8959C526.481 60.7239 509.988 49.2859 487.645 49.5519Z" fill="#6700B8"/>
</svg>
