<svg width="223" height="436" viewBox="0 0 223 436" fill="none" xmlns="http://www.w3.org/2000/svg">
<path d="M47.4416 144H42.8216V134.32H42.7336L40.0936 144H34.7916L32.1736 134.32H32.0636V144H27.8616V128.908H35.4296L37.6076 136.96H37.6956L39.8296 128.908H47.4416V144ZM56.2395 132.538C57.3395 132.538 58.3295 132.78 59.2095 133.264C60.1042 133.733 60.8008 134.393 61.2995 135.244C61.8128 136.095 62.0695 137.063 62.0695 138.148V138.61C62.0695 139.71 61.8128 140.685 61.2995 141.536C60.8008 142.387 60.1042 143.047 59.2095 143.516C58.3295 143.985 57.3395 144.22 56.2395 144.22H55.5355C54.4355 144.22 53.4382 143.985 52.5435 143.516C51.6635 143.032 50.9668 142.365 50.4535 141.514C49.9548 140.663 49.7055 139.695 49.7055 138.61V138.148C49.7055 137.063 49.9548 136.095 50.4535 135.244C50.9668 134.393 51.6635 133.733 52.5435 133.264C53.4382 132.78 54.4355 132.538 55.5355 132.538H56.2395ZM55.8875 135.2C55.4622 135.2 55.1028 135.354 54.8095 135.662C54.5162 135.955 54.3695 136.315 54.3695 136.74V140.018C54.3695 140.443 54.5162 140.81 54.8095 141.118C55.1028 141.411 55.4622 141.558 55.8875 141.558C56.3128 141.558 56.6722 141.411 56.9655 141.118C57.2588 140.81 57.4055 140.443 57.4055 140.018V136.74C57.4055 136.315 57.2588 135.955 56.9655 135.662C56.6722 135.354 56.3128 135.2 55.8875 135.2ZM68.5432 133.924C68.8218 133.572 69.2105 133.257 69.7092 132.978C70.2078 132.685 70.7872 132.538 71.4472 132.538C72.2538 132.538 72.9725 132.751 73.6032 133.176C74.2485 133.601 74.7545 134.247 75.1212 135.112C75.5025 135.963 75.6932 137.011 75.6932 138.258V138.5C75.6932 139.747 75.4805 140.803 75.0552 141.668C74.6445 142.519 74.0798 143.157 73.3612 143.582C72.6425 144.007 71.8285 144.22 70.9192 144.22C69.3352 144.22 68.1032 143.597 67.2232 142.35L65.7272 144H64.1872V128.16H68.5432V133.924ZM69.9072 135.288C69.5258 135.288 69.2032 135.442 68.9392 135.75C68.6752 136.043 68.5432 136.403 68.5432 136.828V140.018C68.5432 140.443 68.6752 140.81 68.9392 141.118C69.2032 141.411 69.5258 141.558 69.9072 141.558C70.2885 141.558 70.6112 141.411 70.8752 141.118C71.1392 140.81 71.2712 140.443 71.2712 140.018V136.828C71.2712 136.403 71.1392 136.043 70.8752 135.75C70.6112 135.442 70.2885 135.288 69.9072 135.288ZM82.1741 131.306H77.8401V128.16H82.1741V131.306ZM82.1741 144H77.8401V132.78H82.1741V144ZM89.1673 128.16V144H84.8113V128.16H89.1673ZM97.854 132.538C98.9834 132.538 99.9514 132.758 100.758 133.198C101.579 133.623 102.203 134.217 102.628 134.98C103.068 135.743 103.288 136.615 103.288 137.598V138.962H95.962V140.018C95.962 140.517 96.116 140.898 96.424 141.162C96.7467 141.426 97.1574 141.558 97.656 141.558C98.1694 141.558 98.558 141.404 98.822 141.096C99.1007 140.773 99.24 140.333 99.24 139.776H103.266C103.266 140.612 103.046 141.367 102.606 142.042C102.181 142.717 101.55 143.252 100.714 143.648C99.8927 144.029 98.9174 144.22 97.788 144.22H97.458C96.2847 144.22 95.2287 144.007 94.29 143.582C93.366 143.142 92.6327 142.511 92.09 141.69C91.562 140.854 91.298 139.864 91.298 138.72V138.038C91.298 136.894 91.5474 135.911 92.046 135.09C92.5594 134.254 93.2707 133.623 94.18 133.198C95.0894 132.758 96.1307 132.538 97.304 132.538H97.854ZM97.48 135.2C97.0547 135.2 96.6954 135.354 96.402 135.662C96.1087 135.955 95.962 136.315 95.962 136.74V137.048H98.998V136.74C98.998 136.315 98.8514 135.955 98.558 135.662C98.2647 135.354 97.9054 135.2 97.48 135.2ZM118.973 144H113.473L108.963 128.908H113.759L116.399 138.28H116.487L119.105 128.908H123.549L118.973 144ZM131.057 132.538C132.186 132.538 133.154 132.758 133.961 133.198C134.782 133.623 135.406 134.217 135.831 134.98C136.271 135.743 136.491 136.615 136.491 137.598V138.962H129.165V140.018C129.165 140.517 129.319 140.898 129.627 141.162C129.95 141.426 130.36 141.558 130.859 141.558C131.372 141.558 131.761 141.404 132.025 141.096C132.304 140.773 132.443 140.333 132.443 139.776H136.469C136.469 140.612 136.249 141.367 135.809 142.042C135.384 142.717 134.753 143.252 133.917 143.648C133.096 144.029 132.12 144.22 130.991 144.22H130.661C129.488 144.22 128.432 144.007 127.493 143.582C126.569 143.142 125.836 142.511 125.293 141.69C124.765 140.854 124.501 139.864 124.501 138.72V138.038C124.501 136.894 124.75 135.911 125.249 135.09C125.762 134.254 126.474 133.623 127.383 133.198C128.292 132.758 129.334 132.538 130.507 132.538H131.057ZM130.683 135.2C130.258 135.2 129.898 135.354 129.605 135.662C129.312 135.955 129.165 136.315 129.165 136.74V137.048H132.201V136.74C132.201 136.315 132.054 135.955 131.761 135.662C131.468 135.354 131.108 135.2 130.683 135.2ZM145.37 132.538C146.338 132.538 147.086 132.809 147.614 133.352C148.156 133.88 148.428 134.613 148.428 135.552V135.926L148.384 136.762L148.34 137.312H144.776V136.784C144.776 136.476 144.68 136.219 144.49 136.014C144.314 135.794 144.101 135.684 143.852 135.684C143.588 135.684 143.36 135.794 143.17 136.014C142.994 136.219 142.906 136.476 142.906 136.784V144H138.66V132.758H141.916L142.4 134.386C142.488 134.21 142.656 133.975 142.906 133.682C143.155 133.389 143.492 133.125 143.918 132.89C144.343 132.655 144.827 132.538 145.37 132.538ZM155.817 132.538C156.521 132.538 157.239 132.655 157.973 132.89C158.721 133.11 159.344 133.447 159.843 133.902C160.341 134.357 160.591 134.907 160.591 135.552C160.591 135.684 160.583 135.809 160.569 135.926C160.554 136.029 160.547 136.095 160.547 136.124H156.939C156.939 135.772 156.777 135.523 156.455 135.376C156.147 135.215 155.795 135.134 155.399 135.134C154.313 135.134 153.771 135.347 153.771 135.772C153.771 136.036 153.932 136.219 154.255 136.322C154.592 136.41 155.142 136.498 155.905 136.586C156.902 136.703 157.723 136.85 158.369 137.026C159.029 137.202 159.601 137.547 160.085 138.06C160.583 138.559 160.833 139.292 160.833 140.26C160.833 141.639 160.327 142.643 159.315 143.274C158.317 143.905 157.085 144.22 155.619 144.22H154.475C153.653 144.22 152.869 144.095 152.121 143.846C151.387 143.582 150.786 143.186 150.317 142.658C149.847 142.13 149.613 141.485 149.613 140.722V140.524C149.613 140.436 149.62 140.37 149.635 140.326H153.199V140.414C153.199 140.839 153.389 141.14 153.771 141.316C154.152 141.477 154.592 141.558 155.091 141.558C155.531 141.558 155.949 141.514 156.345 141.426C156.755 141.338 156.961 141.155 156.961 140.876C156.961 140.597 156.792 140.407 156.455 140.304C156.117 140.187 155.56 140.069 154.783 139.952C153.844 139.835 153.045 139.681 152.385 139.49C151.725 139.299 151.153 138.955 150.669 138.456C150.199 137.943 149.965 137.231 149.965 136.322C149.965 135.471 150.221 134.767 150.735 134.21C151.263 133.638 151.923 133.22 152.715 132.956C153.507 132.677 154.313 132.538 155.135 132.538H155.817ZM167.292 131.306H162.958V128.16H167.292V131.306ZM167.292 144H162.958V132.78H167.292V144ZM175.935 132.538C177.035 132.538 178.025 132.78 178.905 133.264C179.8 133.733 180.496 134.393 180.995 135.244C181.508 136.095 181.765 137.063 181.765 138.148V138.61C181.765 139.71 181.508 140.685 180.995 141.536C180.496 142.387 179.8 143.047 178.905 143.516C178.025 143.985 177.035 144.22 175.935 144.22H175.231C174.131 144.22 173.134 143.985 172.239 143.516C171.359 143.032 170.662 142.365 170.149 141.514C169.65 140.663 169.401 139.695 169.401 138.61V138.148C169.401 137.063 169.65 136.095 170.149 135.244C170.662 134.393 171.359 133.733 172.239 133.264C173.134 132.78 174.131 132.538 175.231 132.538H175.935ZM175.583 135.2C175.158 135.2 174.798 135.354 174.505 135.662C174.212 135.955 174.065 136.315 174.065 136.74V140.018C174.065 140.443 174.212 140.81 174.505 141.118C174.798 141.411 175.158 141.558 175.583 141.558C176.008 141.558 176.368 141.411 176.661 141.118C176.954 140.81 177.101 140.443 177.101 140.018V136.74C177.101 136.315 176.954 135.955 176.661 135.662C176.368 135.354 176.008 135.2 175.583 135.2ZM191.627 132.538C192.228 132.538 192.778 132.685 193.277 132.978C193.79 133.271 194.193 133.675 194.487 134.188C194.78 134.687 194.927 135.237 194.927 135.838V144H190.571V136.96C190.571 136.593 190.453 136.285 190.219 136.036C189.999 135.772 189.727 135.64 189.405 135.64C189.082 135.64 188.803 135.772 188.569 136.036C188.349 136.285 188.239 136.593 188.239 136.96V144H183.883V132.758H187.161L187.601 134.386C188.407 133.154 189.544 132.538 191.011 132.538H191.627ZM50.656 170.264C49.512 170.264 48.5074 170.029 47.642 169.56C46.7767 169.076 46.102 168.401 45.618 167.536C45.134 166.656 44.892 165.622 44.892 164.434C44.892 163.202 45.0974 162.058 45.508 161.002C45.9187 159.946 46.4907 159.029 47.224 158.252C47.972 157.46 48.8447 156.844 49.842 156.404C50.8394 155.964 51.9174 155.744 53.076 155.744C53.516 155.744 53.956 155.773 54.396 155.832C54.8507 155.876 55.2614 155.935 55.628 156.008C56.0094 156.067 56.31 156.125 56.53 156.184C56.7647 156.228 56.882 156.25 56.882 156.25L56.948 156.382C56.948 156.382 56.8894 156.543 56.772 156.866C56.6694 157.189 56.5374 157.629 56.376 158.186C56.2294 158.729 56.09 159.33 55.958 159.99L55.012 160.078C55.012 160.078 55.0267 160.005 55.056 159.858C55.0854 159.697 55.1147 159.513 55.144 159.308C55.188 159.103 55.21 158.927 55.21 158.78C55.21 157.548 54.2494 156.932 52.328 156.932C51.2574 156.932 50.304 157.218 49.468 157.79C48.632 158.362 47.9794 159.161 47.51 160.188C47.0407 161.215 46.806 162.417 46.806 163.796C46.806 165.439 47.1727 166.766 47.906 167.778C48.654 168.775 49.6807 169.274 50.986 169.274C51.6314 169.274 52.2107 169.149 52.724 168.9C53.2374 168.636 53.6847 168.247 54.066 167.734C54.462 167.206 54.7994 166.546 55.078 165.754L56.024 165.666C56.024 165.666 55.9874 165.776 55.914 165.996C55.8407 166.216 55.7454 166.502 55.628 166.854C55.5254 167.206 55.4154 167.587 55.298 167.998C55.1954 168.409 55.1 168.805 55.012 169.186L54.88 169.384C54.88 169.384 54.704 169.457 54.352 169.604C54 169.751 53.5087 169.897 52.878 170.044C52.2474 170.191 51.5067 170.264 50.656 170.264ZM60.3587 170.264C59.6401 170.264 59.0461 169.941 58.5767 169.296C58.1221 168.636 57.8947 167.756 57.8947 166.656C57.8947 165.747 58.0267 164.881 58.2907 164.06C58.5547 163.239 58.9214 162.513 59.3907 161.882C59.8601 161.237 60.3954 160.731 60.9967 160.364C61.5981 159.983 62.2287 159.792 62.8887 159.792C63.6661 159.792 64.2747 160.078 64.7147 160.65C65.1694 161.222 65.3967 162.029 65.3967 163.07C65.3967 164.038 65.2647 164.955 65.0007 165.82C64.7367 166.685 64.3701 167.455 63.9007 168.13C63.4461 168.79 62.9107 169.311 62.2947 169.692C61.6934 170.073 61.0481 170.264 60.3587 170.264ZM61.2387 169.054C61.7227 169.054 62.1554 168.849 62.5367 168.438C62.9181 168.027 63.2114 167.463 63.4167 166.744C63.6367 166.011 63.7467 165.189 63.7467 164.28C63.7467 163.297 63.5854 162.527 63.2627 161.97C62.9547 161.398 62.5221 161.112 61.9647 161.112C61.4954 161.112 61.0701 161.31 60.6887 161.706C60.3074 162.087 60.0067 162.615 59.7867 163.29C59.5814 163.95 59.4787 164.705 59.4787 165.556C59.4787 166.583 59.6401 167.426 59.9627 168.086C60.3001 168.731 60.7254 169.054 61.2387 169.054ZM79.4602 168.68C79.5336 168.68 79.6142 168.658 79.7022 168.614C79.8049 168.555 79.9662 168.431 80.1862 168.24C80.4209 168.049 80.7656 167.763 81.2202 167.382L81.4842 167.404L81.7702 167.932C81.2129 168.46 80.7289 168.9 80.3182 169.252C79.9076 169.589 79.5629 169.839 79.2842 170C79.0202 170.176 78.8076 170.264 78.6462 170.264C78.1916 170.264 77.9642 170.051 77.9642 169.626C77.9642 169.362 78.0229 169.01 78.1402 168.57C78.2722 168.115 78.4262 167.617 78.6022 167.074C78.7782 166.531 78.9542 165.989 79.1302 165.446C79.3062 164.889 79.4529 164.375 79.5702 163.906C79.7022 163.422 79.7682 163.033 79.7682 162.74C79.7682 162.476 79.6949 162.263 79.5482 162.102C79.4162 161.926 79.2402 161.838 79.0202 161.838C78.7122 161.838 78.3236 162.109 77.8542 162.652C77.3849 163.195 76.8789 163.95 76.3362 164.918C75.7936 165.871 75.2509 166.986 74.7082 168.262L74.4442 169.692C74.4442 169.736 74.3489 169.802 74.1582 169.89C73.9822 169.963 73.7842 170.029 73.5642 170.088C73.3589 170.161 73.1976 170.198 73.0802 170.198L72.9262 170C72.9262 170 72.9629 169.846 73.0362 169.538C73.1096 169.215 73.1976 168.805 73.3002 168.306C73.4176 167.807 73.5349 167.265 73.6522 166.678C73.7842 166.091 73.9016 165.527 74.0042 164.984C74.1216 164.427 74.2169 163.95 74.2902 163.554C74.3636 163.143 74.4002 162.872 74.4002 162.74C74.4002 162.476 74.3269 162.263 74.1802 162.102C74.0482 161.926 73.8722 161.838 73.6522 161.838C73.3589 161.838 72.9922 162.087 72.5522 162.586C72.1269 163.085 71.6649 163.789 71.1662 164.698C70.6822 165.593 70.1909 166.634 69.6922 167.822L69.4502 169.692C69.4502 169.736 69.3549 169.802 69.1642 169.89C68.9882 169.963 68.7902 170.029 68.5702 170.088C68.3649 170.161 68.2036 170.198 68.0862 170.198L67.9322 170C67.9322 170 67.9616 169.824 68.0202 169.472C68.0789 169.105 68.1522 168.636 68.2402 168.064C68.3282 167.492 68.4236 166.876 68.5262 166.216C68.6436 165.556 68.7462 164.925 68.8342 164.324C68.9222 163.708 68.9956 163.18 69.0542 162.74C69.1129 162.3 69.1422 162.021 69.1422 161.904C69.1422 161.596 69.0689 161.376 68.9222 161.244C68.7756 161.097 68.5336 161.024 68.1962 161.024H67.2942L67.4482 160.188C67.7856 160.188 68.1522 160.181 68.5482 160.166C68.9589 160.151 69.3476 160.137 69.7142 160.122C70.0956 160.107 70.4036 160.093 70.6382 160.078C70.8876 160.063 71.0122 160.056 71.0122 160.056L71.2102 160.32C71.2102 160.32 71.1589 160.474 71.0562 160.782C70.9682 161.075 70.8509 161.471 70.7042 161.97C70.5576 162.469 70.4036 163.033 70.2422 163.664C70.0956 164.28 69.9709 164.911 69.8682 165.556L69.9342 165.622C70.6822 164.126 71.4302 162.879 72.1782 161.882C72.9262 160.885 73.6376 160.188 74.3122 159.792C74.7816 159.792 75.1776 159.997 75.5002 160.408C75.8376 160.804 76.0062 161.281 76.0062 161.838C76.0062 162.029 75.9622 162.329 75.8742 162.74C75.7862 163.136 75.6762 163.554 75.5442 163.994C75.4269 164.419 75.3242 164.786 75.2362 165.094C75.1482 165.402 75.1042 165.556 75.1042 165.556L75.1702 165.622C75.9036 164.185 76.6662 162.96 77.4582 161.948C78.2502 160.921 79.0056 160.203 79.7242 159.792C80.1936 159.792 80.5822 159.99 80.8902 160.386C81.1982 160.767 81.3522 161.251 81.3522 161.838C81.3522 162.234 81.2716 162.718 81.1102 163.29C80.9489 163.862 80.7582 164.471 80.5382 165.116C80.3182 165.747 80.0982 166.37 79.8782 166.986C79.6729 167.587 79.5116 168.123 79.3942 168.592L79.4602 168.68ZM96.0995 168.68C96.1728 168.68 96.2535 168.658 96.3415 168.614C96.4441 168.555 96.6055 168.431 96.8255 168.24C97.0601 168.049 97.4048 167.763 97.8595 167.382L98.1235 167.404L98.4095 167.932C97.8521 168.46 97.3681 168.9 96.9575 169.252C96.5468 169.589 96.2021 169.839 95.9235 170C95.6595 170.176 95.4468 170.264 95.2855 170.264C94.8308 170.264 94.6035 170.051 94.6035 169.626C94.6035 169.362 94.6621 169.01 94.7795 168.57C94.9115 168.115 95.0655 167.617 95.2415 167.074C95.4175 166.531 95.5935 165.989 95.7695 165.446C95.9455 164.889 96.0921 164.375 96.2095 163.906C96.3415 163.422 96.4075 163.033 96.4075 162.74C96.4075 162.476 96.3341 162.263 96.1875 162.102C96.0555 161.926 95.8795 161.838 95.6595 161.838C95.3515 161.838 94.9628 162.109 94.4935 162.652C94.0241 163.195 93.5181 163.95 92.9755 164.918C92.4328 165.871 91.8901 166.986 91.3475 168.262L91.0835 169.692C91.0835 169.736 90.9881 169.802 90.7975 169.89C90.6215 169.963 90.4235 170.029 90.2035 170.088C89.9981 170.161 89.8368 170.198 89.7195 170.198L89.5655 170C89.5655 170 89.6021 169.846 89.6755 169.538C89.7488 169.215 89.8368 168.805 89.9395 168.306C90.0568 167.807 90.1741 167.265 90.2915 166.678C90.4235 166.091 90.5408 165.527 90.6435 164.984C90.7608 164.427 90.8561 163.95 90.9295 163.554C91.0028 163.143 91.0395 162.872 91.0395 162.74C91.0395 162.476 90.9661 162.263 90.8195 162.102C90.6875 161.926 90.5115 161.838 90.2915 161.838C89.9981 161.838 89.6315 162.087 89.1915 162.586C88.7661 163.085 88.3041 163.789 87.8055 164.698C87.3215 165.593 86.8301 166.634 86.3315 167.822L86.0895 169.692C86.0895 169.736 85.9941 169.802 85.8035 169.89C85.6275 169.963 85.4295 170.029 85.2095 170.088C85.0041 170.161 84.8428 170.198 84.7255 170.198L84.5715 170C84.5715 170 84.6008 169.824 84.6595 169.472C84.7181 169.105 84.7915 168.636 84.8795 168.064C84.9675 167.492 85.0628 166.876 85.1655 166.216C85.2828 165.556 85.3855 164.925 85.4735 164.324C85.5615 163.708 85.6348 163.18 85.6935 162.74C85.7521 162.3 85.7815 162.021 85.7815 161.904C85.7815 161.596 85.7081 161.376 85.5615 161.244C85.4148 161.097 85.1728 161.024 84.8355 161.024H83.9335L84.0875 160.188C84.4248 160.188 84.7915 160.181 85.1875 160.166C85.5981 160.151 85.9868 160.137 86.3535 160.122C86.7348 160.107 87.0428 160.093 87.2775 160.078C87.5268 160.063 87.6515 160.056 87.6515 160.056L87.8495 160.32C87.8495 160.32 87.7981 160.474 87.6955 160.782C87.6075 161.075 87.4901 161.471 87.3435 161.97C87.1968 162.469 87.0428 163.033 86.8815 163.664C86.7348 164.28 86.6101 164.911 86.5075 165.556L86.5735 165.622C87.3215 164.126 88.0695 162.879 88.8175 161.882C89.5655 160.885 90.2768 160.188 90.9515 159.792C91.4208 159.792 91.8168 159.997 92.1395 160.408C92.4768 160.804 92.6455 161.281 92.6455 161.838C92.6455 162.029 92.6015 162.329 92.5135 162.74C92.4255 163.136 92.3155 163.554 92.1835 163.994C92.0661 164.419 91.9635 164.786 91.8755 165.094C91.7875 165.402 91.7435 165.556 91.7435 165.556L91.8095 165.622C92.5428 164.185 93.3055 162.96 94.0975 161.948C94.8895 160.921 95.6448 160.203 96.3635 159.792C96.8328 159.792 97.2215 159.99 97.5295 160.386C97.8375 160.767 97.9915 161.251 97.9915 161.838C97.9915 162.234 97.9108 162.718 97.7495 163.29C97.5881 163.862 97.3975 164.471 97.1775 165.116C96.9575 165.747 96.7375 166.37 96.5175 166.986C96.3121 167.587 96.1508 168.123 96.0335 168.592L96.0995 168.68ZM102.729 168.68C102.846 168.68 103.007 168.599 103.213 168.438C103.418 168.277 103.836 167.925 104.467 167.382L104.731 167.404L105.017 167.932C104.503 168.46 104.041 168.9 103.631 169.252C103.235 169.589 102.897 169.839 102.619 170C102.34 170.176 102.113 170.264 101.937 170.264C101.497 170.264 101.277 170.007 101.277 169.494C101.497 168.218 101.687 167.037 101.849 165.952C102.025 164.867 102.157 163.965 102.245 163.246C102.347 162.527 102.399 162.095 102.399 161.948C102.399 161.611 102.325 161.376 102.179 161.244C102.047 161.097 101.812 161.024 101.475 161.024H100.573L100.727 160.188C101.035 160.188 101.401 160.181 101.827 160.166C102.252 160.151 102.685 160.137 103.125 160.122C103.565 160.093 103.953 160.071 104.291 160.056L104.489 160.32C104.254 161.097 104.012 161.977 103.763 162.96C103.528 163.928 103.315 164.903 103.125 165.886C102.934 166.869 102.78 167.771 102.663 168.592L102.729 168.68ZM103.543 157.284C103.22 157.284 102.985 157.181 102.839 156.976C102.692 156.771 102.619 156.543 102.619 156.294C102.619 155.913 102.758 155.583 103.037 155.304C103.315 155.011 103.653 154.864 104.049 154.864C104.371 154.864 104.606 154.967 104.753 155.172C104.914 155.377 104.995 155.605 104.995 155.854C104.995 156.235 104.848 156.573 104.555 156.866C104.276 157.145 103.939 157.284 103.543 157.284ZM113.105 170.264C112.651 170.264 112.423 170.051 112.423 169.626C112.423 169.362 112.475 169.003 112.577 168.548C112.695 168.093 112.834 167.602 112.995 167.074C113.171 166.531 113.34 165.989 113.501 165.446C113.677 164.889 113.817 164.375 113.919 163.906C114.037 163.437 114.095 163.048 114.095 162.74C114.095 162.476 114.022 162.263 113.875 162.102C113.743 161.926 113.567 161.838 113.347 161.838C113.025 161.838 112.629 162.117 112.159 162.674C111.69 163.231 111.184 164.001 110.641 164.984C110.099 165.967 109.563 167.111 109.035 168.416L109.123 165.38L109.541 165.622C110.304 164.141 111.067 162.901 111.829 161.904C112.607 160.892 113.333 160.188 114.007 159.792C114.477 159.792 114.873 159.997 115.195 160.408C115.518 160.804 115.679 161.303 115.679 161.904C115.679 162.285 115.599 162.762 115.437 163.334C115.291 163.891 115.107 164.493 114.887 165.138C114.682 165.769 114.477 166.385 114.271 166.986C114.081 167.587 113.934 168.123 113.831 168.592L113.897 168.68C113.971 168.68 114.051 168.658 114.139 168.614C114.242 168.555 114.403 168.431 114.623 168.24C114.858 168.049 115.195 167.763 115.635 167.382L115.899 167.404L116.185 167.932C115.672 168.46 115.21 168.9 114.799 169.252C114.403 169.589 114.066 169.839 113.787 170C113.509 170.176 113.281 170.264 113.105 170.264ZM107.649 170.198L107.495 170C107.642 169.135 107.789 168.255 107.935 167.36C108.082 166.465 108.214 165.629 108.331 164.852C108.449 164.06 108.537 163.4 108.595 162.872C108.669 162.344 108.705 162.021 108.705 161.904C108.705 161.596 108.632 161.376 108.485 161.244C108.339 161.097 108.097 161.024 107.759 161.024H106.857L107.011 160.188C107.378 160.188 107.891 160.181 108.551 160.166C109.226 160.137 109.901 160.1 110.575 160.056L110.773 160.32C110.583 160.863 110.392 161.471 110.201 162.146C110.025 162.821 109.864 163.488 109.717 164.148C109.571 164.808 109.461 165.395 109.387 165.908L109.365 167.096L109.013 169.692C109.013 169.736 108.918 169.802 108.727 169.89C108.551 169.963 108.353 170.029 108.133 170.088C107.928 170.161 107.767 170.198 107.649 170.198ZM119.158 175.302C118.556 175.302 117.977 175.163 117.42 174.884C116.877 174.62 116.437 174.275 116.1 173.85C115.762 173.425 115.608 172.985 115.638 172.53L115.682 172.42C115.946 172.215 116.283 171.973 116.694 171.694C117.104 171.415 117.574 171.107 118.102 170.77C118.63 170.433 119.194 170.088 119.796 169.736L119.818 169.538C119.466 169.333 119.187 168.981 118.982 168.482C118.791 167.983 118.696 167.397 118.696 166.722C118.696 165.901 118.835 165.087 119.114 164.28C119.392 163.459 119.759 162.718 120.214 162.058C120.683 161.398 121.204 160.87 121.776 160.474C122.348 160.078 122.92 159.88 123.492 159.88L125.736 160.232L125.978 159.682L126.088 159.66L126.77 159.99L126.946 160.188C126.594 160.833 126.293 161.435 126.044 161.992C125.809 162.535 125.618 163.033 125.472 163.488C125.34 163.943 125.252 164.368 125.208 164.764C125.164 165.131 125.127 165.563 125.098 166.062C125.068 166.561 125.039 167.074 125.01 167.602C124.98 168.115 124.951 168.592 124.922 169.032C124.907 169.457 124.885 169.78 124.856 170C124.797 170.513 124.636 171.019 124.372 171.518C124.122 172.031 123.8 172.515 123.404 172.97C123.022 173.425 122.597 173.828 122.128 174.18C121.658 174.532 121.167 174.803 120.654 174.994C120.14 175.199 119.642 175.302 119.158 175.302ZM119.884 174.026C120.822 174.026 121.622 173.689 122.282 173.014C122.942 172.339 123.345 171.415 123.492 170.242L124.042 165.688L123.866 165.644C123.411 166.48 123.015 167.162 122.678 167.69C122.355 168.203 122.04 168.621 121.732 168.944C121.438 169.267 121.116 169.56 120.764 169.824C120.309 170.161 119.818 170.491 119.29 170.814C118.762 171.151 118.307 171.452 117.926 171.716C117.559 171.995 117.376 172.207 117.376 172.354C117.376 172.603 117.5 172.853 117.75 173.102C118.014 173.366 118.336 173.586 118.718 173.762C119.114 173.938 119.502 174.026 119.884 174.026ZM121.05 168.086C121.27 168.086 121.57 167.837 121.952 167.338C122.348 166.825 122.802 166.099 123.316 165.16C123.844 164.207 124.416 163.07 125.032 161.75C124.738 161.603 124.452 161.479 124.174 161.376C123.91 161.273 123.66 161.2 123.426 161.156C123.206 161.097 123 161.068 122.81 161.068C122.37 161.068 121.952 161.295 121.556 161.75C121.16 162.19 120.837 162.762 120.588 163.466C120.338 164.17 120.214 164.911 120.214 165.688C120.214 166.319 120.294 166.876 120.456 167.36C120.632 167.844 120.83 168.086 121.05 168.086ZM135.994 170.264C135.334 170.264 134.747 170.205 134.234 170.088C133.72 169.971 133.31 169.853 133.002 169.736C132.708 169.604 132.562 169.538 132.562 169.538L132.474 169.318C132.474 169.318 132.496 169.223 132.54 169.032C132.598 168.841 132.664 168.577 132.738 168.24C132.826 167.888 132.914 167.477 133.002 167.008C133.09 166.539 133.163 166.033 133.222 165.49L134.124 165.38C133.992 166.465 133.962 167.294 134.036 167.866C134.109 168.423 134.329 168.805 134.696 169.01C135.077 169.201 135.649 169.296 136.412 169.296C137.38 169.296 138.172 169.054 138.788 168.57C139.404 168.071 139.712 167.419 139.712 166.612C139.712 166.025 139.477 165.527 139.008 165.116C138.553 164.691 138.01 164.295 137.38 163.928C136.837 163.605 136.294 163.268 135.752 162.916C135.224 162.564 134.776 162.168 134.41 161.728C134.058 161.273 133.882 160.731 133.882 160.1C133.882 159.293 134.102 158.567 134.542 157.922C134.996 157.262 135.612 156.734 136.39 156.338C137.167 155.942 138.032 155.744 138.986 155.744C139.616 155.744 140.181 155.788 140.68 155.876C141.178 155.964 141.574 156.052 141.868 156.14C142.176 156.228 142.33 156.272 142.33 156.272L142.374 156.382C142.374 156.382 142.322 156.551 142.22 156.888C142.132 157.225 142.014 157.68 141.868 158.252C141.736 158.809 141.604 159.425 141.472 160.1L140.68 160.188L140.57 160.078C140.57 160.078 140.592 159.99 140.636 159.814C140.68 159.638 140.716 159.425 140.746 159.176C140.79 158.912 140.812 158.67 140.812 158.45C140.812 157.849 140.636 157.431 140.284 157.196C139.946 156.947 139.352 156.822 138.502 156.822C137.666 156.822 136.954 157.049 136.368 157.504C135.796 157.944 135.51 158.501 135.51 159.176C135.51 159.645 135.664 160.056 135.972 160.408C136.28 160.76 136.661 161.097 137.116 161.42C137.556 161.713 138.025 162.007 138.524 162.3C139.037 162.579 139.514 162.879 139.954 163.202C140.408 163.525 140.775 163.891 141.054 164.302C141.347 164.713 141.494 165.182 141.494 165.71C141.494 166.561 141.259 167.331 140.79 168.02C140.335 168.709 139.69 169.259 138.854 169.67C138.032 170.066 137.079 170.264 135.994 170.264ZM146.164 170.264C145.445 170.264 144.851 169.941 144.382 169.296C143.927 168.636 143.7 167.756 143.7 166.656C143.7 165.747 143.832 164.881 144.096 164.06C144.36 163.239 144.727 162.513 145.196 161.882C145.665 161.237 146.201 160.731 146.802 160.364C147.403 159.983 148.034 159.792 148.694 159.792C149.471 159.792 150.08 160.078 150.52 160.65C150.975 161.222 151.202 162.029 151.202 163.07C151.202 164.038 151.07 164.955 150.806 165.82C150.542 166.685 150.175 167.455 149.706 168.13C149.251 168.79 148.716 169.311 148.1 169.692C147.499 170.073 146.853 170.264 146.164 170.264ZM147.044 169.054C147.528 169.054 147.961 168.849 148.342 168.438C148.723 168.027 149.017 167.463 149.222 166.744C149.442 166.011 149.552 165.189 149.552 164.28C149.552 163.297 149.391 162.527 149.068 161.97C148.76 161.398 148.327 161.112 147.77 161.112C147.301 161.112 146.875 161.31 146.494 161.706C146.113 162.087 145.812 162.615 145.592 163.29C145.387 163.95 145.284 164.705 145.284 165.556C145.284 166.583 145.445 167.426 145.768 168.086C146.105 168.731 146.531 169.054 147.044 169.054ZM155.541 170.264C154.823 170.264 154.229 169.941 153.759 169.296C153.305 168.636 153.077 167.756 153.077 166.656C153.077 165.747 153.209 164.881 153.473 164.06C153.737 163.239 154.104 162.513 154.573 161.882C155.043 161.237 155.578 160.731 156.179 160.364C156.781 159.983 157.411 159.792 158.071 159.792C158.849 159.792 159.457 160.078 159.897 160.65C160.352 161.222 160.579 162.029 160.579 163.07C160.579 164.038 160.447 164.955 160.183 165.82C159.919 166.685 159.553 167.455 159.083 168.13C158.629 168.79 158.093 169.311 157.477 169.692C156.876 170.073 156.231 170.264 155.541 170.264ZM156.421 169.054C156.905 169.054 157.338 168.849 157.719 168.438C158.101 168.027 158.394 167.463 158.599 166.744C158.819 166.011 158.929 165.189 158.929 164.28C158.929 163.297 158.768 162.527 158.445 161.97C158.137 161.398 157.705 161.112 157.147 161.112C156.678 161.112 156.253 161.31 155.871 161.706C155.49 162.087 155.189 162.615 154.969 163.29C154.764 163.95 154.661 164.705 154.661 165.556C154.661 166.583 154.823 167.426 155.145 168.086C155.483 168.731 155.908 169.054 156.421 169.054ZM168.769 170.264C168.314 170.264 168.087 170.051 168.087 169.626C168.087 169.362 168.138 169.003 168.241 168.548C168.358 168.093 168.498 167.602 168.659 167.074C168.835 166.531 169.004 165.989 169.165 165.446C169.341 164.889 169.48 164.375 169.583 163.906C169.7 163.437 169.759 163.048 169.759 162.74C169.759 162.476 169.686 162.263 169.539 162.102C169.407 161.926 169.231 161.838 169.011 161.838C168.688 161.838 168.292 162.117 167.823 162.674C167.354 163.231 166.848 164.001 166.305 164.984C165.762 165.967 165.227 167.111 164.699 168.416L164.787 165.38L165.205 165.622C165.968 164.141 166.73 162.901 167.493 161.904C168.27 160.892 168.996 160.188 169.671 159.792C170.14 159.792 170.536 159.997 170.859 160.408C171.182 160.804 171.343 161.303 171.343 161.904C171.343 162.285 171.262 162.762 171.101 163.334C170.954 163.891 170.771 164.493 170.551 165.138C170.346 165.769 170.14 166.385 169.935 166.986C169.744 167.587 169.598 168.123 169.495 168.592L169.561 168.68C169.634 168.68 169.715 168.658 169.803 168.614C169.906 168.555 170.067 168.431 170.287 168.24C170.522 168.049 170.859 167.763 171.299 167.382L171.563 167.404L171.849 167.932C171.336 168.46 170.874 168.9 170.463 169.252C170.067 169.589 169.73 169.839 169.451 170C169.172 170.176 168.945 170.264 168.769 170.264ZM163.313 170.198L163.159 170C163.306 169.135 163.452 168.255 163.599 167.36C163.746 166.465 163.878 165.629 163.995 164.852C164.112 164.06 164.2 163.4 164.259 162.872C164.332 162.344 164.369 162.021 164.369 161.904C164.369 161.596 164.296 161.376 164.149 161.244C164.002 161.097 163.76 161.024 163.423 161.024H162.521L162.675 160.188C163.042 160.188 163.555 160.181 164.215 160.166C164.89 160.137 165.564 160.1 166.239 160.056L166.437 160.32C166.246 160.863 166.056 161.471 165.865 162.146C165.689 162.821 165.528 163.488 165.381 164.148C165.234 164.808 165.124 165.395 165.051 165.908L165.029 167.096L164.677 169.692C164.677 169.736 164.582 169.802 164.391 169.89C164.215 169.963 164.017 170.029 163.797 170.088C163.592 170.161 163.43 170.198 163.313 170.198ZM174.909 170.264C174.542 170.264 174.271 170.154 174.095 169.934C173.934 169.699 173.853 169.443 173.853 169.164C173.853 168.753 173.992 168.401 174.271 168.108C174.55 167.8 174.916 167.646 175.371 167.646C175.723 167.646 175.987 167.756 176.163 167.976C176.354 168.181 176.449 168.438 176.449 168.746C176.449 169.157 176.31 169.516 176.031 169.824C175.752 170.117 175.378 170.264 174.909 170.264ZM176.295 155.348L176.493 155.128L178.341 154.732L178.517 154.974L176.119 165.402L175.481 165.556L175.261 165.38L176.295 155.348Z" fill="#0A0A0A"/>
<path d="M28.4637 419.214H29.4177L24.7557 431.562H23.8917L19.2117 419.214H20.2737L24.3237 430.014H24.4137L28.4637 419.214ZM31.7854 418.602H32.8474V419.574H31.7854V418.602ZM31.8574 431.562V422.364H32.7754V431.562H31.8574ZM37.0912 428.736C37.0792 428.796 37.0732 428.88 37.0732 428.988C37.0732 429.6 37.3372 430.074 37.8652 430.41C38.4052 430.746 39.1372 430.914 40.0612 430.914C40.8892 430.914 41.5312 430.752 41.9872 430.428C42.4432 430.092 42.6712 429.654 42.6712 429.114C42.6712 428.694 42.5392 428.364 42.2752 428.124C42.0232 427.884 41.7052 427.704 41.3212 427.584C40.9492 427.452 40.4452 427.326 39.8092 427.206C39.0772 427.062 38.4892 426.918 38.0452 426.774C37.6012 426.618 37.2232 426.378 36.9112 426.054C36.5992 425.73 36.4432 425.28 36.4432 424.704C36.4432 423.96 36.7432 423.354 37.3432 422.886C37.9432 422.418 38.8312 422.184 40.0072 422.184C40.7752 422.184 41.4112 422.31 41.9152 422.562C42.4192 422.814 42.7852 423.132 43.0132 423.516C43.2532 423.888 43.3732 424.272 43.3732 424.668L43.3552 424.92H42.4552V424.686C42.4552 424.302 42.2812 423.93 41.9332 423.57C41.5972 423.198 40.9012 423.012 39.8452 423.012C38.8252 423.012 38.1532 423.186 37.8292 423.534C37.5172 423.882 37.3612 424.26 37.3612 424.668C37.3612 425.016 37.4812 425.298 37.7212 425.514C37.9612 425.73 38.2612 425.898 38.6212 426.018C38.9812 426.126 39.4792 426.246 40.1152 426.378C40.8472 426.534 41.4472 426.69 41.9152 426.846C42.3832 427.002 42.7792 427.248 43.1032 427.584C43.4272 427.92 43.5892 428.37 43.5892 428.934C43.5892 429.918 43.2472 430.632 42.5632 431.076C41.8912 431.52 40.9792 431.742 39.8272 431.742C38.9512 431.742 38.2372 431.604 37.6852 431.328C37.1452 431.052 36.7552 430.716 36.5152 430.32C36.2872 429.924 36.1732 429.546 36.1732 429.186C36.1732 429.042 36.1732 428.934 36.1732 428.862C36.1852 428.79 36.1912 428.748 36.1912 428.736H37.0912ZM46.7965 418.602H47.8585V419.574H46.7965V418.602ZM46.8685 431.562V422.364H47.7865V431.562H46.8685ZM55.2162 431.436C55.0602 431.532 54.8682 431.604 54.6402 431.652C54.4242 431.712 54.2082 431.742 53.9922 431.742C53.4402 431.742 52.9962 431.574 52.6602 431.238C52.3242 430.902 52.1562 430.404 52.1562 429.744V423.192H51.1482V422.364H52.1562L52.4802 419.43H53.0742V422.364H55.2162V423.192H53.0742V429.708C53.0742 430.188 53.1642 430.512 53.3442 430.68C53.5362 430.836 53.7882 430.914 54.1002 430.914C54.2322 430.914 54.4122 430.884 54.6402 430.824C54.8682 430.764 55.0602 430.698 55.2162 430.626V431.436ZM72.2594 422.184C73.1714 422.184 73.9154 422.478 74.4914 423.066C75.0674 423.642 75.3554 424.5 75.3554 425.64V431.562H74.4374V425.91C74.4374 423.978 73.6874 423.012 72.1874 423.012C71.4674 423.012 70.8794 423.288 70.4234 423.84C69.9674 424.392 69.7394 425.082 69.7394 425.91V431.562H68.8214V425.91C68.8214 423.978 68.0714 423.012 66.5714 423.012C65.8514 423.012 65.2634 423.288 64.8074 423.84C64.3514 424.392 64.1234 425.082 64.1234 425.91V431.562H63.2054V422.364H63.8174L64.0334 423.732C64.2974 423.252 64.6634 422.874 65.1314 422.598C65.5994 422.322 66.1034 422.184 66.6434 422.184C67.2554 422.184 67.8014 422.316 68.2814 422.58C68.7734 422.844 69.1514 423.234 69.4154 423.75C69.6794 423.306 70.0574 422.934 70.5494 422.634C71.0534 422.334 71.6234 422.184 72.2594 422.184ZM86.0328 428.16C86.0328 428.904 85.8708 429.546 85.5468 430.086C85.2348 430.626 84.8088 431.04 84.2688 431.328C83.7288 431.604 83.1228 431.742 82.4508 431.742C81.6948 431.742 81.0228 431.562 80.4348 431.202C79.8588 430.83 79.4088 430.296 79.0848 429.6C78.7608 428.904 78.5988 428.07 78.5988 427.098V426.828C78.5988 425.856 78.7548 425.022 79.0668 424.326C79.3908 423.63 79.8408 423.102 80.4168 422.742C81.0048 422.37 81.6768 422.184 82.4328 422.184C83.1168 422.184 83.7288 422.334 84.2688 422.634C84.8208 422.922 85.2528 423.348 85.5648 423.912C85.8768 424.464 86.0328 425.13 86.0328 425.91V427.062H79.5168V427.206C79.5168 428.406 79.7868 429.324 80.3268 429.96C80.8788 430.596 81.5868 430.914 82.4508 430.914C83.2188 430.914 83.8548 430.68 84.3588 430.212C84.8748 429.744 85.1328 429.06 85.1328 428.16H86.0328ZM82.4328 423.012C81.6288 423.012 80.9628 423.288 80.4348 423.84C79.9068 424.392 79.6068 425.19 79.5348 426.234H85.1328V425.91C85.1328 424.974 84.8748 424.26 84.3588 423.768C83.8548 423.264 83.2128 423.012 82.4328 423.012ZM97.6213 431.742C96.8653 431.742 96.1933 431.562 95.6053 431.202C95.0173 430.83 94.5553 430.296 94.2193 429.6C93.8953 428.904 93.7333 428.07 93.7333 427.098V426.828C93.7333 425.856 93.8953 425.022 94.2193 424.326C94.5553 423.63 95.0173 423.102 95.6053 422.742C96.1933 422.37 96.8653 422.184 97.6213 422.184C98.3773 422.184 99.0493 422.37 99.6373 422.742C100.225 423.102 100.681 423.63 101.005 424.326C101.341 425.022 101.509 425.856 101.509 426.828V427.098C101.509 428.07 101.341 428.904 101.005 429.6C100.681 430.296 100.225 430.83 99.6373 431.202C99.0493 431.562 98.3773 431.742 97.6213 431.742ZM97.6213 430.914C98.4973 430.914 99.2113 430.596 99.7633 429.96C100.315 429.324 100.591 428.406 100.591 427.206V426.72C100.591 425.52 100.315 424.602 99.7633 423.966C99.2113 423.33 98.4973 423.012 97.6213 423.012C96.7453 423.012 96.0313 423.33 95.4793 423.966C94.9273 424.602 94.6513 425.52 94.6513 426.72V427.206C94.6513 428.406 94.9273 429.324 95.4793 429.96C96.0313 430.596 96.7453 430.914 97.6213 430.914ZM111.323 425.91C111.323 424.938 111.095 424.212 110.639 423.732C110.195 423.252 109.559 423.012 108.731 423.012C108.203 423.012 107.723 423.138 107.291 423.39C106.859 423.642 106.517 423.99 106.265 424.434C106.025 424.878 105.905 425.37 105.905 425.91V431.562H104.987V422.364H105.599L105.797 423.732C106.109 423.252 106.535 422.874 107.075 422.598C107.627 422.322 108.209 422.184 108.821 422.184C109.829 422.184 110.645 422.478 111.269 423.066C111.905 423.642 112.223 424.5 112.223 425.64V431.562H111.323V425.91ZM127.324 430.32C127.324 430.716 127.486 430.914 127.81 430.914C128.086 430.914 128.386 430.818 128.71 430.626V431.4C128.374 431.628 127.99 431.742 127.558 431.742C127.126 431.742 126.826 431.586 126.658 431.274C126.49 430.95 126.406 430.512 126.406 429.96C126.034 430.572 125.566 431.022 125.002 431.31C124.45 431.598 123.796 431.742 123.04 431.742C122.188 431.742 121.492 431.55 120.952 431.166C120.412 430.77 120.142 430.104 120.142 429.168C120.142 428.316 120.394 427.68 120.898 427.26C121.414 426.828 122.104 426.552 122.968 426.432C123.844 426.3 124.99 426.234 126.406 426.234V425.082C126.406 424.314 126.22 423.78 125.848 423.48C125.488 423.168 124.876 423.012 124.012 423.012C123.22 423.012 122.584 423.168 122.104 423.48C121.624 423.78 121.384 424.248 121.384 424.884V425.172H120.502C120.478 424.98 120.466 424.824 120.466 424.704C120.466 423.924 120.796 423.312 121.456 422.868C122.128 422.412 122.98 422.184 124.012 422.184C125.128 422.184 125.956 422.406 126.496 422.85C127.048 423.294 127.324 423.978 127.324 424.902V430.32ZM126.406 427.062C125.134 427.062 124.132 427.104 123.4 427.188C122.68 427.272 122.11 427.47 121.69 427.782C121.27 428.082 121.06 428.55 121.06 429.186C121.06 429.786 121.228 430.224 121.564 430.5C121.912 430.776 122.464 430.914 123.22 430.914C123.76 430.914 124.27 430.794 124.75 430.554C125.242 430.314 125.638 429.954 125.938 429.474C126.25 428.982 126.406 428.382 126.406 427.674V427.062ZM142.554 430.176C141.882 431.22 140.868 431.742 139.512 431.742C138.432 431.742 137.55 431.34 136.866 430.536C136.194 429.72 135.858 428.502 135.858 426.882V426.684C135.858 425.736 136.02 424.926 136.344 424.254C136.668 423.57 137.106 423.054 137.658 422.706C138.21 422.358 138.828 422.184 139.512 422.184C140.148 422.184 140.718 422.316 141.222 422.58C141.738 422.832 142.146 423.186 142.446 423.642V418.602H143.364V431.562H142.752L142.554 430.176ZM142.464 426.72C142.464 425.484 142.194 424.56 141.654 423.948C141.126 423.324 140.442 423.012 139.602 423.012C138.774 423.012 138.096 423.324 137.568 423.948C137.04 424.572 136.776 425.496 136.776 426.72V426.918C136.776 428.322 137.034 429.342 137.55 429.978C138.066 430.602 138.75 430.914 139.602 430.914C140.466 430.914 141.156 430.608 141.672 429.996C142.2 429.372 142.464 428.352 142.464 426.936V426.72ZM154.128 428.16C154.128 428.904 153.966 429.546 153.642 430.086C153.33 430.626 152.904 431.04 152.364 431.328C151.824 431.604 151.218 431.742 150.546 431.742C149.79 431.742 149.118 431.562 148.53 431.202C147.954 430.83 147.504 430.296 147.18 429.6C146.856 428.904 146.694 428.07 146.694 427.098V426.828C146.694 425.856 146.85 425.022 147.162 424.326C147.486 423.63 147.936 423.102 148.512 422.742C149.1 422.37 149.772 422.184 150.528 422.184C151.212 422.184 151.824 422.334 152.364 422.634C152.916 422.922 153.348 423.348 153.66 423.912C153.972 424.464 154.128 425.13 154.128 425.91V427.062H147.612V427.206C147.612 428.406 147.882 429.324 148.422 429.96C148.974 430.596 149.682 430.914 150.546 430.914C151.314 430.914 151.95 430.68 152.454 430.212C152.97 429.744 153.228 429.06 153.228 428.16H154.128ZM150.528 423.012C149.724 423.012 149.058 423.288 148.53 423.84C148.002 424.392 147.702 425.19 147.63 426.234H153.228V425.91C153.228 424.974 152.97 424.26 152.454 423.768C151.95 423.264 151.308 423.012 150.528 423.012ZM157.866 428.736C157.854 428.796 157.848 428.88 157.848 428.988C157.848 429.6 158.112 430.074 158.64 430.41C159.18 430.746 159.912 430.914 160.836 430.914C161.664 430.914 162.306 430.752 162.762 430.428C163.218 430.092 163.446 429.654 163.446 429.114C163.446 428.694 163.314 428.364 163.05 428.124C162.798 427.884 162.48 427.704 162.096 427.584C161.724 427.452 161.22 427.326 160.584 427.206C159.852 427.062 159.264 426.918 158.82 426.774C158.376 426.618 157.998 426.378 157.686 426.054C157.374 425.73 157.218 425.28 157.218 424.704C157.218 423.96 157.518 423.354 158.118 422.886C158.718 422.418 159.606 422.184 160.782 422.184C161.55 422.184 162.186 422.31 162.69 422.562C163.194 422.814 163.56 423.132 163.788 423.516C164.028 423.888 164.148 424.272 164.148 424.668L164.13 424.92H163.23V424.686C163.23 424.302 163.056 423.93 162.708 423.57C162.372 423.198 161.676 423.012 160.62 423.012C159.6 423.012 158.928 423.186 158.604 423.534C158.292 423.882 158.136 424.26 158.136 424.668C158.136 425.016 158.256 425.298 158.496 425.514C158.736 425.73 159.036 425.898 159.396 426.018C159.756 426.126 160.254 426.246 160.89 426.378C161.622 426.534 162.222 426.69 162.69 426.846C163.158 427.002 163.554 427.248 163.878 427.584C164.202 427.92 164.364 428.37 164.364 428.934C164.364 429.918 164.022 430.632 163.338 431.076C162.666 431.52 161.754 431.742 160.602 431.742C159.726 431.742 159.012 431.604 158.46 431.328C157.92 431.052 157.53 430.716 157.29 430.32C157.062 429.924 156.948 429.546 156.948 429.186C156.948 429.042 156.948 428.934 156.948 428.862C156.96 428.79 156.966 428.748 156.966 428.736H157.866ZM170.397 427.386L168.525 429.276V431.562H167.607V418.602H168.525V428.214L173.745 422.364H174.879L171.009 426.702L175.185 431.562H173.997L170.397 427.386ZM180.948 431.436C180.792 431.532 180.6 431.604 180.372 431.652C180.156 431.712 179.94 431.742 179.724 431.742C179.172 431.742 178.728 431.574 178.392 431.238C178.056 430.902 177.888 430.404 177.888 429.744V423.192H176.88V422.364H177.888L178.212 419.43H178.806V422.364H180.948V423.192H178.806V429.708C178.806 430.188 178.896 430.512 179.076 430.68C179.268 430.836 179.52 430.914 179.832 430.914C179.964 430.914 180.144 430.884 180.372 430.824C180.6 430.764 180.792 430.698 180.948 430.626V431.436ZM187.512 431.742C186.756 431.742 186.084 431.562 185.496 431.202C184.908 430.83 184.446 430.296 184.11 429.6C183.786 428.904 183.624 428.07 183.624 427.098V426.828C183.624 425.856 183.786 425.022 184.11 424.326C184.446 423.63 184.908 423.102 185.496 422.742C186.084 422.37 186.756 422.184 187.512 422.184C188.268 422.184 188.94 422.37 189.528 422.742C190.116 423.102 190.572 423.63 190.896 424.326C191.232 425.022 191.4 425.856 191.4 426.828V427.098C191.4 428.07 191.232 428.904 190.896 429.6C190.572 430.296 190.116 430.83 189.528 431.202C188.94 431.562 188.268 431.742 187.512 431.742ZM187.512 430.914C188.388 430.914 189.102 430.596 189.654 429.96C190.206 429.324 190.482 428.406 190.482 427.206V426.72C190.482 425.52 190.206 424.602 189.654 423.966C189.102 423.33 188.388 423.012 187.512 423.012C186.636 423.012 185.922 423.33 185.37 423.966C184.818 424.602 184.542 425.52 184.542 426.72V427.206C184.542 428.406 184.818 429.324 185.37 429.96C185.922 430.596 186.636 430.914 187.512 430.914ZM195.688 423.75C196.36 422.706 197.374 422.184 198.73 422.184C199.81 422.184 200.686 422.592 201.358 423.408C202.042 424.212 202.384 425.424 202.384 427.044V427.242C202.384 428.19 202.222 429.006 201.898 429.69C201.574 430.362 201.136 430.872 200.584 431.22C200.032 431.568 199.414 431.742 198.73 431.742C198.094 431.742 197.518 431.616 197.002 431.364C196.498 431.1 196.096 430.74 195.796 430.284V434.82H194.878V422.364H195.49L195.688 423.75ZM195.778 427.206C195.778 428.442 196.042 429.372 196.57 429.996C197.11 430.608 197.8 430.914 198.64 430.914C199.468 430.914 200.146 430.602 200.674 429.978C201.202 429.354 201.466 428.43 201.466 427.206V427.008C201.466 425.604 201.208 424.59 200.692 423.966C200.176 423.33 199.492 423.012 198.64 423.012C197.776 423.012 197.08 423.324 196.552 423.948C196.036 424.56 195.778 425.574 195.778 426.99V427.206Z" fill="#0A0A0A"/>
<path fill-rule="evenodd" clip-rule="evenodd" d="M97.8132 0.266846C90.3201 0.266846 83.2441 3.10607 77.6999 7.77781C80.0884 6.99823 82.6104 6.57619 85.1944 6.57619C98.6543 6.57619 110.432 18.0278 110.432 31.8138C110.432 45.5994 98.6535 57.0515 85.194 57.0515C82.6102 57.0515 80.0883 56.6295 77.6999 55.8499C83.244 60.5217 90.3199 63.361 97.8128 63.361C114.637 63.361 129.361 49.0458 129.361 31.8139C129.361 14.5813 114.638 0.266846 97.8132 0.266846ZM116.8 66.076C112.723 68.7061 108.125 70.5357 103.267 71.3295L112.551 92.8047L146.202 92.8046L116.8 66.076ZM94.9954 71.6554C88.3276 71.096 82.049 68.5757 76.7979 64.671V92.8047L104.138 92.8047L94.9954 71.6554Z" fill="#0A0A0A"/>
</svg>
