<svg width="26" height="43" viewBox="0 0 26 43" fill="none" xmlns="http://www.w3.org/2000/svg">
<path d="M12.8286 42.4079C12.8286 42.7349 13.0889 43 13.4109 43C17.4553 42.9999 22.8861 42.9999 25.4163 42.9999C25.9358 42.9999 26.1953 42.3621 25.8279 41.9891L13.8241 29.8002C13.4567 29.4272 12.8286 29.6914 12.8286 30.2189L12.8286 42.4079Z" fill="#1A1C21"/>
<path d="M23.4946 13.2222C23.4946 6.10145 17.5809 -0.087141 10.4963 0.0247798C10.4959 8.82304 10.4962 17.6213 10.4963 26.4196C17.5808 26.5312 23.4946 20.3431 23.4946 13.2222Z" fill="#1A1C21"/>
<path d="M0 17.1898C0 16.6627 0.627371 16.3984 0.994924 16.7706L7.99231 23.8581C8.10198 23.9692 8.16362 24.1201 8.16362 24.2774V42.4077C8.16362 42.7347 7.90255 42.9998 7.5805 42.9998H0.583116C0.26107 42.9998 0 42.7347 0 42.4077V17.1898Z" fill="#1A1C21"/>
</svg>
