<svg width="34" height="44" viewBox="0 0 34 44" fill="none" xmlns="http://www.w3.org/2000/svg">
<path fill-rule="evenodd" clip-rule="evenodd" d="M10.4918 0C6.92894 0 3.56439 1.35003 0.928224 3.5714C2.06397 3.20069 3.26318 3 4.49187 3C10.8918 3 16.492 8.445 16.492 15C16.492 21.5547 10.8914 27 4.49168 27C3.26312 27 2.06404 26.7993 0.928385 26.4287C3.56449 28.65 6.9289 30 10.4916 30C18.4913 30 25.492 23.1934 25.492 15C25.492 6.80625 18.4917 0 10.4918 0ZM19.5202 31.2908C17.5816 32.5414 15.3955 33.4113 13.0856 33.7888L17.4999 43.9999L33.5002 43.9998L19.5202 31.2908ZM9.15266 33.9438C5.98225 33.6778 2.99684 32.4794 0.5 30.6228V43.9999L13.4999 43.9999L9.15266 33.9438Z" fill="#0A0A0A"/>
</svg>
