<svg width="32" height="55" viewBox="0 0 32 55" fill="none" xmlns="http://www.w3.org/2000/svg">
<path d="M15.789 54.2761C15.789 54.6757 16.1093 54.9997 16.5057 54.9997C21.4834 54.9997 28.1674 54.9997 31.2816 54.9997C31.9209 54.9997 32.2403 54.2202 31.7882 53.7643L17.0142 38.8667C16.562 38.4108 15.789 38.7337 15.789 39.3785L15.789 54.2761Z" fill="#2261E0"/>
<path d="M30.1425 17.3684C30.1425 7.99827 22.3063 -0.14531 12.9185 0.00196712C12.918 11.5796 12.9183 23.1573 12.9185 34.7349C22.3062 34.8818 30.1425 26.7388 30.1425 17.3684Z" fill="#DD271A"/>
<path d="M0 23.4546C0 22.8103 0.772149 22.4872 1.22452 22.9423L9.83669 31.6048C9.97167 31.7405 10.0475 31.9249 10.0475 32.1171V54.2764C10.0475 54.6761 9.72621 55.0001 9.32985 55.0001H0.717681C0.321317 55.0001 0 54.6761 0 54.2764V23.4546Z" fill="#FFA910"/>
</svg>
