<svg width="16" height="22" viewBox="0 0 16 22" fill="none" xmlns="http://www.w3.org/2000/svg">
<path d="M8.5 1C8.5 0.723858 8.27614 0.5 8 0.5C7.72386 0.5 7.5 0.723858 7.5 1L8.5 1ZM7.64645 21.3536C7.84171 21.5488 8.15829 21.5488 8.35355 21.3536L11.5355 18.1716C11.7308 17.9763 11.7308 17.6597 11.5355 17.4645C11.3403 17.2692 11.0237 17.2692 10.8284 17.4645L8 20.2929L5.17157 17.4645C4.97631 17.2692 4.65973 17.2692 4.46447 17.4645C4.2692 17.6597 4.2692 17.9763 4.46447 18.1716L7.64645 21.3536ZM7.5 1L7.5 2L8.5 2L8.5 1L7.5 1ZM7.5 4L7.5 6L8.5 6L8.5 4L7.5 4ZM7.5 8L7.5 10L8.5 10L8.5 8L7.5 8ZM7.5 12L7.5 14L8.5 14L8.5 12L7.5 12ZM7.5 16L7.5 18L8.5 18L8.5 16L7.5 16ZM7.5 20L7.5 21L8.5 21L8.5 20L7.5 20ZM9 1C9 0.447715 8.55228 -2.41411e-08 8 0C7.44772 2.41411e-08 7 0.447715 7 1L9 1ZM7.29289 21.7071C7.68342 22.0976 8.31658 22.0976 8.70711 21.7071L15.0711 15.3431C15.4616 14.9526 15.4616 14.3195 15.0711 13.9289C14.6805 13.5384 14.0474 13.5384 13.6569 13.9289L8 19.5858L2.34315 13.9289C1.95262 13.5384 1.31946 13.5384 0.928933 13.9289C0.538408 14.3195 0.538409 14.9526 0.928933 15.3431L7.29289 21.7071ZM7 1L7 2L9 2L9 1L7 1ZM7 4L7 6L9 6L9 4L7 4ZM7 8L7 10L9 10L9 8L7 8ZM7 12L7 14L9 14L9 12L7 12ZM7 16L7 18L9 18L9 16L7 16ZM7 20L7 21L9 21L9 20L7 20Z" fill="#FF3F0F"/>
</svg>
