<svg width="15" height="22" viewBox="0 0 15 22" fill="none" xmlns="http://www.w3.org/2000/svg">
<path d="M8 1C8 0.723858 7.77614 0.5 7.5 0.5C7.22386 0.5 7 0.723858 7 1L8 1ZM7.14645 21.3536C7.34171 21.5488 7.65829 21.5488 7.85355 21.3536L11.0355 18.1716C11.2308 17.9763 11.2308 17.6597 11.0355 17.4645C10.8403 17.2692 10.5237 17.2692 10.3284 17.4645L7.5 20.2929L4.67157 17.4645C4.47631 17.2692 4.15973 17.2692 3.96447 17.4645C3.7692 17.6597 3.7692 17.9763 3.96447 18.1716L7.14645 21.3536ZM7 1L7 2.66667L8 2.66667L8 1L7 1ZM7 6L7 9.33333L8 9.33333L8 6L7 6ZM7 12.6667L7 16L8 16L8 12.6667L7 12.6667ZM7 19.3333L7 21L8 21L8 19.3333L7 19.3333ZM8.5 1C8.5 0.447715 8.05228 -2.41411e-08 7.5 0C6.94772 2.41411e-08 6.5 0.447715 6.5 1L8.5 1ZM6.79289 21.7071C7.18342 22.0976 7.81658 22.0976 8.20711 21.7071L14.5711 15.3431C14.9616 14.9526 14.9616 14.3195 14.5711 13.9289C14.1805 13.5384 13.5474 13.5384 13.1569 13.9289L7.5 19.5858L1.84315 13.9289C1.45262 13.5384 0.819457 13.5384 0.428933 13.9289C0.0384085 14.3195 0.0384085 14.9526 0.428933 15.3431L6.79289 21.7071ZM6.5 1L6.5 2.66667L8.5 2.66667L8.5 1L6.5 1ZM6.5 6L6.5 9.33333L8.5 9.33333L8.5 6L6.5 6ZM6.5 12.6667L6.5 16L8.5 16L8.5 12.6667L6.5 12.6667ZM6.5 19.3333L6.5 21L8.5 21L8.5 19.3333L6.5 19.3333Z" fill="#0FFF19"/>
</svg>
