<svg width="215" height="212" viewBox="0 0 215 212" fill="none" xmlns="http://www.w3.org/2000/svg">
<path d="M211.2 121.833C211.876 121.878 212.407 121.631 212.793 121.091C213.191 120.564 213.418 119.866 213.476 118.999C213.535 118.109 213.414 117.383 213.112 116.82C212.822 116.258 212.316 115.952 211.595 115.904C211.122 115.873 210.73 115.988 210.419 116.25C210.118 116.513 209.87 116.847 209.673 117.252C209.488 117.658 209.281 118.21 209.054 118.908C208.771 119.748 208.506 120.421 208.257 120.924C208.019 121.44 207.669 121.864 207.206 122.195C206.753 122.538 206.161 122.685 205.429 122.636C204.269 122.559 203.444 122.119 202.955 121.317C202.476 120.527 202.277 119.524 202.358 118.308C202.442 117.047 202.769 116.051 203.338 115.32C203.918 114.589 204.794 114.263 205.965 114.341L206.268 114.378L206.21 115.24L205.755 115.192C204.933 115.138 204.311 115.396 203.888 115.967C203.477 116.539 203.239 117.315 203.173 118.295C203.027 120.479 203.782 121.627 205.438 121.737C205.967 121.773 206.405 121.649 206.752 121.367C207.098 121.096 207.37 120.746 207.568 120.319C207.766 119.902 207.991 119.323 208.244 118.582C208.525 117.764 208.783 117.114 209.019 116.632C209.255 116.15 209.587 115.748 210.016 115.426C210.455 115.104 211.019 114.967 211.706 115.013C212.652 115.076 213.337 115.483 213.762 116.236C214.186 116.999 214.361 117.933 214.288 119.036C214.212 120.174 213.903 121.08 213.36 121.757C212.817 122.433 212.028 122.737 210.992 122.668L210.772 122.653L210.828 121.809L211.2 121.833Z" fill="#C4CDDF"/>
<path d="M203.349 132.099C202.627 131.969 202.031 131.712 201.561 131.33C201.102 130.949 200.779 130.484 200.591 129.934C200.415 129.386 200.383 128.795 200.497 128.162C200.623 127.463 200.902 126.871 201.333 126.386C201.773 125.915 202.343 125.588 203.041 125.404C203.739 125.22 204.538 125.209 205.438 125.371L205.688 125.416C206.587 125.578 207.333 125.861 207.926 126.266C208.516 126.682 208.93 127.186 209.167 127.779C209.413 128.386 209.473 129.039 209.347 129.738C209.233 130.372 208.993 130.913 208.625 131.363C208.266 131.826 207.8 132.155 207.226 132.35C206.663 132.546 206.021 132.58 205.299 132.45L205.449 131.617C206.315 131.773 207.019 131.653 207.56 131.257C208.111 130.875 208.451 130.322 208.581 129.601C208.725 128.801 208.548 128.098 208.049 127.492C207.55 126.886 206.745 126.483 205.635 126.283L205.185 126.202C204.074 126.002 203.179 126.099 202.501 126.493C201.82 126.898 201.408 127.501 201.264 128.3C201.134 129.022 201.254 129.658 201.626 130.206C201.997 130.755 202.622 131.108 203.499 131.266L203.349 132.099Z" fill="#C4CDDF"/>
<path d="M203.024 140.909C203.567 141.063 204.1 141.045 204.624 140.853C205.159 140.665 205.53 140.208 205.737 139.48C205.879 138.981 205.859 138.535 205.677 138.143C205.506 137.754 205.251 137.435 204.911 137.186C204.568 136.948 204.223 136.779 203.876 136.68L198.6 135.179L198.837 134.348L207.157 136.716L206.999 137.27L205.711 137.097C205.754 137.109 205.872 137.231 206.065 137.462C206.254 137.703 206.403 138.027 206.51 138.433C206.614 138.85 206.591 139.324 206.439 139.856C206.195 140.714 205.742 141.295 205.081 141.599C204.427 141.918 203.709 141.966 202.928 141.743C202.819 141.713 202.734 141.682 202.672 141.653C202.61 141.624 202.568 141.606 202.546 141.6L202.764 140.834L203.024 140.909Z" fill="#C4CDDF"/>
<path d="M194.449 145.668C194.707 145.005 195.094 144.478 195.611 144.085C196.138 143.697 196.763 143.475 197.488 143.418C198.209 143.372 198.995 143.515 199.846 143.847L200.083 143.939C200.935 144.271 201.61 144.698 202.11 145.219C202.605 145.752 202.91 146.337 203.024 146.975C203.149 147.617 203.083 148.27 202.825 148.932C202.566 149.595 202.174 150.12 201.647 150.508C201.131 150.901 200.512 151.12 199.792 151.166C199.067 151.223 198.279 151.085 197.427 150.753L197.19 150.661C196.339 150.329 195.665 149.897 195.17 149.365C194.671 148.843 194.359 148.261 194.234 147.619C194.119 146.98 194.191 146.33 194.449 145.668ZM195.175 145.95C194.875 146.718 194.91 147.452 195.279 148.153C195.648 148.854 196.358 149.41 197.409 149.819L197.835 149.985C198.887 150.395 199.786 150.467 200.531 150.201C201.277 149.934 201.8 149.417 202.099 148.649C202.398 147.882 202.363 147.147 201.995 146.447C201.626 145.746 200.916 145.19 199.864 144.78L199.438 144.614C198.387 144.204 197.488 144.133 196.742 144.399C195.996 144.666 195.474 145.183 195.175 145.95Z" fill="#C4CDDF"/>
<path d="M191.701 151.209L202.534 156.796L202.139 157.563L191.305 151.976L191.701 151.209Z" fill="#C4CDDF"/>
<path d="M189.111 155.695L199.618 161.874L199.18 162.618L188.673 156.439L189.111 155.695Z" fill="#C4CDDF"/>
<path d="M192.152 171.681L189.934 174.672C189.107 175.787 188.115 176.415 186.958 176.554C185.803 176.709 184.405 176.179 182.764 174.962L182.424 174.71C180.792 173.5 179.874 172.313 179.669 171.15C179.473 169.993 179.785 168.861 180.605 167.755L182.823 164.763L192.152 171.681ZM181.258 168.239C180.599 169.128 180.355 170.035 180.524 170.962C180.694 171.889 181.468 172.863 182.846 173.885L183.431 174.318C185.906 176.154 187.856 176.11 189.281 174.188L190.955 171.931L182.932 165.982L181.258 168.239Z" fill="#C4CDDF"/>
<path d="M172.952 175.488C173.441 174.971 173.999 174.629 174.625 174.46C175.259 174.299 175.923 174.329 176.615 174.55C177.3 174.779 177.974 175.208 178.638 175.836L178.822 176.011C179.486 176.639 179.951 177.289 180.217 177.961C180.475 178.64 180.536 179.297 180.402 179.932C180.276 180.574 179.968 181.153 179.479 181.669C178.99 182.185 178.429 182.524 177.794 182.685C177.168 182.854 176.513 182.824 175.828 182.595C175.135 182.374 174.457 181.949 173.793 181.321L173.609 181.146C172.945 180.518 172.484 179.863 172.227 179.184C171.961 178.512 171.891 177.856 172.017 177.214C172.152 176.579 172.463 176.004 172.952 175.488ZM173.518 176.023C172.951 176.621 172.707 177.315 172.784 178.103C172.861 178.891 173.31 179.673 174.129 180.449L174.461 180.764C175.28 181.54 176.086 181.945 176.877 181.979C177.668 182.014 178.347 181.732 178.914 181.134C179.48 180.536 179.725 179.842 179.648 179.054C179.57 178.266 179.122 177.484 178.303 176.708L177.971 176.393C177.151 175.617 176.346 175.212 175.555 175.178C174.763 175.143 174.084 175.425 173.518 176.023Z" fill="#C4CDDF"/>
<path d="M165.613 181.902L166.127 181.462L174.026 186.092L173.344 186.674L166.88 182.89L166.841 182.923L169.573 189.897L168.813 190.546L162.35 186.761L162.311 186.794L165.043 193.769L164.412 194.308L161.083 185.773L161.597 185.333L168.498 189.369L168.523 189.347L165.613 181.902Z" fill="#C4CDDF"/>
<path d="M155.008 195.253C155.503 196.022 156.053 196.48 156.658 196.627C157.254 196.78 157.879 196.646 158.534 196.224C158.951 195.956 159.267 195.612 159.48 195.192C159.693 194.773 159.786 194.324 159.759 193.844C159.723 193.371 159.567 192.921 159.292 192.494L156.414 188.025L157.14 187.557L161.824 194.83L161.34 195.142L160.487 194.161C160.485 194.699 160.34 195.215 160.054 195.708C159.758 196.208 159.368 196.613 158.884 196.925C158.087 197.438 157.292 197.621 156.499 197.474C155.703 197.343 155.015 196.826 154.434 195.925L151.418 191.242L152.13 190.784L155.008 195.253Z" fill="#C4CDDF"/>
<path d="M140.531 202.091C140.358 201.698 140.296 201.288 140.342 200.861C140.393 200.444 140.547 200.063 140.801 199.717C141.056 199.371 141.38 199.111 141.773 198.939C142.166 198.767 142.57 198.706 142.987 198.757C143.404 198.809 143.783 198.957 144.125 199.201C144.471 199.456 144.73 199.78 144.902 200.172C145.075 200.565 145.135 200.97 145.084 201.387C145.037 201.814 144.892 202.198 144.647 202.54C144.403 202.881 144.084 203.138 143.691 203.311C143.298 203.483 142.888 203.546 142.461 203.499C142.034 203.452 141.647 203.302 141.301 203.047C140.96 202.802 140.703 202.484 140.531 202.091Z" fill="#C4CDDF"/>
<path d="M124.761 209.274C124.93 209.93 125.331 210.357 125.965 210.555C126.591 210.767 127.324 210.764 128.166 210.548C129.029 210.325 129.681 209.983 130.121 209.52C130.564 209.068 130.696 208.492 130.516 207.792C130.397 207.333 130.165 206.997 129.819 206.783C129.475 206.58 129.08 206.449 128.633 206.389C128.19 206.34 127.601 206.317 126.867 206.319C125.98 206.314 125.259 206.273 124.703 206.195C124.138 206.13 123.626 205.93 123.167 205.594C122.699 205.271 122.374 204.755 122.191 204.044C121.901 202.919 122.06 201.998 122.669 201.282C123.269 200.58 124.159 200.076 125.339 199.773C126.563 199.457 127.612 199.456 128.484 199.767C129.36 200.089 129.944 200.819 130.237 201.956L130.296 202.255L129.46 202.47L129.363 202.023C129.157 201.225 128.717 200.715 128.042 200.493C127.37 200.281 126.558 200.298 125.607 200.543C123.487 201.089 122.634 202.165 123.047 203.771C123.18 204.285 123.434 204.663 123.811 204.903C124.177 205.147 124.594 205.296 125.062 205.351C125.52 205.408 126.14 205.44 126.923 205.448C127.788 205.459 128.486 205.5 129.018 205.573C129.549 205.646 130.035 205.836 130.475 206.142C130.918 206.459 131.226 206.951 131.397 207.618C131.634 208.536 131.461 209.315 130.88 209.954C130.288 210.596 129.456 211.054 128.385 211.33C127.281 211.614 126.323 211.605 125.51 211.301C124.698 210.997 124.162 210.343 123.903 209.337L123.849 209.124L124.668 208.913L124.761 209.274Z" fill="#C4CDDF"/>
<path d="M112.444 205.003C112.344 204.276 112.402 203.63 112.62 203.064C112.84 202.51 113.182 202.058 113.646 201.709C114.112 201.371 114.664 201.158 115.301 201.069C116.005 200.972 116.654 201.053 117.249 201.312C117.833 201.585 118.321 202.024 118.713 202.631C119.105 203.237 119.363 203.994 119.488 204.899L119.523 205.151C119.649 206.056 119.611 206.853 119.41 207.542C119.198 208.232 118.847 208.782 118.357 209.192C117.857 209.614 117.255 209.874 116.55 209.972C115.913 210.06 115.324 209.999 114.782 209.789C114.231 209.592 113.773 209.251 113.41 208.766C113.048 208.292 112.817 207.691 112.716 206.965L113.554 206.849C113.675 207.721 114.008 208.352 114.552 208.744C115.086 209.149 115.717 209.301 116.444 209.2C117.249 209.089 117.862 208.702 118.283 208.04C118.704 207.378 118.837 206.488 118.682 205.37L118.619 204.917C118.465 203.799 118.095 202.978 117.509 202.456C116.913 201.934 116.213 201.729 115.408 201.841C114.681 201.941 114.115 202.253 113.709 202.777C113.302 203.3 113.161 204.003 113.283 204.887L112.444 205.003Z" fill="#C4CDDF"/>
<path d="M103.989 207.451C104.012 208.015 104.196 208.516 104.542 208.953C104.888 209.402 105.439 209.611 106.195 209.579C106.713 209.558 107.13 209.399 107.446 209.104C107.762 208.82 107.985 208.477 108.115 208.076C108.234 207.676 108.286 207.295 108.271 206.935L108.044 201.454L108.906 201.419L109.265 210.062L108.689 210.086L108.45 208.808C108.452 208.853 108.374 209.003 108.215 209.258C108.045 209.514 107.783 209.756 107.431 209.985C107.068 210.215 106.61 210.341 106.058 210.364C105.167 210.401 104.473 210.153 103.977 209.62C103.469 209.099 103.199 208.433 103.165 207.621C103.161 207.508 103.163 207.417 103.171 207.349C103.179 207.281 103.183 207.236 103.182 207.213L103.977 207.18L103.989 207.451Z" fill="#C4CDDF"/>
<path d="M96.5474 200.787C97.2575 200.824 97.88 201.025 98.415 201.391C98.9494 201.769 99.3577 202.293 99.6398 202.963C99.9106 203.632 100.023 204.423 99.9759 205.336L99.9629 205.59C99.9161 206.503 99.7238 207.278 99.386 207.917C99.0369 208.554 98.5776 209.028 98.0079 209.338C97.4377 209.659 96.7976 209.801 96.0875 209.765C95.3774 209.728 94.7552 209.521 94.2208 209.144C93.6858 208.777 93.2829 208.259 93.0121 207.59C92.7299 206.92 92.6123 206.129 92.659 205.216L92.672 204.962C92.7188 204.049 92.9167 203.274 93.2658 202.636C93.6036 201.998 94.0576 201.519 94.6278 201.197C95.1975 200.888 95.8373 200.751 96.5474 200.787ZM96.5076 201.565C95.6848 201.523 94.9988 201.787 94.4497 202.358C93.9006 202.929 93.5972 203.778 93.5395 204.905L93.5161 205.361C93.4584 206.489 93.6734 207.364 94.1613 207.988C94.6492 208.612 95.3045 208.945 96.1273 208.987C96.9502 209.029 97.6361 208.765 98.1852 208.194C98.7343 207.623 99.0377 206.774 99.0954 205.647L99.1188 205.191C99.1765 204.064 98.9615 203.188 98.4736 202.564C97.9857 201.94 97.3304 201.607 96.5076 201.565Z" fill="#C4CDDF"/>
<path d="M90.3556 199.879L88.4262 211.914L87.5737 211.777L89.5031 199.742L90.3556 199.879Z" fill="#C4CDDF"/>
<path d="M85.3989 198.846L82.8274 210.76L81.9835 210.578L84.5549 198.664L85.3989 198.846Z" fill="#C4CDDF"/>
<path d="M71.2089 206.749L67.6723 205.581C66.3541 205.146 65.4473 204.401 64.9518 203.346C64.4421 202.298 64.5075 200.804 65.148 198.864L65.2807 198.462C65.9177 196.533 66.7565 195.289 67.7971 194.729C68.8341 194.18 70.0064 194.122 71.3138 194.554L74.8504 195.721L71.2089 206.749ZM71.059 195.325C70.0088 194.978 69.0703 195.031 68.2435 195.483C67.4168 195.935 66.7345 196.975 66.1966 198.604L65.9683 199.296C65.0022 202.221 65.6551 204.059 67.9271 204.81L70.5956 205.691L73.7275 196.206L71.059 195.325Z" fill="#C4CDDF"/>
<path d="M61.5898 189.697C62.2335 189.999 62.7336 190.421 63.0903 190.962C63.4422 191.514 63.622 192.153 63.6299 192.88C63.6275 193.602 63.4321 194.377 63.0435 195.205L62.9356 195.434C62.5471 196.262 62.0758 196.907 61.5218 197.37C60.9575 197.828 60.3531 198.093 59.7086 198.165C59.0593 198.246 58.4129 198.136 57.7693 197.834C57.1257 197.532 56.6279 197.105 56.276 196.553C55.9193 196.012 55.7422 195.38 55.7446 194.658C55.7367 193.931 55.9271 193.154 56.3156 192.326L56.4235 192.096C56.812 191.269 57.2884 190.626 57.8527 190.168C58.4067 189.705 59.0084 189.432 59.6577 189.351C60.3022 189.279 60.9462 189.395 61.5898 189.697ZM61.2589 190.402C60.5131 190.052 59.7781 190.037 59.054 190.358C58.3298 190.678 57.7279 191.35 57.2482 192.371L57.0539 192.785C56.5743 193.807 56.4423 194.699 56.658 195.461C56.8737 196.223 57.3545 196.779 58.1003 197.129C58.846 197.479 59.581 197.494 60.3052 197.173C61.0293 196.852 61.6312 196.181 62.1109 195.159L62.3052 194.746C62.7848 193.724 62.9168 192.832 62.7011 192.07C62.4854 191.308 62.0046 190.752 61.2589 190.402Z" fill="#C4CDDF"/>
<path d="M53.2542 184.722L53.8328 185.073L51.8984 194.022L51.1317 193.556L52.711 186.234L52.6676 186.208L46.8936 190.978L46.0401 190.459L47.6195 183.138L47.5761 183.111L41.802 187.882L41.0932 187.451L48.1626 181.625L48.7412 181.977L47.0603 189.792L47.0892 189.809L53.2542 184.722Z" fill="#C4CDDF"/>
<path d="M37.3028 178.808C36.7267 179.518 36.4628 180.183 36.5113 180.804C36.551 181.417 36.8732 181.97 37.4779 182.46C37.8634 182.773 38.2886 182.966 38.7534 183.038C39.2183 183.11 39.6743 183.059 40.1215 182.884C40.5599 182.702 40.9391 182.414 41.2592 182.019L44.6092 177.892L45.2796 178.436L39.8278 185.153L39.3809 184.79L40.0471 183.674C39.5348 183.839 38.9997 183.863 38.4417 183.744C37.8751 183.619 37.3683 183.375 36.9214 183.012C36.1853 182.414 35.7637 181.716 35.6565 180.917C35.5335 180.119 35.8098 179.304 36.4855 178.472L39.9956 174.147L40.6528 174.681L37.3028 178.808Z" fill="#C4CDDF"/>
<path d="M26.303 167.161C26.6229 166.875 26.9931 166.689 27.4138 166.6C27.826 166.52 28.2361 166.547 28.6441 166.682C29.0521 166.817 29.399 167.044 29.6847 167.364C29.9703 167.684 30.1535 168.05 30.2341 168.462C30.3148 168.874 30.2918 169.281 30.1653 169.681C30.0303 170.089 29.8029 170.436 29.483 170.722C29.1632 171.008 28.7971 171.191 28.3849 171.271C27.9643 171.359 27.5537 171.34 27.1532 171.214C26.7527 171.087 26.4096 170.864 26.1239 170.544C25.8383 170.224 25.6513 169.854 25.5632 169.433C25.475 169.013 25.4984 168.598 25.6334 168.19C25.7599 167.79 25.9831 167.447 26.303 167.161Z" fill="#C4CDDF"/>
<path d="M14.5569 154.516C13.9876 154.882 13.7087 155.398 13.7201 156.061C13.7159 156.722 13.9491 157.417 14.4197 158.148C14.9025 158.898 15.4329 159.408 16.0109 159.681C16.5794 159.959 17.1673 159.902 17.7745 159.511C18.173 159.254 18.4193 158.928 18.5132 158.532C18.5976 158.142 18.5979 157.726 18.5141 157.283C18.4208 156.846 18.2576 156.28 18.0244 155.585C17.7497 154.741 17.5619 154.043 17.4611 153.491C17.3446 152.935 17.3736 152.386 17.5481 151.844C17.707 151.299 18.0948 150.827 18.7116 150.43C19.6888 149.801 20.613 149.662 21.484 150.014C22.3394 150.362 23.0971 151.049 23.7572 152.073C24.4416 153.136 24.7734 154.131 24.7525 155.057C24.7222 155.989 24.2136 156.773 23.2268 157.409L22.9614 157.56L22.4939 156.834L22.8874 156.601C23.58 156.154 23.9257 155.576 23.9244 154.865C23.9136 154.161 23.6424 153.396 23.1107 152.57C21.9251 150.73 20.6349 150.258 19.2401 151.157C18.7942 151.444 18.5161 151.804 18.4059 152.238C18.2897 152.662 18.2796 153.105 18.3756 153.566C18.4655 154.018 18.6298 154.617 18.8684 155.363C19.1309 156.188 19.3112 156.863 19.4093 157.391C19.5074 157.918 19.4804 158.439 19.3283 158.953C19.1667 159.474 18.7965 159.92 18.2177 160.293C17.4207 160.806 16.6273 160.888 15.8377 160.537C15.042 160.177 14.3446 159.532 13.7457 158.602C13.1285 157.644 12.8361 156.731 12.8686 155.865C12.901 154.998 13.3537 154.284 14.2266 153.721L14.4117 153.602L14.87 154.314L14.5569 154.516Z" fill="#C4CDDF"/>
<path d="M14.7354 141.485C15.3934 141.16 16.0251 141.012 16.6306 141.041C17.226 141.075 17.7626 141.257 18.2402 141.587C18.7078 141.923 19.0838 142.38 19.3682 142.957C19.6827 143.594 19.8103 144.236 19.7512 144.882C19.677 145.522 19.4137 146.124 18.9613 146.687C18.509 147.25 17.8728 147.733 17.0529 148.137L16.8251 148.25C16.0052 148.654 15.2368 148.869 14.5199 148.895C13.798 148.912 13.1655 148.752 12.6222 148.416C12.0639 148.074 11.6275 147.585 11.3131 146.947C11.0286 146.37 10.9006 145.791 10.9291 145.211C10.9424 144.626 11.1221 144.084 11.4681 143.586C11.804 143.094 12.3009 142.685 12.9589 142.361L13.3332 143.12C12.5436 143.509 12.0486 144.024 11.8482 144.664C11.6327 145.298 11.6871 145.945 12.0115 146.603C12.3709 147.331 12.9311 147.791 13.6922 147.982C14.4533 148.173 15.3399 148.019 16.3522 147.52L16.7622 147.318C17.7744 146.819 18.4365 146.209 18.7484 145.489C19.0553 144.759 19.0291 144.03 18.6698 143.301C18.3454 142.643 17.8708 142.204 17.2462 141.983C16.6216 141.763 15.9094 141.85 15.1097 142.244L14.7354 141.485Z" fill="#C4CDDF"/>
<path d="M9.77021 134.18C9.24159 134.378 8.82309 134.709 8.51473 135.173C8.1958 135.642 8.16864 136.23 8.43326 136.939C8.61494 137.425 8.8952 137.772 9.27405 137.98C9.64233 138.192 10.0372 138.297 10.4585 138.297C10.876 138.285 11.2538 138.216 11.5922 138.09L16.7304 136.171L17.0325 136.979L8.92873 140.007L8.7273 139.467L9.8674 138.843C9.82511 138.859 9.65804 138.831 9.3662 138.759C9.07042 138.677 8.75889 138.504 8.43163 138.241C8.10041 137.967 7.83804 137.571 7.64451 137.053C7.3325 136.218 7.35258 135.481 7.70475 134.844C8.04239 134.199 8.59183 133.735 9.35305 133.451C9.45877 133.411 9.54533 133.385 9.61271 133.372C9.6801 133.359 9.72436 133.348 9.74551 133.34L10.0239 134.086L9.77021 134.18Z" fill="#C4CDDF"/>
<path d="M13.8969 125.538C14.0846 126.224 14.0882 126.878 13.9076 127.501C13.7161 128.127 13.3464 128.678 12.7984 129.156C12.2475 129.623 11.5312 129.977 10.6494 130.218L10.4045 130.285C9.52272 130.526 8.72594 130.586 8.01412 130.465C7.29933 130.333 6.70565 130.045 6.2331 129.601C5.74965 129.16 5.41409 128.597 5.2264 127.911C5.03871 127.225 5.0406 126.569 5.23208 125.944C5.41267 125.321 5.77844 124.776 6.32938 124.309C6.87734 123.832 7.59219 123.472 8.47394 123.231L8.71887 123.164C9.60062 122.923 10.3989 122.868 11.1137 123C11.8255 123.121 12.4231 123.402 12.9066 123.843C13.3791 124.287 13.7093 124.852 13.8969 125.538ZM13.1458 125.744C12.9283 124.949 12.4626 124.38 11.7486 124.037C11.0346 123.694 10.1333 123.672 9.04475 123.97L8.60388 124.091C7.5153 124.388 6.75105 124.867 6.31115 125.525C5.87125 126.184 5.76004 126.911 5.97752 127.705C6.195 128.5 6.66074 129.069 7.37473 129.412C8.08872 129.754 8.99001 129.777 10.0786 129.479L10.5195 129.358C11.608 129.06 12.3723 128.582 12.8122 127.923C13.2521 127.265 13.3633 126.538 13.1458 125.744Z" fill="#C4CDDF"/>
<path d="M12.7971 119.397L0.764807 121.345L0.626782 120.493L12.659 118.544L12.7971 119.397Z" fill="#C4CDDF"/>
<path d="M12.2116 114.326L0.0920941 115.626L0 114.767L12.1195 113.467L12.2116 114.326Z" fill="#C4CDDF"/>
<path d="M0.230079 103.467L0.219456 99.7429C0.215496 98.3547 0.635602 97.2588 1.47977 96.4551C2.31262 95.6401 3.75044 95.2297 5.79322 95.2238L6.21645 95.2226C8.24794 95.2168 9.69372 95.619 10.5538 96.4292C11.4025 97.2394 11.8289 98.3329 11.8328 99.7098L11.8435 103.434L0.230079 103.467ZM11.0202 99.7121C11.0171 98.6061 10.6704 97.7324 9.98007 97.091C9.28978 96.4497 8.0869 96.1315 6.37142 96.1364L5.64346 96.1385C2.56237 96.1472 1.02523 97.348 1.03205 99.7406L1.04007 102.551L11.0282 102.522L11.0202 99.7121Z" fill="#C4CDDF"/>
<path d="M13.3904 88.5976C13.3049 89.3035 13.0608 89.9106 12.6582 90.4189C12.2443 90.9258 11.6935 91.2968 11.0056 91.5318C10.3192 91.7556 9.52214 91.8125 8.6146 91.7026L8.36251 91.672C7.45496 91.5621 6.69459 91.3165 6.08139 90.9353C5.46954 90.5429 5.02881 90.0518 4.75918 89.4621C4.47835 88.871 4.38069 88.2225 4.46619 87.5167C4.55169 86.8108 4.80135 86.2044 5.21519 85.6974C5.61781 85.1892 6.16237 84.8231 6.84886 84.5993C7.5367 84.3643 8.3344 84.3018 9.24194 84.4117L9.49403 84.4422C10.4016 84.5522 11.1613 84.8034 11.7731 85.1958C12.3863 85.577 12.8333 86.0632 13.1142 86.6542C13.3838 87.244 13.4759 87.8918 13.3904 88.5976ZM12.6173 88.504C12.7163 87.6861 12.5002 86.9835 11.9688 86.3961C11.4374 85.8088 10.6115 85.4473 9.49105 85.3116L9.03728 85.2566C7.91686 85.1209 7.02852 85.2748 6.37227 85.7182C5.71601 86.1617 5.33835 86.7924 5.23928 87.6103C5.14021 88.4282 5.35637 89.1308 5.88776 89.7181C6.41916 90.3055 7.24507 90.667 8.36549 90.8027L8.81926 90.8577C9.93968 90.9934 10.828 90.8395 11.4843 90.396C12.1405 89.9526 12.5182 89.3219 12.6173 88.504Z" fill="#C4CDDF"/>
<path d="M15.4879 79.0119L15.335 79.6715L6.23092 80.6367L6.43358 79.7626L13.8816 78.9696L13.893 78.9201L7.55393 74.9305L7.77952 73.9575L15.2275 73.1645L15.239 73.115L8.89987 69.1254L9.08723 68.3174L16.8339 73.2068L16.6809 73.8665L8.73295 74.7173L8.7253 74.7503L15.4879 79.0119Z" fill="#C4CDDF"/>
<path d="M16.0302 62.1566C15.1759 61.8311 14.4615 61.7882 13.8869 62.0282C13.3164 62.2576 12.8924 62.7362 12.6151 63.4639C12.4382 63.9279 12.3881 64.3919 12.4649 64.856C12.5417 65.3201 12.7329 65.7372 13.0387 66.1074C13.3486 66.467 13.7407 66.7373 14.2153 66.9182L19.1825 68.8114L18.875 69.6182L10.7915 66.5372L10.9965 65.9993L12.265 66.2835C11.9477 65.8486 11.7582 65.3476 11.6965 64.7805C11.6389 64.203 11.7125 63.6453 11.9175 63.1074C12.2552 62.2215 12.7869 61.6029 13.5127 61.2515C14.2319 60.8855 15.0925 60.8934 16.0943 61.2753L21.2988 63.2589L20.9974 64.0499L16.0302 62.1566Z" fill="#C4CDDF"/>
<path d="M23.5956 48.0931C23.9669 48.3078 24.2601 48.6011 24.4752 48.9732C24.6805 49.3396 24.7828 49.7377 24.782 50.1675C24.7812 50.5972 24.6735 50.9978 24.4588 51.369C24.2441 51.7403 23.9536 52.0286 23.5872 52.2339C23.2207 52.4392 22.8275 52.5443 22.4075 52.5492C21.9778 52.5484 21.5773 52.4407 21.206 52.226C20.8347 52.0113 20.5464 51.7208 20.3411 51.3544C20.126 50.9823 20.016 50.5863 20.0112 50.1663C20.0063 49.7463 20.1112 49.3507 20.3259 48.9794C20.5405 48.6081 20.8339 48.3149 21.206 48.0998C21.578 47.8847 21.979 47.7776 22.4087 47.7784C22.8287 47.7735 23.2243 47.8784 23.5956 48.0931Z" fill="#C4CDDF"/>
<path d="M32.2356 32.6379C31.7114 32.2092 31.1353 32.1026 30.5072 32.3179C29.8775 32.5174 29.2877 32.9535 28.7375 33.6263C28.1731 34.3165 27.8505 34.9784 27.7697 35.6121C27.6801 36.2387 27.9149 36.7806 28.474 37.2378C28.841 37.5379 29.2273 37.6716 29.6331 37.639C30.0301 37.5991 30.4264 37.4712 30.8218 37.2551C31.2084 37.0319 31.6967 36.7022 32.2866 36.2661C33.0043 35.745 33.6105 35.3513 34.1052 35.0852C34.5982 34.8032 35.1294 34.6617 35.6988 34.6607C36.2665 34.6439 36.8344 34.8677 37.4023 35.3321C38.3022 36.068 38.7189 36.9044 38.6524 37.8415C38.5844 38.7626 38.1645 39.695 37.3929 40.6386C36.5928 41.6171 35.7488 42.2391 34.8611 42.5046C33.9646 42.7629 33.0621 42.5205 32.1534 41.7775L31.9283 41.5715L32.4748 40.9031L32.8179 41.2056C33.4557 41.7271 34.1125 41.8778 34.7882 41.6577C35.4552 41.4304 36.0994 40.9367 36.721 40.1766C38.1071 38.4816 38.1579 37.109 36.8736 36.0588C36.463 35.723 36.0345 35.5695 35.5882 35.5982C35.1491 35.6181 34.7247 35.7449 34.315 35.9785C33.9125 36.2033 33.3932 36.5441 32.7573 37.0009C32.0539 37.5045 31.4663 37.8842 30.9947 38.1401C30.5231 38.3959 30.0193 38.5306 29.4833 38.5443C28.9385 38.5507 28.3997 38.3361 27.8667 37.9003C27.1328 37.3001 26.811 36.5705 26.9013 35.7112C26.9988 34.8433 27.3976 33.9812 28.0978 33.125C28.8193 32.2425 29.5974 31.6833 30.4319 31.4472C31.2665 31.2112 32.0856 31.4218 32.8894 32.0791L33.0598 32.2184L32.5239 32.8737L32.2356 32.6379Z" fill="#C4CDDF"/>
<path d="M44.6393 28.7871C45.1514 29.3125 45.4875 29.8675 45.6476 30.4522C45.7998 31.0288 45.7925 31.5953 45.6258 32.1519C45.4512 32.7003 45.1335 33.1991 44.6728 33.6481C44.1636 34.1444 43.5929 34.4643 42.9605 34.6078C42.3284 34.7354 41.6748 34.6712 40.9996 34.4151C40.3245 34.159 39.6679 33.7037 39.0298 33.049L38.8526 32.8672C38.2145 32.2125 37.7721 31.5484 37.5253 30.8748C37.2866 30.1934 37.2431 29.5424 37.3947 28.9218C37.5465 28.2852 37.877 27.7188 38.3862 27.2225C38.8469 26.7735 39.3575 26.4728 39.9182 26.3203C40.479 26.1519 41.0496 26.1552 41.63 26.3303C42.2025 26.4972 42.7448 26.8434 43.2568 27.3687L42.6507 27.9596C42.0362 27.3291 41.3937 27.0176 40.7232 27.025C40.0529 27.0164 39.4551 27.2681 38.9298 27.7802C38.3478 28.3474 38.0838 29.0224 38.1376 29.8052C38.1914 30.5881 38.6122 31.3836 39.4 32.1918L39.719 32.5191C40.5068 33.3273 41.2913 33.7684 42.0725 33.8422C42.8618 33.9082 43.5474 33.6576 44.1293 33.0904C44.6546 32.5784 44.9255 31.9912 44.942 31.329C44.9584 30.6668 44.6555 30.0164 44.0332 29.378L44.6393 28.7871Z" fill="#C4CDDF"/>
<path d="M50.011 21.7837C49.6587 21.343 49.2137 21.0485 48.6762 20.9002C48.1316 20.7432 47.564 20.9008 46.9733 21.373C46.5678 21.6971 46.3254 22.0716 46.2459 22.4964C46.1594 22.9123 46.1822 23.3204 46.3143 23.7205C46.4552 24.1136 46.6384 24.4512 46.8639 24.7333L50.289 29.0175L49.6147 29.5566L44.2127 22.7998L44.6622 22.4404L45.6111 23.329C45.5829 23.2937 45.5574 23.1263 45.5346 22.8266C45.5206 22.5199 45.5877 22.1701 45.7359 21.7771C45.8929 21.377 46.1873 21.0043 46.6193 20.659C47.3157 20.1022 48.0217 19.8918 48.7372 20.0278C49.4546 20.1479 50.067 20.5252 50.5744 21.1599C50.6449 21.2481 50.6968 21.3221 50.7303 21.3821C50.7638 21.442 50.7876 21.4808 50.8017 21.4984L50.1802 21.9953L50.011 21.7837Z" fill="#C4CDDF"/>
<path d="M59.1087 23.2447C58.5167 23.6384 57.8967 23.8474 57.2487 23.8717C56.5944 23.8866 55.9545 23.709 55.3289 23.339C54.7127 22.9626 54.1515 22.3939 53.6452 21.6326L53.5046 21.4212C52.9984 20.66 52.6909 19.9224 52.5822 19.2086C52.4828 18.4886 52.5697 17.8345 52.8427 17.2463C53.1094 16.6487 53.5388 16.1531 54.1309 15.7594C54.723 15.3656 55.3461 15.1613 56.0003 15.1464C56.6483 15.1221 57.2804 15.2981 57.8966 15.6745C58.5223 16.0445 59.0882 16.6102 59.5944 17.3714L59.735 17.5829C60.2412 18.3441 60.544 19.0847 60.6434 19.8048C60.7521 20.5186 60.6731 21.1743 60.4063 21.7719C60.1333 22.36 59.7008 22.851 59.1087 23.2447ZM58.6775 22.5962C59.3636 22.14 59.7571 21.5191 59.8582 20.7336C59.9592 19.948 59.6973 19.0853 59.0723 18.1455L58.8192 17.7649C58.1943 16.8252 57.5 16.25 56.7365 16.0394C55.973 15.8288 55.2482 15.9516 54.5621 16.4078C53.8761 16.864 53.4825 17.4849 53.3815 18.2705C53.2804 19.0561 53.5423 19.9187 54.1673 20.8585L54.4204 21.2391C55.0454 22.1789 55.7396 22.7541 56.5032 22.9647C57.2667 23.1753 57.9915 23.0525 58.6775 22.5962Z" fill="#C4CDDF"/>
<path d="M64.6867 20.1708L59.0552 9.36073L59.8209 8.96184L65.4524 19.772L64.6867 20.1708Z" fill="#C4CDDF"/>
<path d="M69.693 17.8352L64.6707 6.72889L65.4574 6.37315L70.4797 17.4794L69.693 17.8352Z" fill="#C4CDDF"/>
<path d="M75.98 3.15568L79.5153 1.9842C80.8331 1.54755 82.0054 1.60495 83.0323 2.1564C84.0663 2.69359 84.9046 3.93173 85.5472 5.87084L85.6803 6.27259C86.3193 8.20098 86.388 9.70007 85.8864 10.7699C85.3813 11.829 84.4753 12.5751 83.1682 13.0082L79.6329 14.1796L75.98 3.15568ZM82.9126 12.2368C83.9625 11.8889 84.6846 11.287 85.0787 10.4312C85.4728 9.57532 85.4 8.33318 84.8604 6.70476L84.6315 6.01375C83.6623 3.08903 82.0422 2.00296 79.7709 2.75555L77.1033 3.63949L80.245 13.1207L82.9126 12.2368Z" fill="#C4CDDF"/>
<path d="M93.6627 11.1066C92.9657 11.247 92.3127 11.2059 91.7037 10.9831C91.0925 10.7493 90.5673 10.3428 90.1283 9.76346C89.7003 9.18192 89.3961 8.44306 89.2156 7.54688L89.1655 7.29794C88.985 6.40176 88.9795 5.60274 89.1489 4.90086C89.3295 4.19676 89.6574 3.62415 90.1327 3.18304C90.6057 2.73087 91.1908 2.43459 91.8878 2.2942C92.5848 2.15382 93.2389 2.20052 93.8502 2.43431C94.4591 2.65704 94.9776 3.05918 95.4056 3.64072C95.8446 4.22003 96.1544 4.95778 96.3349 5.85396L96.385 6.1029C96.5655 6.99908 96.5655 7.79922 96.385 8.50332C96.2155 9.2052 95.8942 9.78222 95.4212 10.2344C94.9459 10.6755 94.3597 10.9663 93.6627 11.1066ZM93.5089 10.3432C94.3166 10.1806 94.9159 9.75477 95.3067 9.06588C95.6975 8.37698 95.7815 7.47934 95.5587 6.37294L95.4685 5.92485C95.2456 4.81846 94.8207 4.02332 94.1936 3.53944C93.5666 3.05555 92.8492 2.89495 92.0416 3.05762C91.2339 3.22029 90.6346 3.64607 90.2438 4.33496C89.853 5.02386 89.769 5.9215 89.9918 7.0279L90.082 7.47599C90.3049 8.58238 90.7298 9.37752 91.3569 9.8614C91.9839 10.3453 92.7013 10.5059 93.5089 10.3432Z" fill="#C4CDDF"/>
<path d="M103.519 10.0457L102.845 10.1076L99.0707 1.76674L99.9642 1.68477L103.055 8.50729L103.106 8.50265L104.904 1.23157L105.898 1.14031L108.989 7.96284L109.04 7.9582L110.838 0.687118L111.664 0.611328L109.454 9.50128L108.779 9.56315L105.476 2.28406L105.443 2.28715L103.519 10.0457Z" fill="#C4CDDF"/>
<path d="M120.361 5.27078C120.404 4.35762 120.222 3.66543 119.815 3.1942C119.419 2.72351 118.832 2.46974 118.054 2.4329C117.558 2.40941 117.102 2.50643 116.685 2.72395C116.268 2.94147 115.931 3.25319 115.674 3.65909C115.429 4.06554 115.295 4.52241 115.271 5.02972L115.019 10.3395L114.157 10.2987L114.566 1.65756L115.141 1.68479L115.266 2.97877C115.58 2.54172 115.997 2.20555 116.517 1.97029C117.048 1.73556 117.601 1.63181 118.176 1.65904C119.123 1.70389 119.876 2.01639 120.436 2.59656C121.008 3.16598 121.269 3.98618 121.218 5.05716L120.955 10.6206L120.109 10.5806L120.361 5.27078Z" fill="#C4CDDF"/>
<path d="M135.933 7.98761C135.845 8.40751 135.659 8.77797 135.373 9.09898C135.09 9.40895 134.744 9.63101 134.336 9.76517C133.927 9.89933 133.513 9.92278 133.093 9.83551C132.673 9.74824 132.309 9.56288 131.999 9.27944C131.689 8.996 131.465 8.65566 131.329 8.25843C131.195 7.85014 131.171 7.43605 131.259 7.01615C131.346 6.59625 131.531 6.23132 131.815 5.92136C132.1 5.60034 132.442 5.37161 132.839 5.23515C133.236 5.09869 133.645 5.07409 134.065 5.16137C134.485 5.24864 134.855 5.43514 135.176 5.72088C135.497 6.00662 135.725 6.35363 135.859 6.76191C135.995 7.15915 136.02 7.56771 135.933 7.98761Z" fill="#C4CDDF"/>
<path d="M153.505 11.4072C153.749 10.7753 153.67 10.1947 153.27 9.66526C152.884 9.12937 152.285 8.70515 151.474 8.39259C150.642 8.07192 149.913 7.97212 149.285 8.09321C148.662 8.20376 148.221 8.59603 147.961 9.27001C147.79 9.7123 147.784 10.1211 147.942 10.4964C148.104 10.8611 148.349 11.1976 148.678 11.5057C149.01 11.8034 149.476 12.1643 150.075 12.5885C150.794 13.1076 151.357 13.5606 151.764 13.9474C152.186 14.3277 152.486 14.7882 152.665 15.3288C152.858 15.8629 152.823 16.4722 152.559 17.1567C152.141 18.2414 151.477 18.8985 150.566 19.128C149.669 19.3509 148.653 19.2432 147.515 18.8048C146.336 18.3502 145.481 17.7427 144.952 16.9822C144.427 16.2113 144.375 15.2782 144.797 14.1829L144.923 13.9047L145.728 14.2152L145.548 14.6356C145.252 15.4044 145.314 16.0754 145.734 16.6486C146.158 17.2112 146.828 17.6691 147.744 18.0223C149.787 18.8097 151.107 18.4295 151.704 16.8814C151.895 16.3865 151.907 15.9315 151.74 15.5165C151.584 15.1056 151.331 14.742 150.981 14.4257C150.642 14.1135 150.156 13.7266 149.523 13.2651C148.825 12.7541 148.281 12.3145 147.891 11.9464C147.501 11.5782 147.215 11.1416 147.035 10.6367C146.859 10.1212 146.894 9.54229 147.142 8.89991C147.483 8.01532 148.076 7.48176 148.92 7.29925C149.775 7.1208 150.719 7.23048 151.751 7.62828C152.814 8.03826 153.588 8.60279 154.073 9.32188C154.558 10.041 154.614 10.8849 154.24 11.8538L154.161 12.0591L153.371 11.7547L153.505 11.4072Z" fill="#C4CDDF"/>
<path d="M160.653 21.788C160.314 22.4388 159.893 22.9317 159.387 23.2668C158.887 23.5918 158.347 23.7623 157.766 23.7781C157.191 23.7839 156.618 23.6383 156.047 23.3414C155.416 23.0131 154.934 22.5712 154.599 22.0155C154.28 21.4551 154.137 20.8142 154.169 20.0928C154.201 19.3715 154.428 18.6054 154.85 17.7944L154.967 17.5692C155.389 16.7582 155.881 16.1302 156.444 15.685C157.016 15.245 157.621 14.9998 158.258 14.9496C158.91 14.8945 159.551 15.0311 160.182 15.3594C160.752 15.6563 161.198 16.0472 161.518 16.5319C161.854 17.0119 162.029 17.5549 162.045 18.1609C162.065 18.7569 161.906 19.3802 161.568 20.031L160.817 19.6402C161.223 18.8593 161.318 18.1516 161.101 17.5171C160.899 16.8778 160.473 16.3888 159.822 16.0502C159.101 15.675 158.378 15.6355 157.651 15.9317C156.924 16.2278 156.301 16.8765 155.78 17.8776L155.569 18.2831C155.048 19.2843 154.874 20.1674 155.049 20.9324C155.233 21.7027 155.686 22.2754 156.406 22.6506C157.057 22.9892 157.7 23.0627 158.334 22.8711C158.968 22.6794 159.491 22.1882 159.902 21.3972L160.653 21.788Z" fill="#C4CDDF"/>
<path d="M169.115 24.7744C169.424 24.3022 169.565 23.7876 169.538 23.2306C169.518 22.6642 169.191 22.174 168.559 21.7599C168.124 21.4757 167.693 21.362 167.264 21.4189C166.842 21.4663 166.462 21.6151 166.123 21.8653C165.793 22.1217 165.529 22.401 165.331 22.7032L162.328 27.2929L161.606 26.8202L166.342 19.5814L166.824 19.8966L166.275 21.0752C166.3 21.0374 166.451 20.961 166.729 20.8459C167.016 20.737 167.369 20.6917 167.789 20.7101C168.218 20.7346 168.664 20.8982 169.127 21.201C169.873 21.6892 170.293 22.2945 170.387 23.0168C170.496 23.7358 170.328 24.4353 169.883 25.1153C169.821 25.2097 169.767 25.2822 169.721 25.3326C169.674 25.3831 169.645 25.4178 169.632 25.4367L168.967 25.001L169.115 24.7744Z" fill="#C4CDDF"/>
<path d="M171.116 34.326C170.559 33.884 170.17 33.3585 169.947 32.7495C169.731 32.1316 169.703 31.4681 169.863 30.7589C170.031 30.0568 170.399 29.3477 170.967 28.6316L171.125 28.4327C171.694 27.7167 172.301 27.197 172.946 26.8737C173.601 26.5575 174.25 26.4386 174.893 26.5172C175.544 26.587 176.148 26.8429 176.705 27.2849C177.262 27.7269 177.648 28.2569 177.864 28.8747C178.086 29.4837 178.114 30.1393 177.945 30.8415C177.786 31.5507 177.422 32.2633 176.854 32.9793L176.696 33.1782C176.128 33.8943 175.516 34.4104 174.862 34.7267C174.216 35.05 173.568 35.1767 172.917 35.107C172.274 35.0284 171.673 34.7681 171.116 34.326ZM171.6 33.7161C172.246 34.2283 172.958 34.4115 173.736 34.2657C174.515 34.1199 175.255 33.605 175.956 32.721L176.241 32.363C176.942 31.479 177.276 30.6414 177.241 29.8501C177.206 29.0588 176.866 28.4071 176.221 27.8949C175.575 27.3827 174.863 27.1995 174.085 27.3452C173.306 27.491 172.566 28.0059 171.865 28.8899L171.581 29.2479C170.879 30.1319 170.546 30.9696 170.58 31.7609C170.615 32.5521 170.955 33.2039 171.6 33.7161Z" fill="#C4CDDF"/>
<path d="M175.702 38.6579L184.243 29.9619L184.859 30.5669L176.318 39.2629L175.702 38.6579Z" fill="#C4CDDF"/>
<path d="M178.956 42.1368L187.928 33.8863L188.513 34.5218L179.54 42.7723L178.956 42.1368Z" fill="#C4CDDF"/>
<path d="M195.164 43.8689L197.382 46.8607C198.209 47.9758 198.521 49.1073 198.318 50.2551C198.131 51.4053 197.217 52.5887 195.576 53.8054L195.236 54.0574C193.604 55.2674 192.202 55.8014 191.029 55.6595C189.865 55.5109 188.873 54.8835 188.053 53.7775L185.835 50.7857L195.164 43.8689ZM188.706 53.2935C189.364 54.182 190.162 54.6796 191.098 54.7863C192.034 54.893 193.191 54.4356 194.569 53.4138L195.154 52.9803C197.629 51.1452 198.154 49.2667 196.729 47.3447L195.055 45.0872L187.032 51.036L188.706 53.2935Z" fill="#C4CDDF"/>
<path d="M193.252 63.3446C192.9 62.7265 192.735 62.0935 192.756 61.4454C192.786 60.7917 193.008 60.1657 193.421 59.5674C193.839 58.9789 194.446 58.4586 195.24 58.0067L195.461 57.8811C196.256 57.4292 197.013 57.1738 197.733 57.1151C198.458 57.0661 199.104 57.1983 199.672 57.5116C200.25 57.8194 200.714 58.2822 201.066 58.9003C201.417 59.5184 201.578 60.1542 201.547 60.8079C201.526 61.456 201.306 62.0743 200.888 62.6628C200.475 63.2611 199.871 63.7863 199.077 64.2382L198.856 64.3638C198.061 64.8157 197.302 65.0662 196.576 65.1151C195.857 65.1739 195.208 65.0494 194.631 64.7416C194.063 64.4283 193.603 63.9626 193.252 63.3446ZM193.929 62.9596C194.336 63.6757 194.928 64.1116 195.704 64.2671C196.481 64.4227 197.36 64.2215 198.341 63.6635L198.738 63.4375C199.719 62.8795 200.341 62.227 200.605 61.48C200.868 60.733 200.796 60.0015 200.389 59.2853C199.981 58.5691 199.389 58.1333 198.613 57.9778C197.836 57.8222 196.957 58.0234 195.976 58.5814L195.579 58.8074C194.598 59.3654 193.976 60.0179 193.713 60.7649C193.449 61.5119 193.521 62.2434 193.929 62.9596Z" fill="#C4CDDF"/>
<path d="M197.316 72.3622L197.046 71.7411L203.787 65.546L204.144 66.369L198.632 71.4399L198.652 71.4865L206.121 70.9185L206.519 71.8347L201.006 76.9056L201.026 76.9521L208.495 76.3842L208.825 77.145L199.69 77.8279L199.42 77.2068L205.3 71.7917L205.287 71.7607L197.316 72.3622Z" fill="#C4CDDF"/>
<path d="M207.009 86.625C207.89 86.3803 208.491 85.991 208.811 85.4569C209.134 84.9337 209.191 84.297 208.983 83.5467C208.85 83.0682 208.615 82.6649 208.278 82.3369C207.941 82.0088 207.54 81.7865 207.074 81.6699C206.611 81.5641 206.135 81.5792 205.646 81.7151L200.524 83.1377L200.293 82.3059L208.628 79.9907L208.782 80.5453L207.592 81.0691C208.106 81.231 208.555 81.5219 208.941 81.9418C209.33 82.3725 209.602 82.8652 209.756 83.4198C210.01 84.3333 209.949 85.1467 209.573 85.8602C209.211 86.5815 208.514 87.0856 207.481 87.3726L202.114 88.8631L201.887 88.0476L207.009 86.625Z" fill="#C4CDDF"/>
<path d="M209.252 102.501C208.826 102.548 208.416 102.486 208.022 102.314C207.639 102.141 207.321 101.881 207.066 101.535C206.812 101.188 206.661 100.802 206.614 100.376C206.567 99.9493 206.629 99.5449 206.803 99.1622C206.976 98.7796 207.23 98.4618 207.565 98.2087C207.912 97.9545 208.298 97.8036 208.724 97.7562C209.151 97.7089 209.555 97.7718 209.938 97.945C210.332 98.117 210.655 98.3706 210.908 98.7058C211.161 99.0411 211.311 99.4218 211.359 99.8481C211.406 100.274 211.344 100.684 211.172 101.078C211 101.472 210.741 101.796 210.394 102.05C210.059 102.303 209.678 102.454 209.252 102.501Z" fill="#C4CDDF"/>
</svg>
