<svg width="215" height="212" viewBox="0 0 215 212" fill="none" xmlns="http://www.w3.org/2000/svg">
<path d="M211.818 121.406C212.494 121.451 213.025 121.203 213.412 120.664C213.809 120.136 214.036 119.438 214.094 118.571C214.153 117.682 214.032 116.955 213.73 116.392C213.44 115.83 212.934 115.525 212.214 115.477C211.741 115.445 211.348 115.56 211.037 115.822C210.737 116.085 210.488 116.419 210.291 116.824C210.106 117.231 209.899 117.782 209.672 118.48C209.39 119.321 209.124 119.993 208.876 120.497C208.638 121.012 208.287 121.436 207.824 121.767C207.371 122.11 206.779 122.257 206.047 122.208C204.887 122.131 204.062 121.691 203.573 120.889C203.094 120.1 202.895 119.097 202.976 117.88C203.06 116.619 203.387 115.623 203.956 114.892C204.536 114.161 205.412 113.835 206.583 113.913L206.886 113.95L206.829 114.812L206.374 114.765C205.552 114.71 204.929 114.968 204.507 115.539C204.095 116.111 203.857 116.887 203.791 117.867C203.646 120.052 204.4 121.199 206.056 121.31C206.585 121.345 207.023 121.221 207.37 120.939C207.716 120.668 207.988 120.319 208.186 119.891C208.384 119.474 208.609 118.895 208.862 118.154C209.143 117.336 209.401 116.686 209.637 116.204C209.873 115.722 210.205 115.32 210.634 114.998C211.074 114.677 211.637 114.539 212.324 114.585C213.27 114.648 213.955 115.056 214.38 115.808C214.804 116.571 214.98 117.505 214.906 118.608C214.83 119.746 214.521 120.653 213.978 121.329C213.435 122.005 212.646 122.309 211.61 122.24L211.39 122.225L211.446 121.381L211.818 121.406Z" fill="#5E96FF"/>
<path d="M203.967 131.671C203.245 131.541 202.649 131.285 202.179 130.902C201.72 130.521 201.397 130.056 201.209 129.506C201.033 128.958 201.001 128.368 201.115 127.734C201.241 127.035 201.52 126.443 201.951 125.958C202.392 125.487 202.961 125.16 203.659 124.976C204.357 124.792 205.156 124.781 206.056 124.943L206.306 124.988C207.206 125.15 207.952 125.433 208.544 125.838C209.134 126.254 209.548 126.758 209.785 127.352C210.031 127.958 210.092 128.611 209.966 129.311C209.852 129.944 209.611 130.485 209.243 130.935C208.884 131.398 208.418 131.727 207.844 131.922C207.281 132.119 206.639 132.152 205.917 132.022L206.067 131.189C206.933 131.345 207.637 131.225 208.178 130.829C208.729 130.447 209.069 129.895 209.199 129.173C209.343 128.373 209.166 127.67 208.667 127.064C208.168 126.459 207.364 126.056 206.253 125.856L205.803 125.775C204.692 125.575 203.798 125.672 203.119 126.065C202.438 126.47 202.026 127.073 201.882 127.872C201.752 128.594 201.873 129.23 202.244 129.778C202.615 130.327 203.24 130.68 204.117 130.838L203.967 131.671Z" fill="#5E96FF"/>
<path d="M203.643 140.481C204.185 140.635 204.719 140.617 205.242 140.426C205.777 140.238 206.148 139.78 206.355 139.053C206.497 138.553 206.477 138.108 206.295 137.715C206.124 137.327 205.869 137.007 205.529 136.758C205.186 136.52 204.841 136.351 204.494 136.252L199.218 134.751L199.455 133.92L207.775 136.289L207.618 136.842L206.329 136.669C206.373 136.681 206.491 136.803 206.683 137.034C206.872 137.275 207.021 137.599 207.128 138.005C207.232 138.422 207.209 138.897 207.057 139.429C206.813 140.286 206.361 140.867 205.699 141.172C205.045 141.49 204.327 141.538 203.546 141.316C203.437 141.285 203.352 141.255 203.29 141.225C203.228 141.196 203.186 141.178 203.164 141.172L203.382 140.407L203.643 140.481Z" fill="#5E96FF"/>
<path d="M195.067 145.24C195.325 144.577 195.713 144.05 196.229 143.658C196.756 143.269 197.381 143.047 198.106 142.99C198.827 142.944 199.613 143.087 200.465 143.419L200.701 143.511C201.553 143.843 202.228 144.27 202.728 144.792C203.223 145.324 203.528 145.909 203.642 146.547C203.767 147.19 203.701 147.842 203.443 148.504C203.185 149.167 202.792 149.692 202.265 150.08C201.749 150.473 201.13 150.692 200.41 150.738C199.685 150.795 198.897 150.657 198.045 150.325L197.809 150.233C196.957 149.901 196.283 149.469 195.788 148.937C195.289 148.415 194.977 147.833 194.852 147.191C194.737 146.553 194.809 145.902 195.067 145.24ZM195.793 145.523C195.493 146.29 195.528 147.025 195.897 147.725C196.266 148.426 196.976 148.982 198.028 149.392L198.453 149.558C199.505 149.968 200.404 150.039 201.15 149.773C201.895 149.506 202.418 148.989 202.717 148.222C203.016 147.454 202.982 146.72 202.613 146.019C202.244 145.318 201.534 144.762 200.482 144.352L200.056 144.186C199.005 143.777 198.106 143.705 197.36 143.971C196.614 144.238 196.092 144.755 195.793 145.523Z" fill="#5E96FF"/>
<path d="M192.319 150.781L203.153 156.368L202.757 157.135L191.924 151.548L192.319 150.781Z" fill="#5E96FF"/>
<path d="M189.729 155.267L200.236 161.446L199.798 162.19L189.292 156.012L189.729 155.267Z" fill="#5E96FF"/>
<path d="M192.77 171.253L190.552 174.245C189.725 175.36 188.733 175.987 187.576 176.126C186.421 176.282 185.023 175.751 183.382 174.534L183.042 174.282C181.41 173.072 180.492 171.885 180.287 170.722C180.091 169.565 180.403 168.433 181.223 167.327L183.441 164.336L192.77 171.253ZM181.876 167.811C181.217 168.7 180.973 169.607 181.143 170.534C181.312 171.461 182.086 172.435 183.464 173.457L184.049 173.891C186.524 175.726 188.474 175.682 189.899 173.761L191.573 171.503L183.55 165.554L181.876 167.811Z" fill="#5E96FF"/>
<path d="M173.571 175.06C174.059 174.544 174.617 174.201 175.243 174.033C175.877 173.872 176.541 173.902 177.233 174.122C177.918 174.351 178.593 174.78 179.256 175.408L179.441 175.583C180.104 176.212 180.569 176.862 180.835 177.533C181.093 178.213 181.155 178.87 181.02 179.504C180.894 180.146 180.586 180.725 180.097 181.241C179.608 181.758 179.047 182.096 178.412 182.257C177.786 182.426 177.131 182.396 176.446 182.167C175.753 181.946 175.075 181.522 174.412 180.893L174.227 180.718C173.564 180.09 173.103 179.436 172.845 178.756C172.579 178.085 172.509 177.428 172.635 176.786C172.77 176.151 173.082 175.576 173.571 175.06ZM174.136 175.595C173.569 176.194 173.325 176.887 173.402 177.675C173.479 178.463 173.928 179.246 174.747 180.022L175.079 180.336C175.898 181.112 176.704 181.517 177.495 181.552C178.286 181.586 178.965 181.304 179.532 180.706C180.098 180.108 180.343 179.415 180.266 178.626C180.188 177.838 179.74 177.056 178.921 176.28L178.589 175.965C177.769 175.189 176.964 174.784 176.173 174.75C175.381 174.715 174.703 174.997 174.136 175.595Z" fill="#5E96FF"/>
<path d="M166.231 181.474L166.746 181.034L174.644 185.664L173.962 186.247L167.498 182.462L167.46 182.495L170.191 189.469L169.432 190.118L162.968 186.333L162.929 186.366L165.661 193.341L165.03 193.88L161.701 185.346L162.215 184.906L169.116 188.941L169.141 188.919L166.231 181.474Z" fill="#5E96FF"/>
<path d="M155.627 194.825C156.122 195.594 156.672 196.052 157.277 196.199C157.872 196.353 158.497 196.218 159.152 195.797C159.569 195.528 159.885 195.184 160.098 194.764C160.311 194.345 160.404 193.896 160.378 193.416C160.341 192.943 160.186 192.493 159.911 192.066L157.032 187.597L157.758 187.13L162.442 194.402L161.958 194.714L161.105 193.733C161.103 194.272 160.959 194.787 160.672 195.281C160.376 195.78 159.986 196.186 159.502 196.497C158.705 197.011 157.911 197.194 157.118 197.047C156.321 196.915 155.633 196.399 155.052 195.497L152.037 190.815L152.748 190.356L155.627 194.825Z" fill="#5E96FF"/>
<path d="M141.149 201.663C140.976 201.27 140.914 200.86 140.96 200.433C141.012 200.016 141.165 199.635 141.42 199.289C141.674 198.943 141.998 198.684 142.391 198.511C142.784 198.339 143.188 198.278 143.605 198.33C144.022 198.381 144.401 198.529 144.743 198.773C145.089 199.028 145.348 199.352 145.52 199.745C145.693 200.137 145.753 200.542 145.702 200.959C145.655 201.386 145.51 201.771 145.265 202.112C145.021 202.454 144.702 202.711 144.309 202.883C143.917 203.055 143.507 203.118 143.079 203.071C142.652 203.025 142.266 202.874 141.92 202.619C141.578 202.374 141.321 202.056 141.149 201.663Z" fill="#5E96FF"/>
<path d="M125.379 208.846C125.548 209.502 125.949 209.929 126.583 210.127C127.209 210.339 127.942 210.336 128.784 210.12C129.647 209.897 130.299 209.555 130.739 209.092C131.182 208.64 131.314 208.064 131.134 207.365C131.016 206.906 130.783 206.569 130.437 206.355C130.093 206.152 129.698 206.021 129.252 205.961C128.808 205.912 128.219 205.889 127.486 205.891C126.599 205.887 125.877 205.845 125.321 205.767C124.756 205.702 124.245 205.502 123.785 205.166C123.317 204.843 122.992 204.327 122.809 203.617C122.519 202.491 122.679 201.57 123.287 200.854C123.887 200.152 124.777 199.649 125.957 199.345C127.182 199.03 128.23 199.028 129.103 199.339C129.978 199.662 130.562 200.391 130.855 201.528L130.914 201.827L130.078 202.042L129.981 201.595C129.775 200.798 129.335 200.287 128.66 200.065C127.988 199.853 127.177 199.87 126.226 200.115C124.105 200.661 123.252 201.737 123.666 203.344C123.798 203.857 124.052 204.235 124.429 204.476C124.795 204.719 125.212 204.869 125.68 204.923C126.138 204.98 126.758 205.012 127.541 205.021C128.406 205.031 129.104 205.073 129.636 205.145C130.168 205.218 130.653 205.408 131.094 205.714C131.536 206.031 131.844 206.523 132.015 207.19C132.252 208.108 132.079 208.887 131.498 209.526C130.906 210.168 130.074 210.627 129.003 210.902C127.899 211.187 126.941 211.177 126.129 210.873C125.316 210.57 124.781 209.915 124.522 208.91L124.467 208.696L125.287 208.485L125.379 208.846Z" fill="#5E96FF"/>
<path d="M113.063 204.575C112.962 203.848 113.021 203.202 113.239 202.636C113.458 202.082 113.8 201.63 114.264 201.281C114.73 200.943 115.282 200.73 115.919 200.642C116.623 200.544 117.273 200.625 117.867 200.885C118.451 201.157 118.94 201.596 119.331 202.203C119.723 202.81 119.981 203.566 120.107 204.471L120.141 204.723C120.267 205.628 120.229 206.425 120.028 207.114C119.816 207.804 119.465 208.354 118.975 208.764C118.475 209.186 117.873 209.446 117.169 209.544C116.531 209.632 115.942 209.571 115.4 209.361C114.849 209.164 114.391 208.823 114.028 208.338C113.666 207.864 113.435 207.264 113.334 206.537L114.173 206.421C114.293 207.293 114.626 207.925 115.17 208.316C115.705 208.721 116.335 208.873 117.062 208.772C117.867 208.661 118.48 208.274 118.901 207.612C119.322 206.95 119.455 206.06 119.3 204.942L119.237 204.489C119.083 203.371 118.713 202.551 118.128 202.028C117.531 201.506 116.831 201.302 116.026 201.413C115.299 201.514 114.733 201.826 114.327 202.349C113.921 202.872 113.779 203.576 113.901 204.459L113.063 204.575Z" fill="#5E96FF"/>
<path d="M104.607 207.023C104.63 207.587 104.815 208.088 105.16 208.525C105.506 208.974 106.057 209.183 106.813 209.151C107.332 209.13 107.749 208.971 108.064 208.676C108.38 208.392 108.603 208.049 108.733 207.649C108.852 207.248 108.904 206.868 108.889 206.507L108.662 201.026L109.524 200.991L109.883 209.634L109.308 209.658L109.068 208.38C109.07 208.425 108.992 208.575 108.833 208.83C108.663 209.086 108.402 209.328 108.05 209.558C107.686 209.787 107.229 209.914 106.676 209.936C105.785 209.973 105.091 209.725 104.595 209.193C104.088 208.671 103.817 208.005 103.783 207.193C103.779 207.08 103.781 206.99 103.789 206.922C103.798 206.853 103.801 206.808 103.8 206.786L104.595 206.753L104.607 207.023Z" fill="#5E96FF"/>
<path d="M97.1656 200.359C97.8757 200.396 98.4982 200.597 99.0332 200.964C99.5676 201.341 99.9758 201.865 100.258 202.535C100.529 203.204 100.641 203.996 100.594 204.909L100.581 205.162C100.534 206.075 100.342 206.851 100.004 207.489C99.6551 208.126 99.1957 208.6 98.6261 208.91C98.0559 209.231 97.4158 209.373 96.7057 209.337C95.9956 209.301 95.3733 209.094 94.8389 208.716C94.304 208.35 93.9011 207.832 93.6302 207.162C93.3481 206.492 93.2304 205.701 93.2772 204.788L93.2902 204.534C93.337 203.621 93.5349 202.846 93.884 202.209C94.2218 201.57 94.6758 201.091 95.246 200.77C95.8156 200.46 96.4555 200.323 97.1656 200.359ZM97.1257 201.137C96.3029 201.095 95.617 201.359 95.0679 201.93C94.5188 202.501 94.2154 203.35 94.1577 204.477L94.1343 204.934C94.0765 206.061 94.2916 206.936 94.7795 207.56C95.2674 208.184 95.9227 208.517 96.7455 208.559C97.5683 208.601 98.2543 208.337 98.8033 207.766C99.3524 207.195 99.6558 206.347 99.7136 205.219L99.737 204.763C99.7947 203.636 99.5796 202.76 99.0918 202.136C98.6039 201.512 97.9485 201.179 97.1257 201.137Z" fill="#5E96FF"/>
<path d="M90.9738 199.451L89.0443 211.486L88.1918 211.35L90.1213 199.314L90.9738 199.451Z" fill="#5E96FF"/>
<path d="M86.0171 198.418L83.4456 210.333L82.6016 210.151L85.1731 198.236L86.0171 198.418Z" fill="#5E96FF"/>
<path d="M71.8271 206.321L68.2905 205.153C66.9723 204.718 66.0655 203.973 65.57 202.918C65.0602 201.87 65.1256 200.376 65.7662 198.437L65.8989 198.035C66.5359 196.106 67.3747 194.861 68.4152 194.302C69.4523 193.753 70.6245 193.694 71.932 194.126L75.4686 195.294L71.8271 206.321ZM71.6772 194.897C70.6269 194.551 69.6884 194.603 68.8617 195.055C68.035 195.507 67.3526 196.548 66.8147 198.177L66.5865 198.868C65.6204 201.794 66.2733 203.632 68.5453 204.382L71.2138 205.263L74.3457 195.779L71.6772 194.897Z" fill="#5E96FF"/>
<path d="M62.208 189.269C62.8516 189.571 63.3518 189.993 63.7085 190.535C64.0604 191.086 64.2402 191.726 64.2481 192.452C64.2457 193.174 64.0502 193.949 63.6617 194.777L63.5538 195.007C63.1652 195.834 62.694 196.479 62.1399 196.942C61.5757 197.401 60.9713 197.665 60.3268 197.737C59.6775 197.819 59.0311 197.708 58.3874 197.406C57.7438 197.104 57.2461 196.677 56.8942 196.125C56.5375 195.584 56.3603 194.952 56.3627 194.23C56.3549 193.503 56.5452 192.726 56.9338 191.898L57.0417 191.669C57.4302 190.841 57.9066 190.198 58.4709 189.74C59.0249 189.277 59.6266 189.005 60.2759 188.923C60.9203 188.851 61.5644 188.967 62.208 189.269ZM61.877 189.974C61.1313 189.624 60.3963 189.609 59.6721 189.93C58.948 190.251 58.346 190.922 57.8664 191.944L57.6721 192.357C57.1924 193.379 57.0605 194.271 57.2762 195.033C57.4919 195.795 57.9726 196.351 58.7184 196.701C59.4642 197.051 60.1992 197.066 60.9233 196.745C61.6475 196.424 62.2494 195.753 62.7291 194.732L62.9233 194.318C63.403 193.296 63.535 192.404 63.3193 191.642C63.1036 190.88 62.6228 190.324 61.877 189.974Z" fill="#5E96FF"/>
<path d="M53.8724 184.294L54.451 184.646L52.5165 193.594L51.7499 193.128L53.3292 185.806L53.2858 185.78L47.5117 190.551L46.6583 190.032L48.2376 182.71L48.1942 182.684L42.4201 187.454L41.7114 187.023L48.7808 181.198L49.3594 181.549L47.6784 189.364L47.7074 189.382L53.8724 184.294Z" fill="#5E96FF"/>
<path d="M37.9209 178.38C37.3448 179.09 37.081 179.755 37.1295 180.376C37.1692 180.99 37.4914 181.542 38.096 182.033C38.4816 182.346 38.9068 182.538 39.3716 182.61C39.8364 182.682 40.2924 182.631 40.7396 182.456C41.178 182.274 41.5573 181.986 41.8774 181.591L45.2274 177.464L45.8978 178.008L40.4459 184.725L39.999 184.362L40.6653 183.246C40.153 183.412 39.6178 183.435 39.0599 183.317C38.4932 183.191 37.9864 182.947 37.5395 182.584C36.8035 181.987 36.3818 181.288 36.2747 180.489C36.1517 179.691 36.428 178.876 37.1037 178.044L40.6138 173.719L41.271 174.253L37.9209 178.38Z" fill="#5E96FF"/>
<path d="M26.9212 166.733C27.241 166.448 27.6113 166.261 28.0319 166.173C28.4441 166.092 28.8542 166.119 29.2623 166.254C29.6703 166.389 30.0171 166.616 30.3028 166.936C30.5885 167.256 30.7717 167.622 30.8523 168.034C30.9329 168.447 30.91 168.853 30.7834 169.254C30.6485 169.662 30.4211 170.008 30.1012 170.294C29.7813 170.58 29.4153 170.763 29.0031 170.844C28.5824 170.932 28.1719 170.912 27.7714 170.786C27.3709 170.659 27.0278 170.436 26.7421 170.116C26.4564 169.796 26.2695 169.426 26.1814 169.006C26.0932 168.585 26.1166 168.171 26.2516 167.763C26.3781 167.362 26.6013 167.019 26.9212 166.733Z" fill="#5E96FF"/>
<path d="M15.1751 154.088C14.6058 154.454 14.3268 154.97 14.3383 155.634C14.3341 156.294 14.5673 156.99 15.0379 157.72C15.5207 158.47 16.0511 158.981 16.6291 159.253C17.1976 159.531 17.7854 159.474 18.3927 159.083C18.7912 158.827 19.0374 158.5 19.1313 158.104C19.2158 157.714 19.2161 157.298 19.1323 156.855C19.039 156.418 18.8757 155.852 18.6425 155.157C18.3678 154.314 18.1801 153.616 18.0792 153.063C17.9628 152.507 17.9918 151.958 18.1663 151.416C18.3252 150.871 18.713 150.399 19.3297 150.002C20.307 149.373 21.2312 149.234 22.1022 149.586C22.9576 149.934 23.7153 150.621 24.3753 151.646C25.0598 152.708 25.3916 153.703 25.3707 154.629C25.3403 155.562 24.8317 156.346 23.845 156.981L23.5796 157.132L23.1121 156.406L23.5055 156.173C24.1982 155.727 24.5439 155.148 24.5426 154.438C24.5318 153.733 24.2605 152.968 23.7288 152.143C22.5432 150.302 21.253 149.831 19.8583 150.729C19.4123 151.016 19.1343 151.377 19.0241 151.81C18.9078 152.234 18.8977 152.677 18.9937 153.138C19.0836 153.591 19.2479 154.19 19.4866 154.935C19.7491 155.76 19.9294 156.436 20.0275 156.963C20.1256 157.491 20.0986 158.011 19.9465 158.526C19.7848 159.046 19.4146 159.492 18.8359 159.865C18.0388 160.379 17.2455 160.46 16.4559 160.109C15.6601 159.749 14.9628 159.104 14.3639 158.174C13.7466 157.216 13.4543 156.304 13.4867 155.437C13.5192 154.57 13.9719 153.856 14.8448 153.294L15.0298 153.174L15.4882 153.886L15.1751 154.088Z" fill="#5E96FF"/>
<path d="M15.3535 141.057C16.0115 140.732 16.6433 140.585 17.2488 140.613C17.8442 140.647 18.3807 140.829 18.8584 141.16C19.3259 141.495 19.7019 141.952 19.9864 142.529C20.3008 143.166 20.4285 143.808 20.3694 144.454C20.2951 145.095 20.0318 145.696 19.5795 146.259C19.1271 146.822 18.491 147.305 17.671 147.71L17.4433 147.822C16.6234 148.226 15.8549 148.441 15.1381 148.468C14.4162 148.484 13.7837 148.324 13.2404 147.988C12.6821 147.646 12.2457 147.157 11.9312 146.519C11.6468 145.942 11.5187 145.364 11.5472 144.783C11.5606 144.198 11.7403 143.656 12.0863 143.159C12.4221 142.666 12.9191 142.257 13.577 141.933L13.9514 142.692C13.1618 143.081 12.6668 143.596 12.4664 144.236C12.2508 144.87 12.3053 145.517 12.6297 146.175C12.989 146.904 13.5493 147.364 14.3103 147.555C15.0714 147.746 15.9581 147.592 16.9704 147.092L17.3803 146.89C18.3926 146.391 19.0547 145.782 19.3666 145.062C19.6735 144.331 19.6473 143.602 19.2879 142.873C18.9635 142.215 18.489 141.776 17.8644 141.555C17.2397 141.335 16.5276 141.422 15.7279 141.816L15.3535 141.057Z" fill="#5E96FF"/>
<path d="M10.3884 133.753C9.85975 133.95 9.44126 134.281 9.13289 134.746C8.81396 135.214 8.7868 135.803 9.05142 136.511C9.2331 136.997 9.51337 137.344 9.89222 137.552C10.2605 137.764 10.6553 137.87 11.0767 137.869C11.4941 137.857 11.872 137.789 12.2103 137.662L17.3486 135.743L17.6507 136.552L9.54689 139.579L9.34546 139.04L10.4856 138.415C10.4433 138.431 10.2762 138.403 9.98437 138.331C9.68858 138.249 9.37705 138.076 9.04979 137.813C8.71858 137.539 8.45621 137.143 8.26268 136.625C7.95066 135.79 7.97074 135.053 8.32291 134.416C8.66056 133.772 9.20999 133.307 9.97121 133.023C10.0769 132.983 10.1635 132.957 10.2309 132.944C10.2983 132.931 10.3425 132.92 10.3637 132.912L10.6421 133.658L10.3884 133.753Z" fill="#5E96FF"/>
<path d="M14.5151 125.11C14.7028 125.796 14.7063 126.45 14.5258 127.073C14.3343 127.699 13.9646 128.25 13.4166 128.728C12.8657 129.195 12.1493 129.549 11.2676 129.79L11.0226 129.857C10.1409 130.098 9.3441 130.159 8.63229 130.037C7.91749 129.905 7.32382 129.617 6.85126 129.173C6.36782 128.732 6.03225 128.169 5.84456 127.483C5.65687 126.797 5.65877 126.142 5.85024 125.516C6.03084 124.893 6.3966 124.348 6.94754 123.882C7.4955 123.404 8.21035 123.044 9.0921 122.803L9.33704 122.736C10.2188 122.495 11.0171 122.44 11.7319 122.572C12.4437 122.693 13.0413 122.974 13.5247 123.415C13.9973 123.859 14.3274 124.424 14.5151 125.11ZM13.764 125.316C13.5465 124.521 13.0808 123.952 12.3668 123.609C11.6528 123.267 10.7515 123.244 9.66292 123.542L9.22204 123.663C8.13346 123.961 7.36922 124.439 6.92931 125.098C6.48941 125.756 6.3782 126.483 6.59568 127.278C6.81317 128.072 7.2789 128.641 7.99289 128.984C8.70689 129.327 9.60817 129.349 10.6968 129.051L11.1376 128.931C12.2262 128.633 12.9905 128.154 13.4304 127.496C13.8703 126.837 13.9815 126.11 13.764 125.316Z" fill="#5E96FF"/>
<path d="M13.4152 118.969L1.38297 120.917L1.24495 120.065L13.2772 118.116L13.4152 118.969Z" fill="#5E96FF"/>
<path d="M12.8297 113.898L0.710258 115.198L0.618164 114.34L12.7376 113.039L12.8297 113.898Z" fill="#5E96FF"/>
<path d="M0.848243 103.04L0.83762 99.3151C0.83366 97.9269 1.25377 96.831 2.09794 96.0273C2.93079 95.2123 4.3686 94.8019 6.41138 94.796L6.83461 94.7948C8.8661 94.789 10.3119 95.1912 11.1719 96.0014C12.0207 96.8116 12.4471 97.9051 12.451 99.282L12.4616 103.006L0.848243 103.04ZM11.6384 99.2843C11.6352 98.1783 11.2885 97.3046 10.5982 96.6633C9.90795 96.0219 8.70506 95.7037 6.98958 95.7086L6.26163 95.7107C3.18053 95.7194 1.64339 96.9202 1.65022 99.3128L1.65823 102.123L11.6464 102.095L11.6384 99.2843Z" fill="#5E96FF"/>
<path d="M14.0085 88.1698C13.923 88.8757 13.679 89.4828 13.2763 89.9911C12.8625 90.498 12.3117 90.869 11.6238 91.104C10.9373 91.3278 10.1403 91.3847 9.23277 91.2748L8.98067 91.2442C8.07313 91.1343 7.31276 90.8887 6.69955 90.5075C6.08771 90.1151 5.64697 89.624 5.37735 89.0343C5.09652 88.4432 4.99885 87.7947 5.08435 87.0889C5.16985 86.383 5.41952 85.7766 5.83335 85.2697C6.23598 84.7614 6.78053 84.3953 7.46702 84.1715C8.15487 83.9365 8.95256 83.874 9.8601 83.9839L10.1122 84.0144C11.0197 84.1244 11.7794 84.3756 12.3913 84.768C13.0045 85.1492 13.4515 85.6354 13.7323 86.2265C14.002 86.8162 14.094 87.464 14.0085 88.1698ZM13.2354 88.0762C13.3345 87.2583 13.1183 86.5557 12.5869 85.9683C12.0555 85.381 11.2296 85.0195 10.1092 84.8838L9.65544 84.8288C8.53502 84.6931 7.64668 84.847 6.99043 85.2904C6.33418 85.7339 5.95651 86.3646 5.85744 87.1825C5.75837 88.0004 5.97453 88.703 6.50593 89.2903C7.03732 89.8777 7.86323 90.2392 8.98365 90.3749L9.43742 90.4299C10.5578 90.5656 11.4462 90.4117 12.1024 89.9682C12.7587 89.5248 13.1364 88.8941 13.2354 88.0762Z" fill="#5E96FF"/>
<path d="M16.1061 78.5841L15.9531 79.2437L6.84909 80.2089L7.05174 79.3348L14.4997 78.5418L14.5112 78.4923L8.17209 74.5027L8.39769 73.5297L15.8457 72.7367L15.8571 72.6873L9.51803 68.6976L9.70539 67.8896L17.452 72.779L17.2991 73.4387L9.35111 74.2895L9.34347 74.3225L16.1061 78.5841Z" fill="#5E96FF"/>
<path d="M16.6483 61.7288C15.7941 61.4033 15.0797 61.3605 14.5051 61.6004C13.9345 61.8298 13.5106 62.3084 13.2332 63.0361C13.0564 63.5001 13.0063 63.9641 13.0831 64.4282C13.1598 64.8923 13.3511 65.3094 13.6569 65.6796C13.9667 66.0393 14.3589 66.3095 14.8335 66.4904L19.8007 68.3836L19.4932 69.1904L11.4096 66.1094L11.6146 65.5715L12.8832 65.8558C12.5659 65.4208 12.3764 64.9198 12.3147 64.3527C12.257 63.7752 12.3307 63.2175 12.5357 62.6796C12.8733 61.7937 13.405 61.1751 14.1308 60.8237C14.8501 60.4577 15.7106 60.4656 16.7125 60.8475L21.917 62.8311L21.6155 63.6221L16.6483 61.7288Z" fill="#5E96FF"/>
<path d="M24.2138 47.6653C24.5851 47.88 24.8782 48.1733 25.0933 48.5454C25.2987 48.9118 25.4009 49.3099 25.4001 49.7397C25.3994 50.1694 25.2916 50.57 25.077 50.9412C24.8623 51.3125 24.5717 51.6008 24.2053 51.8061C23.8389 52.0115 23.4457 52.1165 23.0257 52.1214C22.5959 52.1206 22.1954 52.0129 21.8241 51.7982C21.4529 51.5835 21.1646 51.293 20.9593 50.9266C20.7442 50.5545 20.6342 50.1585 20.6293 49.7385C20.6245 49.3185 20.7294 48.9229 20.944 48.5516C21.1587 48.1803 21.4521 47.8871 21.8241 47.672C22.1962 47.457 22.5971 47.3498 23.0269 47.3506C23.4469 47.3457 23.8425 47.4506 24.2138 47.6653Z" fill="#5E96FF"/>
<path d="M32.8538 32.2101C32.3296 31.7814 31.7534 31.6748 31.1254 31.8901C30.4957 32.0896 29.9058 32.5257 29.3557 33.1985C28.7913 33.8887 28.4686 34.5506 28.3878 35.1843C28.2982 35.8109 28.533 36.3528 29.0922 36.81C29.4591 37.1101 29.8455 37.2438 30.2513 37.2112C30.6483 37.1714 31.0445 37.0434 31.4399 36.8273C31.8266 36.6041 32.3149 36.2744 32.9048 35.8383C33.6225 35.3172 34.2287 34.9235 34.7233 34.6574C35.2164 34.3754 35.7476 34.2339 36.3169 34.2329C36.8847 34.2161 37.4525 34.4399 38.0204 34.9043C38.9203 35.6402 39.337 36.4766 39.2706 37.4137C39.2025 38.3348 38.7827 39.2672 38.0111 40.2108C37.2109 41.1893 36.367 41.8113 35.4792 42.0768C34.5828 42.3351 33.6802 42.0927 32.7716 41.3497L32.5464 41.1437L33.093 40.4753L33.4361 40.7778C34.0739 41.2993 34.7306 41.45 35.4064 41.2299C36.0733 41.0026 36.7176 40.5089 37.3392 39.7488C38.7252 38.0539 38.7761 36.6813 37.4918 35.631C37.0811 35.2952 36.6527 35.1417 36.2064 35.1704C35.7673 35.1903 35.3429 35.3171 34.9332 35.5507C34.5306 35.7755 34.0114 36.1163 33.3755 36.5731C32.672 37.0767 32.0845 37.4564 31.6129 37.7123C31.1413 37.9681 30.6374 38.1028 30.1014 38.1165C29.5567 38.123 29.0178 37.9083 28.4849 37.4725C27.751 36.8723 27.4292 36.1427 27.5195 35.2834C27.617 34.4155 28.0158 33.5534 28.7159 32.6972C29.4375 31.8147 30.2156 31.2555 31.0501 31.0194C31.8846 30.7834 32.7038 30.994 33.5076 31.6513L33.6779 31.7906L33.1421 32.4459L32.8538 32.2101Z" fill="#5E96FF"/>
<path d="M45.2575 28.3593C45.7695 28.8847 46.1056 29.4397 46.2657 30.0244C46.418 30.601 46.4107 31.1675 46.2439 31.7241C46.0693 32.2725 45.7517 32.7713 45.291 33.2203C44.7818 33.7166 44.211 34.0365 43.5787 34.18C42.9466 34.3076 42.2929 34.2434 41.6178 33.9873C40.9427 33.7312 40.2861 33.2759 39.648 32.6212L39.4708 32.4394C38.8327 31.7847 38.3903 31.1206 38.1435 30.447C37.9048 29.7656 37.8613 29.1146 38.0129 28.494C38.1647 27.8574 38.4952 27.291 39.0044 26.7947C39.465 26.3457 39.9757 26.045 40.5363 25.8925C41.0972 25.7241 41.6678 25.7275 42.2482 25.9025C42.8207 26.0695 43.3629 26.4156 43.875 26.9409L43.2688 27.5318C42.6544 26.9014 42.0119 26.5898 41.3414 26.5972C40.6711 26.5886 40.0733 26.8403 39.5479 27.3524C38.966 27.9196 38.702 28.5946 38.7558 29.3774C38.8096 30.1603 39.2304 30.9558 40.0181 31.764L40.3372 32.0913C41.1249 32.8995 41.9094 33.3406 42.6906 33.4144C43.4799 33.4804 44.1655 33.2298 44.7474 32.6626C45.2728 32.1506 45.5437 31.5635 45.5601 30.9012C45.5766 30.239 45.2737 29.5886 44.6513 28.9502L45.2575 28.3593Z" fill="#5E96FF"/>
<path d="M50.6292 21.3559C50.2768 20.9152 49.8319 20.6207 49.2943 20.4724C48.7497 20.3154 48.1821 20.473 47.5915 20.9452C47.186 21.2693 46.9435 21.6438 46.8641 22.0686C46.7776 22.4845 46.8004 22.8926 46.9324 23.2927C47.0733 23.6858 47.2565 24.0234 47.482 24.3055L50.9072 28.5897L50.2328 29.1288L44.8308 22.372L45.2804 22.0126L46.2293 22.9012C46.2011 22.8659 46.1756 22.6985 46.1528 22.3988C46.1388 22.0921 46.2059 21.7423 46.354 21.3493C46.511 20.9492 46.8055 20.5765 47.2375 20.2312C47.9339 19.6744 48.6398 19.464 49.3554 19.6C50.0727 19.7201 50.6851 20.0974 51.1926 20.7321C51.263 20.8203 51.315 20.8943 51.3485 20.9543C51.3819 21.0142 51.4057 21.053 51.4198 21.0706L50.7984 21.5675L50.6292 21.3559Z" fill="#5E96FF"/>
<path d="M59.7269 22.8169C59.1348 23.2106 58.5148 23.4196 57.8668 23.4439C57.2126 23.4588 56.5727 23.2813 55.9471 22.9112C55.3308 22.5348 54.7696 21.9661 54.2634 21.2048L54.1228 20.9934C53.6166 20.2322 53.3091 19.4946 53.2003 18.7808C53.101 18.0608 53.1878 17.4067 53.4608 16.8185C53.7276 16.2209 54.157 15.7253 54.7491 15.3316C55.3411 14.9378 55.9643 14.7335 56.6185 14.7186C57.2665 14.6943 57.8986 14.8703 58.5148 15.2467C59.1404 15.6167 59.7063 16.1824 60.2126 16.9436L60.3532 17.1551C60.8594 17.9163 61.1622 18.6569 61.2615 19.377C61.3703 20.0908 61.2913 20.7465 61.0245 21.3441C60.7515 21.9322 60.319 22.4232 59.7269 22.8169ZM59.2957 22.1685C59.9817 21.7122 60.3753 21.0913 60.4763 20.3058C60.5774 19.5202 60.3155 18.6575 59.6905 17.7177L59.4374 17.3371C58.8124 16.3974 58.1182 15.8222 57.3546 15.6116C56.5911 15.401 55.8663 15.5238 55.1803 15.98C54.4942 16.4362 54.1007 17.0571 53.9996 17.8427C53.8986 18.6283 54.1605 19.4909 54.7855 20.4307L55.0386 20.8113C55.6635 21.7511 56.3578 22.3263 57.1213 22.5369C57.8849 22.7475 58.6096 22.6247 59.2957 22.1685Z" fill="#5E96FF"/>
<path d="M65.3048 19.7431L59.6734 8.93294L60.4391 8.53404L66.0706 19.3442L65.3048 19.7431Z" fill="#5E96FF"/>
<path d="M70.3111 17.4074L65.2889 6.3011L66.0756 5.94536L71.0978 17.0516L70.3111 17.4074Z" fill="#5E96FF"/>
<path d="M76.5981 2.72789L80.1335 1.5564C81.4512 1.11976 82.6235 1.17716 83.6504 1.72861C84.6845 2.26579 85.5228 3.50394 86.1653 5.44304L86.2984 5.84479C86.9374 7.77318 87.0062 9.27228 86.5046 10.3421C85.9995 11.4012 85.0934 12.1473 83.7864 12.5804L80.251 13.7518L76.5981 2.72789ZM83.5308 11.809C84.5807 11.4611 85.3027 10.8592 85.6968 10.0034C86.0909 9.14752 86.0182 7.90538 85.4786 6.27697L85.2496 5.58596C84.2805 2.66123 82.6603 1.57517 80.3891 2.32776L77.7215 3.2117L80.8632 12.6929L83.5308 11.809Z" fill="#5E96FF"/>
<path d="M94.2809 10.6788C93.5838 10.8192 92.9308 10.7781 92.3218 10.5553C91.7106 10.3215 91.1855 9.91498 90.7465 9.33567C90.3185 8.75413 90.0143 8.01527 89.8338 7.11909L89.7836 6.87015C89.6031 5.97397 89.5976 5.17494 89.7671 4.47307C89.9476 3.76896 90.2756 3.19636 90.7508 2.75525C91.2239 2.30308 91.8089 2.0068 92.506 1.86641C93.203 1.72602 93.8571 1.77272 94.4683 2.00652C95.0773 2.22925 95.5958 2.63138 96.0238 3.21292C96.4628 3.79224 96.7726 4.52999 96.9531 5.42616L97.0032 5.6751C97.1837 6.57128 97.1837 7.37142 97.0031 8.07553C96.8336 8.7774 96.5124 9.35443 96.0393 9.8066C95.564 10.2477 94.9779 10.5385 94.2809 10.6788ZM94.1271 9.91543C94.9348 9.75276 95.534 9.32698 95.9249 8.63808C96.3157 7.94919 96.3997 7.05154 96.1769 5.94515L96.0866 5.49706C95.8638 4.39066 95.4388 3.59553 94.8118 3.11164C94.1847 2.62776 93.4674 2.46715 92.6597 2.62982C91.8521 2.79249 91.2528 3.21827 90.862 3.90717C90.4711 4.59606 90.3871 5.49371 90.61 6.6001L90.7002 7.04819C90.923 8.15459 91.348 8.94973 91.975 9.43361C92.6021 9.91749 93.3194 10.0781 94.1271 9.91543Z" fill="#5E96FF"/>
<path d="M104.138 9.61793L103.463 9.6798L99.6889 1.33895L100.582 1.25697L103.673 8.07949L103.724 8.07485L105.522 0.803775L106.517 0.712518L109.608 7.53504L109.658 7.5304L111.456 0.259323L112.282 0.183533L110.072 9.07348L109.397 9.13535L106.094 1.85626L106.061 1.85935L104.138 9.61793Z" fill="#5E96FF"/>
<path d="M120.979 4.84298C121.022 3.92983 120.84 3.23764 120.433 2.76641C120.037 2.29572 119.45 2.04195 118.673 2.00511C118.177 1.98162 117.72 2.07863 117.303 2.29615C116.886 2.51368 116.549 2.82539 116.293 3.2313C116.047 3.63774 115.913 4.09461 115.889 4.60192L115.637 9.91173L114.775 9.87089L115.184 1.22976L115.759 1.25699L115.884 2.55098C116.199 2.11392 116.616 1.77776 117.135 1.54249C117.666 1.30776 118.219 1.20401 118.794 1.23124C119.741 1.27609 120.494 1.5886 121.054 2.16876C121.626 2.73819 121.887 3.55839 121.836 4.62937L121.573 10.1928L120.727 10.1528L120.979 4.84298Z" fill="#5E96FF"/>
<path d="M136.551 7.55982C136.464 7.97972 136.277 8.35017 135.991 8.67119C135.708 8.98115 135.362 9.20322 134.954 9.33738C134.546 9.47154 134.131 9.49498 133.712 9.40771C133.292 9.32044 132.927 9.13509 132.617 8.85165C132.307 8.5682 132.084 8.22787 131.947 7.83063C131.813 7.42235 131.789 7.00825 131.877 6.58836C131.964 6.16846 132.149 5.80352 132.433 5.49356C132.719 5.17255 133.06 4.94381 133.457 4.80735C133.855 4.67089 134.263 4.6463 134.683 4.73357C135.103 4.82084 135.473 5.00735 135.794 5.29308C136.115 5.57882 136.343 5.92583 136.477 6.33412C136.614 6.73135 136.638 7.13992 136.551 7.55982Z" fill="#5E96FF"/>
<path d="M154.124 10.9794C154.367 10.3475 154.289 9.76688 153.888 9.23747C153.502 8.70158 152.903 8.27736 152.092 7.9648C151.26 7.64412 150.531 7.54433 149.904 7.66541C149.28 7.77597 148.839 8.16823 148.579 8.84221C148.409 9.28451 148.402 9.6933 148.56 10.0686C148.722 10.4333 148.967 10.7698 149.296 11.0779C149.629 11.3756 150.094 11.7365 150.693 12.1607C151.412 12.6798 151.975 13.1328 152.382 13.5196C152.804 13.8999 153.105 14.3604 153.283 14.901C153.477 15.4351 153.441 16.0444 153.177 16.7289C152.759 17.8136 152.095 18.4707 151.184 18.7002C150.287 18.9231 149.271 18.8154 148.133 18.377C146.954 17.9224 146.099 17.3149 145.57 16.5544C145.045 15.7835 144.993 14.8504 145.415 13.7552L145.541 13.4769L146.346 13.7874L146.166 14.2078C145.87 14.9766 145.932 15.6476 146.352 16.2208C146.776 16.7834 147.446 17.2413 148.362 17.5945C150.405 18.382 151.725 18.0017 152.322 16.4536C152.513 15.9587 152.525 15.5037 152.358 15.0887C152.202 14.6778 151.949 14.3142 151.599 13.9979C151.26 13.6857 150.774 13.2988 150.142 12.8373C149.444 12.3263 148.899 11.8867 148.509 11.5186C148.119 11.1504 147.833 10.7139 147.653 10.2089C147.477 9.69343 147.513 9.1145 147.76 8.47212C148.101 7.58752 148.694 7.05397 149.538 6.87146C150.393 6.69301 151.337 6.80268 152.369 7.20048C153.432 7.61046 154.207 8.175 154.692 8.89408C155.176 9.61317 155.232 10.4571 154.859 11.426L154.779 11.6313L153.99 11.3269L154.124 10.9794Z" fill="#5E96FF"/>
<path d="M161.271 21.3602C160.933 22.011 160.511 22.5039 160.006 22.839C159.506 23.164 158.965 23.3345 158.384 23.3503C157.809 23.3561 157.236 23.2105 156.665 22.9136C156.034 22.5853 155.552 22.1434 155.218 21.5877C154.899 21.0273 154.755 20.3864 154.787 19.665C154.819 18.9437 155.046 18.1776 155.468 17.3666L155.585 17.1414C156.007 16.3304 156.499 15.7024 157.062 15.2572C157.634 14.8172 158.239 14.572 158.876 14.5218C159.528 14.4667 160.169 14.6033 160.8 14.9316C161.371 15.2285 161.816 15.6194 162.136 16.1042C162.472 16.5841 162.647 17.1271 162.663 17.7331C162.683 18.3291 162.524 18.9524 162.186 19.6032L161.435 19.2124C161.841 18.4315 161.936 17.7238 161.719 17.0893C161.517 16.45 161.091 15.961 160.44 15.6224C159.72 15.2472 158.996 15.2077 158.269 15.5039C157.543 15.8 156.919 16.4487 156.398 17.4498L156.187 17.8553C155.666 18.8565 155.492 19.7396 155.667 20.5046C155.851 21.2749 156.304 21.8476 157.025 22.2228C157.675 22.5614 158.318 22.6349 158.952 22.4433C159.586 22.2516 160.109 21.7604 160.52 20.9695L161.271 21.3602Z" fill="#5E96FF"/>
<path d="M169.733 24.3466C170.042 23.8744 170.183 23.3598 170.157 22.8028C170.136 22.2364 169.81 21.7462 169.177 21.3322C168.742 21.0479 168.311 20.9342 167.883 20.9911C167.46 21.0385 167.08 21.1873 166.741 21.4375C166.411 21.6939 166.147 21.9732 165.95 22.2754L162.946 26.8651L162.224 26.3924L166.961 19.1536L167.442 19.4688L166.894 20.6474C166.918 20.6096 167.069 20.5332 167.347 20.4181C167.634 20.3092 167.987 20.2639 168.407 20.2823C168.836 20.3068 169.282 20.4704 169.745 20.7732C170.491 21.2614 170.911 21.8667 171.005 22.589C171.114 23.308 170.946 24.0075 170.501 24.6875C170.44 24.7819 170.386 24.8544 170.339 24.9048C170.292 24.9553 170.263 24.99 170.251 25.0089L169.585 24.5732L169.733 24.3466Z" fill="#5E96FF"/>
<path d="M171.734 33.8982C171.178 33.4562 170.788 32.9307 170.565 32.3217C170.349 31.7038 170.321 31.0403 170.481 30.3312C170.649 29.629 171.017 28.9199 171.586 28.2038L171.743 28.0049C172.312 27.2889 172.919 26.7692 173.564 26.4459C174.219 26.1297 174.868 26.0108 175.512 26.0894C176.162 26.1592 176.766 26.4151 177.323 26.8571C177.88 27.2991 178.266 27.8291 178.482 28.4469C178.705 29.0559 178.732 29.7115 178.563 30.4137C178.404 31.1229 178.04 31.8355 177.472 32.5515L177.314 32.7504C176.746 33.4665 176.134 33.9826 175.48 34.2989C174.834 34.6222 174.186 34.7489 173.535 34.6792C172.892 34.6006 172.291 34.3403 171.734 33.8982ZM172.219 33.2883C172.864 33.8005 173.576 33.9837 174.354 33.8379C175.133 33.6921 175.873 33.1772 176.575 32.2932L176.859 31.9352C177.56 31.0512 177.894 30.2136 177.859 29.4223C177.824 28.631 177.484 27.9793 176.839 27.4671C176.194 26.9549 175.482 26.7717 174.703 26.9174C173.925 27.0632 173.185 27.5781 172.483 28.4621L172.199 28.8201C171.497 29.7042 171.164 30.5418 171.198 31.3331C171.233 32.1244 171.573 32.7761 172.219 33.2883Z" fill="#5E96FF"/>
<path d="M176.32 38.2301L184.862 29.5341L185.478 30.1391L176.936 38.8351L176.32 38.2301Z" fill="#5E96FF"/>
<path d="M179.574 41.709L188.546 33.4585L189.131 34.094L180.158 42.3445L179.574 41.709Z" fill="#5E96FF"/>
<path d="M195.782 43.4411L198 46.4329C198.827 47.548 199.139 48.6795 198.936 49.8273C198.749 50.9775 197.835 52.1609 196.194 53.3776L195.854 53.6296C194.222 54.8396 192.82 55.3736 191.647 55.2317C190.483 55.0831 189.491 54.4557 188.671 53.3497L186.453 50.3579L195.782 43.4411ZM189.324 52.8657C189.982 53.7542 190.78 54.2518 191.716 54.3585C192.652 54.4652 193.809 54.0078 195.187 52.986L195.772 52.5525C198.247 50.7174 198.772 48.8389 197.347 46.9169L195.673 44.6594L187.65 50.6082L189.324 52.8657Z" fill="#5E96FF"/>
<path d="M193.87 62.9168C193.518 62.2987 193.353 61.6657 193.374 61.0176C193.405 60.3639 193.626 59.7379 194.039 59.1396C194.457 58.5511 195.064 58.0308 195.859 57.5789L196.079 57.4533C196.874 57.0014 197.631 56.746 198.351 56.6873C199.076 56.6383 199.722 56.7705 200.29 57.0838C200.868 57.3916 201.332 57.8545 201.684 58.4725C202.035 59.0906 202.196 59.7264 202.165 60.3801C202.144 61.0282 201.924 61.6465 201.506 62.235C201.093 62.8333 200.49 63.3585 199.695 63.8104L199.474 63.936C198.68 64.3879 197.92 64.6384 197.194 64.6873C196.475 64.7461 195.826 64.6216 195.249 64.3138C194.681 64.0005 194.221 63.5348 193.87 62.9168ZM194.547 62.5318C194.954 63.2479 195.546 63.6838 196.323 63.8393C197.099 63.9949 197.978 63.7937 198.959 63.2357L199.356 63.0097C200.337 62.4517 200.96 61.7992 201.223 61.0522C201.486 60.3052 201.414 59.5737 201.007 58.8575C200.6 58.1413 200.008 57.7055 199.231 57.55C198.454 57.3944 197.576 57.5956 196.594 58.1536L196.197 58.3796C195.216 58.9376 194.594 59.5901 194.331 60.3371C194.067 61.0841 194.139 61.8156 194.547 62.5318Z" fill="#5E96FF"/>
<path d="M197.934 71.9344L197.664 71.3133L204.405 65.1182L204.762 65.9412L199.25 71.0121L199.27 71.0587L206.739 70.4907L207.137 71.4069L201.624 76.4778L201.645 76.5243L209.113 75.9564L209.444 76.7172L200.308 77.4001L200.039 76.779L205.918 71.3639L205.905 71.3329L197.934 71.9344Z" fill="#5E96FF"/>
<path d="M207.627 86.1972C208.508 85.9525 209.109 85.5632 209.429 85.0291C209.752 84.5059 209.81 83.8692 209.601 83.1189C209.468 82.6404 209.233 82.2371 208.896 81.9091C208.559 81.581 208.158 81.3587 207.692 81.2421C207.229 81.1363 206.753 81.1514 206.264 81.2873L201.142 82.71L200.911 81.8781L209.246 79.5629L209.4 80.1175L208.21 80.6413C208.724 80.8032 209.174 81.0941 209.56 81.514C209.949 81.9447 210.22 82.4374 210.374 82.992C210.628 83.9055 210.567 84.7189 210.191 85.4324C209.829 86.1537 209.132 86.6578 208.099 86.9448L202.732 88.4353L202.506 87.6198L207.627 86.1972Z" fill="#5E96FF"/>
<path d="M209.87 102.073C209.444 102.121 209.034 102.058 208.64 101.886C208.257 101.713 207.939 101.453 207.685 101.107C207.43 100.76 207.279 100.374 207.232 99.9478C207.185 99.5215 207.248 99.1171 207.421 98.7344C207.594 98.3518 207.848 98.034 208.184 97.7809C208.53 97.5267 208.916 97.3758 209.343 97.3284C209.769 97.2811 210.173 97.344 210.556 97.5172C210.95 97.6892 211.273 97.9428 211.526 98.278C211.779 98.6133 211.929 98.9941 211.977 99.4203C212.024 99.8465 211.962 100.257 211.79 100.65C211.618 101.044 211.359 101.368 211.012 101.623C210.677 101.876 210.296 102.026 209.87 102.073Z" fill="#5E96FF"/>
</svg>
